<svg width="40" height="42" viewBox="0 0 40 42" fill="none" xmlns="http://www.w3.org/2000/svg">
<path d="M0 34.6601C0 34.5383 0.0993092 34.4392 0.221286 34.4392H2.97387C4.39982 34.4392 5.19645 35.3992 5.19645 36.5143C5.19645 37.0325 4.9309 37.5411 4.46674 37.8826C5.1306 38.2026 5.5505 38.7542 5.5505 39.4718C5.5505 40.6526 4.65456 41.6126 2.97387 41.6126H0.221286C0.0993092 41.6126 0 41.5135 0 41.3917V34.6601ZM2.70941 37.3191C3.16277 37.3191 3.48337 37.0433 3.48337 36.6016C3.48337 36.1825 3.16277 35.8948 2.70941 35.8948H1.85772C1.7962 35.8948 1.74762 35.9443 1.74762 36.0047V37.2071C1.74762 37.2685 1.79727 37.317 1.85772 37.317H2.70941V37.3191ZM2.86377 40.1559C3.41644 40.1559 3.79209 39.9017 3.79209 39.3834C3.79209 38.876 3.41644 38.6109 2.86377 38.6109H1.85772C1.7962 38.6109 1.74762 38.6605 1.74762 38.7208V40.045C1.74762 40.1064 1.79727 40.1549 1.85772 40.1549H2.86377V40.1559Z" fill="white"/>
<path d="M6.32987 36.1694H7.52373C7.64571 36.1694 7.74502 36.2686 7.74502 36.3903V41.4002C7.74502 41.522 7.64571 41.6211 7.52373 41.6211H6.32987C6.20789 41.6211 6.10858 41.522 6.10858 41.4002V36.3903C6.10858 36.2686 6.20681 36.1694 6.32987 36.1694Z" fill="white"/>
<path d="M10.2353 39.4383C9.35121 39.2842 8.55458 38.7983 8.55458 37.7834C8.55458 36.6575 9.54983 36.0283 10.9315 36.0283C11.8652 36.0283 12.5723 36.3041 12.9954 36.6521C13.0936 36.7329 13.1066 36.8773 13.0224 36.9721L12.3769 37.6918C12.2992 37.778 12.1686 37.791 12.0768 37.7188C11.8016 37.5033 11.3849 37.374 10.9984 37.374C10.5785 37.374 10.2245 37.4731 10.2245 37.7716C10.2245 38.0808 10.7113 38.1465 11.5177 38.2898C12.4017 38.4439 13.1984 38.919 13.1984 39.9339C13.1984 41.0706 12.1588 41.744 10.7437 41.744C9.70959 41.744 8.94318 41.4778 8.50277 41.1051C8.40994 41.0253 8.40238 40.8842 8.48334 40.7926L9.14396 40.0481C9.21736 39.9652 9.34366 39.9479 9.43433 40.0126C9.78083 40.2604 10.2212 40.3767 10.721 40.3767C11.1852 40.3767 11.5285 40.2668 11.5285 39.9684C11.5295 39.6592 11.0427 39.5816 10.2353 39.4383Z" fill="white"/>
<path d="M14.3232 39.4718V37.6844C14.3232 37.623 14.2735 37.5745 14.2131 37.5745H13.6712C13.5492 37.5745 13.4499 37.4754 13.4499 37.3537V36.3829C13.4499 36.2612 13.5492 36.162 13.6712 36.162H14.2131C14.2746 36.162 14.3232 36.1125 14.3232 36.0521V34.9047C14.3232 34.783 14.4225 34.6838 14.5444 34.6838H15.7383C15.8603 34.6838 15.9596 34.783 15.9596 34.9047V36.0521C15.9596 36.1136 16.0093 36.162 16.0697 36.162H17.4849C17.6068 36.162 17.7061 36.2612 17.7061 36.3829V37.3537C17.7061 37.4754 17.6068 37.5745 17.4849 37.5745H16.0697C16.0082 37.5745 15.9596 37.6241 15.9596 37.6844V39.4718C15.9596 40.0235 16.2467 40.2777 16.6893 40.2777C16.8912 40.2777 17.0822 40.2174 17.2463 40.1215C17.3575 40.0569 17.5 40.0978 17.5572 40.212L17.9717 41.0395C18.0203 41.1353 17.9911 41.2517 17.9058 41.3164C17.5216 41.6051 16.984 41.7344 16.3687 41.7344C15.0194 41.7344 14.3232 40.9834 14.3232 39.4718Z" fill="white"/>
<path d="M18.8287 36.1608H19.9233C20.0453 36.1608 20.1446 36.26 20.1446 36.3817V36.8558H20.1662C20.4317 36.4259 20.9509 36.0283 21.7033 36.0283C21.9041 36.0283 22.0995 36.0445 22.2819 36.08C22.4071 36.1048 22.4859 36.2309 22.4535 36.3537L22.1448 37.5151C22.1124 37.6369 21.984 37.7058 21.8631 37.6681C21.7303 37.6272 21.5846 37.6056 21.4378 37.6056C20.7415 37.6056 20.2439 38.0797 20.2439 38.8856V41.3906C20.2439 41.5123 20.1446 41.6114 20.0226 41.6114H18.8287C18.7068 41.6114 18.6075 41.5123 18.6075 41.3906V36.3806C18.6075 36.26 18.7068 36.1608 18.8287 36.1608Z" fill="white"/>
<path d="M22.3121 38.8867C22.3121 37.5518 23.2523 36.0283 25.2428 36.0283C27.2333 36.0283 28.1724 37.5518 28.1724 38.8867C28.1724 40.2216 27.2322 41.745 25.2428 41.745C23.2534 41.745 22.3121 40.2216 22.3121 38.8867ZM25.2417 40.2C25.9272 40.2 26.5025 39.6592 26.5025 38.8867C26.5025 38.1142 25.9272 37.5733 25.2417 37.5733C24.5563 37.5733 23.9809 38.1142 23.9809 38.8867C23.982 39.6592 24.5563 40.2 25.2417 40.2Z" fill="white"/>
<path d="M31.8145 39.2283C30.9304 39.0074 30.1122 38.6217 30.1122 37.6499C30.1122 36.5908 31.0297 36.0273 32.1804 36.0273C32.9447 36.0273 33.6193 36.2676 34.077 36.7233C34.1634 36.8095 34.1634 36.9496 34.077 37.0369L33.7488 37.3644C33.6668 37.4463 33.534 37.4506 33.4466 37.3741C33.1217 37.0886 32.7018 36.9 32.1577 36.9C31.6159 36.9 31.0966 37.0983 31.0966 37.5842C31.0966 38.1358 31.7378 38.3017 32.5453 38.5C33.3969 38.7101 34.2475 39.085 34.2475 40.0892C34.2475 41.2258 33.2188 41.7441 32.0358 41.7441C31.1215 41.7441 30.4609 41.465 30.0302 41.047C29.9427 40.9619 29.9427 40.8196 30.0291 40.7335L30.3648 40.3984C30.4479 40.3154 30.5807 40.3122 30.6681 40.3898C31.0027 40.6893 31.4356 40.8724 32.0681 40.8724C32.7201 40.8724 33.262 40.6623 33.262 40.1549C33.2631 39.5817 32.61 39.4276 31.8145 39.2283Z" fill="white"/>
<path d="M35.7221 41.6126H35.192C35.0701 41.6126 34.9708 41.5135 34.9708 41.3917V34.0524C34.9708 33.9307 35.0701 33.8315 35.192 33.8315H35.7221C35.844 33.8315 35.9433 33.9307 35.9433 34.0524V38.7413C35.9433 38.8393 36.0621 38.8889 36.1322 38.8189L38.7315 36.2245C38.7726 36.1835 38.8298 36.1598 38.8881 36.1598H39.4451C39.6426 36.1598 39.7408 36.3979 39.6016 36.5369L37.5755 38.5592C37.5344 38.6001 37.5323 38.6659 37.5701 38.709L39.7549 41.2463C39.8779 41.3896 39.7765 41.6115 39.5875 41.6115H38.9215C38.8578 41.6115 38.7963 41.5835 38.7542 41.535L36.8965 39.3942C36.8544 39.3457 36.7799 39.3436 36.7346 39.3888L35.9779 40.1441C35.9574 40.1645 35.9455 40.1926 35.9455 40.2216V41.3896C35.9433 41.5135 35.844 41.6126 35.7221 41.6126Z" fill="white"/>
<path d="M29.27 41.5194C29.5233 41.254 29.5131 40.8339 29.2471 40.5811C28.9812 40.3283 28.5603 40.3385 28.3071 40.6039C28.0538 40.8693 28.064 41.2894 28.3299 41.5422C28.5958 41.795 29.0167 41.7848 29.27 41.5194Z" fill="white"/>
<path d="M7.60625 35.3555C7.96397 34.9806 7.94951 34.3873 7.57394 34.0302C7.19838 33.6732 6.60394 33.6876 6.24622 34.0625C5.8885 34.4373 5.90296 35.0307 6.27853 35.3877C6.65409 35.7447 7.24853 35.7303 7.60625 35.3555Z" fill="white"/>
<path d="M34.5034 14.6075C34.4105 14.3672 33.1325 12.0055 30.7588 9.05453C30.7016 8.98342 30.6573 8.89507 30.6498 8.80241C30.3745 5.71995 29.9352 3.67611 29.9352 3.67611C29.8661 3.32272 29.5606 3.06414 29.2109 3.02213L26.7454 2.72476C26.7238 2.72261 26.7022 2.72045 26.6806 2.72045C26.3924 2.72045 26.1593 2.95317 26.1593 3.24084V4.0963C26.1593 4.11354 26.1452 4.12754 26.128 4.12754C26.1204 4.12754 26.1128 4.12431 26.1075 4.12C24.6308 2.79264 22.9673 1.50406 21.1258 0.368473C20.775 0.134676 20.3583 0 19.905 0H19.9039C19.4505 0 19.0339 0.134676 18.683 0.368473C10.1705 5.61437 5.48466 14.141 5.3044 14.6096C5.25258 14.7185 5.22452 14.8402 5.22452 14.9684C5.22452 15.3617 5.49546 15.6924 5.86031 15.7851L8.31281 16.2559C8.63988 16.3453 8.88815 16.6265 8.92593 16.9702C8.94644 17.4023 9.40952 27.0537 9.99135 29.5576C10.0863 29.9185 10.4166 30.1846 10.8074 30.1846H10.8258C12.256 30.1491 13.5665 30.1254 14.9816 30.106H14.9773H14.9903C15.027 30.106 15.0626 30.1049 15.0993 30.1049C15.2504 30.1049 15.3735 29.981 15.3735 29.8302C15.3735 29.828 15.3735 29.8258 15.3735 29.8237C15.3162 28.9812 15.1921 27.0537 15.0917 25.0249C15.0896 24.9743 15.0852 24.9096 15.0831 24.859C15.0744 24.6823 14.9762 24.5293 14.8337 24.442C14.0976 24.0025 13.5935 23.217 13.547 22.3109C13.4186 18.9268 13.3527 15.0147 13.5384 11.9538C13.5535 11.6996 13.7629 11.4949 14.022 11.4905C14.294 11.4862 14.5196 11.7028 14.5239 11.9743C14.5239 11.9872 14.5239 12.0002 14.5229 12.0131C14.402 14.0537 14.3912 16.466 14.4354 18.8449C14.4408 19.1671 14.7074 19.4235 15.0291 19.417C15.3519 19.4116 15.6077 19.1455 15.6023 18.8244C15.558 16.4283 15.5699 14.0009 15.6941 11.9538C15.7092 11.6996 15.9186 11.4949 16.1776 11.4905C16.4497 11.4862 16.6753 11.7028 16.6796 11.9743C16.6796 11.9872 16.6796 12.0002 16.6785 12.0131C16.5587 14.0429 16.5468 16.4401 16.59 18.8083V18.8094C16.5965 19.1304 16.862 19.3858 17.1837 19.3793C17.5043 19.3739 17.7601 19.111 17.7569 18.791C17.7137 16.4057 17.7256 13.9912 17.8497 11.9538C17.8648 11.6996 18.0742 11.4949 18.3333 11.4905C18.6053 11.4862 18.8309 11.7028 18.8352 11.9743C18.8352 11.9872 18.8352 12.0002 18.8342 12.0131C18.6582 14.9889 18.7154 18.7544 18.8363 22.0588C18.8363 22.061 18.8374 22.0879 18.8374 22.0901C18.8374 22.1073 18.8385 22.1235 18.8385 22.1407C18.8385 22.1515 18.8385 22.1623 18.8385 22.173C18.8385 23.077 18.384 23.8743 17.691 24.3515C17.5669 24.4367 17.4838 24.5746 17.473 24.734C17.473 24.734 17.4125 25.2415 17.6371 27.7001C17.7418 28.7732 17.8216 29.5166 17.8583 29.8539C17.8734 29.981 17.9814 30.0801 18.1131 30.0801C18.1897 30.0801 18.2664 30.079 18.3452 30.079H18.3419C18.8147 30.0769 19.3016 30.0758 19.8078 30.0758H19.9028H19.9978C20.6379 30.0758 21.2478 30.078 21.835 30.0801L23.2264 30.092H23.2275C23.3603 30.092 23.4682 29.9918 23.4876 29.8625C23.8093 26.9158 23.886 25.262 23.886 25.262C23.886 25.1133 23.7715 25.0012 23.6226 24.9786L21.9332 24.7459C21.6666 24.6995 21.5069 24.5347 21.4507 24.3322C21.4162 24.2093 21.4291 24.0714 21.4291 24.0714C22.1146 14.2509 25.3583 10.9421 25.3583 10.9421C25.4544 10.8452 25.5159 10.8064 25.5159 10.8064C25.6012 10.7439 25.707 10.7073 25.8214 10.7073C26.0416 10.7073 26.2294 10.8441 26.305 11.037C26.305 11.037 26.332 11.1059 26.3471 11.2729C26.6267 14.3597 26.4907 19.6131 26.3169 23.7105C26.1701 27.1884 25.992 29.9185 25.992 29.9185C25.992 29.9207 25.992 29.9217 25.992 29.9239C25.992 30.0359 26.0826 30.1264 26.1949 30.1264C27.1157 30.1415 28.0224 30.1609 28.9831 30.1846H29.0014C29.3922 30.1846 29.7225 29.9185 29.8175 29.5576C30.3993 27.0537 30.8635 17.4034 30.8829 16.9702C30.9196 16.6265 31.1679 16.3453 31.496 16.2559L33.9485 15.7851C34.3145 15.6924 34.5843 15.3627 34.5843 14.9684C34.5832 14.838 34.5541 14.7163 34.5034 14.6075Z" fill="white"/>
</svg>
