<svg width="139" height="36" viewBox="0 0 139 36" fill="none" xmlns="http://www.w3.org/2000/svg">
<path d="M42.341 15.033C42.341 14.7422 42.582 14.5059 42.8785 14.5059H49.563C53.0269 14.5059 54.9597 16.7961 54.9597 19.4547C54.9597 20.6919 54.3159 21.9024 53.1876 22.7191C54.7991 23.4825 55.8186 24.7985 55.8186 26.5095C55.8186 29.3268 53.6436 31.617 49.563 31.617H42.8785C42.582 31.617 42.341 31.3807 42.341 31.0899V15.033ZM48.9191 21.3777C50.0202 21.3777 50.7988 20.7197 50.7988 19.6667C50.7988 18.6658 50.0202 17.9824 48.9191 17.9824H46.8516C46.7033 17.9824 46.5835 18.0999 46.5835 18.2453V21.1148C46.5835 21.2602 46.7033 21.3777 46.8516 21.3777H48.9191ZM49.2948 28.1441C50.6369 28.1441 51.5502 27.5383 51.5502 26.3011C51.5502 25.0905 50.6369 24.458 49.2948 24.458H46.8516C46.7033 24.458 46.5835 24.5755 46.5835 24.7209V27.88C46.5835 28.0254 46.7033 28.1429 46.8516 28.1429H49.2948V28.1441Z" fill="white"/>
<path d="M57.7106 18.6343H60.6098C60.9064 18.6343 61.1474 18.8706 61.1474 19.1614V31.1129C61.1474 31.4037 60.9064 31.64 60.6098 31.64H57.7106C57.414 31.64 57.173 31.4037 57.173 31.1129V19.1614C57.173 18.8706 57.414 18.6343 57.7106 18.6343Z" fill="white"/>
<path d="M67.1954 26.4321C65.0476 26.0637 63.1148 24.9053 63.1148 22.483C63.1148 19.7978 65.5307 18.2976 68.8872 18.2976C71.1536 18.2976 72.8702 18.9556 73.8971 19.7856C74.1356 19.9783 74.1678 20.3237 73.9614 20.549L72.3944 22.2673C72.2065 22.4733 71.8889 22.5024 71.6665 22.3327C70.9967 21.8202 69.9846 21.51 69.0478 21.51C68.0271 21.51 67.1682 21.7475 67.1682 22.4576C67.1682 23.1943 68.3496 23.353 70.3096 23.6948C72.4574 24.0631 74.3902 25.1949 74.3902 27.6172C74.3902 30.3291 71.8667 31.9347 68.4299 31.9347C65.92 31.9347 64.0577 31.2997 62.9899 30.4091C62.7638 30.2201 62.7453 29.882 62.943 29.6639L64.5483 27.8862C64.7275 27.6875 65.0327 27.6463 65.2539 27.8014C66.0943 28.3915 67.1657 28.6702 68.378 28.6702C69.5051 28.6702 70.338 28.4073 70.338 27.696C70.3368 26.9592 69.1554 26.775 67.1954 26.4321Z" fill="white"/>
<path d="M77.1201 26.5121V22.2479C77.1201 22.1025 77.0002 21.9849 76.8519 21.9849H75.537C75.2404 21.9849 74.9995 21.7487 74.9995 21.4578V19.1422C74.9995 18.8514 75.2404 18.6151 75.537 18.6151H76.8519C77.0002 18.6151 77.1201 18.4975 77.1201 18.3521V15.6148C77.1201 15.3239 77.3611 15.0876 77.6577 15.0876H80.5568C80.8534 15.0876 81.0944 15.3239 81.0944 15.6148V18.3521C81.0944 18.4975 81.2143 18.6151 81.3626 18.6151H84.7993C85.0959 18.6151 85.3369 18.8514 85.3369 19.1422V21.4578C85.3369 21.7487 85.0959 21.9849 84.7993 21.9849H81.3626C81.2143 21.9849 81.0944 22.1025 81.0944 22.2479V26.5121C81.0944 27.828 81.7926 28.4339 82.8666 28.4339C83.3572 28.4339 83.8206 28.2909 84.2198 28.0607C84.4892 27.9056 84.8339 28.0037 84.9736 28.2776L85.9808 30.2515C86.0969 30.4806 86.029 30.7568 85.8214 30.9107C84.8896 31.6002 83.5833 31.9092 82.088 31.9092C78.8119 31.908 77.1201 30.1182 77.1201 26.5121Z" fill="white"/>
<path d="M88.0606 18.6139H90.7176C91.0142 18.6139 91.2552 18.8502 91.2552 19.141V20.2728H91.3083C91.9522 19.2464 93.2151 18.2988 95.0404 18.2988C95.5273 18.2988 96.0019 18.3376 96.4455 18.4236C96.7508 18.483 96.9411 18.7823 96.862 19.0768L96.1119 21.8481C96.0328 22.1401 95.7226 22.3037 95.4285 22.214C95.1072 22.1159 94.7512 22.0637 94.3966 22.0637C92.7048 22.0637 91.4974 23.1955 91.4974 25.1174V31.0925C91.4974 31.3833 91.2564 31.6196 90.9598 31.6196H88.0606C87.764 31.6196 87.5231 31.3833 87.5231 31.0925V19.141C87.5231 18.8502 87.764 18.6139 88.0606 18.6139Z" fill="white"/>
<path d="M96.5184 25.1161C96.5184 21.9304 98.801 18.2976 103.633 18.2976C108.466 18.2976 110.747 21.9304 110.747 25.1161C110.747 28.3018 108.465 31.9347 103.633 31.9347C98.801 31.9347 96.5184 28.3018 96.5184 25.1161ZM103.634 28.2485C105.299 28.2485 106.695 26.958 106.695 25.1161C106.695 23.2731 105.299 21.9838 103.634 21.9838C101.97 21.9838 100.573 23.2731 100.573 25.1161C100.573 26.9592 101.97 28.2485 103.634 28.2485Z" fill="white"/>
<path d="M119.592 25.9329C117.444 25.407 115.457 24.4848 115.457 22.1679C115.457 19.6402 117.685 18.2976 120.478 18.2976C122.333 18.2976 123.972 18.8696 125.084 19.9577C125.294 20.1637 125.294 20.4982 125.084 20.7042L124.287 21.4857C124.087 21.682 123.765 21.6917 123.553 21.5088C122.763 20.8277 121.744 20.377 120.424 20.377C119.108 20.377 117.846 20.8508 117.846 22.0092C117.846 23.3252 119.403 23.7202 121.363 24.194C123.43 24.6945 125.498 25.5887 125.498 27.9844C125.498 30.6963 123.002 31.9335 120.128 31.9335C117.909 31.9335 116.305 31.2682 115.259 30.2697C115.046 30.0662 115.047 29.7281 115.258 29.5221L116.072 28.7235C116.274 28.526 116.598 28.5175 116.809 28.7029C117.621 29.4191 118.673 29.8541 120.209 29.8541C121.793 29.8541 123.108 29.3536 123.108 28.1431C123.109 26.775 121.526 26.4067 119.592 25.9329Z" fill="white"/>
<path d="M129.081 31.6183H127.793C127.496 31.6183 127.255 31.382 127.255 31.0912V13.585C127.255 13.2942 127.496 13.0579 127.793 13.0579H129.081C129.377 13.0579 129.618 13.2942 129.618 13.585V24.7695C129.618 25.0045 129.907 25.1221 130.077 24.9561L136.388 18.7676C136.489 18.6683 136.625 18.6138 136.767 18.6138H138.12C138.599 18.6138 138.838 19.1809 138.5 19.5129L133.579 24.3381C133.48 24.435 133.474 24.5913 133.565 24.6955L138.869 30.7483C139.168 31.09 138.921 31.6183 138.461 31.6183H136.843C136.687 31.6183 136.539 31.5517 136.436 31.4365L131.927 26.3302C131.824 26.2151 131.644 26.2078 131.534 26.3169L129.695 28.12C129.644 28.1696 129.616 28.2363 129.616 28.3066V31.0936C129.617 31.3832 129.377 31.6183 129.081 31.6183Z" fill="white"/>
<path d="M113.419 31.3955C114.034 30.7621 114.009 29.7597 113.363 29.1564C112.718 28.5531 111.695 28.5775 111.08 29.2109C110.465 29.8442 110.49 30.8467 111.135 31.45C111.781 32.0533 112.804 32.0289 113.419 31.3955Z" fill="white"/>
<path d="M60.8139 16.6922C61.6829 15.7976 61.6477 14.3817 60.7354 13.5296C59.8231 12.6776 58.3791 12.712 57.5101 13.6066C56.6412 14.5011 56.6763 15.917 57.5886 16.7691C58.5009 17.6212 59.9449 17.5867 60.8139 16.6922Z" fill="white"/>
<path d="M35.549 17.425C35.4366 17.139 33.8844 14.3217 31.0025 10.8016C30.9333 10.7168 30.8802 10.6113 30.869 10.5011C30.5354 6.8246 30.0015 4.38655 30.0015 4.38655C29.9175 3.96607 29.5467 3.65586 29.1216 3.60618L26.1285 3.25114C26.1026 3.2475 26.0766 3.24629 26.0494 3.24629C25.6997 3.24629 25.4167 3.52378 25.4167 3.86671V4.887C25.4167 4.9076 25.3994 4.92336 25.3784 4.92336C25.3685 4.92336 25.3599 4.91972 25.3537 4.91487C23.5605 3.33111 21.5412 1.79461 19.3057 0.439866C18.8806 0.161163 18.3739 0 17.8239 0H17.8227C17.2728 0 16.7661 0.161163 16.341 0.439866C6.00599 6.69615 0.317601 16.8664 0.0976283 17.425C0.0346025 17.5547 0 17.7001 0 17.8528C0 18.3217 0.328723 18.7168 0.772375 18.8258L3.74942 19.3881C4.14734 19.4947 4.44888 19.8304 4.49337 20.2399C4.51808 20.7549 5.08037 32.2666 5.78725 35.2523C5.90342 35.6825 6.30382 36 6.77836 36H6.80061C8.53691 35.9576 10.1286 35.9285 11.8464 35.9067H11.8414H11.8575C11.902 35.9067 11.9452 35.9055 11.9897 35.9055C12.1739 35.9055 12.3222 35.7576 12.3222 35.5783C12.3222 35.5759 12.3222 35.5722 12.3222 35.5698C12.253 34.5653 12.1022 32.2666 11.9811 29.8467C11.9786 29.7861 11.9737 29.7098 11.97 29.648C11.9588 29.4371 11.8402 29.2542 11.6672 29.1512C10.7737 28.6265 10.162 27.6898 10.1051 26.6089C9.94942 22.5713 9.87033 17.9061 10.0952 14.2563C10.1138 13.9521 10.3671 13.7086 10.6823 13.7037C11.0134 13.6977 11.2853 13.957 11.2915 14.2805C11.2915 14.2963 11.2915 14.3108 11.2903 14.3266C11.1432 16.7598 11.1296 19.6365 11.184 22.4756C11.1914 22.8597 11.5139 23.1651 11.9045 23.1578C12.2962 23.1506 12.6076 22.8343 12.6002 22.4514C12.5471 19.5941 12.5607 16.698 12.7114 14.2563C12.7287 13.9521 12.9833 13.7086 13.2984 13.7037C13.6296 13.6977 13.9015 13.957 13.9077 14.2805C13.9077 14.2963 13.9077 14.3108 13.9065 14.3266C13.7606 16.7477 13.747 19.6074 13.7989 22.4308V22.432C13.8064 22.8149 14.1289 23.1191 14.5194 23.1118C14.9087 23.1057 15.2189 22.7919 15.2152 22.4102C15.162 19.565 15.1769 16.6859 15.3276 14.2551C15.3449 13.9509 15.5995 13.7074 15.9146 13.7025C16.2458 13.6965 16.5177 13.9558 16.5239 14.2793C16.5239 14.2951 16.5239 14.3096 16.5226 14.3254C16.3089 17.8746 16.3781 22.3666 16.5264 26.3072C16.5264 26.3096 16.5276 26.3411 16.5276 26.3435C16.5288 26.3629 16.5288 26.3835 16.5288 26.4029C16.5288 26.4162 16.5288 26.4284 16.5288 26.4417C16.5288 27.5189 15.9777 28.4714 15.1361 29.0397C14.9865 29.1415 14.884 29.3051 14.8716 29.4965C14.8716 29.4965 14.7975 30.1012 15.0706 33.0336C15.1979 34.3132 15.2943 35.2002 15.34 35.6025C15.3573 35.754 15.4895 35.8728 15.6489 35.8728C15.7416 35.8728 15.8355 35.8715 15.9307 35.8715H15.927C16.5004 35.8691 17.0923 35.8679 17.7065 35.8679H17.8215H17.9364C18.7137 35.8679 19.454 35.8703 20.167 35.874L21.8564 35.8885C21.8576 35.8885 21.8576 35.8885 21.8588 35.8885C22.0195 35.8885 22.1505 35.7686 22.174 35.6159C22.5645 32.1018 22.6572 30.1278 22.6572 30.1278C22.6572 29.9497 22.5187 29.8176 22.3371 29.7898L20.2857 29.5123C19.9619 29.4565 19.7691 29.2602 19.6987 29.0191C19.6566 28.8725 19.6727 28.7089 19.6727 28.7089C20.5044 16.9961 24.4429 13.0482 24.4429 13.0482C24.559 12.9318 24.6344 12.8858 24.6344 12.8858C24.7382 12.8119 24.8668 12.7683 25.0052 12.7683C25.2721 12.7683 25.5007 12.9318 25.5922 13.1609C25.5922 13.1609 25.6243 13.242 25.6428 13.442C25.9827 17.1233 25.8171 23.3893 25.607 28.2763C25.4291 32.4241 25.2128 35.6813 25.2128 35.6813C25.2128 35.6837 25.2128 35.6862 25.2128 35.6874C25.2128 35.8207 25.3228 35.9285 25.4587 35.9285C26.5771 35.9467 27.6782 35.9685 28.8448 35.9976H28.8671C29.3416 35.9976 29.742 35.6801 29.8582 35.2499C30.565 32.2642 31.1273 20.7525 31.152 20.2375C31.1965 19.8279 31.4981 19.4923 31.896 19.3856L34.873 18.8234C35.3167 18.7131 35.6454 18.3193 35.6454 17.8503C35.6466 17.7001 35.612 17.5547 35.549 17.425Z" fill="white"/>
</svg>
