<svg width="161" height="130" viewBox="0 0 161 130" fill="none" xmlns="http://www.w3.org/2000/svg">
<path d="M10.96 111.35C7.58 110.58 5.85 110.19 5.85 108.71C5.85 107.36 7.33 106.97 8.94 106.97C11.38 106.97 12.67 107.81 13.73 108.9L16.98 105.65C15.47 103.91 12.99 102.4 8.97 102.4C4.05 102.4 0.670002 104.81 0.670002 108.83C0.670002 112.85 3.53 114.23 6.75 114.97C10.13 115.74 11.9 116.13 11.9 117.64C11.9 119.02 10.39 119.54 8.52 119.54C5.79 119.54 4.53 118.58 3.28 117.35L0 120.63C1.7 122.72 4.41 124.07 8.43 124.07C13.54 124.07 17.08 121.53 17.08 117.44C17.08 113.35 14.06 112.04 10.97 111.33L10.96 111.35Z" fill="#242E30"/>
<path d="M26.8399 119.81C25.5499 119.81 24.7199 119.07 24.7199 117.46V111.93H29.7999V107.81H24.7199V103.5H19.9599V107.81H17.4199V111.93H19.9599V117.46C19.9599 121.87 21.9899 124.05 25.9099 124.05C27.9399 124.05 29.6699 123.57 30.7999 122.47L29.0299 118.93C28.4499 119.44 27.6799 119.8 26.8399 119.8V119.81Z" fill="#242E30"/>
<path d="M38.8099 107.43C35.5299 107.43 33.1499 108.59 31.9299 110.07L34.8199 112.87C35.4999 112.1 36.8799 111.62 38.3299 111.62C40.1299 111.62 41.5099 112.36 41.5099 114.23V114.29L37.5499 114.48C33.0799 114.71 30.9199 116.35 30.9199 119.24C30.9199 122.33 33.5599 124.1 36.9699 124.1C39.0599 124.1 40.7699 123.42 41.7299 122.17H41.7899V123.71H46.2599V113.96C46.2599 110.04 43.5299 107.43 38.7999 107.43H38.8099ZM41.5099 117.88C41.5099 119.65 40.0299 120.74 38.0699 120.74C36.7799 120.74 35.7199 120.26 35.7199 119.16C35.7199 118.2 36.5599 117.71 38.1599 117.62L41.5099 117.43V117.88Z" fill="#242E30"/>
<path d="M68.4101 107.43C65.4801 107.43 63.6201 108.59 62.6501 109.65C61.5201 108.27 59.8201 107.43 57.4401 107.43C55.1901 107.43 53.7101 108.2 52.8701 109.36H52.8101V107.82H48.3401V123.71H53.1001V115.51C53.1001 113.39 54.1001 111.81 56.2801 111.81C58.4601 111.81 59.3701 113.48 59.3701 115.51V123.71H64.1301V115.51C64.1301 113.39 65.1301 111.81 67.3101 111.81C69.4901 111.81 70.4001 113.48 70.4001 115.51V123.71H75.1601V114.77C75.1601 110.52 73.2601 107.44 68.4101 107.44V107.43Z" fill="#242E30"/>
<path d="M86.71 107.43C84.56 107.43 82.79 108.14 81.85 109.36H81.79V107.82H77.29V129.66H82.05V122.39H82.11C83.04 123.52 84.72 124.09 86.71 124.09C91.25 124.09 94.56 120.49 94.56 115.6C94.56 110.71 91.25 107.43 86.71 107.43V107.43ZM85.87 119.65C83.49 119.65 82.04 117.91 82.04 115.76C82.04 113.61 83.49 111.87 85.87 111.87C88.25 111.87 89.7 113.61 89.7 115.76C89.7 117.91 88.25 119.65 85.87 119.65Z" fill="#242E30"/>
<path d="M106.89 107.01C108.66 107.01 110.33 107.65 111.43 108.78L114.65 105.56C112.85 103.73 110.37 102.41 106.93 102.41C99.4001 102.41 95.8301 108.2 95.8301 113.25C95.8301 118.3 99.4001 124.09 106.93 124.09C110.34 124.09 112.85 122.8 114.62 120.97L111.4 117.75C110.31 118.84 108.63 119.49 106.9 119.49C103.65 119.49 101.05 116.79 101.05 113.28C101.05 109.77 103.66 107.01 106.9 107.01H106.89Z" fill="#242E30"/>
<path d="M122.79 107.43C119.51 107.43 117.13 108.59 115.91 110.07L118.8 112.87C119.48 112.1 120.86 111.62 122.31 111.62C124.11 111.62 125.49 112.36 125.49 114.23V114.29L121.53 114.48C117.06 114.71 114.9 116.35 114.9 119.24C114.9 122.33 117.54 124.1 120.95 124.1C123.04 124.1 124.75 123.42 125.71 122.17H125.77V123.71H130.24V113.96C130.24 110.04 127.51 107.43 122.78 107.43H122.79ZM125.49 117.88C125.49 119.65 124.01 120.74 122.05 120.74C120.76 120.74 119.7 120.26 119.7 119.16C119.7 118.2 120.54 117.71 122.14 117.62L125.49 117.43V117.88Z" fill="#242E30"/>
<path d="M141.33 107.43C139.14 107.43 137.63 108.59 136.86 109.84H136.8V107.81H132.33V123.7H137.09V115.76C137.09 113.41 138.54 112.03 140.56 112.03C141.24 112.03 141.91 112.19 142.43 112.48L143.68 107.75C142.97 107.52 142.17 107.43 141.33 107.43Z" fill="#242E30"/>
<path d="M155.28 101.03V109.14H155.22C154.29 108.01 152.61 107.44 150.62 107.44C146.08 107.44 142.77 111.04 142.77 115.93C142.77 120.82 146.08 124.1 150.62 124.1C152.77 124.1 154.54 123.39 155.48 122.17H155.54V123.71H160.04V101.03H155.28V101.03ZM151.45 119.65C149.07 119.65 147.62 117.91 147.62 115.76C147.62 113.61 149.07 111.87 151.45 111.87C153.83 111.87 155.28 113.61 155.28 115.76C155.28 117.91 153.83 119.65 151.45 119.65Z" fill="#242E30"/>
<path d="M52.3299 74.33C55.1899 77.19 59.1499 77.85 62.3299 78.38C63.8399 78.63 65.3999 78.89 66.4899 79.34C67.4499 79.74 68.6899 80.63 69.8799 81.5C72.5199 83.42 75.8099 85.8 80.0199 85.8C84.2299 85.8 87.5299 83.4 90.1799 81.48C91.3599 80.62 92.5899 79.73 93.5499 79.33C94.6299 78.88 96.2099 78.62 97.7399 78.37C100.91 77.84 104.85 77.19 107.69 74.33C110.56 71.46 111.22 67.51 111.75 64.33C112 62.82 112.26 61.26 112.7 60.18C112.79 59.96 112.91 59.72 113.05 59.48C113.1 59.39 113.15 59.3 113.21 59.2C113.6 58.54 114.11 57.83 114.64 57.1L114.88 56.78C116.8 54.14 119.18 50.86 119.18 46.65C119.18 46.5 119.18 46.34 119.18 46.19C119.17 45.89 119.14 45.59 119.11 45.3C119.09 45.15 119.07 45.01 119.05 44.86C119.04 44.8 119.03 44.73 119.02 44.67C118.43 41.39 116.5 38.71 114.89 36.5C114.35 35.75 113.8 35 113.37 34.3C113.36 34.28 113.35 34.26 113.34 34.24C113.27 34.12 113.19 34 113.13 33.89C113.09 33.82 113.06 33.76 113.02 33.69C112.99 33.63 112.95 33.56 112.92 33.5C112.86 33.37 112.8 33.25 112.75 33.13C112.3 32.04 112.04 30.46 111.79 28.94C111.26 25.77 110.61 21.83 107.75 18.98C104.88 16.11 100.93 15.45 97.7599 14.93C96.2399 14.68 94.6799 14.42 93.5899 13.97C93.1699 13.8 92.6899 13.53 92.1899 13.21C91.5499 12.8 90.8599 12.3 90.1899 11.81C88.7499 10.76 87.1099 9.57001 85.2299 8.71001C84.9599 8.59001 84.6899 8.47001 84.4099 8.36001C84.1899 8.27001 83.9599 8.19001 83.7299 8.12001C83.4999 8.04001 83.2699 7.97001 83.0299 7.91001C82.0899 7.66001 81.0899 7.51001 80.0399 7.51001C75.8299 7.51001 72.5199 9.91001 69.8699 11.84C68.6899 12.7 67.4699 13.58 66.4999 13.98C65.9599 14.2 65.2999 14.38 64.5799 14.53C63.8599 14.68 63.0899 14.81 62.3299 14.93C59.1599 15.45 55.2099 16.11 52.3499 18.97C49.4899 21.83 48.8299 25.77 48.2999 28.94V28.98C48.0499 30.48 47.7999 32.03 47.3499 33.12C46.9499 34.09 46.0499 35.33 45.1799 36.53C43.4399 38.93 41.3199 41.85 40.9399 45.51C40.8999 45.89 40.8799 46.27 40.8799 46.67C40.8799 46.8 40.8799 46.93 40.8799 47.06C40.9999 50.44 42.6399 53.22 44.2699 55.55C44.5799 56 44.8999 56.43 45.1999 56.84C46.0599 58.02 46.9399 59.24 47.3399 60.2C47.7899 61.29 48.0399 62.8 48.2999 64.4C48.8199 67.56 49.4799 71.49 52.3399 74.36L52.3299 74.33ZM52.6699 35.31C52.9899 34.53 53.1899 33.33 53.3799 32.17V32.14C53.8399 29.44 54.3999 26.08 56.9299 23.55C59.4599 21.01 62.8199 20.46 65.5199 20.01C66.6999 19.82 67.9099 19.61 68.6899 19.29C69.3799 19.01 70.3199 18.32 71.2299 17.66C73.4899 16.02 76.2999 13.98 80.0199 13.98C83.7399 13.98 86.5399 16.01 88.7899 17.64C89.7099 18.31 90.6699 19 91.3399 19.28C92.1199 19.6 93.3399 19.8 94.5099 20C97.2199 20.45 100.58 21.01 103.12 23.55C105.65 26.07 106.21 29.43 106.65 32.13C106.84 33.31 107.04 34.53 107.37 35.31C107.65 35.99 108.34 36.94 109.01 37.85C110.65 40.11 112.68 42.91 112.68 46.63C112.68 50.35 110.65 53.15 109.02 55.39L108.8 55.69C108.21 56.5 107.62 57.34 107.37 57.96C107.05 58.74 106.85 59.94 106.66 61.11C106.21 63.82 105.65 67.19 103.11 69.73C100.59 72.26 97.2399 72.81 94.5399 73.26C93.3499 73.46 92.1299 73.66 91.3499 73.98C90.6699 74.26 89.7199 74.95 88.8099 75.61C86.5499 77.25 83.7399 79.29 80.0199 79.29C76.2999 79.29 73.4999 77.26 71.2499 75.63C70.3299 74.96 69.3699 74.27 68.6899 73.99C67.9099 73.67 66.6999 73.47 65.5299 73.27C62.8199 72.82 59.4499 72.26 56.9199 69.73C54.3899 67.2 53.8299 63.85 53.3799 61.15C53.1799 59.91 52.9899 58.74 52.6599 57.96C52.3799 57.28 51.6999 56.34 51.0299 55.43C49.3899 53.17 47.3399 50.35 47.3399 46.64C47.3399 42.93 49.3699 40.13 50.9999 37.88C51.6699 36.95 52.3699 35.99 52.6499 35.31H52.6699Z" fill="#FF8000"/>
<path d="M64.4001 84.37C65.5601 84.85 67.0201 85.91 68.4301 86.93C71.4601 89.13 75.24 91.87 80.0201 91.87C84.8001 91.87 88.6001 89.12 91.6401 86.91C93.0401 85.9 94.4701 84.85 95.6401 84.37C96.9401 83.83 98.8001 83.53 100.6 83.23C104.23 82.63 108.75 81.88 111.99 78.63C115.26 75.37 116.01 70.83 116.61 67.18C116.9 65.4 117.2 63.57 117.74 62.27C118.19 61.19 119.08 59.92 120.03 58.61L120.31 58.23C122.51 55.2 125.25 51.43 125.25 46.64C125.25 41.85 122.51 38.07 120.3 35.03C119.28 33.63 118.23 32.19 117.75 31.02C117.21 29.71 116.9 27.86 116.61 26.07C116.01 22.43 115.26 17.91 112.01 14.67C108.75 11.4 104.22 10.65 100.57 10.05C98.7801 9.75004 96.9401 9.45003 95.6401 8.91003C94.4801 8.43003 93.0201 7.37004 91.6201 6.35004C88.5901 4.15004 84.8101 1.41003 80.0301 1.41003C75.2501 1.41003 71.4501 4.16004 68.4001 6.38004C67.0101 7.39004 65.5701 8.43004 64.4001 8.92004C63.1001 9.46004 61.2601 9.76004 59.4701 10.06C55.8301 10.66 51.3001 11.41 48.0501 14.67C44.8001 17.91 44.0501 22.44 43.4401 26.08V26.12C43.1501 27.88 42.8501 29.71 42.3101 31.02C41.8201 32.19 40.7601 33.65 39.7401 35.06C37.5401 38.09 34.8101 41.86 34.8101 46.65C34.8101 51.44 37.5701 55.23 39.7801 58.28C40.7901 59.67 41.8301 61.11 42.3101 62.27C42.8501 63.58 43.1401 65.36 43.4501 67.24C44.0501 70.87 44.8001 75.38 48.0601 78.63C51.3101 81.89 55.8601 82.64 59.5101 83.24C61.2901 83.54 63.1301 83.84 64.4201 84.38L64.4001 84.37ZM45.1801 56.81C44.8801 56.4 44.5701 55.96 44.2501 55.52C42.6201 53.19 40.9801 50.41 40.8601 47.03C40.8601 46.9 40.8601 46.77 40.8601 46.64C40.8601 46.25 40.8801 45.86 40.9201 45.48C41.3001 41.82 43.4201 38.9 45.1601 36.5C46.0301 35.3 46.9301 34.06 47.3301 33.09C47.7801 32 48.0301 30.45 48.2801 28.95V28.91C48.8201 25.74 49.4801 21.8 52.3301 18.94C55.1901 16.07 59.1401 15.42 62.3101 14.9C63.0701 14.77 63.8401 14.65 64.5601 14.5C65.2801 14.35 65.9401 14.17 66.4801 13.95C67.4501 13.55 68.6701 12.66 69.8501 11.81C72.5001 9.88004 75.8101 7.48003 80.0201 7.48003C81.0701 7.48003 82.0701 7.63004 83.0101 7.88004C83.2501 7.94004 83.4801 8.01003 83.7101 8.09003C83.9401 8.17003 84.1601 8.25004 84.3901 8.33004C84.6701 8.44004 84.9401 8.55003 85.2101 8.68003C87.0901 9.54003 88.7201 10.73 90.1701 11.78C90.8401 12.27 91.5301 12.77 92.1701 13.18C92.6701 13.5 93.1401 13.77 93.5701 13.94C94.6601 14.39 96.2201 14.65 97.7401 14.9C100.92 15.43 104.87 16.08 107.73 18.95C110.59 21.8 111.24 25.74 111.77 28.91C112.02 30.43 112.28 32 112.73 33.1C112.78 33.22 112.84 33.35 112.9 33.47C112.93 33.53 112.97 33.6 113 33.66C113.04 33.73 113.07 33.79 113.11 33.86C113.18 33.98 113.25 34.09 113.32 34.21C113.33 34.23 113.34 34.25 113.35 34.27C113.79 34.97 114.34 35.73 114.87 36.47C116.48 38.69 118.42 41.37 119 44.65C119.01 44.71 119.02 44.78 119.03 44.84C119.05 44.98 119.07 45.13 119.09 45.28C119.13 45.57 119.15 45.87 119.16 46.17C119.16 46.32 119.16 46.47 119.16 46.63C119.16 50.84 116.78 54.13 114.86 56.76L114.62 57.08C114.09 57.81 113.58 58.53 113.19 59.18C113.13 59.27 113.08 59.37 113.03 59.46C112.89 59.7 112.78 59.94 112.68 60.16C112.23 61.24 111.97 62.8 111.73 64.31C111.2 67.49 110.55 71.44 107.67 74.31C104.82 77.17 100.89 77.82 97.7201 78.35C96.1901 78.6 94.6101 78.86 93.5301 79.31C92.5601 79.71 91.3401 80.6 90.1601 81.46C87.5101 83.38 84.2101 85.78 80.0001 85.78C75.7901 85.78 72.5001 83.4 69.8601 81.48C68.6601 80.61 67.4301 79.72 66.4701 79.32C65.3901 78.87 63.8301 78.61 62.3101 78.36C59.1301 77.83 55.1701 77.18 52.3101 74.31C49.4401 71.44 48.7901 67.51 48.2701 64.35C48.0101 62.75 47.7601 61.24 47.3101 60.15C46.9101 59.19 46.0301 57.97 45.1701 56.79L45.1801 56.81Z" fill="#F75E28"/>
<path d="M96.6699 49.91C96.6699 51 97.4299 51.69 98.3599 51.69C99.2899 51.69 100.05 51 100.05 49.91C100.05 48.82 99.2899 48.13 98.3599 48.13C97.4299 48.13 96.6699 48.82 96.6699 49.91Z" fill="#FCFCFC"/>
<path d="M86.14 45.14C87.0733 45.14 87.83 44.343 87.83 43.36C87.83 42.3769 87.0733 41.58 86.14 41.58C85.2066 41.58 84.45 42.3769 84.45 43.36C84.45 44.343 85.2066 45.14 86.14 45.14Z" fill="#FCFCFC"/>
<path d="M52.17 54.61C52.88 55.59 53.61 56.6 53.96 57.43C54.35 58.36 54.55 59.61 54.77 60.93C55.18 63.42 55.7 66.53 57.92 68.75C60.14 70.97 63.26 71.49 65.78 71.9C67.03 72.11 68.32 72.32 69.24 72.7C70.07 73.04 71.09 73.79 72.08 74.5C74.17 76.01 76.76 77.9 80.03 77.9C83.3 77.9 85.9 76.01 88 74.49C88.98 73.78 89.99 73.04 90.83 72.7C91.75 72.32 93.06 72.1 94.33 71.89C96.83 71.47 99.94 70.96 102.14 68.75C104.37 66.53 104.88 63.41 105.3 60.89C105.51 59.64 105.72 58.35 106.1 57.43C106.42 56.66 107.05 55.76 107.72 54.84L107.91 54.58C109.42 52.5 111.31 49.9 111.31 46.64C111.31 43.38 109.42 40.77 107.91 38.68C107.2 37.7 106.46 36.68 106.11 35.85C105.72 34.92 105.51 33.62 105.3 32.36C104.89 29.86 104.37 26.75 102.16 24.54C99.94 22.31 96.82 21.8 94.31 21.38C93.06 21.17 91.76 20.96 90.83 20.57C90 20.23 88.98 19.48 87.99 18.77C85.9 17.26 83.31 15.37 80.04 15.37C76.77 15.37 74.16 17.26 72.07 18.79C71.09 19.5 70.08 20.23 69.24 20.58C68.32 20.96 67.02 21.18 65.77 21.38C63.26 21.79 60.15 22.31 57.93 24.53C55.72 26.74 55.2 29.86 54.78 32.36V32.39C54.57 33.63 54.37 34.91 53.98 35.84C53.63 36.68 52.89 37.7 52.17 38.69C50.66 40.78 48.78 43.37 48.78 46.63C48.78 49.89 50.68 52.51 52.2 54.6L52.17 54.61ZM102.66 49.91C102.66 51.89 101.3 54.15 98.36 54.15C95.42 54.15 94.06 51.9 94.06 49.91C94.06 47.92 95.42 45.67 98.36 45.67C101.3 45.67 102.66 47.92 102.66 49.91ZM95.97 39.39H99.07L88.52 53.88H85.42L95.97 39.39ZM86.14 39.12C89.08 39.12 90.44 41.37 90.44 43.36C90.44 45.35 89.08 47.6 86.14 47.6C83.2 47.6 81.84 45.35 81.84 43.36C81.84 41.37 83.2 39.12 86.14 39.12ZM73.36 39.12C77.93 39.12 80.14 42.91 80.14 46.63C80.14 50.35 77.93 54.14 73.36 54.14C68.79 54.14 66.58 50.35 66.58 46.63C66.58 42.91 68.79 39.12 73.36 39.12ZM62.05 39.39H64.48V53.88H60.96V43.33L58.55 44.2L57.37 41.37L62.05 39.39Z" fill="#FCFCFC"/>
<path d="M73.3699 51.01C75.2699 51.01 76.5599 49.23 76.5599 46.64C76.5599 44.05 75.2699 42.27 73.3699 42.27C71.4699 42.27 70.1799 44.05 70.1799 46.64C70.1799 49.23 71.4699 51.01 73.3699 51.01Z" fill="#FCFCFC"/>
<path d="M51.0399 55.43C51.6999 56.34 52.3899 57.28 52.6699 57.96C52.9899 58.74 53.1899 59.91 53.3899 61.15C53.8399 63.84 54.3899 67.19 56.9299 69.73C59.4699 72.27 62.8399 72.82 65.5399 73.27C66.7099 73.46 67.9199 73.66 68.6999 73.99C69.3799 74.27 70.3299 74.96 71.2599 75.63C73.5099 77.26 76.3099 79.29 80.0299 79.29C83.7499 79.29 86.5599 77.25 88.8199 75.61C89.7299 74.95 90.6799 74.26 91.3599 73.98C92.1399 73.66 93.3599 73.46 94.5499 73.26C97.2499 72.81 100.6 72.25 103.12 69.73C105.66 67.19 106.22 63.82 106.67 61.11C106.86 59.94 107.06 58.73 107.38 57.96C107.64 57.34 108.23 56.5 108.81 55.69L109.03 55.39C110.66 53.14 112.69 50.34 112.69 46.63C112.69 42.92 110.65 40.11 109.02 37.85C108.35 36.93 107.66 35.99 107.38 35.31C107.06 34.52 106.86 33.31 106.66 32.13C106.21 29.43 105.66 26.07 103.13 23.55C100.59 21.01 97.2299 20.45 94.5199 20C93.3499 19.81 92.1299 19.6 91.3499 19.28C90.6699 19 89.7199 18.31 88.7999 17.64C86.5499 16.01 83.7499 13.98 80.0299 13.98C76.3099 13.98 73.4999 16.02 71.2399 17.66C70.3299 18.32 69.3899 19 68.6999 19.29C67.9199 19.61 66.7099 19.81 65.5299 20.01C62.8299 20.46 59.4699 21.01 56.9399 23.55C54.4099 26.08 53.8499 29.44 53.3999 32.14V32.17C53.2099 33.33 53.0099 34.53 52.6899 35.31C52.4099 35.99 51.7099 36.95 51.0399 37.88C49.4099 40.13 47.3799 42.93 47.3799 46.64C47.3799 50.35 49.4199 53.17 51.0699 55.43H51.0399ZM52.1499 38.69C52.8699 37.7 53.6199 36.67 53.9599 35.84C54.3499 34.91 54.5499 33.63 54.7599 32.39V32.36C55.1799 29.86 55.6999 26.74 57.9199 24.53C60.1399 22.31 63.2499 21.8 65.7599 21.38C67.0099 21.17 68.3099 20.96 69.2299 20.58C70.0699 20.23 71.0799 19.5 72.0599 18.79C74.1599 17.27 76.7699 15.37 80.0299 15.37C83.2899 15.37 85.8899 17.25 87.9799 18.77C88.9699 19.49 89.9899 20.23 90.8199 20.57C91.7499 20.95 93.0399 21.17 94.2999 21.38C96.8099 21.8 99.9299 22.31 102.15 24.54C104.36 26.75 104.88 29.86 105.29 32.36C105.5 33.62 105.71 34.92 106.1 35.85C106.45 36.69 107.19 37.7 107.9 38.68C109.42 40.77 111.3 43.37 111.3 46.64C111.3 49.91 109.42 52.5 107.9 54.58L107.71 54.84C107.04 55.76 106.41 56.66 106.09 57.43C105.71 58.36 105.49 59.64 105.29 60.89C104.87 63.4 104.36 66.53 102.13 68.75C99.9299 70.96 96.8199 71.48 94.3199 71.89C93.0599 72.1 91.7499 72.31 90.8199 72.7C89.9799 73.05 88.9699 73.78 87.9899 74.49C85.8899 76.01 83.2899 77.9 80.0199 77.9C76.7499 77.9 74.1599 76.02 72.0699 74.5C71.0799 73.78 70.0599 73.04 69.2299 72.7C68.3099 72.32 67.0099 72.1 65.7699 71.9C63.2599 71.48 60.1299 70.97 57.9099 68.75C55.6899 66.53 55.1799 63.43 54.7599 60.93C54.5399 59.61 54.3399 58.36 53.9499 57.43C53.6099 56.6 52.8699 55.59 52.1599 54.61C50.6399 52.51 48.7399 49.9 48.7399 46.64C48.7399 43.38 50.6199 40.78 52.1299 38.7L52.1499 38.69Z" fill="#242E30"/>
<path d="M60.9601 43.34V53.88H64.4901V39.39H62.0601L57.3701 41.37L58.5601 44.2L60.9601 43.34Z" fill="#242E30"/>
<path d="M73.3701 54.15C77.9401 54.15 80.1501 50.36 80.1501 46.64C80.1501 42.92 77.9401 39.13 73.3701 39.13C68.8001 39.13 66.5901 42.92 66.5901 46.64C66.5901 50.36 68.8001 54.15 73.3701 54.15ZM73.3701 42.27C75.2701 42.27 76.5601 44.05 76.5601 46.64C76.5601 49.23 75.2701 51.01 73.3701 51.01C71.4701 51.01 70.1801 49.23 70.1801 46.64C70.1801 44.05 71.4701 42.27 73.3701 42.27Z" fill="#242E30"/>
<path d="M94.0601 49.9099C94.0601 51.8899 95.4201 54.1499 98.3601 54.1499C101.3 54.1499 102.66 51.8999 102.66 49.9099C102.66 47.9199 101.3 45.6699 98.3601 45.6699C95.4201 45.6699 94.0601 47.9199 94.0601 49.9099ZM100.06 49.9099C100.06 50.9999 99.3001 51.6899 98.3701 51.6899C97.4401 51.6899 96.6801 50.9999 96.6801 49.9099C96.6801 48.8199 97.4401 48.1299 98.3701 48.1299C99.3001 48.1299 100.06 48.8199 100.06 49.9099Z" fill="#242E30"/>
<path d="M86.1401 47.59C89.0801 47.59 90.4401 45.34 90.4401 43.35C90.4401 41.36 89.0801 39.11 86.1401 39.11C83.2001 39.11 81.8401 41.36 81.8401 43.35C81.8401 45.34 83.2001 47.59 86.1401 47.59ZM86.1401 41.57C87.0801 41.57 87.8301 42.26 87.8301 43.35C87.8301 44.44 87.0701 45.13 86.1401 45.13C85.2101 45.13 84.4501 44.44 84.4501 43.35C84.4501 42.26 85.2101 41.57 86.1401 41.57Z" fill="#242E30"/>
<path d="M88.5299 53.88L99.0799 39.39H95.9799L85.4299 53.88H88.5299Z" fill="#242E30"/>
<path d="M63.8599 85.68C64.8599 86.09 66.2499 87.1 67.5999 88.08C70.7999 90.4 74.7799 93.29 80.0199 93.29C85.2599 93.29 89.2599 90.39 92.4799 88.06C93.7999 87.1 95.1699 86.1 96.1899 85.69C97.3399 85.22 99.1199 84.92 100.84 84.64C104.67 84 109.44 83.21 113 79.65C116.59 76.07 117.38 71.28 118.02 67.42C118.3 65.73 118.59 63.98 119.06 62.83C119.44 61.9 120.31 60.67 121.17 59.49L121.47 59.08C123.79 55.88 126.68 51.9 126.68 46.66C126.68 41.42 123.79 37.43 121.46 34.22C120.49 32.89 119.49 31.51 119.07 30.5C118.59 29.34 118.3 27.57 118.02 25.86C117.38 22.02 116.59 17.25 113.02 13.68C109.44 10.09 104.65 9.3 100.8 8.66C99.0999 8.38 97.3399 8.09 96.1799 7.61C95.1699 7.19 93.7899 6.19 92.4499 5.21C89.2499 2.89 85.2699 0 80.0199 0C74.7699 0 70.7699 2.9 67.5599 5.24C66.2399 6.2 64.8699 7.19 63.8499 7.61C62.6999 8.09 60.9399 8.38 59.2299 8.66C55.3899 9.29 50.6099 10.08 47.0399 13.66C43.4699 17.23 42.6699 22 42.0299 25.84V25.89C41.7499 27.58 41.4699 29.32 40.9899 30.47C40.5699 31.48 39.5599 32.88 38.5799 34.22C36.2599 37.42 33.3799 41.4 33.3799 46.64C33.3799 51.88 36.2899 55.89 38.6199 59.11C39.5799 60.43 40.5699 61.8 40.9899 62.81C41.4699 63.97 41.7499 65.67 42.0399 67.46C42.6799 71.29 43.4699 76.05 47.0399 79.63C50.6199 83.21 55.4099 84 59.2599 84.64C60.9599 84.92 62.7199 85.21 63.8599 85.69V85.68ZM43.4299 67.22C43.1199 65.34 42.8299 63.56 42.2899 62.25C41.8099 61.09 40.7699 59.66 39.7599 58.26C37.5499 55.21 34.7899 51.41 34.7899 46.63C34.7899 41.85 37.5299 38.07 39.7199 35.04C40.7499 33.63 41.8099 32.17 42.2899 31C42.8299 29.69 43.1299 27.87 43.4199 26.1V26.06C44.0399 22.42 44.7899 17.89 48.0399 14.65C51.2899 11.39 55.8199 10.64 59.4599 10.04C61.2499 9.75 63.0899 9.44 64.3899 8.9C65.5599 8.42 66.9999 7.37 68.3899 6.36C71.4399 4.15 75.2299 1.39 80.0199 1.39C84.8099 1.39 88.5799 4.13 91.6099 6.33C93.0199 7.35 94.4699 8.41 95.6299 8.89C96.9299 9.43 98.7699 9.73 100.56 10.03C104.21 10.63 108.74 11.39 112 14.65C115.25 17.89 116 22.42 116.6 26.05C116.89 27.84 117.2 29.69 117.74 31C118.23 32.17 119.28 33.61 120.29 35.01C122.5 38.05 125.24 41.83 125.24 46.62C125.24 51.41 122.5 55.18 120.3 58.21L120.02 58.59C119.07 59.91 118.17 61.18 117.73 62.25C117.19 63.55 116.89 65.38 116.6 67.16C116 70.81 115.24 75.35 111.98 78.61C108.75 81.85 104.23 82.6 100.59 83.21C98.7899 83.51 96.9299 83.81 95.6299 84.35C94.4599 84.83 93.0299 85.88 91.6299 86.89C88.5799 89.1 84.7899 91.85 80.0099 91.85C75.2299 91.85 71.4499 89.11 68.4199 86.91C67.0099 85.89 65.5499 84.83 64.3899 84.35C63.0899 83.81 61.2599 83.51 59.4799 83.21C55.8299 82.6 51.2899 81.85 48.0299 78.6C44.7799 75.35 44.0299 70.83 43.4199 67.21L43.4299 67.22Z" fill="#242E30"/>
</svg>
