<svg width="226" height="64" viewBox="0 0 226 64" fill="none" xmlns="http://www.w3.org/2000/svg">
<path d="M72.8401 38.1999L75.9701 35.0699C77.1701 36.2399 78.3601 37.1599 80.9701 37.1599C82.7501 37.1599 84.1901 36.6699 84.1901 35.3499C84.1901 33.9099 82.5001 33.5399 79.2801 32.7999C76.2101 32.0899 73.4801 30.5899 73.4801 26.9399C73.4801 23.0999 76.7001 20.7999 81.4001 20.7999C85.2401 20.7999 87.6001 22.2399 89.0501 23.8999L85.9501 26.9999C84.9401 25.9599 83.7101 25.1599 81.3801 25.1599C79.8401 25.1599 78.4301 25.5299 78.4301 26.8199C78.4301 28.2299 80.0901 28.5999 83.3101 29.3399C86.2601 30.0199 89.1401 31.4599 89.1401 35.1699C89.1401 39.0699 85.7601 41.4999 80.8801 41.4999C77.0401 41.4999 74.4601 40.2099 72.8401 38.2099V38.1999Z" fill="#242E30"/>
<path d="M91.89 35.16V29.88H89.46V25.95H91.89V21.84H96.43V25.95H101.28V29.88H96.43V35.16C96.43 36.7 97.23 37.4 98.46 37.4C99.26 37.4 100 37.06 100.55 36.57L102.24 39.95C101.17 40.99 99.51 41.45 97.57 41.45C93.82 41.45 91.89 39.36 91.89 35.16Z" fill="#242E30"/>
<path d="M102.36 36.85C102.36 34.09 104.42 32.52 108.69 32.31L112.47 32.13V32.07C112.47 30.29 111.15 29.58 109.43 29.58C108.05 29.58 106.73 30.04 106.08 30.78L103.32 28.11C104.49 26.7 106.76 25.59 109.89 25.59C114.4 25.59 117.01 28.08 117.01 31.82V41.12H112.74V39.65H112.68C111.76 40.85 110.13 41.49 108.14 41.49C104.89 41.49 102.37 39.8 102.37 36.85H102.36ZM112.46 35.56V35.13L109.27 35.31C107.73 35.4 106.94 35.86 106.94 36.78C106.94 37.82 107.95 38.28 109.18 38.28C111.05 38.28 112.47 37.24 112.47 35.55L112.46 35.56Z" fill="#242E30"/>
<path d="M118.98 25.95H123.25V27.42H123.31C124.11 26.31 125.52 25.58 127.67 25.58C129.94 25.58 131.57 26.38 132.64 27.7C133.56 26.69 135.34 25.58 138.14 25.58C142.78 25.58 144.59 28.53 144.59 32.58V41.12H140.05V33.29C140.05 31.36 139.28 29.76 137.1 29.76C134.92 29.76 134.06 31.26 134.06 33.29V41.12H129.52V33.29C129.52 31.36 128.75 29.76 126.57 29.76C124.39 29.76 123.53 31.26 123.53 33.29V41.12H118.99V25.95H118.98Z" fill="#242E30"/>
<path d="M146.61 25.95H150.91V27.42H150.97C151.86 26.25 153.55 25.58 155.61 25.58C159.94 25.58 163.1 28.87 163.1 33.38C163.1 37.89 159.94 41.49 155.61 41.49C153.71 41.49 152.11 40.94 151.22 39.86H151.16V46.8H146.62V25.95H146.61ZM158.46 33.53C158.46 31.47 157.08 29.81 154.81 29.81C152.54 29.81 151.16 31.47 151.16 33.53C151.16 35.59 152.54 37.25 154.81 37.25C157.08 37.25 158.46 35.59 158.46 33.53Z" fill="#242E30"/>
<path d="M164.31 31.1399C164.31 26.3199 167.72 20.7899 174.9 20.7899C178.19 20.7899 180.55 22.0499 182.27 23.7999L179.2 26.8699C178.16 25.7999 176.56 25.1799 174.87 25.1799C171.77 25.1799 169.28 27.7599 169.28 31.1699C169.28 34.5799 171.77 37.0999 174.87 37.0999C176.53 37.0999 178.12 36.4899 179.17 35.4399L182.24 38.5099C180.55 40.2599 178.16 41.4899 174.9 41.4899C167.72 41.4899 164.31 35.9599 164.31 31.1399Z" fill="#242E30"/>
<path d="M182.53 36.85C182.53 34.09 184.59 32.52 188.86 32.31L192.64 32.13V32.07C192.64 30.29 191.32 29.58 189.6 29.58C188.22 29.58 186.9 30.04 186.25 30.78L183.49 28.11C184.66 26.7 186.93 25.59 190.06 25.59C194.57 25.59 197.18 28.08 197.18 31.82V41.12H192.91V39.65H192.85C191.93 40.85 190.3 41.49 188.31 41.49C185.06 41.49 182.54 39.8 182.54 36.85H182.53ZM192.63 35.56V35.13L189.44 35.31C187.9 35.4 187.11 35.86 187.11 36.78C187.11 37.82 188.12 38.28 189.35 38.28C191.22 38.28 192.64 37.24 192.64 35.55L192.63 35.56Z" fill="#242E30"/>
<path d="M199.15 25.95H203.42V27.88H203.48C204.22 26.68 205.66 25.58 207.75 25.58C208.55 25.58 209.32 25.67 209.99 25.89L208.79 30.4C208.3 30.12 207.65 29.97 207.01 29.97C205.08 29.97 203.69 31.29 203.69 33.53V41.11H199.15V25.94V25.95Z" fill="#242E30"/>
<path d="M209.13 33.69C209.13 29.02 212.29 25.58 216.62 25.58C218.52 25.58 220.12 26.13 221.01 27.21H221.07V19.47H225.61V41.12H221.31V39.65H221.25C220.36 40.82 218.67 41.49 216.61 41.49C212.28 41.49 209.12 38.2 209.12 33.69H209.13ZM221.07 33.54C221.07 31.48 219.69 29.82 217.42 29.82C215.15 29.82 213.77 31.48 213.77 33.54C213.77 35.6 215.15 37.26 217.42 37.26C219.69 37.26 221.07 35.6 221.07 33.54Z" fill="#242E30"/>
<path d="M12.98 50.93C14.94 52.89 17.65 53.34 19.83 53.7C20.87 53.87 21.94 54.05 22.68 54.36C23.34 54.63 24.19 55.25 25 55.84C26.81 57.15 29.06 58.79 31.95 58.79C34.84 58.79 37.09 57.15 38.91 55.83C39.72 55.24 40.56 54.63 41.22 54.36C41.96 54.05 43.04 53.87 44.09 53.7C46.26 53.34 48.96 52.89 50.91 50.94C52.88 48.98 53.33 46.27 53.69 44.09C53.86 43.06 54.04 41.99 54.34 41.25C54.4 41.1 54.48 40.94 54.58 40.77C54.61 40.71 54.65 40.64 54.69 40.58C54.96 40.13 55.31 39.64 55.67 39.14L55.83 38.92C57.14 37.11 58.77 34.86 58.77 31.98C58.77 31.87 58.77 31.77 58.77 31.67C58.77 31.46 58.74 31.26 58.72 31.06C58.71 30.96 58.69 30.86 58.68 30.76C58.68 30.72 58.67 30.67 58.66 30.63C58.26 28.38 56.93 26.55 55.83 25.03C55.46 24.52 55.08 24 54.79 23.52L54.77 23.48C54.72 23.4 54.67 23.32 54.63 23.24C54.6 23.19 54.58 23.15 54.56 23.1C54.54 23.06 54.51 23.01 54.49 22.97C54.45 22.88 54.41 22.8 54.37 22.71C54.06 21.96 53.88 20.88 53.71 19.84C53.35 17.67 52.9 14.97 50.94 13.02C48.98 11.05 46.27 10.6 44.09 10.24C43.05 10.07 41.98 9.89002 41.23 9.58002C40.94 9.46002 40.62 9.28002 40.27 9.06002C39.83 8.78002 39.36 8.44003 38.9 8.10003C37.91 7.38003 36.79 6.57003 35.5 5.98003C35.32 5.90003 35.13 5.82002 34.94 5.74002C34.79 5.68002 34.63 5.62002 34.48 5.57002C34.32 5.52002 34.16 5.47003 34 5.43003C33.36 5.26003 32.67 5.15002 31.95 5.15002C29.06 5.15002 26.8 6.79002 24.98 8.11002C24.17 8.70002 23.34 9.30002 22.67 9.58002C22.3 9.73002 21.85 9.85003 21.36 9.96003C20.87 10.06 20.34 10.15 19.82 10.24C17.65 10.6 14.94 11.05 12.98 13.01C11.02 14.97 10.57 17.67 10.21 19.84V19.87C10.04 20.9 9.87001 21.96 9.56001 22.71C9.28001 23.37 8.67001 24.22 8.07001 25.04C6.88001 26.68 5.43001 28.68 5.17001 31.19C5.14001 31.45 5.13 31.71 5.13 31.98C5.13 32.07 5.13 32.16 5.13 32.25C5.21 34.56 6.34 36.47 7.45 38.06C7.66 38.37 7.88 38.66 8.09 38.95C8.68 39.76 9.28001 40.6 9.56001 41.25C9.87001 42 10.04 43.03 10.22 44.13C10.58 46.29 11.03 48.99 12.99 50.95L12.98 50.93ZM13.21 24.2C13.43 23.67 13.57 22.84 13.69 22.05V22.03C14 20.18 14.39 17.88 16.12 16.15C17.86 14.41 20.16 14.03 22.01 13.73C22.82 13.6 23.65 13.46 24.18 13.24C24.65 13.05 25.29 12.58 25.92 12.13C27.47 11.01 29.4 9.61002 31.94 9.61002C34.48 9.61002 36.4 11 37.94 12.12C38.57 12.58 39.23 13.05 39.69 13.25C40.22 13.47 41.06 13.61 41.86 13.74C43.71 14.05 46.02 14.43 47.76 16.17C49.49 17.9 49.87 20.2 50.18 22.05C50.31 22.86 50.45 23.69 50.67 24.23C50.86 24.7 51.34 25.35 51.79 25.97C52.91 27.52 54.31 29.44 54.31 31.98C54.31 34.52 52.92 36.44 51.8 37.98L51.65 38.18C51.25 38.74 50.84 39.31 50.67 39.74C50.45 40.27 50.31 41.1 50.18 41.9C49.87 43.76 49.49 46.07 47.75 47.8C46.02 49.53 43.73 49.91 41.88 50.22C41.07 50.35 40.23 50.49 39.69 50.71C39.22 50.9 38.58 51.37 37.95 51.83C36.4 52.95 34.48 54.35 31.93 54.35C29.38 54.35 27.47 52.96 25.93 51.84C25.3 51.38 24.64 50.91 24.18 50.71C23.65 50.49 22.82 50.35 22.02 50.22C20.16 49.91 17.86 49.53 16.12 47.79C14.38 46.05 14 43.76 13.7 41.92C13.56 41.07 13.43 40.27 13.21 39.73C13.02 39.27 12.55 38.62 12.1 38C10.98 36.45 9.58001 34.52 9.58001 31.98C9.58001 29.44 10.97 27.52 12.09 25.98C12.55 25.34 13.03 24.69 13.22 24.22L13.21 24.2Z" fill="#FF8000"/>
<path d="M21.25 57.81C22.04 58.14 23.04 58.86 24.01 59.56C26.09 61.07 28.67 62.94 31.95 62.94C35.23 62.94 37.82 61.06 39.91 59.54C40.87 58.85 41.85 58.13 42.65 57.8C43.54 57.43 44.81 57.22 46.05 57.02C48.54 56.61 51.64 56.09 53.85 53.87C56.09 51.64 56.6 48.53 57.02 46.03C57.22 44.81 57.43 43.56 57.8 42.67C58.11 41.93 58.72 41.06 59.37 40.16L59.56 39.9C61.07 37.82 62.94 35.24 62.94 31.96C62.94 28.68 61.06 26.09 59.55 24.01C58.85 23.05 58.13 22.06 57.8 21.26C57.43 20.36 57.22 19.09 57.02 17.87C56.61 15.38 56.09 12.28 53.87 10.06C51.64 7.81998 48.53 7.30998 46.03 6.88998C44.81 6.68998 43.54 6.47998 42.65 6.10998C41.85 5.77998 40.86 5.05998 39.89 4.35998C37.81 2.84998 35.23 0.97998 31.95 0.97998C28.67 0.97998 26.07 2.86998 23.98 4.37998C23.03 5.06998 22.04 5.77998 21.24 6.11998C20.35 6.48998 19.09 6.69998 17.86 6.89998C15.37 7.30998 12.26 7.82998 10.04 10.06C7.81996 12.28 7.29996 15.38 6.87996 17.88V17.91C6.67996 19.12 6.47996 20.37 6.09996 21.27C5.76996 22.07 5.03996 23.07 4.33996 24.04C2.82996 26.12 0.959961 28.7 0.959961 31.98C0.959961 35.26 2.84996 37.86 4.35996 39.95C5.04996 40.9 5.76996 41.89 6.08996 42.68C6.45996 43.58 6.65996 44.79 6.86996 46.08C7.27996 48.56 7.79996 51.66 10.03 53.88C12.26 56.11 15.37 56.63 17.87 57.04C19.09 57.24 20.35 57.45 21.24 57.82L21.25 57.81ZM8.08996 38.93C7.87996 38.65 7.66996 38.35 7.44996 38.04C6.32996 36.45 5.20996 34.54 5.12996 32.23C5.12996 32.14 5.12996 32.05 5.12996 31.96C5.12996 31.69 5.13996 31.43 5.16996 31.17C5.42996 28.66 6.87996 26.66 8.06996 25.02C8.66996 24.2 9.27996 23.35 9.55996 22.69C9.86996 21.94 10.04 20.88 10.21 19.85V19.82C10.58 17.65 11.03 14.95 12.99 12.99C14.95 11.03 17.65 10.58 19.83 10.22C20.35 10.13 20.88 10.05 21.37 9.93998C21.86 9.83998 22.31 9.70998 22.68 9.55998C23.35 9.27998 24.18 8.67998 24.99 8.08998C26.81 6.76998 29.07 5.12998 31.96 5.12998C32.68 5.12998 33.36 5.22998 34.01 5.40998C34.17 5.44998 34.33 5.49998 34.49 5.54998C34.65 5.59998 34.8 5.65998 34.95 5.71998C35.14 5.78998 35.33 5.86998 35.51 5.95998C36.79 6.54998 37.92 7.35998 38.91 8.07998C39.37 8.40998 39.84 8.74998 40.28 9.03998C40.62 9.25998 40.95 9.43998 41.24 9.55998C41.98 9.86998 43.06 10.05 44.1 10.22C46.27 10.58 48.98 11.03 50.95 13C52.91 14.95 53.36 17.65 53.72 19.82C53.89 20.86 54.07 21.94 54.38 22.69C54.41 22.77 54.45 22.86 54.5 22.95C54.52 22.99 54.55 23.04 54.57 23.08C54.59 23.13 54.62 23.17 54.64 23.22C54.69 23.3 54.73 23.38 54.78 23.46L54.8 23.5C55.1 23.98 55.47 24.5 55.84 25C56.94 26.52 58.27 28.35 58.67 30.6C58.67 30.64 58.68 30.69 58.69 30.73C58.71 30.83 58.72 30.93 58.73 31.03C58.75 31.23 58.77 31.43 58.78 31.64C58.78 31.74 58.78 31.85 58.78 31.95C58.78 34.83 57.15 37.08 55.84 38.89L55.68 39.11C55.32 39.61 54.97 40.1 54.7 40.55C54.66 40.61 54.63 40.68 54.59 40.74C54.5 40.91 54.42 41.07 54.35 41.22C54.04 41.96 53.87 43.03 53.7 44.06C53.34 46.24 52.89 48.95 50.92 50.91C48.97 52.87 46.27 53.31 44.1 53.67C43.05 53.84 41.97 54.02 41.23 54.33C40.57 54.6 39.73 55.21 38.92 55.8C37.1 57.12 34.84 58.76 31.96 58.76C29.08 58.76 26.83 57.13 25.01 55.81C24.19 55.22 23.34 54.6 22.69 54.33C21.95 54.02 20.88 53.85 19.84 53.67C17.66 53.31 14.95 52.86 12.99 50.9C11.03 48.94 10.58 46.24 10.22 44.08C10.04 42.99 9.86996 41.95 9.55996 41.2C9.28996 40.54 8.67996 39.71 8.08996 38.9V38.93Z" fill="#F75E28"/>
<path d="M43.3501 34.21C43.3501 34.96 43.8701 35.43 44.5101 35.43C45.1501 35.43 45.6701 34.96 45.6701 34.21C45.6701 33.46 45.1501 32.99 44.5101 32.99C43.8701 32.99 43.3501 33.46 43.3501 34.21Z" fill="#FCFCFC"/>
<path d="M36.15 30.94C36.7906 30.94 37.31 30.3938 37.31 29.72C37.31 29.0462 36.7906 28.5 36.15 28.5C35.5093 28.5 34.99 29.0462 34.99 29.72C34.99 30.3938 35.5093 30.94 36.15 30.94Z" fill="#FCFCFC"/>
<path d="M12.88 37.4301C13.37 38.1001 13.87 38.7901 14.1 39.3601C14.36 40.0001 14.5 40.8501 14.65 41.7601C14.93 43.4701 15.29 45.5901 16.81 47.1101C18.33 48.6301 20.47 48.9801 22.19 49.2701C23.05 49.4101 23.93 49.5601 24.56 49.8201C25.13 50.0501 25.83 50.5601 26.51 51.0601C27.94 52.1001 29.72 53.3901 31.95 53.3901C34.18 53.3901 35.97 52.0901 37.41 51.0501C38.08 50.5601 38.77 50.0601 39.35 49.8201C39.98 49.5601 40.88 49.4101 41.74 49.2701C43.45 48.9901 45.58 48.6301 47.09 47.1201C48.62 45.6001 48.97 43.4601 49.25 41.7401C49.39 40.8901 49.54 40.0001 49.8 39.3701C50.02 38.8401 50.45 38.2301 50.91 37.6001L51.04 37.4201C52.08 35.9901 53.37 34.2101 53.37 31.9801C53.37 29.7501 52.08 27.9601 51.04 26.5301C50.55 25.8601 50.04 25.1601 49.81 24.5901C49.55 23.9501 49.4 23.0601 49.26 22.2001C48.98 20.4901 48.62 18.3501 47.11 16.8401C45.59 15.3201 43.45 14.9601 41.73 14.6801C40.87 14.5401 39.98 14.3901 39.35 14.1301C38.78 13.9001 38.08 13.3901 37.4 12.8901C35.97 11.8501 34.19 10.5601 31.96 10.5601C29.73 10.5601 27.94 11.8601 26.5 12.9001C25.83 13.3901 25.14 13.8901 24.56 14.1201C23.93 14.3801 23.04 14.5301 22.18 14.6701C20.46 14.9501 18.33 15.3101 16.81 16.8301C15.29 18.3401 14.94 20.4801 14.65 22.1901V22.2101C14.51 23.0601 14.37 23.9401 14.1 24.5801C13.86 25.1501 13.35 25.8601 12.86 26.5401C11.82 27.9701 10.53 29.7501 10.53 31.9801C10.53 34.2101 11.83 36.0101 12.87 37.4401L12.88 37.4301ZM47.47 34.2101C47.47 35.5701 46.54 37.1101 44.52 37.1101C42.5 37.1101 41.57 35.5701 41.57 34.2101C41.57 32.8501 42.5 31.3101 44.52 31.3101C46.54 31.3101 47.47 32.8501 47.47 34.2101ZM42.89 27.0001H45.01L37.79 36.9301H35.67L42.89 27.0001ZM36.15 26.8201C38.17 26.8201 39.1 28.3601 39.1 29.7201C39.1 31.0801 38.17 32.6201 36.15 32.6201C34.13 32.6201 33.2 31.0801 33.2 29.7201C33.2 28.3601 34.13 26.8201 36.15 26.8201ZM27.4 26.8201C30.53 26.8201 32.04 29.4201 32.04 31.9701C32.04 34.5201 30.53 37.1201 27.4 37.1201C24.27 37.1201 22.76 34.5201 22.76 31.9701C22.76 29.4201 24.27 26.8201 27.4 26.8201ZM19.65 27.0001H21.31V36.9301H18.9V29.7101L17.25 30.3101L16.44 28.3701L19.65 27.0101V27.0001Z" fill="#FCFCFC"/>
<path d="M27.4 34.96C28.7 34.96 29.58 33.74 29.58 31.97C29.58 30.2 28.69 28.98 27.4 28.98C26.11 28.98 25.22 30.2 25.22 31.97C25.22 33.74 26.11 34.96 27.4 34.96Z" fill="#FCFCFC"/>
<path d="M12.1001 37.99C12.5501 38.61 13.0201 39.26 13.2101 39.72C13.4301 40.26 13.5601 41.06 13.7001 41.91C14.0101 43.75 14.3901 46.05 16.1201 47.78C17.8601 49.52 20.1701 49.9 22.0201 50.21C22.8201 50.34 23.6501 50.48 24.1801 50.7C24.6401 50.89 25.3001 51.37 25.9301 51.83C27.4701 52.95 29.3901 54.34 31.9301 54.34C34.4701 54.34 36.4001 52.94 37.9501 51.82C38.5801 51.37 39.2201 50.9 39.6901 50.7C40.2201 50.48 41.0601 50.34 41.8801 50.21C43.7301 49.9 46.0301 49.52 47.7501 47.79C49.4901 46.05 49.8701 43.74 50.1801 41.89C50.3101 41.09 50.4501 40.26 50.6701 39.73C50.8501 39.3 51.2501 38.73 51.6501 38.17L51.8001 37.97C52.9201 36.43 54.3101 34.51 54.3101 31.97C54.3101 29.43 52.9201 27.5 51.7901 25.96C51.3301 25.33 50.8601 24.68 50.6701 24.22C50.4501 23.68 50.3101 22.85 50.1801 22.04C49.8701 20.19 49.4901 17.89 47.7601 16.16C46.0201 14.42 43.7201 14.04 41.8601 13.73C41.0601 13.6 40.2201 13.46 39.6901 13.24C39.2301 13.05 38.5701 12.57 37.9401 12.11C36.4001 10.99 34.4801 9.59998 31.9401 9.59998C29.4001 9.59998 27.4701 11 25.9201 12.12C25.3001 12.57 24.6501 13.04 24.1801 13.23C23.6501 13.45 22.8201 13.59 22.0101 13.72C20.1601 14.03 17.8601 14.41 16.1201 16.14C14.3901 17.87 14.0001 20.17 13.6901 22.02V22.04C13.5601 22.84 13.4201 23.66 13.2001 24.19C13.0101 24.66 12.5301 25.31 12.0701 25.95C10.9501 27.49 9.56006 29.41 9.56006 31.95C9.56006 34.49 10.9601 36.42 12.0801 37.97L12.1001 37.99ZM12.8601 26.53C13.3501 25.85 13.8601 25.15 14.1001 24.57C14.3601 23.93 14.5101 23.05 14.6501 22.2V22.18C14.9401 20.47 15.3001 18.33 16.8101 16.82C18.3301 15.3 20.4601 14.95 22.1801 14.66C23.0401 14.52 23.9301 14.37 24.5601 14.11C25.1301 13.87 25.8301 13.37 26.5001 12.89C27.9401 11.85 29.7201 10.55 31.9601 10.55C34.2001 10.55 35.9701 11.84 37.4001 12.88C38.0801 13.37 38.7801 13.88 39.3501 14.12C39.9901 14.38 40.8701 14.53 41.7301 14.67C43.4501 14.95 45.5901 15.31 47.1101 16.83C48.6301 18.34 48.9801 20.48 49.2601 22.19C49.4001 23.05 49.5501 23.94 49.8101 24.58C50.0501 25.15 50.5501 25.85 51.0401 26.52C52.0801 27.95 53.3701 29.74 53.3701 31.97C53.3701 34.2 52.0801 35.98 51.0401 37.41L50.9101 37.59C50.4501 38.22 50.0201 38.84 49.8001 39.36C49.5401 39.99 49.3901 40.88 49.2501 41.73C48.9701 43.45 48.6101 45.59 47.0901 47.11C45.5801 48.62 43.4501 48.98 41.7401 49.26C40.8701 49.4 39.9801 49.55 39.3501 49.81C38.7801 50.05 38.0801 50.55 37.4101 51.04C35.9701 52.08 34.1901 53.38 31.9501 53.38C29.7101 53.38 27.9401 52.09 26.5101 51.05C25.8301 50.56 25.1301 50.05 24.5601 49.81C23.9301 49.55 23.0401 49.4 22.1901 49.26C20.4701 48.97 18.3301 48.62 16.8101 47.1C15.2901 45.58 14.9401 43.45 14.6501 41.75C14.5001 40.85 14.3601 39.99 14.1001 39.35C13.8601 38.78 13.3601 38.09 12.8801 37.42C11.8401 35.98 10.5401 34.19 10.5401 31.96C10.5401 29.73 11.8301 27.95 12.8701 26.52L12.8601 26.53Z" fill="#242E30"/>
<path d="M18.8999 29.71V36.93H21.3099V27H19.6499L16.4399 28.36L17.2499 30.3L18.8999 29.71Z" fill="#242E30"/>
<path d="M27.4 37.1101C30.53 37.1101 32.04 34.5101 32.04 31.9601C32.04 29.4101 30.53 26.8101 27.4 26.8101C24.27 26.8101 22.76 29.4101 22.76 31.9601C22.76 34.5101 24.27 37.1101 27.4 37.1101ZM27.4 28.9701C28.7 28.9701 29.58 30.1901 29.58 31.9601C29.58 33.7301 28.69 34.9501 27.4 34.9501C26.11 34.9501 25.22 33.7301 25.22 31.9601C25.22 30.1901 26.11 28.9701 27.4 28.9701Z" fill="#242E30"/>
<path d="M41.5701 34.2101C41.5701 35.5701 42.5001 37.1101 44.5201 37.1101C46.5401 37.1101 47.4701 35.5701 47.4701 34.2101C47.4701 32.8501 46.5401 31.3101 44.5201 31.3101C42.5001 31.3101 41.5701 32.8501 41.5701 34.2101ZM45.6801 34.2101C45.6801 34.9601 45.1601 35.4301 44.5201 35.4301C43.8801 35.4301 43.3601 34.9601 43.3601 34.2101C43.3601 33.4601 43.8801 32.9901 44.5201 32.9901C45.1601 32.9901 45.6801 33.4601 45.6801 34.2101Z" fill="#242E30"/>
<path d="M36.15 32.6199C38.17 32.6199 39.1 31.0799 39.1 29.7199C39.1 28.3599 38.17 26.8199 36.15 26.8199C34.13 26.8199 33.2 28.3599 33.2 29.7199C33.2 31.0799 34.13 32.6199 36.15 32.6199ZM36.15 28.4999C36.79 28.4999 37.31 28.9699 37.31 29.7199C37.31 30.4699 36.79 30.9399 36.15 30.9399C35.51 30.9399 34.99 30.4699 34.99 29.7199C34.99 28.9699 35.51 28.4999 36.15 28.4999Z" fill="#242E30"/>
<path d="M37.7799 36.93L44.9999 27H42.8799L35.6599 36.93H37.7799Z" fill="#242E30"/>
<path d="M20.88 58.71C21.57 58.99 22.52 59.68 23.44 60.35C25.63 61.94 28.36 63.92 31.95 63.92C35.54 63.92 38.28 61.93 40.48 60.33C41.39 59.67 42.33 58.99 43.02 58.7C43.81 58.38 45.03 58.17 46.21 57.98C48.84 57.54 52.1 57 54.54 54.56C57 52.11 57.54 48.83 57.98 46.18C58.17 45.02 58.37 43.82 58.69 43.04C58.95 42.41 59.55 41.56 60.13 40.75L60.34 40.47C61.93 38.28 63.91 35.56 63.91 31.96C63.91 28.36 61.93 25.64 60.33 23.44C59.67 22.53 58.98 21.59 58.69 20.89C58.36 20.1 58.16 18.88 57.97 17.71C57.53 15.08 56.99 11.81 54.55 9.37C52.1 6.91 48.82 6.37 46.18 5.93C45.01 5.74 43.81 5.54 43.02 5.21C42.33 4.93 41.38 4.24 40.46 3.57C38.27 1.98 35.54 0 31.95 0C28.36 0 25.61 1.99 23.41 3.59C22.5 4.25 21.57 4.93 20.87 5.21C20.09 5.54 18.88 5.73 17.71 5.93C15.08 6.36 11.81 6.91 9.36 9.36C6.92 11.8 6.37 15.07 5.93 17.71V17.74C5.74 18.9 5.54 20.09 5.22 20.88C4.93 21.57 4.24 22.53 3.57 23.45C1.98 25.64 0 28.37 0 31.96C0 35.55 1.99 38.3 3.59 40.5C4.25 41.41 4.93 42.34 5.21 43.03C5.54 43.82 5.73 44.99 5.93 46.22C6.37 48.84 6.91 52.1 9.36 54.55C11.81 57 15.09 57.54 17.73 57.98C18.89 58.17 20.1 58.37 20.88 58.7V58.71ZM6.89 46.07C6.68 44.78 6.48 43.57 6.11 42.67C5.78 41.88 5.07 40.89 4.38 39.94C2.86 37.85 0.98 35.25 0.98 31.97C0.98 28.69 2.85 26.11 4.36 24.03C5.06 23.06 5.79 22.06 6.12 21.26C6.49 20.36 6.69 19.11 6.89 17.9V17.87C7.31 15.38 7.83 12.28 10.05 10.05C12.28 7.82 15.38 7.31 17.87 6.89C19.09 6.69 20.36 6.48 21.25 6.11C22.05 5.78 23.04 5.06 23.99 4.37C26.08 2.85 28.68 0.969999 31.96 0.969999C35.24 0.969999 37.82 2.85 39.9 4.35C40.86 5.05 41.86 5.77 42.66 6.1C43.55 6.47 44.81 6.68 46.04 6.88C48.54 7.29 51.65 7.81 53.88 10.05C56.11 12.27 56.62 15.37 57.03 17.86C57.23 19.09 57.44 20.35 57.81 21.25C58.14 22.05 58.86 23.04 59.56 24C61.07 26.08 62.95 28.67 62.95 31.95C62.95 35.23 61.08 37.81 59.57 39.89L59.38 40.15C58.73 41.05 58.12 41.92 57.81 42.66C57.44 43.55 57.23 44.8 57.03 46.02C56.62 48.52 56.1 51.63 53.86 53.86C51.65 56.08 48.55 56.6 46.06 57.01C44.83 57.21 43.55 57.42 42.66 57.79C41.86 58.12 40.88 58.84 39.92 59.53C37.83 61.04 35.24 62.93 31.96 62.93C28.68 62.93 26.1 61.05 24.02 59.55C23.05 58.85 22.06 58.13 21.26 57.8C20.37 57.43 19.11 57.22 17.89 57.02C15.39 56.61 12.28 56.09 10.05 53.86C7.82 51.63 7.31 48.54 6.89 46.06V46.07Z" fill="#242E30"/>
</svg>
