<svg width="156" height="38" viewBox="0 0 156 38" fill="none" xmlns="http://www.w3.org/2000/svg">
<path d="M52.7067 13.6866H47.6366C45.9923 13.6866 45.9923 13.6866 45.6504 15.6125C45.3084 17.5384 45.3068 17.6074 46.8152 17.6074H49.8289L48.1159 27.4503C47.7053 29.6539 46.7465 31.1673 43.8016 32.0612C43.0474 32.2683 42.8429 32.5427 42.8429 32.8877C42.8429 33.3002 42.9787 33.6437 43.3222 34.4702C43.8016 35.6402 44.0748 35.8456 44.4871 35.8456C44.8994 35.8456 45.652 35.6402 45.9252 35.5711C50.1053 34.1941 51.8183 30.9603 52.5022 27.1069L54.4196 16.033C54.7616 13.6931 54.7616 13.6931 52.7067 13.6931" fill="#FF8000"/>
<path d="M69.9033 13.6866C67.8484 13.6866 67.8484 13.6866 67.5736 15.4071L66.0667 24.3528C65.6561 26.9672 64.9706 28.4823 62.4363 28.4823C59.9692 28.4823 59.0807 26.9672 59.4898 24.6305L60.9279 16.0988C61.3402 13.6915 61.2714 13.6915 59.1478 13.6915C57.0913 13.6915 57.0226 13.6915 56.751 15.3429L55.2442 24.2887C54.3525 29.381 57.5036 32.5459 61.9553 32.5459C66.9584 32.5459 69.4926 30.275 70.3156 24.9081L71.8224 16.0314C72.1643 13.6915 72.0269 13.6915 69.9049 13.6915" fill="#FF8000"/>
<path d="M79.2893 28.3442C80.9352 28.2752 81.8252 27.5177 81.8252 26.7618C81.8252 25.7988 80.6603 25.4538 79.0848 24.9723C76.0009 24.0094 73.1917 22.9084 73.1917 19.6039C73.1917 15.6815 76.4131 13.5486 80.4542 13.5486C82.1671 13.5486 84.0862 13.6176 85.3198 13.7556C86.416 13.8936 86.6892 14.2371 86.3472 15.9575C86.0053 17.678 85.593 17.816 84.6343 17.747C83.4694 17.678 81.9626 17.54 80.181 17.54C78.1261 17.54 77.5093 18.2975 77.5093 18.9844C77.5093 19.8783 78.3306 20.3598 80.2497 20.9103C83.8114 21.9422 86.1411 23.3883 86.1411 26.4841C86.1411 30.1321 83.4694 32.2618 79.1535 32.403C77.0919 32.4755 75.028 32.36 72.9872 32.058C71.6162 31.8525 71.5491 31.8525 71.8911 29.856C72.233 28.0666 72.233 27.9301 73.5353 28.0666C76.0696 28.3426 77.6451 28.4116 79.2877 28.3426" fill="#FF8000"/>
<path d="M101.692 13.6866H90.1151C88.4708 13.6866 88.4708 13.6866 88.1289 15.6815C87.7869 17.6764 87.854 17.678 89.2938 17.678H93.0632L90.938 29.9957C90.5257 32.4031 90.5945 32.4031 92.7181 32.4031C94.7058 32.4031 94.7746 32.4031 95.0478 30.6826L97.2401 17.6829H100.872C102.516 17.6829 102.516 17.6829 102.858 15.6864C103.2 13.6899 103.202 13.6915 101.693 13.6915" fill="#FF8000"/>
<path d="M122.111 17.6091C123.756 17.6091 123.756 17.6091 124.098 15.6142C124.44 13.6193 124.441 13.6177 122.933 13.6177H114.643C111.696 13.6177 111.767 13.6177 111.287 16.5771L109.164 29.0328C108.616 32.2667 108.684 32.2667 111.631 32.2667H119.715C121.428 32.2667 121.359 32.2667 121.702 30.3408C122.044 28.3459 122.044 28.3459 120.537 28.3459H113.547L114.095 24.767H119.919C121.495 24.767 121.495 24.767 121.768 22.9101C122.043 20.9842 122.043 20.9842 119.919 20.9842H114.78L115.328 17.6139L122.111 17.6091Z" fill="#FF8000"/>
<path d="M130.881 24.2149L133.552 18.3024C133.758 17.8209 133.758 17.8209 134.1 17.8209C134.442 17.8209 134.444 17.8209 134.513 18.3714L135.334 24.2197L130.881 24.2149ZM138.143 15.9576C137.732 13.6177 137.732 13.6177 134.444 13.6177C131.36 13.6177 131.429 13.6177 130.47 15.5436L123.55 30.0632C122.522 32.1271 122.728 32.3341 125.262 32.3341C127.25 32.3341 127.25 32.3341 128.072 30.4756L129.176 27.9992H135.887L136.23 30.4772C136.504 32.3357 136.572 32.3357 138.559 32.3357C140.82 32.3357 141.026 32.1977 140.615 29.9283L138.143 15.9576Z" fill="#FF8000"/>
<path d="M154.518 13.6866H142.871C141.227 13.6866 141.227 13.6866 140.884 15.6815C140.54 17.6764 140.61 17.678 142.048 17.678H145.816L143.693 29.9957C143.282 32.4031 143.351 32.4031 145.474 32.4031C147.461 32.4031 147.529 32.4031 147.804 30.6826L149.996 17.6829H153.624C155.268 17.6829 155.268 17.6829 155.611 15.6864C156.022 13.6915 156.022 13.6915 154.515 13.6915" fill="#FF8000"/>
<path d="M35.9671 18.0552C35.8521 17.7583 34.2813 14.8454 31.3668 11.191C31.2931 11.1024 31.2465 10.9943 31.2325 10.8797C31.0572 8.75284 30.7638 6.63749 30.3537 4.5435C30.3073 4.33317 30.1965 4.1427 30.0369 3.9988C29.8773 3.85489 29.6769 3.76476 29.4637 3.74105L26.4309 3.36711C26.4043 3.36466 26.3775 3.36466 26.351 3.36711C26.1814 3.36711 26.0189 3.43474 25.899 3.55513C25.7791 3.67552 25.7118 3.83881 25.7118 4.00907V5.0651C25.7118 5.07531 25.7078 5.08511 25.7006 5.09233C25.6934 5.09956 25.6836 5.10362 25.6734 5.10362C25.6641 5.10352 25.655 5.10011 25.6479 5.09399C23.7505 3.36676 21.7022 1.81444 19.5279 0.455806C19.0846 0.157544 18.5627 -0.00114947 18.0291 1.27491e-05C17.4954 -0.00163825 16.9734 0.157097 16.5303 0.455806C6.07681 6.93642 0.32118 17.4774 0.0990724 18.0552C0.0334891 18.1941 -0.000358629 18.346 2.86535e-06 18.4998C0.000267137 18.7313 0.0771864 18.9561 0.218648 19.1388C0.360109 19.3216 0.558077 19.4519 0.781376 19.5093L3.79342 20.0902C3.99156 20.1458 4.16856 20.2598 4.30157 20.4174C4.43459 20.575 4.51751 20.7691 4.53963 20.9745C4.5652 21.509 5.13405 33.4382 5.84831 36.5325C5.90713 36.7547 6.03741 36.9512 6.21888 37.0914C6.40035 37.2316 6.62286 37.3076 6.8518 37.3077H6.87417C8.63186 37.2627 10.2409 37.2338 11.9795 37.2098H12.1233C12.1677 37.2098 12.2116 37.201 12.2527 37.1838C12.2937 37.1667 12.3309 37.1416 12.3622 37.11C12.3936 37.0784 12.4184 37.0409 12.4352 36.9996C12.4521 36.9583 12.4606 36.9141 12.4604 36.8695V36.8615C12.3901 35.8199 12.2383 33.4382 12.1153 30.9233C12.1153 30.8608 12.1153 30.7821 12.1041 30.7179C12.0986 30.6134 12.0678 30.5119 12.0143 30.4221C11.9609 30.3323 11.8864 30.257 11.7973 30.2027C11.3386 29.9277 10.9545 29.5433 10.6789 29.0837C10.4032 28.6241 10.2446 28.1033 10.217 27.5675C10.0572 23.3851 9.97888 18.5495 10.2074 14.7668C10.2178 14.6108 10.2877 14.4648 10.4024 14.3592C10.5172 14.2536 10.668 14.1964 10.8236 14.1995C10.9792 14.2026 11.1277 14.2657 11.2382 14.3758C11.3487 14.4859 11.4127 14.6346 11.417 14.7908C11.417 14.8069 11.417 14.8229 11.417 14.839C11.2684 17.3603 11.2572 20.3422 11.3083 23.284C11.31 23.3788 11.3303 23.4724 11.368 23.5594C11.4056 23.6464 11.46 23.725 11.528 23.7909C11.5959 23.8568 11.6761 23.9086 11.764 23.9433C11.8519 23.978 11.9457 23.9951 12.0402 23.9934C12.1346 23.9917 12.2278 23.9713 12.3144 23.9335C12.401 23.8956 12.4793 23.841 12.5449 23.7728C12.6105 23.7045 12.662 23.6239 12.6966 23.5357C12.7312 23.4474 12.7481 23.3532 12.7464 23.2583C12.6921 20.2973 12.7065 17.2961 12.8583 14.7668C12.8615 14.6054 12.9283 14.452 13.0441 14.3402C13.16 14.2284 13.3153 14.1673 13.4759 14.1705C13.6365 14.1737 13.7893 14.2409 13.9006 14.3572C14.0119 14.4735 14.0727 14.6295 14.0695 14.7908V14.839C13.9209 17.3474 13.9097 20.3117 13.9608 23.2375C13.9638 23.429 14.0424 23.6115 14.1794 23.7448C14.3163 23.8782 14.5004 23.9514 14.6911 23.9484C14.8818 23.9454 15.0635 23.8665 15.1963 23.729C15.329 23.5914 15.4019 23.4065 15.399 23.215C15.3462 20.2668 15.3606 17.2768 15.5124 14.7652C15.5156 14.6038 15.5824 14.4504 15.6983 14.3386C15.8141 14.2268 15.9694 14.1657 16.13 14.1689C16.2906 14.1721 16.4434 14.2393 16.5547 14.3556C16.666 14.4719 16.7268 14.6279 16.7236 14.7892C16.7236 14.8053 16.7236 14.8213 16.7236 14.8374C16.5079 18.5158 16.5782 23.17 16.7236 27.2545C16.7236 27.2545 16.7236 27.2898 16.7236 27.2931C16.7236 27.2963 16.7236 27.3348 16.7236 27.3556V27.3958C16.7241 27.9256 16.596 28.4476 16.3504 28.9166C16.1048 29.3855 15.7492 29.7873 15.3143 30.0872C15.237 30.1407 15.1729 30.2111 15.1266 30.2931C15.0804 30.3751 15.0533 30.4666 15.0474 30.5606C15.0474 30.5606 14.9723 31.1882 15.2488 34.2262C15.3766 35.5535 15.4757 36.4731 15.5204 36.8888C15.5305 36.9665 15.5686 37.0378 15.6275 37.0892C15.6864 37.1407 15.762 37.1687 15.84 37.168H16.1212C16.7012 37.168 17.2989 37.168 17.9204 37.168H18.1537H20.41L22.1197 37.1825C22.1982 37.1831 22.2742 37.1546 22.3332 37.1025C22.3921 37.0504 22.4299 36.9783 22.4393 36.9C22.834 33.2585 22.9267 31.2122 22.9267 31.2122C22.9245 31.125 22.8909 31.0414 22.8322 30.9771C22.7734 30.9128 22.6935 30.872 22.6071 30.8624L20.5298 30.5751C20.392 30.558 20.2622 30.5004 20.1568 30.4097C20.0514 30.3189 19.9749 30.1989 19.937 30.0647C19.9109 29.9599 19.9017 29.8515 19.9098 29.7437C20.7519 17.6058 24.7371 13.5149 24.7371 13.5149C24.7953 13.4519 24.8601 13.3954 24.9304 13.3464C25.0388 13.2665 25.1699 13.2237 25.3043 13.2244C25.4327 13.2246 25.5581 13.2635 25.6641 13.3362C25.7701 13.4089 25.8519 13.512 25.8988 13.6321C25.9282 13.7268 25.9454 13.825 25.9499 13.9242C26.295 17.739 26.1257 24.2325 25.9131 29.2976C25.7326 33.5971 25.5153 36.9722 25.5153 36.9722C25.515 37.005 25.5213 37.0376 25.5336 37.0679C25.546 37.0983 25.5642 37.1259 25.5872 37.1492C25.6103 37.1725 25.6376 37.1909 25.6678 37.2035C25.6979 37.2161 25.7303 37.2226 25.7629 37.2226C26.8942 37.2419 28.008 37.2643 29.1888 37.2948H29.2112C29.4401 37.2948 29.6626 37.2187 29.8441 37.0785C30.0256 36.9384 30.1559 36.7419 30.2147 36.5197C30.9305 33.4254 31.493 21.4961 31.5234 20.9617C31.5464 20.7556 31.6304 20.5612 31.7645 20.4035C31.8987 20.2459 32.0769 20.1323 32.276 20.0774L35.288 19.4964C35.5113 19.4391 35.7093 19.3088 35.8507 19.126C35.9922 18.9432 36.0691 18.7184 36.0694 18.4869C36.0662 18.3374 36.0313 18.1902 35.9671 18.0552Z" fill="#FF8000"/>
</svg>
