<svg width="50" height="46" viewBox="0 0 50 46" fill="none" xmlns="http://www.w3.org/2000/svg">
<path d="M36.1691 12.1782C36.0983 11.9922 35.1192 10.1672 33.3023 7.87766C33.2562 7.82226 33.2271 7.75446 33.2187 7.68259C33.1087 6.34982 32.9258 5.0242 32.6708 3.71182C32.6419 3.58004 32.5728 3.46071 32.4734 3.37055C32.3739 3.28039 32.2489 3.22392 32.116 3.20906L30.2284 2.9788C30.2118 2.9778 30.1952 2.9778 30.1786 2.9788C30.073 2.9788 29.9716 3.02118 29.8969 3.0966C29.8222 3.17203 29.7802 3.27433 29.7802 3.381V4.04364C29.7802 4.05004 29.7777 4.05618 29.7732 4.0607C29.7687 4.06523 29.7626 4.06777 29.7563 4.06777C29.7504 4.0679 29.7447 4.06574 29.7403 4.06174C28.5578 2.98 27.2814 2.00777 25.9264 1.15681C25.6498 0.969508 25.3241 0.869732 24.991 0.870241C24.658 0.869732 24.3323 0.969508 24.0557 1.15681C17.5383 5.21908 13.9505 11.8223 13.812 12.1853C13.7711 12.2719 13.75 12.3668 13.7502 12.4628C13.7502 12.6079 13.7981 12.7488 13.8863 12.8634C13.9745 12.9779 14.098 13.0595 14.2373 13.0953L16.1169 13.4532C16.241 13.4873 16.3521 13.5583 16.4358 13.6569C16.5195 13.7555 16.5718 13.8772 16.5861 14.0063C16.601 14.3411 16.9566 21.8151 17.4019 23.7597C17.4387 23.8988 17.52 24.0216 17.6331 24.1093C17.7462 24.1969 17.8848 24.2444 18.0274 24.2444H18.0414C19.1371 24.2172 20.1401 24.1981 21.2288 24.184H21.2358H21.3185C21.3741 24.1838 21.4274 24.1613 21.4668 24.1216C21.5062 24.0819 21.5284 24.0281 21.5286 23.9719V23.9588C21.4838 23.3062 21.3892 21.8141 21.3125 20.2434C21.3125 20.2042 21.3075 20.154 21.3055 20.1147C21.3022 20.0494 21.2832 19.9858 21.25 19.9296C21.2169 19.8733 21.1706 19.8261 21.1153 19.792C20.8294 19.6196 20.59 19.3787 20.4182 19.0908C20.2464 18.8028 20.1475 18.4766 20.1302 18.1409C20.0305 15.5195 19.9817 12.4899 20.1232 10.1199C20.1253 10.0189 20.1671 9.92279 20.2394 9.85283C20.3117 9.78287 20.4085 9.74477 20.5087 9.7469C20.6088 9.74904 20.704 9.79123 20.7733 9.86421C20.8426 9.93719 20.8803 10.035 20.8782 10.136V10.1652C20.7856 11.7459 20.7786 13.6141 20.8105 15.4572C20.8126 15.5772 20.8618 15.6915 20.9474 15.7748C20.9898 15.8161 21.0398 15.8485 21.0945 15.8703C21.1493 15.892 21.2078 15.9027 21.2667 15.9016C21.3255 15.9006 21.3836 15.8878 21.4376 15.8641C21.4916 15.8404 21.5404 15.8062 21.5813 15.7634C21.6222 15.7207 21.6543 15.6702 21.6759 15.6149C21.6974 15.5596 21.708 15.5005 21.7069 15.4411C21.6731 13.5859 21.683 11.7056 21.7777 10.1199C21.7798 10.0189 21.8216 9.92279 21.8939 9.85283C21.9662 9.78287 22.063 9.74477 22.1632 9.7469C22.2633 9.74904 22.3585 9.79123 22.4278 9.86421C22.4971 9.93719 22.5348 10.035 22.5327 10.136C22.5332 10.1457 22.5332 10.1555 22.5327 10.1652C22.4411 11.7378 22.4331 13.594 22.465 15.428C22.4668 15.5481 22.5158 15.6624 22.6012 15.7459C22.6866 15.8295 22.8013 15.8754 22.9202 15.8735C23.0391 15.8716 23.1523 15.8222 23.2351 15.736C23.3178 15.6498 23.3633 15.534 23.3614 15.414C23.3276 13.5668 23.3375 11.6936 23.4322 10.1189C23.4332 10.0689 23.444 10.0196 23.464 9.97372C23.4839 9.92789 23.5126 9.88647 23.5484 9.85183C23.5842 9.81719 23.6264 9.79 23.6726 9.77183C23.7188 9.75365 23.7681 9.74484 23.8176 9.7459C23.8672 9.74695 23.9161 9.75786 23.9615 9.77798C24.0069 9.79811 24.0479 9.82707 24.0823 9.8632C24.1166 9.89934 24.1435 9.94194 24.1615 9.98858C24.1795 10.0352 24.1882 10.085 24.1872 10.135C24.1877 10.1447 24.1877 10.1545 24.1872 10.1642C24.0527 12.4688 24.0965 15.3858 24.1872 17.9448C24.1872 17.9448 24.1872 17.967 24.1872 17.968C24.1872 17.969 24.1872 17.9941 24.1872 18.0072V18.0323C24.1875 18.3644 24.1076 18.6916 23.9545 18.9856C23.8015 19.2796 23.5798 19.5315 23.3087 19.7196C23.2598 19.7537 23.2194 19.7986 23.1904 19.8508C23.1614 19.9031 23.1446 19.9614 23.1413 20.0212C23.1413 20.0212 23.0955 20.4134 23.2668 22.3178C23.3475 23.1494 23.4083 23.7255 23.4371 23.986C23.4435 24.0346 23.4672 24.0793 23.5039 24.1115C23.5406 24.1438 23.5877 24.1613 23.6364 24.1609H23.8107H24.9333H25.0787C25.5688 24.1609 26.0349 24.1609 26.4852 24.1609L27.55 24.171C27.5989 24.1713 27.6463 24.1535 27.683 24.1208C27.7198 24.0882 27.7433 24.0431 27.7492 23.994C27.9962 21.7115 28.054 20.4305 28.054 20.4305C28.0531 20.3757 28.0323 20.3231 27.9956 20.2827C27.9589 20.2423 27.9088 20.2169 27.8548 20.2113L26.5599 20.0303C26.4738 20.0197 26.3927 19.9838 26.3268 19.9269C26.2608 19.87 26.213 19.7947 26.1893 19.7105C26.173 19.6448 26.1676 19.5769 26.1734 19.5094C26.6983 11.9037 29.1815 9.34068 29.1815 9.34068C29.2181 9.30297 29.2585 9.26926 29.3021 9.24012C29.3513 9.20411 29.4081 9.17997 29.4681 9.16954C29.528 9.15911 29.5895 9.16267 29.6479 9.17994C29.7062 9.19722 29.7599 9.22776 29.8048 9.26921C29.8496 9.31067 29.8845 9.36194 29.9067 9.4191C29.9245 9.47826 29.9352 9.53937 29.9386 9.6011C30.1527 11.9922 30.0481 16.0605 29.9157 19.2339C29.8031 21.9277 29.6666 24.0413 29.6666 24.0413V24.0463C29.6666 24.0668 29.6707 24.0872 29.6785 24.1062C29.6863 24.1251 29.6978 24.1424 29.7122 24.1569C29.7267 24.1713 29.7438 24.1828 29.7626 24.1906C29.7815 24.1983 29.8017 24.2023 29.822 24.2021C30.5273 24.2142 31.2215 24.2293 31.9576 24.2474H31.9546C32.0972 24.2472 32.2357 24.1997 32.3488 24.1121C32.4618 24.0245 32.5432 23.9017 32.5802 23.7627C33.0254 21.8231 33.377 14.3491 33.396 14.0093C33.4101 13.8802 33.4624 13.7584 33.5461 13.6597C33.6298 13.5611 33.7409 13.4902 33.8651 13.4562L35.7398 13.0882C35.879 13.0525 36.0025 12.9709 36.0907 12.8563C36.179 12.7418 36.2268 12.6008 36.2268 12.4558C36.2283 12.3601 36.2086 12.2652 36.1691 12.1782Z" fill="#FF8000"/>
<path d="M10.5389 28.6052H8.96508C8.45608 28.6052 8.45609 28.6052 8.3495 29.2085C8.24292 29.8118 8.24392 29.8299 8.71108 29.8299H9.64242L9.11151 32.8947C8.98401 33.5805 8.68618 34.0521 7.77377 34.3306C7.53969 34.395 7.47495 34.4814 7.47495 34.588C7.47495 34.7167 7.51778 34.8243 7.62336 35.0817C7.77277 35.4457 7.85744 35.5101 7.98494 35.5101C8.1357 35.4959 8.28479 35.4673 8.43019 35.4246C9.72509 34.9953 10.257 33.9877 10.4692 32.7882L11.0668 29.3372C11.1724 28.6082 11.1724 28.6082 10.5359 28.6082" fill="#FF8000"/>
<path d="M15.8659 28.6052C15.2294 28.6052 15.2294 28.6052 15.1438 29.1412L14.6766 31.9274C14.5501 32.7419 14.337 33.2135 13.552 33.2135C12.787 33.2135 12.5111 32.7419 12.6386 32.0129L13.0849 29.3553C13.2124 28.6052 13.1905 28.6052 12.533 28.6052C11.8956 28.6052 11.8746 28.6052 11.789 29.12L11.3218 31.9023C11.0459 33.488 12.0191 34.4744 13.4026 34.4744C14.9535 34.4744 15.7384 33.7705 15.9924 32.0953L16.4596 29.3302C16.5662 28.6012 16.5234 28.6012 15.862 28.6012" fill="#FF8000"/>
<path d="M18.7755 33.1703C19.2845 33.1491 19.5604 32.9139 19.5604 32.6776C19.5604 32.3759 19.1998 32.2754 18.7117 32.1205C17.7555 31.8189 16.8849 31.477 16.8849 30.4484C16.8849 29.2267 17.881 28.562 19.1361 28.562C19.667 28.562 20.2616 28.5841 20.6431 28.6264C20.9828 28.6696 21.0685 28.7772 20.9619 29.3121C20.8553 29.8471 20.7288 29.8913 20.431 29.8702C20.0704 29.8481 19.6032 29.8058 19.0514 29.8058C18.4139 29.8058 18.2227 30.0411 18.2227 30.2553C18.2227 30.5338 18.4777 30.6846 19.0723 30.8586C20.176 31.1804 20.8981 31.6308 20.8981 32.5951C20.8981 33.7313 20.0704 34.395 18.7327 34.4382C18.0936 34.461 17.4538 34.425 16.8212 34.3306C16.3968 34.2673 16.3759 34.2673 16.4815 33.6449C16.5881 33.0878 16.5881 33.0416 16.9915 33.0878C17.583 33.164 18.1795 33.1926 18.7755 33.1733" fill="#FF8000"/>
<path d="M25.7182 28.6052H22.1323C21.6223 28.6052 21.6223 28.6052 21.5157 29.2266C21.4091 29.848 21.431 29.848 21.8773 29.848H23.0447L22.3863 33.6851C22.2588 34.4352 22.2807 34.4352 22.9391 34.4352C23.5547 34.4352 23.5756 34.4352 23.6603 33.8992L24.3396 29.848H25.4652C25.9752 29.848 25.9752 29.848 26.0807 29.2266C26.1863 28.6052 26.1873 28.6052 25.7202 28.6052" fill="#FF8000"/>
<path d="M32.0453 29.8269C32.5553 29.8269 32.5553 29.8269 32.6609 29.2055C32.7665 28.5841 32.7675 28.5841 32.3003 28.5841H29.7314C28.818 28.5841 28.8399 28.5841 28.6905 29.5052L28.0321 33.3854C27.8627 34.3909 27.8837 34.3909 28.7971 34.3909H31.3022C31.8331 34.3909 31.8122 34.3909 31.9178 33.7876C32.0244 33.1652 32.0244 33.1652 31.5572 33.1652H29.3917L29.5611 32.0511H31.366C31.854 32.0511 31.854 32.0511 31.9397 31.4719C32.0244 30.8686 32.0244 30.8686 31.366 30.8686H29.7722L29.9426 29.8179L32.0453 29.8269Z" fill="#FF8000"/>
<path d="M34.7636 31.8842L35.5913 30.0411C35.6551 29.8913 35.6551 29.8913 35.7617 29.8913C35.8683 29.8913 35.8673 29.8913 35.8892 30.0632L36.1432 31.8842H34.7636ZM37.0137 29.3121C36.8862 28.5841 36.8862 28.5841 35.8673 28.5841C34.912 28.5841 34.9329 28.5841 34.6361 29.1874L32.4915 33.7122C32.1728 34.3557 32.2365 34.4161 33.0225 34.4161C33.638 34.4161 33.638 34.4161 33.893 33.8369L34.2327 33.0657H36.3135L36.4191 33.8369C36.5047 34.4161 36.5257 34.4161 37.1412 34.4161C37.8385 34.4161 37.9062 34.3728 37.7787 33.666L37.0137 29.3121Z" fill="#FF8000"/>
<path d="M42.0888 28.6052H38.479C37.97 28.6052 37.97 28.6052 37.8634 29.2266C37.7568 29.848 37.7788 29.848 38.224 29.848H39.3924L38.734 33.6851C38.6065 34.4352 38.6274 34.4352 39.2858 34.4352C39.9014 34.4352 39.9233 34.4352 40.008 33.8992L40.6873 29.848H41.8159C42.3249 29.848 42.3249 29.848 42.4315 29.2266C42.559 28.6052 42.559 28.6052 42.0918 28.6052" fill="#FF8000"/>
<path d="M5.28255 38.2682V37.4849C5.27961 37.4384 5.25963 37.3946 5.2265 37.3621C5.19336 37.3295 5.14944 37.3106 5.10325 37.309H0.892815C0.845396 37.3102 0.800266 37.3298 0.766724 37.3637C0.733182 37.3975 0.713783 37.4431 0.712524 37.491V38.2622C0.713958 38.3096 0.732981 38.3547 0.765822 38.3886C0.798663 38.4225 0.842924 38.4427 0.889827 38.4452H2.27139C2.29525 38.4471 2.31763 38.4576 2.33446 38.4747C2.35129 38.4919 2.36143 38.5146 2.36303 38.5387V42.9529C2.36274 43.0012 2.38108 43.0478 2.41417 43.0827C2.44726 43.1176 2.49251 43.1381 2.54033 43.1399H3.45972C3.50491 43.1368 3.54739 43.1171 3.57914 43.0845C3.61089 43.0519 3.62971 43.0086 3.63204 42.963V38.5186C3.63781 38.4992 3.64927 38.4819 3.66491 38.4692C3.68056 38.4565 3.69965 38.4488 3.71969 38.4472H5.10325C5.14925 38.445 5.19282 38.4258 5.22556 38.3931C5.25831 38.3604 5.2779 38.3166 5.28055 38.2702" fill="#FF8000"/>
<path d="M7.62732 39.3352C7.48175 39.153 7.29003 39.014 7.0725 38.933C6.78817 38.8343 6.48852 38.7883 6.18798 38.7972C5.86546 38.7961 5.54511 38.8505 5.24071 38.9581C4.9999 39.0415 4.77489 39.1656 4.57533 39.3251C4.54324 39.361 4.52607 39.4079 4.52737 39.4562C4.52867 39.5045 4.54834 39.5505 4.5823 39.5845L4.9638 39.9797C4.99888 40.0149 5.04633 40.0346 5.09578 40.0346C5.14523 40.0346 5.19268 40.0149 5.22776 39.9797C5.32138 39.8955 5.42512 39.8236 5.53655 39.7655C5.708 39.6798 5.89705 39.6361 6.08838 39.6378C6.28894 39.6348 6.48409 39.7035 6.63921 39.8319C6.78264 39.9526 6.86034 40.1677 6.8713 40.5136C6.8667 40.5353 6.85513 40.5549 6.83837 40.5693C6.82162 40.5836 6.80062 40.592 6.77866 40.5931C6.63622 40.5931 6.47984 40.5931 6.32146 40.6021C6.12147 40.6069 5.92192 40.6233 5.72381 40.6514C5.52917 40.6779 5.33696 40.7203 5.14907 40.7781C4.97124 40.8318 4.8031 40.914 4.65103 41.0214C4.50828 41.1253 4.39105 41.2608 4.30838 41.4176C4.21904 41.5988 4.17557 41.7995 4.18187 42.0018C4.1771 42.1868 4.21639 42.3702 4.29642 42.5367C4.37001 42.6876 4.47581 42.8202 4.6062 42.9249C4.74124 43.0329 4.89538 43.1141 5.06042 43.1642C5.47021 43.2857 5.90867 43.2637 6.30452 43.1018C6.47976 43.0296 6.63447 42.9145 6.75475 42.767H6.7677C6.78012 42.761 6.79405 42.7591 6.8076 42.7614C6.82115 42.7638 6.83366 42.7703 6.84341 42.7801C6.85595 42.7918 6.86345 42.8081 6.86432 42.8253V42.9701C6.86577 43.0171 6.88473 43.0619 6.9174 43.0954C6.95008 43.129 6.99408 43.1488 7.04063 43.1511H7.81259C7.85964 43.1493 7.9042 43.1293 7.93702 43.0952C7.96985 43.0611 7.98842 43.0156 7.9889 42.9681V41.1159C7.99258 40.7396 7.96526 40.3636 7.90722 39.9918C7.86154 39.7582 7.76264 39.5386 7.61836 39.3503L7.62732 39.3352ZM6.8693 41.6489C6.87217 41.7637 6.8454 41.8774 6.79161 41.9787C6.7397 42.0714 6.66704 42.1506 6.57944 42.2099C6.48771 42.2718 6.38685 42.3186 6.28062 42.3487C6.16822 42.3829 6.05137 42.3998 5.93398 42.399C5.79416 42.3997 5.65666 42.3629 5.53555 42.2924C5.4766 42.261 5.42774 42.2134 5.39474 42.1549C5.36174 42.0965 5.34597 42.0298 5.34928 41.9626C5.34586 41.9023 5.3562 41.842 5.37952 41.7864C5.40283 41.7308 5.4385 41.6813 5.48375 41.6418C5.57904 41.5614 5.69002 41.5022 5.80947 41.4679C5.93932 41.4299 6.07296 41.4066 6.2079 41.3985C6.34835 41.3904 6.4639 41.3864 6.55355 41.3864H6.76571C6.78887 41.3889 6.81042 41.3996 6.82662 41.4165C6.84282 41.4334 6.85263 41.4555 6.85436 41.4789L6.8693 41.6489Z" fill="#FF8000"/>
<path d="M19.8144 39.3351C19.6688 39.1529 19.4771 39.0139 19.2596 38.9329C18.9749 38.8342 18.6749 38.7882 18.3741 38.7971C18.0516 38.797 17.7314 38.8514 17.4268 38.958C17.1865 39.0411 16.9621 39.1653 16.7634 39.325C16.7302 39.3598 16.7116 39.4063 16.7116 39.4547C16.7116 39.5031 16.7302 39.5496 16.7634 39.5844L17.1449 39.9796C17.1802 40.0148 17.2278 40.0346 17.2774 40.0346C17.327 40.0346 17.3746 40.0148 17.4099 39.9796C17.5038 39.8953 17.6079 39.8234 17.7196 39.7654C17.8911 39.6797 18.0801 39.6359 18.2715 39.6377C18.4718 39.6345 18.6667 39.7032 18.8213 39.8318C18.9657 39.9524 19.0424 40.1676 19.0534 40.5135C19.0498 40.5357 19.0386 40.5559 19.0216 40.5705C19.0046 40.585 18.983 40.593 18.9608 40.593C18.8183 40.593 18.6619 40.593 18.5036 40.602C18.3036 40.6068 18.104 40.6232 17.9059 40.6513C17.7109 40.6778 17.5184 40.7202 17.3302 40.778C17.154 40.8319 16.9875 40.914 16.8371 41.0213C16.6941 41.1249 16.5768 41.2605 16.4945 41.4175C16.4048 41.5986 16.361 41.7993 16.367 42.0017C16.3632 42.1866 16.4024 42.3698 16.4815 42.5366C16.5551 42.6875 16.6609 42.8201 16.7913 42.9247C16.9263 43.0313 17.0801 43.1111 17.2445 43.16C17.6556 43.2816 18.0954 43.2597 18.4926 43.0977C18.668 43.0257 18.8227 42.9106 18.9428 42.7629H18.9548C18.9675 42.7569 18.9818 42.7549 18.9956 42.7573C19.0095 42.7596 19.0223 42.7661 19.0325 42.7759C19.0441 42.7881 19.0509 42.8042 19.0514 42.8212V42.966C19.0531 43.0131 19.0723 43.0578 19.1051 43.0914C19.1379 43.1249 19.1821 43.1447 19.2287 43.147H19.9997C20.0467 43.1449 20.0913 43.1249 20.1242 43.0909C20.1571 43.0569 20.176 43.0115 20.177 42.964V41.1158C20.18 40.7395 20.153 40.3636 20.0963 39.9917C20.0503 39.7578 19.9507 39.5381 19.8054 39.3501L19.8144 39.3351ZM19.0524 41.6487C19.0553 41.7636 19.0285 41.8773 18.9747 41.9786C18.9235 42.0714 18.8511 42.1507 18.7635 42.2098C18.6716 42.2714 18.5708 42.3182 18.4647 42.3486C18.3523 42.3828 18.2355 42.3998 18.1181 42.3989C17.9802 42.3992 17.8447 42.3624 17.7256 42.2923C17.6664 42.2612 17.6173 42.2136 17.5841 42.1551C17.5509 42.0966 17.535 42.0298 17.5384 41.9625C17.5349 41.9022 17.5453 41.8419 17.5686 41.7863C17.5919 41.7307 17.6276 41.6812 17.6728 41.6417C17.7685 41.5613 17.8798 41.502 17.9995 41.4678C18.1294 41.4298 18.263 41.4065 18.398 41.3984C18.5394 41.3903 18.655 41.3863 18.7446 41.3863H18.9558C18.9789 41.3888 19.0005 41.3995 19.0167 41.4164C19.0329 41.4333 19.0427 41.4554 19.0444 41.4788L19.0524 41.6487Z" fill="#FF8000"/>
<path d="M30.331 39.3352C30.1855 39.153 29.9937 39.014 29.7762 38.933C29.4916 38.8338 29.1916 38.7878 28.8907 38.7972C28.5686 38.7972 28.2487 38.8516 27.9444 38.9581C27.7037 39.0417 27.4787 39.1658 27.279 39.3251C27.2469 39.361 27.2298 39.4079 27.2311 39.4562C27.2324 39.5045 27.252 39.5505 27.286 39.5845L27.6675 39.9797C27.7027 40.0149 27.7504 40.0347 27.8 40.0347C27.8496 40.0347 27.8972 40.0149 27.9325 39.9797C28.0264 39.8954 28.1305 39.8235 28.2422 39.7655C28.4135 39.6793 28.6027 39.6356 28.7941 39.6378C28.9943 39.6352 29.189 39.7039 29.3439 39.8319C29.4873 39.9525 29.564 40.1677 29.576 40.5136C29.5714 40.5355 29.5596 40.5552 29.5427 40.5696C29.5257 40.5839 29.5045 40.5922 29.4824 40.5931C29.3399 40.5931 29.1835 40.5931 29.0262 40.6021C28.8262 40.6068 28.6266 40.6233 28.4285 40.6514C28.2335 40.6779 28.041 40.7203 27.8528 40.7781C27.6749 40.8316 27.5067 40.9138 27.3547 41.0214C27.2118 41.1248 27.0948 41.2604 27.0131 41.4176C26.923 41.5985 26.8791 41.7994 26.8856 42.0018C26.8813 42.1867 26.9206 42.3701 27.0001 42.5367C27.0731 42.6883 27.1794 42.8211 27.3109 42.9248C27.4475 43.034 27.6038 43.1153 27.7711 43.1642C28.1826 43.2857 28.6226 43.2638 29.0202 43.1018C29.1941 43.0279 29.3469 42.911 29.4644 42.762H29.4764C29.4888 42.756 29.5027 42.7541 29.5163 42.7564C29.5298 42.7587 29.5423 42.7652 29.5521 42.775C29.5643 42.7869 29.5715 42.8031 29.572 42.8203V42.9651C29.5739 43.0121 29.5932 43.0567 29.626 43.0902C29.6588 43.1237 29.7027 43.1436 29.7493 43.1461H30.5203C30.5674 43.144 30.6121 43.124 30.6452 43.09C30.6783 43.0561 30.6974 43.0107 30.6986 42.9631V41.1159C30.7018 40.7396 30.6744 40.3636 30.6169 39.9918C30.5704 39.7583 30.4712 39.5387 30.327 39.3502L30.331 39.3352ZM29.573 41.6488C29.5757 41.7636 29.5493 41.8771 29.4963 41.9787C29.4444 42.0714 29.3717 42.1506 29.2841 42.2099C29.1924 42.2717 29.0915 42.3185 28.9853 42.3487C28.8729 42.3829 28.7561 42.3999 28.6387 42.399C28.5011 42.3993 28.366 42.3625 28.2472 42.2924C28.1878 42.2615 28.1386 42.2139 28.1053 42.1554C28.0721 42.0969 28.0564 42.0299 28.06 41.9626C28.0565 41.9023 28.0669 41.842 28.0902 41.7864C28.1135 41.7308 28.1492 41.6813 28.1944 41.6418C28.2897 41.5614 28.4007 41.5021 28.5201 41.4679C28.65 41.4299 28.7836 41.4066 28.9186 41.3985C29.057 41.3904 29.1736 41.3864 29.2642 41.3864H29.4764C29.4998 41.3877 29.5219 41.398 29.538 41.4152C29.5541 41.4324 29.5631 41.4552 29.563 41.4789L29.573 41.6488Z" fill="#FF8000"/>
<path d="M15.8071 39.3724C15.6464 39.1856 15.4458 39.0381 15.2204 38.941C14.9757 38.8406 14.7136 38.7904 14.4495 38.7932C14.156 38.7919 13.8645 38.8419 13.5879 38.941C13.3302 39.0364 13.0934 39.1816 12.8906 39.3684C12.6908 39.5547 12.5311 39.7806 12.4215 40.032C12.1924 40.6675 12.1924 41.3642 12.4215 41.9998C12.5306 42.2511 12.6904 42.4768 12.8906 42.6624C13.092 42.851 13.3292 42.9964 13.5879 43.0898C13.864 43.1906 14.1558 43.241 14.4495 43.2386C14.7703 43.2403 15.0878 43.1716 15.3798 43.0375C15.6085 42.9358 15.8155 42.7903 15.9894 42.6091C16.0207 42.5745 16.038 42.5293 16.038 42.4824C16.038 42.4356 16.0207 42.3904 15.9894 42.3557L15.4346 41.9445L15.3938 41.9153C15.3585 41.8949 15.3175 41.8868 15.2771 41.8923C15.2368 41.8977 15.1994 41.9164 15.1706 41.9455C15.0919 42.0322 15.0033 42.1091 14.9067 42.1747C14.753 42.268 14.576 42.3148 14.3967 42.3095C14.1761 42.3144 13.9612 42.2383 13.7921 42.0953C13.6066 41.9036 13.4956 41.6509 13.4793 41.3834C13.479 41.3617 13.4865 41.3405 13.5004 41.3239C13.5143 41.3073 13.5337 41.2963 13.555 41.2929H16.1378C16.1852 41.2901 16.2298 41.2692 16.2625 41.2345C16.2953 41.1998 16.3137 41.1538 16.3141 41.1059V40.9048C16.3183 40.6109 16.2742 40.3184 16.1837 40.039C16.1042 39.7951 15.9775 39.5696 15.8111 39.3754L15.8071 39.3724ZM14.9943 40.4453H13.5719C13.5484 40.445 13.5258 40.4358 13.5088 40.4193C13.4917 40.4029 13.4816 40.3805 13.4803 40.3568C13.4913 40.2874 13.5114 40.2197 13.5401 40.1557C13.5804 40.0655 13.6387 39.9847 13.7114 39.9184C13.7889 39.8462 13.8786 39.7886 13.9763 39.7484C14.0902 39.7023 14.2122 39.6801 14.3349 39.6831C14.4363 39.6795 14.5372 39.6974 14.6312 39.7357C14.7253 39.774 14.8103 39.8317 14.8808 39.9053C14.9975 40.0256 15.0681 40.1838 15.08 40.3517C15.0772 40.3753 15.0663 40.397 15.0492 40.4132C15.032 40.4294 15.0098 40.439 14.9864 40.4402" fill="#FF8000"/>
<path d="M11.1116 41.0787L11.0847 41.0405C11.0671 41.0116 11.0578 40.9784 11.0578 40.9444C11.0578 40.9105 11.0671 40.8773 11.0847 40.8484L12.5121 39.0516C12.5271 39.033 12.5344 39.0093 12.5328 38.9854C12.5311 38.9615 12.5205 38.9392 12.5031 38.9229C12.4863 38.9081 12.4647 38.9002 12.4424 38.9007H11.3188C11.2611 38.9005 11.2041 38.9137 11.1522 38.9393C11.1004 38.9649 11.0551 39.0023 11.02 39.0486L10.9582 39.128L9.86154 40.5498L9.8466 40.5669L9.83863 40.5749H9.83066C9.81813 40.5808 9.80415 40.5828 9.7905 40.5807C9.77684 40.5785 9.76412 40.5723 9.75396 40.5629C9.74532 40.5531 9.73917 40.5414 9.73604 40.5287V37.0898C9.73371 37.0442 9.71489 37.0009 9.68314 36.9683C9.65139 36.9357 9.6089 36.916 9.56371 36.9128H8.68517C8.63957 36.9163 8.59681 36.9365 8.56503 36.9697C8.53325 37.0029 8.51468 37.0467 8.51285 37.0928V42.963C8.51501 43.0096 8.53425 43.0537 8.56683 43.0868C8.59941 43.1199 8.64301 43.1395 8.68915 43.142H9.55973C9.60553 43.1401 9.64898 43.121 9.68158 43.0884C9.71418 43.0559 9.7336 43.0122 9.73604 42.966V41.3029C9.73873 41.29 9.74494 41.2782 9.75396 41.2687C9.76394 41.259 9.77661 41.2525 9.7903 41.2502C9.804 41.2478 9.81807 41.2498 9.83066 41.2556H9.84162L9.84959 41.2637V41.2697L9.8715 41.2949L10.9373 42.9137L10.9981 42.9922C11.0326 43.0373 11.0767 43.074 11.1273 43.0994C11.1778 43.1248 11.2334 43.1384 11.2899 43.139H12.4773C12.4906 43.1371 12.5031 43.1311 12.5131 43.1219C12.5271 43.1085 12.5366 43.091 12.5402 43.0718C12.5437 43.0527 12.5412 43.0329 12.533 43.0153L11.1116 41.0787Z" fill="#FF8000"/>
<path d="M26.9543 39.1974C26.9682 39.1576 26.9752 39.1158 26.9752 39.0737C26.9762 39.066 26.9762 39.0583 26.9752 39.0506C26.9668 39.01 26.9453 38.9733 26.9142 38.9462C26.883 38.9192 26.8439 38.9032 26.8029 38.9008H26.1056C26.0204 38.9008 25.9376 38.9302 25.8712 38.9842C25.8047 39.0381 25.7585 39.1133 25.7401 39.1974L25.7182 39.2818L25.1295 41.4628C25.1146 41.4796 25.0939 41.49 25.0717 41.492C25.0579 41.4908 25.0447 41.4861 25.0332 41.4784C25.0217 41.4707 25.0123 41.4601 25.006 41.4477L24.997 41.4135L24.4083 39.2094L24.3994 39.1692C24.3748 39.093 24.327 39.0266 24.2627 38.9794C24.1985 38.9323 24.1212 38.9069 24.0418 38.9068H23.2828C23.198 38.9064 23.1156 38.9352 23.0492 38.9884C22.9827 39.0416 22.9362 39.116 22.9172 39.1994V39.2195L22.9013 39.2859L22.3654 41.4598C22.3607 41.4683 22.3544 41.4758 22.3468 41.4818C22.3392 41.4878 22.3305 41.4921 22.3211 41.4946C22.3118 41.497 22.3021 41.4975 22.2926 41.496C22.283 41.4945 22.2739 41.4911 22.2658 41.4859C22.2548 41.4799 22.2458 41.4708 22.2399 41.4598L21.6034 39.2839L21.5735 39.1833C21.5745 39.177 21.5745 39.1705 21.5735 39.1642C21.5478 39.0896 21.4998 39.025 21.4361 38.9792C21.3723 38.9334 21.2961 38.9088 21.2179 38.9088H20.4499C20.4087 38.9112 20.3695 38.9271 20.3382 38.9542C20.3069 38.9812 20.2852 39.0179 20.2766 39.0586V39.0817C20.2773 39.1239 20.2847 39.1656 20.2985 39.2054L21.5635 42.8967C21.5677 42.9106 21.5734 42.9241 21.5805 42.9369C21.6079 42.9966 21.6506 43.0479 21.7042 43.0856C21.7577 43.1232 21.8202 43.1458 21.8853 43.1511H22.6273C22.7023 43.1451 22.7737 43.1166 22.8325 43.0693C22.8912 43.022 22.9346 42.958 22.957 42.8856L22.9879 42.779L23.5716 40.6674C23.578 40.6579 23.5866 40.6501 23.5967 40.6447C23.6068 40.6393 23.618 40.6365 23.6294 40.6365C23.6408 40.6365 23.652 40.6393 23.6621 40.6447C23.6722 40.6501 23.6808 40.6579 23.6872 40.6674L24.3555 42.8233C24.3681 42.8641 24.3834 42.9041 24.4014 42.9429C24.4288 43.0027 24.4715 43.054 24.5251 43.0916C24.5786 43.1292 24.6411 43.1518 24.7062 43.1571H25.4293C25.4943 43.1523 25.5569 43.1298 25.6104 43.0921C25.6638 43.0544 25.7062 43.0029 25.7331 42.9429C25.7421 42.9268 25.767 42.8554 25.7829 42.8072L26.9742 39.2426C26.9745 39.2349 26.9766 39.2273 26.9802 39.2205" fill="#FF8000"/>
<path d="M35.0246 39.0475C35.0207 39.037 35.0174 39.0262 35.0146 39.0153C35.0008 38.9835 34.9786 38.9562 34.9506 38.9362C34.9225 38.9162 34.8895 38.9042 34.8553 38.9017H34.1132C34.0437 38.9042 33.9763 38.9261 33.9184 38.965C33.8606 39.0038 33.8145 39.0582 33.7855 39.1219C33.7808 39.133 33.7768 39.1444 33.7735 39.1561L33.7675 39.1762C33.7675 39.1863 33.7616 39.1963 33.7596 39.2064L33.7367 39.2788L33.0623 41.508L33.0523 41.5341C33.0477 41.554 33.0362 41.5715 33.02 41.5836C33.0038 41.5958 32.9838 41.6018 32.9637 41.6005C32.9453 41.6013 32.927 41.5961 32.9117 41.5858C32.8963 41.5755 32.8845 41.5606 32.878 41.5432L32.0742 39.2778L32.0652 39.2486L32.0104 39.0958C31.9797 39.0369 31.9342 38.9873 31.8784 38.952C31.8226 38.9167 31.7585 38.8969 31.6927 38.8947H30.859C30.8295 38.9003 30.8018 38.9131 30.7782 38.9318C30.7547 38.9505 30.7359 38.9747 30.7235 39.0022C30.7187 39.0114 30.7154 39.0212 30.7135 39.0314C30.7071 39.0649 30.7091 39.0995 30.7195 39.132L32.3133 43.0605C32.3371 43.1424 32.3322 43.2302 32.2993 43.3089V43.3209L32.2694 43.3953C32.2266 43.5019 32.1858 43.5964 32.1479 43.6839C32.1124 43.7627 32.0643 43.8351 32.0055 43.8981C31.9439 43.9577 31.8696 44.0025 31.7883 44.0288C31.68 44.0627 31.567 44.0783 31.4536 44.0751H30.9237C30.8762 44.0766 30.8311 44.0964 30.7976 44.1304C30.764 44.1644 30.7447 44.2101 30.7434 44.2581V44.9297C30.7449 44.9778 30.7645 45.0235 30.7982 45.0575C30.8319 45.0915 30.8771 45.1112 30.9247 45.1127H31.6339C31.8733 45.1197 32.1123 45.0906 32.3431 45.0263C32.5087 44.9761 32.6609 44.8888 32.7884 44.7709C32.9094 44.6515 33.0076 44.5108 33.0782 44.3556C33.1539 44.1897 33.2326 44.0007 33.3143 43.7865L35.0246 39.1189C35.0296 39.0947 35.0296 39.0697 35.0246 39.0455" fill="#FF8000"/>
<path d="M34.8562 42.2813C34.7966 42.2794 34.7373 42.2907 34.6824 42.3143C34.6275 42.3379 34.5784 42.3733 34.5385 42.4181C34.4594 42.504 34.4165 42.6175 34.4187 42.7347C34.421 42.8519 34.4682 42.9637 34.5504 43.0465C34.6327 43.1293 34.7436 43.1766 34.8597 43.1785C34.9758 43.1803 35.0881 43.1366 35.173 43.0566L35.1829 43.0465C35.2634 42.9621 35.3083 42.8495 35.3083 42.7323C35.3083 42.6152 35.2634 42.5025 35.1829 42.4181C35.1429 42.3735 35.0937 42.3382 35.0389 42.3146C34.984 42.291 34.9248 42.2796 34.8652 42.2813" fill="#FF8000"/>
<path d="M42.4753 39.3774C42.2881 39.1933 42.0658 39.0496 41.8218 38.9551C41.2897 38.756 40.7045 38.756 40.1723 38.9551C39.9302 39.0482 39.7096 39.1907 39.5245 39.3737C39.3394 39.5568 39.1937 39.7764 39.0966 40.0189C38.991 40.2683 38.9402 40.762 38.9402 41.0687C38.9366 41.3916 38.9896 41.7125 39.0966 42.0169C39.1941 42.2607 39.3404 42.4815 39.5264 42.6656C39.7123 42.8497 39.9339 42.9931 40.1773 43.0867C40.7096 43.2868 41.2955 43.2868 41.8278 43.0867C42.0712 42.9926 42.2932 42.8496 42.4802 42.6664C42.6619 42.4827 42.8061 42.2647 42.9046 42.0249C43.0111 41.7201 43.064 41.3989 43.061 41.0757C43.061 40.7741 43.0082 40.2713 42.9046 40.0259C42.8061 39.7861 42.6619 39.5682 42.4802 39.3844L42.4753 39.3774ZM42.2721 41.7564C42.2116 41.9267 42.1174 42.0827 41.9951 42.2149C41.8725 42.3457 41.7252 42.4503 41.5619 42.5226C41.1998 42.6718 40.7943 42.6718 40.4323 42.5226C40.2683 42.4511 40.1207 42.3462 39.9988 42.2143C39.8769 42.0825 39.7834 41.9266 39.7241 41.7564C39.6572 41.5338 39.6237 41.3023 39.6245 41.0697C39.6236 40.804 39.6571 40.5393 39.7241 40.2824C39.7831 40.1119 39.8767 39.9558 39.9988 39.8239C40.1209 39.692 40.2689 39.5872 40.4333 39.5162C40.795 39.3653 41.2012 39.3653 41.5628 39.5162C41.7272 39.5874 41.8752 39.6923 41.9975 39.8242C42.1197 39.956 42.2135 40.112 42.2731 40.2824C42.337 40.5398 42.3685 40.8043 42.3667 41.0697C42.3685 41.302 42.337 41.5333 42.2731 41.7564" fill="#FF8000"/>
<path d="M36.4022 39.8308C36.5122 39.6951 36.6525 39.5876 36.8116 39.5171C36.9913 39.4417 37.1847 39.4053 37.3793 39.4105C37.5616 39.4065 37.7425 39.4429 37.9092 39.5171C38.033 39.5778 38.1458 39.659 38.2429 39.7574C38.2759 39.7874 38.3185 39.8045 38.3628 39.8056C38.4072 39.8067 38.4505 39.7917 38.485 39.7635L38.72 39.5493C38.7549 39.517 38.7762 39.4725 38.7797 39.4249C38.7832 39.3772 38.7687 39.3301 38.739 39.2929C38.5799 39.1461 38.3951 39.0305 38.1941 38.952C37.9346 38.8506 37.6586 38.7991 37.3803 38.8002C37.1022 38.797 36.8263 38.8497 36.5685 38.955C36.3298 39.0524 36.1135 39.1982 35.933 39.3834C35.755 39.57 35.6161 39.7909 35.5246 40.0329C35.3324 40.6766 35.3324 41.3631 35.5246 42.0068C35.6147 42.2501 35.7522 42.4727 35.929 42.6613C36.1058 42.8488 36.321 42.995 36.5595 43.0897C37.0804 43.2908 37.6564 43.2908 38.1772 43.0897C38.3778 43.0108 38.561 42.8926 38.7161 42.7418C38.7453 42.7062 38.7606 42.6611 38.7589 42.6149C38.7572 42.5687 38.7388 42.5247 38.7071 42.4914L38.5079 42.2963C38.4732 42.2643 38.4279 42.2466 38.3809 42.2466C38.3339 42.2466 38.2886 42.2643 38.2539 42.2963C38.1412 42.4129 38.0054 42.5043 37.8554 42.5644C37.7054 42.6245 37.5445 42.652 37.3833 42.6453C37.1988 42.6477 37.0159 42.6096 36.8474 42.5336C36.6907 42.4596 36.5514 42.3527 36.439 42.2199C36.3243 42.083 36.2349 41.9263 36.1751 41.7574C36.1113 41.5201 36.0794 41.2753 36.0804 41.0294C36.0795 40.784 36.1073 40.5393 36.1631 40.3004C36.2134 40.1317 36.2948 39.974 36.4032 39.8359" fill="#FF8000"/>
<path d="M49.1968 39.7635C49.1532 39.575 49.0685 39.3988 48.9488 39.2477C48.8269 39.1035 48.6705 38.9931 48.4946 38.9269C48.2731 38.8451 48.0381 38.8065 47.8023 38.8133C47.5461 38.8021 47.2927 38.8706 47.0762 39.0093C46.917 39.1225 46.7785 39.2627 46.6668 39.4236L46.6479 39.4518L46.6389 39.4658C46.6329 39.4726 46.6255 39.478 46.6173 39.4817C46.609 39.4853 46.6001 39.4871 46.5911 39.487C46.5788 39.4869 46.5668 39.4834 46.5563 39.4771C46.5458 39.4707 46.5372 39.4616 46.5313 39.4508C46.5313 39.4437 46.5194 39.4317 46.5144 39.4196C46.4955 39.3884 46.4765 39.3562 46.4566 39.319C46.3979 39.2264 46.3238 39.1448 46.2375 39.0777C46.1308 38.9963 46.0126 38.9315 45.8869 38.8857C45.572 38.7864 45.2356 38.7808 44.9177 38.8696C44.7871 38.9077 44.6624 38.9639 44.5471 39.0365C44.4411 39.1014 44.3448 39.1813 44.2613 39.2738C44.2347 39.3036 44.2097 39.3348 44.1866 39.3673L44.1786 39.3764C44.1768 39.3812 44.1737 39.3853 44.1696 39.3884C44.1634 39.395 44.156 39.4002 44.1478 39.4038C44.1396 39.4074 44.1308 39.4094 44.1218 39.4095C44.1064 39.4096 44.0915 39.4041 44.0797 39.3942C44.0679 39.3843 44.0599 39.3705 44.0571 39.3552V39.0848C44.0555 39.0372 44.036 38.992 44.0025 38.9585C43.9689 38.925 43.9239 38.9058 43.8768 38.9048H43.6447C43.5968 38.9063 43.5513 38.9266 43.5179 38.9613C43.4844 38.996 43.4656 39.0424 43.4654 39.0908V42.952C43.4664 43.0004 43.4857 43.0465 43.5195 43.081C43.5532 43.1154 43.5987 43.1354 43.6467 43.137H43.9256C43.9744 43.1357 44.0207 43.1152 44.0548 43.0799C44.0888 43.0445 44.1079 42.9972 44.1079 42.9479V40.9067C44.1061 40.7018 44.1295 40.4975 44.1776 40.2984C44.2185 40.1283 44.2904 39.9673 44.3898 39.8238C44.4856 39.6914 44.6131 39.5856 44.7603 39.5161C44.931 39.4409 45.116 39.4045 45.3022 39.4095C45.5661 39.4095 45.7564 39.499 45.8709 39.68C45.9855 39.861 46.0442 40.1667 46.0442 40.6001V42.953C46.0447 43.0019 46.064 43.0487 46.098 43.0836C46.132 43.1185 46.1781 43.1387 46.2265 43.14H46.5064C46.5551 43.1384 46.6014 43.1178 46.6353 43.0826C46.6693 43.0473 46.6885 43.0001 46.6887 42.9509V40.5588C46.686 40.3988 46.7124 40.2397 46.7664 40.0893C46.813 39.9558 46.8851 39.8328 46.9786 39.7273C47.0668 39.6284 47.1743 39.549 47.2943 39.494C47.4162 39.4378 47.5488 39.4093 47.6828 39.4105C47.8415 39.4045 47.9994 39.4358 48.144 39.502C48.2582 39.5573 48.3573 39.6397 48.4328 39.7424C48.5056 39.845 48.5565 39.9618 48.5822 40.0852C48.6089 40.2135 48.6223 40.3443 48.6221 40.4754V42.957C48.6234 43.0054 48.643 43.0514 48.6769 43.0857C48.7108 43.1199 48.7564 43.1397 48.8044 43.141H49.0873C49.1361 43.1397 49.1824 43.1192 49.2165 43.0839C49.2505 43.0486 49.2696 43.0012 49.2695 42.952V40.4382C49.2723 40.2098 49.2479 39.9819 49.1968 39.7595" fill="#FF8000"/>
</svg>
