<svg width="49" height="42" viewBox="0 0 49 42" fill="none" xmlns="http://www.w3.org/2000/svg">
<path d="M12.0682 36.4349C11.8658 36.1946 11.6129 36.0176 11.3221 35.8911C11.0059 35.7646 10.6771 35.7014 10.3357 35.7014C9.95627 35.7014 9.58953 35.7646 9.23543 35.8911C8.90663 36.0049 8.60312 36.1946 8.33755 36.4349C8.08462 36.6752 7.88228 36.9534 7.74317 37.2696C7.45231 38.0663 7.45231 38.9515 7.74317 39.7482C7.88228 40.0644 8.08462 40.3552 8.33755 40.5829C8.59047 40.8231 8.90663 41.0002 9.23543 41.1267C9.58953 41.2531 9.95627 41.3163 10.3357 41.3163C10.7403 41.3163 11.145 41.2278 11.5244 41.0634C11.8153 40.937 12.0808 40.7473 12.2958 40.5196C12.3843 40.4311 12.3843 40.292 12.2958 40.2035L11.5876 39.6723L11.537 39.6344C11.4485 39.5838 11.3221 39.5965 11.2588 39.6723C11.1577 39.7862 11.0438 39.8747 10.9174 39.9632C10.7277 40.077 10.5001 40.1402 10.2724 40.1402C9.9942 40.1529 9.71599 40.0517 9.501 39.8747C9.26072 39.6344 9.12161 39.3182 9.09632 38.9768C9.09632 38.9136 9.13426 38.8756 9.19749 38.863H12.4855C12.612 38.863 12.7131 38.7492 12.7131 38.6227V38.3698C12.7131 38.003 12.6626 37.6363 12.5487 37.2822C12.4223 36.966 12.2705 36.6752 12.0682 36.4349ZM11.0186 37.788H9.21014C9.14691 37.788 9.09632 37.7375 9.09632 37.6742C9.10897 37.5857 9.13426 37.5098 9.1722 37.4213C9.22278 37.3075 9.29866 37.2063 9.38718 37.1178C9.60217 36.9155 9.89304 36.8143 10.1839 36.8143C10.4495 36.8016 10.7024 36.9028 10.8794 37.0925C11.0312 37.2443 11.1197 37.4466 11.1324 37.6616C11.1324 37.7375 11.0818 37.788 11.0186 37.788Z" fill="#242E30"/>
<path d="M16.2794 35.8278H15.47C15.4068 35.8278 15.3562 35.7772 15.3562 35.714V35.322C15.3562 34.9932 15.4194 34.7655 15.5459 34.6644C15.7103 34.5505 15.9126 34.4873 16.1023 34.5H16.4564C16.5829 34.5 16.6841 34.3988 16.6841 34.2723V33.425C16.6841 33.2986 16.5829 33.1974 16.4438 33.1847H15.7735C15.4194 33.1721 15.078 33.2227 14.7492 33.3491C14.5089 33.4377 14.3066 33.5894 14.1548 33.7918C14.0157 33.9815 13.9145 34.2091 13.8766 34.4367C13.826 34.6897 13.8007 34.9552 13.8007 35.2208V35.714C13.7881 35.7772 13.7501 35.8152 13.6869 35.8152H13.0166C12.8902 35.8152 12.789 35.9163 12.7764 36.0428V36.8269C12.7764 36.9533 12.8775 37.0545 13.004 37.0545H13.6742C13.7248 37.0545 13.7754 37.0924 13.7881 37.143V40.9243C13.7881 41.0507 13.8892 41.1519 14.0157 41.1645H15.1159C15.2424 41.1645 15.3436 41.0634 15.3436 40.9369V37.1557C15.3562 37.1051 15.3941 37.0671 15.4574 37.0545H16.2667C16.3932 37.0545 16.4944 36.9533 16.4944 36.8269V36.0302C16.507 35.9416 16.4058 35.8405 16.2794 35.8278Z" fill="#242E30"/>
<path d="M6.23817 33.3364C5.73232 33.3364 5.32764 33.7411 5.32764 34.2343C5.32764 34.7402 5.73232 35.1448 6.22552 35.1448C6.71872 35.1448 7.13605 34.7402 7.13605 34.247C7.13605 34.0067 7.04753 33.779 6.87048 33.602C6.71872 33.425 6.47845 33.3364 6.23817 33.3364Z" fill="#242E30"/>
<path d="M6.78196 35.8279H5.69438C5.56792 35.8279 5.46675 35.929 5.4541 36.0555V40.9496C5.4541 41.0761 5.55527 41.1772 5.68173 41.1772H6.78196C6.90842 41.1772 7.00959 41.0761 7.00959 40.9496V36.0555C7.02224 35.9417 6.90842 35.8405 6.78196 35.8279Z" fill="#242E30"/>
<path d="M25.5111 35.714H25.2202C24.9167 35.7014 24.6132 35.7772 24.3603 35.9543C24.1959 36.0681 24.0441 36.2198 23.9303 36.3969L23.905 36.4222C23.905 36.4348 23.8924 36.4348 23.8924 36.4475C23.8797 36.4601 23.8544 36.4728 23.8291 36.4728C23.7912 36.4728 23.7533 36.4475 23.7406 36.4095V36.0807C23.7406 35.9543 23.6268 35.8405 23.5003 35.8405H22.4128C22.2863 35.8405 22.1851 35.929 22.1725 36.0554V40.9875C22.1851 41.1013 22.2863 41.2025 22.4001 41.2025H23.5003C23.6268 41.1898 23.728 41.0887 23.728 40.9748V38.7997C23.728 38.5721 23.7406 38.3444 23.7659 38.1168C23.7912 37.9271 23.8544 37.7374 23.943 37.573C24.0441 37.4212 24.1832 37.2948 24.3476 37.2189C24.5247 37.143 24.7144 37.1051 24.9167 37.0924H25.4732C25.5996 37.0924 25.7008 36.9913 25.7134 36.8648V35.929C25.7261 35.8025 25.6249 35.714 25.5111 35.714Z" fill="#242E30"/>
<path d="M21.1229 36.4349C20.9205 36.1946 20.6676 36.0176 20.3767 35.8911C20.0606 35.7646 19.7318 35.7014 19.3903 35.7014C19.011 35.7014 18.6442 35.7646 18.2901 35.8911C17.9613 36.0049 17.6578 36.1946 17.3922 36.4349C17.1393 36.6752 16.937 36.9534 16.7979 37.2696C16.507 38.0663 16.507 38.9515 16.7979 39.7482C16.937 40.0644 17.1393 40.3552 17.3922 40.5829C17.6578 40.8231 17.9613 41.0002 18.2901 41.1267C18.6442 41.2531 19.011 41.3163 19.3903 41.3163C19.795 41.3163 20.1997 41.2278 20.5791 41.0634C20.87 40.937 21.1355 40.7473 21.3505 40.5196C21.439 40.4311 21.439 40.292 21.3505 40.2035L20.6297 39.6723L20.5791 39.6344C20.4906 39.5838 20.3641 39.5965 20.2882 39.6723C20.1871 39.7862 20.0732 39.8747 19.9468 39.9632C19.7571 40.077 19.5294 40.1402 19.3018 40.1402C19.0236 40.1529 18.7454 40.0517 18.5304 39.8747C18.2901 39.6344 18.151 39.3182 18.1257 38.9768C18.1257 38.9136 18.1637 38.8756 18.2269 38.863H21.5149C21.6414 38.8503 21.7425 38.7492 21.7425 38.6227V38.3698C21.7425 38.003 21.692 37.6363 21.5781 37.2822C21.477 36.966 21.3252 36.6752 21.1229 36.4349ZM20.0606 37.7754H18.2648C18.2016 37.7754 18.151 37.7248 18.151 37.6616C18.1637 37.5731 18.1889 37.4972 18.2269 37.4087C18.2775 37.2948 18.3533 37.1937 18.4419 37.1051C18.6569 36.9028 18.9477 36.8016 19.2386 36.8016C19.5042 36.789 19.7571 36.8902 19.9341 37.0799C20.0859 37.2316 20.1744 37.434 20.1871 37.6489C20.1871 37.7375 20.1365 37.7754 20.0606 37.7754Z" fill="#242E30"/>
<path d="M4.65744 39.6974H1.98908C1.93849 39.6848 1.88791 39.6469 1.87526 39.5963V34.0699C1.87526 33.9434 1.77409 33.8422 1.64763 33.8296H0.471529C0.345067 33.8422 0.243896 33.9434 0.243896 34.0699V40.9621C0.243896 41.0885 0.345067 41.2024 0.484175 41.2024H4.64479C4.77125 41.2024 4.87242 41.1012 4.88507 40.9747V39.9377C4.87242 39.7986 4.77125 39.6974 4.65744 39.6974Z" fill="#242E30"/>
<path d="M30.0132 36.3969C29.8235 36.1693 29.5832 35.9922 29.305 35.891C28.9383 35.7646 28.5589 35.7013 28.1795 35.714C27.7748 35.714 27.3701 35.7899 26.9781 35.9163C26.6746 36.0175 26.3837 36.1819 26.1308 36.3716C26.0423 36.4601 26.0423 36.6119 26.1434 36.7004L26.624 37.1936C26.7125 37.2821 26.8643 37.2821 26.9528 37.1936C27.0666 37.0924 27.2057 36.9913 27.3448 36.928C27.5598 36.8142 27.8001 36.7636 28.0404 36.7636C28.2933 36.7636 28.5462 36.8395 28.7359 37.0039C28.913 37.1557 29.0141 37.4212 29.0268 37.8639C29.0141 37.9271 28.9636 37.965 28.913 37.965C28.7233 37.965 28.5336 37.965 28.3312 37.9777C28.0783 37.9903 27.8254 38.003 27.5725 38.0409C27.3195 38.0788 27.0793 38.1294 26.839 38.2053C26.6114 38.2685 26.3964 38.3823 26.2067 38.5088C26.0296 38.6353 25.8779 38.8123 25.7767 39.002C25.6629 39.2296 25.6123 39.4826 25.6123 39.7355C25.6123 39.9631 25.6502 40.2034 25.7514 40.4184C25.8399 40.6081 25.979 40.7725 26.1434 40.9116C26.3205 41.0507 26.5102 41.1519 26.7125 41.2025C27.231 41.3542 27.7875 41.3289 28.2933 41.1266C28.5209 41.0381 28.7106 40.8863 28.8624 40.7093H28.875C28.913 40.6966 28.9509 40.6966 28.9762 40.7219C28.9889 40.7346 29.0015 40.7598 29.0015 40.7851V40.9622C29.0015 41.0886 29.1027 41.1898 29.2291 41.1898H30.2029C30.3294 41.1772 30.4305 41.076 30.4305 40.9622V38.6226C30.4305 38.1547 30.4052 37.6742 30.3294 37.2063C30.3167 36.928 30.1902 36.6498 30.0132 36.3969ZM29.0521 39.3055C29.0647 39.5837 28.9256 39.8493 28.6853 40.0137C28.5715 40.0896 28.4451 40.1528 28.306 40.1908C28.1668 40.2287 28.0151 40.254 27.8633 40.254C27.6863 40.254 27.5219 40.2034 27.3701 40.1149C27.2184 40.039 27.1299 39.8746 27.1299 39.7102C27.1172 39.5585 27.1804 39.4067 27.2943 39.3055C27.4207 39.2044 27.5598 39.1285 27.7116 39.0905C27.876 39.04 28.0404 39.0147 28.2174 39.002C28.3945 38.9894 28.5462 38.9894 28.6601 38.9894H28.9256C28.9889 38.9894 29.0394 39.04 29.0394 39.1032L29.0521 39.3055Z" fill="#242E30"/>
<path d="M35.5648 36.3717C35.4257 36.1567 35.2234 35.9797 34.9957 35.8658C34.6922 35.7267 34.3634 35.6635 34.0346 35.6761C33.8576 35.6761 33.6805 35.7014 33.5161 35.752C33.3644 35.8026 33.2253 35.8658 33.0862 35.9417C32.9723 36.0176 32.8585 36.1061 32.77 36.2073C32.7321 36.2452 32.7068 36.2705 32.6815 36.3085C32.6688 36.3211 32.6435 36.3337 32.6309 36.3337C32.5803 36.3337 32.5424 36.2958 32.5424 36.2579V36.0555C32.5424 35.9291 32.4412 35.8153 32.3021 35.8153H31.2778C31.1513 35.8153 31.0375 35.9164 31.0375 36.0555V40.9749C31.0501 41.1014 31.1513 41.2026 31.2778 41.2026H32.3653C32.4918 41.2026 32.593 41.1014 32.6056 40.9749V38.3824C32.6056 38.218 32.6183 38.0663 32.6309 37.9019C32.6562 37.7628 32.6941 37.6237 32.77 37.4972C32.8332 37.3707 32.9344 37.2696 33.0609 37.2063C33.2126 37.1305 33.377 37.0925 33.5541 37.0925C33.8702 37.0546 34.1611 37.2443 34.2623 37.5351C34.3129 37.6743 34.3508 37.826 34.3634 37.9651C34.3761 38.1169 34.3761 38.2686 34.3761 38.4204V40.9876C34.3761 41.114 34.4899 41.2152 34.6164 41.2152H35.7039C35.8304 41.2152 35.9316 41.114 35.9442 40.9876V38.1042C35.9442 37.7881 35.9189 37.4719 35.8683 37.1558C35.8304 36.8902 35.7292 36.6246 35.5901 36.397" fill="#242E30"/>
<path d="M41.6477 33.3364H40.5475C40.421 33.3364 40.3198 33.4376 40.3198 33.5641V36.1818C40.3198 36.2198 40.2819 36.2577 40.2313 36.2577C40.206 36.2577 40.1807 36.2451 40.1681 36.2324L40.1428 36.2071C40.1301 36.1945 40.1301 36.1945 40.1175 36.1818C39.9657 36.0427 39.7887 35.9416 39.599 35.8657C39.3081 35.7645 39.0046 35.7139 38.6885 35.7139C38.347 35.7013 38.0182 35.7898 37.7274 35.9416C37.4491 36.0933 37.1962 36.2956 37.0065 36.5359C36.8042 36.7889 36.6524 37.0797 36.5513 37.3959C36.3236 38.1673 36.3363 38.9893 36.5639 39.7607C36.6777 40.0642 36.8421 40.3551 37.0697 40.5827C37.2847 40.823 37.5503 41.0001 37.8538 41.1265C38.1826 41.253 38.5241 41.3289 38.8655 41.3162C39.0426 41.3162 39.207 41.2909 39.3714 41.2403C39.5231 41.1897 39.6749 41.1392 39.814 41.0506C39.9404 40.9748 40.0543 40.8989 40.1681 40.7977C40.1934 40.7598 40.2313 40.7345 40.2566 40.6965L40.2819 40.6713C40.2945 40.6586 40.3198 40.646 40.3451 40.646C40.3831 40.646 40.421 40.6712 40.4337 40.7092V40.9495C40.4337 41.0759 40.5348 41.1771 40.6613 41.1897H41.635C41.7615 41.1897 41.8627 41.0759 41.8627 40.9495V33.5641C41.888 33.4502 41.7868 33.3364 41.6477 33.3364ZM40.1175 39.5963C39.599 40.0642 38.8023 40.0642 38.2838 39.5963C38.0688 39.356 37.955 38.8881 37.955 38.4961C37.955 38.1041 38.0688 37.6741 38.2838 37.4465C38.8023 36.9785 39.599 36.9785 40.1175 37.4465C40.3325 37.6867 40.4463 38.1167 40.4463 38.4961C40.4463 38.8755 40.3325 39.356 40.1175 39.5963Z" fill="#242E30"/>
<path d="M47.035 36.5487C46.7821 36.3084 46.4659 36.1313 46.1371 36.0049C45.4289 35.752 44.6575 35.752 43.9493 36.0049C43.6205 36.1187 43.317 36.3084 43.0514 36.5487C42.7985 36.7763 42.5961 37.0672 42.457 37.3833C42.1662 38.18 42.1662 39.0653 42.457 39.862C42.5961 40.1781 42.7985 40.469 43.0514 40.6966C43.3043 40.9369 43.6078 41.114 43.9493 41.2404C44.6575 41.4934 45.4289 41.4934 46.1371 41.2404C46.4659 41.1266 46.7694 40.9369 47.035 40.6966C47.2879 40.4564 47.4902 40.1781 47.6294 39.862C47.9202 39.0653 47.9202 38.18 47.6294 37.3833C47.4902 37.0672 47.2879 36.7889 47.035 36.5487ZM45.9727 39.6976C45.4542 40.1655 44.6575 40.1655 44.1263 39.6976C43.9114 39.4573 43.7975 39.002 43.7975 38.6227C43.7975 38.2433 43.9114 37.788 44.1263 37.5477C44.6448 37.0798 45.4416 37.0798 45.9727 37.5477C46.1877 37.788 46.3015 38.2433 46.3015 38.6227C46.3015 39.002 46.1877 39.4573 45.9727 39.6976Z" fill="#242E30"/>
<path d="M38.2459 14.9614C38.1574 14.7211 36.918 12.4322 34.6038 9.54881C34.5405 9.47293 34.5026 9.39706 34.5026 9.30853C34.3635 7.62658 34.1359 5.96992 33.807 4.31326C33.7312 3.97181 33.453 3.71889 33.0989 3.68095L30.7087 3.39009C30.6834 3.39009 30.6708 3.39009 30.6455 3.39009C30.3673 3.39009 30.1396 3.61772 30.1396 3.89594V4.73059C30.1396 4.74324 30.127 4.75588 30.1143 4.75588C30.1017 4.75588 30.1017 4.75588 30.1017 4.74324C28.5968 3.37744 26.9781 2.1634 25.2582 1.08847C24.9041 0.848191 24.4994 0.734375 24.0694 0.734375C23.6395 0.734375 23.2348 0.848191 22.8807 1.08847C14.5847 6.2102 10.0321 14.5061 9.85505 14.9614C9.80447 15.0752 9.77917 15.189 9.77917 15.3155C9.77917 15.6949 10.0321 16.0237 10.3988 16.1122L12.789 16.5675C13.1178 16.656 13.3454 16.9342 13.3834 17.263C13.4086 17.6803 13.8513 27.0892 14.4203 29.5172C14.5089 29.8713 14.8377 30.1243 15.2171 30.1243H15.2297C16.6208 30.0863 17.8981 30.061 19.2765 30.0484H19.3903C19.5421 30.0484 19.6559 29.9346 19.6559 29.7828V29.7702C19.6053 28.9482 19.4788 27.0765 19.3777 25.0911C19.3777 25.0405 19.365 24.9772 19.365 24.9266C19.3524 24.7622 19.2639 24.6105 19.1248 24.522C18.3913 24.0794 17.9234 23.3079 17.8728 22.448C17.7463 19.1473 17.6831 15.3408 17.8601 12.3563C17.8728 12.0907 18.1004 11.8884 18.366 11.9137C18.6063 11.9263 18.8086 12.1286 18.8086 12.3816C18.8086 12.3942 18.8086 12.4069 18.8086 12.4195C18.6948 14.405 18.6821 16.7572 18.7201 19.0714C18.7201 19.3876 18.9856 19.6405 19.3018 19.6279C19.618 19.6152 19.8709 19.3623 19.8582 19.0461C19.8203 16.7066 19.8329 14.3417 19.9468 12.3563C19.9468 12.0907 20.1744 11.8757 20.44 11.8884C20.7055 11.8884 20.9205 12.116 20.9079 12.3816V12.4195C20.7941 14.3923 20.7814 16.7319 20.8193 19.0335C20.8193 19.3497 21.0849 19.6026 21.4011 19.5899C21.7172 19.5773 21.9702 19.3244 21.9575 19.0082C21.9196 16.6813 21.9322 14.3291 22.046 12.3436C22.046 12.0781 22.2737 11.8631 22.5392 11.8757C22.8048 11.8884 23.0198 12.1034 23.0072 12.3689C23.0072 12.3816 23.0072 12.3942 23.0072 12.4069C22.8301 15.3029 22.8933 18.9703 23.0072 22.1951V22.2204C23.0072 22.2204 23.0072 22.2583 23.0072 22.2709V22.2962C23.0072 23.1435 22.5898 23.9402 21.8943 24.4208C21.7678 24.5093 21.6919 24.6484 21.6793 24.7875C21.6793 24.7875 21.6161 25.2807 21.8437 27.6835C21.9449 28.7332 22.0207 29.454 22.0587 29.7828C22.0713 29.9093 22.1851 30.0104 22.3116 30.0104H22.5392C22.9945 30.0104 23.4751 30.0104 23.9683 30.0104H24.158C24.7776 30.0104 25.372 30.0104 25.9411 30.0104L27.2942 30.0231C27.4207 30.0231 27.5345 29.9219 27.5472 29.7955C27.8507 26.9248 27.9265 25.3187 27.9265 25.3187C27.9265 25.1796 27.8127 25.0531 27.6736 25.0405L26.0296 24.8128C25.802 24.7875 25.6249 24.6231 25.5617 24.4082C25.5364 24.3196 25.5364 24.2438 25.5364 24.1552C26.194 14.5947 29.3556 11.3699 29.3556 11.3699C29.4062 11.3193 29.4567 11.2813 29.5073 11.2308C29.735 11.0664 30.0511 11.1169 30.2155 11.3446C30.2408 11.3825 30.2661 11.4205 30.2787 11.4584C30.304 11.5343 30.3167 11.6101 30.3167 11.686C30.5949 14.6958 30.4558 19.8049 30.2914 23.8011C30.1523 27.1903 29.9752 29.846 29.9752 29.846C29.9752 29.9599 30.0638 30.0484 30.1776 30.0484C31.0755 30.061 31.948 30.0863 32.8839 30.1116H32.8965C33.2633 30.1116 33.5921 29.8587 33.6932 29.5046C34.2623 27.0639 34.7049 17.6677 34.7302 17.2504C34.7682 16.9216 35.0084 16.6434 35.3246 16.5548L37.7147 16.0996C38.1574 15.9858 38.4229 15.5431 38.3091 15.1005C38.2838 15.0626 38.2712 15.012 38.2459 14.9614Z" fill="#242E30"/>
</svg>
