<svg width="217" height="39" viewBox="0 0 217 39" fill="none" xmlns="http://www.w3.org/2000/svg">
<path d="M154.27 20.0945C153.623 19.5062 152.864 19.0512 152.039 18.7559C150.264 18.1396 148.331 18.1396 146.557 18.7559C145.731 19.0516 144.972 19.5065 144.324 20.0945C143.685 20.6749 143.178 21.3825 142.834 22.1711C142.104 24.1595 142.104 26.3393 142.834 28.3276C143.179 29.1152 143.687 29.8224 144.324 30.4043C144.971 30.994 145.73 31.4491 146.557 31.7429C148.331 32.3639 150.265 32.3639 152.039 31.7429C152.865 31.4495 153.624 30.9943 154.27 30.4043C154.908 29.8216 155.418 29.1147 155.768 28.3276C156.488 26.3377 156.488 24.1611 155.768 22.1711C155.419 21.3832 154.909 20.676 154.27 20.0945ZM151.598 27.9126C150.968 28.4797 150.148 28.7937 149.298 28.7937C148.447 28.7937 147.627 28.4797 146.997 27.9126C146.451 27.3307 146.181 26.1964 146.181 25.2338C146.181 24.2711 146.451 23.1525 146.997 22.5565C147.628 21.9914 148.448 21.6787 149.298 21.6787C150.148 21.6787 150.967 21.9914 151.598 22.5565C152.141 23.1384 152.414 24.2727 152.414 25.2338C152.414 26.1949 152.141 27.3166 151.598 27.9126Z" fill="#FF8000"/>
<path d="M56.2669 13.6321H42.8627C42.7121 13.6391 42.5697 13.7023 42.4639 13.809C42.3581 13.9157 42.2968 14.0581 42.2923 14.2078V16.6152C42.2957 16.7638 42.3559 16.9056 42.4606 17.0119C42.5653 17.1182 42.7068 17.1811 42.8565 17.1878H47.2412C47.3173 17.1913 47.3891 17.2234 47.4422 17.2776C47.4953 17.3318 47.5257 17.4039 47.5272 17.4795V31.295C47.5287 31.446 47.5882 31.5908 47.6937 31.6995C47.7992 31.8083 47.9427 31.8729 48.0946 31.8801H51.0178C51.1649 31.8733 51.3042 31.8123 51.4086 31.709C51.5129 31.6058 51.5747 31.4676 51.582 31.3215V17.4124C51.5977 17.3505 51.6331 17.2952 51.6829 17.2548C51.7327 17.2143 51.7943 17.1908 51.8586 17.1878H56.259C56.4043 17.1814 56.542 17.1217 56.6454 17.0202C56.7488 16.9187 56.8105 16.7827 56.8185 16.6386V14.1844C56.81 14.0388 56.7472 13.9015 56.6423 13.7994C56.5374 13.6973 56.398 13.6377 56.2512 13.6321" fill="#FF8000"/>
<path d="M128.24 20.0945C127.728 19.5106 127.087 19.0524 126.366 18.7559C125.59 18.4367 124.755 18.2774 123.915 18.2878C122.982 18.2828 122.055 18.4412 121.177 18.7559C120.349 19.0477 119.589 19.5031 118.944 20.0945C118.307 20.6756 117.799 21.3817 117.452 22.168C116.725 24.1567 116.725 26.3359 117.452 28.3246C117.799 29.1118 118.307 29.819 118.944 30.4012C119.591 30.9904 120.35 31.4455 121.177 31.7398C122.055 32.0554 122.981 32.2139 123.915 32.2079C124.937 32.2088 125.948 31.9895 126.877 31.5651C127.603 31.245 128.261 30.7907 128.817 30.2264C128.917 30.118 128.972 29.9763 128.972 29.8294C128.972 29.6824 128.917 29.5407 128.817 29.4323L127.049 28.1327L126.92 28.0453C126.808 27.9808 126.677 27.9548 126.549 27.9711C126.421 27.9875 126.301 28.0453 126.209 28.1358C125.962 28.4085 125.681 28.6482 125.372 28.8488C124.884 29.1455 124.319 29.2935 123.747 29.2747C123.046 29.2909 122.364 29.053 121.828 28.6054C121.233 28.0102 120.873 27.223 120.814 26.3868C120.816 26.3178 120.842 26.2516 120.888 26.1999C120.934 26.1482 120.997 26.1144 121.065 26.1044H129.25C129.402 26.0954 129.545 26.0298 129.65 25.9207C129.755 25.8117 129.815 25.6672 129.818 25.5162V24.8921C129.829 23.9737 129.687 23.0597 129.4 22.1868C129.151 21.4244 128.749 20.7197 128.219 20.1148L128.24 20.0945ZM125.618 23.4521H121.128C121.052 23.4519 120.979 23.4232 120.923 23.3717C120.868 23.3202 120.834 23.2497 120.828 23.1744C120.865 22.9629 120.928 22.7568 121.017 22.5612C121.146 22.2786 121.331 22.0245 121.561 21.8139C122.106 21.3273 122.817 21.065 123.55 21.0806C123.871 21.0703 124.19 21.1266 124.488 21.2459C124.786 21.3652 125.055 21.5448 125.279 21.7733C125.655 22.1498 125.883 22.6482 125.92 23.1775C125.916 23.2523 125.883 23.3227 125.829 23.3743C125.774 23.426 125.702 23.4549 125.626 23.4552" fill="#FF8000"/>
<path d="M114.41 20.3315C113.922 19.715 113.307 19.2092 112.606 18.8478C111.858 18.4726 111.029 18.2856 110.192 18.3033C109.418 18.2942 108.648 18.4199 107.917 18.6746C107.439 18.8423 107.002 19.1081 106.633 19.4547C106.625 19.4643 106.615 19.4732 106.605 19.4812L106.528 19.5592L106.505 19.5826C106.466 19.6176 106.415 19.6366 106.363 19.6357C106.309 19.6353 106.257 19.6142 106.218 19.5767C106.179 19.5392 106.156 19.4882 106.154 19.4344V12.9596C106.149 12.8117 106.088 12.6711 105.984 12.5656C105.879 12.4601 105.739 12.3975 105.59 12.3901H102.829C102.678 12.3999 102.537 12.4655 102.433 12.5739C102.329 12.6823 102.27 12.8256 102.268 12.9752V31.2981C102.269 31.4497 102.329 31.5948 102.436 31.7038C102.542 31.8129 102.686 31.8776 102.838 31.8847H105.283C105.433 31.8765 105.574 31.8139 105.68 31.7088C105.786 31.6038 105.849 31.4636 105.857 31.3153V30.7255C105.864 30.6762 105.889 30.631 105.926 30.5983C105.964 30.5655 106.013 30.5476 106.063 30.5477C106.089 30.5475 106.115 30.5525 106.14 30.5624C106.164 30.5723 106.186 30.5869 106.204 30.6054L106.278 30.6787C106.349 30.7552 106.435 30.8347 106.508 30.9065C106.775 31.1527 107.072 31.3654 107.391 31.5399C107.74 31.7343 108.109 31.8912 108.491 32.008C108.905 32.1296 109.334 32.1906 109.766 32.189C110.638 32.2002 111.503 32.0373 112.31 31.71C113.052 31.4074 113.72 30.9504 114.268 30.3698C114.826 29.7807 115.254 29.0831 115.526 28.3213C116.101 26.4105 116.115 24.3765 115.566 22.4581C115.316 21.6888 114.931 20.9691 114.43 20.3315H114.41ZM111.263 27.9094C110.632 28.4722 109.813 28.7835 108.965 28.7835C108.116 28.7835 107.298 28.4722 106.666 27.9094C106.12 27.3227 105.851 26.1386 105.851 25.1946C105.851 24.2507 106.12 23.1586 106.666 22.572C107.298 22.0092 108.116 21.6979 108.965 21.6979C109.813 21.6979 110.632 22.0092 111.263 22.572C111.807 23.1586 112.081 24.246 112.081 25.1946C112.081 26.1432 111.807 27.3227 111.263 27.9094Z" fill="#FF8000"/>
<path d="M194.725 12.3901H191.985C191.833 12.3953 191.689 12.4582 191.582 12.5659C191.476 12.6736 191.415 12.8179 191.412 12.969V19.4719C191.405 19.5216 191.381 19.5674 191.343 19.6007C191.305 19.634 191.256 19.6525 191.206 19.6528C191.174 19.6527 191.143 19.6457 191.115 19.6322C191.086 19.6187 191.061 19.5991 191.041 19.5748V19.5592L190.984 19.5046C190.984 19.4859 190.947 19.4687 190.931 19.4484C190.562 19.1032 190.126 18.8375 189.648 18.6684C188.919 18.4138 188.149 18.2881 187.376 18.297C186.529 18.2782 185.69 18.4702 184.937 18.8556C184.235 19.2177 183.619 19.7234 183.129 20.3393C182.628 20.9772 182.242 21.6967 181.989 22.4659C181.44 24.3838 181.454 26.4173 182.029 28.3275C182.304 29.0885 182.732 29.786 183.287 30.3776C183.837 30.959 184.506 31.4169 185.25 31.7209C186.058 32.0484 186.924 32.2113 187.797 32.1999C188.223 32.2015 188.647 32.1405 189.054 32.0189C189.444 31.9041 189.82 31.7471 190.175 31.5509C190.493 31.3745 190.79 31.1619 191.058 30.9174L191.294 30.6834L191.358 30.6163C191.398 30.5771 191.452 30.5552 191.508 30.5552C191.565 30.5552 191.619 30.5771 191.659 30.6163C191.69 30.6464 191.711 30.6849 191.72 30.7271V31.309C191.722 31.4604 191.783 31.6052 191.889 31.7137C191.995 31.8222 192.14 31.8862 192.292 31.8925H194.728C194.882 31.8861 195.028 31.821 195.136 31.7106C195.243 31.6003 195.304 31.4531 195.305 31.2997V12.9799C195.305 12.8269 195.245 12.6799 195.138 12.5699C195.031 12.4598 194.885 12.3954 194.731 12.3901H194.725ZM190.907 27.9125C190.276 28.4753 189.457 28.7866 188.609 28.7866C187.76 28.7866 186.942 28.4753 186.31 27.9125C185.763 27.3274 185.495 26.1417 185.495 25.1946C185.495 24.2476 185.763 23.1664 186.31 22.5751C186.942 22.0123 187.76 21.701 188.609 21.701C189.457 21.701 190.276 22.0123 190.907 22.5751C191.454 23.1617 191.728 24.2492 191.728 25.1946C191.728 26.1401 191.454 27.3274 190.907 27.9125Z" fill="#FF8000"/>
<path d="M87.0902 12.4198C86.5686 12.4174 86.0621 12.5945 85.6572 12.921C85.2522 13.2476 84.9737 13.7034 84.8691 14.2108C84.7644 14.7183 84.8401 15.2461 85.0833 15.7044C85.3264 16.1627 85.722 16.5232 86.2026 16.7245C86.6833 16.9258 87.2194 16.9556 87.7196 16.8086C88.2199 16.6617 88.6534 16.3472 88.9464 15.9186C89.2395 15.4901 89.3739 14.9739 89.3268 14.4581C89.2797 13.9422 89.0541 13.4584 88.6882 13.0891C88.4824 12.8747 88.2343 12.7046 87.9593 12.5894C87.6844 12.4743 87.3886 12.4166 87.0902 12.4198Z" fill="#FF8000"/>
<path d="M88.4385 18.6155H85.7405C85.5868 18.6158 85.4391 18.6753 85.3286 18.7815C85.2181 18.8877 85.1535 19.0323 85.1482 19.1849V31.3232C85.1526 31.4741 85.2159 31.6172 85.3247 31.7226C85.4335 31.828 85.5792 31.8873 85.7311 31.888H88.4385C88.5908 31.887 88.7368 31.8277 88.8462 31.7225C88.9556 31.6173 89.0201 31.4744 89.0261 31.3232V19.1912C89.0193 19.0383 88.9534 18.8939 88.8423 18.7879C88.7311 18.6819 88.5832 18.6224 88.429 18.6217" fill="#FF8000"/>
<path d="M179.779 18.6154H177.338C177.19 18.6207 177.049 18.6812 176.943 18.785C176.837 18.8887 176.775 19.0281 176.768 19.1755V19.7996C176.759 19.8367 176.74 19.8708 176.714 19.8983C176.687 19.9258 176.654 19.9457 176.617 19.9559C176.58 19.9662 176.541 19.9663 176.504 19.9564C176.467 19.9464 176.433 19.9267 176.406 19.8994L176.367 19.8557C176.281 19.7615 176.188 19.6729 176.09 19.5905C175.805 19.3398 175.488 19.1273 175.147 18.9586C174.756 18.7565 174.344 18.5994 173.917 18.4906C173.42 18.3658 172.908 18.305 172.395 18.3096C171.557 18.2954 170.727 18.4861 169.98 18.865C169.284 19.2225 168.67 19.7179 168.176 20.3207C167.671 20.9444 167.283 21.6523 167.028 22.4113C166.764 23.3511 166.629 24.322 166.628 25.2977C166.618 26.2758 166.768 27.2491 167.072 28.1794C167.348 28.9408 167.776 29.6391 168.33 30.2326C168.881 30.8116 169.55 31.2679 170.293 31.5712C171.099 31.8994 171.964 32.0623 172.836 32.0502C173.482 32.0382 174.12 31.9114 174.721 31.6757C175.182 31.5017 175.602 31.2362 175.955 30.8957L175.985 30.866C176.019 30.8345 176.05 30.8006 176.079 30.7646C176.122 30.7237 176.178 30.6998 176.236 30.6975C176.291 30.6967 176.343 30.717 176.382 30.754C176.421 30.7911 176.444 30.842 176.445 30.8957V31.6087C176.46 32.0135 176.393 32.4172 176.248 32.7961C176.104 33.1749 175.884 33.5213 175.603 33.8148C175.044 34.3889 174.166 34.676 172.969 34.676C172.213 34.6845 171.463 34.5352 170.769 34.2376C170.261 34.013 169.777 33.7358 169.328 33.4107C169.205 33.3317 169.058 33.2998 168.913 33.3207C168.769 33.3417 168.637 33.4141 168.542 33.5246L167.024 35.7775C166.939 35.9048 166.907 36.0597 166.934 36.2099C166.961 36.3602 167.046 36.4942 167.17 36.5841C167.941 37.1131 168.806 37.4936 169.719 37.7059C170.81 37.9541 171.925 38.0787 173.045 38.0772C175.503 38.0772 177.333 37.4635 178.536 36.2362C179.738 35.0088 180.34 33.2084 180.34 30.8348V19.1802C180.334 19.0321 180.272 18.8918 180.166 18.7873C180.06 18.6828 179.919 18.6219 179.769 18.6169L179.779 18.6154ZM176.526 26.7206C176.367 27.0882 176.138 27.4216 175.851 27.7019C175.558 27.9841 175.215 28.2108 174.839 28.3713C174.452 28.541 174.034 28.6287 173.611 28.6287C173.188 28.6287 172.77 28.541 172.383 28.3713C172.018 28.2077 171.684 27.9811 171.399 27.7019C171.11 27.4231 170.881 27.0894 170.725 26.7206C170.568 26.2517 170.489 25.7606 170.491 25.2665C170.489 24.7126 170.568 24.1614 170.725 23.6298C170.881 23.2618 171.11 22.929 171.399 22.6516C171.684 22.3724 172.018 22.1458 172.383 21.9823C172.77 21.8125 173.188 21.7248 173.611 21.7248C174.034 21.7248 174.452 21.8125 174.839 21.9823C175.215 22.1427 175.558 22.3695 175.851 22.6516C176.138 22.9312 176.367 23.2635 176.526 23.6298C176.681 24.1616 176.76 24.7127 176.758 25.2665C176.76 25.7604 176.681 26.2514 176.526 26.7206Z" fill="#FF8000"/>
<path d="M69.0126 20.0009C68.6672 19.4623 68.1774 19.0301 67.5982 18.7527C66.8458 18.4254 66.0285 18.2718 65.2077 18.3034C64.7684 18.3002 64.331 18.3611 63.9096 18.4844C63.5435 18.5902 63.1947 18.7479 62.8739 18.9524C62.591 19.1292 62.3362 19.3469 62.118 19.5984C62.1088 19.6071 62.1009 19.6171 62.0944 19.628L62.0205 19.7154L61.9797 19.77C61.9373 19.8055 61.8824 19.823 61.8271 19.8186C61.7718 19.8142 61.7204 19.7883 61.6842 19.7466C61.6649 19.7237 61.6505 19.6971 61.6418 19.6686V12.9629C61.6394 12.8083 61.5766 12.6607 61.4666 12.5512C61.3566 12.4418 61.2081 12.379 61.0524 12.3762H58.321C58.1676 12.3815 58.0221 12.4455 57.9152 12.5548C57.8082 12.6642 57.7481 12.8104 57.7474 12.9629V31.292C57.7474 31.4479 57.8092 31.5975 57.9195 31.7085C58.0298 31.8195 58.1797 31.8828 58.3367 31.8849H61.0352C61.1923 31.8828 61.3424 31.8195 61.4529 31.7086C61.5635 31.5977 61.6257 31.4481 61.6261 31.292V24.8952C61.6244 24.4975 61.6512 24.1003 61.7062 23.7063C61.7472 23.3549 61.8538 23.0142 62.0205 22.7016C62.1883 22.4007 62.4355 22.151 62.7356 21.9792C63.112 21.7852 63.5331 21.6927 63.9568 21.7109C64.3341 21.6697 64.7143 21.7581 65.034 21.9614C65.3537 22.1646 65.5936 22.4705 65.7138 22.828C65.8493 23.1695 65.9288 23.5303 65.9495 23.8967C65.9731 24.2852 65.9904 24.6565 65.9904 25.0185V31.3092C65.9908 31.4649 66.0528 31.6143 66.163 31.7252C66.2732 31.8361 66.4229 31.8996 66.5798 31.902H69.2782C69.4364 31.9016 69.5881 31.839 69.7 31.7279C69.8119 31.6168 69.875 31.4663 69.8754 31.3092V24.2134C69.8816 23.4297 69.8217 22.6469 69.6962 21.8731C69.5968 21.2053 69.3615 20.5646 69.0047 19.99" fill="#FF8000"/>
<path d="M165.919 18.3034H165.19C164.429 18.275 163.678 18.4769 163.035 18.8822C162.613 19.1785 162.25 19.5486 161.962 19.9744L161.911 20.0446L161.875 20.1008C161.855 20.1219 161.83 20.1387 161.803 20.1502C161.776 20.1617 161.747 20.1677 161.718 20.1678C161.669 20.1676 161.622 20.151 161.584 20.1206C161.546 20.0903 161.52 20.0481 161.509 20.0009V19.1974C161.507 19.0429 161.444 18.8953 161.334 18.7866C161.223 18.6779 161.074 18.617 160.918 18.617H158.218C158.07 18.6164 157.927 18.6708 157.817 18.7696C157.708 18.8683 157.639 19.0042 157.626 19.1506V31.3622C157.64 31.505 157.707 31.6374 157.813 31.7348C157.92 31.8321 158.058 31.8877 158.202 31.8911H160.94C161.094 31.8883 161.241 31.8255 161.349 31.7164C161.456 31.6073 161.517 31.4605 161.517 31.3076V25.9078C161.515 25.3392 161.551 24.7711 161.625 24.2072C161.675 23.7329 161.83 23.2754 162.078 22.867C162.322 22.4867 162.673 22.1861 163.088 22.0026C163.535 21.8092 164.016 21.7068 164.503 21.7015H165.936C166.084 21.6983 166.226 21.6402 166.334 21.5386C166.441 21.437 166.506 21.2992 166.516 21.1523V18.8557C166.506 18.7107 166.442 18.5746 166.337 18.4737C166.231 18.3728 166.092 18.3143 165.946 18.3096" fill="#FF8000"/>
<path d="M99.2831 24.6487C98.7955 24.3557 98.2654 24.1389 97.7115 24.0059L96.1399 23.6267C95.7211 23.5337 95.3137 23.3956 94.9251 23.2148C94.7825 23.1563 94.6611 23.0562 94.577 22.9278C94.4928 22.7994 94.4498 22.6487 94.4536 22.4956C94.4397 22.3251 94.476 22.1543 94.558 22.0039C94.64 21.8535 94.7642 21.73 94.9156 21.6484C95.2098 21.4892 95.5392 21.4051 95.8743 21.4035C96.5671 21.3882 97.2386 21.6418 97.7461 22.1102C97.8553 22.2037 97.9947 22.2551 98.139 22.2551C98.2832 22.2551 98.4226 22.2037 98.5319 22.1102L100.124 20.4361C100.216 20.33 100.266 20.1947 100.266 20.0547C100.266 19.9147 100.216 19.7793 100.124 19.6732C99.6119 19.2109 99.0025 18.8676 98.3401 18.6684C97.5254 18.4197 96.678 18.2919 95.8256 18.2893C95.1714 18.2886 94.5201 18.3757 93.8894 18.5483C93.2838 18.7086 92.7143 18.9813 92.2109 19.3518C91.7149 19.7203 91.3088 20.1949 91.0228 20.7404C90.7098 21.3637 90.5549 22.0536 90.5717 22.7499C90.535 23.4505 90.6985 24.1471 91.0432 24.7594C91.3418 25.242 91.7601 25.6406 92.2581 25.9171C92.7499 26.2009 93.2787 26.4161 93.8296 26.5568L95.4012 26.939C95.8236 27.0344 96.2326 27.1805 96.6192 27.3743C96.765 27.4456 96.887 27.5571 96.9707 27.6954C97.0543 27.8338 97.096 27.9931 97.0907 28.1544C97.0974 28.3208 97.0478 28.4846 96.9498 28.6198C96.8519 28.7549 96.7111 28.8536 96.5501 28.9002C96.1618 29.0418 95.7505 29.1111 95.3368 29.1046C94.8006 29.1182 94.2702 28.9923 93.7982 28.7395C93.4913 28.5656 93.2117 28.348 92.9684 28.0936C92.8535 28.0055 92.7099 27.9624 92.5651 27.9724C92.4202 27.9825 92.2841 28.045 92.1826 28.1482L90.5812 30.0204C90.491 30.1405 90.4509 30.2904 90.469 30.4391C90.4871 30.5878 90.5622 30.7239 90.6786 30.8192C91.2132 31.2827 91.8427 31.6255 92.5237 31.824C93.3902 32.084 94.2901 32.2175 95.1954 32.2203C95.8815 32.2187 96.5658 32.1502 97.2384 32.0159C97.8964 31.8914 98.5266 31.6509 99.0992 31.306C99.647 30.9682 100.109 30.5096 100.449 29.9658C100.823 29.3255 101.007 28.593 100.979 27.8533C101.014 27.1528 100.851 26.4566 100.507 25.8438C100.2 25.3606 99.7799 24.9577 99.2831 24.6689" fill="#FF8000"/>
<path d="M82.8096 18.6154H80.1096C79.9574 18.6168 79.8114 18.6759 79.7016 18.7806C79.5917 18.8853 79.5263 19.0276 79.5187 19.1786V25.6004C79.5179 25.9969 79.4912 26.393 79.4385 26.7861C79.3889 27.1388 79.2743 27.4793 79.1007 27.7909C78.9363 28.0932 78.6896 28.3436 78.3887 28.5133C78.0132 28.7098 77.5917 28.8035 77.1676 28.7847C76.7579 28.8108 76.351 28.701 76.0109 28.4727C75.7439 28.2624 75.5369 27.9865 75.4105 27.6723C75.2789 27.33 75.2015 26.9694 75.1811 26.6036C75.1544 26.2151 75.1449 25.8438 75.1449 25.4818V19.1708C75.1347 19.0205 75.068 18.8795 74.9579 18.7758C74.8479 18.672 74.7026 18.6131 74.5509 18.6107H71.8556C71.7771 18.608 71.6989 18.6207 71.6254 18.648C71.5519 18.6753 71.4846 18.7167 71.4272 18.7699C71.3699 18.8231 71.3236 18.887 71.2911 18.9579C71.2587 19.0288 71.2406 19.1054 71.2379 19.1833V26.2822C71.2343 27.0659 71.2953 27.8486 71.4203 28.6225C71.5207 29.2884 71.7496 29.9289 72.0945 30.5087C72.4414 31.0459 72.9308 31.4778 73.5089 31.7569C74.2608 32.0857 75.0784 32.2394 75.8993 32.2062C76.3375 32.208 76.7737 32.1471 77.1943 32.0252C77.5676 31.9121 77.9258 31.755 78.2614 31.5572C78.5677 31.3766 78.8479 31.1557 79.0944 30.9003C79.1745 30.813 79.2515 30.7256 79.3128 30.6429C79.331 30.6238 79.3529 30.6085 79.3772 30.598C79.4015 30.5876 79.4278 30.5821 79.4543 30.5821C79.5084 30.5828 79.5602 30.6041 79.599 30.6415C79.6379 30.6789 79.6609 30.7296 79.6633 30.7833V31.292C79.6653 31.4483 79.729 31.5976 79.8407 31.7078C79.9523 31.8181 80.103 31.8805 80.2605 31.8817H82.8065C82.9643 31.8817 83.1158 31.8197 83.2277 31.7092C83.3396 31.5986 83.4029 31.4487 83.4037 31.292V19.1708C83.3952 19.0193 83.3286 18.8768 83.2175 18.7726C83.1064 18.6684 82.9593 18.6105 82.8065 18.6107" fill="#FF8000"/>
<path d="M141.231 28.7941H135.295C135.246 28.7843 135.203 28.7584 135.172 28.7206C135.141 28.6828 135.124 28.6354 135.123 28.5865C135.124 28.533 135.144 28.4814 135.18 28.4414L135.265 28.3619L135.332 28.2979L140.938 23.0073L141.275 22.6953C141.396 22.5882 141.495 22.4575 141.564 22.3113C141.633 22.1651 141.672 22.0064 141.677 21.845V19.1911C141.675 19.0352 141.612 18.8861 141.501 18.7758C141.39 18.6656 141.24 18.6029 141.083 18.6013H131.344C131.189 18.6029 131.04 18.6641 130.93 18.772C130.819 18.88 130.755 19.0263 130.751 19.1801V21.1117C130.755 21.2655 130.819 21.4118 130.93 21.5198C131.04 21.6277 131.189 21.6889 131.344 21.6905H136.671C136.723 21.6965 136.77 21.7209 136.805 21.7591C136.84 21.7972 136.859 21.8466 136.86 21.898C136.859 21.9412 136.844 21.983 136.819 22.0181L131.807 26.8547L131.075 27.5584L130.941 27.6894C130.729 27.9044 130.608 28.192 130.603 28.4929V31.3013C130.608 31.4532 130.672 31.5975 130.781 31.7041C130.89 31.8108 131.037 31.8715 131.19 31.8739H141.235C141.392 31.8718 141.541 31.8089 141.651 31.6986C141.762 31.5883 141.824 31.4395 141.825 31.2841V29.3807C141.824 29.2255 141.762 29.0768 141.651 28.9668C141.541 28.8567 141.392 28.7941 141.235 28.7925" fill="#FF8000"/>
<path d="M215.501 12.189H214.583C214.431 12.195 214.286 12.2594 214.18 12.3687C214.074 12.4781 214.015 12.6238 214.015 12.7756V31.2951C214.013 31.4495 214.074 31.5981 214.182 31.7085C214.291 31.819 214.439 31.8824 214.594 31.8848H215.481C215.636 31.8812 215.783 31.8174 215.891 31.7072C216 31.597 216.06 31.4491 216.06 31.2951V12.7756C216.061 12.6236 216.002 12.4774 215.896 12.3679C215.789 12.2584 215.645 12.1942 215.492 12.189" fill="#FF8000"/>
<path d="M211.024 19.6826C210.62 19.2405 210.119 18.8967 209.559 18.6779C208.894 18.4191 208.183 18.2939 207.469 18.3097C206.549 18.3023 205.645 18.5521 204.862 19.0305C204.526 19.2354 204.22 19.4853 203.953 19.7731C203.893 19.8402 203.835 19.9073 203.782 19.9744L203.714 20.0649L203.684 20.1055C203.665 20.127 203.64 20.1438 203.613 20.1546C203.586 20.1655 203.557 20.17 203.527 20.1679C203.478 20.1678 203.43 20.1504 203.392 20.1187C203.355 20.087 203.33 20.043 203.321 19.9947V19.1912C203.318 19.039 203.256 18.8939 203.148 18.7859C203.04 18.6779 202.895 18.6152 202.741 18.6108H202C201.846 18.6152 201.7 18.6784 201.593 18.7872C201.485 18.896 201.424 19.0419 201.423 19.1943V31.3123C201.428 31.4627 201.49 31.6056 201.597 31.712C201.704 31.8184 201.848 31.8802 202 31.8849H202.894C203.049 31.882 203.197 31.8185 203.306 31.7082C203.414 31.5978 203.475 31.4494 203.474 31.2951V24.8828C203.467 24.24 203.542 23.599 203.695 22.9746C203.824 22.4402 204.054 21.9347 204.371 21.4847C204.677 21.0685 205.084 20.7358 205.555 20.5173C206.099 20.2798 206.689 20.1652 207.283 20.1819C208.247 20.1819 208.97 20.4799 209.418 21.0728C209.907 21.7857 210.144 22.6395 210.092 23.5004V31.3014C210.091 31.4551 210.151 31.603 210.259 31.7133C210.367 31.8236 210.514 31.8875 210.669 31.8911H211.566C211.719 31.8867 211.865 31.8235 211.973 31.7147C212.08 31.6059 212.141 31.46 212.143 31.3076V23.296C212.149 22.6165 212.055 21.9396 211.866 21.2865C211.702 20.7038 211.411 20.1641 211.013 19.706" fill="#FF8000"/>
<path d="M198.262 29.2091C198.07 29.2014 197.878 29.2358 197.7 29.31C197.523 29.3841 197.364 29.4961 197.234 29.6381C196.973 29.9059 196.829 30.265 196.833 30.6377C196.837 31.0104 196.988 31.3666 197.255 31.6292C197.521 31.8917 197.881 32.0394 198.256 32.0402C198.632 32.041 198.992 31.8949 199.26 31.6336L199.291 31.6024C199.543 31.3363 199.683 30.9851 199.683 30.6202C199.683 30.2554 199.543 29.9042 199.291 29.6381C199.163 29.4988 199.007 29.3883 198.832 29.3143C198.658 29.2403 198.469 29.2044 198.279 29.2091" fill="#FF8000"/>
<path d="M35.5375 17.7105C35.4259 17.4219 33.8811 14.5901 31.0129 11.036C30.9397 10.9501 30.8933 10.8449 30.8793 10.7333C30.7073 8.66585 30.4198 6.60947 30.0181 4.57366C29.9724 4.3692 29.8635 4.18403 29.7065 4.04413C29.5495 3.90424 29.3524 3.81662 29.1427 3.79357L26.1567 3.43628C26.1305 3.43468 26.1042 3.43468 26.0781 3.43628C25.9113 3.43628 25.7515 3.50203 25.6336 3.61907C25.5157 3.73611 25.4494 3.89484 25.4494 4.06036V5.08853C25.4489 5.0955 25.4465 5.10221 25.4424 5.10793C25.4383 5.11366 25.4328 5.11819 25.4264 5.12107C25.42 5.12394 25.4129 5.12504 25.4059 5.12426C25.3989 5.12347 25.3922 5.12083 25.3866 5.11661C23.5203 3.43762 21.5058 1.92856 19.3673 0.607654C18.9314 0.317528 18.4181 0.16324 17.8932 0.164559C17.3683 0.16324 16.855 0.317528 16.419 0.607654C6.1392 6.89991 0.478307 17.1473 0.259855 17.7105C0.195636 17.8454 0.162313 17.9928 0.162277 18.1421C0.162242 18.2913 0.195495 18.4388 0.259648 18.5737C0.323802 18.7087 0.417265 18.8279 0.533328 18.9228C0.649391 19.0177 0.785173 19.0859 0.930927 19.1225L3.8871 19.6888C4.08311 19.7416 4.25862 19.8516 4.39089 20.0047C4.52315 20.1577 4.60607 20.3466 4.6289 20.5469C4.65247 21.0665 5.21196 32.6634 5.91604 35.6714C5.97358 35.8873 6.10141 36.0783 6.27963 36.2146C6.45785 36.3509 6.67646 36.4249 6.90143 36.425H6.925C8.65376 36.3813 10.2364 36.3532 11.9447 36.3298H12.0877C12.1754 36.3294 12.2593 36.2945 12.3212 36.2329C12.383 36.1712 12.4177 36.0877 12.4177 36.0006V35.9913C12.3486 34.9787 12.1993 32.6634 12.0783 30.2186C12.0783 30.1561 12.0783 30.0797 12.0673 30.0173C12.0619 29.9157 12.0316 29.817 11.979 29.7297C11.9264 29.6424 11.8531 29.5692 11.7655 29.5165C11.3146 29.2492 10.9369 28.8758 10.6659 28.4293C10.3948 27.9828 10.2386 27.4768 10.2112 26.9562C10.0541 22.8888 9.97705 18.1879 10.2018 14.5105C10.2049 14.3537 10.2707 14.2045 10.3846 14.0958C10.4985 13.9871 10.6512 13.9278 10.8092 13.9309C10.9672 13.934 11.1174 13.9993 11.2269 14.1124C11.3364 14.2255 11.3962 14.3771 11.3931 14.5339C11.3931 14.5495 11.3931 14.5651 11.3931 14.5807C11.2469 17.0334 11.2359 19.9306 11.2878 22.7905C11.2893 22.8827 11.3091 22.9737 11.3461 23.0583C11.3831 23.1429 11.4365 23.2194 11.5032 23.2835C11.57 23.3476 11.6488 23.398 11.7352 23.4319C11.8216 23.4658 11.9139 23.4824 12.0068 23.4809C12.0996 23.4793 12.1913 23.4596 12.2765 23.4229C12.3617 23.3862 12.4388 23.3332 12.5034 23.2669C12.568 23.2007 12.6188 23.1224 12.6529 23.0366C12.687 22.9509 12.7037 22.8593 12.7022 22.7671C12.6488 19.887 12.6629 16.9694 12.8138 14.5105C12.8241 14.3589 12.8928 14.217 13.0056 14.1143C13.1185 14.0116 13.2668 13.956 13.4199 13.959C13.5729 13.9621 13.7189 14.0235 13.8276 14.1305C13.9363 14.2375 13.9993 14.382 14.0035 14.5339C14.0035 14.5495 14.0035 14.5651 14.0035 14.5807C13.8573 17.0193 13.8463 19.901 13.8966 22.7452C13.898 22.8374 13.9176 22.9285 13.9544 23.0131C13.9911 23.0978 14.0444 23.1745 14.111 23.2387C14.1776 23.303 14.2563 23.3536 14.3426 23.3876C14.4289 23.4217 14.5212 23.4385 14.6141 23.4372C14.7069 23.4358 14.7986 23.4164 14.8839 23.3799C14.9692 23.3433 15.0464 23.2905 15.1111 23.2244C15.1759 23.1582 15.2268 23.0801 15.2611 22.9944C15.2954 22.9087 15.3124 22.8171 15.3111 22.7249C15.2592 19.8589 15.2733 16.9522 15.4226 14.509C15.4258 14.3521 15.4915 14.203 15.6054 14.0943C15.7193 13.9856 15.8721 13.9263 16.0301 13.9294C16.188 13.9325 16.3383 13.9977 16.4478 14.1108C16.5573 14.2239 16.617 14.3755 16.6139 14.5324V14.5792C16.4002 18.1551 16.4693 22.6813 16.6139 26.6504C16.6131 26.6629 16.6131 26.6754 16.6139 26.6878V26.7487C16.6139 26.7612 16.6139 26.7752 16.6139 26.7877C16.6138 27.3029 16.4876 27.8104 16.2461 28.2664C16.0047 28.7225 15.6552 29.1135 15.2278 29.4057C15.1515 29.4572 15.0881 29.5253 15.0424 29.6048C14.9966 29.6842 14.9697 29.773 14.9637 29.8644C14.9637 29.8644 14.8899 30.4744 15.1618 33.4294C15.2875 34.7182 15.3849 35.6137 15.4289 36.0162C15.4385 36.0921 15.4759 36.1617 15.5338 36.2121C15.5917 36.2624 15.6663 36.2899 15.7432 36.2893H16.0198H17.791H18.0189C18.7921 36.2893 19.5292 36.2893 20.2396 36.2893L21.9196 36.3049C21.9971 36.3054 22.072 36.2775 22.13 36.2265C22.188 36.1755 22.225 36.1051 22.2339 36.0287C22.6221 32.4886 22.7149 30.5009 22.7149 30.5009C22.7128 30.4159 22.6798 30.3345 22.622 30.2718C22.5643 30.209 22.4856 30.169 22.4005 30.1593L20.3575 29.88C20.2218 29.8636 20.0941 29.8077 19.9904 29.7194C19.8866 29.6311 19.8115 29.5144 19.7744 29.3838C19.7488 29.2819 19.7403 29.1765 19.7492 29.0718C20.5759 17.2721 24.4955 13.2951 24.4955 13.2951C24.5532 13.2344 24.6169 13.1795 24.6856 13.1313C24.7926 13.0544 24.9213 13.0129 25.0534 13.0127C25.1797 13.0129 25.303 13.0507 25.4072 13.1214C25.5115 13.1921 25.5919 13.2923 25.638 13.409C25.6672 13.5012 25.6846 13.5966 25.6899 13.693C26.0278 17.4031 25.8628 23.7141 25.6537 28.6381C25.4762 32.8178 25.2608 36.0989 25.2608 36.0989C25.2608 36.1635 25.2867 36.2254 25.3327 36.271C25.3786 36.3167 25.441 36.3423 25.506 36.3423C26.6187 36.361 27.7141 36.3829 28.8739 36.4125H28.8975C29.1226 36.4126 29.3413 36.3388 29.5196 36.2024C29.6978 36.0661 29.8256 35.875 29.8829 35.6589C30.587 32.6509 31.1402 21.054 31.1701 20.5344C31.1929 20.3341 31.2758 20.1452 31.4081 19.9922C31.5403 19.8392 31.7158 19.7291 31.9118 19.6763L34.8743 19.11C35.0201 19.0734 35.1558 19.0052 35.2719 18.9103C35.388 18.8154 35.4814 18.6962 35.5456 18.5613C35.6097 18.4263 35.643 18.2789 35.643 18.1296C35.6429 17.9804 35.6096 17.833 35.5454 17.698L35.5375 17.7105Z" fill="#FF8000"/>
</svg>
