<svg width="117" height="40" viewBox="0 0 117 40" fill="none" xmlns="http://www.w3.org/2000/svg">
<path d="M35.1117 17.9678C35.0032 17.6855 33.5021 14.9155 30.7167 11.4404C30.6459 11.3563 30.6013 11.2534 30.5884 11.1443C30.4195 9.12396 30.1391 7.11449 29.7485 5.12506C29.7041 4.92505 29.5983 4.74392 29.4457 4.60707C29.2932 4.47022 29.1016 4.38452 28.8979 4.36197V4.36197L25.9964 4.01095C25.9709 4.00943 25.9454 4.00943 25.92 4.01095C25.758 4.01095 25.6026 4.07526 25.4881 4.18975C25.3735 4.30423 25.3092 4.45951 25.3092 4.62142V5.62564C25.3092 5.63536 25.3053 5.64467 25.2984 5.65154C25.2916 5.65841 25.2823 5.66227 25.2725 5.66227C25.2635 5.66247 25.2548 5.65919 25.2481 5.65311C23.4352 4.01123 21.4782 2.53559 19.4008 1.24399V1.24399C18.9766 0.960152 18.4774 0.809239 17.9669 0.810555V0.810555C17.4564 0.809239 16.9571 0.960152 16.5329 1.24399V1.24399C6.54719 7.39448 1.04657 17.4169 0.834299 17.9678C0.77329 18.0995 0.742013 18.2429 0.742686 18.388C0.74336 18.5331 0.775967 18.6763 0.838196 18.8074C0.900425 18.9384 0.990751 19.0542 1.10277 19.1465C1.21479 19.2388 1.34575 19.3053 1.48637 19.3414L4.36954 19.903C4.55962 19.9551 4.72972 20.0629 4.85792 20.2125C4.98612 20.3621 5.06654 20.5467 5.08881 20.7424C5.11171 21.2506 5.65689 32.5962 6.33951 35.5387C6.39577 35.7499 6.52033 35.9365 6.69379 36.0696C6.86725 36.2026 7.07987 36.2746 7.29853 36.2743H7.31991C8.99972 36.2331 10.5375 36.2056 12.2066 36.1827H12.3441C12.4295 36.1819 12.5113 36.1475 12.5716 36.087C12.6319 36.0264 12.6659 35.9446 12.6663 35.8592V35.8516C12.5991 34.8611 12.4525 32.5962 12.3349 30.2047C12.3349 30.1452 12.3273 30.0704 12.3242 30.0094C12.319 29.91 12.2896 29.8134 12.2384 29.728C12.1873 29.6427 12.1161 29.5711 12.031 29.5195C11.5928 29.2578 11.2257 28.8923 10.9623 28.4552C10.6989 28.0181 10.5472 27.523 10.5207 27.0135C10.368 23.0347 10.2932 18.4379 10.51 14.8392C10.5133 14.6858 10.5773 14.5399 10.6882 14.4337C10.799 14.3276 10.9475 14.2697 11.101 14.273C11.2545 14.2762 11.4004 14.3402 11.5067 14.451C11.6129 14.5618 11.6708 14.7102 11.6676 14.8636V14.9094C11.5255 17.307 11.5149 20.1426 11.5637 22.9401C11.567 23.1223 11.6425 23.2957 11.7736 23.4222C11.9048 23.5487 12.0809 23.6179 12.2631 23.6147C12.4454 23.6114 12.6189 23.536 12.7455 23.4049C12.8721 23.2738 12.9414 23.0978 12.9381 22.9157C12.8862 20.0999 12.9015 17.2459 13.0465 14.8392C13.0498 14.6858 13.1139 14.5399 13.2247 14.4337C13.3355 14.3276 13.484 14.2697 13.6375 14.273C13.791 14.2762 13.937 14.3402 14.0432 14.451C14.1495 14.5618 14.2073 14.7102 14.2041 14.8636C14.2041 14.8788 14.2041 14.8941 14.2041 14.9094C14.0636 17.2948 14.0514 20.1121 14.1002 22.8958C14.1031 23.078 14.1782 23.2516 14.3091 23.3783C14.44 23.5051 14.6159 23.5748 14.7981 23.5719C14.9804 23.5691 15.1541 23.494 15.2809 23.3632C15.4078 23.2324 15.4775 23.0566 15.4746 22.8745V22.8745C15.4227 20.0709 15.438 17.2276 15.5831 14.8376C15.5863 14.6842 15.6504 14.5384 15.7612 14.4322C15.8161 14.3796 15.8808 14.3384 15.9516 14.3108C16.0225 14.2832 16.098 14.2698 16.1741 14.2714C16.2501 14.273 16.325 14.2896 16.3946 14.3201C16.4642 14.3507 16.5271 14.3946 16.5797 14.4495C16.6323 14.5043 16.6736 14.569 16.7012 14.6398C16.7288 14.7106 16.7422 14.7861 16.7406 14.8621C16.7406 14.8773 16.7406 14.8926 16.7406 14.9078C16.5344 18.4043 16.6016 22.8317 16.7406 26.7159C16.7406 26.7159 16.7406 26.7494 16.7406 26.7525C16.7406 26.7555 16.7406 26.7906 16.7406 26.8105V26.8502C16.7409 27.354 16.6184 27.8503 16.3837 28.2963C16.1491 28.7422 15.8093 29.1243 15.3937 29.4096C15.3189 29.4614 15.257 29.5295 15.2125 29.6089C15.1681 29.6882 15.1423 29.7766 15.1371 29.8674C15.1371 29.8674 15.0669 30.4642 15.3296 33.3532C15.4533 34.6154 15.5464 35.4899 15.5907 35.8851C15.6004 35.959 15.6368 36.0268 15.6931 36.0757C15.7493 36.1247 15.8215 36.1513 15.8961 36.1507H16.1634H17.8844H18.1074C18.8587 36.1507 19.5734 36.1507 20.2636 36.1507L21.8961 36.1644C21.9711 36.165 22.0437 36.1379 22.1001 36.0883C22.1564 36.0388 22.1925 35.9703 22.2015 35.8958C22.5802 32.4329 22.6688 30.487 22.6688 30.487C22.6667 30.4041 22.6347 30.3246 22.5785 30.2635C22.5224 30.2023 22.4459 30.1635 22.3634 30.1543L20.3782 29.8812C20.2427 29.8678 20.1144 29.8139 20.01 29.7265C19.9057 29.6391 19.8301 29.5222 19.7933 29.3913C19.7683 29.2916 19.76 29.1884 19.7688 29.086C20.5736 17.542 24.3807 13.6518 24.3807 13.6518C24.4367 13.5946 24.4987 13.5434 24.5655 13.4992C24.641 13.4445 24.7281 13.4079 24.8199 13.392C24.9118 13.3762 25.0061 13.3816 25.0956 13.4078C25.1851 13.4341 25.2674 13.4804 25.3362 13.5433C25.4049 13.6063 25.4584 13.6841 25.4924 13.7708C25.5198 13.8611 25.5362 13.9544 25.5413 14.0486C25.8696 17.6763 25.7093 23.8512 25.5062 28.6678C25.3336 32.7565 25.1244 35.966 25.1244 35.966C25.1244 35.9973 25.1306 36.0282 25.1425 36.0571C25.1545 36.086 25.1721 36.1123 25.1942 36.1344C25.2163 36.1565 25.2426 36.174 25.2715 36.186C25.3004 36.1979 25.3313 36.2041 25.3626 36.2041V36.2041C26.4438 36.2224 27.5006 36.2438 28.6367 36.2713H28.6505C28.8691 36.2715 29.0818 36.1996 29.2552 36.0665C29.4287 35.9335 29.5532 35.7468 29.6095 35.5356C30.2921 32.5932 30.8312 21.2476 30.8602 20.7394C30.8825 20.5436 30.9629 20.3591 31.0911 20.2095C31.2193 20.0599 31.3894 19.9521 31.5795 19.9L34.4535 19.349C34.5941 19.313 34.7251 19.2464 34.8371 19.1541C34.9491 19.0619 35.0394 18.9461 35.1016 18.815C35.1639 18.6839 35.1965 18.5407 35.1972 18.3957C35.1978 18.2506 35.1666 18.1071 35.1055 17.9755L35.1117 17.9678Z" fill="#242E30"/>
<path d="M46.3648 13.9893H43.9581C43.1763 13.9893 43.1763 13.9893 43.0144 14.905C42.8525 15.8207 42.851 15.8481 43.5672 15.8481H44.9996L44.1857 20.4999C43.9902 21.5408 43.5351 22.2566 42.1348 22.6793C41.7774 22.777 41.6766 22.9082 41.6766 23.07C41.6766 23.2654 41.7408 23.4287 41.9042 23.8194C42.1317 24.3718 42.2615 24.4695 42.457 24.4695C42.6886 24.4479 42.9177 24.4045 43.1411 24.3398C45.1264 23.6881 45.9403 22.1589 46.2656 20.3382L47.1819 15.1003C47.3453 13.9938 47.3452 13.9938 46.3679 13.9938" fill="#242E30"/>
<path d="M54.538 13.9893C53.5606 13.9893 53.5606 13.9893 53.4308 14.8027L52.7146 19.0317C52.5191 20.2679 52.1939 20.9837 50.989 20.9837C49.8177 20.9837 49.3947 20.2679 49.5901 19.1615L50.2728 15.1278C50.4682 13.9893 50.4362 13.9893 49.4267 13.9893C48.4509 13.9893 48.4173 13.9893 48.2875 14.7707L47.5713 18.9997C47.1483 21.4065 48.6403 22.9037 50.7614 22.9037C53.1376 22.9037 54.3425 21.8353 54.7319 19.2927L55.4481 15.0957C55.61 13.9893 55.5459 13.9893 54.5319 13.9893" fill="#242E30"/>
<path d="M58.9971 20.918C59.779 20.886 60.202 20.5289 60.202 20.1702C60.202 19.7124 59.6476 19.5521 58.8994 19.3247C57.4349 18.8669 56.1002 18.348 56.1002 16.7867C56.1002 14.9324 57.6273 13.9236 59.5499 13.9236C60.3639 13.9236 61.2755 13.9572 61.8619 14.0213C62.3827 14.0869 62.5125 14.2502 62.3506 15.0621C62.1887 15.874 61.9918 15.9412 61.5367 15.9091C60.9823 15.8756 60.2661 15.8115 59.4201 15.8115C58.4443 15.8115 58.1511 16.1686 58.1511 16.4937C58.1511 16.9164 58.542 17.1453 59.4537 17.4094C61.1457 17.8977 62.2529 18.5815 62.2529 20.0451C62.2529 21.7697 60.9823 22.7769 58.9314 22.8426C57.9521 22.8762 56.9717 22.8205 56.0024 22.6762C55.3519 22.5785 55.3183 22.5785 55.4817 21.6354C55.6451 20.7898 55.6451 20.7196 56.2636 20.7899C57.1699 20.9055 58.0839 20.9489 58.9971 20.9196" fill="#242E30"/>
<path d="M69.6425 13.9893H64.1449C63.363 13.9893 63.363 13.9893 63.2012 14.9324C63.0393 15.8756 63.0713 15.8756 63.754 15.8756H65.5453L64.5374 21.6995C64.3419 22.838 64.374 22.838 65.3834 22.838C66.3271 22.838 66.3607 22.838 66.4905 22.0246L67.532 15.8756H69.2576C70.038 15.8756 70.038 15.8756 70.2014 14.9324C70.3648 13.9893 70.3648 13.9893 69.6486 13.9893" fill="#242E30"/>
<path d="M79.3504 15.8434C80.1307 15.8434 80.1307 15.8434 80.2941 14.9002C80.4575 13.957 80.4575 13.957 79.7413 13.957H75.8014C74.4025 13.957 74.427 13.957 74.2071 15.355L73.1976 21.2445C72.9365 22.7707 72.9701 22.7707 74.3689 22.7707H78.2111C79.0251 22.7707 78.9915 22.7707 79.1549 21.855C79.3183 20.9103 79.3183 20.9103 78.6021 20.9103H75.273L75.5326 19.2269H78.2997C79.048 19.2269 79.048 19.2269 79.1778 18.3478C79.3091 17.4321 79.3091 17.4321 78.2997 17.4321H75.8563L76.1175 15.8373L79.3504 15.8434Z" fill="#242E30"/>
<path d="M83.5086 18.9659L84.7791 16.1685C84.8769 15.9411 84.8769 15.9411 85.0387 15.9411C85.2006 15.9411 85.2022 15.9411 85.2342 16.2005L85.6252 18.9659H83.5086ZM86.9598 15.062C86.7644 13.957 86.7644 13.957 85.2021 13.957C83.7377 13.957 83.7697 13.957 83.3131 14.8727L80.0253 21.7405C79.5381 22.7173 79.6359 22.8088 80.8392 22.8088C81.7845 22.8088 81.7845 22.8089 82.1739 21.9298L82.6947 20.7592H85.8848L86.0482 21.9298C86.178 22.8089 86.2116 22.8088 87.1553 22.8088C88.2243 22.8088 88.3266 22.7432 88.1311 21.6703L86.9598 15.062Z" fill="#242E30"/>
<path d="M94.739 13.9893H89.2062C88.4244 13.9893 88.4244 13.9893 88.2625 14.9324C88.1006 15.8756 88.1312 15.8756 88.8153 15.8756H90.6051L89.5957 21.6995C89.4017 22.838 89.4338 22.838 90.4432 22.838C91.387 22.838 91.419 22.838 91.5488 22.0246L92.5918 15.8756H94.3159C95.0978 15.8756 95.0978 15.8756 95.2612 14.9324C95.4552 13.9893 95.4552 13.9893 94.739 13.9893" fill="#242E30"/>
<path d="M48.6892 28.7809V27.5905C48.684 27.5202 48.6531 27.4543 48.6024 27.4054C48.5517 27.3564 48.4847 27.3278 48.4143 27.325H41.9577C41.8851 27.3272 41.8161 27.3571 41.7648 27.4084C41.7134 27.4597 41.6836 27.5287 41.6813 27.6012V28.7718C41.6838 28.8438 41.7133 28.9123 41.7639 28.9637C41.8145 29.0152 41.8826 29.0458 41.9546 29.0495H44.0743C44.1106 29.0523 44.1447 29.068 44.1705 29.0938C44.1962 29.1195 44.2119 29.1536 44.2147 29.1899V35.8914C44.215 35.9642 44.2432 36.0342 44.2934 36.087C44.3437 36.1398 44.4122 36.1713 44.485 36.1752H45.8961C45.9672 36.1722 46.0344 36.1423 46.0843 36.0916C46.1342 36.0409 46.163 35.9731 46.1649 35.9021V29.1579C46.1738 29.1282 46.1916 29.1019 46.2159 29.0825C46.2402 29.0631 46.2698 29.0516 46.3008 29.0495H48.4219C48.4909 29.0438 48.5555 29.0136 48.6039 28.9643C48.6524 28.915 48.6816 28.8499 48.6861 28.7809" fill="#242E30"/>
<path d="M52.2839 30.4003C52.0612 30.1233 51.7671 29.9123 51.4333 29.7898C50.9972 29.6386 50.5371 29.5688 50.0757 29.5838C49.5813 29.5823 49.0902 29.6649 48.6234 29.828C48.2551 29.9546 47.9107 30.1424 47.6049 30.3835C47.5556 30.4382 47.5292 30.5097 47.5312 30.5833C47.5332 30.6568 47.5634 30.7268 47.6155 30.7788V30.7788L48.1974 31.3755C48.2238 31.4021 48.2552 31.4232 48.2898 31.4376C48.3244 31.452 48.3615 31.4594 48.399 31.4594C48.4364 31.4594 48.4735 31.452 48.5081 31.4376C48.5427 31.4232 48.5741 31.4021 48.6005 31.3755V31.3755C48.7441 31.2482 48.9031 31.1395 49.0739 31.052C49.3361 30.9213 49.6255 30.8549 49.9184 30.8581C50.2264 30.8531 50.5262 30.9575 50.7644 31.1527C50.9843 31.3358 51.1035 31.6624 51.1203 32.1859C51.1135 32.2191 51.0959 32.2492 51.0702 32.2713C51.0445 32.2934 51.0121 32.3063 50.9782 32.308C50.7583 32.308 50.5201 32.308 50.2758 32.3217C49.9692 32.3291 49.6632 32.3541 49.3595 32.3965C49.0615 32.4361 48.7672 32.5004 48.4799 32.5888C48.2069 32.6694 47.9489 32.7942 47.7163 32.9582C47.4967 33.1147 47.3164 33.32 47.1895 33.5579C47.0539 33.8339 46.9878 34.1389 46.9971 34.4462C46.9899 34.727 47.0502 35.0054 47.1727 35.2581C47.2838 35.4873 47.4457 35.6883 47.6461 35.8457C47.8533 36.008 48.0897 36.1292 48.3424 36.2028C48.6059 36.2821 48.8797 36.3222 49.1549 36.3219C49.5302 36.3234 49.9022 36.2513 50.2498 36.1097C50.5185 36.0001 50.7556 35.8254 50.9401 35.6015H50.9599C50.9788 35.5923 51.0001 35.5891 51.0208 35.5923C51.0416 35.5956 51.0608 35.6052 51.076 35.6198C51.0856 35.6288 51.0933 35.6397 51.0985 35.6517C51.1038 35.6638 51.1065 35.6768 51.1065 35.69V35.9098C51.1095 35.9812 51.1389 36.0489 51.1892 36.0997C51.2395 36.1505 51.3069 36.1808 51.3783 36.1845H52.5603C52.6326 36.1818 52.7011 36.1514 52.7516 36.0998C52.8022 36.0481 52.831 35.979 52.8321 35.9067V33.1031C52.837 32.5319 52.7951 31.9613 52.7069 31.3969C52.6369 31.0424 52.4853 30.709 52.2641 30.4232L52.2839 30.4003ZM51.1157 33.912C51.1201 34.0864 51.079 34.2589 50.9966 34.4126C50.9169 34.5529 50.8055 34.6726 50.6713 34.7621C50.531 34.857 50.3763 34.9286 50.2132 34.9742C50.0405 35.0248 49.8616 35.0504 49.6817 35.0505C49.4702 35.0503 49.2626 34.994 49.08 34.8873C48.9894 34.8403 48.9141 34.7683 48.8632 34.6798C48.8123 34.5913 48.7879 34.4901 48.7929 34.3882C48.7886 34.2964 48.805 34.2048 48.8409 34.1203C48.8769 34.0357 48.9315 33.9604 49.0006 33.8998C49.1471 33.7787 49.3172 33.6894 49.5 33.6373C49.699 33.5796 49.9039 33.5442 50.1108 33.532C50.3277 33.5183 50.5048 33.5122 50.6423 33.5122H50.9675C51.003 33.5164 51.0359 33.5329 51.0604 33.5588C51.085 33.5848 51.0997 33.6185 51.1019 33.6541L51.1157 33.912Z" fill="#242E30"/>
<path d="M70.9665 30.4003C70.7448 30.1229 70.4511 29.9118 70.1174 29.7898C69.6814 29.6386 69.2212 29.5688 68.7598 29.5838C68.2649 29.5822 67.7733 29.6648 67.306 29.828C66.9379 29.954 66.5939 30.1419 66.289 30.3835C66.2392 30.4378 66.2123 30.5093 66.214 30.583C66.2157 30.6567 66.2459 30.7268 66.2982 30.7788V30.7788L66.883 31.377C66.9096 31.4039 66.9412 31.4252 66.9761 31.4398C67.0109 31.4543 67.0484 31.4618 67.0861 31.4618C67.1239 31.4618 67.1613 31.4543 67.1962 31.4398C67.2311 31.4252 67.2627 31.4039 67.2892 31.377C67.4328 31.2497 67.5918 31.141 67.7626 31.0535C68.0258 30.9227 68.3163 30.8562 68.6102 30.8597C68.9174 30.8541 69.2164 30.9585 69.4531 31.1542C69.673 31.3374 69.7922 31.664 69.809 32.1874C69.8038 32.2214 69.7867 32.2524 69.7606 32.2748C69.7346 32.2972 69.7013 32.3096 69.6669 32.3095V32.3095C69.4486 32.3095 69.2088 32.3095 68.966 32.3233C68.6594 32.3305 68.3535 32.3555 68.0497 32.3981C67.7507 32.4376 67.4555 32.5019 67.1671 32.5904C66.8942 32.6713 66.6363 32.796 66.4035 32.9597C66.1848 33.1164 66.0055 33.3217 65.8797 33.5595C65.7425 33.835 65.6753 34.1401 65.6843 34.4477C65.6779 34.7284 65.7381 35.0066 65.8599 35.2596C65.9723 35.4885 66.1346 35.6892 66.3348 35.8472C66.5415 36.0095 66.7773 36.1307 67.0296 36.2043C67.6596 36.3907 68.3342 36.3579 68.9431 36.1112C69.212 36.002 69.4492 35.8273 69.6333 35.603H69.6517C69.6711 35.5942 69.6928 35.5912 69.714 35.5944C69.7351 35.5977 69.7549 35.607 69.7708 35.6213C69.7878 35.641 69.7979 35.6656 69.7998 35.6915V35.9113C69.802 35.9827 69.8311 36.0506 69.8812 36.1015C69.9313 36.1524 69.9987 36.1826 70.0701 36.186H71.2566C71.3288 36.1829 71.3971 36.1525 71.4476 36.1009C71.498 36.0493 71.527 35.9804 71.5285 35.9083V33.1032C71.5331 32.532 71.4917 31.9614 71.4048 31.3969C71.333 31.0424 71.1804 30.7092 70.9589 30.4232L70.9665 30.4003ZM69.8044 33.912C69.8102 34.08 69.7723 34.2467 69.6944 34.3956C69.6165 34.5446 69.5013 34.6709 69.36 34.7621C69.2198 34.8572 69.0651 34.9289 68.9019 34.9742C68.7299 35.0255 68.5514 35.0512 68.372 35.0506C68.1604 35.0507 67.9527 34.9943 67.7703 34.8873C67.6796 34.8403 67.6044 34.7683 67.5535 34.6798C67.5026 34.5913 67.4782 34.4901 67.4832 34.3882C67.4779 34.2965 67.4938 34.2047 67.5295 34.1201C67.5652 34.0354 67.6199 33.9601 67.6893 33.8998C67.8358 33.7787 68.0059 33.6894 68.1887 33.6373C68.3878 33.5797 68.5926 33.5443 68.7995 33.532C69.0149 33.5183 69.192 33.5122 69.3294 33.5122H69.6547C69.6905 33.516 69.7237 33.5324 69.7486 33.5584C69.7734 33.5843 69.7883 33.6182 69.7906 33.6541L69.8044 33.912Z" fill="#242E30"/>
<path d="M87.0913 30.4003C86.8679 30.1233 86.5733 29.9123 86.2391 29.7898C85.8036 29.6385 85.3439 29.5687 84.8831 29.5838C84.3891 29.5823 83.8985 29.6649 83.4323 29.828C83.0631 29.9536 82.718 30.1415 82.4122 30.3835C82.3631 30.4382 82.3367 30.5095 82.3384 30.583C82.3401 30.6564 82.3698 30.7265 82.4214 30.7788V30.7788L83.0063 31.3771C83.0328 31.4039 83.0644 31.4252 83.0993 31.4398C83.1342 31.4544 83.1716 31.4618 83.2094 31.4618C83.2471 31.4618 83.2846 31.4544 83.3194 31.4398C83.3543 31.4252 83.3859 31.4039 83.4125 31.3771C83.5573 31.25 83.7174 31.1414 83.8889 31.0535C84.151 30.9227 84.4405 30.8563 84.7334 30.8597C85.0405 30.8548 85.3393 30.9592 85.5764 31.1542C85.7978 31.3374 85.9154 31.664 85.9322 32.1875C85.9271 32.2214 85.9099 32.2525 85.8839 32.2749C85.8578 32.2973 85.8245 32.3096 85.7902 32.3096V32.3096C85.5718 32.3096 85.332 32.3096 85.0892 32.3233C84.7826 32.3306 84.4767 32.3556 84.173 32.3981C83.8745 32.4378 83.5797 32.5021 83.2918 32.5904C83.0188 32.671 82.7609 32.7957 82.5283 32.9597C82.3087 33.1159 82.1288 33.3214 82.003 33.5595C81.8654 33.8349 81.7988 34.1402 81.809 34.4477C81.8026 34.7284 81.8628 35.0067 81.9846 35.2597C82.0957 35.4894 82.2582 35.6904 82.4596 35.8472C82.6653 36.0091 82.9001 36.1304 83.1513 36.2044C83.7824 36.3902 84.4578 36.3574 85.0678 36.1113C85.337 36.0025 85.5744 35.8278 85.7581 35.6031H85.7764C85.7953 35.5938 85.8166 35.5906 85.8373 35.5939C85.8581 35.5972 85.8774 35.6068 85.8925 35.6214C85.9107 35.6403 85.9211 35.6654 85.9215 35.6916V35.9113C85.9248 35.9829 85.9546 36.0506 86.0052 36.1014C86.0557 36.1522 86.1233 36.1823 86.1948 36.1861H87.3753C87.4479 36.1834 87.5167 36.1531 87.5677 36.1015C87.6188 36.0499 87.6483 35.9808 87.6502 35.9083V33.1032C87.6545 32.5319 87.6122 31.9613 87.5234 31.3969C87.4534 31.0424 87.3018 30.709 87.0806 30.4232L87.0913 30.4003ZM85.923 33.9121C85.9285 34.0862 85.8885 34.2587 85.807 34.4126C85.7273 34.5529 85.6159 34.6726 85.4817 34.7621C85.3409 34.8561 85.1863 34.9277 85.0236 34.9743C84.8511 35.0255 84.672 35.0512 84.4921 35.0506C84.2811 35.0505 84.0739 34.9941 83.892 34.8873C83.8011 34.8404 83.7257 34.7685 83.6745 34.68C83.6234 34.5915 83.5987 34.4903 83.6034 34.3882C83.5988 34.2966 83.6149 34.2051 83.6506 34.1205C83.6863 34.036 83.7406 33.9605 83.8095 33.8998C83.9566 33.7788 84.1271 33.6894 84.3104 33.6373C84.5095 33.5797 84.7143 33.5444 84.9212 33.532C85.1534 33.5122 85.3259 33.5122 85.4588 33.5122H85.7841C85.82 33.5149 85.8536 33.531 85.8782 33.5573C85.9028 33.5835 85.9166 33.6181 85.9169 33.6541L85.923 33.9121Z" fill="#242E30"/>
<path d="M64.8246 30.4598C64.5776 30.1786 64.2701 29.9568 63.9251 29.8112C63.5499 29.6588 63.1481 29.5826 62.7432 29.5868C62.2931 29.584 61.8461 29.6599 61.4222 29.8112C61.0268 29.9552 60.6635 30.1756 60.3532 30.4598C60.0466 30.7424 59.8017 31.0854 59.634 31.4671C59.2828 32.4317 59.2828 33.4892 59.634 34.4538C59.8012 34.8354 60.0461 35.1779 60.3532 35.4596C60.6624 35.7453 61.026 35.9658 61.4222 36.1082C61.8458 36.2607 62.293 36.3372 62.7432 36.3341C63.2356 36.3341 63.7223 36.2273 64.1695 36.0212C64.5196 35.8659 64.8368 35.6452 65.1041 35.371C65.152 35.3185 65.1786 35.2499 65.1786 35.1788C65.1786 35.1076 65.152 35.039 65.1041 34.9865L64.2519 34.3622L64.1909 34.318C64.1368 34.2868 64.0739 34.2743 64.012 34.2826C63.9501 34.2909 63.8927 34.3194 63.8488 34.3638C63.7285 34.4953 63.5926 34.6116 63.4441 34.7102C63.2088 34.8525 62.9372 34.9236 62.6622 34.9147C62.3236 34.9236 61.9934 34.8085 61.7337 34.5912C61.4498 34.3 61.2802 33.9165 61.2558 33.5106C61.2554 33.4776 61.2669 33.4456 61.2882 33.4204C61.3095 33.3951 61.3392 33.3784 61.3718 33.3733H65.3316C65.406 33.3705 65.4764 33.3388 65.5277 33.2849C65.5791 33.231 65.6073 33.1592 65.6065 33.0848V32.7796C65.6141 32.3341 65.547 31.8904 65.408 31.4671C65.2861 31.0969 65.092 30.7545 64.8368 30.4598H64.8246ZM63.5846 32.0837H61.3978C61.3618 32.083 61.3273 32.0688 61.3013 32.0439C61.2753 32.019 61.2596 31.9853 61.2573 31.9494C61.2734 31.844 61.3037 31.7413 61.3474 31.6441C61.4099 31.5073 61.4998 31.3847 61.6116 31.2839C61.7295 31.1732 61.8673 31.0857 62.0178 31.026C62.1923 30.9557 62.3794 30.9219 62.5675 30.9268C62.7229 30.921 62.8778 30.948 63.022 31.0061C63.1662 31.0643 63.2965 31.1522 63.4044 31.2641C63.5833 31.4467 63.6915 31.6868 63.7098 31.9417C63.7056 31.9772 63.6891 32.01 63.6631 32.0346C63.6372 32.0591 63.6035 32.0738 63.5678 32.076" fill="#242E30"/>
<path d="M57.6258 33.0543L57.583 32.9963C57.5568 32.9522 57.543 32.9018 57.543 32.8505C57.543 32.7992 57.5568 32.7489 57.583 32.7048L59.7714 29.9775C59.7949 29.9493 59.8068 29.9132 59.8045 29.8766C59.8022 29.84 59.786 29.8057 59.7592 29.7806C59.7325 29.7599 59.6998 29.7487 59.666 29.7486H57.9419C57.8534 29.7479 57.7659 29.7679 57.6864 29.8068C57.6069 29.8457 57.5375 29.9026 57.4838 29.9729V29.9729L57.3891 30.092L55.7093 32.2561L55.6864 32.282L55.6803 32.2912H55.6696C55.6503 32.3001 55.6287 32.303 55.6077 32.2995C55.5867 32.2959 55.5673 32.2861 55.552 32.2713C55.5382 32.2569 55.5286 32.239 55.5245 32.2195V26.9923C55.521 26.9228 55.4922 26.857 55.4435 26.8073C55.3949 26.7576 55.3297 26.7273 55.2603 26.7222H53.9134C53.8433 26.728 53.7778 26.7591 53.7289 26.8096C53.68 26.8601 53.6512 26.9267 53.6477 26.9969V35.9021C53.651 35.9732 53.6807 36.0406 53.7309 36.0911C53.7812 36.1416 53.8484 36.1716 53.9195 36.1753H55.2527C55.3233 36.1724 55.3903 36.1432 55.4406 36.0935C55.4908 36.0439 55.5208 35.9772 55.5245 35.9067V33.3855C55.529 33.3661 55.5385 33.3482 55.552 33.3336C55.5673 33.3188 55.5867 33.309 55.6077 33.3054C55.6287 33.3019 55.6503 33.3048 55.6696 33.3137H55.6803C55.6862 33.3167 55.6911 33.3215 55.694 33.3275L55.7276 33.3671L57.3601 35.8304L57.4548 35.951C57.5076 36.0196 57.5753 36.0753 57.6528 36.1139C57.7303 36.1525 57.8156 36.173 57.9022 36.1738H59.7225C59.7426 36.1709 59.7613 36.1618 59.776 36.1478C59.7982 36.1277 59.8134 36.1009 59.8192 36.0715C59.825 36.0421 59.8211 36.0116 59.808 35.9845L57.6258 33.0543Z" fill="#242E30"/>
<path d="M81.9128 30.1912C81.9353 30.1306 81.9467 30.0665 81.9464 30.0019V29.9684C81.9334 29.9065 81.9003 29.8507 81.8522 29.8096C81.8042 29.7684 81.7439 29.7443 81.6807 29.741H80.6117C80.4799 29.7411 80.3521 29.7868 80.2499 29.8702C80.1478 29.9536 80.0777 30.0697 80.0513 30.1988V30.1988L80.0177 30.327L79.1137 33.6373C79.0912 33.6624 79.0601 33.6782 79.0266 33.6816C79.0056 33.6795 78.9854 33.6723 78.9678 33.6606C78.9502 33.6489 78.9358 33.633 78.9258 33.6144L78.9105 33.5625L78.0095 30.2156L77.9943 30.1561C77.9569 30.0404 77.884 29.9394 77.7858 29.8676C77.6876 29.7958 77.5692 29.7568 77.4476 29.7562H76.2839C76.1539 29.7563 76.0277 29.8004 75.9259 29.8814C75.8242 29.9623 75.7528 30.0752 75.7235 30.2019V30.2019V30.2324L75.699 30.3331L74.8775 33.6327C74.8702 33.6455 74.8604 33.6567 74.8488 33.6657C74.8371 33.6746 74.8237 33.6811 74.8095 33.6848C74.7953 33.6885 74.7804 33.6893 74.7659 33.6872C74.7513 33.6851 74.7373 33.68 74.7247 33.6724C74.7086 33.6619 74.6946 33.6484 74.6835 33.6327L73.7092 30.3301L73.6619 30.1775C73.6634 30.1678 73.6634 30.1581 73.6619 30.1485V30.1485C73.6229 30.0352 73.5496 29.9369 73.4522 29.8672C73.3548 29.7974 73.2381 29.7597 73.1182 29.7593H71.9393C71.8762 29.7629 71.816 29.7871 71.768 29.8282C71.72 29.8692 71.6869 29.9249 71.6736 29.9867V29.9867V30.0233C71.6744 30.0872 71.6852 30.1505 71.7057 30.211L73.6497 35.8014C73.6561 35.8231 73.6648 35.8441 73.6756 35.864C73.7178 35.9547 73.7832 36.0325 73.8653 36.0897C73.9474 36.1468 74.0432 36.1811 74.1429 36.1891H75.2806C75.3955 36.18 75.505 36.1368 75.5951 36.065C75.6852 35.9932 75.7517 35.8961 75.7861 35.7862V35.7862L75.8319 35.6229L76.7283 32.4179C76.7386 32.4042 76.7517 32.3929 76.7667 32.3848C76.7817 32.3766 76.7983 32.3718 76.8154 32.3706C76.8329 32.3722 76.8499 32.3773 76.8654 32.3857C76.8809 32.3941 76.8945 32.4056 76.9055 32.4194L77.9301 35.6931C77.9488 35.7553 77.9722 35.8161 78.0004 35.8747C78.0425 35.9654 78.108 36.0432 78.1901 36.1003C78.2722 36.1575 78.368 36.1918 78.4677 36.1998H79.5764C79.6745 36.1905 79.7686 36.1556 79.849 36.0985C79.9294 36.0415 79.9934 35.9643 80.0345 35.8747V35.8747C80.0467 35.8503 80.0864 35.7419 80.1108 35.6686L81.9296 30.2522C81.9301 30.2403 81.9338 30.2287 81.9403 30.2187" fill="#242E30"/>
<path d="M94.2869 29.9638C94.2869 29.947 94.2762 29.9317 94.2716 29.915C94.25 29.8667 94.2157 29.8252 94.1724 29.7949C94.1292 29.7645 94.0785 29.7464 94.0257 29.7425H92.8896C92.7831 29.7463 92.6797 29.7795 92.591 29.8385C92.5023 29.8975 92.4317 29.98 92.3872 30.0767V30.0767C92.3872 30.0935 92.3734 30.1118 92.3673 30.1286V30.1576C92.3673 30.1729 92.3581 30.1897 92.3536 30.2049L92.32 30.3133L91.2846 33.6983L91.2708 33.738C91.2634 33.768 91.2458 33.7944 91.221 33.8128C91.1962 33.8312 91.1658 33.8404 91.1349 33.8388C91.1065 33.8396 91.0786 33.8317 91.0548 33.8161C91.0311 33.8005 91.0127 33.7781 91.0021 33.7518L89.7636 30.3072L89.7483 30.2644L89.6659 30.0325C89.618 29.9444 89.5478 29.8705 89.4623 29.8183C89.3768 29.766 89.2789 29.7372 89.1787 29.7349H87.8929C87.848 29.7437 87.8058 29.7629 87.7697 29.791C87.7337 29.8191 87.7047 29.8553 87.6852 29.8966C87.6792 29.9114 87.6746 29.9268 87.6715 29.9424C87.6615 29.9932 87.6647 30.0458 87.6806 30.095L90.124 36.0563C90.1606 36.1812 90.153 36.3148 90.1026 36.4348V36.4531L90.0583 36.5645C89.9927 36.7278 89.93 36.8774 89.8705 37.0025C89.8188 37.1222 89.747 37.2321 89.6582 37.3276C89.564 37.4188 89.4501 37.4872 89.3253 37.5275C89.1591 37.5781 88.9859 37.6018 88.8122 37.5977H87.9998C87.927 37.6 87.8577 37.6301 87.8064 37.6817C87.755 37.7334 87.7253 37.8027 87.7234 37.8755V38.895C87.7253 38.968 87.7552 39.0376 87.8069 39.0893C87.8586 39.1409 87.9282 39.1708 88.0013 39.1727H89.0871C89.4545 39.1834 89.8215 39.1392 90.1759 39.0415C90.43 38.9651 90.6634 38.832 90.8585 38.6523C91.0438 38.472 91.194 38.2587 91.3014 38.0235C91.4185 37.7722 91.5396 37.4843 91.6648 37.1597L94.2869 30.0752C94.2945 30.0385 94.2945 30.0005 94.2869 29.9638" fill="#242E30"/>
<path d="M94.0289 34.8719C93.9372 34.869 93.8461 34.8861 93.7617 34.9219C93.6773 34.9578 93.6017 35.0115 93.5402 35.0795C93.4192 35.21 93.3536 35.3824 93.3573 35.5604C93.361 35.7383 93.4337 35.9078 93.56 36.0333C93.6863 36.1587 93.8564 36.2303 94.0345 36.2329C94.2125 36.2354 94.3846 36.1688 94.5145 36.0471C94.5203 36.0428 94.5255 36.0376 94.5298 36.0318C94.6533 35.904 94.7223 35.7333 94.7223 35.5556C94.7223 35.378 94.6533 35.2072 94.5298 35.0795C94.4685 35.0116 94.3932 34.9578 94.3091 34.922C94.225 34.8861 94.134 34.869 94.0426 34.8719" fill="#242E30"/>
<path d="M105.71 30.4598C105.422 30.1814 105.081 29.9639 104.708 29.8203C103.892 29.5182 102.995 29.5182 102.179 29.8203C101.809 29.9639 101.471 30.1815 101.188 30.4598C100.909 30.7386 100.687 31.0701 100.537 31.435C100.375 31.8135 100.298 32.5629 100.298 33.0269C100.291 33.5175 100.372 34.0054 100.537 34.4676C100.687 34.8376 100.911 35.1728 101.196 35.4523C101.481 35.7317 101.821 35.9493 102.194 36.0914C103.011 36.3937 103.908 36.3937 104.725 36.0914C105.097 35.952 105.436 35.7365 105.72 35.4587C106.004 35.181 106.226 34.847 106.374 34.4782C106.538 34.0164 106.62 33.5292 106.615 33.0391C106.615 32.5736 106.534 31.8181 106.374 31.4457C106.224 31.0816 106.003 30.7507 105.725 30.472L105.71 30.4598ZM105.404 34.0708C105.313 34.3299 105.169 34.5673 104.981 34.7682C104.793 34.9663 104.567 35.1251 104.317 35.2352C103.761 35.4611 103.139 35.4611 102.584 35.2352C102.334 35.1242 102.108 34.9655 101.919 34.7682C101.733 34.5669 101.589 34.3295 101.498 34.0708C101.395 33.7329 101.344 33.3815 101.345 33.0284C101.344 32.6251 101.395 32.2234 101.498 31.8334C101.589 31.5754 101.732 31.3391 101.919 31.1393C102.106 30.9394 102.332 30.7803 102.584 30.672C102.858 30.5579 103.153 30.4992 103.45 30.4992C103.748 30.4992 104.042 30.5579 104.317 30.672C104.567 30.7784 104.793 30.9341 104.981 31.1298C105.169 31.3301 105.313 31.567 105.404 31.8258C105.506 32.2159 105.557 32.6175 105.557 33.0207C105.558 33.3738 105.506 33.7251 105.404 34.0631" fill="#242E30"/>
<path d="M96.3989 31.1512C96.5676 30.9461 96.782 30.7835 97.0251 30.6765C97.3011 30.5618 97.5981 30.5061 97.897 30.5132C98.176 30.5083 98.4527 30.564 98.7079 30.6765C98.8984 30.7682 99.0719 30.8916 99.221 31.0413C99.272 31.0863 99.3372 31.1117 99.4052 31.1131C99.4731 31.1145 99.5394 31.0917 99.5921 31.0489L99.951 30.7254C100.004 30.676 100.037 30.6083 100.043 30.5357C100.048 30.4632 100.026 30.3913 99.98 30.3347C99.7362 30.1129 99.4536 29.938 99.1462 29.8188C98.7483 29.665 98.3252 29.5868 97.8986 29.5884C97.4722 29.5832 97.0491 29.6631 96.654 29.8234C96.2875 29.9709 95.9553 30.1922 95.6781 30.4735C95.4062 30.7567 95.1938 31.0914 95.0536 31.4579C94.7588 32.4348 94.7588 33.4769 95.0536 34.4538C95.1921 34.8211 95.4029 35.1568 95.6736 35.4413C95.9449 35.7253 96.2747 35.9471 96.6402 36.0914C97.4387 36.3966 98.3218 36.3966 99.1202 36.0914C99.4276 35.9711 99.7083 35.7917 99.9464 35.5633C99.9912 35.5094 100.015 35.4408 100.012 35.3707C100.01 35.3006 99.9813 35.2339 99.9327 35.1833L99.6272 34.8857C99.5743 34.8372 99.5051 34.8104 99.4333 34.8104C99.3615 34.8104 99.2923 34.8372 99.2394 34.8857C99.0666 35.0628 98.8585 35.2016 98.6285 35.2931C98.3986 35.3846 98.152 35.4268 97.9047 35.4168C97.6212 35.42 97.3403 35.3617 97.0816 35.2459C96.8418 35.1342 96.6288 34.9723 96.457 34.7713C96.2811 34.5634 96.144 34.3256 96.0523 34.0692C95.9512 33.7096 95.8999 33.3378 95.8996 32.9643C95.8982 32.5917 95.9408 32.2204 96.0263 31.8578C96.1031 31.6011 96.228 31.3613 96.3944 31.1512" fill="#242E30"/>
<path d="M116.013 31.0489C115.947 30.7633 115.818 30.4962 115.634 30.2675C115.448 30.0481 115.208 29.88 114.938 29.7791C114.596 29.6546 114.233 29.5966 113.869 29.6082C113.477 29.5915 113.089 29.6948 112.757 29.9043C112.513 30.0767 112.301 30.2899 112.13 30.5346V30.5346L112.101 30.5773L112.085 30.5987C112.076 30.6088 112.065 30.6169 112.052 30.6224C112.039 30.6279 112.026 30.6307 112.012 30.6307C111.993 30.6308 111.975 30.6257 111.959 30.616C111.943 30.6063 111.93 30.5924 111.922 30.5758C111.922 30.5636 111.904 30.5468 111.896 30.5285L111.806 30.3758C111.717 30.2347 111.604 30.1106 111.471 30.0096C111.308 29.8857 111.127 29.7874 110.934 29.7181C110.451 29.5666 109.935 29.5581 109.448 29.6936C109.247 29.7515 109.056 29.8368 108.878 29.947C108.717 30.0454 108.57 30.1662 108.442 30.3056C108.4 30.353 108.362 30.4003 108.327 30.4491L108.315 30.4613C108.312 30.469 108.307 30.4759 108.301 30.4812V30.4812C108.292 30.4909 108.28 30.4986 108.268 30.5038C108.255 30.5091 108.241 30.5117 108.228 30.5117C108.204 30.5118 108.182 30.5038 108.164 30.489C108.146 30.4743 108.133 30.4537 108.129 30.4308V30.0202C108.126 29.948 108.096 29.8794 108.045 29.8284C107.993 29.7774 107.924 29.7478 107.852 29.7455H107.496C107.423 29.7483 107.353 29.7791 107.302 29.8317C107.251 29.8843 107.222 29.9545 107.221 30.0279V35.893C107.223 35.9664 107.253 36.0365 107.304 36.0888C107.356 36.141 107.426 36.1715 107.499 36.1738H107.927C108.002 36.171 108.072 36.1397 108.124 36.0863C108.176 36.0328 108.206 35.9614 108.206 35.8869V32.7857C108.204 32.4742 108.24 32.1635 108.313 31.8608C108.376 31.6029 108.486 31.3591 108.639 31.142C108.785 30.9407 108.981 30.78 109.207 30.675C109.468 30.5601 109.752 30.5043 110.037 30.5117C110.442 30.5117 110.734 30.649 110.909 30.9222C111.085 31.1954 111.175 31.6624 111.175 32.3187V35.8914C111.176 35.9657 111.205 36.0368 111.258 36.0897C111.31 36.1427 111.38 36.1733 111.455 36.1753H111.882C111.957 36.1729 112.028 36.1417 112.08 36.0882C112.132 36.0347 112.161 35.9631 112.162 35.8884V32.2576C112.159 32.0147 112.2 31.7733 112.282 31.5449C112.354 31.3418 112.464 31.1546 112.608 30.9939C112.744 30.8441 112.91 30.7236 113.095 30.6399C113.281 30.5554 113.484 30.5122 113.689 30.5132C113.933 30.5043 114.175 30.5524 114.397 30.6536C114.572 30.7374 114.724 30.8626 114.84 31.0184C114.95 31.1749 115.028 31.3518 115.069 31.5388C115.109 31.7336 115.13 31.932 115.13 32.1309V35.8975C115.132 35.971 115.162 36.0409 115.214 36.0929C115.266 36.1449 115.336 36.1749 115.41 36.1768H115.848C115.923 36.1748 115.994 36.1437 116.046 36.0901C116.098 36.0366 116.128 35.9647 116.128 35.8899V32.0745C116.132 31.7273 116.094 31.3808 116.015 31.0428" fill="#242E30"/>
</svg>
