<svg width="54" height="44" viewBox="0 0 54 44" fill="none" xmlns="http://www.w3.org/2000/svg">
<path d="M39.9425 13.1047C39.8601 12.8899 38.7188 10.7828 36.6013 8.13932C36.5475 8.07537 36.5136 7.99708 36.5038 7.9141C36.3756 6.3753 36.1624 4.84477 35.8652 3.32951C35.8315 3.17736 35.751 3.03958 35.6351 2.93548C35.5191 2.83138 35.3735 2.76619 35.2186 2.74903L33.0186 2.48317C32.9993 2.48202 32.9799 2.48202 32.9605 2.48317C32.8374 2.48317 32.7193 2.5321 32.6322 2.61919C32.5451 2.70628 32.4962 2.82439 32.4962 2.94755V3.71262C32.4962 3.71628 32.4954 3.7199 32.494 3.72328C32.4926 3.72666 32.4906 3.72973 32.488 3.73232C32.4854 3.73491 32.4823 3.73696 32.479 3.73836C32.4756 3.73976 32.472 3.74048 32.4683 3.74048C32.4614 3.74063 32.4548 3.73814 32.4497 3.73352C31.0714 2.48168 29.5833 1.35644 28.0033 0.371407C27.6811 0.154631 27.3014 0.0393816 26.9132 0.0405359C26.5249 0.0393816 26.1452 0.154631 25.823 0.371407C18.2269 5.06164 14.0475 12.6856 13.8838 13.1047C13.8361 13.2048 13.8115 13.3143 13.8118 13.4251C13.8118 13.5926 13.8676 13.7554 13.9704 13.8876C14.0733 14.0199 14.2172 14.1141 14.3795 14.1554L16.5679 14.5768C16.7126 14.6161 16.8421 14.6981 16.9396 14.8119C17.0371 14.9258 17.0981 15.0663 17.1147 15.2153C17.1321 15.6019 17.5466 24.2312 18.0656 26.4707C18.1085 26.6313 18.2032 26.7731 18.3351 26.8743C18.4669 26.9755 18.6284 27.0303 18.7946 27.0303H18.8074C20.0844 26.999 21.2535 26.9769 22.5166 26.9606H22.5248H22.6211C22.6538 26.9611 22.6863 26.955 22.7166 26.9428C22.747 26.9306 22.7746 26.9124 22.7978 26.8894C22.8211 26.8664 22.8395 26.8389 22.852 26.8087C22.8645 26.7785 22.8709 26.7461 22.8707 26.7134V26.7017C22.8185 25.9483 22.7082 24.2254 22.6188 22.4062C22.6188 22.3598 22.6188 22.3029 22.6107 22.2576C22.6068 22.1822 22.5846 22.1088 22.546 22.0438C22.5073 21.9789 22.4534 21.9244 22.3889 21.885C22.058 21.6863 21.7808 21.4097 21.5815 21.0792C21.3821 20.7487 21.2667 20.3745 21.2454 19.9891C21.1293 16.9625 21.0724 13.4646 21.2373 10.7282C21.2397 10.6115 21.2884 10.5006 21.3727 10.4198C21.457 10.3391 21.5699 10.2951 21.6866 10.2975C21.8032 10.3 21.9142 10.3487 21.995 10.433C22.0757 10.5172 22.1197 10.6301 22.1173 10.7468V10.7805C22.0093 12.6055 22.0012 14.7625 22.0383 16.8906C22.0408 17.0291 22.0982 17.161 22.1979 17.2573C22.2473 17.3049 22.3056 17.3424 22.3694 17.3675C22.4333 17.3926 22.5014 17.4049 22.57 17.4037C22.6386 17.4025 22.7063 17.3878 22.7693 17.3604C22.8322 17.333 22.8891 17.2935 22.9367 17.2441C22.9844 17.1947 23.0218 17.1365 23.047 17.0726C23.0721 17.0088 23.0844 16.9406 23.0832 16.872C23.0437 14.73 23.0553 12.5591 23.1656 10.7282C23.1681 10.6115 23.2168 10.5006 23.301 10.4198C23.3853 10.3391 23.4982 10.2951 23.6149 10.2975C23.7316 10.3 23.8425 10.3487 23.9233 10.433C24.0041 10.5172 24.0481 10.6301 24.0456 10.7468C24.0462 10.758 24.0462 10.7693 24.0456 10.7805C23.9388 12.5962 23.9295 14.7393 23.9667 16.8569C23.9688 16.9954 24.0259 17.1275 24.1254 17.2239C24.2249 17.3204 24.3587 17.3734 24.4972 17.3712C24.6358 17.369 24.7678 17.3119 24.8642 17.2124C24.9607 17.1129 25.0137 16.9792 25.0115 16.8406C24.972 14.708 24.9837 12.5451 25.0939 10.7271C25.0964 10.6104 25.1451 10.4994 25.2294 10.4187C25.3136 10.3379 25.4265 10.2939 25.5432 10.2964C25.6599 10.2988 25.7709 10.3475 25.8516 10.4318C25.9324 10.5161 25.9764 10.629 25.9739 10.7457C25.9745 10.7569 25.9745 10.7681 25.9739 10.7793C25.8172 13.4402 25.8683 16.8081 25.9739 19.7628V19.7895C25.9739 19.8045 25.9739 19.8196 25.9739 19.8347V19.8638C25.9743 20.2472 25.8812 20.625 25.7028 20.9644C25.5244 21.3038 25.266 21.5947 24.95 21.8118C24.8931 21.8512 24.8459 21.903 24.8121 21.9634C24.7783 22.0237 24.7588 22.091 24.7549 22.1601C24.7549 22.1601 24.7015 22.6129 24.9012 24.8117C24.9953 25.7718 25.0661 26.4371 25.0997 26.7377C25.1071 26.7939 25.1348 26.8455 25.1776 26.8827C25.2203 26.9199 25.2752 26.9402 25.3319 26.9397H25.5351H26.8435H27.013C27.5842 26.9397 28.1275 26.9397 28.6523 26.9397L29.8933 26.9514C29.9503 26.9518 30.0056 26.9312 30.0484 26.8935C30.0912 26.8558 30.1187 26.8037 30.1255 26.747C30.4134 24.1117 30.4807 22.6326 30.4807 22.6326C30.4797 22.5693 30.4554 22.5087 30.4127 22.462C30.3699 22.4154 30.3115 22.3861 30.2486 22.3795L28.7393 22.1706C28.639 22.1584 28.5445 22.1169 28.4676 22.0512C28.3908 21.9855 28.3351 21.8986 28.3074 21.8014C28.2884 21.7255 28.2821 21.6471 28.2889 21.5692C28.9007 12.7878 31.7949 9.8285 31.7949 9.8285C31.8375 9.78497 31.8846 9.74605 31.9354 9.71241C31.9928 9.67083 32.059 9.64296 32.1289 9.63091C32.1987 9.61887 32.2704 9.62298 32.3384 9.64293C32.4065 9.66287 32.469 9.69813 32.5213 9.746C32.5736 9.79386 32.6142 9.85306 32.6401 9.91906C32.6609 9.98736 32.6733 10.0579 32.6773 10.1292C32.9269 12.8899 32.805 17.5871 32.6506 21.2511C32.5194 24.3601 32.3603 26.8016 32.3603 26.8016V26.8074C32.3603 26.8311 32.365 26.8546 32.3741 26.8765C32.3833 26.8984 32.3966 26.9183 32.4134 26.935C32.4303 26.9518 32.4502 26.965 32.4722 26.974C32.4942 26.983 32.5177 26.9875 32.5414 26.9873C33.3634 27.0013 34.1726 27.0187 35.0305 27.0396H35.0468C35.2111 27.035 35.3695 26.9768 35.4977 26.8739C35.626 26.771 35.7171 26.629 35.7573 26.4696C36.2762 24.2301 36.686 15.6007 36.7081 15.2142C36.7246 15.0651 36.7855 14.9245 36.8831 14.8106C36.9806 14.6967 37.1102 14.6148 37.2549 14.5756L39.4433 14.1542C39.6056 14.1129 39.7496 14.0187 39.8524 13.8864C39.9552 13.7542 40.011 13.5915 40.011 13.424C40.0122 13.3138 39.9888 13.2047 39.9425 13.1047Z" fill="#FF8000"/>
<path d="M41.3948 33.9356C41.1074 33.6107 40.7502 33.3551 40.35 33.1879C39.9144 33.0093 39.4472 32.9209 38.9766 32.9279C38.4548 32.9233 37.9363 33.0114 37.4453 33.1879C36.984 33.353 36.5596 33.607 36.1961 33.9356C35.8415 34.2649 35.5578 34.6631 35.3625 35.1058C34.9576 36.2271 34.9576 37.4546 35.3625 38.5759C35.5579 39.0179 35.8415 39.4154 36.1961 39.7438C36.5582 40.0744 36.983 40.329 37.4453 40.4926C37.9367 40.6674 38.455 40.7542 38.9766 40.7492C39.5474 40.7534 40.1124 40.6346 40.6332 40.4009C41.0403 40.2179 41.409 39.9595 41.7199 39.6393C41.7748 39.5778 41.8051 39.4983 41.8051 39.4158C41.8051 39.3334 41.7748 39.2539 41.7199 39.1924L40.7296 38.4668L40.6588 38.4145C40.5959 38.3784 40.5228 38.3639 40.4508 38.3733C40.3789 38.3828 40.312 38.4156 40.2606 38.4668C40.123 38.6197 39.967 38.755 39.7962 38.8696C39.522 39.0348 39.206 39.1179 38.886 39.1088C38.4963 39.119 38.1162 38.9869 37.8168 38.7373C37.4874 38.4016 37.2896 37.9586 37.2595 37.4893C37.2601 37.4506 37.2743 37.4133 37.2995 37.3841C37.3248 37.3548 37.3595 37.3353 37.3977 37.329H41.9927C42.0772 37.3238 42.1566 37.2867 42.215 37.2254C42.2733 37.164 42.3063 37.0828 42.3073 36.9982V36.6418C42.3147 36.1243 42.2362 35.6092 42.0751 35.1174C41.9298 34.6819 41.6984 34.28 41.3948 33.9356ZM39.9494 35.8314H37.4162C37.374 35.8315 37.3334 35.8152 37.3029 35.786C37.2724 35.7567 37.2543 35.7169 37.2526 35.6747C37.2724 35.5546 37.3075 35.4376 37.357 35.3264C37.4292 35.167 37.5331 35.024 37.6624 34.9061C37.7999 34.7787 37.9597 34.6775 38.1337 34.6078C38.3373 34.5276 38.5546 34.4882 38.7734 34.4917C38.9538 34.4853 39.1336 34.5169 39.301 34.5845C39.4684 34.6521 39.6197 34.7542 39.7451 34.8841C39.954 35.0961 40.0807 35.3755 40.1027 35.6724C40.1013 35.7131 40.0849 35.752 40.0566 35.7813C40.0283 35.8107 39.9901 35.8286 39.9494 35.8314Z" fill="#FF8000"/>
<path d="M19.5504 36.5465C19.2804 36.385 18.9876 36.2649 18.682 36.1901L17.8113 35.9718C17.5805 35.918 17.356 35.8402 17.1414 35.7397C17.0623 35.7069 16.9949 35.6511 16.9481 35.5794C16.9013 35.5077 16.8772 35.4236 16.879 35.338C16.8711 35.2431 16.8912 35.148 16.9368 35.0644C16.9824 34.9808 17.0515 34.9124 17.1356 34.8678C17.297 34.7797 17.4777 34.7331 17.6615 34.7319C18.0439 34.7231 18.4147 34.8639 18.6948 35.1243C18.7546 35.1771 18.8316 35.2062 18.9113 35.2062C18.991 35.2062 19.068 35.1771 19.1278 35.1243L20.0055 34.1956C20.0562 34.1366 20.084 34.0615 20.084 33.9837C20.084 33.906 20.0562 33.8308 20.0055 33.7718C19.7251 33.5182 19.3915 33.3305 19.0291 33.2227C18.5818 33.0832 18.1161 33.0115 17.6476 33.0103C17.2859 33.0098 16.9259 33.0582 16.5772 33.1542C16.2424 33.2434 15.9274 33.3946 15.6484 33.6C15.3748 33.8049 15.1503 34.0682 14.9913 34.3709C14.8176 34.7186 14.7319 35.1037 14.7417 35.4924C14.7237 35.8802 14.8155 36.2653 15.0064 36.6034C15.1715 36.8715 15.402 37.0932 15.6763 37.2477C15.949 37.3999 16.2412 37.5144 16.5447 37.5879L17.4142 37.8003C17.6469 37.8526 17.872 37.9341 18.0841 38.043C18.1649 38.0814 18.2329 38.1425 18.2799 38.2187C18.3268 38.2949 18.3508 38.383 18.3488 38.4725C18.3524 38.5655 18.3247 38.6569 18.2702 38.7323C18.2157 38.8076 18.1375 38.8625 18.0481 38.8881C17.8341 38.9672 17.6075 39.0066 17.3794 39.0042C17.0833 39.0108 16.7907 38.9396 16.5308 38.7976C16.3619 38.7015 16.2082 38.581 16.0745 38.44C16.0113 38.3907 15.932 38.3666 15.852 38.3724C15.772 38.3782 15.697 38.4135 15.6415 38.4714L14.7499 39.5162C14.7011 39.5834 14.6796 39.6666 14.6895 39.749C14.6994 39.8314 14.74 39.9071 14.8033 39.9609C15.0992 40.2149 15.4465 40.4022 15.8214 40.51C16.2963 40.6551 16.79 40.7294 17.2865 40.7306C17.6649 40.7297 18.0421 40.6908 18.4127 40.6145C18.7759 40.5458 19.1239 40.4125 19.4401 40.2209C19.7428 40.035 19.9983 39.7815 20.1866 39.4802C20.3941 39.1249 20.4956 38.7177 20.4791 38.3065C20.4974 37.9184 20.4061 37.533 20.2156 37.1943C20.0473 36.9295 19.8196 36.7077 19.5504 36.5465Z" fill="#FF8000"/>
<path d="M5.77571 31.5242C5.42007 31.2905 5.02148 31.1299 4.60315 31.0517C4.15862 30.9572 3.70511 30.9112 3.25065 30.9147H0.348271C0.268416 30.9159 0.192025 30.9475 0.134803 31.0032C0.0775815 31.0589 0.0438768 31.1345 0.0406189 31.2143V40.3358C0.0447241 40.4151 0.0787664 40.4899 0.13587 40.5451C0.192974 40.6002 0.268885 40.6317 0.348271 40.633H1.87724C1.95775 40.6304 2.03415 40.5968 2.09057 40.5393C2.14698 40.4818 2.1791 40.4048 2.18025 40.3242V37.0016C2.18077 36.9611 2.19663 36.9222 2.22464 36.8929C2.25264 36.8636 2.29071 36.8461 2.33117 36.8437H3.34933C3.80303 36.8476 4.25568 36.7993 4.69835 36.6997C5.10793 36.6171 5.49628 36.4515 5.83956 36.2133C6.16489 35.9752 6.42451 35.6584 6.59418 35.2927C6.7895 34.8431 6.88306 34.3558 6.86817 33.8659C6.884 33.3735 6.78253 32.8845 6.57212 32.4391C6.39061 32.0701 6.11613 31.7548 5.77571 31.5242ZM4.51492 34.4347C4.43161 34.5817 4.3116 34.7045 4.16663 34.7911C4.04694 34.8786 3.91001 34.9395 3.76495 34.9699C3.58196 35.0073 3.3956 35.0256 3.20885 35.0245H2.33466C2.29359 35.0236 2.25449 35.0067 2.22566 34.9775C2.19683 34.9482 2.18054 34.9088 2.18025 34.8678V32.8814C2.18036 32.8425 2.19491 32.8051 2.22109 32.7763C2.24726 32.7476 2.28319 32.7296 2.32189 32.7258H2.8803C3.0909 32.7264 3.30132 32.738 3.5107 32.7606C3.69171 32.7794 3.86747 32.8326 4.02848 32.9174C4.20258 32.9971 4.35358 33.1197 4.46732 33.2738C4.59052 33.4473 4.65297 33.6567 4.64495 33.8694C4.65098 34.0659 4.60619 34.2606 4.51492 34.4347Z" fill="#FF8000"/>
<path d="M26.8342 38.9056H23.515C23.4873 38.9014 23.4621 38.8874 23.444 38.866C23.4258 38.8447 23.416 38.8175 23.4163 38.7895C23.4155 38.7596 23.4263 38.7304 23.4465 38.7083L23.4953 38.6653L23.5324 38.6293L26.667 35.648L26.8446 35.4692C26.9142 35.4098 26.9707 35.3366 27.0107 35.2543C27.0506 35.172 27.0731 35.0823 27.0768 34.9909V33.4968C27.0768 33.4088 27.042 33.3244 26.98 33.262C26.9181 33.1996 26.8339 33.1642 26.7459 33.1636H21.3034C21.2167 33.1639 21.1335 33.1982 21.0718 33.2592C21.0102 33.3203 20.9749 33.4031 20.9737 33.4898V34.5811C20.9755 34.6675 21.011 34.7499 21.0725 34.8106C21.1341 34.8713 21.2169 34.9056 21.3034 34.9062H24.2743C24.3032 34.9088 24.3301 34.9222 24.3497 34.9436C24.3693 34.9651 24.38 34.9932 24.3799 35.0223C24.3796 35.0471 24.3719 35.0714 24.3579 35.0919L21.553 37.8155L21.1513 38.2056L21.077 38.2787C20.9588 38.4002 20.8912 38.562 20.8878 38.7315V40.3173C20.8896 40.4035 20.9249 40.4855 20.9863 40.546C21.0476 40.6065 21.1302 40.6407 21.2163 40.6413H26.8342C26.922 40.6406 27.0061 40.6052 27.0679 40.5428C27.1297 40.4803 27.1642 40.3959 27.1639 40.3081V39.24C27.1636 39.1522 27.1289 39.068 27.0673 39.0055C27.0056 38.943 26.9219 38.9071 26.8342 38.9056Z" fill="#FF8000"/>
<path d="M14.8335 33.4178C14.8293 33.4004 14.8238 33.3834 14.8172 33.3667C14.7936 33.3112 14.7551 33.2632 14.7059 33.2282C14.6567 33.1931 14.5988 33.1724 14.5386 33.1682H13.2441C13.1227 33.1728 13.005 33.2109 12.904 33.2783C12.8029 33.3457 12.7225 33.4398 12.6718 33.5502C12.663 33.5695 12.6553 33.5893 12.6485 33.6094L12.6393 33.643C12.6363 33.6612 12.6316 33.6791 12.6253 33.6964L12.5859 33.8218L11.4075 37.682L11.3936 37.7319C11.3836 37.7659 11.3628 37.7957 11.3343 37.8167C11.3057 37.8376 11.2711 37.8487 11.2357 37.848C11.2035 37.8479 11.1721 37.8384 11.1453 37.8206C11.1185 37.8029 11.0974 37.7777 11.0847 37.7482L9.68116 33.8241L9.66491 33.7742L9.56855 33.5084C9.51419 33.4094 9.43516 33.3262 9.33915 33.2668C9.24314 33.2074 9.13339 33.1738 9.02058 33.1694H7.55662C7.50422 33.18 7.45514 33.203 7.41351 33.2365C7.37189 33.2701 7.33895 33.3131 7.31747 33.3621C7.31069 33.379 7.30563 33.3965 7.30237 33.4143C7.28997 33.4706 7.29278 33.5291 7.3105 33.5838L10.1003 40.3858C10.1409 40.5276 10.1328 40.6789 10.077 40.8154L10.0678 40.8386L10.0178 40.9651C9.94121 41.1567 9.8704 41.3227 9.80422 41.4655C9.74249 41.598 9.65801 41.7186 9.55462 41.8219C9.44774 41.9271 9.3183 42.0065 9.17615 42.0541C8.98797 42.1104 8.79201 42.1363 8.59567 42.1307H7.66691C7.58359 42.134 7.50461 42.1687 7.44597 42.228C7.38733 42.2873 7.35343 42.3667 7.35113 42.45V43.611C7.35292 43.6947 7.38705 43.7744 7.44635 43.8335C7.50565 43.8926 7.58553 43.9264 7.66923 43.9279H8.90449C9.32566 43.941 9.7464 43.8905 10.1525 43.7781C10.442 43.6925 10.7078 43.5411 10.9292 43.3358C11.1415 43.1319 11.314 42.8902 11.4377 42.623C11.5708 42.3374 11.7086 42.0092 11.851 41.6385L14.8497 33.5513C14.8534 33.5062 14.8479 33.4608 14.8335 33.4178Z" fill="#FF8000"/>
<path d="M33.9276 33.9496C33.7366 33.6426 33.463 33.3956 33.1382 33.2368C32.7177 33.0505 32.2602 32.9632 31.8007 32.9814C31.5551 32.9792 31.3106 33.0136 31.0751 33.0835C30.8664 33.145 30.6662 33.2328 30.4796 33.3447C30.3132 33.442 30.1616 33.5624 30.0291 33.7023C29.9849 33.7478 29.9435 33.7959 29.9049 33.8463C29.8887 33.8617 29.8684 33.8722 29.8464 33.8764C29.8243 33.8805 29.8016 33.8783 29.7809 33.8698C29.7601 33.8613 29.7423 33.847 29.7295 33.8286C29.7167 33.8103 29.7094 33.7886 29.7087 33.7662V33.4794C29.7081 33.3914 29.6727 33.3073 29.6103 33.2453C29.5479 33.1833 29.4635 33.1485 29.3755 33.1485H27.9487C27.8609 33.1494 27.7769 33.1845 27.7145 33.2462C27.6521 33.308 27.6162 33.3916 27.6143 33.4794V40.3116C27.6194 40.3965 27.6564 40.4764 27.7181 40.535C27.7797 40.5936 27.8613 40.6266 27.9464 40.6274H29.4637C29.5487 40.6266 29.6302 40.5936 29.6916 40.5349C29.7531 40.4763 29.7899 40.3964 29.7946 40.3116V36.7127C29.7936 36.489 29.8083 36.2655 29.8387 36.0439C29.863 35.8435 29.9235 35.6491 30.0175 35.4704C30.1099 35.2993 30.2482 35.1574 30.4169 35.0606C30.6271 34.9507 30.8625 34.8978 31.0995 34.9074C31.3094 34.8864 31.5202 34.9366 31.6982 35.0498C31.8761 35.1631 32.0107 35.3329 32.0805 35.532C32.155 35.7248 32.1989 35.9281 32.2106 36.1345C32.2268 36.3516 32.2326 36.5641 32.2326 36.7672V40.3348C32.2371 40.4197 32.2738 40.4997 32.3353 40.5584C32.3968 40.6172 32.4784 40.6501 32.5635 40.6506H34.0797C34.1648 40.6501 34.2466 40.6172 34.3083 40.5585C34.37 40.4998 34.407 40.4198 34.4117 40.3348V36.3284C34.4142 35.8867 34.3801 35.4456 34.3095 35.0095C34.2549 34.6341 34.1249 34.2736 33.9276 33.9496Z" fill="#FF8000"/>
<path d="M53.4524 30.1567H52.9393C52.8512 30.1608 52.7679 30.1982 52.7062 30.2614C52.6446 30.3245 52.6092 30.4087 52.6073 30.4969V40.315C52.6104 40.4028 52.6466 40.4862 52.7086 40.5484C52.7706 40.6106 52.8539 40.6471 52.9416 40.6506H53.4513C53.5398 40.6464 53.6234 40.6087 53.6851 40.5451C53.7468 40.4815 53.7819 40.3967 53.7833 40.3081V30.4992C53.784 30.4102 53.7497 30.3245 53.6878 30.2604C53.6259 30.1964 53.5414 30.1592 53.4524 30.1567Z" fill="#FF8000"/>
<path d="M43.2802 39.1042C43.1693 39.1003 43.0589 39.1206 42.9566 39.1638C42.8544 39.2069 42.7628 39.2717 42.6881 39.3538C42.5506 39.5107 42.4781 39.714 42.4853 39.9225C42.4925 40.1309 42.5789 40.3288 42.7269 40.4757C42.8749 40.6227 43.0734 40.7077 43.2819 40.7134C43.4904 40.7192 43.6932 40.6452 43.8491 40.5067L43.8665 40.4892C44.0117 40.3359 44.0927 40.1327 44.0927 39.9215C44.0927 39.7103 44.0117 39.5072 43.8665 39.3538C43.7926 39.2724 43.7019 39.2079 43.6007 39.1648C43.4995 39.1217 43.3901 39.101 43.2802 39.1042Z" fill="#FF8000"/>
<path d="M50.7149 34.1318C50.4382 33.8203 50.0977 33.572 49.7165 33.4039C49.3171 33.2332 48.8872 33.1453 48.4528 33.1453C48.0184 33.1453 47.5886 33.2332 47.1891 33.4039C46.8642 33.5442 46.5741 33.7543 46.3393 34.0192V33.4596C46.3264 33.3786 46.2862 33.3046 46.2254 33.2496C46.1646 33.1947 46.0868 33.1623 46.005 33.1577H45.4953C45.4134 33.1603 45.3352 33.1921 45.2749 33.2475C45.2146 33.303 45.1762 33.3782 45.1667 33.4596V43.5355C45.1762 43.6166 45.2147 43.6916 45.2751 43.7466C45.3354 43.8016 45.4136 43.833 45.4953 43.835H46.0119C46.0937 43.8333 46.172 43.802 46.2324 43.7469C46.2928 43.6918 46.3312 43.6167 46.3405 43.5355V40.0224C46.5836 40.2583 46.8735 40.4406 47.1914 40.5576C47.5909 40.7283 48.0208 40.8162 48.4551 40.8162C48.8895 40.8162 49.3194 40.7283 49.7188 40.5576C50.0991 40.3879 50.4393 40.1398 50.7172 39.8297C51.0042 39.502 51.2267 39.1231 51.3732 38.7129C51.538 38.181 51.6194 37.6269 51.6147 37.0701C51.6147 36.5361 51.5334 35.6863 51.3732 35.2556C51.2266 34.8428 51.0032 34.4615 50.7149 34.1318ZM50.405 38.2508C50.3165 38.5399 50.173 38.8091 49.9824 39.0438C49.7994 39.2735 49.5669 39.4591 49.3023 39.5866C49.0377 39.7142 48.7477 39.7804 48.454 39.7804C48.1602 39.7804 47.8703 39.7142 47.6057 39.5866C47.341 39.4591 47.1086 39.2735 46.9256 39.0438C46.7353 38.8085 46.5911 38.5395 46.5007 38.2508C46.4024 37.8627 46.354 37.4636 46.3567 37.0632C46.3547 36.6057 46.4029 36.1494 46.5007 35.7025C46.5911 35.4138 46.7353 35.1448 46.9256 34.9096C47.1064 34.6869 47.3318 34.5046 47.5873 34.3744C47.8579 34.2465 48.1535 34.1802 48.4528 34.1802C48.7521 34.1802 49.0477 34.2465 49.3183 34.3744C49.5747 34.5043 49.801 34.6866 49.9824 34.9096C50.1726 35.1445 50.316 35.4137 50.405 35.7025C50.5046 36.1492 50.5537 36.6056 50.5512 37.0632C50.5546 37.4649 50.5055 37.8653 50.405 38.2543V38.2508Z" fill="#FF8000"/>
</svg>
