<svg width="36" height="37" viewBox="0 0 36 37" fill="none" xmlns="http://www.w3.org/2000/svg">
<path d="M35.6686 17.9063C35.5545 17.6119 33.9968 14.723 31.1064 11.0987C31.0334 11.0108 30.9872 10.9036 30.9733 10.7899V10.7899C30.7994 8.68066 30.5084 6.58275 30.1018 4.50603C30.0557 4.29744 29.9459 4.10854 29.7876 3.96582C29.6293 3.8231 29.4305 3.73371 29.2191 3.7102V3.7102L26.2115 3.33934C26.1851 3.33691 26.1586 3.33691 26.1322 3.33934C25.9641 3.33934 25.8029 3.40642 25.684 3.52581C25.5652 3.64521 25.4984 3.80715 25.4984 3.97601V5.02333C25.4984 5.03346 25.4944 5.04317 25.4872 5.05034C25.4801 5.0575 25.4704 5.06153 25.4604 5.06153C25.451 5.06143 25.4421 5.05805 25.435 5.05198V5.05198C23.5534 3.33899 21.5221 1.79948 19.3658 0.452047V0.452047C18.9262 0.156244 18.4086 -0.00113999 17.8795 1.2644e-05V1.2644e-05C17.3502 -0.00162474 16.8325 0.155802 16.3931 0.452047V0.452047C6.02637 6.87921 0.318515 17.3333 0.0982501 17.9063C0.0332112 18.0441 -0.000355653 18.1947 2.84156e-06 18.3472C0.00026492 18.5768 0.0765457 18.7998 0.216833 18.981C0.35712 19.1623 0.553445 19.2915 0.77489 19.3484L3.76193 19.9245C3.95843 19.9797 4.13396 20.0927 4.26587 20.249C4.39778 20.4054 4.48002 20.5978 4.50195 20.8016C4.52731 21.3316 5.09144 33.1625 5.79977 36.2312C5.8581 36.4516 5.9873 36.6465 6.16726 36.7855C6.34723 36.9245 6.56789 36.9999 6.79492 37H6.81711C8.56021 36.9554 10.1559 36.9268 11.88 36.9029H12.0226C12.0667 36.9029 12.1103 36.8942 12.151 36.8772C12.1916 36.8602 12.2286 36.8353 12.2596 36.804C12.2907 36.7726 12.3153 36.7354 12.332 36.6945C12.3487 36.6535 12.3572 36.6097 12.357 36.5655V36.5575C12.2873 35.5245 12.1367 33.1625 12.0147 30.6683C12.0147 30.6063 12.0147 30.5283 12.0036 30.4646C11.9982 30.361 11.9676 30.2603 11.9146 30.1712C11.8616 30.0822 11.7877 30.0075 11.6994 29.9537C11.2445 29.6809 10.8636 29.2997 10.5902 28.8439C10.3169 28.388 10.1596 27.8716 10.1322 27.3401C9.9737 23.1923 9.89606 18.3965 10.1227 14.645C10.133 14.4903 10.2023 14.3455 10.3161 14.2408C10.4299 14.136 10.5795 14.0793 10.7338 14.0824C10.8881 14.0854 11.0353 14.1481 11.1449 14.2573C11.2545 14.3665 11.318 14.5139 11.3222 14.6689C11.3222 14.6848 11.3222 14.7007 11.3222 14.7166C11.1749 17.2171 11.1638 20.1744 11.2145 23.092C11.2161 23.186 11.2362 23.2788 11.2736 23.3651C11.311 23.4514 11.3649 23.5294 11.4323 23.5947C11.4997 23.66 11.5792 23.7114 11.6664 23.7458C11.7535 23.7803 11.8466 23.7972 11.9402 23.7955C12.0339 23.7938 12.1263 23.7736 12.2122 23.7361C12.298 23.6986 12.3757 23.6444 12.4408 23.5767C12.5058 23.509 12.5569 23.4291 12.5912 23.3416C12.6255 23.254 12.6423 23.1606 12.6406 23.0665C12.5868 20.1299 12.601 17.1535 12.7516 14.645C12.7547 14.485 12.821 14.3328 12.9359 14.2219C13.0507 14.111 13.2048 14.0505 13.364 14.0537C13.5233 14.0568 13.6748 14.1234 13.7852 14.2388C13.8956 14.3542 13.9559 14.5089 13.9527 14.6689V14.7166C13.8054 17.2044 13.7943 20.1442 13.845 23.0458C13.8479 23.2358 13.9259 23.4168 14.0617 23.549C14.1975 23.6813 14.38 23.7539 14.5692 23.7509C14.7583 23.748 14.9385 23.6697 15.0701 23.5333C15.2018 23.3969 15.2741 23.2135 15.2711 23.0235V23.0235C15.2189 20.0996 15.2331 17.1344 15.3837 14.6434C15.3868 14.4834 15.4531 14.3312 15.568 14.2203C15.6828 14.1094 15.8368 14.0489 15.9961 14.0521C16.1554 14.0552 16.3069 14.1218 16.4173 14.2372C16.5277 14.3526 16.588 14.5073 16.5848 14.6673C16.5848 14.6832 16.5848 14.6991 16.5848 14.715C16.3709 18.3631 16.4406 22.979 16.5848 27.0298C16.5848 27.0298 16.5848 27.0648 16.5848 27.068C16.5848 27.0712 16.5848 27.1094 16.5848 27.13V27.1698C16.5853 27.6953 16.4582 28.213 16.2147 28.6781C15.9712 29.1432 15.6185 29.5417 15.1872 29.8391C15.1105 29.8921 15.0469 29.9619 15.0011 30.0433C14.9552 30.1246 14.9284 30.2153 14.9225 30.3086C14.9225 30.3086 14.848 30.931 15.1222 33.944C15.249 35.2603 15.3472 36.1723 15.3916 36.5846C15.4016 36.6616 15.4394 36.7323 15.4978 36.7834C15.5562 36.8344 15.6311 36.8622 15.7085 36.8615H15.9874C16.5626 36.8615 17.1553 36.8615 17.7717 36.8615H18.0031H20.2406L21.9361 36.8758C22.014 36.8764 22.0893 36.8482 22.1478 36.7965C22.2062 36.7448 22.2437 36.6734 22.2531 36.5957C22.6445 32.9842 22.7364 30.9548 22.7364 30.9548C22.7342 30.8683 22.7009 30.7855 22.6427 30.7217C22.5844 30.6579 22.5051 30.6174 22.4194 30.6078L20.3594 30.3229C20.2227 30.306 20.0941 30.2489 19.9895 30.1589C19.8849 30.0689 19.8091 29.9499 19.7715 29.8168C19.7456 29.7128 19.7365 29.6053 19.7446 29.4985C20.5797 17.4606 24.5318 13.4035 24.5318 13.4035C24.5895 13.341 24.6538 13.285 24.7235 13.2363C24.831 13.1571 24.961 13.1147 25.0943 13.1154C25.2216 13.1155 25.3459 13.1541 25.4511 13.2263C25.5562 13.2984 25.6373 13.4006 25.6838 13.5197C25.713 13.6136 25.73 13.711 25.7345 13.8093C26.0768 17.5928 25.9088 24.0327 25.6981 29.056C25.519 33.3201 25.3035 36.6673 25.3035 36.6673C25.3033 36.6999 25.3095 36.7321 25.3217 36.7622C25.334 36.7924 25.352 36.8197 25.3749 36.8428C25.3977 36.8659 25.4248 36.8842 25.4547 36.8967C25.4846 36.9092 25.5167 36.9156 25.5491 36.9156V36.9156C26.671 36.9347 27.7755 36.957 28.9466 36.9873H28.9687C29.1958 36.9872 29.4164 36.9118 29.5964 36.7728C29.7764 36.6337 29.9056 36.4389 29.9639 36.2185V36.2185C30.6738 33.1497 31.2316 21.3189 31.2617 20.7888C31.2845 20.5844 31.3678 20.3916 31.5009 20.2353C31.6339 20.0789 31.8106 19.9663 32.0081 19.9118L34.9951 19.3356C35.2166 19.2788 35.4129 19.1495 35.5532 18.9683C35.6935 18.787 35.7697 18.5641 35.77 18.3345C35.7668 18.1861 35.7322 18.0402 35.6686 17.9063V17.9063Z" fill="#242E30"/>
</svg>
