<svg width="41" height="27" viewBox="0 0 41 27" fill="none" xmlns="http://www.w3.org/2000/svg">
<path d="M40.022 5.1815H36.3866V1.62832C36.3866 1.09769 35.9454 0.665894 35.4033 0.665894H33.3676C32.8255 0.665894 32.3844 1.09769 32.3844 1.62832V5.1815H28.7489C28.2068 5.1815 27.7709 5.61329 27.7709 6.13873V8.13121C27.7709 8.66185 28.2121 9.08844 28.7489 9.08844H32.3844V12.6416C32.3844 13.1723 32.8255 13.604 33.3676 13.604H35.4033C35.9454 13.604 36.3866 13.1723 36.3866 12.6416V9.08844H40.022C40.5642 9.08844 41 8.65664 41 8.13121V6.13873C41 5.60809 40.5589 5.1815 40.022 5.1815Z" fill="#FF8000"/>
<path d="M26.7717 13.3803C26.7717 13.7341 26.5272 14.0254 26.1924 14.1087L23.9548 14.5301C23.6571 14.6081 23.4286 14.863 23.3967 15.1699C23.3861 15.3312 23.3063 16.9595 23.1788 18.9624C23.1575 19.3318 23.1309 19.7168 23.099 20.1069C23.0512 20.778 22.9981 21.4647 22.9449 22.1358C22.7961 23.9462 22.6154 25.611 22.4187 26.4277C22.3337 26.7503 22.0307 26.9896 21.6746 26.9896H21.6587C20.7817 26.9688 19.9526 26.9532 19.1128 26.9376C19.0118 26.9376 18.9268 26.8543 18.9268 26.7555C18.9268 26.7555 19.0915 24.3104 19.2244 21.1942C19.3838 17.5266 19.5061 12.8289 19.251 10.0665C19.235 9.91561 19.2138 9.85318 19.2138 9.85318C19.1447 9.6815 18.9746 9.55665 18.7726 9.55665C18.6663 9.55665 18.5707 9.58786 18.4962 9.64509C18.4962 9.64509 18.4431 9.6815 18.3527 9.76474C18.3527 9.76474 15.3923 12.7249 14.7704 21.5116C14.7704 21.5116 14.7598 21.6364 14.7917 21.7457C14.8183 21.8341 14.8661 21.9173 14.9405 21.985C15.0149 22.0474 15.1106 22.0942 15.2328 22.115L16.7742 22.3231C16.9124 22.3439 17.0134 22.4428 17.0134 22.578C17.0134 22.578 16.9974 22.9474 16.9443 23.6497C16.8911 24.3468 16.8008 25.3769 16.6519 26.6983C16.636 26.8127 16.535 26.9012 16.4128 26.9012L15.1425 26.8907C14.6057 26.8907 14.0476 26.8907 13.4682 26.8907H13.2982C12.8358 26.8907 12.3946 26.8907 11.9641 26.8907H11.7515C11.6292 26.8907 11.5336 26.8023 11.5176 26.6879C11.4857 26.3861 11.4113 25.7202 11.3157 24.763C11.1084 22.5624 11.1668 22.1098 11.1668 22.1098C11.1775 21.9694 11.2519 21.8445 11.3688 21.7665C12.0013 21.3399 12.4159 20.6272 12.4159 19.8208C12.4159 19.8104 12.4159 19.8 12.4159 19.7896V19.7428V19.7168C12.3043 16.7619 12.2511 13.3908 12.4159 10.7324C12.4159 10.722 12.4159 10.7116 12.4159 10.696C12.4159 10.4514 12.2086 10.259 11.9588 10.2642C11.7196 10.2642 11.5283 10.4514 11.5176 10.6803C11.4432 11.9029 11.4113 13.2711 11.4113 14.6861C11.4113 15.3832 11.4166 16.0908 11.4326 16.7983C11.4326 17.0844 11.204 17.3185 10.9117 17.3237C10.6194 17.3237 10.3749 17.1 10.3696 16.8139C10.3324 14.6965 10.3377 12.548 10.4493 10.7324C10.4493 10.722 10.4493 10.7116 10.4493 10.696C10.4493 10.4514 10.2367 10.259 9.99222 10.2642C9.75305 10.2642 9.56171 10.4514 9.55108 10.6803C9.47667 11.8925 9.44477 13.2555 9.44477 14.6601C9.44477 15.378 9.45541 16.1012 9.46604 16.8243C9.46604 17.1104 9.23749 17.3497 8.94516 17.3549H8.93453C8.64221 17.3549 8.40835 17.126 8.40303 16.8451C8.38709 16.1116 8.38177 15.378 8.38177 14.6497C8.38177 13.2711 8.40835 11.9289 8.48276 10.7324C8.48276 10.722 8.48276 10.7116 8.48276 10.696C8.48276 10.4514 8.27016 10.259 8.02567 10.2642C7.90874 10.2642 7.80244 10.311 7.72271 10.389C7.64299 10.4619 7.59515 10.5659 7.58452 10.6803C7.41444 13.4168 7.47291 16.9179 7.58984 19.9457C7.63236 20.7572 8.09476 21.4595 8.76445 21.8549C8.89201 21.9329 8.98237 22.0682 8.993 22.2295C8.993 22.2763 8.99831 22.3335 9.00363 22.3803C9.04615 23.2855 9.0993 24.1699 9.14713 24.9243C9.19497 25.6734 9.23749 26.2925 9.25875 26.6723C9.25875 26.7451 9.23217 26.8075 9.18434 26.8543C9.14182 26.896 9.07804 26.9272 9.00894 26.9272C8.97705 26.9272 8.93985 26.9272 8.90796 26.9272H8.89733C7.60578 26.9428 6.4099 26.9636 5.10773 27H5.09178C4.91639 27 4.75162 26.9428 4.61875 26.8387C4.48587 26.7399 4.3902 26.5994 4.34768 26.4381C3.81618 24.2012 3.39098 15.5653 3.37503 15.1803C3.34314 14.8734 3.1146 14.6185 2.81696 14.5405L0.579336 14.1191C0.244491 14.0358 0 13.7393 0 13.3908C0 13.2763 0.026575 13.1671 0.0744101 13.0682C0.15945 12.8601 1.26497 10.8468 3.3272 8.30289C5.38411 5.75896 8.39772 2.67919 12.2777 0.332948C12.4371 0.228902 12.6125 0.145665 12.7985 0.0884391C12.9846 0.0312137 13.1865 0 13.3885 0C13.5958 0 13.7925 0.0312137 13.9785 0.0884391C14.1645 0.145665 14.3399 0.228902 14.4994 0.332948C16.1789 1.3474 17.699 2.50231 19.0437 3.68844C19.0437 3.68844 19.0543 3.69364 19.0649 3.69364C19.0809 3.69364 19.0915 3.68324 19.0915 3.66763V2.90289C19.0915 2.64798 19.3041 2.43468 19.5646 2.43468C19.5858 2.43468 19.6071 2.43468 19.623 2.43468L21.8713 2.7C22.1902 2.73642 22.4719 2.97052 22.5303 3.28786C22.5303 3.28786 22.6313 3.74566 22.7642 4.54682C22.8971 5.34798 23.0565 6.49249 23.1841 7.8711C23.1947 7.95434 23.2319 8.03237 23.2851 8.0948C25.4483 10.7324 26.6176 12.8497 26.7026 13.063C26.7505 13.1618 26.777 13.2711 26.777 13.3855L26.7717 13.3803Z" fill="#FF8000"/>
</svg>
