<svg width="316" height="38" viewBox="0 0 316 38" fill="none" xmlns="http://www.w3.org/2000/svg">
<path d="M176.037 16.4327V13.971C176.027 13.8257 175.963 13.6892 175.858 13.5878C175.753 13.4865 175.614 13.4273 175.468 13.4219H162.083C161.932 13.4258 161.789 13.4871 161.683 13.5931C161.576 13.699 161.515 13.8416 161.511 13.9914V16.417C161.516 16.566 161.576 16.7078 161.681 16.8142C161.786 16.9206 161.927 16.9838 162.076 16.9912H166.456C166.532 16.994 166.605 17.0257 166.659 17.0799C166.713 17.1341 166.744 17.2068 166.746 17.283V31.1352C166.745 31.2863 166.804 31.4316 166.908 31.5409C167.013 31.6502 167.156 31.7151 167.308 31.7219H170.232C170.379 31.7153 170.519 31.6537 170.622 31.5493C170.726 31.4449 170.786 31.3054 170.791 31.1587V17.2109C170.807 17.1484 170.843 17.0928 170.894 17.0523C170.944 17.0119 171.007 16.9888 171.071 16.9865H175.471C175.617 16.9791 175.755 16.9185 175.859 16.8164C175.962 16.7142 176.025 16.5776 176.034 16.4327" fill="#242E30"/>
<path d="M183.493 19.779C183.03 19.2086 182.42 18.7747 181.728 18.5239C180.824 18.2118 179.87 18.0672 178.914 18.0971C177.889 18.0944 176.871 18.2647 175.903 18.6007C175.138 18.8623 174.424 19.2517 173.791 19.7523C173.688 19.8643 173.633 20.0115 173.636 20.1633C173.64 20.315 173.702 20.4595 173.81 20.5666V20.5666L175.024 21.8061C175.079 21.8609 175.144 21.9044 175.216 21.9341C175.288 21.9638 175.365 21.9791 175.443 21.9791C175.521 21.9791 175.598 21.9638 175.67 21.9341C175.742 21.9044 175.807 21.8609 175.862 21.8061V21.8061C176.16 21.5417 176.491 21.3161 176.846 21.1346C177.39 20.8658 177.99 20.7288 178.597 20.7345C179.235 20.7249 179.856 20.9405 180.35 21.3432C180.808 21.7214 181.054 22.396 181.087 23.4801C181.076 23.5497 181.04 23.6131 180.987 23.6593C180.933 23.7055 180.865 23.7314 180.794 23.7327V23.7327C180.339 23.7327 179.849 23.7327 179.339 23.7594C178.707 23.7766 178.076 23.8289 177.449 23.9163C176.831 24.0007 176.22 24.1345 175.623 24.3164C175.06 24.4839 174.528 24.7414 174.048 25.0789C173.592 25.4027 173.219 25.8276 172.956 26.3199C172.673 26.8897 172.536 27.5201 172.555 28.1556C172.54 28.736 172.665 29.3115 172.919 29.8343C173.152 30.307 173.488 30.7218 173.903 31.0487C174.332 31.3845 174.822 31.6353 175.345 31.7876C175.891 31.9511 176.459 32.0336 177.029 32.0324C177.808 32.0374 178.579 31.888 179.3 31.5931C179.858 31.3669 180.35 31.0056 180.733 30.5419H180.772C180.812 30.5233 180.856 30.5172 180.9 30.5245C180.943 30.5318 180.983 30.5521 181.015 30.5827C181.054 30.6205 181.077 30.6723 181.079 30.727V31.1805C181.084 31.3281 181.144 31.4686 181.249 31.5737C181.353 31.6787 181.493 31.7406 181.641 31.7468H184.095C184.244 31.7409 184.386 31.6782 184.49 31.5718C184.595 31.4653 184.654 31.3231 184.657 31.1742V25.3597C184.667 24.179 184.58 22.9994 184.397 21.8327C184.251 21.0994 183.937 20.4098 183.478 19.8182L183.493 19.779ZM181.097 27.0353C181.104 27.3954 181.019 27.7514 180.849 28.0693C180.685 28.3596 180.454 28.6078 180.177 28.7941C179.886 28.9871 179.568 29.1342 179.232 29.2303C178.874 29.3365 178.503 29.3894 178.13 29.3872C177.69 29.3871 177.259 29.2713 176.879 29.0514C176.691 28.954 176.535 28.8047 176.43 28.6213C176.325 28.4379 176.276 28.2283 176.287 28.0175C176.277 27.8284 176.311 27.6396 176.385 27.4651C176.459 27.2907 176.571 27.1352 176.714 27.0102C177.018 26.7593 177.372 26.5739 177.752 26.4658C178.166 26.3454 178.592 26.2723 179.023 26.2477C179.471 26.2216 179.838 26.2085 180.125 26.2085H180.799C180.874 26.2139 180.944 26.2468 180.995 26.3007C181.047 26.3546 181.077 26.4257 181.079 26.5003L181.097 27.0353Z" fill="#242E30"/>
<path d="M222.236 19.779C221.775 19.2084 221.165 18.7744 220.474 18.5238C219.569 18.2119 218.615 18.0673 217.658 18.0971C216.633 18.0951 215.614 18.2654 214.646 18.6007C213.882 18.8611 213.168 19.2506 212.537 19.7523C212.433 19.8637 212.377 20.011 212.38 20.1629C212.383 20.3149 212.446 20.4597 212.554 20.5666V20.5666L213.767 21.8061C213.879 21.9167 214.03 21.9788 214.188 21.9788C214.346 21.9788 214.497 21.9167 214.609 21.8061C214.907 21.5417 215.237 21.316 215.592 21.1345C216.138 20.8649 216.739 20.7278 217.348 20.7345C217.985 20.7238 218.605 20.9396 219.096 21.3432C219.554 21.7213 219.8 22.396 219.835 23.4801C219.823 23.5497 219.788 23.6131 219.734 23.6593C219.681 23.7054 219.613 23.7314 219.542 23.7327V23.7327C219.087 23.7327 218.597 23.7327 218.085 23.7594C217.453 23.7765 216.822 23.8289 216.195 23.9163C215.575 23.9994 214.963 24.1332 214.365 24.3163C213.803 24.4839 213.271 24.7414 212.791 25.0788C212.337 25.4037 211.965 25.8283 211.702 26.3199C211.417 26.889 211.279 27.5198 211.299 28.1555C211.287 28.7358 211.411 29.3109 211.663 29.8343C211.896 30.3068 212.232 30.7217 212.646 31.0486C213.075 31.3842 213.565 31.635 214.088 31.7876C215.395 32.1718 216.794 32.1032 218.057 31.5931C218.615 31.3674 219.107 31.006 219.488 30.5419H219.526C219.566 30.5234 219.611 30.5175 219.655 30.5247C219.699 30.532 219.739 30.5522 219.772 30.5827C219.809 30.6219 219.831 30.6731 219.833 30.727V31.1804C219.838 31.3281 219.898 31.4686 220.003 31.5736C220.107 31.6787 220.247 31.7406 220.395 31.7468H222.847C222.997 31.7412 223.139 31.6788 223.243 31.5723C223.348 31.4658 223.408 31.3233 223.411 31.1742V25.3597C223.42 24.1791 223.334 22.9997 223.154 21.8327C223.007 21.0991 222.691 20.4095 222.231 19.8182L222.236 19.779ZM219.836 27.0353C219.845 27.3953 219.761 27.7515 219.591 28.0692C219.427 28.3606 219.196 28.6091 218.917 28.7941C218.626 28.9869 218.307 29.134 217.972 29.2303C217.614 29.3365 217.243 29.3894 216.869 29.3871C216.431 29.3868 216.001 29.271 215.622 29.0514C215.434 28.9544 215.277 28.8053 215.171 28.6219C215.066 28.4385 215.016 28.2286 215.027 28.0175C215.017 27.8282 215.05 27.639 215.124 27.4645C215.198 27.2899 215.312 27.1346 215.455 27.0102C215.759 26.7593 216.112 26.5739 216.491 26.4658C216.906 26.3455 217.334 26.2724 217.765 26.2477C218.214 26.221 218.583 26.2085 218.868 26.2085H219.542C219.617 26.2132 219.687 26.2459 219.738 26.3C219.79 26.3541 219.819 26.4256 219.82 26.5003L219.836 27.0353Z" fill="#242E30"/>
<path d="M255.673 19.779C255.21 19.2086 254.6 18.7747 253.908 18.5239C253.004 18.2118 252.05 18.0672 251.094 18.0971C250.07 18.0952 249.053 18.2654 248.086 18.6007C247.32 18.8613 246.604 19.2508 245.97 19.7523C245.867 19.8647 245.812 20.0119 245.816 20.1636C245.82 20.3152 245.882 20.4595 245.99 20.5666V20.5666L247.203 21.8061C247.315 21.9167 247.466 21.9788 247.624 21.9788C247.782 21.9788 247.933 21.9167 248.045 21.8061C248.345 21.5416 248.676 21.316 249.033 21.1346C249.577 20.8649 250.178 20.7278 250.785 20.7345C251.422 20.7249 252.041 20.9406 252.533 21.3432C252.992 21.7214 253.234 22.396 253.27 23.4801C253.26 23.5507 253.224 23.615 253.17 23.6614C253.115 23.7078 253.046 23.7331 252.974 23.7327V23.7327C252.522 23.7327 252.029 23.7327 251.522 23.7594C250.89 23.7764 250.259 23.8288 249.633 23.9163C249.013 24.0007 248.401 24.1345 247.803 24.3164C247.24 24.4839 246.708 24.7414 246.228 25.0789C245.773 25.4024 245.4 25.8274 245.14 26.3199C244.855 26.889 244.716 27.5198 244.737 28.1556C244.723 28.7359 244.848 29.3112 245.1 29.8343C245.332 30.3086 245.669 30.7239 246.086 31.0487C246.516 31.387 247.006 31.6395 247.532 31.7923C248.84 32.1765 250.24 32.1079 251.503 31.5978C252.062 31.3741 252.555 31.0123 252.935 30.5466H252.973C253.013 30.5282 253.057 30.5223 253.1 30.5295C253.144 30.5368 253.184 30.557 253.215 30.5874C253.234 30.6064 253.249 30.6289 253.26 30.6536C253.27 30.6784 253.275 30.7049 253.275 30.7317V31.1852C253.282 31.3329 253.344 31.4728 253.449 31.5775C253.553 31.6822 253.694 31.7443 253.842 31.7515H256.291C256.441 31.746 256.583 31.6838 256.689 31.5774C256.795 31.4711 256.857 31.3286 256.861 31.1789V25.3597C256.869 24.1789 256.781 22.9994 256.598 21.8327C256.451 21.0996 256.137 20.4101 255.678 19.8182L255.673 19.779ZM253.278 27.0353C253.289 27.3951 253.206 27.7515 253.036 28.0693C252.871 28.3596 252.641 28.6078 252.363 28.7941C252.073 28.9871 251.754 29.1342 251.418 29.2303C251.061 29.3365 250.689 29.3894 250.316 29.3872C249.878 29.3871 249.447 29.2712 249.069 29.0514C248.88 28.9544 248.724 28.8053 248.618 28.6219C248.513 28.4385 248.462 28.2286 248.474 28.0175C248.464 27.8284 248.497 27.6396 248.571 27.4651C248.645 27.2907 248.758 27.1352 248.9 27.0102C249.205 26.7593 249.558 26.5739 249.938 26.4658C250.353 26.3456 250.781 26.2724 251.212 26.2477C251.65 26.2211 252.02 26.2085 252.314 26.2085H252.988C253.063 26.2133 253.133 26.246 253.185 26.3001C253.236 26.3543 253.265 26.4258 253.266 26.5003L253.278 27.0353Z" fill="#242E30"/>
<path d="M209.498 19.8951C208.985 19.3138 208.347 18.8553 207.632 18.5537C206.855 18.2358 206.022 18.0757 205.183 18.083C204.249 18.0802 203.322 18.2395 202.443 18.5537C201.618 18.8507 200.861 19.3065 200.213 19.8951C199.578 20.4802 199.07 21.1888 198.72 21.9771C197.992 23.9717 197.992 26.1578 198.72 28.1524C199.067 28.9406 199.576 29.6481 200.213 30.2297C200.858 30.8225 201.616 31.2793 202.443 31.5727C203.321 31.89 204.249 32.0494 205.183 32.0434C206.204 32.0427 207.213 31.8222 208.14 31.397C208.866 31.0769 209.524 30.621 210.077 30.054C210.177 29.9453 210.232 29.8034 210.232 29.6563C210.232 29.5091 210.177 29.3672 210.077 29.2585L208.32 27.961L208.192 27.87C208.08 27.8064 207.949 27.7811 207.821 27.7981C207.692 27.8151 207.573 27.8734 207.48 27.9642C207.232 28.2373 206.951 28.4787 206.643 28.6827C206.155 28.977 205.592 29.1242 205.022 29.1063C204.32 29.1236 203.636 28.8848 203.098 28.4348C202.509 27.8335 202.156 27.0411 202.104 26.2022C202.104 26.1338 202.129 26.0676 202.173 26.0154C202.217 25.9631 202.279 25.9282 202.347 25.9167H210.558C210.708 25.9079 210.85 25.8424 210.954 25.7334C211.057 25.6244 211.116 25.4802 211.117 25.3299V24.6882C211.131 23.7668 210.991 22.8496 210.702 21.974C210.451 21.2086 210.049 20.5009 209.52 19.892L209.498 19.8951ZM206.921 23.2495H202.4C202.325 23.2484 202.253 23.2191 202.199 23.1672C202.144 23.1154 202.112 23.045 202.107 22.9702C202.144 22.7586 202.207 22.5524 202.296 22.3568C202.425 22.0736 202.611 21.8199 202.843 21.6115C203.089 21.3844 203.373 21.2032 203.684 21.0765C204.048 20.9339 204.436 20.8646 204.827 20.8726C205.149 20.8613 205.469 20.9176 205.768 21.0379C206.066 21.1582 206.336 21.3397 206.559 21.5707C206.934 21.9462 207.162 22.4423 207.203 22.9702C207.198 23.0453 207.165 23.1157 207.11 23.1675C207.055 23.2192 206.983 23.2485 206.907 23.2495" fill="#242E30"/>
<path d="M194.57 25.25L194.482 25.1292C194.427 25.0385 194.398 24.9346 194.398 24.8287C194.398 24.7228 194.427 24.6189 194.482 24.5283L199.029 18.8895C199.065 18.8482 199.088 18.7972 199.096 18.7429C199.104 18.6886 199.096 18.6332 199.072 18.5834C199.049 18.5336 199.012 18.4915 198.966 18.4623C198.919 18.4331 198.865 18.418 198.81 18.4188H195.235C195.052 18.4183 194.872 18.4597 194.708 18.54C194.544 18.6203 194.401 18.7372 194.29 18.8817L194.095 19.1295L190.603 23.601L190.558 23.6544L190.529 23.681H190.506C190.466 23.7001 190.422 23.7065 190.378 23.6995C190.335 23.6925 190.295 23.6723 190.263 23.6418C190.235 23.6114 190.216 23.574 190.207 23.5335V12.733C190.199 12.5895 190.138 12.4538 190.037 12.3513C189.936 12.2488 189.801 12.1865 189.657 12.176H186.856C186.71 12.1874 186.574 12.2515 186.473 12.3561C186.371 12.4608 186.312 12.5987 186.306 12.744V31.1539C186.312 31.3006 186.374 31.4397 186.478 31.5439C186.582 31.6481 186.721 31.7098 186.868 31.7171H189.635C189.781 31.7107 189.919 31.6505 190.023 31.5481C190.127 31.4458 190.189 31.3086 190.197 31.1633V25.9513C190.205 25.9106 190.225 25.873 190.254 25.843C190.285 25.8125 190.326 25.7923 190.369 25.7853C190.412 25.7783 190.457 25.7848 190.496 25.8038H190.52C190.532 25.8092 190.542 25.8186 190.548 25.8305V25.8305V25.8462L190.618 25.9277L194.011 31.008L194.207 31.2558C194.316 31.3969 194.457 31.5114 194.617 31.591C194.777 31.6706 194.953 31.7131 195.133 31.7155H198.912C198.954 31.7092 198.993 31.6907 199.024 31.6622C199.069 31.6202 199.099 31.5651 199.111 31.5048C199.123 31.4445 199.115 31.382 199.088 31.3265L194.57 25.25Z" fill="#242E30"/>
<path d="M244.937 19.346C244.982 19.2207 245.005 19.0885 245.004 18.9553C245.006 18.9318 245.006 18.9083 245.004 18.8847C244.978 18.7568 244.909 18.6413 244.81 18.5562C244.71 18.471 244.586 18.4211 244.455 18.4141H242.234C241.963 18.4136 241.7 18.5056 241.488 18.6749C241.277 18.8441 241.13 19.0804 241.072 19.3444V19.3444L241.001 19.6096L239.129 26.458C239.082 26.5103 239.016 26.5424 238.946 26.5474C238.902 26.5442 238.86 26.53 238.824 26.5061C238.787 26.4823 238.757 26.4495 238.737 26.4109L238.713 26.3011L236.844 19.3837L236.814 19.2597C236.736 19.0202 236.585 18.8112 236.381 18.663C236.177 18.5147 235.931 18.4347 235.678 18.4345H233.266C232.996 18.4334 232.734 18.5239 232.523 18.691C232.312 18.8581 232.164 19.0919 232.104 19.3539V19.3539V19.4166L232.053 19.6253L230.348 26.4454C230.333 26.4719 230.313 26.495 230.289 26.5136C230.265 26.5322 230.237 26.5457 230.208 26.5535C230.179 26.5612 230.148 26.563 230.118 26.5588C230.088 26.5545 230.059 26.5442 230.033 26.5286C229.999 26.5079 229.971 26.4794 229.951 26.4454L227.929 19.619L227.831 19.3052C227.834 19.2849 227.834 19.2643 227.831 19.244C227.75 19.0102 227.598 18.8072 227.396 18.6635C227.194 18.5198 226.952 18.4425 226.704 18.4423H224.258C224.127 18.4496 224.002 18.4996 223.903 18.5847C223.804 18.6698 223.735 18.7852 223.708 18.913V18.913C223.707 18.9375 223.707 18.9622 223.708 18.9867C223.709 19.1198 223.732 19.2519 223.776 19.3774L227.798 30.9561C227.812 31.0006 227.83 31.0437 227.852 31.0848C227.94 31.2719 228.076 31.4325 228.246 31.5501C228.416 31.6678 228.615 31.7384 228.822 31.7547H231.184C231.422 31.7365 231.649 31.6476 231.836 31.4993C232.023 31.351 232.16 31.1503 232.231 30.9232V30.9232L232.329 30.5874L234.182 23.9477C234.204 23.9191 234.231 23.8955 234.263 23.8787C234.294 23.8618 234.329 23.8522 234.365 23.8504C234.401 23.8531 234.436 23.8634 234.468 23.8807C234.5 23.8981 234.528 23.922 234.549 23.9508L236.675 30.7176C236.715 30.8459 236.763 30.9712 236.82 31.0926C236.908 31.2799 237.044 31.4407 237.214 31.5587C237.385 31.6766 237.583 31.7475 237.79 31.7641H240.088C240.294 31.7484 240.493 31.6779 240.663 31.5598C240.833 31.4417 240.968 31.2804 241.055 31.0926C241.081 31.0424 241.163 30.8181 241.212 30.6674L244.992 19.47C244.993 19.4451 245 19.4209 245.012 19.3994" fill="#242E30"/>
<path d="M270.594 18.8754C270.582 18.8427 270.572 18.8092 270.565 18.775C270.52 18.6756 270.449 18.5901 270.359 18.5275C270.27 18.4648 270.165 18.4273 270.056 18.4189H267.694C267.473 18.4264 267.258 18.4951 267.075 18.6174C266.891 18.7396 266.745 18.9104 266.653 19.1108V19.1108C266.637 19.1453 266.624 19.1814 266.612 19.2175L266.596 19.2787C266.585 19.3106 266.576 19.343 266.568 19.3759L266.498 19.6003L264.352 26.5946L264.322 26.6793C264.306 26.7413 264.269 26.7959 264.218 26.8339C264.166 26.872 264.103 26.8911 264.039 26.888C263.98 26.8898 263.922 26.8732 263.873 26.8405C263.824 26.8079 263.787 26.7608 263.766 26.706L261.212 19.5971L261.182 19.5061L261.01 19.0261C260.91 18.8447 260.764 18.6927 260.587 18.5851C260.41 18.4774 260.207 18.418 259.999 18.4126H257.335C257.241 18.4302 257.153 18.4699 257.078 18.5283C257.003 18.5867 256.943 18.6621 256.903 18.7483C256.89 18.7785 256.879 18.8101 256.872 18.8425V18.8425C256.854 18.9441 256.861 19.0485 256.892 19.1469L261.973 31.4787C262.05 31.7373 262.035 32.0148 261.928 32.2632V32.3008L261.836 32.533C261.7 32.8672 261.569 33.1763 261.448 33.4383C261.337 33.686 261.184 33.913 260.996 34.1098C260.801 34.2984 260.564 34.4396 260.305 34.5224C259.96 34.6275 259.601 34.6763 259.24 34.6668H257.557C257.406 34.6708 257.262 34.7326 257.155 34.8396C257.048 34.9465 256.987 35.0902 256.984 35.241V37.3481C256.988 37.4991 257.05 37.6429 257.157 37.7497C257.264 37.8566 257.408 37.9183 257.56 37.9223H259.815C260.577 37.9446 261.337 37.8531 262.072 37.6509C262.599 37.4944 263.084 37.2202 263.489 36.8492C263.873 36.4751 264.185 36.0337 264.409 35.5469C264.651 35.024 264.902 34.4288 265.16 33.7615L270.598 19.1171C270.613 19.0404 270.613 18.9615 270.598 18.8848" fill="#242E30"/>
<path d="M270.059 29.0218C269.869 29.0162 269.681 29.0518 269.506 29.126C269.332 29.2002 269.175 29.3114 269.048 29.4517C268.782 29.7184 268.632 30.0797 268.633 30.456C268.634 30.8323 268.785 31.1929 269.053 31.4584C269.32 31.7238 269.683 31.8725 270.061 31.8716C270.438 31.8707 270.8 31.7204 271.067 31.4536L271.1 31.4223C271.354 31.1569 271.496 30.804 271.496 30.437C271.496 30.07 271.354 29.7171 271.1 29.4517C270.972 29.312 270.816 29.2013 270.641 29.1272C270.467 29.053 270.278 29.0171 270.089 29.0218" fill="#242E30"/>
<path d="M294.281 19.9093C293.687 19.3325 292.981 18.8824 292.207 18.5867C290.515 17.9607 288.653 17.9607 286.961 18.5867C286.187 18.8815 285.481 19.3317 284.889 19.9093C284.309 20.4844 283.851 21.1694 283.541 21.9239C283.204 22.7083 283.043 24.2553 283.043 25.2186C283.031 26.2338 283.199 27.243 283.541 28.1996C283.851 28.9646 284.316 29.6575 284.907 30.235C285.498 30.8125 286.203 31.262 286.977 31.5555C288.669 32.1816 290.53 32.1816 292.222 31.5555C293 31.2575 293.708 30.8042 294.303 30.2235C294.881 29.6476 295.339 28.9635 295.651 28.2106C295.991 27.2536 296.159 26.2446 296.148 25.2296C296.148 24.2694 295.98 22.7193 295.651 21.9348C295.339 21.1814 294.881 20.4968 294.303 19.9203L294.281 19.9093ZM293.64 27.3618C293.449 27.8971 293.149 28.3875 292.759 28.8021C292.369 29.2126 291.901 29.5412 291.382 29.7685C290.23 30.2329 288.942 30.2329 287.791 29.7685C287.273 29.5392 286.805 29.2108 286.413 28.8021C286.027 28.3855 285.729 27.8957 285.538 27.3618C285.325 26.6629 285.219 25.9363 285.223 25.2061C285.219 24.3727 285.325 23.5426 285.538 22.7366C285.725 22.2036 286.022 21.7154 286.409 21.3027C286.796 20.89 287.265 20.5619 287.786 20.3392C288.936 19.8654 290.227 19.8654 291.377 20.3392C291.897 20.5638 292.366 20.8916 292.755 21.3026C293.145 21.7169 293.445 22.2073 293.635 22.7428C293.84 23.55 293.94 24.3798 293.934 25.2123C293.941 25.9416 293.84 26.6679 293.635 27.3681" fill="#242E30"/>
<path d="M274.974 21.3324C275.324 20.9074 275.77 20.5705 276.275 20.3487C276.846 20.1119 277.461 19.9975 278.079 20.0129C278.659 20.002 279.234 20.1165 279.764 20.3487C280.158 20.5395 280.517 20.7951 280.826 21.1049C280.932 21.1981 281.067 21.2509 281.209 21.2537C281.35 21.2566 281.488 21.2094 281.597 21.1206L282.342 20.4491C282.453 20.3478 282.522 20.2081 282.533 20.0585C282.544 19.9089 282.497 19.7607 282.402 19.6442C281.896 19.1845 281.309 18.8227 280.67 18.5774C279.845 18.2605 278.967 18.1008 278.083 18.1067C277.198 18.0961 276.321 18.2614 275.501 18.5931C274.742 18.8975 274.054 19.3547 273.479 19.9361C272.914 20.5221 272.473 21.2158 272.183 21.9757C271.572 23.995 271.572 26.1489 272.183 28.1683C272.471 28.9269 272.909 29.6204 273.47 30.2079C274.032 30.7961 274.716 31.2545 275.475 31.5509C277.13 32.1815 278.96 32.1815 280.615 31.5509C281.254 31.3014 281.837 30.9282 282.33 30.4526C282.423 30.3413 282.471 30.1995 282.466 30.0547C282.46 29.9098 282.401 29.7721 282.3 29.6682L281.67 29.0531C281.56 28.953 281.416 28.8975 281.267 28.8975C281.118 28.8975 280.974 28.953 280.864 29.0531C280.505 29.4196 280.074 29.7067 279.597 29.896C279.12 30.0852 278.608 30.1722 278.095 30.1514C277.508 30.1582 276.926 30.0377 276.39 29.7984C275.89 29.5665 275.447 29.2298 275.09 28.8115C274.726 28.3815 274.442 27.89 274.251 27.3603C274.046 26.6162 273.946 25.8474 273.952 25.0759C273.947 24.3063 274.035 23.5388 274.213 22.7899C274.372 22.2594 274.631 21.7637 274.975 21.3293" fill="#242E30"/>
<path d="M315.651 21.1235C315.512 20.5327 315.243 19.9801 314.863 19.506C314.477 19.0536 313.981 18.707 313.422 18.4987C312.716 18.2426 311.968 18.1223 311.218 18.1441C310.403 18.1094 309.598 18.3235 308.909 18.7576C308.404 19.1137 307.964 19.5543 307.61 20.0598V20.0598L307.548 20.1477L307.518 20.1916C307.499 20.2135 307.474 20.2307 307.447 20.2421C307.42 20.2535 307.39 20.2588 307.361 20.2575C307.322 20.2577 307.284 20.2472 307.251 20.2273C307.217 20.2074 307.19 20.1788 307.172 20.1445C307.172 20.121 307.134 20.0833 307.117 20.0473C307.057 19.9484 306.995 19.848 306.933 19.7335C306.747 19.4422 306.512 19.1853 306.238 18.9741C305.899 18.7185 305.523 18.5158 305.123 18.3732C304.122 18.0603 303.052 18.0429 302.041 18.323C301.625 18.442 301.228 18.6184 300.862 18.847C300.525 19.0491 300.219 19.2991 299.955 19.5891C299.868 19.6864 299.797 19.7837 299.715 19.8841L299.692 19.9108C299.685 19.9265 299.675 19.9405 299.662 19.9515V19.9515C299.635 19.9788 299.601 19.9983 299.564 20.0079C299.527 20.0175 299.488 20.0168 299.451 20.006C299.415 19.9952 299.381 19.9747 299.356 19.9466C299.33 19.9184 299.312 19.8838 299.304 19.8464V18.9976C299.299 18.8484 299.238 18.7066 299.131 18.6013C299.025 18.496 298.882 18.4352 298.733 18.4312H297.994C297.842 18.4365 297.698 18.5002 297.592 18.609C297.486 18.7178 297.426 18.8633 297.426 19.0149V31.1334C297.428 31.2852 297.489 31.4303 297.596 31.5385C297.703 31.6466 297.848 31.7094 298 31.7139H298.887C299.042 31.7086 299.189 31.6437 299.297 31.5329C299.405 31.422 299.466 31.2738 299.466 31.1192V24.7086C299.461 24.0654 299.535 23.424 299.689 22.7992C299.817 22.2656 300.046 21.761 300.363 21.3118C300.668 20.8929 301.076 20.5582 301.547 20.3391C302.089 20.1022 302.676 19.9875 303.268 20.0033C304.108 20.0033 304.711 20.2863 305.077 20.8521C305.444 21.418 305.627 22.3803 305.627 23.739V31.1239C305.629 31.2775 305.69 31.4244 305.798 31.5338C305.906 31.6433 306.052 31.7067 306.207 31.7107H307.095C307.25 31.7055 307.397 31.6406 307.505 31.5297C307.613 31.4189 307.674 31.2706 307.674 31.1161V23.6182C307.667 23.1159 307.751 22.6166 307.925 22.1449C308.072 21.7256 308.3 21.3392 308.597 21.0074C308.88 20.6971 309.224 20.4478 309.608 20.2747C309.995 20.0998 310.416 20.0104 310.841 20.0127C311.347 19.9938 311.85 20.0927 312.31 20.3014C312.673 20.4755 312.988 20.7351 313.227 21.0576C313.456 21.3797 313.617 21.7448 313.699 22.1308C313.784 22.5338 313.827 22.9444 313.827 23.3561V31.1428C313.831 31.2946 313.893 31.4392 314.001 31.5466C314.109 31.6541 314.254 31.7162 314.406 31.7201H315.291C315.447 31.716 315.594 31.6518 315.702 31.541C315.81 31.4302 315.871 31.2817 315.871 31.1271V23.2526C315.881 22.5351 315.803 21.8192 315.639 21.1204" fill="#242E30"/>
<path d="M52.0322 13.4358H47.0354C45.415 13.4358 45.415 13.4358 45.078 15.3185C44.741 17.2012 44.7394 17.2703 46.226 17.2703H49.196L47.5079 26.8894C47.1032 29.042 46.1583 30.5215 43.256 31.397C42.5127 31.5978 42.3111 31.8676 42.3111 32.2034C42.3111 32.6082 42.445 32.9439 42.7835 33.7504C43.256 34.8941 43.5268 35.0965 43.9315 35.0965C44.3363 35.0965 45.0796 34.8941 45.3489 34.8282C49.4685 33.4821 51.1566 30.3207 51.8306 26.5537L53.7204 15.728C54.0574 13.4358 54.0574 13.4358 52.0322 13.4358Z" fill="#242E30"/>
<path d="M68.98 13.4359C66.9549 13.4359 66.9549 13.4359 66.684 15.1162L65.199 23.863C64.7943 26.4188 64.1187 27.8983 61.6211 27.8983C59.1896 27.8983 58.314 26.4188 58.7172 24.1329L60.1329 15.7893C60.5392 13.4359 60.4715 13.4359 58.3786 13.4359C56.3518 13.4359 56.2841 13.4359 56.0164 15.0503L54.5314 23.7908C53.6527 28.7691 56.7581 31.863 61.1455 31.863C66.0746 31.863 68.5722 29.643 69.3832 24.3964L70.8682 15.7171C71.2052 13.4312 71.0698 13.4312 68.9785 13.4312" fill="#242E30"/>
<path d="M78.2303 27.7618C79.8523 27.6959 80.7295 26.9553 80.7295 26.2148C80.7295 25.2734 79.5815 24.9377 78.0287 24.4654C74.9894 23.5241 72.2209 22.4478 72.2209 19.2189C72.2209 15.3844 75.3957 13.2993 79.3783 13.2993C81.0665 13.2993 82.9578 13.3668 84.1735 13.5001C85.2538 13.6351 85.5231 13.9708 85.1861 15.6527C84.8491 17.3346 84.4428 17.4695 83.4979 17.4021C82.3499 17.3346 80.8649 17.2013 79.109 17.2013C77.0838 17.2013 76.476 17.9402 76.476 18.6133C76.476 19.4872 77.2854 19.9594 79.1767 20.496C82.6869 21.5048 84.9829 22.9169 84.9829 25.9449C84.9829 29.5095 82.3499 31.5931 78.0964 31.7296C76.0647 31.8009 74.0307 31.6885 72.0193 31.3938C70.6682 31.1914 70.602 31.1914 70.939 29.2413C71.2761 27.4919 71.276 27.3585 72.5595 27.4919C75.0571 27.7602 76.6098 27.8277 78.2287 27.7602" fill="#242E30"/>
<path d="M100.31 13.4358H88.8994C87.279 13.4358 87.279 13.4358 86.942 15.386C86.605 17.3362 86.6711 17.3362 88.09 17.3362H91.8033L89.7105 29.3762C89.3042 31.7296 89.3719 31.7296 91.4648 31.7296C93.4238 31.7296 93.4915 31.7296 93.7608 30.0477L95.9214 17.3393H99.5025C101.123 17.3393 101.123 17.3393 101.46 15.3891C101.797 13.4389 101.797 13.4358 100.31 13.4358Z" fill="#242E30"/>
<path d="M120.433 17.2686C122.053 17.2686 122.053 17.2686 122.39 15.3169C122.727 13.3651 122.729 13.3667 121.242 13.3667H113.072C110.168 13.3667 110.238 13.3667 109.765 16.2582L107.671 28.4348C107.131 31.5962 107.198 31.5962 110.102 31.5962H118.069C119.757 31.5962 119.69 31.5962 120.028 29.7134C120.365 27.7617 120.365 27.7617 118.88 27.7617H111.992L112.532 24.2614H118.272C119.825 24.2614 119.825 24.2614 120.094 22.4446C120.365 20.5618 120.365 20.5618 118.272 20.5618H113.203L113.743 17.2671L120.433 17.2686Z" fill="#242E30"/>
<path d="M129.075 23.7264L131.708 17.9401C131.911 17.4695 131.911 17.4695 132.248 17.4695C132.585 17.4695 132.587 17.4695 132.655 18.0076L133.464 23.7264H129.075ZM136.233 15.6526C135.828 13.3667 135.828 13.3667 132.587 13.3667C129.548 13.3667 129.615 13.3667 128.671 15.2494L121.85 29.4389C120.838 31.4581 121.041 31.6589 123.538 31.6589C125.497 31.6589 125.497 31.6589 126.307 29.8437L127.387 27.4212H134.001L134.34 29.8437C134.609 31.6589 134.677 31.6589 136.634 31.6589C138.862 31.6589 139.066 31.5256 138.661 29.3055L136.233 15.6526Z" fill="#242E30"/>
<path d="M152.371 13.4358H140.892C139.272 13.4358 139.272 13.4358 138.933 15.386C138.595 17.3362 138.664 17.3362 140.081 17.3362H143.795L141.707 29.3762C141.302 31.7296 141.37 31.7296 143.462 31.7296C145.42 31.7296 145.488 31.7296 145.758 30.0477L147.919 17.3393H151.497C153.117 17.3393 153.117 17.3393 153.456 15.3891C153.861 13.4389 153.861 13.4389 152.376 13.4389" fill="#242E30"/>
<path d="M35.5364 17.7079C35.4246 17.4176 33.8766 14.57 31.0042 10.9975C30.931 10.9112 30.885 10.8054 30.8719 10.6932V10.6932C30.6983 8.612 30.4092 6.54201 30.0057 4.49273C29.96 4.28711 29.8509 4.10091 29.6936 3.96023C29.5362 3.81955 29.3387 3.73144 29.1286 3.70826V3.70826L26.1365 3.34897C26.1103 3.34664 26.084 3.34664 26.0578 3.34897C25.8907 3.34897 25.7305 3.41509 25.6124 3.53278C25.4942 3.65048 25.4279 3.8101 25.4279 3.97655V5.00891C25.4279 5.01889 25.4239 5.02847 25.4168 5.03553C25.4097 5.04259 25.4001 5.04656 25.3901 5.04656C25.3808 5.04676 25.3717 5.04339 25.3649 5.03715C23.4994 3.34772 21.485 1.82913 19.3461 0.499786V0.499786C18.9086 0.207996 18.3938 0.0528548 17.8673 0.054208V0.054208C17.3409 0.0528548 16.826 0.207996 16.3886 0.499786C6.0801 6.84613 0.407734 17.143 0.18884 17.7079C0.124491 17.8436 0.0911003 17.9918 0.0910645 18.1419C0.0910287 18.292 0.124349 18.4402 0.188633 18.576C0.252917 18.7117 0.346569 18.8316 0.462867 18.927C0.579164 19.0224 0.715222 19.0909 0.861271 19.1278L3.82973 19.6973C4.02597 19.7509 4.20154 19.862 4.33377 20.0161C4.46599 20.1702 4.54879 20.3603 4.57146 20.5618C4.59508 21.0842 5.15728 32.7461 5.8612 35.771C5.91917 35.9883 6.04756 36.1803 6.22641 36.3174C6.40525 36.4544 6.62454 36.5287 6.85016 36.5288H6.87221C8.60447 36.4849 10.1903 36.4566 11.9115 36.4331H12.0532C12.1414 36.4323 12.2257 36.3969 12.2878 36.3347C12.35 36.2724 12.3851 36.1883 12.3855 36.1005V36.0926C12.3147 35.0744 12.1651 32.7461 12.0438 30.2876C12.0438 30.2264 12.0359 30.1495 12.0328 30.0868C12.0247 29.9862 11.9925 29.8891 11.9387 29.8036C11.885 29.7181 11.8114 29.6468 11.7241 29.5957C11.2719 29.327 10.8932 28.9513 10.6215 28.5019C10.3498 28.0526 10.1936 27.5434 10.1667 27.0195C10.0092 22.9309 9.93201 18.2036 10.1556 14.5057C10.1588 14.348 10.2246 14.198 10.3388 14.0887C10.4529 13.9793 10.606 13.9197 10.7643 13.9228C10.9226 13.9259 11.0731 13.9916 11.1829 14.1053C11.2926 14.219 11.3524 14.3715 11.3493 14.5292V14.5763C11.2029 17.0411 11.1918 19.9561 11.2422 22.832C11.2439 22.9247 11.2639 23.0162 11.301 23.1012C11.3381 23.1863 11.3917 23.2632 11.4587 23.3276C11.5257 23.392 11.6047 23.4426 11.6913 23.4765C11.7779 23.5105 11.8704 23.5271 11.9635 23.5255C12.0565 23.5238 12.1484 23.5039 12.2337 23.4669C12.3191 23.4299 12.3962 23.3765 12.4609 23.3098C12.5255 23.2431 12.5763 23.1643 12.6104 23.078C12.6445 22.9918 12.6612 22.8996 12.6595 22.8069C12.606 19.9122 12.6217 16.9783 12.7713 14.5057C12.7729 14.4276 12.7899 14.3506 12.8213 14.279C12.8527 14.2075 12.898 14.1428 12.9545 14.0887C13.011 14.0345 13.0777 13.992 13.1507 13.9636C13.2237 13.9351 13.3016 13.9213 13.38 13.9228C13.4584 13.9244 13.5357 13.9413 13.6075 13.9726C13.6793 14.0039 13.7442 14.049 13.7986 14.1053C13.8529 14.1616 13.8956 14.228 13.9241 14.3008C13.9527 14.3735 13.9666 14.4511 13.965 14.5292C13.965 14.5449 13.965 14.5606 13.965 14.5763C13.8201 17.0285 13.8075 19.9263 13.8579 22.7865C13.8609 22.9738 13.9383 23.1522 14.0733 23.2825C14.2083 23.4129 14.3897 23.4845 14.5776 23.4815C14.7656 23.4786 14.9446 23.4015 15.0755 23.267C15.2063 23.1325 15.2782 22.9518 15.2752 22.7645V22.7645C15.2217 19.8824 15.2374 16.9595 15.3871 14.5041C15.3886 14.426 15.4056 14.349 15.437 14.2774C15.4684 14.2059 15.5137 14.1412 15.5702 14.0871C15.6267 14.033 15.6934 13.9905 15.7664 13.962C15.8394 13.9335 15.9173 13.9197 15.9957 13.9212C16.0741 13.9228 16.1514 13.9397 16.2232 13.971C16.295 14.0023 16.36 14.0474 16.4143 14.1037C16.4686 14.16 16.5113 14.2264 16.5398 14.2992C16.5684 14.3719 16.5823 14.4495 16.5807 14.5276C16.5807 14.5433 16.5807 14.559 16.5807 14.5747C16.3681 18.1707 16.4374 22.7206 16.5807 26.7136C16.5807 26.7136 16.5807 26.7481 16.5807 26.7512C16.5807 26.7543 16.5807 26.792 16.5807 26.8124V26.8516C16.5812 27.3696 16.4549 27.8799 16.2129 28.3383C15.9709 28.7968 15.6204 29.1896 15.1918 29.4827C15.1157 29.5352 15.0524 29.604 15.0066 29.6841C14.9608 29.7642 14.9337 29.8536 14.9272 29.9456C14.9272 29.9456 14.8548 30.559 15.1256 33.529C15.2532 34.8265 15.3493 35.7255 15.3949 36.1319C15.4049 36.2078 15.4425 36.2775 15.5005 36.3278C15.5585 36.3781 15.633 36.4055 15.7099 36.4049H15.9855C16.5571 36.4049 17.1477 36.4049 17.7602 36.4049H17.9902H20.2138L21.8972 36.419C21.9746 36.4195 22.0495 36.3917 22.1075 36.3408C22.1656 36.2898 22.2029 36.2194 22.2122 36.1429C22.6027 32.5829 22.694 30.5825 22.694 30.5825C22.6919 30.4972 22.6588 30.4156 22.6009 30.3527C22.543 30.2898 22.4642 30.25 22.3791 30.2405L20.3319 29.9597C20.1958 29.943 20.0677 29.8869 19.9635 29.7981C19.8593 29.7094 19.7837 29.5921 19.746 29.4608C19.7204 29.3583 19.7119 29.2522 19.7209 29.147C20.5382 17.2748 24.4641 13.2788 24.4641 13.2788C24.5223 13.2204 24.5861 13.1678 24.6546 13.1219C24.7325 13.0657 24.8223 13.028 24.917 13.0117C25.0118 12.9955 25.1091 13.001 25.2013 13.028C25.2936 13.0549 25.3785 13.1026 25.4494 13.1673C25.5203 13.2319 25.5754 13.3119 25.6105 13.4011C25.6385 13.494 25.6554 13.5899 25.6609 13.6867C25.9995 17.416 25.8342 23.764 25.6247 28.7155C25.4468 32.9187 25.231 36.2182 25.231 36.2182C25.231 36.2831 25.2569 36.3453 25.303 36.3912C25.349 36.4371 25.4115 36.4629 25.4767 36.4629V36.4629C26.5916 36.4817 27.6814 36.5037 28.853 36.5335H28.8751C29.1007 36.5335 29.32 36.4591 29.4988 36.3221C29.6777 36.185 29.806 35.993 29.864 35.7757V35.7757C30.5679 32.7508 31.1238 21.0889 31.1538 20.5665C31.176 20.3648 31.2587 20.1746 31.391 20.0204C31.5232 19.8662 31.699 19.7553 31.8955 19.702L34.864 19.1325C35.01 19.0957 35.1461 19.0271 35.2624 18.9317C35.3787 18.8363 35.4723 18.7164 35.5366 18.5807C35.6009 18.4449 35.6342 18.2967 35.6342 18.1466C35.6341 17.9965 35.6007 17.8483 35.5364 17.7126V17.7079Z" fill="#242E30"/>
</svg>
