<svg width="70" height="44" viewBox="0 0 70 44" fill="none" xmlns="http://www.w3.org/2000/svg">
<path d="M48.5329 14.2706C48.4478 14.0399 47.2578 11.8419 45.0355 9.0732C44.9748 9.00033 44.9384 8.92747 44.9384 8.84247C44.8048 7.22737 44.5862 5.63657 44.2705 4.04576C44.1976 3.71788 43.9304 3.47501 43.5904 3.43858L41.2953 3.15928C41.271 3.15928 41.2589 3.15928 41.2346 3.15928C40.9674 3.15928 40.7488 3.37786 40.7488 3.64502V4.4465C40.7488 4.45864 40.7367 4.47078 40.7245 4.47078C40.7124 4.47078 40.7124 4.47078 40.7003 4.45864C39.2552 3.14714 37.7008 1.98135 36.0493 0.949151C35.7092 0.718423 35.3207 0.609131 34.9078 0.609131C34.4949 0.609131 34.1063 0.730566 33.7663 0.949151C25.8244 5.85515 21.4406 13.8335 21.2705 14.2706C21.0884 14.6592 21.2584 15.1328 21.6591 15.315C21.7077 15.3393 21.7441 15.3514 21.7927 15.3636L24.0879 15.8007C24.4036 15.8857 24.6222 16.1529 24.6586 16.4686C24.6829 16.8694 25.1079 25.9042 25.6544 28.2479C25.7515 28.5879 26.0551 28.8308 26.4194 28.8308H26.4316C27.7674 28.7943 28.9939 28.7701 30.3175 28.7579H30.4268C30.5725 28.7579 30.6818 28.6365 30.6818 28.5029C30.6332 27.7136 30.5118 25.9163 30.4147 24.0098C30.4147 23.9612 30.4147 23.9005 30.4025 23.8519C30.3904 23.694 30.3054 23.5483 30.1718 23.4633C29.4675 23.0383 29.0181 22.2975 28.9696 21.4718C28.8481 18.3023 28.7874 14.6471 28.9574 11.7812C28.9696 11.5262 29.2003 11.3319 29.4432 11.3562C29.686 11.3683 29.8682 11.5626 29.8682 11.8055C29.8682 11.8176 29.8682 11.8298 29.8682 11.8419C29.7589 13.7485 29.7468 16.0072 29.7832 18.2294C29.7832 18.533 30.0382 18.7759 30.3418 18.7638C30.6454 18.7638 30.8883 18.5087 30.8761 18.2052C30.8397 15.9707 30.8518 13.6878 30.9611 11.7812C30.9611 11.5262 31.1797 11.3198 31.4347 11.3319C31.6897 11.344 31.8962 11.5505 31.884 11.8055V11.8419C31.7747 13.7363 31.7626 15.9829 31.799 18.193C31.799 18.4966 32.054 18.7395 32.3576 18.7273C32.6612 18.7273 32.9041 18.4723 32.8919 18.1687C32.8555 15.9343 32.8677 13.6756 32.9769 11.7691C32.9769 11.5141 33.1955 11.3076 33.4505 11.3198C33.7056 11.3319 33.912 11.5383 33.8999 11.7934C33.8999 11.8055 33.8999 11.8176 33.8999 11.8298C33.7298 14.6107 33.7906 18.1323 33.8999 21.2289V21.2532C33.8999 21.2532 33.8999 21.2775 33.8999 21.3018V21.3382C33.8999 22.1518 33.4991 22.9169 32.8312 23.3783C32.7098 23.4633 32.6369 23.5969 32.6248 23.7305C32.6248 23.7305 32.5641 24.2041 32.7826 26.4992C32.8798 27.5071 32.9527 28.1993 32.9891 28.515C33.0012 28.6365 33.1105 28.7215 33.232 28.7215H33.4505H34.8228H35.0049C35.6 28.7215 36.1707 28.7215 36.7172 28.7215L38.0165 28.7336C38.138 28.7336 38.2473 28.6365 38.2594 28.515C38.563 25.7585 38.6237 24.2162 38.6237 24.2162C38.6237 24.0826 38.5144 23.9612 38.3808 23.9491L36.8022 23.7305C36.5836 23.7062 36.4136 23.5483 36.3529 23.3419C36.3286 23.2569 36.3286 23.184 36.3286 23.099C36.9722 13.9185 39.9959 10.8219 39.9959 10.8219C40.0445 10.7733 40.0931 10.7369 40.1416 10.7004C40.2267 10.6397 40.3238 10.6033 40.4209 10.6033C40.6152 10.6033 40.7974 10.7247 40.8703 10.9069C40.8946 10.9797 40.9067 11.0526 40.9067 11.1255C41.1739 14.0156 41.0403 18.9216 40.8824 22.759C40.7488 26.0135 40.5788 28.5636 40.5788 28.5636C40.5788 28.6729 40.6638 28.7579 40.761 28.7579C41.6232 28.7701 42.4611 28.7943 43.3597 28.8065H43.3718C43.724 28.8065 44.0397 28.5636 44.1369 28.2236C44.6833 25.8799 45.1084 16.8572 45.1327 16.4565C45.1691 16.1408 45.3998 15.8736 45.7034 15.7886L47.9985 15.3514C48.3507 15.2664 48.5936 14.9507 48.5936 14.5864C48.6179 14.4892 48.5936 14.3799 48.5329 14.2706Z" fill="#FF8000"/>
<path d="M17.6518 36.2262C17.3603 35.8862 16.9839 35.6191 16.571 35.449C16.1217 35.2669 15.6359 35.1819 15.1502 35.1819C14.6159 35.1819 14.0816 35.2669 13.5715 35.449C13.0979 35.6191 12.6608 35.8862 12.2843 36.2262C11.92 36.5663 11.6286 36.9791 11.4221 37.4284C10.9971 38.5821 10.9971 39.845 11.4221 41.0108C11.6286 41.4723 11.92 41.8851 12.2843 42.213C12.6608 42.553 13.0979 42.8202 13.5715 42.9902C14.0816 43.1723 14.6159 43.2574 15.1502 43.2574C15.7452 43.2574 16.3281 43.1359 16.8624 42.8809C17.2875 42.6988 17.6639 42.4316 17.9797 42.1037C18.1011 41.9701 18.1011 41.7758 17.9797 41.6423L16.9596 40.8772L16.8867 40.8286C16.7532 40.7558 16.5831 40.7801 16.4739 40.8894C16.3281 41.0472 16.1703 41.1929 15.9881 41.3022C15.7088 41.4723 15.3809 41.5573 15.0531 41.5451C14.6523 41.5573 14.2516 41.4115 13.948 41.1565C13.608 40.8044 13.4015 40.355 13.3651 39.8693C13.3651 39.7843 13.4258 39.7114 13.5108 39.6993H18.2468C18.429 39.6871 18.5747 39.5414 18.5747 39.3593V38.995C18.5747 38.4606 18.5018 37.9263 18.3318 37.4163C18.1861 36.967 17.9554 36.5663 17.6518 36.2141M16.1338 38.1571H13.5473C13.4623 38.1571 13.3772 38.0842 13.3772 37.9992C13.4015 37.8778 13.438 37.7563 13.4865 37.647C13.5594 37.477 13.6687 37.3313 13.8023 37.2099C14.118 36.9306 14.5309 36.7727 14.9438 36.7848C15.3202 36.7727 15.6845 36.9184 15.9517 37.1856C16.1703 37.4042 16.3038 37.6956 16.3281 37.9992C16.3281 38.0842 16.2431 38.1571 16.1581 38.1571" fill="#FF8000"/>
<path d="M23.7114 35.364H22.5456C22.4606 35.364 22.3878 35.2911 22.3756 35.194V34.6354C22.3756 34.1618 22.4606 33.8461 22.6428 33.6882C22.8735 33.5182 23.165 33.4332 23.4564 33.4575H23.9664C24.1486 33.4575 24.2943 33.3117 24.2943 33.1174V31.9031C24.2943 31.7209 24.1486 31.5631 23.9543 31.5631H22.9828C22.4849 31.5509 21.9749 31.6238 21.5013 31.7938C21.1613 31.9274 20.8698 32.146 20.6391 32.4253C20.4327 32.7046 20.2991 33.0203 20.2384 33.3603C20.1655 33.7368 20.1291 34.1132 20.1291 34.4897V35.2061C20.1169 35.2911 20.0441 35.3519 19.9591 35.3519H18.9876C18.8054 35.3519 18.6597 35.4976 18.6476 35.6797V36.8212C18.6597 37.0034 18.8054 37.1491 18.9876 37.1491H19.9591C20.0441 37.1491 20.1169 37.2098 20.1291 37.2827V42.7351C20.1291 42.9173 20.2748 43.0752 20.4569 43.0752H22.0478C22.2299 43.063 22.3756 42.9173 22.3756 42.7351V37.2827C22.3878 37.2098 22.4606 37.1491 22.5335 37.1491H23.6993C23.8814 37.1491 24.0272 37.0034 24.0272 36.8212V35.6797C24.0514 35.5097 23.9057 35.364 23.7114 35.364Z" fill="#FF8000"/>
<path d="M9.26057 31.7573C8.5441 31.7451 7.94907 32.328 7.93692 33.0566C7.92478 33.7731 8.50767 34.3681 9.23628 34.3803C9.95275 34.3924 10.5478 33.8095 10.5599 33.0809C10.5599 32.7288 10.4264 32.4009 10.1835 32.1459C9.94061 31.903 9.61273 31.7573 9.26057 31.7573Z" fill="#FF8000"/>
<path d="M10.0378 35.364H8.48339C8.30124 35.364 8.14337 35.5097 8.14337 35.6919V42.7473C8.14337 42.9295 8.30124 43.0752 8.48339 43.0752H10.0621C10.2442 43.0752 10.3899 42.9295 10.4021 42.7473V35.6919C10.3899 35.5097 10.2321 35.364 10.0378 35.364Z" fill="#FF8000"/>
<path d="M37.0208 35.1818H36.5957C36.1586 35.1697 35.7214 35.279 35.3571 35.5218C35.1142 35.6918 34.9078 35.9104 34.7378 36.1533L34.7135 36.1897C34.7135 36.2019 34.7014 36.214 34.6892 36.2262C34.6649 36.2505 34.6406 36.2626 34.6042 36.2626C34.5435 36.2626 34.4949 36.2262 34.4828 36.1654V35.6918C34.4828 35.5097 34.3249 35.3518 34.1427 35.3518H32.5884C32.4062 35.3518 32.2605 35.4854 32.2484 35.6676V42.7715C32.2605 42.9416 32.4062 43.0751 32.5762 43.0751H34.1549C34.337 43.063 34.4706 42.9173 34.4828 42.7473V39.6142C34.4828 39.2863 34.4949 38.9585 34.5435 38.6306C34.5678 38.3513 34.6649 38.0841 34.8106 37.8534C34.9564 37.6348 35.1507 37.4527 35.3935 37.3555C35.6485 37.2462 35.9279 37.1855 36.2072 37.1855H37.0208C37.2029 37.1855 37.3487 37.0398 37.3608 36.8698V35.534C37.3487 35.364 37.2029 35.2182 37.0329 35.2182" fill="#FF8000"/>
<path d="M30.694 36.2262C30.4025 35.8862 30.0261 35.6191 29.6132 35.449C29.1639 35.2669 28.6781 35.1819 28.1924 35.1819C27.6581 35.1819 27.1237 35.2669 26.6137 35.449C26.1401 35.6191 25.703 35.8862 25.3265 36.2262C24.9622 36.5663 24.6707 36.9791 24.4643 37.4284C24.0393 38.5821 24.0393 39.845 24.4643 41.0108C24.6707 41.4723 24.9622 41.8851 25.3265 42.213C25.703 42.553 26.1401 42.8202 26.6137 42.9902C27.1237 43.1723 27.6581 43.2574 28.1924 43.2574C28.7874 43.2574 29.3703 43.1238 29.9046 42.8809C30.3297 42.6988 30.7061 42.4316 31.0218 42.1037C31.1433 41.9701 31.1433 41.7758 31.0218 41.6423L30.0018 40.8894L29.9289 40.8408C29.7953 40.7679 29.6253 40.7922 29.516 40.9015C29.3703 41.0594 29.2124 41.2051 29.0303 41.3144C28.751 41.4844 28.4231 41.5694 28.0952 41.5573C27.6945 41.5694 27.2938 41.4358 26.9902 41.1687C26.6502 40.8165 26.4437 40.3672 26.4073 39.8814C26.4073 39.7964 26.468 39.7236 26.553 39.7114H31.289C31.4711 39.6993 31.6169 39.5536 31.6169 39.3714V39.0071C31.6169 38.4728 31.544 37.9385 31.374 37.4284C31.2161 36.9791 30.9854 36.5663 30.694 36.2262ZM29.176 38.1571H26.5773C26.4923 38.1571 26.4073 38.0842 26.4073 37.9992C26.4316 37.8778 26.468 37.7563 26.5166 37.647C26.5894 37.477 26.6987 37.3313 26.8323 37.2099C27.148 36.9306 27.5609 36.7727 27.9738 36.7848C28.3502 36.7727 28.7146 36.9184 28.9817 37.1856C29.2003 37.4042 29.3217 37.6956 29.346 37.9992C29.346 38.0842 29.261 38.1571 29.176 38.1571Z" fill="#FF8000"/>
<path d="M6.97758 40.9136H3.12807C3.04306 40.9136 2.98235 40.8407 2.9702 40.7679V32.8017C2.9702 32.6195 2.82448 32.4738 2.64233 32.4617H0.954372C0.772219 32.4738 0.626495 32.6195 0.626495 32.8017V42.7351C0.626495 42.9294 0.784362 43.0751 0.966516 43.0751H6.95329C7.13545 43.0751 7.29331 42.9294 7.29331 42.7473V41.2536C7.29331 41.0715 7.14759 40.9257 6.97758 40.9136Z" fill="#FF8000"/>
<path d="M43.5054 36.1776C43.2383 35.8497 42.8861 35.5947 42.4854 35.449C41.9632 35.2668 41.4167 35.194 40.8703 35.2061C40.2874 35.2061 39.7045 35.3033 39.1459 35.4976C38.7087 35.6554 38.2958 35.874 37.9315 36.1655C37.8101 36.299 37.8101 36.5055 37.9437 36.6391L38.648 37.3555C38.7816 37.4891 39.0002 37.4891 39.1216 37.3555C39.2916 37.1977 39.4859 37.0762 39.6923 36.9669C40.0081 36.8091 40.3481 36.7362 40.7003 36.7362C41.0646 36.7241 41.4289 36.8577 41.7082 37.0884C41.9753 37.307 42.1089 37.6956 42.1332 38.327C42.121 38.412 42.0482 38.4727 41.9632 38.4727C41.696 38.4727 41.4167 38.4727 41.1253 38.4849C40.761 38.497 40.3967 38.5213 40.0324 38.582C39.6802 38.6306 39.328 38.7035 38.9759 38.8128C38.648 38.9099 38.3444 39.0556 38.0651 39.2499C37.7979 39.4321 37.5915 39.6871 37.4336 39.9664C37.2758 40.2943 37.1908 40.6586 37.2029 41.0229C37.1908 41.3629 37.2636 41.6908 37.4093 41.9944C37.5429 42.2737 37.7372 42.5044 37.9801 42.6987C38.223 42.893 38.5023 43.0387 38.8059 43.1237C39.1216 43.2209 39.4495 43.2695 39.7773 43.2695C40.2267 43.2695 40.6638 43.1844 41.0888 43.0144C41.4046 42.8809 41.696 42.6744 41.9146 42.4073H41.9389C41.9875 42.383 42.0482 42.383 42.0846 42.4315C42.1089 42.4558 42.121 42.4801 42.121 42.5166V42.7716C42.1332 42.9537 42.2668 43.0873 42.4489 43.0994H43.8576C44.0397 43.0873 44.1855 42.9416 44.1855 42.7594V39.3957C44.1855 38.7156 44.1369 38.0356 44.0397 37.3555C43.9547 36.9305 43.7726 36.5298 43.5054 36.1776ZM42.121 40.3671C42.1332 40.7679 41.9389 41.1565 41.5989 41.3872C41.4289 41.4965 41.2467 41.5815 41.0524 41.6422C40.846 41.7029 40.6274 41.7272 40.4209 41.7272C40.1659 41.7272 39.9231 41.6544 39.7045 41.5329C39.4859 41.4236 39.3523 41.1929 39.3645 40.95C39.3523 40.7314 39.4373 40.5129 39.6073 40.3671C39.7773 40.2214 39.9838 40.1121 40.2024 40.0514C40.4452 39.9785 40.6881 39.9421 40.931 39.93C41.186 39.9178 41.4046 39.9057 41.5624 39.9057H41.951C42.036 39.9057 42.1089 39.9785 42.1089 40.0757L42.121 40.3671Z" fill="#FF8000"/>
<path d="M51.508 36.1412C51.3016 35.8255 51.0223 35.5704 50.6823 35.4126C50.2451 35.2183 49.7715 35.1333 49.2979 35.1454C49.0429 35.1454 48.7879 35.1819 48.545 35.2547C48.3264 35.3154 48.12 35.4126 47.9257 35.5219C47.7557 35.6312 47.5978 35.7526 47.4642 35.8983C47.4156 35.9469 47.3792 35.9955 47.3306 36.044C47.3064 36.0683 47.2821 36.0805 47.2456 36.0805C47.1728 36.0805 47.1242 36.0319 47.1242 35.959V35.6676C47.1242 35.4733 46.9663 35.3276 46.7842 35.3276H45.3148C45.1205 35.3276 44.9748 35.4854 44.9626 35.6676V42.7473C44.9748 42.9294 45.1327 43.0752 45.3148 43.0752H46.8813C47.0635 43.0752 47.2213 42.9294 47.2213 42.7473V39.0071C47.2213 38.7763 47.2335 38.5456 47.2699 38.3149C47.3064 38.1084 47.3671 37.9142 47.4642 37.732C47.5614 37.5498 47.7071 37.4041 47.8771 37.307C48.0957 37.1977 48.3386 37.137 48.5814 37.1491C49.0307 37.1005 49.4436 37.3677 49.6015 37.7927C49.6743 37.9992 49.7229 38.2056 49.7351 38.4242C49.7472 38.6549 49.7594 38.8735 49.7594 39.0799V42.7716C49.7715 42.9537 49.9172 43.0995 50.0994 43.0995H51.6659C51.848 43.0995 52.0059 42.9537 52.0059 42.7716V38.6185C52.0059 38.157 51.9695 37.7077 51.8966 37.2584C51.8359 36.8698 51.7023 36.4934 51.4959 36.1533" fill="#FF8000"/>
<path d="M60.2636 31.7695H58.6849C58.5028 31.7695 58.357 31.9153 58.357 32.1096V35.8862C58.3449 35.9469 58.2963 35.9955 58.2356 35.9955C58.1992 35.9955 58.1627 35.9833 58.1384 35.9469L58.102 35.9105C58.0899 35.8983 58.0777 35.8862 58.0656 35.8741C57.847 35.6798 57.6041 35.5219 57.3248 35.4247C56.8998 35.279 56.4626 35.2062 56.0133 35.2062C55.5276 35.194 55.054 35.3033 54.6168 35.5219C54.2161 35.7283 53.8518 36.0198 53.5725 36.3841C53.281 36.7605 53.0624 37.1734 52.9167 37.6227C52.601 38.7399 52.601 39.9179 52.941 41.0229C53.0989 41.4601 53.3417 41.873 53.6696 42.213C53.9853 42.553 54.3739 42.8202 54.799 42.9902C55.2604 43.1845 55.7583 43.2816 56.2683 43.2695C56.5112 43.2695 56.7662 43.2331 56.9969 43.1602C57.2277 43.0995 57.4341 43.0023 57.6406 42.893C57.8227 42.7959 57.9927 42.6745 58.1506 42.5287C58.1992 42.4802 58.2477 42.4316 58.2842 42.3952L58.3206 42.3587C58.3692 42.3101 58.442 42.3101 58.4906 42.3587C58.5027 42.3709 58.5149 42.3952 58.527 42.4194V42.7595C58.527 42.9416 58.6728 43.0995 58.8549 43.0995H60.2514C60.4336 43.0873 60.5793 42.9416 60.5793 42.7595V32.1217C60.6036 31.9274 60.4579 31.7695 60.2636 31.7695ZM58.0656 40.7679C57.3127 41.448 56.1712 41.448 55.4183 40.7679C55.1025 40.4279 54.9447 39.7357 54.9447 39.1892C54.9447 38.6428 55.1025 38.0113 55.4183 37.6713C56.1712 36.9913 57.3127 36.9913 58.0656 37.6713C58.3813 38.0113 58.5392 38.6428 58.5392 39.1892C58.5392 39.7357 58.3813 40.44 58.0656 40.7679Z" fill="#FF8000"/>
<path d="M68.0233 36.3963C67.6468 36.0563 67.2097 35.7891 66.7361 35.6191C65.716 35.2669 64.5988 35.2669 63.5787 35.6191C63.1051 35.7891 62.668 36.0563 62.2915 36.3963C61.9272 36.7363 61.6358 37.137 61.4293 37.5985C61.0043 38.7521 61.0043 40.0151 61.4293 41.1809C61.6236 41.6423 61.9151 42.043 62.2915 42.3831C62.668 42.7231 63.1051 42.9902 63.5787 43.1603C64.5988 43.5124 65.716 43.5124 66.7361 43.1603C67.2097 42.9902 67.6468 42.7231 68.0233 42.3831C68.3876 42.043 68.679 41.6302 68.8855 41.1809C69.2984 40.0272 69.2984 38.7643 68.8855 37.5985C68.679 37.137 68.3876 36.7363 68.0233 36.3963ZM66.4811 40.938C65.7282 41.618 64.5867 41.618 63.8338 40.938C63.518 40.598 63.3602 39.9422 63.3602 39.3836C63.3602 38.825 63.518 38.1692 63.8338 37.8292C64.5867 37.1492 65.7282 37.1492 66.4811 37.8292C66.7968 38.1692 66.9547 38.825 66.9547 39.3836C66.9547 39.9422 66.7968 40.5858 66.4811 40.938Z" fill="#FF8000"/>
</svg>
