<svg width="27" height="43" viewBox="0 0 27 43" fill="none" xmlns="http://www.w3.org/2000/svg">
<path d="M19.1176 32.6309C19.1292 32.5894 19.1313 32.5458 19.1238 32.5034C19.1163 32.461 19.0994 32.4209 19.0744 32.3864C19.0494 32.3519 19.017 32.3238 18.9797 32.3044C18.9424 32.285 18.9013 32.2748 18.8595 32.2746H16.5651L13.7521 42.1265L12.6816 37.3351L15.9537 32.7205C15.9757 32.6904 15.9918 32.6562 16.0013 32.6198L16.0584 32.4171C16.0622 32.3997 16.0623 32.3816 16.0587 32.3641C16.0551 32.3466 16.0478 32.3302 16.0374 32.3159C16.027 32.3016 16.0137 32.2899 15.9984 32.2815C15.9831 32.2731 15.9663 32.2682 15.949 32.2672H13.6189L11.1211 36.0537L12.1916 32.6235C12.2032 32.5821 12.2053 32.5384 12.1978 32.496C12.1903 32.4536 12.1734 32.4135 12.1484 32.379C12.1234 32.3445 12.0909 32.3164 12.0536 32.297C12.0164 32.2776 11.9752 32.2674 11.9335 32.2672H9.62598L7.62893 39.2701C7.67294 38.0673 6.77017 37.1188 6.24444 36.5193C5.81862 36.0279 5.56171 35.6839 5.6081 35.2969C5.64074 35.0397 5.7599 34.8025 5.94472 34.6269C6.12954 34.4513 6.36825 34.3483 6.61911 34.3361C7.19241 34.2894 7.43981 34.4713 7.80854 34.6482C7.85033 34.6698 7.89623 34.6815 7.94294 34.6826C7.98046 34.6826 8.01763 34.6751 8.05237 34.6605C8.09095 34.6453 8.12569 34.6213 8.15393 34.5902C8.18217 34.5592 8.20316 34.5218 8.21532 34.4811L8.75294 32.6075L8.37232 32.4343L8.31761 32.4085L8.29977 32.3999C7.85801 32.2063 7.38201 32.1101 6.90219 32.1173C4.88017 32.1173 3.04012 33.6125 2.7392 35.4504C2.52748 36.738 3.32558 37.6459 3.9084 38.3081L3.95955 38.3658C4.38061 38.8327 4.67321 39.1951 4.60303 39.6153C4.50669 40.2038 3.95241 40.5404 3.4136 40.5859C2.82602 40.635 2.46206 40.463 1.99937 40.2566C1.91913 40.2078 1.82472 40.19 1.73294 40.2062C1.68885 40.2204 1.64878 40.2455 1.61623 40.2793C1.58368 40.3132 1.55964 40.3547 1.5462 40.4004L1.03475 42.2113L0.96814 42.4422C1.64835 42.7718 2.38771 42.9509 3.13884 42.9681C4.86232 42.9681 6.3503 42.285 7.23642 40.6338L6.71426 42.4766C6.70205 42.5182 6.69956 42.5621 6.707 42.6048C6.71445 42.6475 6.73161 42.6878 6.75708 42.7224C6.78214 42.7569 6.81462 42.785 6.85198 42.8044C6.88934 42.8238 6.93055 42.834 6.97237 42.8342H9.27748L9.85316 40.8107L10.5561 39.7652L11.0973 42.6105C11.1092 42.6735 11.1419 42.7303 11.1899 42.7711C11.2378 42.8119 11.298 42.8342 11.3602 42.8342H16.2107L19.1176 32.6309Z" fill="#242E30"/>
<path d="M25.2885 33.0718C25.0644 32.8189 24.7914 32.6174 24.4871 32.4805C24.1828 32.3435 23.8541 32.2742 23.5222 32.2769H19.7017L19.5388 32.8359C19.5316 32.8616 19.5297 32.8886 19.5334 32.9151C19.5371 32.9416 19.5462 32.967 19.5602 32.9895L19.6684 33.1664C19.7209 33.2517 19.7549 33.3476 19.7681 33.4477C19.7812 33.5478 19.7732 33.6497 19.7445 33.7463L17.2634 42.4692C17.2515 42.5104 17.2489 42.5538 17.256 42.5962C17.263 42.6386 17.2794 42.6787 17.3039 42.7134C17.3285 42.7482 17.3604 42.7766 17.3974 42.7964C17.4343 42.8163 17.4751 42.8271 17.5167 42.8279H19.7445L20.4392 40.4027H21.4419C23.8623 40.4346 25.0886 38.6827 25.6358 36.771C25.8594 35.9909 25.9652 35.4319 25.9617 35.051C25.9486 34.2279 25.75 33.6001 25.2885 33.0718ZM23.4472 35.2943C23.3976 35.8543 23.256 36.4014 23.0286 36.9123C22.7431 37.5696 22.4778 38.0586 21.7273 38.147H21.0731L22.0972 34.5559L22.9584 34.5621C23.0166 34.5591 23.0748 34.5685 23.1294 34.5896C23.1841 34.6108 23.2339 34.6432 23.276 34.6849C23.4104 34.8287 23.4615 35.0302 23.4472 35.2943Z" fill="#242E30"/>
<path d="M26.812 13.8385C26.7276 13.6112 25.5584 11.3814 23.3889 8.58391C23.3336 8.51634 23.2988 8.43344 23.2889 8.34557C23.1576 6.71714 22.9392 5.09746 22.6348 3.49394C22.6002 3.33293 22.5178 3.18712 22.399 3.07696C22.2801 2.9668 22.1309 2.8978 21.9722 2.87965L19.7183 2.59708C19.6985 2.59586 19.6786 2.59586 19.6588 2.59708C19.5326 2.59708 19.4116 2.64886 19.3224 2.74102C19.2332 2.83318 19.183 2.95817 19.183 3.08851V3.89691C19.183 3.90078 19.1823 3.90462 19.1809 3.90819C19.1794 3.91177 19.1773 3.91502 19.1747 3.91776C19.172 3.9205 19.1689 3.92267 19.1654 3.92415C19.162 3.92563 19.1582 3.9264 19.1545 3.9264C19.1475 3.92655 19.1407 3.92391 19.1355 3.91902C17.7231 2.59683 16.1984 1.40852 14.58 0.368452C14.2496 0.139964 13.8607 0.0184785 13.4631 0.0195381C13.0655 0.0184785 12.6766 0.139964 12.3462 0.368452C4.56378 5.32697 0.279466 13.3913 0.118893 13.8385C0.0702909 13.9448 0.045071 14.0608 0.045044 14.1784C0.0450169 14.2959 0.0701833 14.412 0.118737 14.5183C0.16729 14.6246 0.238026 14.7184 0.325865 14.7931C0.413704 14.8679 0.516468 14.9215 0.626779 14.9504L2.86885 15.3963C3.01707 15.4384 3.14968 15.5253 3.24955 15.646C3.34941 15.7667 3.41195 15.9155 3.42907 16.0733C3.44691 16.4812 3.87154 25.6144 4.40321 27.9831C4.44699 28.1532 4.54397 28.3036 4.67905 28.4109C4.81413 28.5182 4.97976 28.5764 5.15017 28.5765H5.16682C6.47519 28.5421 7.67295 28.5199 8.96704 28.5015H9.07409C9.14067 28.5009 9.20432 28.4732 9.25128 28.4244C9.29825 28.3757 9.32475 28.3098 9.32506 28.2411V28.2349C9.27154 27.4376 9.15854 25.6144 9.06696 23.6892C9.06696 23.6413 9.06101 23.5811 9.05863 23.5319C9.05469 23.4521 9.03193 23.3744 8.99234 23.3057C8.95275 23.237 8.89752 23.1793 8.83145 23.1376C8.48996 22.9271 8.20397 22.6329 7.99879 22.281C7.79361 21.9292 7.67556 21.5305 7.65511 21.1203C7.53616 17.9174 7.47788 14.2169 7.64678 11.3199C7.6493 11.1964 7.69922 11.079 7.78554 10.9936C7.87187 10.9081 7.98753 10.8615 8.10709 10.8641C8.22665 10.8667 8.3403 10.9183 8.42306 11.0075C8.50582 11.0966 8.55089 11.2161 8.54836 11.3396V11.3765C8.43775 13.3065 8.42942 15.5892 8.46748 17.8412C8.46873 17.9138 8.48382 17.9854 8.51187 18.052C8.53992 18.1186 8.5804 18.1788 8.63098 18.2292C8.68157 18.2797 8.74127 18.3193 8.80669 18.3459C8.87211 18.3725 8.94195 18.3855 9.01224 18.3842C9.08253 18.3829 9.15189 18.3674 9.21635 18.3384C9.28081 18.3094 9.33911 18.2676 9.38793 18.2153C9.43675 18.1631 9.47512 18.1014 9.50087 18.0339C9.52661 17.9663 9.53922 17.8941 9.53797 17.8215C9.49753 15.5548 9.50942 13.2574 9.62242 11.3199C9.62494 11.1964 9.67486 11.079 9.76118 10.9936C9.84751 10.9081 9.96317 10.8615 10.0827 10.8641C10.2023 10.8667 10.3159 10.9183 10.3987 11.0075C10.4815 11.0966 10.5265 11.2161 10.524 11.3396C10.524 11.3519 10.524 11.3642 10.524 11.3765C10.4146 13.2967 10.4051 15.5659 10.4431 17.8056C10.4453 17.9522 10.5038 18.0919 10.6058 18.194C10.7077 18.296 10.8447 18.3521 10.9867 18.3498C11.1286 18.3475 11.2639 18.2871 11.3627 18.1818C11.4615 18.0765 11.5158 17.935 11.5136 17.7884C11.4732 15.5315 11.4851 13.2427 11.5981 11.3187C11.5993 11.2576 11.6122 11.1973 11.636 11.1413C11.6598 11.0853 11.6941 11.0347 11.7368 10.9923C11.7796 10.95 11.83 10.9168 11.8851 10.8946C11.9403 10.8724 11.9992 10.8616 12.0584 10.8629C12.1176 10.8642 12.1759 10.8775 12.2302 10.9021C12.2844 10.9267 12.3334 10.9621 12.3743 11.0062C12.4153 11.0504 12.4475 11.1024 12.469 11.1594C12.4905 11.2164 12.5009 11.2772 12.4996 11.3384C12.4996 11.3507 12.4996 11.3629 12.4996 11.3752C12.3391 14.1899 12.3914 17.754 12.4996 20.8807C12.4996 20.8807 12.4996 20.9077 12.4996 20.9102C12.4996 20.9126 12.4996 20.9421 12.4996 20.9569V20.9876C12.5 21.3932 12.4046 21.7928 12.2218 22.1518C12.039 22.5107 11.7743 22.8183 11.4506 23.0479C11.3931 23.089 11.3453 23.1429 11.3107 23.2056C11.2761 23.2683 11.2556 23.3383 11.2507 23.4103C11.2507 23.4103 11.196 23.8907 11.4006 26.2164C11.497 27.2324 11.5695 27.9364 11.604 28.2546C11.6116 28.3141 11.6399 28.3686 11.6837 28.408C11.7276 28.4474 11.7838 28.4689 11.8419 28.4683H12.05C12.483 28.4683 12.9278 28.4683 13.3905 28.4683H13.5642C14.1494 28.4683 14.706 28.4683 15.2437 28.4683L16.5152 28.4794C16.5736 28.4798 16.6301 28.458 16.674 28.4182C16.7179 28.3783 16.746 28.3231 16.753 28.2632C17.048 25.4755 17.117 23.9091 17.117 23.9091C17.1154 23.8423 17.0904 23.7784 17.0467 23.7291C17.0029 23.6799 16.9434 23.6487 16.8791 23.6413L15.3329 23.4214C15.23 23.4083 15.1331 23.3641 15.0544 23.2944C14.9757 23.2246 14.9186 23.1325 14.8904 23.0295C14.8709 22.9492 14.8645 22.8662 14.8714 22.7837C15.4982 13.4921 18.4634 10.3604 18.4634 10.3604C18.5074 10.3147 18.5556 10.2735 18.6074 10.2376C18.6662 10.1936 18.734 10.1641 18.8055 10.1513C18.8771 10.1386 18.9506 10.1429 19.0203 10.164C19.09 10.1851 19.154 10.2225 19.2076 10.2731C19.2612 10.3238 19.3028 10.3864 19.3293 10.4563C19.3505 10.529 19.3632 10.604 19.3674 10.6799C19.6231 13.6002 19.4982 18.571 19.34 22.4483C19.2056 25.7397 19.0427 28.3234 19.0427 28.3234C19.0427 28.3742 19.0622 28.423 19.097 28.4589C19.1318 28.4948 19.179 28.515 19.2282 28.515C20.0704 28.5298 20.8994 28.547 21.7784 28.5703H21.795C21.9654 28.5703 22.1311 28.5121 22.2661 28.4047C22.4012 28.2974 22.4982 28.147 22.542 27.9769C23.0737 25.6082 23.4935 16.475 23.5161 16.0671C23.5329 15.9093 23.5954 15.7603 23.6953 15.6395C23.7952 15.5188 23.928 15.4319 24.0763 15.3902L26.3184 14.9442C26.4287 14.9154 26.5315 14.8617 26.6193 14.787C26.7072 14.7123 26.7779 14.6184 26.8265 14.5121C26.875 14.4058 26.9002 14.2898 26.9001 14.1722C26.9001 14.0547 26.8749 13.9386 26.8263 13.8324L26.812 13.8385Z" fill="#242E30"/>
</svg>
