<svg width="57" height="44" viewBox="0 0 57 44" fill="none" xmlns="http://www.w3.org/2000/svg">
<path d="M0 33.4605C0 33.2852 0.140501 33.1436 0.314278 33.1436H4.22735C6.25475 33.1436 7.38615 34.5219 7.38615 36.1228C7.38615 36.8673 7.00902 37.5969 6.34842 38.0879C7.29125 38.5477 7.88776 39.3395 7.88776 40.3698C7.88776 42.0652 6.61463 43.4436 4.22612 43.4436H0.314278C0.140501 43.4436 0 43.3019 0 43.1266V33.4605ZM3.85022 37.2787C4.49479 37.2787 4.94957 36.8822 4.94957 36.2483C4.94957 35.6468 4.49356 35.2341 3.85022 35.2341H2.63994C2.55366 35.2341 2.48218 35.305 2.48218 35.3932V37.1209C2.48218 37.2079 2.55243 37.28 2.63994 37.28H3.85022V37.2787ZM4.07083 41.3517C4.85714 41.3517 5.39079 40.9876 5.39079 40.2418C5.39079 39.5135 4.85714 39.1332 4.07083 39.1332H2.64117C2.5549 39.1332 2.48341 39.204 2.48341 39.2922V41.1939C2.48341 41.2809 2.55366 41.353 2.64117 41.353H4.07083V41.3517Z" fill="#FF8000"/>
<path d="M8.99573 35.6279H10.6928C10.8666 35.6279 11.0071 35.7696 11.0071 35.9449V43.1389C11.0071 43.3141 10.8666 43.4558 10.6928 43.4558H8.99573C8.82196 43.4558 8.68146 43.3141 8.68146 43.1389V35.9449C8.68146 35.7696 8.82196 35.6279 8.99573 35.6279Z" fill="#FF8000"/>
<path d="M14.5467 40.3211C13.2896 40.0999 12.1582 39.4014 12.1582 37.9435C12.1582 36.3277 13.5731 35.4241 15.5364 35.4241C16.8625 35.4241 17.8682 35.8206 18.4684 36.319C18.6077 36.4346 18.6262 36.6421 18.5067 36.7788L17.5897 37.813C17.48 37.9372 17.2939 37.9546 17.1645 37.8527C16.7726 37.5445 16.181 37.358 15.6313 37.358C15.0348 37.358 14.5307 37.501 14.5307 37.9285C14.5307 38.3723 15.2221 38.468 16.3696 38.673C17.6267 38.8943 18.7581 39.5766 18.7581 41.0346C18.7581 42.6665 17.2804 43.6335 15.2702 43.6335C13.8011 43.6335 12.7104 43.2519 12.0855 42.715C11.9524 42.6006 11.9426 42.3981 12.0584 42.2663L12.9975 41.1962C13.1023 41.0768 13.281 41.052 13.4104 41.1452C13.9022 41.5007 14.5295 41.6685 15.2394 41.6685C15.8988 41.6685 16.3868 41.5094 16.3868 41.0818C16.3856 40.6381 15.6942 40.5275 14.5467 40.3211Z" fill="#FF8000"/>
<path d="M20.3554 40.3685V37.8019C20.3554 37.7149 20.2851 37.6428 20.1976 37.6428H19.4273C19.2535 37.6428 19.113 37.5011 19.113 37.3259V35.9313C19.113 35.7561 19.2535 35.6144 19.4273 35.6144H20.1976C20.2839 35.6144 20.3554 35.5435 20.3554 35.4553V33.8072C20.3554 33.6319 20.4959 33.4902 20.6696 33.4902H22.3667C22.5405 33.4902 22.681 33.6319 22.681 33.8072V35.4553C22.681 35.5423 22.7513 35.6144 22.8388 35.6144H24.8502C25.0239 35.6144 25.1644 35.7561 25.1644 35.9313V37.3259C25.1644 37.5011 25.0239 37.6428 24.8502 37.6428H22.8388C22.7525 37.6428 22.681 37.7137 22.681 37.8019V40.3685C22.681 41.1615 23.089 41.5257 23.7188 41.5257C24.0059 41.5257 24.2771 41.4399 24.5112 41.3007C24.669 41.2075 24.8711 41.2659 24.9524 41.4312L25.5416 42.6194C25.6093 42.7574 25.5699 42.9239 25.4479 43.0159C24.9019 43.4311 24.1378 43.6162 23.2627 43.6162C21.3463 43.6175 20.3554 42.5399 20.3554 40.3685Z" fill="#FF8000"/>
<path d="M26.7592 35.6157H28.3146C28.4884 35.6157 28.6289 35.7574 28.6289 35.9326V36.6138H28.6597C29.0368 35.996 29.7751 35.4255 30.8436 35.4255C31.1283 35.4255 31.4068 35.4492 31.6657 35.5001C31.8444 35.5362 31.9553 35.7164 31.9097 35.8929L31.4709 37.5609C31.4253 37.7361 31.2429 37.8343 31.0716 37.7809C30.8831 37.7224 30.676 37.6901 30.4677 37.6901C29.478 37.6901 28.7706 38.3712 28.7706 39.5284V43.1254C28.7706 43.3006 28.6301 43.4423 28.4563 43.4423H26.7592C26.5855 43.4423 26.445 43.3006 26.445 43.1254V35.9314C26.4437 35.7574 26.5855 35.6157 26.7592 35.6157Z" fill="#FF8000"/>
<path d="M31.7088 39.5296C31.7088 37.6118 33.0448 35.4255 35.8733 35.4255C38.7018 35.4255 40.0378 37.6131 40.0378 39.5296C40.0378 41.4475 38.7018 43.6337 35.8733 43.6337C33.0448 43.6337 31.7088 41.4462 31.7088 39.5296ZM35.8733 41.4151C36.8469 41.4151 37.6641 40.6383 37.6641 39.5296C37.6641 38.4197 36.8469 37.6441 35.8733 37.6441C34.8984 37.6441 34.0813 38.421 34.0813 39.5296C34.0825 40.6383 34.8996 41.4151 35.8733 41.4151Z" fill="#FF8000"/>
<path d="M45.2142 40.0206C43.957 39.7036 42.7948 39.1493 42.7948 37.7548C42.7948 36.2334 44.0988 35.4255 45.733 35.4255C46.8188 35.4255 47.7777 35.7698 48.4284 36.4248C48.5517 36.5491 48.5517 36.7505 48.4284 36.8748L47.9613 37.3458C47.8442 37.4639 47.6569 37.4701 47.5324 37.3595C47.0702 36.9493 46.4737 36.6784 45.701 36.6784C44.9307 36.6784 44.1924 36.963 44.1924 37.6615C44.1924 38.4545 45.1045 38.6919 46.2507 38.9765C47.4609 39.2773 48.67 39.8167 48.67 41.2585C48.67 42.8905 47.2083 43.635 45.5272 43.635C44.2282 43.635 43.289 43.2348 42.6777 42.6332C42.5533 42.5101 42.5533 42.3075 42.6765 42.1833L43.1535 41.7022C43.2718 41.5829 43.4604 41.578 43.5848 41.6898C44.0606 42.1211 44.6756 42.3821 45.574 42.3821C46.5008 42.3821 47.2711 42.0813 47.2711 41.3517C47.2724 40.5277 46.3456 40.3052 45.2142 40.0206Z" fill="#FF8000"/>
<path d="M50.7664 43.4435H50.0121C49.8383 43.4435 49.6978 43.3018 49.6978 43.1266V32.5892C49.6978 32.4139 49.8383 32.2722 50.0121 32.2722H50.7664C50.9402 32.2722 51.0807 32.4139 51.0807 32.5892V39.322C51.0807 39.4637 51.2495 39.5346 51.3493 39.4339L55.043 35.7089C55.1022 35.6492 55.1823 35.6157 55.2649 35.6157H56.0574C56.3371 35.6157 56.4776 35.9575 56.2792 36.1576L53.3989 39.0623C53.341 39.1207 53.3373 39.2151 53.3903 39.2773L56.4949 42.9203C56.6699 43.1253 56.5257 43.4435 56.2558 43.4435H55.308C55.2168 43.4435 55.1305 43.4037 55.0702 43.3341L52.4302 40.2604C52.3711 40.1908 52.2651 40.1871 52.1997 40.2517L51.1238 41.3368C51.0942 41.3666 51.0782 41.4064 51.0782 41.4486V43.1266C51.0807 43.3018 50.9402 43.4435 50.7664 43.4435Z" fill="#FF8000"/>
<path d="M41.5992 43.3095C41.9593 42.9283 41.9447 42.3249 41.5667 41.9617C41.1887 41.5986 40.5903 41.6133 40.2303 41.9945C39.8702 42.3758 39.8847 42.9792 40.2628 43.3423C40.6408 43.7054 41.2392 43.6908 41.5992 43.3095Z" fill="#FF8000"/>
<path d="M10.8095 34.4583C11.3179 33.9199 11.2973 33.0679 10.7635 32.5552C10.2298 32.0424 9.38488 32.0632 8.87645 32.6015C8.36803 33.1398 8.38859 33.9918 8.92237 34.5046C9.45615 35.0173 10.301 34.9966 10.8095 34.4583Z" fill="#FF8000"/>
<path d="M42.1182 13.9865C42.0307 13.7566 40.8192 11.4957 38.5712 8.67056C38.517 8.6022 38.475 8.51893 38.4677 8.42944C38.2076 5.47876 37.7898 3.52117 37.7898 3.52117C37.7245 3.1831 37.4348 2.93452 37.1033 2.89474L34.7678 2.61012C34.7481 2.60763 34.7271 2.60639 34.7062 2.60639C34.4338 2.60639 34.2132 2.82887 34.2132 3.10355V3.92139C34.2132 3.93755 34.1996 3.95122 34.1836 3.95122C34.1762 3.95122 34.1701 3.94873 34.1639 3.94376C32.765 2.67351 31.1887 1.43929 29.4436 0.352987C29.112 0.129263 28.7164 0 28.2875 0H28.2863C27.8574 0 27.4618 0.129263 27.1302 0.352987C19.065 5.37436 14.6257 13.5378 14.4543 13.9853C14.405 14.0897 14.3779 14.2065 14.3779 14.3295C14.3779 14.7061 14.6343 15.0231 14.9806 15.1113L17.3038 15.5625C17.6144 15.6483 17.8498 15.918 17.8843 16.2461C17.9028 16.66 18.3428 25.8986 18.8937 28.2949C18.9836 28.6404 19.2967 28.8952 19.6677 28.8952H19.6849C21.0406 28.8617 22.2817 28.8381 23.6226 28.8194H23.6189H23.6313C23.6658 28.8194 23.7003 28.8182 23.7348 28.8182C23.8778 28.8182 23.9936 28.7001 23.9936 28.5547C23.9936 28.5522 23.9936 28.5497 23.9936 28.5485C23.9394 27.7418 23.8223 25.8973 23.7274 23.9547C23.7249 23.9062 23.7212 23.8453 23.7188 23.7956C23.7101 23.6265 23.6177 23.4799 23.4821 23.3966C22.7846 22.9765 22.3076 22.2233 22.2632 21.3557C22.1412 18.1155 22.0796 14.3718 22.2558 11.441C22.2694 11.1974 22.4678 11.0023 22.7143 10.9973C22.9719 10.9923 23.1851 11.1999 23.19 11.4609C23.19 11.4733 23.19 11.4858 23.1888 11.4982C23.0742 13.4508 23.0643 15.7601 23.1062 18.0384C23.1112 18.3466 23.3638 18.5915 23.6682 18.5865C23.9727 18.5815 24.2167 18.3267 24.2118 18.0185C24.1698 15.7253 24.1809 13.4011 24.2993 11.441C24.3128 11.1974 24.5112 11.0023 24.7577 10.9973C25.0153 10.9923 25.2285 11.1999 25.2335 11.4609C25.2335 11.4733 25.2335 11.4858 25.2322 11.4982C25.1188 13.4409 25.1078 15.7365 25.1484 18.0023V18.0036C25.1546 18.3106 25.406 18.5554 25.7104 18.5492C26.0148 18.5443 26.2564 18.2919 26.2527 17.9862C26.212 15.703 26.2231 13.3911 26.3402 11.441C26.3538 11.1974 26.5522 11.0023 26.7987 10.9973C27.0563 10.9923 27.2695 11.1999 27.2744 11.4609C27.2744 11.4733 27.2744 11.4858 27.2732 11.4982C27.1056 14.3469 27.161 17.9514 27.2757 21.1146C27.2757 21.1171 27.2769 21.1419 27.2769 21.1444C27.2769 21.1606 27.2781 21.1767 27.2781 21.1929C27.2781 21.2029 27.2781 21.214 27.2781 21.224C27.2781 22.089 26.848 22.8522 26.1911 23.3096C26.074 23.3916 25.9951 23.5234 25.984 23.6762C25.984 23.6762 25.9261 24.1622 26.1393 26.5151C26.2392 27.5429 26.3143 28.2539 26.3488 28.5771C26.3624 28.6989 26.4659 28.7933 26.5904 28.7933C26.6631 28.7933 26.7358 28.7921 26.8098 28.7921H26.811C26.811 28.7921 26.811 28.7921 26.8098 28.7921H26.8073C27.2547 28.7908 27.7169 28.7896 28.1963 28.7896H28.2863H28.3762C28.9826 28.7896 29.5606 28.7908 30.1165 28.7946L31.434 28.8057H31.4352C31.5609 28.8057 31.6632 28.71 31.6817 28.587C31.9874 25.7668 32.0588 24.1821 32.0588 24.1821C32.0588 24.0392 31.9504 23.9323 31.8087 23.9112L30.2077 23.6887C29.955 23.6439 29.8047 23.4861 29.7504 23.2934C29.7172 23.1766 29.7307 23.0436 29.7307 23.0436C30.3802 13.6435 33.4528 10.4753 33.4528 10.4753C33.544 10.3821 33.6019 10.346 33.6019 10.346C33.6832 10.2863 33.7831 10.2515 33.8915 10.2515C34.0998 10.2515 34.2785 10.382 34.35 10.5672C34.35 10.5672 34.3746 10.6331 34.3894 10.7935C34.6544 13.7491 34.525 18.7767 34.3611 22.6993C34.2218 26.0291 34.053 28.6429 34.053 28.6429C34.053 28.6442 34.053 28.6467 34.053 28.6479C34.053 28.7548 34.1392 28.8418 34.2452 28.8418C35.1178 28.8567 35.9768 28.8741 36.8876 28.8977H36.9049C37.2759 28.8977 37.5877 28.6429 37.6789 28.2974C38.231 25.9011 38.6698 16.6625 38.6883 16.2486C38.724 15.9192 38.9582 15.6508 39.2688 15.565L41.5919 15.1138C41.9383 15.0256 42.1946 14.7086 42.1946 14.332C42.1946 14.2065 42.1675 14.0909 42.1182 13.9865Z" fill="#FF8000"/>
</svg>
