<svg width="50" height="46" viewBox="0 0 50 46" fill="none" xmlns="http://www.w3.org/2000/svg">
<path d="M36.1691 12.1781C36.0983 11.9921 35.1192 10.1671 33.3023 7.87753C33.2562 7.82214 33.2271 7.75433 33.2187 7.68246V7.68246C33.1087 6.34969 32.9258 5.02408 32.6708 3.7117C32.6419 3.57992 32.5729 3.46059 32.4734 3.37043C32.3739 3.28026 32.2489 3.2238 32.116 3.20894V3.20894L30.2284 2.97868C30.2118 2.97768 30.1952 2.97768 30.1786 2.97868C30.073 2.97868 29.9716 3.02105 29.8969 3.09648C29.8222 3.17191 29.7802 3.27421 29.7802 3.38088V4.04352C29.7802 4.04992 29.7777 4.05605 29.7732 4.06058C29.7687 4.0651 29.7626 4.06765 29.7563 4.06765C29.7504 4.06778 29.7447 4.06562 29.7403 4.06161C28.5578 2.97987 27.2814 2.00765 25.9264 1.15669V1.15669C25.6498 0.969386 25.3241 0.86961 24.991 0.870119V0.870119C24.658 0.86961 24.3323 0.969386 24.0557 1.15669V1.15669C17.5383 5.21896 13.9505 11.8222 13.812 12.1851C13.7711 12.2718 13.75 12.3667 13.7502 12.4627C13.7502 12.6077 13.7981 12.7487 13.8863 12.8632C13.9745 12.9778 14.098 13.0594 14.2373 13.0951L16.1169 13.4531C16.241 13.4872 16.3521 13.5581 16.4358 13.6567C16.5195 13.7554 16.5718 13.8771 16.5861 14.0061C16.601 14.341 16.9566 21.8149 17.4019 23.7596C17.4387 23.8986 17.52 24.0215 17.6331 24.1091C17.7462 24.1968 17.8848 24.2443 18.0274 24.2443H18.0414C19.1371 24.2171 20.1401 24.198 21.2288 24.1839H21.2358H21.3185C21.3741 24.1837 21.4274 24.1612 21.4668 24.1215C21.5062 24.0818 21.5284 24.028 21.5286 23.9718V23.9587C21.4838 23.3061 21.3892 21.8139 21.3125 20.2433C21.3125 20.2041 21.3075 20.1538 21.3055 20.1146C21.3022 20.0493 21.2832 19.9857 21.25 19.9294C21.2169 19.8732 21.1706 19.826 21.1153 19.7918C20.8294 19.6194 20.59 19.3786 20.4182 19.0907C20.2464 18.8027 20.1475 18.4765 20.1302 18.1408C20.0305 15.5194 19.9817 12.4898 20.1232 10.1198C20.1253 10.0188 20.1671 9.92267 20.2394 9.85271C20.3117 9.78275 20.4085 9.74465 20.5087 9.74678C20.6088 9.74891 20.704 9.79111 20.7733 9.86409C20.8426 9.93706 20.8803 10.0348 20.8782 10.1359V10.1651C20.7856 11.7457 20.7786 13.614 20.8105 15.4571C20.8126 15.5771 20.8618 15.6913 20.9474 15.7747C20.9898 15.816 21.0398 15.8484 21.0945 15.8702C21.1493 15.8919 21.2078 15.9026 21.2667 15.9015C21.3255 15.9005 21.3836 15.8877 21.4376 15.864C21.4916 15.8403 21.5404 15.8061 21.5813 15.7633C21.6222 15.7205 21.6543 15.6701 21.6759 15.6148C21.6974 15.5595 21.708 15.5004 21.7069 15.441V15.441C21.6731 13.5858 21.683 11.7055 21.7777 10.1198C21.7798 10.0188 21.8216 9.92267 21.8939 9.85271C21.9662 9.78275 22.063 9.74465 22.1632 9.74678C22.2633 9.74891 22.3585 9.79111 22.4278 9.86409C22.4971 9.93706 22.5348 10.0348 22.5327 10.1359C22.5332 10.1456 22.5332 10.1554 22.5327 10.1651C22.4411 11.7377 22.4331 13.5939 22.465 15.4279C22.4668 15.5479 22.5158 15.6623 22.6012 15.7458C22.6866 15.8294 22.8013 15.8752 22.9202 15.8734C23.0391 15.8715 23.1523 15.822 23.2351 15.7359C23.3178 15.6497 23.3633 15.5339 23.3614 15.4138V15.4138C23.3276 13.5667 23.3375 11.6935 23.4322 10.1188C23.4332 10.0688 23.444 10.0194 23.464 9.9736C23.4839 9.92776 23.5126 9.88635 23.5484 9.8517C23.5842 9.81706 23.6264 9.78988 23.6726 9.77171C23.7188 9.75353 23.7681 9.74472 23.8176 9.74577C23.8672 9.74683 23.9161 9.75774 23.9615 9.77786C24.0069 9.79799 24.0479 9.82695 24.0823 9.86308C24.1166 9.89922 24.1435 9.94182 24.1615 9.98846C24.1795 10.0351 24.1882 10.0849 24.1872 10.1349C24.1877 10.1446 24.1877 10.1544 24.1872 10.1641C24.0527 12.4687 24.0965 15.3857 24.1872 17.9447C24.1872 17.9447 24.1872 17.9668 24.1872 17.9678C24.1872 17.9689 24.1872 17.994 24.1872 18.0071V18.0322C24.1875 18.3643 24.1076 18.6915 23.9545 18.9855C23.8015 19.2794 23.5798 19.5314 23.3087 19.7195C23.2598 19.7535 23.2194 19.7984 23.1904 19.8507C23.1614 19.903 23.1446 19.9613 23.1413 20.0211C23.1413 20.0211 23.0955 20.4133 23.2668 22.3177C23.3475 23.1493 23.4083 23.7254 23.4371 23.9858C23.4435 24.0345 23.4672 24.0792 23.5039 24.1114C23.5406 24.1437 23.5877 24.1612 23.6364 24.1608H23.8107H24.9333H25.0787C25.5688 24.1608 26.0349 24.1608 26.4852 24.1608L27.55 24.1709C27.5989 24.1712 27.6463 24.1534 27.683 24.1207C27.7198 24.0881 27.7433 24.0429 27.7492 23.9939C27.9962 21.7114 28.054 20.4303 28.054 20.4303C28.0531 20.3755 28.0323 20.323 27.9956 20.2826C27.9589 20.2422 27.9088 20.2168 27.8548 20.2111L26.5599 20.0302C26.4738 20.0196 26.3927 19.9837 26.3268 19.9268C26.2608 19.8699 26.213 19.7946 26.1893 19.7104C26.173 19.6447 26.1676 19.5768 26.1734 19.5093C26.6983 11.9036 29.1815 9.34055 29.1815 9.34055C29.2181 9.30284 29.2585 9.26914 29.3021 9.24C29.3513 9.20399 29.4081 9.17985 29.4681 9.16942C29.528 9.15899 29.5895 9.16254 29.6479 9.17982C29.7062 9.1971 29.7599 9.22763 29.8048 9.26909C29.8496 9.31055 29.8845 9.36182 29.9067 9.41898C29.9245 9.47814 29.9352 9.53925 29.9386 9.60098C30.1527 11.9921 30.0481 16.0604 29.9157 19.2338C29.8031 21.9276 29.6666 24.0411 29.6666 24.0411V24.0462C29.6666 24.0667 29.6707 24.0871 29.6785 24.106C29.6863 24.125 29.6978 24.1422 29.7122 24.1567C29.7267 24.1712 29.7438 24.1827 29.7626 24.1905C29.7815 24.1982 29.8017 24.2022 29.822 24.202V24.202C30.5273 24.2141 31.2215 24.2292 31.9576 24.2473H31.9546C32.0972 24.2471 32.2357 24.1996 32.3488 24.112C32.4618 24.0243 32.5432 23.9016 32.5802 23.7626V23.7626C33.0254 21.823 33.377 14.349 33.396 14.0091C33.4101 13.8801 33.4624 13.7583 33.5461 13.6596C33.6298 13.561 33.7409 13.4901 33.8651 13.4561L35.7398 13.0881C35.879 13.0523 36.0025 12.9707 36.0907 12.8562C36.179 12.7417 36.2268 12.6007 36.2268 12.4556C36.2283 12.3599 36.2086 12.2651 36.1691 12.1781V12.1781Z" fill="#242E30"/>
<path d="M10.5389 28.6052H8.96511C8.45612 28.6052 8.45612 28.6052 8.34954 29.2085C8.24295 29.8118 8.24395 29.8299 8.71111 29.8299H9.64245L9.11154 32.8947C8.98404 33.5805 8.68621 34.0521 7.7738 34.3306C7.53972 34.395 7.47498 34.4814 7.47498 34.588C7.47498 34.7167 7.51781 34.8243 7.62339 35.0817C7.7728 35.4457 7.85747 35.5101 7.98497 35.5101C8.13573 35.4959 8.28482 35.4673 8.43022 35.4246C9.72512 34.9953 10.257 33.9877 10.4692 32.7882L11.0668 29.3372C11.1724 28.6082 11.1724 28.6082 10.5359 28.6082" fill="#242E30"/>
<path d="M15.8659 28.6053C15.2294 28.6053 15.2294 28.6053 15.1438 29.1413L14.6766 31.9275C14.5501 32.742 14.337 33.2136 13.552 33.2136C12.787 33.2136 12.5111 32.742 12.6386 32.013L13.0849 29.3555C13.2124 28.6053 13.1905 28.6053 12.533 28.6053C11.8956 28.6053 11.8746 28.6053 11.789 29.1202L11.3218 31.9024C11.0459 33.4881 12.0191 34.4745 13.4026 34.4745C14.9535 34.4745 15.7384 33.7706 15.9924 32.0955L16.4596 29.3303C16.5662 28.6013 16.5234 28.6013 15.862 28.6013" fill="#242E30"/>
<path d="M18.7756 33.1703C19.2846 33.1491 19.5605 32.9139 19.5605 32.6776C19.5605 32.3759 19.1999 32.2754 18.7118 32.1205C17.7556 31.8189 16.885 31.477 16.885 30.4484C16.885 29.2267 17.8811 28.562 19.1361 28.562C19.667 28.562 20.2617 28.5841 20.6432 28.6264C20.9829 28.6696 21.0685 28.7772 20.962 29.3121C20.8554 29.8471 20.7289 29.8913 20.431 29.8702C20.0705 29.8481 19.6033 29.8058 19.0515 29.8058C18.414 29.8058 18.2227 30.0411 18.2227 30.2553C18.2227 30.5338 18.4777 30.6846 19.0724 30.8586C20.176 31.1804 20.8982 31.6308 20.8982 32.5951C20.8982 33.7313 20.0705 34.395 18.7327 34.4382C18.0936 34.461 17.4538 34.425 16.8212 34.3306C16.3969 34.2673 16.376 34.2673 16.4816 33.6449C16.5882 33.0878 16.5882 33.0416 16.9916 33.0878C17.583 33.164 18.1796 33.1926 18.7756 33.1733" fill="#242E30"/>
<path d="M25.7181 28.6052H22.1322C21.6223 28.6052 21.6223 28.6052 21.5157 29.2266C21.4091 29.848 21.431 29.848 21.8772 29.848H23.0447L22.3862 33.6851C22.2587 34.4352 22.2807 34.4352 22.9391 34.4352C23.5546 34.4352 23.5756 34.4352 23.6602 33.8992L24.3396 29.848H25.4651C25.9751 29.848 25.9751 29.848 26.0807 29.2266C26.1863 28.6052 26.1873 28.6052 25.7201 28.6052" fill="#242E30"/>
<path d="M32.0454 29.827C32.5553 29.827 32.5553 29.827 32.6609 29.2056C32.7665 28.5842 32.7675 28.5842 32.3004 28.5842H29.7315C28.8181 28.5842 28.84 28.5842 28.6906 29.5053L28.0321 33.3856C27.8628 34.3911 27.8837 34.3911 28.7971 34.3911H31.3023C31.8332 34.3911 31.8123 34.3911 31.9179 33.7878C32.0244 33.1653 32.0244 33.1653 31.5573 33.1653H29.3918L29.5611 32.0512H31.366C31.8541 32.0512 31.8541 32.0512 31.9398 31.4721C32.0244 30.8688 32.0244 30.8688 31.366 30.8688H29.7723L29.9426 29.818L32.0454 29.827Z" fill="#242E30"/>
<path d="M34.7636 31.8843L35.5914 30.0412C35.6551 29.8914 35.6551 29.8914 35.7617 29.8914C35.8683 29.8914 35.8673 29.8914 35.8892 30.0633L36.1432 31.8843H34.7636ZM37.0138 29.3122C36.8863 28.5842 36.8863 28.5842 35.8673 28.5842C34.912 28.5842 34.933 28.5842 34.6361 29.1875L32.4916 33.7123C32.1728 34.3559 32.2366 34.4162 33.0225 34.4162C33.6381 34.4162 33.6381 34.4162 33.8931 33.837L34.2327 33.0658H36.3135L36.4191 33.837C36.5048 34.4162 36.5257 34.4162 37.1413 34.4162C37.8385 34.4162 37.9063 34.373 37.7788 33.6661L37.0138 29.3122Z" fill="#242E30"/>
<path d="M42.0889 28.6052H38.4791C37.9701 28.6052 37.9701 28.6052 37.8635 29.2266C37.7569 29.848 37.7788 29.848 38.2241 29.848H39.3925L38.7341 33.6851C38.6066 34.4352 38.6275 34.4352 39.2859 34.4352C39.9015 34.4352 39.9234 34.4352 40.008 33.8992L40.6874 29.848H41.8159C42.3249 29.848 42.3249 29.848 42.4315 29.2266C42.559 28.6052 42.559 28.6052 42.0919 28.6052" fill="#242E30"/>
<path d="M5.28255 38.2683V37.485C5.27961 37.4385 5.25963 37.3947 5.2265 37.3622C5.19336 37.3297 5.14944 37.3107 5.10325 37.3091H0.892815C0.845396 37.3104 0.800266 37.3299 0.766724 37.3638C0.733182 37.3977 0.713783 37.4432 0.712524 37.4911V38.2623C0.713958 38.3097 0.732981 38.3548 0.765822 38.3887C0.798663 38.4226 0.842924 38.4428 0.889827 38.4453H2.27139C2.29525 38.4472 2.31763 38.4577 2.33446 38.4748C2.35129 38.492 2.36143 38.5147 2.36303 38.5388V42.953C2.36274 43.0013 2.38108 43.0479 2.41417 43.0828C2.44726 43.1177 2.49251 43.1382 2.54033 43.1401H3.45972C3.50491 43.1369 3.54739 43.1172 3.57914 43.0846C3.61089 43.052 3.62971 43.0088 3.63204 42.9631V38.5187C3.63781 38.4993 3.64927 38.4821 3.66491 38.4693C3.68056 38.4566 3.69965 38.4489 3.71969 38.4473H5.10325C5.14925 38.4452 5.19282 38.4259 5.22556 38.3932C5.25831 38.3605 5.2779 38.3168 5.28055 38.2704" fill="#242E30"/>
<path d="M7.62732 39.3352C7.48175 39.153 7.29003 39.014 7.0725 38.933C6.78817 38.8343 6.48852 38.7883 6.18798 38.7972C5.86546 38.7961 5.54511 38.8505 5.24071 38.9581C4.9999 39.0415 4.77489 39.1656 4.57533 39.3251C4.54324 39.361 4.52607 39.4079 4.52737 39.4562C4.52867 39.5045 4.54834 39.5505 4.5823 39.5845L4.9638 39.9797C4.99888 40.0149 5.04633 40.0346 5.09578 40.0346C5.14523 40.0346 5.19268 40.0149 5.22776 39.9797V39.9797C5.32138 39.8955 5.42512 39.8236 5.53655 39.7655C5.708 39.6798 5.89705 39.6361 6.08838 39.6378C6.28894 39.6348 6.48409 39.7035 6.63921 39.8319C6.78264 39.9526 6.86034 40.1677 6.8713 40.5136C6.8667 40.5353 6.85513 40.5549 6.83837 40.5693C6.82162 40.5836 6.80062 40.592 6.77866 40.5931V40.5931C6.63622 40.5931 6.47984 40.5931 6.32146 40.6021C6.12147 40.6069 5.92192 40.6233 5.72381 40.6514C5.52917 40.6779 5.33696 40.7203 5.14907 40.7781C4.97124 40.8318 4.8031 40.914 4.65103 41.0214C4.50828 41.1253 4.39105 41.2608 4.30838 41.4176C4.21904 41.5988 4.17557 41.7995 4.18187 42.0018C4.1771 42.1868 4.21639 42.3702 4.29642 42.5367C4.37001 42.6876 4.47581 42.8202 4.6062 42.9249C4.74124 43.0329 4.89538 43.1141 5.06042 43.1642C5.47021 43.2857 5.90867 43.2637 6.30452 43.1018C6.47976 43.0296 6.63447 42.9145 6.75475 42.767H6.7677C6.78012 42.761 6.79405 42.7591 6.8076 42.7614C6.82115 42.7638 6.83366 42.7703 6.84341 42.7801C6.85595 42.7918 6.86345 42.8081 6.86432 42.8253V42.9701C6.86577 43.0171 6.88473 43.0619 6.9174 43.0954C6.95008 43.129 6.99408 43.1488 7.04063 43.1511H7.81259C7.85964 43.1493 7.9042 43.1293 7.93702 43.0952C7.96985 43.0611 7.98842 43.0156 7.9889 42.9681V41.1159C7.99258 40.7396 7.96526 40.3636 7.90722 39.9918C7.86154 39.7582 7.76264 39.5386 7.61836 39.3503L7.62732 39.3352ZM6.8693 41.6489C6.87217 41.7637 6.8454 41.8774 6.79161 41.9787C6.7397 42.0714 6.66704 42.1506 6.57944 42.2099C6.48771 42.2718 6.38685 42.3186 6.28062 42.3487C6.16822 42.3829 6.05137 42.3998 5.93398 42.399C5.79416 42.3997 5.65666 42.3629 5.53555 42.2924C5.4766 42.261 5.42774 42.2134 5.39474 42.1549C5.36174 42.0965 5.34597 42.0298 5.34928 41.9626C5.34586 41.9023 5.3562 41.842 5.37952 41.7864C5.40283 41.7308 5.4385 41.6813 5.48375 41.6418C5.57904 41.5614 5.69002 41.5022 5.80947 41.4679C5.93932 41.4299 6.07296 41.4066 6.2079 41.3985C6.34835 41.3904 6.4639 41.3864 6.55355 41.3864H6.76571C6.78887 41.3889 6.81042 41.3996 6.82662 41.4165C6.84282 41.4334 6.85263 41.4555 6.85436 41.4789L6.8693 41.6489Z" fill="#242E30"/>
<path d="M19.8144 39.3352C19.6689 39.153 19.4771 39.014 19.2596 38.933C18.9749 38.8343 18.675 38.7883 18.3741 38.7972C18.0517 38.7971 17.7315 38.8515 17.4268 38.9581C17.1865 39.0413 16.9621 39.1654 16.7634 39.3251C16.7302 39.36 16.7116 39.4065 16.7116 39.4548C16.7116 39.5032 16.7302 39.5497 16.7634 39.5845V39.5845L17.1449 39.9797C17.1802 40.015 17.2278 40.0347 17.2774 40.0347C17.327 40.0347 17.3746 40.015 17.4099 39.9797C17.5038 39.8955 17.6079 39.8235 17.7197 39.7655C17.8911 39.6798 18.0802 39.6361 18.2715 39.6378C18.4718 39.6346 18.6667 39.7034 18.8213 39.8319C18.9658 39.9526 19.0425 40.1677 19.0534 40.5136C19.0499 40.5358 19.0386 40.556 19.0216 40.5706C19.0046 40.5852 18.9831 40.5931 18.9608 40.5931V40.5931C18.8183 40.5931 18.662 40.5931 18.5036 40.6021C18.3036 40.6069 18.104 40.6233 17.9059 40.6514C17.711 40.6779 17.5184 40.7203 17.3302 40.7781C17.154 40.832 16.9875 40.9142 16.8371 41.0214C16.6941 41.125 16.5769 41.2606 16.4945 41.4176C16.4048 41.5987 16.361 41.7994 16.367 42.0018C16.3632 42.1867 16.4024 42.3699 16.4815 42.5367C16.5551 42.6876 16.6609 42.8202 16.7913 42.9249C16.9264 43.0314 17.0801 43.1112 17.2445 43.1602C17.6557 43.2817 18.0954 43.2598 18.4926 43.0978C18.668 43.0258 18.8228 42.9107 18.9429 42.763H18.9548C18.9676 42.757 18.9818 42.755 18.9957 42.7574C19.0095 42.7597 19.0224 42.7662 19.0325 42.776C19.0441 42.7882 19.0509 42.8044 19.0514 42.8213V42.9661C19.0531 43.0132 19.0723 43.058 19.1051 43.0915C19.138 43.125 19.1821 43.1448 19.2287 43.1471H19.9997C20.0468 43.145 20.0913 43.125 20.1242 43.091C20.1572 43.057 20.176 43.0116 20.177 42.9641V41.1159C20.18 40.7396 20.153 40.3637 20.0963 39.9918C20.0504 39.7579 19.9507 39.5382 19.8055 39.3503L19.8144 39.3352ZM19.0524 41.6489C19.0553 41.7637 19.0285 41.8774 18.9747 41.9787C18.9235 42.0716 18.8511 42.1508 18.7636 42.2099C18.6717 42.2715 18.5709 42.3184 18.4647 42.3487C18.3524 42.383 18.2355 42.3999 18.1181 42.399C17.9802 42.3993 17.8448 42.3625 17.7256 42.2924C17.6664 42.2613 17.6173 42.2137 17.5841 42.1552C17.5509 42.0967 17.535 42.0299 17.5384 41.9626C17.535 41.9023 17.5453 41.842 17.5686 41.7864C17.5919 41.7308 17.6276 41.6813 17.6729 41.6418C17.7685 41.5614 17.8798 41.5021 17.9996 41.4679C18.1294 41.4299 18.2631 41.4066 18.398 41.3985C18.5394 41.3904 18.655 41.3864 18.7446 41.3864H18.9558C18.979 41.3889 19.0005 41.3996 19.0167 41.4165C19.0329 41.4334 19.0427 41.4555 19.0445 41.4789L19.0524 41.6489Z" fill="#242E30"/>
<path d="M30.331 39.335C30.1854 39.1529 29.9937 39.0139 29.7761 38.9328C29.4916 38.8337 29.1915 38.7877 28.8906 38.7971C28.5685 38.7971 28.2487 38.8515 27.9443 38.958C27.7036 39.0415 27.4787 39.1656 27.279 39.325C27.2469 39.3609 27.2297 39.4078 27.231 39.4561C27.2323 39.5044 27.252 39.5504 27.2859 39.5844V39.5844L27.6674 39.9796C27.7027 40.0148 27.7503 40.0346 27.7999 40.0346C27.8495 40.0346 27.8971 40.0148 27.9324 39.9796C28.0263 39.8953 28.1304 39.8234 28.2422 39.7654C28.4135 39.6792 28.6026 39.6354 28.794 39.6377C28.9942 39.6351 29.1889 39.7038 29.3438 39.8318C29.4873 39.9524 29.564 40.1676 29.5759 40.5135C29.5713 40.5354 29.5596 40.555 29.5426 40.5694C29.5257 40.5838 29.5044 40.5921 29.4823 40.5929V40.5929C29.3399 40.5929 29.1835 40.5929 29.0261 40.602C28.8261 40.6067 28.6265 40.6232 28.4284 40.6513C28.2335 40.6778 28.0409 40.7202 27.8527 40.778C27.6748 40.8315 27.5066 40.9136 27.3547 41.0213C27.2117 41.1246 27.0947 41.2603 27.013 41.4175C26.9229 41.5984 26.8791 41.7992 26.8855 42.0017C26.8812 42.1866 26.9205 42.3699 27.0001 42.5366C27.073 42.6882 27.1793 42.8209 27.3108 42.9247C27.4474 43.0339 27.6037 43.1152 27.771 43.164C28.1825 43.2856 28.6225 43.2637 29.0201 43.1017C29.1941 43.0278 29.3468 42.9109 29.4644 42.7618H29.4763C29.4887 42.7559 29.5027 42.7539 29.5162 42.7563C29.5298 42.7586 29.5423 42.7651 29.552 42.7749C29.5643 42.7868 29.5714 42.803 29.5719 42.8201V42.9649C29.5739 43.012 29.5931 43.0566 29.6259 43.0901C29.6587 43.1236 29.7027 43.1435 29.7492 43.1459H30.5202C30.5674 43.1439 30.612 43.1239 30.6451 43.0899C30.6782 43.056 30.6973 43.0106 30.6985 42.9629V41.1158C30.7017 40.7395 30.6744 40.3635 30.6168 39.9916C30.5704 39.7581 30.4712 39.5386 30.327 39.3501L30.331 39.335ZM29.5729 41.6487C29.5757 41.7635 29.5493 41.877 29.4962 41.9785C29.4443 42.0713 29.3717 42.1504 29.2841 42.2098C29.1923 42.2716 29.0915 42.3184 28.9853 42.3486C28.8729 42.3828 28.756 42.3998 28.6386 42.3988C28.5011 42.3992 28.3659 42.3624 28.2472 42.2923C28.1878 42.2613 28.1385 42.2138 28.1053 42.1553C28.0721 42.0967 28.0563 42.0298 28.0599 41.9624C28.0565 41.9022 28.0668 41.8419 28.0901 41.7863C28.1134 41.7306 28.1491 41.6812 28.1944 41.6417C28.2897 41.5613 28.4006 41.502 28.5201 41.4677C28.6499 41.4298 28.7836 41.4065 28.9185 41.3984C29.057 41.3903 29.1735 41.3863 29.2642 41.3863H29.4763C29.4998 41.3876 29.5218 41.3979 29.5379 41.4151C29.554 41.4323 29.563 41.4551 29.563 41.4788L29.5729 41.6487Z" fill="#242E30"/>
<path d="M15.8071 39.3723C15.6464 39.1855 15.4458 39.038 15.2204 38.9409C14.9757 38.8405 14.7136 38.7903 14.4494 38.7931C14.1559 38.7918 13.8644 38.8418 13.5878 38.9409C13.3301 39.0363 13.0933 39.1815 12.8906 39.3682C12.6908 39.5546 12.5311 39.7805 12.4214 40.0319C12.1924 40.6674 12.1924 41.3641 12.4214 41.9997C12.5306 42.251 12.6903 42.4767 12.8906 42.6623C13.092 42.8509 13.3292 42.9962 13.5878 43.0896C13.864 43.1905 14.1558 43.2409 14.4494 43.2385C14.7703 43.2401 15.0877 43.1715 15.3798 43.0374C15.6085 42.9356 15.8155 42.7902 15.9894 42.609C16.0207 42.5744 16.038 42.5292 16.038 42.4823C16.038 42.4354 16.0207 42.3902 15.9894 42.3556L15.4346 41.9444L15.3937 41.9152C15.3584 41.8948 15.3174 41.8867 15.2771 41.8921C15.2368 41.8976 15.1994 41.9163 15.1706 41.9454C15.0919 42.0321 15.0033 42.109 14.9066 42.1746C14.7529 42.2679 14.5759 42.3147 14.3967 42.3094C14.1761 42.3143 13.9612 42.2382 13.792 42.0952C13.6066 41.9034 13.4956 41.6508 13.4793 41.3833C13.479 41.3615 13.4865 41.3404 13.5004 41.3238C13.5143 41.3072 13.5337 41.2962 13.555 41.2928H16.1378C16.1852 41.29 16.2298 41.2691 16.2625 41.2344C16.2952 41.1997 16.3137 41.1537 16.3141 41.1058V40.9047C16.3183 40.6108 16.2742 40.3182 16.1836 40.0389C16.1041 39.795 15.9775 39.5694 15.8111 39.3753L15.8071 39.3723ZM14.9943 40.4451H13.5719C13.5483 40.4449 13.5258 40.4356 13.5087 40.4192C13.4917 40.4028 13.4815 40.3804 13.4803 40.3567C13.4912 40.2872 13.5113 40.2196 13.54 40.1555C13.5803 40.0654 13.6387 39.9846 13.7114 39.9183C13.7889 39.846 13.8786 39.7885 13.9763 39.7483C14.0902 39.7022 14.2122 39.68 14.3349 39.683C14.4362 39.6794 14.5372 39.6973 14.6312 39.7356C14.7252 39.7738 14.8102 39.8316 14.8808 39.9052C14.9975 40.0254 15.0681 40.1837 15.08 40.3516C15.0772 40.3751 15.0663 40.3969 15.0491 40.4131C15.032 40.4293 15.0098 40.4389 14.9863 40.4401" fill="#242E30"/>
<path d="M11.1116 41.0787L11.0847 41.0405C11.0671 41.0116 11.0577 40.9784 11.0577 40.9444C11.0577 40.9105 11.0671 40.8773 11.0847 40.8484L12.5121 39.0516C12.527 39.033 12.5344 39.0093 12.5327 38.9854C12.5311 38.9615 12.5205 38.9392 12.5031 38.9229C12.4863 38.9081 12.4646 38.9002 12.4424 38.9007H11.3188C11.2611 38.9005 11.204 38.9137 11.1522 38.9393C11.1004 38.9649 11.0551 39.0023 11.02 39.0486V39.0486L10.9582 39.128L9.86151 40.5498L9.84657 40.5669L9.8386 40.5749H9.83063C9.8181 40.5808 9.80412 40.5828 9.79047 40.5807C9.77681 40.5785 9.76409 40.5723 9.75393 40.5629C9.74529 40.5531 9.73914 40.5414 9.736 40.5287V37.0898C9.73368 37.0442 9.71486 37.0009 9.68311 36.9683C9.65135 36.9357 9.60887 36.916 9.56368 36.9128H8.68514C8.63954 36.9163 8.59678 36.9365 8.565 36.9697C8.53322 37.0029 8.51465 37.0467 8.51282 37.0928V42.963C8.51498 43.0096 8.53422 43.0537 8.5668 43.0868C8.59938 43.1199 8.64298 43.1395 8.68912 43.142H9.5597C9.6055 43.1401 9.64895 43.121 9.68155 43.0884C9.71415 43.0559 9.73357 43.0122 9.736 42.966V41.3029C9.7387 41.29 9.74491 41.2782 9.75393 41.2687C9.76391 41.259 9.77658 41.2525 9.79027 41.2502C9.80397 41.2478 9.81804 41.2498 9.83063 41.2556H9.84159L9.84956 41.2637V41.2697L9.87147 41.2949L10.9373 42.9137L10.998 42.9922C11.0325 43.0373 11.0767 43.074 11.1273 43.0994C11.1778 43.1248 11.2334 43.1384 11.2899 43.139H12.4772C12.4906 43.1371 12.5031 43.1311 12.5131 43.1219C12.5271 43.1085 12.5366 43.091 12.5401 43.0718C12.5437 43.0527 12.5412 43.0329 12.533 43.0153L11.1116 41.0787Z" fill="#242E30"/>
<path d="M26.9543 39.1973C26.9682 39.1575 26.9753 39.1157 26.9753 39.0736C26.9763 39.0659 26.9763 39.0581 26.9753 39.0505V39.0505C26.9668 39.0099 26.9454 38.9732 26.9142 38.9461C26.8831 38.919 26.844 38.9031 26.8029 38.9006H26.1057C26.0204 38.9007 25.9377 38.9301 25.8712 38.984C25.8047 39.038 25.7585 39.1132 25.7401 39.1973V39.1973L25.7182 39.2817L25.1295 41.4627C25.1146 41.4795 25.094 41.4899 25.0717 41.4918C25.058 41.4907 25.0447 41.486 25.0332 41.4783C25.0217 41.4705 25.0124 41.46 25.006 41.4476L24.997 41.4134L24.4084 39.2093L24.3994 39.1691C24.3748 39.0929 24.327 39.0265 24.2628 38.9793C24.1985 38.9322 24.1212 38.9068 24.0418 38.9067H23.2828C23.198 38.9063 23.1156 38.9351 23.0492 38.9883C22.9828 39.0414 22.9362 39.1159 22.9172 39.1993V39.1993V39.2194L22.9013 39.2857L22.3654 41.4597C22.3608 41.4682 22.3544 41.4757 22.3468 41.4817C22.3392 41.4876 22.3305 41.492 22.3212 41.4944C22.3119 41.4969 22.3021 41.4974 22.2926 41.4959C22.2831 41.4944 22.274 41.491 22.2658 41.4858C22.2548 41.4798 22.2458 41.4707 22.2399 41.4597L21.6034 39.2837L21.5735 39.1832C21.5745 39.1769 21.5745 39.1704 21.5735 39.1641C21.5479 39.0895 21.4998 39.0248 21.4361 38.9791C21.3724 38.9333 21.2961 38.9087 21.2179 38.9087H20.4499C20.4088 38.9111 20.3695 38.927 20.3382 38.9541C20.3069 38.9811 20.2853 39.0178 20.2766 39.0585V39.0585V39.0816C20.2773 39.1238 20.2847 39.1655 20.2985 39.2053L21.5635 42.8965C21.5677 42.9105 21.5734 42.924 21.5805 42.9368C21.608 42.9965 21.6507 43.0478 21.7042 43.0854C21.7578 43.1231 21.8202 43.1457 21.8853 43.1509H22.6274C22.7023 43.145 22.7737 43.1165 22.8325 43.0692C22.8912 43.0219 22.9346 42.9579 22.9571 42.8855V42.8855L22.9879 42.7789L23.5716 40.6673C23.578 40.6578 23.5866 40.65 23.5967 40.6446C23.6068 40.6392 23.618 40.6363 23.6294 40.6363C23.6408 40.6363 23.6521 40.6392 23.6621 40.6446C23.6722 40.65 23.6808 40.6578 23.6872 40.6673L24.3556 42.8231C24.3682 42.864 24.3835 42.904 24.4014 42.9428C24.4289 43.0025 24.4716 43.0538 24.5251 43.0915C24.5787 43.1291 24.6411 43.1517 24.7062 43.157H25.4293C25.4944 43.1521 25.5569 43.1297 25.6104 43.092C25.6639 43.0543 25.7063 43.0028 25.7331 42.9428V42.9428C25.7421 42.9267 25.767 42.8553 25.783 42.8071L26.9743 39.2425C26.9746 39.2348 26.9766 39.2272 26.9802 39.2204" fill="#242E30"/>
<path d="M35.0246 39.0476C35.0207 39.0371 35.0174 39.0263 35.0146 39.0154C35.0008 38.9837 34.9786 38.9563 34.9506 38.9363C34.9225 38.9163 34.8895 38.9044 34.8553 38.9018H34.1132C34.0437 38.9043 33.9763 38.9262 33.9184 38.9651C33.8606 39.004 33.8145 39.0583 33.7855 39.122V39.122C33.7808 39.1331 33.7768 39.1446 33.7735 39.1562L33.7675 39.1763C33.7675 39.1864 33.7616 39.1964 33.7596 39.2065L33.7367 39.2789L33.0623 41.5081L33.0523 41.5342C33.0477 41.5541 33.0362 41.5716 33.02 41.5838C33.0038 41.5959 32.9838 41.6019 32.9637 41.6006C32.9453 41.6014 32.927 41.5962 32.9117 41.586C32.8963 41.5757 32.8845 41.5607 32.878 41.5433L32.0742 39.2779L32.0652 39.2487L32.0104 39.0959C31.9797 39.0371 31.9342 38.9875 31.8784 38.9522C31.8226 38.9168 31.7585 38.897 31.6927 38.8948H30.859C30.8295 38.9004 30.8018 38.9132 30.7782 38.9319C30.7547 38.9506 30.7359 38.9748 30.7235 39.0024C30.7187 39.0115 30.7154 39.0213 30.7135 39.0315C30.7071 39.065 30.7091 39.0996 30.7195 39.1321L32.3133 43.0606C32.3371 43.1425 32.3322 43.2303 32.2993 43.309V43.321L32.2694 43.3955C32.2266 43.502 32.1858 43.5966 32.1479 43.684C32.1124 43.7629 32.0643 43.8352 32.0055 43.8982C31.9439 43.9579 31.8696 44.0026 31.7883 44.0289C31.68 44.0628 31.567 44.0785 31.4536 44.0752H30.9237C30.8762 44.0767 30.8311 44.0965 30.7976 44.1305C30.764 44.1645 30.7447 44.2102 30.7434 44.2582V44.9299C30.7449 44.9779 30.7645 45.0236 30.7982 45.0576C30.8319 45.0916 30.8771 45.1114 30.9247 45.1129H31.6339C31.8733 45.1199 32.1123 45.0907 32.3431 45.0264C32.5087 44.9762 32.6609 44.8889 32.7884 44.771C32.9094 44.6517 33.0076 44.5109 33.0782 44.3557C33.1539 44.1898 33.2326 44.0008 33.3143 43.7866L35.0246 39.119C35.0296 39.0948 35.0296 39.0698 35.0246 39.0456" fill="#242E30"/>
<path d="M34.8563 42.2812C34.7967 42.2793 34.7373 42.2906 34.6825 42.3142C34.6276 42.3378 34.5785 42.3732 34.5385 42.418C34.4595 42.5039 34.4166 42.6174 34.4188 42.7346C34.421 42.8518 34.4682 42.9636 34.5505 43.0464C34.6327 43.1291 34.7436 43.1765 34.8597 43.1783C34.9759 43.1802 35.0882 43.1365 35.173 43.0565L35.183 43.0464C35.2634 42.9619 35.3083 42.8493 35.3083 42.7322C35.3083 42.615 35.2634 42.5024 35.183 42.418C35.1429 42.3734 35.0938 42.3381 35.039 42.3145C34.9841 42.2909 34.9249 42.2795 34.8653 42.2812" fill="#242E30"/>
<path d="M42.4753 39.3773C42.2882 39.1932 42.0658 39.0495 41.8219 38.955C41.2897 38.7559 40.7045 38.7559 40.1724 38.955C39.9302 39.048 39.7097 39.1906 39.5246 39.3736C39.3395 39.5567 39.1938 39.7763 39.0966 40.0188C38.991 40.2682 38.9402 40.7619 38.9402 41.0685C38.9367 41.3914 38.9896 41.7124 39.0966 42.0167C39.1941 42.2605 39.3404 42.4814 39.5264 42.6655C39.7124 42.8496 39.934 42.9929 40.1774 43.0866C40.7097 43.2867 41.2956 43.2867 41.8279 43.0866C42.0713 42.9925 42.2932 42.8495 42.4803 42.6663C42.662 42.4825 42.8061 42.2646 42.9046 42.0248C43.0111 41.72 43.064 41.3988 43.061 41.0756C43.061 40.7739 43.0082 40.2712 42.9046 40.0258C42.8061 39.786 42.662 39.5681 42.4803 39.3843L42.4753 39.3773ZM42.2721 41.7563C42.2117 41.9266 42.1175 42.0826 41.9952 42.2148C41.8726 42.3456 41.7252 42.4502 41.5619 42.5225C41.1999 42.6717 40.7944 42.6717 40.4324 42.5225C40.2683 42.451 40.1207 42.3461 39.9989 42.2142C39.877 42.0823 39.7834 41.9264 39.7241 41.7563C39.6573 41.5337 39.6237 41.3022 39.6245 41.0695C39.6237 40.8039 39.6572 40.5392 39.7241 40.2822C39.7832 40.1118 39.8767 39.9557 39.9988 39.8238C40.1209 39.6918 40.2689 39.587 40.4334 39.516C40.795 39.3652 41.2012 39.3652 41.5629 39.516C41.7273 39.5873 41.8753 39.6922 41.9975 39.824C42.1198 39.9559 42.2136 40.1119 42.2731 40.2822C42.3371 40.5396 42.3685 40.8042 42.3667 41.0695C42.3686 41.3018 42.337 41.5332 42.2731 41.7563" fill="#242E30"/>
<path d="M36.4021 39.8308C36.5122 39.6951 36.6524 39.5876 36.8115 39.5171C36.9912 39.4417 37.1847 39.4053 37.3793 39.4105C37.5615 39.4065 37.7424 39.4429 37.9092 39.5171C38.0329 39.5778 38.1457 39.659 38.2429 39.7574C38.2759 39.7874 38.3184 39.8045 38.3628 39.8056C38.4072 39.8067 38.4505 39.7917 38.4849 39.7635L38.72 39.5493C38.7548 39.517 38.7761 39.4725 38.7796 39.4249C38.7832 39.3772 38.7686 39.3301 38.7389 39.2929C38.5798 39.1461 38.3951 39.0305 38.1941 38.952C37.9345 38.8506 37.6585 38.7991 37.3803 38.8002C37.1022 38.797 36.8262 38.8497 36.5684 38.955C36.3298 39.0524 36.1135 39.1982 35.9329 39.3834C35.7549 39.57 35.616 39.7909 35.5246 40.0329C35.3323 40.6766 35.3323 41.3631 35.5246 42.0068C35.6146 42.2501 35.7521 42.4727 35.929 42.6613C36.1057 42.8488 36.3209 42.995 36.5595 43.0897C37.0803 43.2908 37.6563 43.2908 38.1771 43.0897C38.3778 43.0108 38.5609 42.8926 38.716 42.7418C38.7452 42.7062 38.7605 42.6611 38.7588 42.6149C38.7572 42.5687 38.7387 42.5247 38.707 42.4914L38.5078 42.2963C38.4731 42.2643 38.4278 42.2466 38.3808 42.2466C38.3338 42.2466 38.2885 42.2643 38.2538 42.2963C38.1411 42.4129 38.0053 42.5043 37.8553 42.5644C37.7053 42.6245 37.5445 42.652 37.3832 42.6453C37.1987 42.6477 37.0159 42.6096 36.8473 42.5336C36.6906 42.4596 36.5514 42.3527 36.439 42.2199C36.3242 42.083 36.2348 41.9263 36.175 41.7574C36.1112 41.5201 36.0794 41.2753 36.0804 41.0294C36.0795 40.784 36.1072 40.5393 36.163 40.3004C36.2133 40.1317 36.2948 39.974 36.4031 39.8359" fill="#242E30"/>
<path d="M49.1968 39.7635C49.1532 39.575 49.0684 39.3988 48.9487 39.2477C48.8268 39.1035 48.6705 38.9931 48.4945 38.9269C48.273 38.8451 48.0381 38.8065 47.8023 38.8133C47.546 38.8021 47.2926 38.8706 47.0761 39.0093C46.917 39.1225 46.7785 39.2627 46.6667 39.4236L46.6478 39.4518L46.6388 39.4658C46.6328 39.4726 46.6255 39.478 46.6172 39.4817C46.609 39.4853 46.6 39.4871 46.591 39.487C46.5788 39.4869 46.5668 39.4834 46.5563 39.4771C46.5458 39.4707 46.5371 39.4616 46.5313 39.4508C46.5313 39.4437 46.5193 39.4317 46.5143 39.4196C46.4954 39.3884 46.4765 39.3562 46.4566 39.319C46.3978 39.2264 46.3237 39.1448 46.2374 39.0777C46.1308 38.9963 46.0126 38.9315 45.8868 38.8857C45.572 38.7864 45.2355 38.7808 44.9176 38.8696C44.7871 38.9077 44.6624 38.9639 44.5471 39.0365C44.441 39.1014 44.3447 39.1813 44.2612 39.2738C44.2346 39.3036 44.2097 39.3348 44.1865 39.3673L44.1785 39.3764C44.1767 39.3812 44.1736 39.3853 44.1696 39.3884C44.1634 39.395 44.156 39.4002 44.1477 39.4038C44.1395 39.4074 44.1307 39.4094 44.1217 39.4095C44.1064 39.4096 44.0915 39.4041 44.0796 39.3942C44.0678 39.3843 44.0598 39.3705 44.057 39.3552V39.0848C44.0555 39.0372 44.0359 38.992 44.0024 38.9585C43.9689 38.925 43.9239 38.9058 43.8767 38.9048H43.6446C43.5967 38.9063 43.5512 38.9266 43.5178 38.9613C43.4844 38.996 43.4656 39.0424 43.4653 39.0908V42.952C43.4663 43.0004 43.4857 43.0465 43.5194 43.081C43.5531 43.1154 43.5987 43.1354 43.6466 43.137H43.9255C43.9743 43.1357 44.0207 43.1152 44.0547 43.0799C44.0888 43.0445 44.1078 42.9972 44.1078 42.9479V40.9067C44.106 40.7018 44.1295 40.4975 44.1775 40.2984C44.2184 40.1283 44.2904 39.9673 44.3897 39.8238C44.4856 39.6914 44.613 39.5856 44.7602 39.5161C44.9309 39.4409 45.1159 39.4045 45.3021 39.4095C45.5661 39.4095 45.7563 39.499 45.8709 39.68C45.9854 39.861 46.0442 40.1667 46.0442 40.6001V42.953C46.0447 43.0019 46.0639 43.0487 46.0979 43.0836C46.1319 43.1185 46.178 43.1387 46.2265 43.14H46.5064C46.5551 43.1384 46.6013 43.1178 46.6353 43.0826C46.6693 43.0473 46.6884 43.0001 46.6886 42.9509V40.5588C46.686 40.3988 46.7123 40.2397 46.7663 40.0893C46.8129 39.9558 46.885 39.8328 46.9785 39.7273C47.0667 39.6284 47.1742 39.549 47.2943 39.494C47.4161 39.4378 47.5487 39.4093 47.6827 39.4105C47.8414 39.4045 47.9993 39.4358 48.1439 39.502C48.2581 39.5573 48.3573 39.6397 48.4328 39.7424C48.5055 39.845 48.5564 39.9618 48.5822 40.0852C48.6088 40.2135 48.6222 40.3443 48.622 40.4754V42.957C48.6233 43.0054 48.6429 43.0514 48.6768 43.0857C48.7107 43.1199 48.7564 43.1397 48.8043 43.141H49.0872C49.136 43.1397 49.1824 43.1192 49.2164 43.0839C49.2505 43.0486 49.2695 43.0012 49.2695 42.952V40.4382C49.2722 40.2098 49.2478 39.9819 49.1968 39.7595" fill="#242E30"/>
</svg>
