<svg width="49" height="37" viewBox="0 0 49 37" fill="none" xmlns="http://www.w3.org/2000/svg">
<path d="M35.7714 18.3488C35.7714 18.831 35.4417 19.2353 34.9963 19.3499L32.0085 19.926C31.609 20.0358 31.3063 20.3812 31.2619 20.803C31.2508 21.0274 31.1446 23.2587 30.9718 25.9961C30.9401 26.5054 30.9053 27.0306 30.8688 27.5654C30.8054 28.4853 30.7372 29.4291 30.6627 30.3474C30.4614 32.8254 30.2205 35.1109 29.9622 36.2313C29.8464 36.6737 29.4454 37 28.9683 37H28.9461C27.7748 36.9698 26.67 36.9475 25.5478 36.9284C25.4115 36.9284 25.3005 36.817 25.3005 36.6801V36.6737C25.3005 36.6737 25.5177 33.3267 25.6968 29.063C25.9076 24.0401 26.074 17.6008 25.7332 13.8177C25.7142 13.6124 25.6825 13.528 25.6825 13.528C25.589 13.2925 25.3608 13.1238 25.0929 13.1238C24.9534 13.1238 24.825 13.1684 24.7204 13.2448C24.7204 13.2448 24.6459 13.2925 24.5286 13.4119C24.5286 13.4119 20.5755 17.4687 19.7418 29.5055C19.7418 29.5055 19.7243 29.6742 19.7671 29.8254C19.802 29.9495 19.8686 30.0609 19.9653 30.15C20.0635 30.2376 20.1919 30.3028 20.3552 30.3315L22.4142 30.6164C22.5964 30.645 22.7359 30.7819 22.7359 30.9633C22.7359 30.9633 22.7121 31.471 22.6408 32.4291C22.5695 33.3872 22.4474 34.7973 22.2509 36.6037C22.2271 36.7613 22.0956 36.8838 21.9339 36.8838L20.2395 36.8695C19.523 36.8663 18.7796 36.8647 17.9998 36.8631H17.77C17.155 36.8647 16.5622 36.8647 15.9884 36.8679H15.7047C15.5446 36.8679 15.413 36.7469 15.3956 36.591C15.3496 36.1788 15.2529 35.2668 15.1245 33.9506C14.8503 30.9378 14.9248 30.3156 14.9248 30.3156C14.9375 30.1198 15.0405 29.9511 15.1911 29.8461C16.0343 29.262 16.5891 28.2848 16.5891 27.177C16.5891 27.1627 16.5891 27.15 16.5891 27.1373V27.0752C16.5891 27.0752 16.5875 27.0402 16.5875 27.037C16.4385 22.9865 16.3688 18.3711 16.5844 14.7233C16.5844 14.7074 16.5859 14.6915 16.5844 14.6755C16.5796 14.3429 16.3054 14.0771 15.9741 14.0835C15.6571 14.0883 15.4019 14.3381 15.3845 14.6517C15.283 16.3244 15.2434 18.2024 15.2434 20.1393C15.2434 21.0958 15.2529 22.065 15.2703 23.0311C15.2751 23.4242 14.9644 23.7457 14.5729 23.7537C14.1814 23.76 13.8581 23.4465 13.8501 23.0534C13.7978 20.1504 13.8105 17.2109 13.9579 14.7233C13.9579 14.7074 13.9595 14.6915 13.9595 14.6755C13.9532 14.3429 13.679 14.0771 13.3477 14.0835C13.0307 14.0883 12.7755 14.3381 12.758 14.6517C12.6566 16.3148 12.617 18.1817 12.617 20.1075C12.617 21.0878 12.6281 22.0825 12.6455 23.0725C12.6519 23.4672 12.3396 23.7934 11.9465 23.7998H11.9354C11.5471 23.7998 11.2301 23.4895 11.2237 23.0979C11.2047 22.0937 11.1952 21.0847 11.1952 20.0915C11.1952 18.1992 11.2332 16.3626 11.3299 14.7233C11.3315 14.7074 11.3315 14.6915 11.3315 14.6755C11.3252 14.3429 11.051 14.0771 10.7197 14.0835C10.5612 14.0851 10.4185 14.1487 10.3123 14.2522C10.2061 14.3541 10.1396 14.4957 10.13 14.6517C9.90338 18.4029 9.98263 23.1982 10.1396 27.3458C10.1966 28.4582 10.8116 29.4211 11.7087 29.9591C11.8815 30.0657 12.0004 30.2535 12.0115 30.4699C12.0147 30.5336 12.0194 30.6116 12.0226 30.6737C12.0828 31.9166 12.1526 33.1294 12.2128 34.1607C12.2746 35.1904 12.3301 36.0387 12.365 36.556V36.5639C12.365 36.6562 12.3269 36.7422 12.2667 36.8027C12.2065 36.8631 12.124 36.9013 12.0321 36.9013C11.9877 36.9013 11.9433 36.9029 11.899 36.9029H11.8879C10.1649 36.9268 8.56718 36.9554 6.82521 37H6.80144C6.56368 37 6.34495 36.9188 6.16901 36.782C5.99465 36.6451 5.86626 36.4525 5.80761 36.2313C5.09751 33.1628 4.53324 21.3329 4.50946 20.803C4.46349 20.3812 4.16075 20.0358 3.7629 19.926L0.773503 19.3499C0.328105 19.2353 0 18.831 0 18.3488C0 18.1912 0.0348711 18.0416 0.096688 17.9079C0.207641 17.6215 1.68966 14.8649 4.4413 11.3763C7.19136 7.88765 11.2126 3.6669 16.3989 0.451996C16.6129 0.308758 16.8459 0.195759 17.0947 0.117774C17.3452 0.0413799 17.6099 0 17.8857 0H17.8873C18.1631 0 18.4293 0.0413799 18.6782 0.117774C18.9271 0.195759 19.1616 0.308758 19.374 0.451996C21.6185 1.843 23.6457 3.42339 25.4448 5.05153C25.4448 5.05153 25.4606 5.05949 25.4701 5.05949C25.4907 5.05949 25.5082 5.04357 25.5082 5.02129V3.97406C25.5082 3.62233 25.7919 3.33586 26.1422 3.33586C26.1691 3.33586 26.1961 3.33904 26.2214 3.34222L29.2267 3.70668C29.6531 3.75761 30.0256 4.07592 30.1096 4.50882C30.1096 4.50882 30.2443 5.13429 30.4187 6.23404C30.5946 7.3322 30.8117 8.90304 30.9798 10.7922C30.9909 10.9068 31.0447 11.0134 31.1145 11.101C34.0056 14.7185 35.5637 17.6135 35.6763 17.9079C35.7397 18.0416 35.7745 18.1912 35.7745 18.3488H35.7714Z" fill="#FF8000"/>
<path d="M47.5259 7.02985H44.3907V3.88339C44.3907 3.51893 44.0959 3.2229 43.7329 3.2229H41.2253C40.8624 3.2229 40.5675 3.51893 40.5675 3.88339V7.02985H37.4323C37.0693 7.02985 36.7745 7.32588 36.7745 7.69034V10.2097C36.7745 10.5742 37.0693 10.8702 37.4323 10.8702H40.5675V14.0167C40.5675 14.3812 40.8624 14.6772 41.2253 14.6772H43.7329C44.0959 14.6772 44.3907 14.3812 44.3907 14.0167V10.8702H47.5259C47.8889 10.8702 48.1837 10.5742 48.1837 10.2097V7.69034C48.1837 7.32588 47.8889 7.02985 47.5259 7.02985Z" fill="#FF8000"/>
</svg>
