<svg width="140" height="38" viewBox="0 0 140 38" fill="none" xmlns="http://www.w3.org/2000/svg">
<path d="M116.786 19.9422C116.267 19.3568 115.623 18.8963 114.901 18.5949C114.117 18.2708 113.274 18.1105 112.425 18.1238C111.483 18.1163 110.548 18.2758 109.661 18.5949C108.828 18.8915 108.061 19.3493 107.405 19.9422C106.765 20.5354 106.252 21.253 105.899 22.051C105.17 24.0737 105.17 26.2873 105.899 28.31C106.252 29.1072 106.765 29.8238 107.405 30.4157C108.057 31.012 108.822 31.4713 109.655 31.7661C110.541 32.0852 111.477 32.2447 112.419 32.2372C113.448 32.2394 114.466 32.0198 115.402 31.5934C116.135 31.2633 116.8 30.7976 117.36 30.221C117.46 30.1101 117.515 29.9664 117.515 29.8175C117.515 29.6685 117.46 29.5248 117.36 29.4139L115.586 28.1075L115.457 28.0148C115.344 27.949 115.212 27.9224 115.083 27.9391C114.953 27.9559 114.832 28.0151 114.74 28.1075C114.49 28.3838 114.208 28.6281 113.898 28.8345C113.404 29.1325 112.834 29.2824 112.257 29.2663C111.554 29.2847 110.868 29.0463 110.327 28.5958C109.734 27.9902 109.378 27.1917 109.324 26.3456C109.325 26.2758 109.35 26.2085 109.395 26.1555C109.441 26.1024 109.503 26.0669 109.572 26.0551H117.86C118.012 26.0464 118.155 25.98 118.261 25.8695C118.366 25.759 118.425 25.6126 118.427 25.46V24.8099C118.439 23.8763 118.296 22.9472 118.004 22.0604C117.743 21.2803 117.329 20.5601 116.786 19.9422ZM114.177 23.3606H109.611C109.535 23.3607 109.461 23.3314 109.406 23.2787C109.351 23.2261 109.318 23.1542 109.314 23.0779C109.35 22.8612 109.414 22.65 109.504 22.4498C109.634 22.1623 109.821 21.9043 110.054 21.6914C110.302 21.4623 110.59 21.2804 110.903 21.1544C111.271 21.0101 111.663 20.9392 112.058 20.9456C112.383 20.9335 112.708 20.9904 113.01 21.1124C113.312 21.2345 113.586 21.4189 113.812 21.6537C114.187 22.0336 114.414 22.5345 114.454 23.067C114.453 23.1414 114.424 23.2128 114.373 23.2669C114.321 23.321 114.252 23.3539 114.177 23.359V23.3606Z" fill="#FF8000"/>
<path d="M77.3912 24.6529C76.9026 24.3622 76.3734 24.1457 75.821 24.0107L74.2507 23.6181C73.8342 23.5241 73.4285 23.3872 73.0401 23.2099C72.898 23.1504 72.7771 23.0495 72.6931 22.9204C72.6091 22.7913 72.5659 22.64 72.569 22.486C72.556 22.3139 72.5937 22.1417 72.6774 21.9907C72.7611 21.8398 72.8872 21.7166 73.0401 21.6365C73.3298 21.48 73.653 21.396 73.9822 21.3915C74.6705 21.3745 75.3381 21.627 75.843 22.095C75.9514 22.1906 76.091 22.2433 76.2355 22.2433C76.3801 22.2433 76.5197 22.1906 76.6281 22.095L78.2109 20.429C78.3022 20.3225 78.3524 20.1869 78.3524 20.0466C78.3524 19.9063 78.3022 19.7707 78.2109 19.6643C77.7062 19.2066 77.1052 18.868 76.4522 18.6734C75.6447 18.4224 74.8043 18.2933 73.9587 18.2903C73.3066 18.2905 72.6576 18.3782 72.0288 18.5509C71.4227 18.7107 70.8521 18.9835 70.3471 19.3549C69.854 19.7243 69.4495 20.199 69.1631 20.7446C68.849 21.372 68.6948 22.0673 68.7141 22.7686C68.6779 23.4677 68.8413 24.1626 69.1851 24.7723C69.4836 25.2555 69.8995 25.6552 70.3942 25.9343C70.8872 26.2096 71.4155 26.4162 71.9645 26.5482L73.5347 26.9314C73.9547 27.0247 74.3611 27.1714 74.7438 27.3679C74.889 27.4377 75.0108 27.5482 75.0944 27.6859C75.178 27.8236 75.2199 27.9826 75.2149 28.1436C75.2218 28.3109 75.1723 28.4757 75.0743 28.6115C74.9764 28.7473 74.8356 28.8463 74.6747 28.8926C74.2889 29.0354 73.8801 29.1062 73.4688 29.1014C72.9344 29.1141 72.4062 28.9851 71.9378 28.7277C71.633 28.5558 71.3557 28.3394 71.115 28.0855C71.0008 27.9952 70.857 27.9507 70.7118 27.9609C70.5665 27.9711 70.4303 28.0351 70.3298 28.1405L68.7219 30.0247C68.6341 30.1458 68.5951 30.2955 68.6129 30.4439C68.6306 30.5924 68.7038 30.7287 68.8177 30.8256C69.3518 31.284 69.9784 31.622 70.6549 31.8164C71.5116 32.0774 72.402 32.2118 73.2976 32.2152C73.9795 32.2135 74.6596 32.1446 75.3279 32.0095C75.9831 31.885 76.6106 31.6441 77.1808 31.2982C77.7267 30.963 78.1878 30.5062 78.5281 29.9635C78.9015 29.3224 79.0845 28.5882 79.0557 27.8468C79.0882 27.1471 78.9251 26.4522 78.5846 25.84C78.2851 25.3565 77.8764 24.9499 77.3912 24.6529Z" fill="#FF8000"/>
<path d="M52.5483 15.5927C51.9081 15.1708 51.1901 14.881 50.4364 14.74C49.6359 14.5697 48.8193 14.4865 48.0009 14.492H42.7578C42.6141 14.4943 42.4767 14.5515 42.3739 14.652C42.2711 14.7525 42.2107 14.8885 42.2051 15.0321V31.4836C42.2118 31.6255 42.2718 31.7596 42.3731 31.8592C42.4744 31.9588 42.6096 32.0164 42.7516 32.0206H45.5183C45.6635 32.0162 45.8013 31.9559 45.9031 31.8524C46.0049 31.7488 46.0628 31.61 46.0648 31.4648V25.4696C46.0662 25.3965 46.0952 25.3267 46.1458 25.274C46.1964 25.2213 46.2651 25.1897 46.338 25.1853H48.1752C48.9927 25.1926 49.8083 25.1057 50.606 24.9263C51.3452 24.7775 52.0459 24.4781 52.6645 24.0469C53.2519 23.6186 53.72 23.0473 54.0244 22.3872C54.3778 21.577 54.5473 20.6986 54.5206 19.8151C54.5484 18.9271 54.3654 18.0451 53.9867 17.2415C53.6584 16.5764 53.1627 16.0082 52.5483 15.5927ZM50.2746 20.8405C50.1274 21.1053 49.9136 21.3272 49.6544 21.4843C49.4383 21.6412 49.1917 21.7508 48.9305 21.8062C48.6003 21.8736 48.2641 21.9068 47.9271 21.9051H46.3443C46.2701 21.9035 46.1995 21.8731 46.1474 21.8203C46.0952 21.7676 46.0656 21.6966 46.0648 21.6224V18.0391C46.0656 17.969 46.0924 17.9016 46.14 17.85C46.1875 17.7984 46.2525 17.7662 46.3223 17.7596H47.3288C47.7091 17.7596 48.0892 17.7801 48.4673 17.8209C48.7932 17.8553 49.1097 17.9512 49.4 18.1035C49.7115 18.2489 49.9815 18.4703 50.1851 18.7473C50.408 19.06 50.5212 19.4376 50.507 19.8214C50.5185 20.1754 50.4385 20.5264 50.2746 20.8405Z" fill="#FF8000"/>
<path d="M90.5248 28.9036H84.5406C84.4908 28.896 84.4454 28.8707 84.4128 28.8323C84.3802 28.794 84.3626 28.7451 84.3631 28.6948C84.362 28.6403 84.3816 28.5876 84.4181 28.5472L84.5045 28.4702L84.572 28.4058L90.2249 23.0277L90.5468 22.7058C90.6702 22.5978 90.7702 22.4655 90.8404 22.3172C90.9106 22.1689 90.9496 22.0078 90.955 21.8438V19.1571C90.9554 19.0785 90.9404 19.0006 90.9107 18.9279C90.881 18.8551 90.8373 18.789 90.782 18.7331C90.7268 18.6773 90.661 18.6328 90.5886 18.6024C90.5162 18.572 90.4385 18.5561 90.3599 18.5557H80.5537C80.3972 18.5565 80.2472 18.6186 80.136 18.7286C80.0247 18.8387 79.9611 18.988 79.9586 19.1445V21.1042C79.9619 21.2601 80.0259 21.4086 80.1371 21.518C80.2482 21.6274 80.3977 21.6891 80.5537 21.6899H85.9114C85.9637 21.6953 86.0122 21.7201 86.0473 21.7592C86.0824 21.7984 86.1017 21.8492 86.1014 21.9019C86.1019 21.9466 86.0888 21.9904 86.0637 22.0275L81.0044 26.9392L80.2789 27.6364L80.1439 27.7683C79.9304 27.9871 79.8085 28.2792 79.8031 28.5848V31.4443C79.8052 31.6006 79.8685 31.7499 79.9795 31.86C80.0905 31.9701 80.2403 32.0323 80.3967 32.0331H90.5248C90.6832 32.0314 90.8346 31.9674 90.946 31.8547C91.0574 31.7421 91.1199 31.5901 91.1199 31.4317V29.505C91.1191 29.3468 91.0563 29.1953 90.9451 29.0828C90.8338 28.9704 90.6829 28.9061 90.5248 28.9036Z" fill="#FF8000"/>
<path d="M68.8836 19.0078C68.8763 18.9764 68.8669 18.945 68.8554 18.9136C68.8123 18.8139 68.7426 18.7279 68.654 18.6651C68.5654 18.6022 68.4612 18.5649 68.3529 18.5571H66.0179C65.7992 18.5652 65.587 18.6338 65.4049 18.7552C65.2228 18.8766 65.0779 19.0461 64.9863 19.2449C64.9706 19.2794 64.9565 19.3156 64.9439 19.3517L64.9282 19.4129C64.923 19.4458 64.914 19.4779 64.9015 19.5087L64.8308 19.7348L62.7047 26.6942L62.6796 26.7837C62.6619 26.8445 62.6247 26.8979 62.5735 26.9354C62.5224 26.9729 62.4603 26.9924 62.3969 26.9909C62.3387 26.9912 62.2816 26.9741 62.233 26.942C62.1844 26.9099 62.1464 26.8641 62.1237 26.8104L59.5925 19.738L59.5627 19.6469L59.3899 19.168C59.2922 18.9894 59.1499 18.8392 58.9767 18.7321C58.8036 18.6251 58.6057 18.5648 58.4022 18.5571H55.7611C55.6666 18.5757 55.5781 18.617 55.5031 18.6775C55.4281 18.738 55.369 18.8157 55.3308 18.9042C55.3174 18.9342 55.3079 18.9659 55.3026 18.9984C55.2803 19.0995 55.2857 19.2047 55.3183 19.303L60.3541 31.5729C60.4288 31.8286 60.4144 32.1022 60.3132 32.3486L60.296 32.3894L60.2065 32.6187C60.0683 32.9626 59.9395 33.2609 59.8202 33.5185C59.709 33.7579 59.5564 33.9758 59.3695 34.1623C59.1766 34.3495 58.9435 34.4902 58.688 34.5737C58.346 34.676 57.9897 34.7227 57.6328 34.7118H55.9636C55.8134 34.7178 55.6711 34.7806 55.5655 34.8876C55.46 34.9947 55.3991 35.1378 55.3952 35.2881V37.3844C55.398 37.5353 55.4591 37.6792 55.5656 37.786C55.6722 37.8929 55.8159 37.9543 55.9668 37.9575H58.1965C58.9586 37.9812 59.7198 37.8896 60.4546 37.6859C60.9758 37.5304 61.4544 37.2575 61.8536 36.8882C62.2368 36.5208 62.5474 36.0845 62.7691 35.6022C63.012 35.0871 63.2611 34.4951 63.5165 33.8262L68.9198 19.2402C68.9241 19.161 68.9118 19.0819 68.8836 19.0078Z" fill="#FF8000"/>
<path d="M103.322 19.9658C102.978 19.4119 102.484 18.9663 101.898 18.6798C101.139 18.342 100.313 18.1829 99.4831 18.215C99.0398 18.2108 98.5984 18.2727 98.1735 18.3987C97.7969 18.5094 97.436 18.6677 97.0994 18.8698C96.8004 19.0446 96.5277 19.2608 96.2892 19.512C96.2097 19.5948 96.1347 19.6818 96.0646 19.7727C96.0264 19.81 95.9751 19.8308 95.9217 19.8308C95.8669 19.8316 95.8139 19.8108 95.7742 19.7729C95.7346 19.735 95.7114 19.683 95.7098 19.6282V19.11C95.7096 19.0315 95.6938 18.9537 95.6634 18.8813C95.633 18.8089 95.5886 18.7432 95.5327 18.688C95.4768 18.6328 95.4105 18.5892 95.3377 18.5598C95.2648 18.5304 95.1869 18.5156 95.1084 18.5165H92.5363C92.3783 18.5169 92.2267 18.5793 92.1142 18.6903C92.0017 18.8013 91.9373 18.952 91.9349 19.11V31.4318C91.9429 31.5852 92.0094 31.7298 92.1206 31.8358C92.2319 31.9418 92.3795 32.0012 92.5331 32.0017H95.2701C95.4233 32.0007 95.5704 31.9411 95.681 31.8351C95.7917 31.7291 95.8576 31.5848 95.8652 31.4318V24.9419C95.8636 24.5386 95.8903 24.1356 95.9453 23.736C95.9887 23.3748 96.0978 23.0246 96.2672 22.7027C96.4344 22.3964 96.6834 22.1426 96.9864 21.9694C97.3661 21.7713 97.791 21.676 98.219 21.6931C98.5973 21.6554 98.9772 21.746 99.2978 21.9501C99.6185 22.1543 99.8612 22.4603 99.9871 22.8189C100.122 23.1667 100.201 23.5333 100.223 23.9056C100.251 24.2981 100.26 24.6813 100.26 25.0471V31.4851C100.269 31.6383 100.335 31.7825 100.447 31.8882C100.558 31.9938 100.705 32.053 100.859 32.0536H103.592C103.746 32.053 103.893 31.9938 104.004 31.8882C104.116 31.7825 104.182 31.6383 104.191 31.4851V24.262C104.195 23.4654 104.134 22.6697 104.009 21.8831C103.91 21.2046 103.677 20.5526 103.322 19.9658Z" fill="#FF8000"/>
<path d="M138.53 13.1257H137.61C137.45 13.1306 137.299 13.1974 137.187 13.3119C137.076 13.4264 137.013 13.5798 137.012 13.7397V31.4442C137.018 31.6022 137.083 31.7522 137.194 31.8642C137.306 31.9763 137.455 32.0422 137.613 32.0488H138.534C138.694 32.0443 138.846 31.9772 138.958 31.8619C139.07 31.7467 139.132 31.5923 139.132 31.4317V13.7428C139.133 13.5815 139.071 13.4262 138.958 13.3106C138.845 13.1951 138.692 13.1286 138.53 13.1257Z" fill="#FF8000"/>
<path d="M120.185 29.2616C119.985 29.2547 119.786 29.2913 119.602 29.3688C119.418 29.4464 119.252 29.563 119.117 29.7106C118.842 29.9899 118.688 30.3673 118.69 30.7598C118.693 31.1524 118.851 31.5279 119.13 31.8038C119.409 32.0797 119.787 32.2334 120.179 32.231C120.572 32.2287 120.947 32.0705 121.223 31.7912C121.234 31.7802 121.245 31.7708 121.255 31.7598C121.515 31.4836 121.66 31.1186 121.66 30.7392C121.66 30.3598 121.515 29.9947 121.255 29.7185C121.12 29.5689 120.955 29.4504 120.771 29.3715C120.586 29.2925 120.386 29.255 120.185 29.2616Z" fill="#FF8000"/>
<path d="M133.594 20.3003C133.095 19.7384 132.48 19.2911 131.792 18.9891C131.073 18.6811 130.298 18.5222 129.516 18.5222C128.733 18.5222 127.958 18.6811 127.239 18.9891C126.652 19.2417 126.128 19.6201 125.705 20.0977V19.0881C125.682 18.9423 125.61 18.8088 125.5 18.7099C125.391 18.611 125.251 18.5527 125.103 18.5448H124.183C124.036 18.5491 123.895 18.6064 123.786 18.7061C123.677 18.8059 123.608 18.9415 123.591 19.0881V37.259C123.608 37.4054 123.677 37.5408 123.786 37.6401C123.895 37.7394 124.036 37.7959 124.183 37.7991H125.116C125.263 37.7959 125.404 37.7394 125.513 37.6401C125.622 37.5408 125.691 37.4054 125.708 37.259V30.9167C126.145 31.3431 126.668 31.6722 127.242 31.8824C127.961 32.1905 128.736 32.3494 129.519 32.3494C130.301 32.3494 131.076 32.1905 131.796 31.8824C132.482 31.5769 133.096 31.1295 133.597 30.5697C134.114 29.9786 134.515 29.2958 134.781 28.5567C135.079 27.5982 135.225 26.5989 135.214 25.5952C135.214 24.6295 135.07 23.0985 134.781 22.3196C134.515 21.578 134.112 20.893 133.594 20.3003ZM133.035 27.7307C132.874 28.2511 132.615 28.7357 132.271 29.1581C131.942 29.5728 131.523 29.9077 131.046 30.138C130.568 30.3682 130.045 30.4878 129.516 30.4878C128.986 30.4878 128.463 30.3682 127.986 30.138C127.509 29.9077 127.09 29.5728 126.76 29.1581C126.416 28.7355 126.156 28.251 125.994 27.7307C125.817 27.0328 125.729 26.3152 125.733 25.5952C125.728 24.7705 125.816 23.9478 125.994 23.1424C126.157 22.6211 126.417 22.1353 126.76 21.7104C127.086 21.3088 127.492 20.9803 127.953 20.7462C128.441 20.5152 128.974 20.3953 129.514 20.3953C130.054 20.3953 130.587 20.5152 131.075 20.7462C131.537 20.9807 131.944 21.3091 132.271 21.7104C132.615 22.1344 132.874 22.6206 133.035 23.1424C133.214 23.9476 133.303 24.7703 133.298 25.5952C133.303 26.3154 133.214 27.0332 133.035 27.7307Z" fill="#FF8000"/>
<path d="M35.4499 17.6936C35.3384 17.4031 33.7949 14.5531 30.9307 10.9776C30.8578 10.8913 30.8119 10.7853 30.7988 10.673C30.6256 8.59221 30.3372 6.5226 29.9352 4.47367C29.8896 4.26789 29.7808 4.08153 29.6239 3.94073C29.4671 3.79993 29.2701 3.71175 29.0606 3.68855L26.0771 3.32896C26.051 3.32732 26.0247 3.32732 25.9986 3.32896C25.832 3.32896 25.6723 3.39514 25.5545 3.51293C25.4367 3.63072 25.3705 3.79048 25.3705 3.95706V4.99028C25.3705 5.00028 25.3665 5.00986 25.3595 5.01693C25.3524 5.024 25.3428 5.02797 25.3328 5.02797C25.3235 5.02817 25.3145 5.0248 25.3077 5.01855C23.4458 3.32529 21.4351 1.80332 19.2999 0.471109C18.8644 0.178851 18.3515 0.0235436 17.827 0.025159C17.3021 0.0237092 16.7887 0.178989 16.3526 0.471109C6.07686 6.81491 0.420831 17.1283 0.202567 17.6936C0.139349 17.8299 0.106659 17.9783 0.106781 18.1285C0.107041 18.355 0.182629 18.575 0.321643 18.7538C0.460656 18.9326 0.655198 19.0601 0.874632 19.1162L3.83455 19.6847C4.03012 19.7386 4.20507 19.8498 4.33689 20.004C4.4687 20.1582 4.55133 20.3483 4.57414 20.5499C4.59769 21.0728 5.1567 32.7444 5.86017 35.7719C5.91766 35.9892 6.04538 36.1813 6.22345 36.3185C6.40152 36.4557 6.61994 36.5301 6.84471 36.5303H6.86827C8.59554 36.4863 10.1768 36.4581 11.8836 36.4345H12.0265C12.07 36.4343 12.1131 36.4255 12.1532 36.4087C12.1933 36.3918 12.2297 36.3673 12.2604 36.3363C12.291 36.3054 12.3152 36.2688 12.3317 36.2285C12.3481 36.1882 12.3565 36.1451 12.3563 36.1016C12.2872 35.0825 12.138 32.7523 12.0171 30.2917C12.0171 30.2304 12.0093 30.1535 12.0061 30.0907C12.0009 29.9886 11.9709 29.8894 11.9186 29.8015C11.8663 29.7137 11.7934 29.6399 11.7062 29.5866C11.2551 29.3178 10.8772 28.9419 10.6061 28.4921C10.3349 28.0424 10.1788 27.5327 10.1517 27.0083C9.99463 22.9162 9.91769 18.1851 10.1422 14.484C10.1454 14.3262 10.2111 14.176 10.3249 14.0666C10.4387 13.9572 10.5913 13.8975 10.7491 13.9007C10.907 13.9038 11.0571 13.9695 11.1665 14.0833C11.2759 14.1971 11.3356 14.3497 11.3325 14.5076C11.3325 14.5233 11.3325 14.539 11.3325 14.5547C11.1865 17.0215 11.1755 19.939 11.2273 22.8173C11.2289 22.9101 11.2488 23.0017 11.2859 23.0868C11.3229 23.1719 11.3763 23.2488 11.4431 23.3133C11.5099 23.3777 11.5887 23.4284 11.6751 23.4624C11.7614 23.4964 11.8537 23.513 11.9465 23.5114C12.0392 23.5097 12.1308 23.4898 12.2159 23.4528C12.301 23.4157 12.378 23.3623 12.4424 23.2955C12.5069 23.2287 12.5575 23.1499 12.5915 23.0635C12.6255 22.9772 12.6421 22.885 12.6405 22.7922C12.5871 19.8951 12.6012 16.9587 12.752 14.484C12.7551 14.3262 12.8208 14.176 12.9346 14.0666C13.0484 13.9572 13.2011 13.8975 13.3589 13.9007C13.5167 13.9038 13.6669 13.9695 13.7763 14.0833C13.8857 14.1971 13.9454 14.3497 13.9422 14.5076C13.9422 14.5233 13.9422 14.539 13.9422 14.5547C13.7978 17.009 13.7852 19.9092 13.8355 22.7718C13.8384 22.9592 13.9156 23.1377 14.0502 23.2682C14.1848 23.3987 14.3657 23.4703 14.5531 23.4674C14.7405 23.4645 14.919 23.3872 15.0495 23.2527C15.1799 23.1181 15.2516 22.9372 15.2487 22.7498C15.1953 19.8652 15.211 16.9399 15.3602 14.4824C15.3704 14.3298 15.4391 14.187 15.5518 14.0837C15.6646 13.9803 15.8128 13.9244 15.9657 13.9274C16.1187 13.9304 16.2646 13.9922 16.3731 14.1C16.4817 14.2077 16.5446 14.3531 16.5488 14.506C16.5488 14.5217 16.5488 14.5374 16.5488 14.5531C16.3353 18.1521 16.406 22.7058 16.5488 26.7021C16.5488 26.7021 16.5488 26.7366 16.5488 26.7398C16.5488 26.7429 16.5488 26.7806 16.5488 26.801V26.8403C16.5493 27.3587 16.4234 27.8694 16.1821 28.3282C15.9408 28.7871 15.5913 29.1802 15.1639 29.4736C15.0878 29.5258 15.0245 29.5947 14.9788 29.6749C14.9331 29.7551 14.9062 29.8447 14.9001 29.9368C14.9001 29.9368 14.8263 30.5508 15.0979 33.5233C15.2251 34.8219 15.3209 35.7216 15.3664 36.1283C15.3764 36.2043 15.4139 36.2741 15.4717 36.3244C15.5296 36.3747 15.6038 36.4022 15.6805 36.4015H15.9569C16.5269 36.4015 17.1157 36.4015 17.7265 36.4015H17.9542H20.173L21.8516 36.4157C21.9287 36.4162 22.0034 36.3883 22.0613 36.3374C22.1192 36.2864 22.1564 36.2159 22.1656 36.1393C22.555 32.5764 22.6461 30.5759 22.6461 30.5759C22.644 30.4904 22.6111 30.4084 22.5534 30.3452C22.4957 30.282 22.4171 30.2418 22.3321 30.232L20.2907 29.9509C20.1554 29.934 20.028 29.8776 19.9244 29.7889C19.8208 29.7001 19.7456 29.5828 19.7082 29.4516C19.6826 29.349 19.6741 29.2429 19.6831 29.1376C20.509 17.2618 24.4252 13.2592 24.4252 13.2592C24.4829 13.198 24.5465 13.1428 24.6152 13.0943C24.7225 13.0166 24.8517 12.9749 24.9842 12.975C25.1104 12.9751 25.2336 13.0132 25.3378 13.0844C25.442 13.1555 25.5223 13.2564 25.5684 13.3738C25.5963 13.4668 25.6131 13.5627 25.6186 13.6596C25.9562 17.3921 25.7913 23.7453 25.5825 28.701C25.405 32.9077 25.1899 36.21 25.1899 36.21C25.1899 36.2749 25.2157 36.3372 25.2617 36.3832C25.3076 36.4291 25.3699 36.4549 25.4349 36.4549C26.5466 36.4738 27.6411 36.4957 28.8015 36.5256H28.8235C29.0485 36.5255 29.2671 36.4511 29.4454 36.314C29.6238 36.1768 29.7518 35.9846 29.8096 35.7671C30.5115 32.7397 31.0658 21.0681 31.0956 20.5452C31.1178 20.3434 31.2002 20.1529 31.3321 19.9986C31.464 19.8443 31.6393 19.7333 31.8352 19.68L34.7951 19.1115C35.0146 19.0554 35.2091 18.9279 35.3481 18.7491C35.4871 18.5703 35.5627 18.3503 35.563 18.1238C35.5578 17.9738 35.5191 17.8268 35.4499 17.6936Z" fill="#FF8000"/>
</svg>
