<svg width="27" height="43" viewBox="0 0 27 43" fill="none" xmlns="http://www.w3.org/2000/svg">
<path d="M19.1177 32.6309C19.1293 32.5894 19.1314 32.5458 19.1239 32.5034C19.1164 32.461 19.0995 32.4209 19.0745 32.3864C19.0494 32.3519 19.017 32.3238 18.9797 32.3044C18.9424 32.285 18.9013 32.2748 18.8596 32.2746H16.5652L13.7522 42.1265L12.6817 37.3351L15.9538 32.7205C15.9757 32.6904 15.9919 32.6562 16.0014 32.6198L16.0585 32.4171C16.0623 32.3997 16.0624 32.3816 16.0588 32.3641C16.0551 32.3466 16.0479 32.3302 16.0374 32.3159C16.027 32.3016 16.0137 32.2899 15.9984 32.2815C15.9832 32.2731 15.9663 32.2682 15.949 32.2672H13.6189L11.1212 36.0537L12.1916 32.6235C12.2032 32.5821 12.2054 32.5384 12.1979 32.496C12.1904 32.4536 12.1734 32.4135 12.1484 32.379C12.1234 32.3445 12.091 32.3164 12.0537 32.297C12.0164 32.2776 11.9753 32.2674 11.9335 32.2672H9.62604L7.62899 39.2701C7.673 38.0673 6.77023 37.1188 6.2445 36.5193C5.81869 36.0279 5.56177 35.6839 5.60816 35.2969C5.64081 35.0397 5.75996 34.8025 5.94478 34.6269C6.1296 34.4513 6.36831 34.3483 6.61917 34.3361C7.19247 34.2894 7.43988 34.4713 7.8086 34.6482C7.85039 34.6698 7.89629 34.6815 7.943 34.6826C7.98052 34.6826 8.01769 34.6751 8.05243 34.6605C8.09101 34.6453 8.12575 34.6213 8.15399 34.5902C8.18223 34.5592 8.20322 34.5218 8.21538 34.4811L8.753 32.6075L8.37239 32.4343L8.31767 32.4085L8.29983 32.3999C7.85807 32.2063 7.38207 32.1101 6.90225 32.1173C4.88023 32.1173 3.04018 33.6125 2.73926 35.4504C2.52754 36.738 3.32565 37.6459 3.90847 38.3081L3.95961 38.3658C4.38067 38.8327 4.67327 39.1951 4.60309 39.6153C4.50675 40.2038 3.95247 40.5404 3.41366 40.5859C2.82609 40.635 2.46212 40.463 1.99943 40.2566C1.91919 40.2078 1.82479 40.19 1.733 40.2062C1.68891 40.2204 1.64884 40.2455 1.61629 40.2793C1.58374 40.3132 1.5597 40.3547 1.54626 40.4004L1.03481 42.2113L0.968201 42.4422C1.64841 42.7718 2.38778 42.9509 3.13891 42.9681C4.86239 42.9681 6.35036 42.285 7.23648 40.6338L6.71432 42.4766C6.70211 42.5182 6.69962 42.5621 6.70706 42.6048C6.71451 42.6475 6.73167 42.6878 6.75714 42.7224C6.7822 42.7569 6.81468 42.785 6.85204 42.8044C6.8894 42.8238 6.93061 42.834 6.97243 42.8342H9.27754L9.85322 40.8107L10.5562 39.7652L11.0974 42.6105C11.1092 42.6735 11.142 42.7303 11.1899 42.7711C11.2379 42.8119 11.2981 42.8342 11.3602 42.8342H16.2107L19.1177 32.6309Z" fill="#FF8000"/>
<path d="M25.2884 33.0718C25.0644 32.8189 24.7913 32.6174 24.4871 32.4805C24.1828 32.3435 23.854 32.2742 23.5221 32.2769H19.7017L19.5387 32.8359C19.5315 32.8616 19.5297 32.8886 19.5334 32.9151C19.5371 32.9416 19.5462 32.967 19.5601 32.9895L19.6684 33.1664C19.7209 33.2517 19.7548 33.3476 19.768 33.4477C19.7811 33.5478 19.7731 33.6497 19.7445 33.7463L17.2633 42.4692C17.2514 42.5104 17.2489 42.5538 17.2559 42.5962C17.2629 42.6386 17.2794 42.6787 17.3039 42.7134C17.3284 42.7482 17.3604 42.7766 17.3973 42.7964C17.4342 42.8163 17.4751 42.8271 17.5167 42.8279H19.7445L20.4391 40.4027H21.4418C23.8623 40.4346 25.0886 38.6827 25.6357 36.771C25.8593 35.9909 25.9652 35.4319 25.9616 35.051C25.9485 34.2279 25.7499 33.6001 25.2884 33.0718ZM23.4472 35.2943C23.3975 35.8543 23.2559 36.4014 23.0285 36.9123C22.743 37.5696 22.4778 38.0586 21.7273 38.147H21.0731L22.0972 34.5559L22.9583 34.5621C23.0166 34.5591 23.0748 34.5685 23.1294 34.5896C23.184 34.6108 23.2338 34.6432 23.2759 34.6849C23.4103 34.8287 23.4614 35.0302 23.4472 35.2943Z" fill="#FF8000"/>
<path d="M26.8121 13.8385C26.7276 13.6112 25.5584 11.3814 23.3889 8.58391C23.3336 8.51634 23.2989 8.43344 23.289 8.34557C23.1577 6.71714 22.9393 5.09746 22.6348 3.49394C22.6003 3.33293 22.5178 3.18712 22.399 3.07696C22.2802 2.9668 22.131 2.8978 21.9723 2.87965L19.7183 2.59708C19.6985 2.59586 19.6787 2.59586 19.6589 2.59708C19.5327 2.59708 19.4117 2.64886 19.3224 2.74102C19.2332 2.83318 19.1831 2.95817 19.1831 3.08851V3.89691C19.1831 3.90078 19.1824 3.90462 19.1809 3.90819C19.1795 3.91177 19.1774 3.91502 19.1747 3.91776C19.1721 3.9205 19.1689 3.92267 19.1655 3.92415C19.162 3.92563 19.1583 3.9264 19.1546 3.9264C19.1475 3.92655 19.1407 3.92391 19.1355 3.91902C17.7231 2.59683 16.1985 1.40852 14.58 0.368452C14.2496 0.139964 13.8607 0.0184785 13.4631 0.0195381C13.0655 0.0184785 12.6767 0.139964 12.3463 0.368452C4.56384 5.32697 0.279527 13.3913 0.118954 13.8385C0.0703519 13.9448 0.045132 14.0608 0.045105 14.1784C0.045078 14.2959 0.0702443 14.412 0.118798 14.5183C0.167351 14.6246 0.238087 14.7184 0.325926 14.7931C0.413765 14.8679 0.516529 14.9215 0.62684 14.9504L2.86891 15.3963C3.01713 15.4384 3.14974 15.5253 3.24961 15.646C3.34947 15.7667 3.41201 15.9155 3.42913 16.0733C3.44697 16.4812 3.8716 25.6144 4.40327 27.9831C4.44706 28.1532 4.54403 28.3036 4.67911 28.4109C4.81419 28.5182 4.97982 28.5764 5.15023 28.5765H5.16688C6.47525 28.5421 7.67301 28.5199 8.9671 28.5015H9.07415C9.14073 28.5009 9.20438 28.4732 9.25135 28.4244C9.29831 28.3757 9.32481 28.3098 9.32512 28.2411V28.2349C9.2716 27.4376 9.1586 25.6144 9.06702 23.6892C9.06702 23.6413 9.06107 23.5811 9.05869 23.5319C9.05475 23.4521 9.03199 23.3744 8.9924 23.3057C8.95282 23.237 8.89759 23.1793 8.83151 23.1376C8.49002 22.9271 8.20403 22.6329 7.99885 22.281C7.79367 21.9292 7.67563 21.5305 7.65517 21.1203C7.53622 17.9174 7.47794 14.2169 7.64684 11.3199C7.64936 11.1964 7.69928 11.079 7.7856 10.9936C7.87193 10.9081 7.98759 10.8615 8.10715 10.8641C8.22671 10.8667 8.34036 10.9183 8.42312 11.0075C8.50588 11.0966 8.55095 11.2161 8.54843 11.3396V11.3765C8.43781 13.3065 8.42948 15.5892 8.46755 17.8412C8.46879 17.9138 8.48388 17.9854 8.51193 18.052C8.53998 18.1186 8.58046 18.1788 8.63104 18.2292C8.68163 18.2797 8.74133 18.3193 8.80675 18.3459C8.87217 18.3725 8.94201 18.3855 9.0123 18.3842C9.08259 18.3829 9.15195 18.3674 9.21641 18.3384C9.28087 18.3094 9.33917 18.2676 9.38799 18.2153C9.43681 18.1631 9.47518 18.1014 9.50093 18.0339C9.52667 17.9663 9.53928 17.8941 9.53803 17.8215C9.49759 15.5548 9.50948 13.2574 9.62248 11.3199C9.625 11.1964 9.67492 11.079 9.76124 10.9936C9.84757 10.9081 9.96323 10.8615 10.0828 10.8641C10.2023 10.8667 10.316 10.9183 10.3988 11.0075C10.4815 11.0966 10.5266 11.2161 10.5241 11.3396C10.5241 11.3519 10.5241 11.3642 10.5241 11.3765C10.4146 13.2967 10.4051 15.5659 10.4432 17.8056C10.4454 17.9522 10.5039 18.0919 10.6058 18.194C10.7078 18.296 10.8448 18.3521 10.9868 18.3498C11.1287 18.3475 11.264 18.2871 11.3628 18.1818C11.4616 18.0765 11.5159 17.935 11.5137 17.7884C11.4732 15.5315 11.4851 13.2427 11.5981 11.3187C11.5994 11.2576 11.6123 11.1973 11.6361 11.1413C11.6599 11.0853 11.6941 11.0347 11.7369 10.9923C11.7796 10.95 11.83 10.9168 11.8852 10.8946C11.9404 10.8724 11.9992 10.8616 12.0584 10.8629C12.1176 10.8642 12.176 10.8775 12.2302 10.9021C12.2844 10.9267 12.3334 10.9621 12.3744 11.0062C12.4154 11.0504 12.4475 11.1024 12.469 11.1594C12.4905 11.2164 12.501 11.2772 12.4997 11.3384C12.4997 11.3507 12.4997 11.3629 12.4997 11.3752C12.3391 14.1899 12.3915 17.754 12.4997 20.8807C12.4997 20.8807 12.4997 20.9077 12.4997 20.9102C12.4997 20.9126 12.4997 20.9421 12.4997 20.9569V20.9876C12.5 21.3932 12.4047 21.7928 12.2219 22.1518C12.0391 22.5107 11.7744 22.8183 11.4506 23.0479C11.3932 23.089 11.3454 23.1429 11.3108 23.2056C11.2762 23.2683 11.2557 23.3383 11.2508 23.4103C11.2508 23.4103 11.1961 23.8907 11.4007 26.2164C11.497 27.2324 11.5696 27.9364 11.6041 28.2546C11.6116 28.3141 11.64 28.3686 11.6838 28.408C11.7276 28.4474 11.7839 28.4689 11.842 28.4683H12.0501C12.4831 28.4683 12.9279 28.4683 13.3906 28.4683H13.5642C14.1494 28.4683 14.7061 28.4683 15.2437 28.4683L16.5152 28.4794C16.5737 28.4798 16.6302 28.458 16.6741 28.4182C16.718 28.3783 16.7461 28.3231 16.7531 28.2632C17.0481 25.4755 17.1171 23.9091 17.1171 23.9091C17.1154 23.8423 17.0905 23.7784 17.0467 23.7291C17.003 23.6799 16.9435 23.6487 16.8792 23.6413L15.3329 23.4214C15.23 23.4083 15.1332 23.3641 15.0544 23.2944C14.9757 23.2246 14.9187 23.1325 14.8905 23.0295C14.871 22.9492 14.8645 22.8662 14.8714 22.7837C15.4983 13.4921 18.4635 10.3604 18.4635 10.3604C18.5075 10.3147 18.5557 10.2735 18.6074 10.2376C18.6662 10.1936 18.734 10.1641 18.8056 10.1513C18.8772 10.1386 18.9506 10.1429 19.0203 10.164C19.09 10.1851 19.1541 10.2225 19.2077 10.2731C19.2613 10.3238 19.3029 10.3864 19.3294 10.4563C19.3505 10.529 19.3633 10.604 19.3675 10.6799C19.6232 13.6002 19.4983 18.571 19.3401 22.4483C19.2057 25.7397 19.0427 28.3234 19.0427 28.3234C19.0427 28.3742 19.0623 28.423 19.0971 28.4589C19.1319 28.4948 19.1791 28.515 19.2283 28.515C20.0704 28.5298 20.8994 28.547 21.7784 28.5703H21.7951C21.9655 28.5703 22.1311 28.5121 22.2662 28.4047C22.4013 28.2974 22.4983 28.147 22.542 27.9769C23.0737 25.6082 23.4936 16.475 23.5162 16.0671C23.533 15.9093 23.5954 15.7603 23.6953 15.6395C23.7952 15.5188 23.928 15.4319 24.0764 15.3902L26.3185 14.9442C26.4288 14.9154 26.5315 14.8617 26.6194 14.787C26.7072 14.7123 26.778 14.6184 26.8265 14.5121C26.8751 14.4058 26.9002 14.2898 26.9002 14.1722C26.9002 14.0547 26.875 13.9386 26.8264 13.8324L26.8121 13.8385Z" fill="#FF8000"/>
</svg>
