<svg width="39" height="42" viewBox="0 0 39 42" fill="none" xmlns="http://www.w3.org/2000/svg">
<path d="M1.18595 32.844H2.922C2.96309 32.8444 3.00312 32.8573 3.03691 32.8811C3.0707 32.9049 3.09669 32.9385 3.11152 32.9775L4.87308 37.5522C4.88071 37.5718 4.89394 37.5885 4.91105 37.6004C4.92817 37.6122 4.94837 37.6185 4.96905 37.6185C4.98974 37.6185 5.00994 37.6122 5.02706 37.6004C5.04417 37.5885 5.0574 37.5718 5.06503 37.5522L6.84481 32.9775C6.86013 32.9385 6.88661 32.905 6.92083 32.8814C6.95505 32.8578 6.99543 32.8452 7.03676 32.8452H8.73758C8.79203 32.8452 8.84425 32.8672 8.88275 32.9064C8.92126 32.9456 8.94289 32.9988 8.94289 33.0542V39.4575C8.94289 39.513 8.9213 39.5663 8.88283 39.6057C8.84436 39.645 8.79214 39.6673 8.73758 39.6677H7.57009C7.51531 39.6677 7.46278 39.6455 7.42405 39.6061C7.38532 39.5667 7.36356 39.5132 7.36356 39.4575V36.0772C7.36374 36.0527 7.35549 36.0288 7.34025 36.0099C7.325 35.9909 7.30372 35.9779 7.28007 35.9732C7.25643 35.9685 7.23192 35.9724 7.21078 35.9842C7.18964 35.9959 7.17321 36.0148 7.16432 36.0376L5.76601 39.5354C5.75037 39.5741 5.72377 39.6072 5.6896 39.6306C5.65542 39.6539 5.61521 39.6664 5.57406 39.6664H4.35919C4.31804 39.6664 4.27783 39.6539 4.24365 39.6306C4.20948 39.6072 4.18288 39.5741 4.16724 39.5354L2.7665 36.0376C2.75761 36.0148 2.74117 35.9959 2.72004 35.9842C2.6989 35.9724 2.67439 35.9685 2.65074 35.9732C2.6271 35.9779 2.60582 35.9909 2.59057 36.0099C2.57533 36.0288 2.56708 36.0527 2.56726 36.0772V39.4562C2.56726 39.4838 2.56192 39.5112 2.55154 39.5367C2.54116 39.5622 2.52595 39.5853 2.50677 39.6049C2.48759 39.6244 2.46482 39.6399 2.43977 39.6504C2.41471 39.661 2.38785 39.6664 2.36073 39.6664H1.18474C1.13018 39.6661 1.07796 39.6438 1.03949 39.6044C1.00102 39.5651 0.979426 39.5118 0.979427 39.4562V33.0591C0.978779 33.0311 0.983643 33.0032 0.993731 32.9772C1.00382 32.9511 1.01893 32.9273 1.03817 32.9073C1.05742 32.8872 1.0804 32.8713 1.10578 32.8605C1.13116 32.8496 1.15842 32.844 1.18595 32.844V32.844Z" fill="#242E30"/>
<path d="M9.40576 37.0738C9.40576 35.8041 10.1687 34.3538 12.0153 34.3538C13.8619 34.3538 14.5932 35.8028 14.5932 37.0738C14.5912 37.1926 14.5815 37.3112 14.5641 37.4287C14.5573 37.4788 14.5329 37.5248 14.4954 37.558C14.4578 37.5912 14.4097 37.6094 14.36 37.6092H11.0993C11.0823 37.6097 11.0657 37.6145 11.0509 37.6231C11.0361 37.6317 11.0237 37.6439 11.0147 37.6585C11.0057 37.6732 11.0004 37.6899 10.9992 37.7072C10.9981 37.7245 11.0012 37.7418 11.0082 37.7576C11.2074 38.2212 11.6836 38.4289 12.1526 38.4289C12.5035 38.4377 12.8485 38.3358 13.1403 38.1371C13.1803 38.1084 13.2288 38.0948 13.2776 38.0986C13.3264 38.1025 13.3724 38.1235 13.4075 38.1581L14.0502 38.7912C14.07 38.8107 14.0858 38.834 14.0965 38.8598C14.1073 38.8856 14.1128 38.9134 14.1128 38.9414C14.1128 38.9694 14.1073 38.9972 14.0965 39.023C14.0858 39.0488 14.07 39.0721 14.0502 39.0916C13.6359 39.4959 12.9325 39.7939 12.1003 39.7939C10.2513 39.7927 9.40576 38.3436 9.40576 37.0738ZM11.0653 36.5286H12.952C12.9683 36.5284 12.9843 36.5243 12.9988 36.5167C13.0133 36.509 13.0259 36.498 13.0354 36.4846C13.045 36.4711 13.0513 36.4555 13.0539 36.4391C13.0565 36.4227 13.0553 36.4059 13.0504 36.3901C12.8924 35.8708 12.4867 35.6569 12.0117 35.6569C11.5366 35.6569 11.1199 35.8708 10.9632 36.3901C10.9582 36.4062 10.957 36.4234 10.9598 36.4401C10.9626 36.4568 10.9692 36.4725 10.9792 36.4861C10.9892 36.4996 11.0022 36.5105 11.0172 36.5179C11.0322 36.5253 11.0486 36.529 11.0653 36.5286Z" fill="#242E30"/>
<path d="M15.1302 34.4811H16.1507C16.2055 34.4811 16.258 34.5032 16.2968 34.5427C16.3355 34.5821 16.3572 34.6355 16.3572 34.6913V34.9855H16.3779C16.6464 34.6072 17.1724 34.355 17.843 34.355C19.3385 34.355 19.9885 35.3626 19.9885 36.7486V39.4563C19.9885 39.5121 19.9667 39.5655 19.928 39.605C19.8893 39.6444 19.8367 39.6665 19.782 39.6665H18.6679C18.6132 39.6665 18.5606 39.6444 18.5219 39.605C18.4832 39.5655 18.4614 39.5121 18.4614 39.4563V36.9897C18.4614 36.3283 18.2038 35.783 17.4713 35.783C16.7703 35.783 16.4508 36.2974 16.4508 36.9897V39.4563C16.4508 39.5121 16.429 39.5655 16.3903 39.605C16.3516 39.6444 16.299 39.6665 16.2443 39.6665H15.1302C15.0755 39.6665 15.0229 39.6444 14.9842 39.605C14.9455 39.5655 14.9237 39.5121 14.9237 39.4563V34.6913C14.9237 34.6355 14.9455 34.5821 14.9842 34.5427C15.0229 34.5032 15.0755 34.4811 15.1302 34.4811V34.4811Z" fill="#242E30"/>
<path d="M20.4003 37.3989V34.6911C20.4003 34.6354 20.422 34.5819 20.4608 34.5425C20.4995 34.5031 20.552 34.481 20.6068 34.481H21.7208C21.7756 34.481 21.8281 34.5031 21.8669 34.5425C21.9056 34.5819 21.9274 34.6354 21.9274 34.6911V37.1788C21.9274 37.8291 22.1703 38.3645 22.8555 38.3645C23.5407 38.3645 23.8554 37.8613 23.8554 37.1788V34.6911C23.8554 34.6354 23.8771 34.5819 23.9158 34.5425C23.9546 34.5031 24.0071 34.481 24.0619 34.481H25.1759C25.2307 34.481 25.2832 34.5031 25.3219 34.5425C25.3607 34.5819 25.3824 34.6354 25.3824 34.6911V39.4562C25.3824 39.512 25.3607 39.5654 25.3219 39.6048C25.2832 39.6443 25.2307 39.6664 25.1759 39.6664H24.1554C24.1006 39.6664 24.0481 39.6443 24.0094 39.6048C23.9707 39.5654 23.9489 39.512 23.9489 39.4562V39.1632H23.9282C23.6598 39.5403 23.1544 39.7925 22.5044 39.7925C21.0405 39.7925 20.4003 38.7849 20.4003 37.3989Z" fill="#242E30"/>
<path d="M26.2488 32.2666H27.3628C27.4176 32.2666 27.4701 32.2887 27.5088 32.3282C27.5476 32.3676 27.5693 32.421 27.5693 32.4768V39.4562C27.5693 39.512 27.5476 39.5654 27.5088 39.6049C27.4701 39.6443 27.4176 39.6664 27.3628 39.6664H26.2488C26.194 39.6664 26.1415 39.6443 26.1027 39.6049C26.064 39.5654 26.0422 39.512 26.0422 39.4562V32.4768C26.0422 32.4492 26.0476 32.4219 26.058 32.3964C26.0683 32.3709 26.0835 32.3477 26.1027 32.3282C26.1219 32.3086 26.1447 32.2932 26.1697 32.2826C26.1948 32.272 26.2216 32.2666 26.2488 32.2666Z" fill="#242E30"/>
<path d="M27.9398 37.0738C27.9398 35.8041 28.817 34.3538 30.6733 34.3538C32.5296 34.3538 33.4067 35.8028 33.4067 37.0738C33.4067 38.3448 32.5296 39.7939 30.6733 39.7939C28.817 39.7939 27.9398 38.3436 27.9398 37.0738ZM30.6733 38.3226C30.9182 38.3332 31.1607 38.269 31.3694 38.1382C31.5782 38.0074 31.7437 37.816 31.8447 37.5887C31.9457 37.3613 31.9775 37.1084 31.9361 36.8625C31.8947 36.6166 31.7819 36.3889 31.6122 36.2088C31.4426 36.0287 31.2239 35.9043 30.9843 35.8518C30.7446 35.7992 30.495 35.8209 30.2675 35.9139C30.04 36.0069 29.8451 36.1671 29.7079 36.3738C29.5706 36.5805 29.4973 36.8243 29.4973 37.0738C29.4911 37.2351 29.5169 37.3961 29.5731 37.547C29.6294 37.698 29.7149 37.8358 29.8247 37.9524C29.9345 38.0689 30.0662 38.1618 30.212 38.2254C30.3578 38.289 30.5147 38.322 30.6733 38.3226V38.3226Z" fill="#242E30"/>
<path d="M34.2778 40.7817L34.9593 40.0733C34.994 40.0366 35.0407 40.0141 35.0906 40.01C35.1405 40.0059 35.1902 40.0205 35.2302 40.051C35.5179 40.266 35.8659 40.3813 36.2228 40.3799C36.8727 40.3799 37.4498 40.1598 37.4498 39.3413V38.827H37.4291C37.2433 39.0743 36.7695 39.3834 36.0466 39.3834C34.5098 39.3834 33.6545 38.2175 33.6545 36.9168C33.6545 35.4578 34.6447 34.355 36.0466 34.355C36.7585 34.355 37.2433 34.6023 37.5227 34.9645H37.5433V34.6913C37.5433 34.6357 37.5649 34.5825 37.6034 34.5431C37.6419 34.5037 37.6941 34.4814 37.7486 34.4811H38.7801C38.8348 34.4811 38.8874 34.5032 38.9261 34.5427C38.9648 34.5821 38.9866 34.6355 38.9866 34.6913V39.3723C38.9866 40.7694 37.9965 41.735 36.2228 41.735C35.3942 41.735 34.6872 41.4568 34.279 41.081C34.2593 41.0616 34.2436 41.0384 34.2329 41.0127C34.2221 40.9871 34.2165 40.9595 34.2164 40.9316C34.2163 40.9037 34.2217 40.8761 34.2322 40.8504C34.2427 40.8246 34.2582 40.8013 34.2778 40.7817V40.7817ZM37.4607 36.8636C37.4607 36.2652 37.0574 35.6989 36.3358 35.6989C35.6141 35.6989 35.212 36.2652 35.212 36.8636C35.212 37.462 35.6141 38.0295 36.3358 38.0295C37.0574 38.0295 37.4607 37.462 37.4607 36.8636Z" fill="#242E30"/>
<path d="M33.618 14.1424C33.5306 13.9137 32.3364 11.6697 30.1204 8.85315C30.0642 8.785 30.0288 8.70165 30.0184 8.61329V8.61329C29.8857 6.97284 29.6634 5.34117 29.3526 3.72583C29.3171 3.5637 29.2327 3.41693 29.1111 3.30607C28.9896 3.19522 28.837 3.12583 28.6747 3.10763V3.10763L26.3665 2.8245C26.3463 2.82323 26.326 2.82323 26.3058 2.8245C26.1769 2.8245 26.0533 2.8766 25.9621 2.96935C25.871 3.0621 25.8198 3.18789 25.8198 3.31905V4.12766C25.8194 4.13319 25.8175 4.1385 25.8144 4.14303C25.8112 4.14757 25.807 4.15117 25.802 4.15344C25.797 4.15572 25.7915 4.15659 25.7861 4.15597C25.7807 4.15535 25.7756 4.15326 25.7712 4.14991C24.3283 2.81967 22.7711 1.62382 21.1183 0.576732V0.576732C20.7812 0.346955 20.3844 0.2247 19.9787 0.225596V0.225596C19.573 0.224324 19.1761 0.346611 18.8392 0.576732C10.8927 5.56929 6.51313 13.6899 6.34791 14.1424C6.29791 14.249 6.27216 14.3656 6.27259 14.4837C6.27258 14.6621 6.33098 14.8354 6.43857 14.9762C6.54615 15.1171 6.69678 15.2174 6.86666 15.2614L9.15668 15.7102C9.30814 15.7519 9.44372 15.8391 9.54578 15.9604C9.64785 16.0817 9.71165 16.2315 9.72889 16.3902C9.74833 16.8019 10.1808 25.992 10.7251 28.3758C10.7694 28.547 10.8681 28.6985 11.0059 28.8065C11.1438 28.9146 11.3128 28.9731 11.4868 28.973H11.5038C12.8402 28.9384 14.0635 28.9161 15.3853 28.8976H15.4959C15.5636 28.8972 15.6285 28.8696 15.6763 28.8207C15.7241 28.7718 15.751 28.7057 15.751 28.6367V28.6293C15.6975 27.8269 15.5821 25.992 15.4886 24.0546C15.4886 24.0052 15.4886 23.9446 15.4801 23.8951C15.4759 23.8146 15.4525 23.7364 15.4118 23.6672C15.3712 23.5981 15.3145 23.54 15.2468 23.4982C14.8981 23.2863 14.606 22.9902 14.3965 22.6362C14.1869 22.2821 14.0663 21.8809 14.0453 21.4681C13.9238 18.2448 13.8643 14.5195 14.038 11.6054C14.0406 11.4811 14.0916 11.3629 14.1798 11.2769C14.2679 11.1909 14.3861 11.144 14.5082 11.1467C14.6303 11.1493 14.7464 11.2012 14.8309 11.2909C14.9154 11.3806 14.9615 11.5009 14.9589 11.6252C14.9589 11.6363 14.9589 11.6486 14.9589 11.661C14.8459 13.6046 14.8374 15.9006 14.8775 18.1669C14.8787 18.24 14.894 18.3121 14.9226 18.3791C14.9512 18.4462 14.9925 18.5068 15.0441 18.5576C15.0957 18.6084 15.1566 18.6484 15.2234 18.6752C15.2902 18.702 15.3615 18.7152 15.4333 18.714C15.5051 18.7128 15.5759 18.6972 15.6418 18.6681C15.7077 18.639 15.7673 18.597 15.8172 18.5445C15.8671 18.492 15.9064 18.43 15.9328 18.362C15.9591 18.294 15.9721 18.2214 15.9709 18.1484C15.9296 15.866 15.9405 13.5552 16.0559 11.6054C16.0585 11.4811 16.1095 11.3629 16.1976 11.2769C16.2858 11.1909 16.404 11.144 16.5261 11.1467C16.6482 11.1493 16.7643 11.2012 16.8488 11.2909C16.9333 11.3806 16.9794 11.5009 16.9768 11.6252V11.661C16.8638 13.5935 16.8553 15.8771 16.8942 18.1311C16.8964 18.2786 16.9562 18.4192 17.0603 18.5219C17.1644 18.6247 17.3044 18.6811 17.4494 18.6788C17.5944 18.6765 17.7325 18.6157 17.8334 18.5097C17.9344 18.4037 17.9898 18.2613 17.9876 18.1137V18.1137C17.9475 15.8425 17.9584 13.5391 18.0738 11.6029C18.0764 11.4786 18.1274 11.3605 18.2155 11.2744C18.2592 11.2319 18.3107 11.1984 18.367 11.1761C18.4234 11.1537 18.4835 11.1429 18.544 11.1442C18.6044 11.1455 18.6641 11.1589 18.7194 11.1836C18.7748 11.2084 18.8248 11.244 18.8667 11.2884C18.9086 11.3329 18.9414 11.3853 18.9634 11.4426C18.9853 11.5 18.996 11.5611 18.9947 11.6227V11.6585C18.8295 14.4923 18.8829 18.0791 18.9947 21.2245C18.9953 21.2344 18.9953 21.2443 18.9947 21.2542C18.9947 21.2703 18.9947 21.2863 18.9947 21.3024V21.3333C18.9954 21.7435 18.8976 22.1476 18.7098 22.5105C18.522 22.8734 18.2499 23.184 17.9171 23.4154C17.8583 23.4563 17.8095 23.5103 17.7743 23.5733C17.7392 23.6363 17.7186 23.7066 17.7142 23.7789C17.7142 23.7789 17.6571 24.2623 17.8673 26.6041C17.9645 27.6253 18.0398 28.335 18.0738 28.654C18.0813 28.7141 18.1101 28.7693 18.1549 28.8092C18.1997 28.8491 18.2573 28.8709 18.3168 28.8704H18.5306H19.8998H20.0759C20.6736 28.8704 21.2434 28.8704 21.7913 28.8704L23.0912 28.8827C23.1511 28.8831 23.209 28.861 23.2539 28.8206C23.2987 28.7803 23.3273 28.7244 23.3342 28.6639C23.6343 25.8585 23.7059 24.2834 23.7059 24.2834C23.7043 24.216 23.6788 24.1515 23.6342 24.1017C23.5896 24.052 23.5287 24.0203 23.463 24.0126L21.8836 23.7913C21.7788 23.7782 21.6801 23.734 21.5999 23.664C21.5197 23.5941 21.4616 23.5015 21.4329 23.3981C21.4131 23.3173 21.4061 23.2338 21.4123 23.1508C22.0525 13.8 25.0824 10.6484 25.0824 10.6484C25.1267 10.6017 25.176 10.5602 25.2294 10.5248C25.2894 10.4807 25.3584 10.4511 25.4313 10.4384C25.5042 10.4256 25.579 10.4299 25.65 10.451C25.7211 10.4721 25.7864 10.5095 25.8411 10.5602C25.8958 10.6109 25.9383 10.6736 25.9656 10.7436C25.988 10.8166 26.001 10.8922 26.0045 10.9686C26.2669 13.9088 26.1393 18.91 25.9765 22.8133C25.8392 26.1243 25.674 28.7245 25.674 28.7245C25.674 28.7498 25.6789 28.7749 25.6885 28.7983C25.698 28.8217 25.7119 28.843 25.7295 28.8609C25.7471 28.8788 25.768 28.893 25.791 28.9027C25.814 28.9124 25.8387 28.9174 25.8635 28.9174C26.7225 28.9322 27.5644 28.9495 28.467 28.973H28.4852C28.6591 28.9729 28.8281 28.9143 28.9659 28.8063C29.1037 28.6982 29.2025 28.5469 29.247 28.3758V28.3758C29.7912 25.992 30.2188 16.8019 30.2419 16.3902C30.2596 16.2317 30.3236 16.0821 30.4256 15.9609C30.5276 15.8397 30.6629 15.7524 30.8141 15.7102L33.0981 15.2552C33.2106 15.226 33.3154 15.1718 33.405 15.0966C33.4947 15.0214 33.5669 14.927 33.6165 14.8201C33.6662 14.7133 33.6921 14.5966 33.6923 14.4784C33.6926 14.3602 33.6672 14.2434 33.618 14.1363V14.1424Z" fill="#242E30"/>
</svg>
