<svg width="157" height="38" viewBox="0 0 157 38" fill="none" xmlns="http://www.w3.org/2000/svg">
<path d="M52.9089 14.1492H47.8388C46.1946 14.1492 46.1946 14.1492 45.8526 16.0751C45.5107 18.0009 45.5091 18.07 47.0175 18.07H50.0311L48.3182 27.9128C47.9075 30.1164 46.9488 31.6298 44.0038 32.5237C43.2496 32.7308 43.0451 33.0052 43.0451 33.3503C43.0451 33.7627 43.1809 34.1062 43.5245 34.9327C44.0038 36.1027 44.2771 36.3081 44.6893 36.3081C45.1016 36.3081 45.8542 36.1027 46.1275 36.0337C50.3076 34.6567 52.0205 31.4228 52.7044 27.5694L54.6219 16.4955C54.9638 14.1556 54.9638 14.1556 52.9089 14.1556" fill="#242E30"/>
<path d="M70.1056 14.1492C68.0507 14.1492 68.0507 14.1492 67.7758 15.8696L66.269 24.8154C65.8584 27.4298 65.1729 28.9448 62.6386 28.9448C60.1714 28.9448 59.283 27.4298 59.6921 25.093L61.1302 16.5613C61.5424 14.154 61.4737 14.154 59.3501 14.154C57.2936 14.154 57.2249 14.154 56.9533 15.8054L55.4464 24.7512C54.5548 29.8435 57.7059 33.0084 62.1576 33.0084C67.1606 33.0084 69.6949 30.7375 70.5178 25.3707L72.0247 16.4939C72.3666 14.154 72.2292 14.154 70.1072 14.154" fill="#242E30"/>
<path d="M79.4916 28.8069C81.1374 28.7378 82.0274 27.9803 82.0274 27.2244C82.0274 26.2615 80.8626 25.9164 79.287 25.435C76.2031 24.472 73.394 23.371 73.394 20.0665C73.394 16.1441 76.6154 14.0112 80.6564 14.0112C82.3694 14.0112 84.2885 14.0802 85.522 14.2183C86.6182 14.3563 86.8914 14.6997 86.5495 16.4202C86.2075 18.1407 85.7953 18.2787 84.8365 18.2097C83.6717 18.1407 82.1649 18.0026 80.3832 18.0026C78.3283 18.0026 77.7115 18.7601 77.7115 19.447C77.7115 20.341 78.5328 20.8225 80.4519 21.3729C84.0136 22.4049 86.3434 23.8509 86.3434 26.9468C86.3434 30.5947 83.6717 32.7244 79.3557 32.8657C77.2942 32.9381 75.2303 32.8226 73.1894 32.5206C71.8184 32.3152 71.7513 32.3152 72.0933 30.3187C72.4352 28.5292 72.4352 28.3928 73.7375 28.5292C76.2718 28.8053 77.8473 28.8743 79.49 28.8053" fill="#242E30"/>
<path d="M101.894 14.1492H90.3174C88.6731 14.1492 88.6731 14.1492 88.3312 16.1441C87.9892 18.139 88.0563 18.1406 89.4961 18.1406H93.2655L91.1403 30.4582C90.728 32.8656 90.7968 32.8656 92.9204 32.8656C94.9081 32.8656 94.9769 32.8656 95.2501 31.1451L97.4424 18.1454H101.074C102.719 18.1454 102.719 18.1454 103.061 16.1489C103.403 14.1524 103.404 14.154 101.896 14.154" fill="#242E30"/>
<path d="M122.314 18.0715C123.958 18.0715 123.958 18.0715 124.3 16.0766C124.642 14.0817 124.643 14.0801 123.135 14.0801H114.845C111.899 14.0801 111.969 14.0801 111.49 17.0395L109.366 29.4952C108.818 32.7291 108.887 32.7291 111.833 32.7291H119.917C121.63 32.7291 121.561 32.7291 121.905 30.8032C122.247 28.8083 122.247 28.8083 120.74 28.8083H113.749L114.297 25.2294H120.121C121.697 25.2294 121.697 25.2294 121.97 23.3725C122.245 21.4466 122.245 21.4466 120.121 21.4466H114.983L115.531 18.0763L122.314 18.0715Z" fill="#242E30"/>
<path d="M131.083 24.6773L133.755 18.7648C133.961 18.2833 133.961 18.2833 134.303 18.2833C134.645 18.2833 134.646 18.2833 134.715 18.8338L135.536 24.6821L131.083 24.6773ZM138.345 16.42C137.935 14.0801 137.935 14.0801 134.646 14.0801C131.562 14.0801 131.631 14.0801 130.672 16.006L123.752 30.5256C122.724 32.5895 122.931 32.7965 125.465 32.7965C127.453 32.7965 127.453 32.7965 128.274 30.938L129.378 28.4616H136.089L136.433 30.9396C136.706 32.7981 136.775 32.7981 138.761 32.7981C141.022 32.7981 141.228 32.6601 140.817 30.3907L138.345 16.42Z" fill="#242E30"/>
<path d="M154.721 14.1492H143.074C141.429 14.1492 141.429 14.1492 141.086 16.1441C140.742 18.139 140.813 18.1406 142.251 18.1406H146.019L143.895 30.4582C143.484 32.8656 143.553 32.8656 145.677 32.8656C147.663 32.8656 147.732 32.8656 148.006 31.1451L150.199 18.1454H153.826C155.47 18.1454 155.47 18.1454 155.814 16.1489C156.224 14.154 156.224 14.154 154.718 14.154" fill="#242E30"/>
<path d="M36.1694 18.5176C36.0543 18.2207 34.4836 15.3078 31.569 11.6534C31.4954 11.5648 31.4488 11.4567 31.4348 11.3421V11.3421C31.2595 9.21524 30.966 7.0999 30.556 5.0059C30.5096 4.79558 30.3988 4.60511 30.2392 4.4612C30.0796 4.31729 29.8791 4.22716 29.6659 4.20345V4.20345L26.6331 3.82951C26.6065 3.82706 26.5798 3.82706 26.5532 3.82951C26.3837 3.82951 26.2211 3.89714 26.1013 4.01754C25.9814 4.13793 25.9141 4.30121 25.9141 4.47147V5.5275C25.9141 5.53771 25.91 5.54751 25.9028 5.55474C25.8956 5.56196 25.8859 5.56602 25.8757 5.56602C25.8663 5.56592 25.8573 5.56251 25.8502 5.55639V5.55639C23.9528 3.82916 21.9045 2.27684 19.7302 0.918209V0.918209C19.2868 0.619946 18.765 0.461253 18.2314 0.462415V0.462415C17.6977 0.460764 17.1757 0.619499 16.7325 0.918209V0.918209C6.27908 7.39882 0.523451 17.9398 0.301343 18.5176C0.23576 18.6565 0.201912 18.8084 0.202273 18.9622C0.202538 19.1937 0.279457 19.4185 0.420918 19.6012C0.56238 19.784 0.760347 19.9143 0.983646 19.9717L3.99569 20.5526C4.19383 20.6082 4.37083 20.7222 4.50385 20.8798C4.63686 21.0375 4.71978 21.2315 4.7419 21.4369C4.76747 21.9714 5.33632 33.9006 6.05058 36.9949C6.1094 37.2171 6.23968 37.4136 6.42115 37.5538C6.60262 37.694 6.82513 37.77 7.05407 37.7701H7.07644C8.83413 37.7251 10.4432 37.6962 12.1817 37.6722H12.3255C12.3699 37.6722 12.4139 37.6634 12.4549 37.6462C12.4959 37.6291 12.5332 37.604 12.5645 37.5724C12.5958 37.5408 12.6206 37.5033 12.6375 37.462C12.6543 37.4207 12.6629 37.3765 12.6627 37.3319V37.3239C12.5924 36.2823 12.4406 33.9006 12.3175 31.3858C12.3175 31.3232 12.3175 31.2445 12.3064 31.1803C12.3009 31.0758 12.2701 30.9743 12.2166 30.8845C12.1631 30.7947 12.0886 30.7194 11.9996 30.6651C11.5409 30.3901 11.1568 30.0057 10.8811 29.5461C10.6055 29.0865 10.4469 28.5657 10.4192 28.0299C10.2595 23.8475 10.1812 19.0119 10.4097 15.2292C10.4201 15.0732 10.49 14.9272 10.6047 14.8216C10.7194 14.716 10.8703 14.6588 11.0259 14.6619C11.1815 14.665 11.33 14.7281 11.4404 14.8382C11.5509 14.9483 11.615 15.097 11.6193 15.2532C11.6193 15.2693 11.6193 15.2853 11.6193 15.3014C11.4707 17.8227 11.4595 20.8046 11.5106 23.7464C11.5123 23.8412 11.5325 23.9348 11.5702 24.0218C11.6079 24.1088 11.6623 24.1874 11.7303 24.2533C11.7982 24.3192 11.8784 24.371 11.9663 24.4057C12.0542 24.4404 12.148 24.4575 12.2424 24.4558C12.3369 24.4541 12.43 24.4337 12.5166 24.3959C12.6032 24.358 12.6816 24.3034 12.7471 24.2352C12.8127 24.1669 12.8643 24.0863 12.8989 23.9981C12.9335 23.9098 12.9504 23.8156 12.9487 23.7207C12.8944 20.7597 12.9088 17.7585 13.0606 15.2292C13.0637 15.0678 13.1306 14.9144 13.2464 14.8026C13.3622 14.6908 13.5175 14.6297 13.6782 14.6329C13.8388 14.6361 13.9915 14.7033 14.1029 14.8196C14.2142 14.9359 14.275 15.0919 14.2718 15.2532V15.3014C14.1232 17.8098 14.112 20.7741 14.1631 23.6999C14.1661 23.8914 14.2447 24.0739 14.3816 24.2072C14.5186 24.3406 14.7027 24.4138 14.8934 24.4108C15.0841 24.4078 15.2658 24.3289 15.3985 24.1914C15.5313 24.0538 15.6042 23.8689 15.6012 23.6774V23.6774C15.5485 20.7292 15.5629 17.7392 15.7147 15.2276C15.7179 15.0662 15.7847 14.9128 15.9005 14.801C16.0164 14.6892 16.1717 14.6281 16.3323 14.6313C16.4929 14.6345 16.6457 14.7017 16.757 14.818C16.8683 14.9343 16.9291 15.0903 16.9259 15.2516C16.9259 15.2677 16.9259 15.2837 16.9259 15.2998C16.7102 18.9782 16.7805 23.6324 16.9259 27.7169C16.9259 27.7169 16.9259 27.7522 16.9259 27.7555C16.9259 27.7587 16.9259 27.7972 16.9259 27.818V27.8582C16.9263 28.388 16.7982 28.91 16.5527 29.379C16.3071 29.8479 15.9515 30.2497 15.5165 30.5496C15.4393 30.6031 15.3751 30.6735 15.3289 30.7555C15.2827 30.8375 15.2556 30.929 15.2497 31.023C15.2497 31.023 15.1746 31.6506 15.451 34.6886C15.5789 36.0159 15.6779 36.9355 15.7227 37.3512C15.7328 37.4289 15.7709 37.5002 15.8298 37.5516C15.8886 37.6031 15.9642 37.6311 16.0422 37.6304H16.3235C16.9035 37.6304 17.5011 37.6304 18.1227 37.6304H18.356H20.6122L22.322 37.6449C22.4005 37.6455 22.4765 37.617 22.5354 37.5649C22.5944 37.5128 22.6322 37.4407 22.6416 37.3624C23.0363 33.7209 23.1289 31.6746 23.1289 31.6746C23.1268 31.5874 23.0932 31.5039 23.0344 31.4395C22.9757 31.3752 22.8957 31.3344 22.8094 31.3248L20.7321 31.0375C20.5943 31.0204 20.4645 30.9628 20.3591 30.8721C20.2536 30.7813 20.1772 30.6613 20.1393 30.5271C20.1132 30.4223 20.104 30.3139 20.1121 30.2061C20.9542 18.0682 24.9394 13.9773 24.9394 13.9773C24.9976 13.9143 25.0624 13.8578 25.1327 13.8088C25.2411 13.7289 25.3722 13.6861 25.5066 13.6868C25.635 13.687 25.7604 13.7259 25.8664 13.7986C25.9724 13.8713 26.0542 13.9744 26.101 14.0945C26.1305 14.1893 26.1476 14.2874 26.1522 14.3866C26.4973 18.2014 26.3279 24.6949 26.1154 29.76C25.9348 34.0595 25.7175 37.4346 25.7175 37.4346C25.7173 37.4674 25.7236 37.5 25.7359 37.5303C25.7483 37.5607 25.7665 37.5883 25.7895 37.6116C25.8125 37.6349 25.8399 37.6533 25.8701 37.6659C25.9002 37.6785 25.9325 37.685 25.9652 37.685V37.685C27.0965 37.7043 28.2102 37.7267 29.3911 37.7572H29.4135C29.6424 37.7572 29.8649 37.6811 30.0464 37.5409C30.2279 37.4008 30.3581 37.2043 30.4169 36.9821V36.9821C31.1328 33.8878 31.6953 21.9585 31.7256 21.4241C31.7486 21.218 31.8326 21.0236 31.9668 20.8659C32.101 20.7083 32.2791 20.5947 32.4782 20.5398L35.4903 19.9588C35.7136 19.9015 35.9115 19.7712 36.053 19.5884C36.1945 19.4057 36.2714 19.1808 36.2717 18.9493C36.2684 18.7998 36.2336 18.6526 36.1694 18.5176V18.5176Z" fill="#242E30"/>
</svg>
