<svg width="63" height="44" viewBox="0 0 63 44" fill="none" xmlns="http://www.w3.org/2000/svg">
<path d="M44.5403 13.7768C44.4566 13.5622 43.3135 11.4576 41.1923 8.8172C41.1387 8.75314 41.1048 8.67503 41.0946 8.59224V8.59224C40.9669 7.05524 40.7537 5.52648 40.4562 4.01302C40.4222 3.86096 40.3413 3.72331 40.225 3.61935C40.1086 3.51538 39.9626 3.4503 39.8073 3.43323V3.43323L37.6093 3.16073C37.59 3.15954 37.5706 3.15954 37.5512 3.16073C37.4278 3.16073 37.3095 3.2096 37.2223 3.29658C37.135 3.38357 37.086 3.50155 37.086 3.62456V4.38757C37.0857 4.39506 37.0825 4.40214 37.0771 4.40732C37.0717 4.41251 37.0645 4.41541 37.057 4.4154C37.0537 4.41552 37.0505 4.41496 37.0475 4.41376C37.0445 4.41256 37.0418 4.41075 37.0395 4.40844V4.40844C35.6583 3.16121 34.1677 2.04003 32.5855 1.05839V1.05839C32.2616 0.840554 31.8796 0.724623 31.4889 0.725592V0.725592C31.1005 0.725658 30.7211 0.841559 30.3993 1.05839V1.05839C22.7868 5.74313 18.598 13.3651 18.4364 13.7768C18.3899 13.8768 18.3661 13.9858 18.3666 14.096C18.3671 14.2063 18.3919 14.315 18.4393 14.4146C18.4867 14.5142 18.5555 14.6022 18.6408 14.6723C18.7261 14.7424 18.8258 14.793 18.9329 14.8204L21.125 15.2413C21.2701 15.2807 21.3999 15.3627 21.4976 15.4766C21.5953 15.5906 21.6563 15.7312 21.6727 15.8803C21.6914 16.2652 22.1054 24.8856 22.6263 27.1213C22.6687 27.2819 22.7633 27.4239 22.8952 27.5252C23.0271 27.6266 23.189 27.6815 23.3555 27.6814H23.3718C24.651 27.6489 25.822 27.628 27.0873 27.6106H27.1931C27.2581 27.61 27.3202 27.5839 27.3659 27.5378C27.4117 27.4918 27.4373 27.4296 27.4373 27.3648V27.3648C27.3862 26.6122 27.2757 24.8914 27.1861 23.0743C27.1861 23.0291 27.1803 22.9723 27.178 22.9259C27.174 22.8504 27.1516 22.777 27.1127 22.7122C27.0738 22.6473 27.0195 22.5929 26.9547 22.5537C26.621 22.3549 26.3415 22.0771 26.1409 21.7451C25.9403 21.413 25.8248 21.0368 25.8046 20.6496C25.6883 17.6266 25.6313 14.1339 25.7976 11.3996C25.8001 11.283 25.8489 11.1722 25.9333 11.0916C26.0177 11.0109 26.1308 10.9669 26.2477 10.9694C26.3645 10.9719 26.4757 11.0205 26.5566 11.1047C26.6375 11.1888 26.6816 11.3016 26.6791 11.4182C26.6791 11.4298 26.6791 11.4413 26.6791 11.4529C26.5709 13.2747 26.5628 15.4292 26.6012 17.5547C26.6037 17.6931 26.6612 17.8248 26.761 17.921C26.8609 18.0171 26.995 18.0697 27.1338 18.0672C27.2726 18.0648 27.4047 18.0074 27.5011 17.9078C27.5975 17.8082 27.6503 17.6745 27.6478 17.5361C27.6083 15.3967 27.6187 13.2283 27.7292 11.3996C27.7317 11.283 27.7805 11.1722 27.8649 11.0916C27.9493 11.0109 28.0624 10.9669 28.1793 10.9694C28.2962 10.9719 28.4073 11.0205 28.4882 11.1047C28.5691 11.1888 28.6132 11.3016 28.6107 11.4182V11.4529C28.5026 13.2654 28.4944 15.4071 28.5316 17.5211C28.5338 17.6595 28.591 17.7913 28.6907 17.8877C28.7903 17.984 28.9243 18.0369 29.0631 18.0348C29.2019 18.0326 29.3341 17.9756 29.4307 17.8762C29.5273 17.7768 29.5804 17.6432 29.5782 17.5048V17.5048C29.5399 15.3747 29.5503 13.2144 29.6608 11.3984C29.6633 11.2819 29.7121 11.1711 29.7965 11.0904C29.8809 11.0097 29.994 10.9658 30.1109 10.9682C30.2278 10.9707 30.3389 11.0194 30.4198 11.1035C30.5007 11.1877 30.5448 11.3004 30.5423 11.417V11.4518C30.3842 14.1084 30.4353 17.4724 30.5423 20.4235C30.5429 20.4328 30.5429 20.4421 30.5423 20.4513C30.5423 20.4664 30.5423 20.4815 30.5423 20.4954V20.5244C30.5426 20.9072 30.4494 21.2844 30.2707 21.6232C30.092 21.9621 29.8331 22.2524 29.5166 22.469C29.4604 22.5077 29.4137 22.5585 29.3801 22.6178C29.3464 22.6771 29.3267 22.7432 29.3224 22.8111C29.3224 22.8111 29.2677 23.2645 29.4689 25.4596C29.562 26.4186 29.6341 27.083 29.6666 27.3834C29.674 27.4395 29.7017 27.491 29.7446 27.5282C29.7874 27.5654 29.8424 27.5856 29.8992 27.5851H30.1039C30.526 27.5851 30.961 27.5851 31.4145 27.5851H31.5831C32.1553 27.5851 32.7007 27.5851 33.2252 27.5851L34.4695 27.5956C34.5266 27.596 34.5819 27.5754 34.6248 27.5378C34.6677 27.5001 34.6952 27.448 34.7021 27.3915C34.9893 24.7604 35.0579 23.2819 35.0579 23.2819C35.0561 23.2189 35.0316 23.1587 34.9889 23.1123C34.9462 23.0659 34.8881 23.0363 34.8253 23.0291L33.3135 22.8215C33.2131 22.8091 33.1186 22.7674 33.0418 22.7015C32.965 22.6357 32.9095 22.5488 32.8821 22.4516C32.863 22.3759 32.8563 22.2976 32.8623 22.2197C33.4752 13.4498 36.3755 10.494 36.3755 10.494C36.4179 10.4484 36.465 10.4076 36.5162 10.3722C36.5737 10.3309 36.6399 10.3033 36.7097 10.2913C36.7796 10.2794 36.8512 10.2836 36.9192 10.3035C36.9872 10.3234 37.0497 10.3586 37.102 10.4062C37.1543 10.4539 37.195 10.5129 37.2209 10.5786C37.2424 10.6471 37.2549 10.718 37.2581 10.7897C37.5093 13.546 37.3872 18.2377 37.2314 21.8974C37.1 25.0039 36.9418 27.4425 36.9418 27.4425C36.9418 27.4905 36.9609 27.5365 36.995 27.5704C37.029 27.6043 37.0751 27.6234 37.1232 27.6234V27.6234C37.9454 27.6373 38.7513 27.6535 39.6154 27.6756H39.6328C39.7993 27.6755 39.9611 27.6205 40.0929 27.5192C40.2248 27.4179 40.3194 27.276 40.362 27.1155V27.1155C40.883 24.8798 41.2923 16.2594 41.3144 15.8745C41.3313 15.7256 41.3925 15.5852 41.4901 15.4713C41.5877 15.3574 41.7173 15.2753 41.8621 15.2355L44.0542 14.8146C44.2167 14.7736 44.3609 14.6797 44.4639 14.5478C44.5669 14.4159 44.6228 14.2535 44.6229 14.0864C44.6177 13.9785 44.5895 13.873 44.5403 13.7768V13.7768Z" fill="#242E30"/>
<path d="M6.03146 31.1242H3.26488C2.36711 31.1242 2.36711 31.1242 2.17988 32.1678C1.99265 33.2115 1.99265 33.2497 2.816 33.2497H4.46618L3.53584 38.5838C3.30326 39.7747 2.77762 40.5957 1.17047 41.0793C0.758799 41.1952 0.645996 41.3402 0.645996 41.5269C0.645996 41.7507 0.721585 41.9374 0.908815 42.385C1.17047 43.0181 1.31933 43.1306 1.54377 43.1306C1.80997 43.1057 2.0732 43.0556 2.3299 42.981C4.61038 42.2354 5.54536 40.4821 5.91982 38.3948L6.96645 32.3905C7.15368 31.123 7.15368 31.123 6.03612 31.123" fill="#242E30"/>
<path d="M15.4185 31.1243C14.2963 31.1243 14.2963 31.1243 14.1474 32.0519L13.3241 36.9048C13.0997 38.3218 12.7252 39.1428 11.3471 39.1428C10.0005 39.1428 9.51439 38.3218 9.73883 37.0556L10.5238 32.4311C10.7482 31.1266 10.711 31.1266 9.5516 31.1266C8.42939 31.1266 8.38869 31.1266 8.24332 32.0218L7.41998 36.8689C6.93388 39.6287 8.65383 41.3437 11.0855 41.3437C13.8149 41.3437 15.1987 40.1134 15.6476 37.2051L16.4698 32.394C16.657 31.1266 16.5861 31.1266 15.4232 31.1266" fill="#242E30"/>
<path d="M20.5423 39.0663C21.4389 39.0292 21.925 38.6198 21.925 38.2093C21.925 37.6875 21.2901 37.5008 20.4295 37.2399C18.7468 36.7181 17.2129 36.1209 17.2129 34.3305C17.2129 32.205 18.9712 31.05 21.1773 31.05C22.1076 31.05 23.1601 31.0872 23.8322 31.166C24.4311 31.2402 24.5811 31.4269 24.3939 32.3592C24.2067 33.2915 23.9822 33.3657 23.4636 33.3286C22.8275 33.2915 22.0053 33.2127 21.0331 33.2127C19.9109 33.2127 19.5736 33.622 19.5736 33.9954C19.5736 34.4801 20.0225 34.741 21.0703 35.039C23.0147 35.5991 24.2858 36.3818 24.2858 38.054C24.2858 40.0311 22.8275 41.1848 20.4714 41.2614C19.3448 41.3028 18.2168 41.2419 17.1013 41.0793C16.3535 40.9634 16.3163 40.9634 16.5024 39.8861C16.6896 38.9167 16.6896 38.8425 17.4001 38.9167C18.784 39.0651 19.6446 39.1034 20.54 39.0651" fill="#242E30"/>
<path d="M32.7704 31.1243H26.4453C25.5487 31.1243 25.5487 31.1243 25.3615 32.205C25.1743 33.2857 25.2115 33.2869 25.9976 33.2869H28.0537L26.8907 39.9615C26.6663 41.2672 26.7047 41.2672 27.8629 41.2672C28.9479 41.2672 28.9851 41.2672 29.1352 40.3395L30.3318 33.2915H32.3088C33.2065 33.2915 33.2065 33.2915 33.3938 32.2096C33.581 31.1277 33.581 31.1289 32.7576 31.1289" fill="#242E30"/>
<path d="M43.9147 33.2498C44.8125 33.2498 44.8125 33.2498 44.9997 32.1679C45.1869 31.086 45.1869 31.0872 44.3636 31.0872H39.8387C38.2304 31.0872 38.2676 31.0872 38.0059 32.6897L36.843 39.4397C36.5476 41.1953 36.5848 41.1953 38.1908 41.1953H42.6099C43.5402 41.1953 43.5077 41.1953 43.6937 40.1517C43.881 39.0698 43.881 39.0698 43.0588 39.0698H39.2374L39.5363 37.1309H42.7146C43.5751 37.1309 43.5751 37.1309 43.7251 36.1244C43.874 35.0808 43.874 35.0808 42.7146 35.0808H39.9131L40.2131 33.2533L43.9147 33.2498Z" fill="#242E30"/>
<path d="M48.7024 36.8294L50.1607 33.622C50.277 33.3611 50.277 33.3611 50.4596 33.3611C50.6421 33.3611 50.6468 33.3611 50.684 33.6603L51.1329 36.8294H48.7024ZM52.6656 32.3546C52.4412 31.0872 52.4412 31.0872 50.6468 31.0872C48.964 31.0872 49.0013 31.0872 48.4779 32.1308L44.7031 39.9986C44.1414 41.1176 44.2542 41.2301 45.6335 41.2301C46.7173 41.2301 46.7173 41.2301 47.1662 40.2224L47.7674 38.8761H51.4318L51.619 40.2178C51.7678 41.2254 51.8062 41.2254 52.8901 41.2254C54.1239 41.2254 54.2367 41.1501 54.0123 39.9197L52.6656 32.3546Z" fill="#242E30"/>
<path d="M61.6038 31.1243H55.2461C54.3484 31.1243 54.3484 31.1243 54.1623 32.205C53.9762 33.2857 54.0123 33.2869 54.7972 33.2869H56.8544L55.6915 39.9615C55.4671 41.2672 55.5043 41.2672 56.6637 41.2672C57.7487 41.2672 57.7859 41.2672 57.936 40.3395L59.1326 33.2915H61.1096C62.0073 33.2915 62.0073 33.2915 62.1945 32.2096C62.419 31.1289 62.419 31.1289 61.5957 31.1289" fill="#242E30"/>
</svg>
