<svg width="84" height="44" viewBox="0 0 84 44" fill="none" xmlns="http://www.w3.org/2000/svg">
<path d="M54.6026 13.3308C54.5231 13.1221 53.4173 11.0717 51.365 8.50872C51.3132 8.44629 51.2803 8.37032 51.2702 8.28977C51.1466 6.79765 50.9402 5.31359 50.6521 3.84446C50.6204 3.69579 50.5428 3.56089 50.4303 3.45884C50.3179 3.3568 50.1763 3.29278 50.0256 3.27585L47.8954 3.01277H47.8378C47.7183 3.01277 47.6037 3.06034 47.5193 3.14501C47.4348 3.22968 47.3874 3.34451 47.3874 3.46426V4.20599C47.3874 4.21319 47.3845 4.2201 47.3794 4.22519C47.3743 4.23029 47.3674 4.23315 47.3603 4.23315C47.3576 4.23427 47.3547 4.23485 47.3518 4.23485C47.3489 4.23485 47.346 4.23427 47.3433 4.23315C46.0083 3.01437 44.5666 1.91856 43.0355 0.958998C42.7233 0.749945 42.356 0.638856 41.9805 0.6399C41.6051 0.638856 41.2378 0.749945 40.9256 0.958998C33.5664 5.51294 29.5142 12.9167 29.3585 13.324C29.3128 13.4218 29.2891 13.5284 29.289 13.6364C29.289 13.7989 29.3432 13.9568 29.4429 14.085C29.5426 14.2133 29.6821 14.3044 29.8394 14.3441L31.9594 14.7532C32.1014 14.7924 32.2281 14.874 32.3227 14.9871C32.4174 15.1001 32.4755 15.2394 32.4894 15.3863C32.5064 15.7614 32.906 24.1411 33.4106 26.3137C33.4514 26.4698 33.5427 26.608 33.6701 26.7065C33.7976 26.8051 33.954 26.8586 34.115 26.8586H34.132C35.3681 26.8263 36.5026 26.8059 37.7252 26.789H37.8268C37.8579 26.7887 37.8887 26.7824 37.9174 26.7702C37.9461 26.7581 37.9721 26.7404 37.9939 26.7182C38.0158 26.6959 38.0331 26.6696 38.0448 26.6407C38.0565 26.6118 38.0624 26.5809 38.0622 26.5496C38.0131 25.8181 37.9064 24.1462 37.82 22.3844C37.82 22.3403 37.82 22.2843 37.82 22.2401C37.8166 22.1668 37.7952 22.0954 37.7577 22.0324C37.7202 21.9693 37.6677 21.9165 37.605 21.8786C37.2821 21.6853 37.0116 21.4152 36.8176 21.0922C36.6235 20.7692 36.5119 20.4033 36.4925 20.0268C36.3807 17.0887 36.3231 13.6924 36.4925 11.031C36.5076 10.9278 36.5598 10.8337 36.6393 10.7665C36.7188 10.6992 36.82 10.6633 36.924 10.6656C37.028 10.6679 37.1276 10.7082 37.204 10.7789C37.2805 10.8496 37.3285 10.9459 37.3391 11.0496V11.0836C37.2341 12.8539 37.224 14.9484 37.2629 17.014C37.2652 17.1491 37.3208 17.2777 37.4177 17.3716C37.5146 17.4655 37.6447 17.517 37.7794 17.5148C37.9141 17.5125 38.0424 17.4567 38.1361 17.3596C38.2298 17.2625 38.2812 17.1321 38.2789 16.9971C38.24 14.9161 38.2501 12.8098 38.3585 11.031C38.3737 10.9278 38.4259 10.8337 38.5053 10.7665C38.5848 10.6992 38.6861 10.6633 38.7901 10.6656C38.8941 10.6679 38.9936 10.7082 39.0701 10.7789C39.1465 10.8496 39.1946 10.9459 39.2052 11.0496V11.0836C39.1002 12.8454 39.09 14.9263 39.129 16.9818C39.1466 17.1043 39.2082 17.2161 39.3021 17.2965C39.3961 17.3768 39.516 17.42 39.6394 17.4182C39.7629 17.4163 39.8814 17.3694 39.9729 17.2863C40.0644 17.2032 40.1226 17.0895 40.1365 16.9665C40.0993 14.8958 40.1094 12.7996 40.2161 11.0259C40.2312 10.9227 40.2835 10.8287 40.3629 10.7614C40.4424 10.6941 40.5437 10.6582 40.6477 10.6605C40.7517 10.6628 40.8512 10.7031 40.9277 10.7738C41.0041 10.8445 41.0522 10.9408 41.0628 11.0445C41.0636 11.0558 41.0636 11.0672 41.0628 11.0785C40.9104 13.6618 40.9612 16.9309 41.0628 19.7994V19.8265C41.0619 19.8412 41.0619 19.856 41.0628 19.8707V19.8995C41.0629 20.2717 40.9726 20.6384 40.7997 20.9678C40.6268 21.2973 40.3766 21.5796 40.0705 21.7903C40.015 21.8284 39.9692 21.8789 39.9366 21.9379C39.9039 21.9968 39.8854 22.0625 39.8825 22.1298C39.8825 22.1298 39.83 22.5694 40.0231 24.7046C40.1145 25.6365 40.1924 26.2815 40.2161 26.5717C40.222 26.626 40.2477 26.6762 40.2884 26.7126C40.329 26.749 40.3817 26.7689 40.4362 26.7686H42.0635H43.6519L44.8541 26.7805C44.9094 26.7797 44.9626 26.7591 45.0039 26.7223C45.0453 26.6856 45.072 26.6351 45.0793 26.5802C45.357 24.0223 45.418 22.5864 45.418 22.5864C45.4167 22.5247 45.3929 22.4656 45.3511 22.4202C45.3093 22.3749 45.2524 22.3465 45.1911 22.3403L43.7298 22.1383C43.6326 22.1266 43.541 22.0864 43.4666 22.0226C43.3922 21.9589 43.3382 21.8745 43.3115 21.7801C43.293 21.7059 43.2867 21.629 43.2929 21.5527C43.8855 13.027 46.6897 10.1534 46.6897 10.1534C46.7307 10.1092 46.7767 10.0699 46.8269 10.0363C46.9028 9.97987 46.9948 9.94951 47.0893 9.94976C47.179 9.94897 47.2669 9.97504 47.3417 10.0246C47.4165 10.0742 47.4749 10.1451 47.5093 10.2281C47.5289 10.295 47.5409 10.3639 47.5448 10.4335C47.787 13.1136 47.6684 17.6743 47.5194 21.2319C47.3924 24.2515 47.2383 26.6226 47.2383 26.6226C47.2383 26.6676 47.2562 26.7108 47.2879 26.7427C47.3197 26.7745 47.3628 26.7924 47.4077 26.7924C48.2035 26.8059 48.9876 26.8212 49.819 26.8433H49.8359C49.9969 26.8433 50.1533 26.7898 50.2808 26.6913C50.4083 26.5927 50.4995 26.4545 50.5403 26.2984C51.0483 24.1259 51.4446 15.7461 51.4615 15.371C51.4777 15.2262 51.5369 15.0896 51.6313 14.9788C51.7258 14.8681 51.8513 14.7883 51.9915 14.7498L54.1116 14.3407C54.2688 14.3011 54.4084 14.2099 54.5081 14.0816C54.6078 13.9534 54.6619 13.7955 54.6619 13.633C54.6635 13.5292 54.6434 13.4263 54.6026 13.3308Z" fill="white"/>
<path d="M8.25785 31.8504V30.518C8.25283 30.4391 8.21863 30.365 8.16194 30.31C8.10526 30.2551 8.03017 30.2233 7.95136 30.2209H0.746235C0.664296 30.2222 0.586051 30.2553 0.527947 30.3133C0.469842 30.3712 0.436405 30.4494 0.434662 30.5316V31.8504C0.43713 31.9311 0.469885 32.0079 0.526387 32.0655C0.582888 32.1231 0.658977 32.1572 0.739461 32.161H3.09996C3.14052 32.1642 3.17857 32.1819 3.20718 32.2108C3.23579 32.2398 3.25303 32.2782 3.25575 32.3188V39.8109C3.25566 39.8929 3.2871 39.9718 3.34354 40.0313C3.39999 40.0907 3.4771 40.126 3.55886 40.13H5.13196C5.21127 40.1262 5.28626 40.0927 5.34208 40.0361C5.39791 39.9795 5.43049 39.904 5.43337 39.8244V32.2747C5.44299 32.2413 5.4626 32.2117 5.48956 32.1899C5.51651 32.168 5.5495 32.155 5.58408 32.1525H7.95474C8.03294 32.1476 8.10663 32.1142 8.16187 32.0585C8.21711 32.0028 8.25005 31.9288 8.25446 31.8504" fill="white"/>
<path d="M12.2711 33.6648C12.022 33.3561 11.6935 33.1213 11.3211 32.9859C10.8346 32.8179 10.3217 32.7397 9.80727 32.7551C9.25564 32.7546 8.70785 32.8469 8.18675 33.0283C7.77539 33.1708 7.39075 33.3814 7.04883 33.6513C6.99358 33.7125 6.96397 33.7926 6.96618 33.8751C6.96839 33.9577 7.00224 34.0361 7.06069 34.0943L7.71601 34.7647C7.77622 34.8243 7.85744 34.8577 7.94207 34.8577C8.02669 34.8577 8.10791 34.8243 8.16813 34.7647C8.32618 34.6193 8.50268 34.4955 8.69306 34.3964C8.98592 34.2503 9.30914 34.1759 9.63624 34.1791C9.97963 34.1734 10.3139 34.2901 10.5794 34.5084C10.8267 34.7138 10.9587 35.0787 10.9774 35.666C10.9698 35.7032 10.95 35.7368 10.9212 35.7614C10.8923 35.7861 10.8561 35.8003 10.8182 35.8018C10.5744 35.8018 10.3102 35.8018 10.0359 35.8171C9.69595 35.8263 9.35678 35.854 9.01987 35.9002C8.68652 35.9454 8.35746 36.018 8.03605 36.1175C7.73329 36.2078 7.4473 36.3471 7.18938 36.5299C6.94399 36.7074 6.74336 36.9399 6.60349 37.2089C6.45106 37.5176 6.37663 37.8592 6.38674 38.2035C6.37854 38.5176 6.44592 38.8291 6.58317 39.1116C6.70881 39.3674 6.8892 39.5922 7.11149 39.7701C7.34216 39.9502 7.60472 40.085 7.88534 40.1673C8.1791 40.2562 8.48442 40.3008 8.79127 40.2997C9.21051 40.3028 9.62616 40.222 10.0139 40.0621C10.3146 39.9386 10.5795 39.7413 10.7843 39.4884H10.8063C10.8278 39.4784 10.8517 39.4752 10.8749 39.4791C10.8982 39.4831 10.9198 39.494 10.9367 39.5104C10.9472 39.5206 10.9557 39.5327 10.9615 39.5461C10.9673 39.5595 10.9704 39.5739 10.9706 39.5885V39.8329C10.9731 39.913 11.0057 39.9892 11.0619 40.0462C11.1182 40.1032 11.1938 40.1368 11.2737 40.1401H12.5945C12.6749 40.1371 12.7511 40.1031 12.8072 40.0453C12.8633 39.9875 12.8951 39.9102 12.8959 39.8295V36.6912C12.9022 36.0514 12.8557 35.4121 12.7571 34.78C12.679 34.3832 12.5097 34.0101 12.2626 33.6903L12.2711 33.6648ZM10.9807 37.5942C10.9861 37.7894 10.94 37.9826 10.847 38.1543C10.7591 38.3121 10.6349 38.4465 10.4846 38.5464C10.3289 38.6516 10.1574 38.7312 9.9766 38.7823C9.78432 38.84 9.58465 38.8691 9.38394 38.8689C9.1461 38.8695 8.91235 38.8068 8.70661 38.6872C8.60688 38.634 8.52441 38.5533 8.46891 38.4547C8.41341 38.3561 8.38719 38.2436 8.39334 38.1305C8.38745 38.0281 8.40516 37.9256 8.4451 37.8312C8.48503 37.7367 8.54612 37.6527 8.62363 37.5857C8.78485 37.4456 8.97428 37.342 9.17905 37.2818C9.39978 37.2174 9.62693 37.1776 9.85638 37.163C10.0985 37.1495 10.2966 37.1427 10.449 37.1427H10.8114C10.8511 37.147 10.8879 37.1652 10.9155 37.1941C10.943 37.2229 10.9596 37.2606 10.9621 37.3005L10.9807 37.5942Z" fill="white"/>
<path d="M33.1159 33.6649C32.8678 33.3558 32.5398 33.1209 32.1677 32.9859C31.6805 32.8179 31.1671 32.7397 30.6521 32.7551C30.1005 32.7547 29.5528 32.8471 29.0316 33.0284C28.6207 33.1695 28.237 33.3802 27.8971 33.6513C27.841 33.7118 27.8105 33.7919 27.8121 33.8745C27.8137 33.9571 27.8472 34.0359 27.9056 34.0943L28.5575 34.7647C28.6178 34.8248 28.6994 34.8586 28.7844 34.8586C28.8694 34.8586 28.951 34.8248 29.0113 34.7647C29.1713 34.6209 29.3495 34.4987 29.5413 34.4015C29.8347 34.2553 30.1585 34.1808 30.4862 34.1842C30.8287 34.1777 31.1621 34.2945 31.426 34.5135C31.6732 34.7189 31.8053 35.0838 31.8239 35.6711C31.8182 35.7089 31.7992 35.7434 31.7703 35.7683C31.7414 35.7932 31.7046 35.8069 31.6664 35.8069C31.4209 35.8069 31.1584 35.8069 30.8824 35.8222C30.5425 35.8314 30.2033 35.8591 29.8664 35.9053C29.5331 35.9505 29.204 36.0231 28.8826 36.1226C28.5797 36.2126 28.2937 36.3519 28.0359 36.535C27.7905 36.7125 27.5899 36.945 27.45 37.214C27.2959 37.5221 27.2213 37.8641 27.2333 38.2086C27.2262 38.5224 27.2929 38.8335 27.428 39.1167C27.5537 39.3729 27.7348 39.5979 27.958 39.7752C28.189 39.9563 28.4522 40.0917 28.7336 40.1741C29.4372 40.3828 30.1907 40.3457 30.8706 40.0689C31.1705 39.9464 31.4353 39.751 31.641 39.5003H31.6614C31.683 39.4902 31.7072 39.4869 31.7308 39.4908C31.7544 39.4948 31.7762 39.5057 31.7934 39.5223C31.8126 39.544 31.8239 39.5715 31.8256 39.6004V39.8448C31.8281 39.9249 31.8607 40.0011 31.917 40.0581C31.9732 40.1151 32.0488 40.1487 32.1287 40.1521H33.4546C33.5352 40.149 33.6115 40.1151 33.6679 40.0573C33.7243 39.9995 33.7565 39.9223 33.7577 39.8414V36.6912C33.7628 36.0515 33.717 35.4124 33.6205 34.78C33.5416 34.3828 33.3711 34.0097 33.1227 33.6903L33.1159 33.6649ZM31.8341 37.5942C31.8392 37.7892 31.7936 37.9822 31.702 38.1543C31.6136 38.3117 31.4895 38.446 31.3396 38.5464C31.1837 38.6513 31.0123 38.7309 30.8316 38.7823C30.6393 38.8397 30.4397 38.8689 30.239 38.8689C30.0011 38.8697 29.7673 38.807 29.5616 38.6873C29.4605 38.6342 29.3766 38.5533 29.3199 38.4541C29.2632 38.3548 29.236 38.2414 29.2416 38.1271C29.2365 38.0248 29.2545 37.9226 29.2944 37.8282C29.3343 37.7339 29.395 37.6498 29.4719 37.5823C29.6352 37.4453 29.8257 37.3447 30.0307 37.287C30.2514 37.2225 30.4786 37.1827 30.708 37.1681C30.9496 37.1546 31.1477 37.1478 31.3024 37.1478H31.6647C31.7044 37.1521 31.7412 37.1703 31.7688 37.1992C31.7964 37.228 31.8129 37.2657 31.8155 37.3056L31.8341 37.5942Z" fill="white"/>
<path d="M51.1194 33.6648C50.8704 33.3561 50.5419 33.1213 50.1695 32.9859C49.6829 32.8179 49.17 32.7397 48.6556 32.7551C48.1046 32.7547 47.5574 32.8471 47.0368 33.0283C46.6245 33.1698 46.2391 33.3804 45.8972 33.6513C45.8419 33.7125 45.8123 33.7926 45.8145 33.8751C45.8168 33.9577 45.8506 34.0361 45.9091 34.0943L46.561 34.7647C46.6213 34.8248 46.7029 34.8586 46.7879 34.8586C46.8729 34.8586 46.9545 34.8248 47.0148 34.7647C47.1754 34.6208 47.3542 34.4987 47.5465 34.4015C47.839 34.2545 48.1625 34.18 48.4897 34.1842C48.8319 34.1793 49.1648 34.296 49.4295 34.5135C49.6767 34.7189 49.8071 35.0838 49.8274 35.6711C49.8199 35.7083 49.8001 35.7419 49.7712 35.7665C49.7424 35.7912 49.7061 35.8054 49.6683 35.8069C49.4244 35.8069 49.1603 35.8069 48.8859 35.8221C48.546 35.8314 48.2068 35.8591 47.8699 35.9053C47.5366 35.9505 47.2075 36.0231 46.8861 36.1226C46.5831 36.2122 46.297 36.3516 46.0394 36.535C45.7936 36.712 45.5929 36.9446 45.4535 37.214C45.2996 37.5222 45.2245 37.864 45.2351 38.2086C45.2286 38.5225 45.2959 38.8336 45.4315 39.1167C45.5568 39.3736 45.7386 39.5988 45.9632 39.7752C46.193 39.9562 46.455 40.0916 46.7354 40.1741C47.439 40.3828 48.1925 40.3457 48.8724 40.0689C49.1743 39.9443 49.4396 39.7445 49.6429 39.4884H49.6615C49.6829 39.4784 49.7068 39.4752 49.7301 39.4791C49.7534 39.4831 49.7749 39.494 49.7919 39.5104C49.8025 39.5204 49.8111 39.5325 49.8169 39.546C49.8227 39.5594 49.8257 39.5739 49.8257 39.5885V39.8329C49.8286 39.9132 49.8616 39.9894 49.9181 40.0464C49.9746 40.1033 50.0505 40.1368 50.1305 40.1402H51.448C51.5289 40.1372 51.6056 40.1034 51.6625 40.0457C51.7195 39.988 51.7523 39.9107 51.7544 39.8295V36.6912C51.7593 36.0514 51.7123 35.4122 51.6139 34.78C51.5345 34.3833 51.3647 34.0104 51.1177 33.6903L51.1194 33.6648ZM49.8274 37.5942C49.832 37.7889 49.7872 37.9817 49.697 38.1543C49.6082 38.3113 49.4841 38.4456 49.3347 38.5464C49.1787 38.6513 49.0073 38.7309 48.8267 38.7823C48.6343 38.8397 48.4347 38.8689 48.234 38.8689C47.9961 38.8699 47.7623 38.8072 47.5567 38.6872C47.4556 38.6342 47.3717 38.5533 47.315 38.4541C47.2583 38.3548 47.2311 38.2414 47.2366 38.1271C47.2307 38.0247 47.2485 37.9223 47.2884 37.8278C47.3283 37.7333 47.3894 37.6493 47.4669 37.5823C47.63 37.445 47.8206 37.3443 48.0257 37.2869C48.2464 37.2224 48.4736 37.1825 48.7031 37.1681C48.9401 37.1546 49.1382 37.1478 49.294 37.1478H49.6581C49.6981 37.1504 49.7356 37.1681 49.7629 37.1975C49.7903 37.2268 49.8055 37.2655 49.8054 37.3056L49.8274 37.5942Z" fill="white"/>
<path d="M26.2681 33.7277C25.9916 33.4127 25.6478 33.1644 25.2623 33.0012C24.8443 32.83 24.3963 32.7446 23.9448 32.75C23.4425 32.7482 22.9436 32.8332 22.47 33.0012C22.0265 33.1618 21.619 33.4087 21.2711 33.7277C20.9285 34.0439 20.6547 34.4276 20.4668 34.8547C20.0757 35.9354 20.0757 37.1194 20.4668 38.2001C20.6535 38.627 20.9275 39.0098 21.2711 39.3238C21.6176 39.645 22.0254 39.8927 22.47 40.0519C22.943 40.2221 23.4422 40.3077 23.9448 40.3048C24.4944 40.3037 25.0373 40.1838 25.5366 39.9535C25.9272 39.78 26.2812 39.5335 26.5797 39.227C26.6327 39.1678 26.6621 39.091 26.6621 39.0115C26.6621 38.9319 26.6327 38.8551 26.5797 38.7959L25.6297 38.0966L25.5603 38.0474C25.4997 38.0127 25.4295 37.9989 25.3604 38.0081C25.2912 38.0173 25.227 38.049 25.1776 38.0983C25.0441 38.246 24.8928 38.3766 24.7272 38.487C24.4639 38.6458 24.1606 38.7253 23.8534 38.7161C23.476 38.7247 23.1084 38.5956 22.8188 38.3529C22.502 38.0264 22.3122 37.5972 22.2837 37.1427C22.2839 37.1057 22.2971 37.07 22.321 37.0418C22.3448 37.0135 22.3777 36.9946 22.4141 36.9882H26.8337C26.9148 36.9839 26.9913 36.9486 27.0473 36.8896C27.1034 36.8306 27.1348 36.7523 27.1351 36.6708V36.3229C27.1414 35.824 27.0659 35.3274 26.9116 34.853C26.776 34.4387 26.5596 34.0556 26.2749 33.726L26.2681 33.7277ZM24.8762 35.5438H22.4479C22.4075 35.5434 22.3686 35.5276 22.3394 35.4995C22.3101 35.4715 22.2926 35.4333 22.2905 35.3927C22.3103 35.2758 22.3445 35.1618 22.3921 35.0533C22.4614 34.9001 22.5617 34.7632 22.6867 34.651C22.8185 34.5275 22.9718 34.4291 23.1388 34.3608C23.3345 34.2837 23.5434 34.2462 23.7535 34.2504C23.9271 34.2437 24.1002 34.274 24.2613 34.3392C24.4225 34.4045 24.568 34.5032 24.6882 34.6289C24.8868 34.8332 25.0068 35.1014 25.0269 35.386C25.0247 35.4268 25.007 35.4652 24.9774 35.4933C24.9478 35.5214 24.9085 35.5371 24.8677 35.537" fill="white"/>
<path d="M18.2332 36.6267L18.1858 36.5622C18.1559 36.5131 18.14 36.4567 18.14 36.3992C18.14 36.3417 18.1559 36.2854 18.1858 36.2363L20.6276 33.1811C20.6537 33.1498 20.6668 33.1096 20.6643 33.0689C20.6618 33.0282 20.6438 32.99 20.614 32.9622C20.5853 32.9375 20.5486 32.9243 20.5108 32.9248H18.5871C18.4889 32.9248 18.392 32.9475 18.3039 32.991C18.2158 33.0346 18.1389 33.0979 18.0791 33.176L17.9741 33.3101L16.0945 35.7305L16.0691 35.761L16.0556 35.7746H16.042C16.0206 35.7846 15.9967 35.7878 15.9734 35.7839C15.9502 35.7799 15.9286 35.769 15.9117 35.7526C15.8963 35.7366 15.8858 35.7166 15.8812 35.6949V29.8492C15.8769 29.7714 15.8444 29.6978 15.7899 29.6422C15.7353 29.5866 15.6624 29.5528 15.5848 29.5471H14.0829C14.0047 29.5536 13.9316 29.5883 13.877 29.6449C13.8225 29.7014 13.7904 29.7758 13.7865 29.8543V39.8279C13.7902 39.9074 13.8233 39.9827 13.8793 40.0392C13.9353 40.0957 14.0103 40.1292 14.0896 40.1334H15.5781C15.6567 40.1297 15.7312 40.097 15.7872 40.0415C15.8432 39.986 15.8767 39.9117 15.8812 39.8329V37.0069C15.8858 36.9852 15.8963 36.9652 15.9117 36.9492C15.9286 36.9327 15.9502 36.9218 15.9734 36.9179C15.9967 36.9139 16.0206 36.9172 16.042 36.9271H16.0556C16.0613 36.931 16.066 36.9362 16.0691 36.9424V36.9509L16.1081 36.995L17.9335 39.7447L18.0385 39.8788C18.0988 39.9562 18.1758 40.0189 18.2638 40.0621C18.3518 40.1054 18.4485 40.128 18.5465 40.1283H20.5785C20.6007 40.1251 20.6215 40.115 20.6378 40.0994C20.6624 40.0766 20.6791 40.0466 20.6855 40.0136C20.6919 39.9806 20.6876 39.9465 20.6733 39.9161L18.2332 36.6267Z" fill="white"/>
<path d="M45.3418 33.4306C45.3654 33.363 45.3774 33.2918 45.3774 33.2202C45.3791 33.2072 45.3791 33.1941 45.3774 33.1811C45.3632 33.1117 45.3263 33.0491 45.2727 33.003C45.219 32.9569 45.1516 32.93 45.081 32.9265H43.8872C43.7405 32.9268 43.5982 32.9775 43.4842 33.0701C43.3702 33.1628 43.2913 33.2918 43.2607 33.4357L43.2235 33.5783L42.2159 37.2819C42.1902 37.3097 42.1553 37.3272 42.1177 37.3311C42.094 37.3294 42.0711 37.3217 42.0513 37.3086C42.0314 37.2955 42.0152 37.2775 42.0043 37.2564L41.989 37.197L40.9815 33.4527L40.9662 33.3848C40.9245 33.255 40.8429 33.1419 40.7331 33.0614C40.6233 32.9809 40.491 32.9373 40.355 32.9367H39.0562C38.9112 32.9371 38.7705 32.9867 38.6571 33.0772C38.5437 33.1678 38.4642 33.2941 38.4313 33.4357V33.4697L38.4042 33.5834L37.4865 37.2819C37.4784 37.2961 37.4676 37.3085 37.4546 37.3185C37.4417 37.3285 37.4269 37.3357 37.4111 37.3398C37.3953 37.3439 37.3789 37.3448 37.3627 37.3425C37.3466 37.3401 37.3311 37.3345 37.3171 37.326C37.2993 37.3149 37.2842 37.2998 37.2731 37.2819L36.1843 33.5834L36.1318 33.4136C36.1335 33.403 36.1335 33.3921 36.1318 33.3814C36.0881 33.2546 36.0061 33.1446 35.8971 33.0667C35.7882 32.9888 35.6577 32.947 35.5239 32.9469H34.2082C34.1378 32.9509 34.0706 32.978 34.0171 33.024C33.9635 33.07 33.9266 33.1324 33.9118 33.2015V33.2405C33.9131 33.3122 33.9257 33.3832 33.9491 33.451L36.1132 39.7226C36.1208 39.7463 36.131 39.7691 36.1436 39.7905C36.1903 39.8923 36.2632 39.9796 36.3549 40.0435C36.4467 40.1074 36.5538 40.1455 36.6652 40.1537H37.9335C38.0617 40.1442 38.184 40.0962 38.2846 40.0159C38.3852 39.9357 38.4593 39.827 38.4974 39.7039L38.5516 39.5223L39.5506 35.924C39.5619 35.9087 39.5764 35.8961 39.5931 35.887C39.6098 35.8779 39.6282 35.8726 39.6471 35.8714C39.6667 35.8726 39.6858 35.8781 39.7031 35.8875C39.7203 35.8969 39.7353 35.9099 39.7471 35.9257L40.8917 39.5902C40.9134 39.6597 40.9394 39.7277 40.9696 39.7939C41.0172 39.8949 41.0905 39.9816 41.182 40.0454C41.2735 40.1091 41.3801 40.1476 41.4912 40.1571H42.729C42.8401 40.1486 42.9469 40.1103 43.0383 40.0465C43.1297 39.9826 43.2024 39.8954 43.2489 39.7939C43.2641 39.7668 43.3064 39.6445 43.3335 39.5631L45.3655 33.4985C45.366 33.4855 45.3695 33.4727 45.3757 33.4612" fill="white"/>
<path d="M59.1509 33.176C59.1509 33.1573 59.139 33.1403 59.1339 33.1217C59.1102 33.0677 59.0723 33.0212 59.0243 32.9871C58.9763 32.953 58.92 32.9327 58.8613 32.9282H57.5913C57.4723 32.9322 57.3568 32.9695 57.2578 33.0358C57.1588 33.102 57.0802 33.1947 57.0308 33.3033C57.0225 33.3221 57.0151 33.3414 57.0088 33.361L57.0003 33.3932C57.0003 33.4102 56.9902 33.4289 56.9851 33.4458L56.9478 33.568L55.793 37.3565L55.7761 37.4006C55.7678 37.4344 55.7481 37.4642 55.7203 37.485C55.6925 37.5057 55.6583 37.5161 55.6237 37.5143C55.592 37.5151 55.5609 37.5061 55.5345 37.4884C55.5081 37.4708 55.4878 37.4455 55.4763 37.4159L54.1031 33.5664L54.0861 33.5171L53.9947 33.2574C53.9418 33.1576 53.8635 33.0736 53.7677 33.014C53.6719 32.9544 53.5621 32.9213 53.4494 32.918H52.0152C51.965 32.9278 51.9178 32.9494 51.8775 32.981C51.8372 33.0125 51.8049 33.0532 51.7832 33.0996C51.7766 33.1161 51.7715 33.1331 51.768 33.1505C51.7569 33.207 51.7604 33.2654 51.7781 33.3202L54.5112 39.9975C54.5517 40.137 54.5434 40.2862 54.4874 40.4202V40.4405L54.4366 40.5661C54.3638 40.7478 54.2927 40.9056 54.2284 41.0567C54.1685 41.1909 54.086 41.3138 53.9845 41.4199C53.8794 41.5217 53.7526 41.5983 53.6137 41.6439C53.4277 41.7004 53.2339 41.7267 53.0396 41.722H52.1337C52.0524 41.7242 51.975 41.7577 51.9176 41.8155C51.8602 41.8733 51.8272 41.9511 51.8255 42.0326V43.1732C51.8277 43.2551 51.8609 43.3331 51.9185 43.3911C51.9762 43.4492 52.0538 43.483 52.1354 43.4855H53.3478C53.7582 43.4968 54.1679 43.447 54.5636 43.3379C54.847 43.2523 55.1075 43.1038 55.3256 42.9034C55.5327 42.7007 55.7003 42.4613 55.8201 42.1973C55.951 41.9178 56.0859 41.5959 56.2248 41.2315L59.1509 33.3016C59.1594 33.2601 59.1594 33.2174 59.1509 33.176Z" fill="white"/>
<path d="M58.863 38.6703C58.7607 38.6669 58.6589 38.686 58.5647 38.7261C58.4706 38.7663 58.3863 38.8266 58.3178 38.9028C58.1792 39.0483 58.103 39.2425 58.1055 39.4436C58.108 39.6448 58.1891 39.8369 58.3314 39.9788C58.4736 40.1207 58.6657 40.2011 58.8664 40.2027C59.0671 40.2043 59.2604 40.1271 59.4049 39.9874L59.4235 39.9705C59.5603 39.8265 59.6365 39.6354 59.6365 39.4367C59.6365 39.2379 59.5603 39.0468 59.4235 38.9028C59.3545 38.8272 59.2701 38.7674 59.1761 38.7273C59.082 38.6871 58.9804 38.6677 58.8783 38.6703" fill="white"/>
<path d="M71.8932 33.7362C71.5732 33.4238 71.1929 33.18 70.7756 33.02C69.8652 32.6805 68.8633 32.6805 67.9528 33.02C67.5358 33.1794 67.1559 33.4232 66.8369 33.7362C66.5256 34.0477 66.2793 34.4181 66.1122 34.8259C65.931 35.2502 65.8446 36.0887 65.8446 36.6098C65.8382 37.1583 65.9288 37.7037 66.1122 38.2206C66.2787 38.635 66.529 39.0104 66.8472 39.3232C67.1654 39.6361 67.5447 39.8796 67.9613 40.0384C68.8724 40.3778 69.8747 40.3778 70.7858 40.0384C71.2024 39.8789 71.5822 39.6357 71.9017 39.3238C72.2135 39.0124 72.4604 38.642 72.6281 38.2341C72.8107 37.7165 72.9013 37.1707 72.8957 36.6217C72.8957 36.1023 72.8042 35.2638 72.6281 34.8395C72.4598 34.4314 72.213 34.0606 71.9017 33.7481L71.8932 33.7362ZM71.5546 37.7776C71.4527 38.0678 71.2918 38.3336 71.0821 38.5583C70.8719 38.7802 70.6198 38.9579 70.3404 39.0811C69.7202 39.3323 69.0269 39.3323 68.4067 39.0811C68.1282 38.9563 67.8763 38.7788 67.665 38.5583C67.4579 38.332 67.2979 38.0666 67.1942 37.7776C67.0797 37.3996 67.0227 37.0065 67.0249 36.6115C67.0226 36.1602 67.0795 35.7105 67.1942 35.274C67.2954 34.9847 67.4555 34.7196 67.6642 34.4956C67.8729 34.2715 68.1257 34.0932 68.4067 33.9722C69.026 33.7166 69.7211 33.7166 70.3404 33.9722C70.6201 34.0942 70.8723 34.2714 71.0821 34.4932C71.2922 34.7176 71.4531 34.9836 71.5546 35.274C71.6685 35.7106 71.7254 36.1602 71.7239 36.6115C71.7253 37.0064 71.6683 37.3994 71.5546 37.7776Z" fill="white"/>
<path d="M61.508 34.5067C61.6962 34.2765 61.9358 34.0939 62.2074 33.9738C62.515 33.8454 62.8462 33.7835 63.1794 33.7921C63.4915 33.7859 63.8012 33.8479 64.087 33.9738C64.2988 34.077 64.4917 34.2153 64.6576 34.3828C64.7145 34.4334 64.7875 34.462 64.8635 34.4636C64.9395 34.4651 65.0136 34.4395 65.0725 34.3913L65.4738 34.0281C65.5332 33.9729 65.5696 33.8973 65.5756 33.8163C65.5815 33.7354 65.5567 33.6552 65.506 33.5919C65.2342 33.3429 64.9183 33.1472 64.5747 33.0148C64.1305 32.8414 63.6577 32.7533 63.181 32.7551C62.7053 32.7501 62.2332 32.8401 61.7925 33.0199C61.3842 33.1846 61.0142 33.4319 60.7054 33.7463C60.4011 34.0635 60.1633 34.4387 60.006 34.8496C59.6775 35.9433 59.6775 37.1098 60.006 38.2035C60.1618 38.6141 60.3972 38.9896 60.6986 39.3085C61.0022 39.626 61.3707 39.8738 61.779 40.0349C62.6699 40.3761 63.655 40.3761 64.5459 40.0349C64.8892 39.9007 65.2028 39.6999 65.4687 39.4442C65.5187 39.3839 65.5446 39.3072 65.5415 39.2288C65.5384 39.1505 65.5064 39.0761 65.4518 39.0199L65.1131 38.6805C65.0542 38.6256 64.9768 38.5951 64.8964 38.5951C64.816 38.5951 64.7385 38.6256 64.6796 38.6805C64.4865 38.8784 64.2541 39.0335 63.9974 39.1358C63.7407 39.2381 63.4655 39.2854 63.1895 39.2745C62.8734 39.2774 62.5604 39.212 62.2717 39.0827C62.0037 38.9573 61.7653 38.7762 61.5724 38.5515C61.3771 38.3183 61.2246 38.0522 61.122 37.7656C61.0099 37.3627 60.9529 36.9465 60.9526 36.5282C60.9507 36.111 60.9985 35.6951 61.0949 35.2892C61.1802 35.0024 61.3192 34.7345 61.5046 34.4999" fill="white"/>
<path d="M83.4079 34.3965C83.333 34.0765 83.1878 33.7772 82.9828 33.5207C82.7749 33.2757 82.508 33.0881 82.2073 32.9758C81.8278 32.8373 81.4257 32.7717 81.022 32.7823C80.5829 32.7662 80.1493 32.8846 79.7791 33.1218C79.5077 33.3157 79.2712 33.5545 79.0797 33.8279L79.0475 33.8754L79.0306 33.8992C79.0201 33.9103 79.0075 33.9192 78.9936 33.9253C78.9796 33.9314 78.9646 33.9347 78.9493 33.9348C78.9285 33.9346 78.9081 33.9289 78.8902 33.9181C78.8724 33.9074 78.8577 33.8921 78.8477 33.8737C78.8477 33.8601 78.8274 33.8398 78.8189 33.8194C78.7868 33.7668 78.7529 33.7125 78.719 33.6497C78.6191 33.4919 78.4925 33.3529 78.3448 33.2389C78.1628 33.1002 77.9606 32.9903 77.7454 32.913C77.2064 32.7438 76.6301 32.7344 76.0859 32.8859C75.8621 32.9504 75.6484 33.0458 75.4509 33.1693C75.2701 33.2795 75.1059 33.415 74.9632 33.5716C74.9158 33.6242 74.8752 33.6768 74.8345 33.7312L74.8227 33.7464C74.8186 33.7548 74.8128 33.7624 74.8057 33.7685C74.7838 33.7896 74.7548 33.8017 74.7245 33.8024C74.6982 33.8028 74.6727 33.7938 74.6525 33.777C74.6324 33.7602 74.6188 33.7367 74.6144 33.7108V33.2423C74.611 33.1616 74.5774 33.0852 74.5203 33.0282C74.4632 32.9713 74.3867 32.938 74.3062 32.9351H73.9083C73.8262 32.9382 73.7485 32.9729 73.6914 33.0321C73.6343 33.0912 73.6022 33.1702 73.6018 33.2525V39.8127C73.603 39.8951 73.6359 39.9739 73.6936 40.0327C73.7513 40.0915 73.8294 40.1258 73.9117 40.1284H74.3892C74.4726 40.1253 74.5516 40.09 74.6097 40.0299C74.6677 39.9698 74.7004 39.8895 74.7007 39.8059V36.3348C74.6975 35.9866 74.7379 35.6393 74.821 35.3012C74.8896 35.0118 75.0125 34.7382 75.1833 34.4949C75.3472 34.2694 75.5658 34.0895 75.8183 33.9722C76.1099 33.8436 76.4262 33.7816 76.7446 33.7906C77.1967 33.7906 77.5201 33.9433 77.7183 34.2505C77.9164 34.5577 78.0129 35.0771 78.0129 35.8138V39.811C78.0138 39.8945 78.0469 39.9744 78.1053 40.0339C78.1637 40.0934 78.2429 40.1279 78.3262 40.1301H78.8037C78.8872 40.1274 78.9665 40.0923 79.0246 40.0321C79.0828 39.9719 79.1153 39.8914 79.1153 39.8076V35.7442C79.1117 35.4722 79.1576 35.2019 79.2507 34.9464C79.3305 34.7194 79.4536 34.5102 79.6131 34.3303C79.7657 34.1625 79.9506 34.0274 80.1567 33.9331C80.3651 33.8384 80.5916 33.7903 80.8204 33.7923C81.0926 33.7815 81.3635 33.835 81.6112 33.9484C81.8064 34.0423 81.9756 34.1827 82.104 34.3575C82.2282 34.5319 82.3153 34.73 82.3597 34.9396C82.4056 35.1573 82.4289 35.3791 82.4291 35.6016V39.8279C82.4317 39.91 82.4653 39.9879 82.5232 40.046C82.5811 40.104 82.6589 40.1377 82.7407 40.1403H83.2182C83.3018 40.1376 83.381 40.1025 83.4392 40.0423C83.4973 39.9821 83.5298 39.9016 83.5298 39.8178V35.5456C83.5347 35.1572 83.4927 34.7696 83.4045 34.3914" fill="white"/>
</svg>
