<svg width="316" height="38" viewBox="0 0 316 38" fill="none" xmlns="http://www.w3.org/2000/svg">
<path d="M176.037 16.4324V13.9708C176.027 13.8255 175.963 13.689 175.858 13.5876C175.753 13.4862 175.614 13.4271 175.468 13.4216H162.083C161.932 13.4256 161.789 13.4869 161.683 13.5928C161.576 13.6988 161.515 13.8414 161.511 13.9912V16.4167C161.516 16.5657 161.576 16.7075 161.681 16.8139C161.786 16.9203 161.927 16.9835 162.076 16.991H166.456C166.532 16.9937 166.605 17.0255 166.659 17.0797C166.713 17.1339 166.744 17.2065 166.746 17.2828V31.1349C166.745 31.286 166.804 31.4314 166.908 31.5407C167.013 31.65 167.156 31.7148 167.308 31.7217H170.232C170.379 31.7151 170.519 31.6534 170.622 31.549C170.726 31.4446 170.786 31.3052 170.791 31.1584V17.2106C170.807 17.1481 170.843 17.0925 170.894 17.0521C170.944 17.0117 171.007 16.9886 171.071 16.9863H175.471C175.617 16.9788 175.755 16.9183 175.859 16.8161C175.962 16.714 176.025 16.5774 176.034 16.4324" fill="#FF8000"/>
<path d="M183.493 19.779C183.03 19.2086 182.42 18.7747 181.728 18.5239C180.824 18.2118 179.87 18.0672 178.914 18.0971C177.889 18.0944 176.871 18.2647 175.903 18.6007C175.138 18.8623 174.424 19.2517 173.791 19.7523C173.688 19.8643 173.633 20.0115 173.636 20.1633C173.64 20.315 173.702 20.4595 173.81 20.5666L175.024 21.8061C175.079 21.8609 175.144 21.9044 175.216 21.9341C175.288 21.9638 175.365 21.9791 175.443 21.9791C175.521 21.9791 175.598 21.9638 175.67 21.9341C175.742 21.9044 175.807 21.8609 175.862 21.8061C176.16 21.5417 176.491 21.3161 176.846 21.1346C177.39 20.8658 177.99 20.7288 178.597 20.7345C179.235 20.7249 179.856 20.9405 180.35 21.3432C180.808 21.7214 181.054 22.396 181.087 23.4801C181.076 23.5497 181.04 23.6131 180.987 23.6593C180.933 23.7055 180.865 23.7314 180.794 23.7327C180.339 23.7327 179.849 23.7327 179.339 23.7594C178.707 23.7766 178.076 23.8289 177.449 23.9163C176.831 24.0007 176.22 24.1345 175.623 24.3164C175.06 24.4839 174.528 24.7414 174.048 25.0789C173.592 25.4027 173.219 25.8276 172.956 26.3199C172.673 26.8897 172.536 27.5201 172.555 28.1556C172.541 28.736 172.665 29.3115 172.919 29.8343C173.152 30.307 173.488 30.7218 173.903 31.0487C174.332 31.3845 174.822 31.6353 175.345 31.7876C175.891 31.9511 176.459 32.0336 177.029 32.0324C177.808 32.0374 178.579 31.888 179.3 31.5931C179.858 31.3669 180.35 31.0056 180.733 30.5419H180.772C180.812 30.5233 180.856 30.5172 180.9 30.5245C180.943 30.5318 180.983 30.5521 181.015 30.5827C181.054 30.6205 181.078 30.6723 181.079 30.727V31.1805C181.084 31.3281 181.144 31.4686 181.249 31.5737C181.353 31.6787 181.493 31.7406 181.641 31.7468H184.095C184.244 31.7409 184.386 31.6782 184.49 31.5718C184.595 31.4653 184.654 31.3231 184.657 31.1742V25.3597C184.667 24.179 184.58 22.9994 184.397 21.8327C184.251 21.0994 183.937 20.4098 183.478 19.8182L183.493 19.779ZM181.097 27.0353C181.104 27.3954 181.019 27.7514 180.849 28.0693C180.685 28.3596 180.454 28.6078 180.177 28.7941C179.886 28.9871 179.568 29.1342 179.232 29.2303C178.874 29.3365 178.503 29.3894 178.13 29.3872C177.69 29.3871 177.259 29.2713 176.879 29.0514C176.691 28.954 176.535 28.8047 176.43 28.6213C176.325 28.4379 176.276 28.2283 176.287 28.0175C176.277 27.8284 176.311 27.6396 176.385 27.4651C176.459 27.2907 176.571 27.1352 176.714 27.0102C177.018 26.7593 177.372 26.5739 177.752 26.4658C178.166 26.3454 178.592 26.2723 179.023 26.2477C179.471 26.2216 179.838 26.2085 180.125 26.2085H180.799C180.874 26.2139 180.944 26.2468 180.995 26.3007C181.047 26.3546 181.077 26.4257 181.079 26.5003L181.097 27.0353Z" fill="#FF8000"/>
<path d="M222.236 19.779C221.774 19.2084 221.165 18.7744 220.474 18.5238C219.569 18.2119 218.615 18.0673 217.658 18.0971C216.633 18.0951 215.614 18.2654 214.646 18.6007C213.882 18.8611 213.168 19.2506 212.537 19.7523C212.433 19.8637 212.377 20.011 212.38 20.1629C212.383 20.3149 212.446 20.4597 212.554 20.5666L213.767 21.8061C213.879 21.9167 214.03 21.9788 214.188 21.9788C214.346 21.9788 214.497 21.9167 214.609 21.8061C214.907 21.5417 215.237 21.316 215.592 21.1345C216.137 20.8649 216.739 20.7278 217.348 20.7345C217.985 20.7238 218.605 20.9396 219.096 21.3432C219.554 21.7213 219.8 22.396 219.835 23.4801C219.823 23.5497 219.788 23.6131 219.734 23.6593C219.681 23.7054 219.612 23.7314 219.542 23.7327C219.087 23.7327 218.597 23.7327 218.085 23.7594C217.453 23.7765 216.822 23.8289 216.195 23.9163C215.575 23.9994 214.963 24.1332 214.365 24.3163C213.802 24.4839 213.271 24.7414 212.791 25.0788C212.337 25.4037 211.965 25.8283 211.702 26.3199C211.417 26.889 211.279 27.5198 211.299 28.1555C211.287 28.7358 211.411 29.3109 211.663 29.8343C211.896 30.3068 212.232 30.7217 212.646 31.0486C213.075 31.3842 213.565 31.635 214.088 31.7876C215.395 32.1718 216.794 32.1032 218.057 31.5931C218.614 31.3674 219.107 31.006 219.488 30.5419H219.526C219.566 30.5234 219.611 30.5175 219.655 30.5247C219.699 30.532 219.739 30.5522 219.772 30.5827C219.809 30.6219 219.83 30.6731 219.833 30.727V31.1804C219.838 31.3281 219.898 31.4686 220.002 31.5736C220.107 31.6787 220.247 31.7406 220.395 31.7468H222.847C222.997 31.7412 223.139 31.6788 223.243 31.5723C223.348 31.4658 223.408 31.3233 223.411 31.1742V25.3597C223.42 24.1791 223.334 22.9997 223.154 21.8327C223.007 21.0991 222.691 20.4095 222.231 19.8182L222.236 19.779ZM219.836 27.0353C219.845 27.3953 219.761 27.7515 219.59 28.0692C219.427 28.3606 219.196 28.6091 218.916 28.7941C218.626 28.9869 218.307 29.134 217.972 29.2303C217.614 29.3365 217.242 29.3894 216.869 29.3871C216.431 29.3868 216.001 29.271 215.622 29.0514C215.433 28.9544 215.277 28.8053 215.171 28.6219C215.066 28.4385 215.016 28.2286 215.027 28.0175C215.017 27.8282 215.05 27.639 215.124 27.4645C215.198 27.2899 215.312 27.1346 215.455 27.0102C215.759 26.7593 216.112 26.5739 216.491 26.4658C216.906 26.3455 217.334 26.2724 217.765 26.2477C218.214 26.221 218.583 26.2085 218.868 26.2085H219.542C219.616 26.2132 219.687 26.2459 219.738 26.3C219.79 26.3541 219.819 26.4256 219.82 26.5003L219.836 27.0353Z" fill="#FF8000"/>
<path d="M255.673 19.779C255.21 19.2086 254.6 18.7747 253.908 18.5239C253.004 18.2118 252.05 18.0672 251.094 18.0971C250.07 18.0952 249.053 18.2654 248.086 18.6007C247.32 18.8613 246.604 19.2508 245.97 19.7523C245.867 19.8647 245.812 20.0119 245.816 20.1636C245.82 20.3152 245.882 20.4595 245.99 20.5666L247.203 21.8061C247.315 21.9167 247.466 21.9788 247.624 21.9788C247.782 21.9788 247.933 21.9167 248.045 21.8061C248.345 21.5416 248.676 21.316 249.033 21.1346C249.577 20.8649 250.178 20.7278 250.785 20.7345C251.422 20.7249 252.041 20.9406 252.533 21.3432C252.992 21.7214 253.234 22.396 253.27 23.4801C253.26 23.5507 253.224 23.615 253.17 23.6614C253.115 23.7078 253.046 23.7331 252.974 23.7327C252.522 23.7327 252.029 23.7327 251.522 23.7594C250.89 23.7764 250.259 23.8288 249.633 23.9163C249.013 24.0007 248.401 24.1345 247.803 24.3164C247.24 24.4839 246.708 24.7414 246.228 25.0789C245.773 25.4024 245.4 25.8274 245.14 26.3199C244.855 26.889 244.716 27.5198 244.737 28.1556C244.723 28.7359 244.848 29.3112 245.1 29.8343C245.332 30.3086 245.669 30.7239 246.086 31.0487C246.516 31.387 247.006 31.6395 247.532 31.7923C248.84 32.1765 250.24 32.1079 251.503 31.5978C252.062 31.3741 252.555 31.0123 252.935 30.5466H252.973C253.013 30.5282 253.057 30.5223 253.1 30.5295C253.144 30.5368 253.184 30.557 253.215 30.5874C253.234 30.6064 253.249 30.6289 253.26 30.6536C253.27 30.6784 253.275 30.7049 253.275 30.7317V31.1852C253.282 31.3329 253.344 31.4728 253.449 31.5775C253.553 31.6822 253.694 31.7443 253.842 31.7515H256.291C256.441 31.746 256.584 31.6838 256.689 31.5774C256.795 31.4711 256.857 31.3286 256.861 31.1789V25.3597C256.869 24.1789 256.781 22.9994 256.598 21.8327C256.451 21.0996 256.137 20.4101 255.678 19.8182L255.673 19.779ZM253.278 27.0353C253.289 27.3951 253.206 27.7515 253.036 28.0693C252.871 28.3596 252.641 28.6078 252.363 28.7941C252.073 28.9871 251.754 29.1342 251.418 29.2303C251.061 29.3365 250.689 29.3894 250.316 29.3872C249.878 29.3871 249.447 29.2712 249.069 29.0514C248.88 28.9544 248.724 28.8053 248.618 28.6219C248.513 28.4385 248.462 28.2286 248.474 28.0175C248.464 27.8284 248.497 27.6396 248.571 27.4651C248.645 27.2907 248.758 27.1352 248.9 27.0102C249.205 26.7593 249.558 26.5739 249.938 26.4658C250.353 26.3456 250.781 26.2724 251.212 26.2477C251.65 26.2211 252.02 26.2085 252.314 26.2085H252.988C253.063 26.2133 253.133 26.246 253.185 26.3001C253.236 26.3543 253.265 26.4258 253.266 26.5003L253.278 27.0353Z" fill="#FF8000"/>
<path d="M209.498 19.8951C208.985 19.3138 208.347 18.8553 207.632 18.5537C206.855 18.2358 206.022 18.0757 205.183 18.083C204.249 18.0802 203.322 18.2395 202.443 18.5537C201.618 18.8507 200.861 19.3065 200.213 19.8951C199.578 20.4802 199.07 21.1888 198.72 21.9771C197.992 23.9717 197.992 26.1578 198.72 28.1524C199.067 28.9406 199.576 29.6481 200.213 30.2297C200.858 30.8225 201.616 31.2793 202.443 31.5727C203.321 31.89 204.249 32.0494 205.183 32.0434C206.204 32.0427 207.213 31.8222 208.14 31.397C208.866 31.0769 209.524 30.621 210.077 30.054C210.177 29.9453 210.232 29.8034 210.232 29.6563C210.232 29.5091 210.177 29.3672 210.077 29.2585L208.32 27.961L208.192 27.87C208.079 27.8064 207.949 27.7811 207.82 27.7981C207.692 27.8151 207.573 27.8734 207.48 27.9642C207.232 28.2373 206.951 28.4787 206.643 28.6827C206.155 28.977 205.592 29.1242 205.022 29.1063C204.32 29.1236 203.636 28.8848 203.098 28.4348C202.509 27.8335 202.156 27.0411 202.104 26.2022C202.104 26.1338 202.129 26.0676 202.173 26.0154C202.217 25.9631 202.279 25.9282 202.347 25.9167H210.558C210.708 25.9079 210.85 25.8424 210.953 25.7334C211.057 25.6244 211.116 25.4802 211.117 25.3299V24.6882C211.131 23.7668 210.991 22.8496 210.702 21.974C210.451 21.2086 210.049 20.5009 209.52 19.892L209.498 19.8951ZM206.921 23.2495H202.4C202.325 23.2484 202.253 23.2191 202.199 23.1672C202.144 23.1154 202.112 23.045 202.107 22.9702C202.144 22.7586 202.207 22.5524 202.296 22.3568C202.425 22.0736 202.611 21.8199 202.843 21.6115C203.089 21.3844 203.373 21.2032 203.684 21.0765C204.047 20.9339 204.436 20.8646 204.827 20.8726C205.149 20.8613 205.469 20.9176 205.768 21.0379C206.066 21.1582 206.336 21.3397 206.559 21.5707C206.934 21.9462 207.162 22.4423 207.203 22.9702C207.198 23.0453 207.165 23.1157 207.11 23.1675C207.055 23.2192 206.983 23.2485 206.907 23.2495" fill="#FF8000"/>
<path d="M194.57 25.2498L194.482 25.129C194.427 25.0383 194.398 24.9345 194.398 24.8286C194.398 24.7227 194.427 24.6188 194.482 24.5281L199.029 18.8894C199.065 18.848 199.088 18.7971 199.096 18.7428C199.104 18.6885 199.096 18.6331 199.072 18.5833C199.049 18.5335 199.012 18.4914 198.966 18.4622C198.919 18.433 198.865 18.4179 198.81 18.4187H195.235C195.052 18.4181 194.872 18.4596 194.708 18.5399C194.544 18.6202 194.401 18.7371 194.29 18.8815L194.095 19.1294L190.603 23.6009L190.558 23.6542L190.529 23.6809H190.506C190.466 23.7 190.422 23.7064 190.378 23.6994C190.335 23.6924 190.295 23.6722 190.263 23.6417C190.235 23.6113 190.215 23.5739 190.207 23.5334V12.7329C190.199 12.5894 190.138 12.4537 190.037 12.3512C189.936 12.2487 189.801 12.1864 189.657 12.1759H186.855C186.71 12.1873 186.574 12.2513 186.473 12.356C186.371 12.4606 186.312 12.5986 186.306 12.7439V31.1537C186.312 31.3005 186.374 31.4396 186.478 31.5438C186.582 31.6479 186.721 31.7097 186.868 31.717H189.635C189.781 31.7106 189.919 31.6504 190.023 31.548C190.127 31.4457 190.189 31.3085 190.197 31.1632V25.9512C190.205 25.9105 190.225 25.8729 190.254 25.8429C190.285 25.8124 190.326 25.7922 190.369 25.7852C190.412 25.7782 190.457 25.7846 190.496 25.8037H190.52C190.532 25.8091 190.542 25.8185 190.548 25.8303V25.846L190.618 25.9276L194.011 31.0078L194.207 31.2557C194.316 31.3967 194.457 31.5113 194.617 31.5909C194.777 31.6705 194.953 31.713 195.133 31.7154H198.912C198.954 31.7091 198.993 31.6905 199.024 31.6621C199.069 31.6201 199.099 31.565 199.111 31.5047C199.123 31.4443 199.115 31.3819 199.088 31.3263L194.57 25.2498Z" fill="#FF8000"/>
<path d="M244.937 19.3459C244.982 19.2206 245.005 19.0884 245.004 18.9552C245.006 18.9317 245.006 18.9081 245.004 18.8846C244.978 18.7567 244.909 18.6412 244.81 18.556C244.711 18.4709 244.586 18.4209 244.455 18.4139H242.234C241.963 18.4134 241.7 18.5055 241.488 18.6748C241.277 18.844 241.13 19.0803 241.072 19.3443L241.001 19.6095L239.129 26.4579C239.082 26.5102 239.016 26.5423 238.946 26.5473C238.902 26.5441 238.86 26.5299 238.824 26.506C238.787 26.4821 238.757 26.4494 238.737 26.4108L238.713 26.301L236.844 19.3835L236.814 19.2596C236.737 19.0201 236.585 18.8111 236.381 18.6628C236.177 18.5145 235.931 18.4345 235.678 18.4343H233.266C232.996 18.4333 232.734 18.5238 232.523 18.6909C232.312 18.858 232.164 19.0918 232.104 19.3537V19.4165L232.053 19.6252L230.348 26.4453C230.333 26.4717 230.313 26.4949 230.289 26.5135C230.265 26.532 230.237 26.5456 230.208 26.5534C230.179 26.5611 230.148 26.5629 230.118 26.5586C230.088 26.5544 230.059 26.5441 230.033 26.5285C229.999 26.5078 229.971 26.4792 229.951 26.4453L227.929 19.6189L227.831 19.3051C227.834 19.2848 227.834 19.2642 227.831 19.2439C227.75 19.01 227.598 18.8071 227.396 18.6634C227.194 18.5197 226.952 18.4424 226.704 18.4422H224.258C224.127 18.4494 224.002 18.4995 223.903 18.5846C223.804 18.6697 223.735 18.7851 223.709 18.9129C223.707 18.9374 223.707 18.9621 223.709 18.9866C223.709 19.1197 223.732 19.2518 223.776 19.3773L227.798 30.956C227.812 31.0005 227.83 31.0436 227.852 31.0847C227.94 31.2718 228.076 31.4323 228.246 31.55C228.416 31.6677 228.615 31.7383 228.822 31.7546H231.184C231.422 31.7364 231.649 31.6474 231.836 31.4992C232.023 31.3509 232.16 31.1502 232.231 30.9231L232.329 30.5873L234.182 23.9476C234.204 23.9189 234.231 23.8954 234.263 23.8785C234.294 23.8617 234.329 23.8521 234.365 23.8503C234.401 23.853 234.436 23.8633 234.468 23.8806C234.5 23.8979 234.528 23.9218 234.549 23.9507L236.675 30.7175C236.715 30.8458 236.763 30.9711 236.82 31.0925C236.908 31.2798 237.044 31.4406 237.214 31.5586C237.385 31.6765 237.583 31.7474 237.79 31.764H240.088C240.294 31.7483 240.493 31.6777 240.663 31.5596C240.833 31.4416 240.968 31.2803 241.055 31.0925C241.082 31.0423 241.163 30.8179 241.212 30.6673L244.992 19.4698C244.993 19.445 245 19.4208 245.012 19.3992" fill="#FF8000"/>
<path d="M270.594 18.8753C270.582 18.8426 270.572 18.809 270.565 18.7749C270.52 18.6755 270.449 18.59 270.359 18.5273C270.27 18.4647 270.165 18.4272 270.056 18.4188H267.694C267.473 18.4263 267.258 18.495 267.075 18.6172C266.891 18.7395 266.745 18.9103 266.653 19.1107C266.637 19.1452 266.624 19.1813 266.612 19.2173L266.596 19.2785C266.585 19.3105 266.576 19.3429 266.568 19.3758L266.498 19.6002L264.352 26.5945L264.322 26.6792C264.306 26.7412 264.269 26.7958 264.218 26.8338C264.166 26.8718 264.103 26.8909 264.039 26.8879C263.98 26.8896 263.922 26.873 263.873 26.8404C263.824 26.8078 263.787 26.7607 263.766 26.7059L261.212 19.597L261.182 19.506L261.01 19.0259C260.91 18.8446 260.764 18.6926 260.587 18.5849C260.41 18.4773 260.207 18.4178 259.999 18.4125H257.335C257.241 18.4301 257.153 18.4697 257.078 18.5282C257.003 18.5866 256.943 18.662 256.903 18.7482C256.89 18.7784 256.879 18.81 256.872 18.8424C256.854 18.944 256.861 19.0484 256.892 19.1467L261.973 31.4786C262.05 31.7372 262.035 32.0147 261.928 32.263V32.3007L261.836 32.5329C261.7 32.8671 261.569 33.1762 261.448 33.4382C261.337 33.6858 261.184 33.9129 260.996 34.1097C260.801 34.2983 260.564 34.4394 260.305 34.5223C259.96 34.6274 259.601 34.6761 259.24 34.6666H257.557C257.406 34.6706 257.262 34.7325 257.155 34.8394C257.048 34.9464 256.987 35.0901 256.984 35.2409V37.348C256.988 37.499 257.05 37.6428 257.157 37.7496C257.264 37.8564 257.408 37.9182 257.56 37.9222H259.815C260.577 37.9445 261.337 37.853 262.072 37.6508C262.599 37.4943 263.084 37.2201 263.489 36.849C263.873 36.475 264.185 36.0336 264.409 35.5468C264.651 35.0238 264.902 34.4287 265.16 33.7614L270.598 19.1169C270.613 19.0403 270.613 18.9613 270.598 18.8847" fill="#FF8000"/>
<path d="M270.059 29.0216C269.869 29.016 269.681 29.0515 269.506 29.1258C269.332 29.2 269.175 29.3111 269.048 29.4515C268.782 29.7182 268.632 30.0794 268.633 30.4558C268.634 30.8321 268.785 31.1926 269.053 31.4581C269.32 31.7236 269.683 31.8722 270.061 31.8713C270.438 31.8705 270.8 31.7201 271.067 31.4534L271.1 31.422C271.354 31.1567 271.496 30.8038 271.496 30.4367C271.496 30.0697 271.354 29.7168 271.1 29.4515C270.972 29.3118 270.816 29.2011 270.641 29.1269C270.467 29.0528 270.278 29.0168 270.089 29.0216" fill="#FF8000"/>
<path d="M294.281 19.9092C293.687 19.3324 292.981 18.8823 292.207 18.5866C290.515 17.9606 288.653 17.9606 286.961 18.5866C286.187 18.8814 285.481 19.3315 284.889 19.9092C284.309 20.4843 283.851 21.1693 283.541 21.9237C283.204 22.7082 283.043 24.2552 283.043 25.2185C283.031 26.2336 283.199 27.2429 283.541 28.1995C283.851 28.9644 284.316 29.6574 284.907 30.2349C285.498 30.8123 286.203 31.2619 286.977 31.5554C288.669 32.1815 290.53 32.1815 292.222 31.5554C293 31.2574 293.708 30.8041 294.303 30.2234C294.881 29.6475 295.339 28.9634 295.651 28.2105C295.991 27.2535 296.159 26.2445 296.148 25.2295C296.148 24.2693 295.98 22.7192 295.651 21.9347C295.339 21.1813 294.881 20.4967 294.303 19.9202L294.281 19.9092ZM293.64 27.3617C293.449 27.897 293.149 28.3873 292.759 28.8019C292.369 29.2125 291.901 29.5411 291.382 29.7684C290.23 30.2328 288.942 30.2328 287.791 29.7684C287.273 29.539 286.805 29.2107 286.413 28.8019C286.027 28.3854 285.729 27.8955 285.538 27.3617C285.325 26.6628 285.219 25.9361 285.223 25.2059C285.219 24.3726 285.325 23.5424 285.538 22.7364C285.725 22.2035 286.022 21.7152 286.409 21.3026C286.796 20.8899 287.265 20.5618 287.786 20.3391C288.936 19.8653 290.227 19.8653 291.377 20.3391C291.897 20.5637 292.366 20.8915 292.755 21.3024C293.145 21.7168 293.445 22.2072 293.635 22.7427C293.84 23.5498 293.94 24.3797 293.934 25.2122C293.941 25.9415 293.84 26.6678 293.635 27.3679" fill="#FF8000"/>
<path d="M274.974 21.3323C275.324 20.9073 275.77 20.5703 276.275 20.3486C276.846 20.1117 277.461 19.9973 278.079 20.0128C278.659 20.0018 279.234 20.1164 279.764 20.3486C280.158 20.5393 280.517 20.795 280.826 21.1048C280.932 21.198 281.068 21.2507 281.209 21.2536C281.35 21.2565 281.488 21.2093 281.598 21.1205L282.342 20.449C282.454 20.3477 282.522 20.208 282.533 20.0584C282.544 19.9088 282.497 19.7606 282.402 19.6441C281.896 19.1844 281.309 18.8226 280.67 18.5772C279.845 18.2604 278.967 18.1007 278.083 18.1066C277.198 18.0959 276.321 18.2613 275.502 18.5929C274.742 18.8973 274.054 19.3545 273.479 19.9359C272.914 20.5219 272.473 21.2157 272.183 21.9755C271.572 23.9949 271.572 26.1488 272.183 28.1681C272.471 28.9268 272.909 29.6203 273.47 30.2077C274.032 30.7959 274.716 31.2544 275.475 31.5508C277.13 32.1814 278.96 32.1814 280.615 31.5508C281.254 31.3013 281.837 30.928 282.33 30.4525C282.423 30.3412 282.471 30.1994 282.466 30.0545C282.46 29.9097 282.401 29.772 282.3 29.668L281.67 29.053C281.56 28.9529 281.416 28.8974 281.267 28.8974C281.118 28.8974 280.974 28.9529 280.864 29.053C280.505 29.4194 280.074 29.7066 279.597 29.8958C279.12 30.0851 278.608 30.1721 278.095 30.1513C277.508 30.1581 276.926 30.0376 276.39 29.7983C275.89 29.5664 275.447 29.2297 275.09 28.8114C274.726 28.3814 274.442 27.8899 274.251 27.3601C274.046 26.616 273.946 25.8473 273.952 25.0758C273.947 24.3061 274.035 23.5387 274.213 22.7898C274.372 22.2593 274.631 21.7636 274.976 21.3291" fill="#FF8000"/>
<path d="M315.651 21.1235C315.512 20.5327 315.243 19.9801 314.863 19.506C314.477 19.0536 313.981 18.707 313.422 18.4987C312.717 18.2426 311.968 18.1223 311.218 18.1441C310.403 18.1094 309.598 18.3235 308.909 18.7576C308.404 19.1137 307.964 19.5543 307.61 20.0598L307.548 20.1477L307.518 20.1916C307.499 20.2135 307.474 20.2307 307.447 20.2421C307.42 20.2535 307.39 20.2588 307.361 20.2575C307.322 20.2577 307.284 20.2472 307.251 20.2273C307.217 20.2074 307.19 20.1788 307.172 20.1445C307.172 20.121 307.134 20.0833 307.117 20.0473C307.057 19.9484 306.996 19.848 306.933 19.7335C306.747 19.4422 306.512 19.1853 306.238 18.9741C305.899 18.7185 305.523 18.5158 305.123 18.3732C304.122 18.0603 303.052 18.0429 302.041 18.323C301.626 18.442 301.228 18.6184 300.862 18.847C300.525 19.0491 300.219 19.2991 299.955 19.5891C299.868 19.6864 299.797 19.7837 299.715 19.8841L299.692 19.9108C299.685 19.9265 299.675 19.9405 299.662 19.9515C299.635 19.9788 299.601 19.9983 299.564 20.0079C299.527 20.0175 299.488 20.0168 299.451 20.006C299.415 19.9952 299.382 19.9747 299.356 19.9466C299.33 19.9184 299.312 19.8838 299.304 19.8464V18.9976C299.3 18.8484 299.238 18.7066 299.131 18.6013C299.025 18.496 298.883 18.4352 298.733 18.4312H297.994C297.842 18.4365 297.698 18.5002 297.592 18.609C297.486 18.7178 297.426 18.8633 297.426 19.0149V31.1334C297.428 31.2852 297.489 31.4303 297.596 31.5385C297.703 31.6466 297.848 31.7094 298 31.7139H298.887C299.042 31.7086 299.189 31.6437 299.297 31.5329C299.405 31.422 299.466 31.2738 299.467 31.1192V24.7086C299.461 24.0654 299.535 23.424 299.689 22.7992C299.817 22.2656 300.046 21.761 300.363 21.3118C300.668 20.8929 301.076 20.5582 301.547 20.3391C302.089 20.1022 302.676 19.9875 303.268 20.0033C304.108 20.0033 304.711 20.2863 305.077 20.8521C305.444 21.418 305.627 22.3803 305.627 23.739V31.1239C305.629 31.2775 305.69 31.4244 305.798 31.5338C305.906 31.6433 306.053 31.7067 306.207 31.7107H307.095C307.25 31.7055 307.397 31.6406 307.505 31.5297C307.613 31.4189 307.674 31.2706 307.674 31.1161V23.6182C307.667 23.1159 307.751 22.6166 307.925 22.1449C308.072 21.7256 308.301 21.3392 308.597 21.0074C308.88 20.6971 309.225 20.4478 309.608 20.2747C309.995 20.0998 310.416 20.0104 310.841 20.0127C311.347 19.9938 311.85 20.0927 312.31 20.3014C312.673 20.4755 312.988 20.7351 313.227 21.0576C313.456 21.3797 313.617 21.7448 313.699 22.1308C313.784 22.5338 313.827 22.9444 313.827 23.3561V31.1428C313.831 31.2946 313.893 31.4392 314.001 31.5466C314.109 31.6541 314.254 31.7162 314.406 31.7201H315.292C315.447 31.716 315.594 31.6518 315.702 31.541C315.811 31.4302 315.871 31.2817 315.871 31.1271V23.2526C315.881 22.5351 315.803 21.8192 315.64 21.1204" fill="#FF8000"/>
<path d="M52.0322 13.4358H47.0354C45.415 13.4358 45.415 13.4358 45.078 15.3185C44.741 17.2012 44.7394 17.2703 46.226 17.2703H49.196L47.5079 26.8894C47.1031 29.042 46.1583 30.5215 43.2559 31.397C42.5127 31.5978 42.3111 31.8676 42.3111 32.2034C42.3111 32.6082 42.4449 32.9439 42.7835 33.7504C43.2559 34.8941 43.5268 35.0965 43.9315 35.0965C44.3363 35.0965 45.0795 34.8941 45.3488 34.8282C49.4685 33.4821 51.1566 30.3207 51.8306 26.5537L53.7204 15.728C54.0574 13.4358 54.0574 13.4358 52.0322 13.4358Z" fill="#FF8000"/>
<path d="M68.98 13.4357C66.9548 13.4357 66.9548 13.4357 66.684 15.1161L65.199 23.8629C64.7942 26.4187 64.1187 27.8982 61.6211 27.8982C59.1896 27.8982 58.314 26.4187 58.7172 24.1327L60.1329 15.7891C60.5392 13.4357 60.4715 13.4357 58.3786 13.4357C56.3518 13.4357 56.2841 13.4357 56.0164 15.0502L54.5314 23.7907C53.6527 28.7689 56.7581 31.8629 61.1455 31.8629C66.0745 31.8629 68.5721 29.6428 69.3832 24.3963L70.8682 15.717C71.2052 13.431 71.0697 13.431 68.9784 13.431" fill="#FF8000"/>
<path d="M78.2303 27.7618C79.8523 27.6959 80.7294 26.9553 80.7294 26.2148C80.7294 25.2734 79.5814 24.9377 78.0287 24.4654C74.9894 23.5241 72.2209 22.4478 72.2209 19.2189C72.2209 15.3844 75.3957 13.2993 79.3783 13.2993C81.0664 13.2993 82.9577 13.3668 84.1735 13.5001C85.2538 13.6351 85.5231 13.9708 85.1861 15.6527C84.8491 17.3346 84.4428 17.4695 83.4979 17.4021C82.3499 17.3346 80.8649 17.2013 79.109 17.2013C77.0838 17.2013 76.476 17.9402 76.476 18.6133C76.476 19.4872 77.2854 19.9594 79.1767 20.496C82.6869 21.5048 84.9829 22.9169 84.9829 25.9449C84.9829 29.5095 82.3499 31.5931 78.0964 31.7296C76.0647 31.8009 74.0307 31.6885 72.0193 31.3938C70.6682 31.1914 70.602 31.1914 70.939 29.2413C71.276 27.4919 71.276 27.3585 72.5595 27.4919C75.0571 27.7602 76.6098 27.8277 78.2287 27.7602" fill="#FF8000"/>
<path d="M100.31 13.4358H88.8994C87.279 13.4358 87.279 13.4358 86.9419 15.386C86.6049 17.3362 86.6711 17.3362 88.09 17.3362H91.8033L89.7104 29.3762C89.3041 31.7296 89.3718 31.7296 91.4647 31.7296C93.4238 31.7296 93.4915 31.7296 93.7608 30.0477L95.9214 17.3393H99.5024C101.123 17.3393 101.123 17.3393 101.46 15.3891C101.797 13.4389 101.797 13.4358 100.31 13.4358Z" fill="#FF8000"/>
<path d="M120.433 17.2686C122.053 17.2686 122.053 17.2686 122.39 15.3169C122.727 13.3651 122.729 13.3667 121.242 13.3667H113.072C110.168 13.3667 110.238 13.3667 109.765 16.2582L107.671 28.4348C107.131 31.5962 107.198 31.5962 110.102 31.5962H118.069C119.757 31.5962 119.69 31.5962 120.028 29.7134C120.365 27.7617 120.365 27.7617 118.88 27.7617H111.992L112.532 24.2614H118.272C119.825 24.2614 119.825 24.2614 120.094 22.4446C120.365 20.5618 120.365 20.5618 118.272 20.5618H113.203L113.743 17.2671L120.433 17.2686Z" fill="#FF8000"/>
<path d="M129.075 23.7264L131.708 17.9401C131.911 17.4695 131.911 17.4695 132.248 17.4695C132.585 17.4695 132.587 17.4695 132.655 18.0076L133.464 23.7264H129.075ZM136.233 15.6526C135.828 13.3667 135.828 13.3667 132.587 13.3667C129.548 13.3667 129.615 13.3667 128.67 15.2494L121.85 29.4389C120.838 31.4581 121.041 31.6589 123.538 31.6589C125.497 31.6589 125.497 31.6589 126.307 29.8437L127.387 27.4212H134.001L134.34 29.8437C134.609 31.6589 134.677 31.6589 136.634 31.6589C138.862 31.6589 139.066 31.5256 138.661 29.3055L136.233 15.6526Z" fill="#FF8000"/>
<path d="M152.371 13.4358H140.892C139.272 13.4358 139.272 13.4358 138.933 15.386C138.595 17.3362 138.664 17.3362 140.081 17.3362H143.795L141.707 29.3762C141.302 31.7296 141.37 31.7296 143.462 31.7296C145.42 31.7296 145.488 31.7296 145.758 30.0477L147.919 17.3393H151.497C153.117 17.3393 153.117 17.3393 153.456 15.3891C153.861 13.4389 153.861 13.4389 152.376 13.4389" fill="#FF8000"/>
<path d="M35.5364 17.708C35.4246 17.4177 33.8766 14.5701 31.0042 10.9977C30.931 10.9114 30.885 10.8055 30.8719 10.6933C30.6983 8.61212 30.4092 6.54214 30.0057 4.49285C29.96 4.28723 29.8509 4.10103 29.6936 3.96035C29.5362 3.81967 29.3387 3.73156 29.1286 3.70838L26.1365 3.34909C26.1103 3.34676 26.084 3.34676 26.0578 3.34909C25.8907 3.34909 25.7305 3.41521 25.6124 3.53291C25.4942 3.6506 25.4279 3.81022 25.4279 3.97667V5.00903C25.4279 5.01901 25.4239 5.02859 25.4168 5.03565C25.4097 5.04272 25.4001 5.04668 25.3901 5.04668C25.3808 5.04688 25.3717 5.04351 25.3649 5.03727C23.4994 3.34784 21.485 1.82925 19.3461 0.499908C18.9086 0.208118 18.3938 0.0529769 17.8673 0.0543301C17.3409 0.0529769 16.826 0.208118 16.3886 0.499908C6.0801 6.84625 0.407734 17.1432 0.18884 17.708C0.124491 17.8437 0.0911003 17.9919 0.0910645 18.142C0.0910287 18.2921 0.124349 18.4403 0.188633 18.5761C0.252917 18.7118 0.346569 18.8317 0.462867 18.9271C0.579164 19.0225 0.715222 19.0911 0.861271 19.1279L3.82973 19.6974C4.02597 19.7511 4.20154 19.8621 4.33377 20.0162C4.46599 20.1703 4.54879 20.3604 4.57146 20.5619C4.59508 21.0843 5.15728 32.7462 5.8612 35.7711C5.91917 35.9884 6.04756 36.1805 6.22641 36.3175C6.40525 36.4545 6.62454 36.5289 6.85016 36.5289H6.87221C8.60447 36.485 10.1903 36.4568 11.9115 36.4332H12.0532C12.1414 36.4324 12.2257 36.397 12.2878 36.3348C12.35 36.2726 12.3851 36.1884 12.3855 36.1006V36.0928C12.3147 35.0745 12.1651 32.7462 12.0438 30.2877C12.0438 30.2265 12.0359 30.1496 12.0328 30.0869C12.0247 29.9863 11.9925 29.8892 11.9387 29.8037C11.885 29.7183 11.8114 29.6469 11.7241 29.5958C11.2719 29.3271 10.8932 28.9514 10.6215 28.5021C10.3498 28.0527 10.1936 27.5435 10.1667 27.0196C10.0092 22.931 9.93201 18.2038 10.1556 14.5058C10.1588 14.3481 10.2246 14.1981 10.3388 14.0888C10.4529 13.9795 10.606 13.9198 10.7643 13.9229C10.9226 13.9261 11.0731 13.9917 11.1829 14.1054C11.2926 14.2191 11.3524 14.3716 11.3493 14.5293V14.5764C11.2029 17.0412 11.1918 19.9563 11.2422 22.8321C11.2439 22.9248 11.2639 23.0163 11.301 23.1014C11.3381 23.1864 11.3917 23.2633 11.4587 23.3277C11.5257 23.3921 11.6047 23.4427 11.6913 23.4767C11.7779 23.5106 11.8704 23.5272 11.9635 23.5256C12.0565 23.524 12.1484 23.5041 12.2337 23.4671C12.3191 23.43 12.3962 23.3767 12.4609 23.3099C12.5255 23.2432 12.5763 23.1645 12.6104 23.0782C12.6445 22.9919 12.6612 22.8997 12.6595 22.807C12.606 19.9123 12.6217 16.9784 12.7713 14.5058C12.7729 14.4277 12.7899 14.3507 12.8213 14.2791C12.8527 14.2076 12.898 14.1429 12.9545 14.0888C13.011 14.0346 13.0777 13.9921 13.1507 13.9637C13.2237 13.9352 13.3016 13.9214 13.38 13.9229C13.4584 13.9245 13.5357 13.9414 13.6075 13.9727C13.6793 14.004 13.7442 14.0491 13.7986 14.1054C13.8529 14.1617 13.8956 14.2281 13.9241 14.3009C13.9527 14.3736 13.9666 14.4512 13.965 14.5293C13.965 14.545 13.965 14.5607 13.965 14.5764C13.8201 17.0286 13.8075 19.9265 13.8579 22.7866C13.8609 22.9739 13.9383 23.1523 14.0733 23.2826C14.2083 23.413 14.3897 23.4846 14.5776 23.4817C14.7656 23.4788 14.9446 23.4016 15.0755 23.2671C15.2063 23.1326 15.2782 22.9519 15.2752 22.7647C15.2217 19.8825 15.2374 16.9596 15.3871 14.5042C15.3886 14.4261 15.4056 14.3491 15.437 14.2776C15.4684 14.206 15.5137 14.1413 15.5702 14.0872C15.6267 14.0331 15.6934 13.9906 15.7664 13.9621C15.8394 13.9337 15.9173 13.9198 15.9957 13.9214C16.0741 13.9229 16.1514 13.9398 16.2232 13.9711C16.295 14.0024 16.36 14.0475 16.4143 14.1038C16.4686 14.1602 16.5113 14.2266 16.5398 14.2993C16.5684 14.372 16.5823 14.4497 16.5807 14.5278C16.5807 14.5434 16.5807 14.5591 16.5807 14.5748C16.3681 18.1708 16.4374 22.7207 16.5807 26.7137C16.5807 26.7137 16.5807 26.7482 16.5807 26.7513C16.5807 26.7545 16.5807 26.7921 16.5807 26.8125V26.8517C16.5812 27.3697 16.4549 27.88 16.2129 28.3385C15.9709 28.7969 15.6204 29.1897 15.1918 29.4828C15.1157 29.5353 15.0524 29.6041 15.0066 29.6842C14.9608 29.7644 14.9337 29.8537 14.9272 29.9457C14.9272 29.9457 14.8548 30.5591 15.1256 33.5291C15.2532 34.8266 15.3493 35.7256 15.3949 36.132C15.4049 36.208 15.4425 36.2777 15.5005 36.3279C15.5585 36.3782 15.633 36.4056 15.7099 36.405H15.9855C16.5571 36.405 17.1477 36.405 17.7602 36.405H17.9902H20.2138L21.8972 36.4191C21.9746 36.4197 22.0495 36.3918 22.1075 36.3409C22.1656 36.29 22.2029 36.2195 22.2122 36.143C22.6027 32.5831 22.694 30.5827 22.694 30.5827C22.6919 30.4974 22.6588 30.4157 22.6009 30.3528C22.543 30.2899 22.4642 30.2501 22.3791 30.2406L20.3319 29.9598C20.1958 29.9432 20.0677 29.887 19.9635 29.7983C19.8593 29.7095 19.7837 29.5922 19.746 29.4609C19.7204 29.3584 19.7119 29.2524 19.7209 29.1471C20.5382 17.275 24.4641 13.2789 24.4641 13.2789C24.5223 13.2205 24.5861 13.1679 24.6546 13.122C24.7325 13.0658 24.8223 13.0281 24.917 13.0119C25.0118 12.9956 25.1091 13.0011 25.2013 13.0281C25.2936 13.055 25.3785 13.1027 25.4494 13.1674C25.5203 13.2321 25.5754 13.3121 25.6105 13.4013C25.6385 13.4941 25.6554 13.59 25.6609 13.6868C25.9995 17.4162 25.8342 23.7641 25.6247 28.7156C25.4468 32.9188 25.231 36.2183 25.231 36.2183C25.231 36.2832 25.2569 36.3454 25.303 36.3913C25.349 36.4372 25.4115 36.463 25.4767 36.463C26.5916 36.4819 27.6814 36.5038 28.853 36.5336H28.8751C29.1007 36.5336 29.32 36.4592 29.4988 36.3222C29.6777 36.1852 29.806 35.9931 29.864 35.7758C30.5679 32.7509 31.1238 21.089 31.1538 20.5666C31.176 20.365 31.2587 20.1747 31.391 20.0205C31.5232 19.8663 31.699 19.7554 31.8955 19.7021L34.8639 19.1326C35.01 19.0958 35.1461 19.0272 35.2624 18.9318C35.3787 18.8364 35.4723 18.7165 35.5366 18.5808C35.6009 18.445 35.6342 18.2968 35.6342 18.1467C35.6341 17.9966 35.6007 17.8484 35.5364 17.7127V17.708Z" fill="#FF8000"/>
</svg>
