<svg width="62" height="42" viewBox="0 0 62 42" fill="none" xmlns="http://www.w3.org/2000/svg">
<path d="M6.64419 33.4188V32.4489C6.64035 32.3914 6.61556 32.3373 6.57458 32.2972C6.53361 32.257 6.47935 32.2336 6.42229 32.2314H1.21685C1.15828 32.2334 1.10263 32.2578 1.06119 32.2996C1.01975 32.3415 0.995606 32.3977 0.993652 32.4568V33.4109C0.995566 33.4696 1.01934 33.5255 1.06024 33.5672C1.10113 33.609 1.15613 33.6337 1.21424 33.6363H2.9111C2.94079 33.6379 2.9688 33.6507 2.98958 33.6722C3.01037 33.6937 3.02242 33.7223 3.02335 33.7523V39.2109C3.02331 39.2705 3.04611 39.3278 3.08699 39.3708C3.12788 39.4138 3.18366 39.4391 3.24264 39.4415H4.37953C4.43671 39.4392 4.49089 39.415 4.53111 39.3739C4.57133 39.3328 4.5946 39.2778 4.59621 39.2201V33.722C4.6026 33.6971 4.6167 33.6751 4.63643 33.6589C4.65616 33.6428 4.68049 33.6335 4.70585 33.6323H6.41576C6.47246 33.6298 6.52624 33.6062 6.56673 33.5661C6.60722 33.5259 6.63156 33.4721 6.63505 33.4149" fill="white"/>
<path d="M9.5432 34.7366C9.36276 34.5126 9.12546 34.3422 8.85662 34.2437C8.50508 34.1213 8.1345 34.0642 7.7628 34.075C7.36295 34.0745 6.96585 34.1418 6.58805 34.274C6.29085 34.3769 6.0132 34.5302 5.76704 34.7274C5.72691 34.7716 5.70532 34.8298 5.70678 34.8897C5.70824 34.9497 5.73264 35.0068 5.77487 35.0489L6.24607 35.5379C6.28938 35.5815 6.34806 35.606 6.40923 35.606C6.4704 35.606 6.52908 35.5815 6.57239 35.5379C6.68829 35.434 6.8168 35.3454 6.95484 35.2743C7.16628 35.1676 7.39985 35.1134 7.63619 35.1161C7.88421 35.1125 8.12553 35.1974 8.31754 35.356C8.49506 35.5049 8.59035 35.7711 8.60471 36.1981C8.59991 36.2256 8.58586 36.2506 8.56493 36.2688C8.544 36.2871 8.51748 36.2975 8.48984 36.2983C8.31363 36.2983 8.12436 36.2983 7.92466 36.3088C7.6779 36.3151 7.43169 36.3354 7.18718 36.3694C6.94668 36.4023 6.70922 36.4547 6.47711 36.5263C6.25894 36.5929 6.05272 36.6944 5.86624 36.8267C5.68915 36.9542 5.54391 37.1216 5.44202 37.3157C5.33135 37.54 5.27754 37.7886 5.28539 38.0392C5.28025 38.2671 5.32902 38.493 5.42766 38.6981C5.51773 38.885 5.64846 39.049 5.81011 39.1778C5.97666 39.3097 6.16676 39.4082 6.37007 39.4677C6.58177 39.5321 6.80163 39.5649 7.02271 39.5652C7.32573 39.5664 7.626 39.5073 7.90638 39.3913C8.12318 39.3026 8.3144 39.1603 8.46243 38.9775H8.48854C8.50393 38.9701 8.52118 38.9677 8.53798 38.9705C8.55477 38.9734 8.57031 38.9813 8.58252 38.9933C8.59787 39.0083 8.60717 39.0285 8.60862 39.05V39.2292C8.61053 39.2872 8.63404 39.3423 8.67444 39.3836C8.71484 39.4249 8.76918 39.4493 8.8266 39.4519H9.78076C9.83883 39.4499 9.89389 39.4253 9.93449 39.3834C9.97509 39.3414 9.9981 39.2852 9.99874 39.2266V36.9387C10.0031 36.4737 9.96952 36.0091 9.89823 35.5497C9.84149 35.2617 9.71904 34.9909 9.54059 34.759L9.5432 34.7366ZM8.61515 37.6016C8.61811 37.7435 8.58485 37.8837 8.51856 38.0089C8.45479 38.1234 8.3654 38.2213 8.2575 38.2948C8.14427 38.371 8.02013 38.4293 7.88941 38.4675C7.74987 38.5084 7.6053 38.5292 7.45998 38.5294C7.28941 38.5297 7.12184 38.4842 6.97442 38.3976C6.90137 38.3592 6.84078 38.3004 6.79983 38.2282C6.75888 38.156 6.73929 38.0735 6.74338 37.9904C6.73985 37.916 6.75305 37.8418 6.78198 37.7734C6.81092 37.7049 6.85484 37.6439 6.91046 37.595C7.02864 37.4962 7.16604 37.4235 7.31379 37.3815C7.4744 37.3335 7.63996 37.3044 7.80718 37.2946C7.98209 37.284 8.12567 37.2788 8.23531 37.2788H8.49637C8.52539 37.2816 8.55244 37.2948 8.57258 37.3161C8.59271 37.3374 8.60458 37.3653 8.60601 37.3947L8.61515 37.6016Z" fill="white"/>
<path d="M24.6087 34.7366C24.4291 34.5123 24.1921 34.3419 23.9234 34.2437C23.5715 34.1213 23.2004 34.0641 22.8283 34.075C22.4285 34.0747 22.0314 34.1419 21.6536 34.274C21.3569 34.3773 21.0797 34.5306 20.8338 34.7274C20.7927 34.7706 20.7697 34.8282 20.7697 34.8882C20.7697 34.9481 20.7927 35.0057 20.8338 35.049L21.305 35.5379C21.3486 35.5816 21.4075 35.6061 21.4689 35.6061C21.5302 35.6061 21.5891 35.5816 21.6327 35.5379C21.7486 35.434 21.8771 35.3454 22.0151 35.2743C22.2271 35.1678 22.461 35.1136 22.6978 35.1162C22.9455 35.1121 23.1865 35.1972 23.3778 35.356C23.5553 35.5049 23.6519 35.7711 23.665 36.1981C23.6604 36.2257 23.6464 36.2509 23.6255 36.2691C23.6045 36.2874 23.5778 36.2977 23.5501 36.2983C23.3739 36.2983 23.1846 36.2983 22.9849 36.3088C22.7386 36.3152 22.4928 36.3354 22.2488 36.3695C22.0079 36.4024 21.77 36.4549 21.5374 36.5263C21.3194 36.5935 21.1133 36.6949 20.9265 36.8268C20.7502 36.9547 20.6054 37.122 20.5036 37.3157C20.3925 37.54 20.3383 37.7885 20.3457 38.0392C20.3418 38.267 20.3905 38.4926 20.4879 38.6981C20.578 38.8851 20.7087 39.049 20.8704 39.1778C21.0374 39.3098 21.2279 39.4082 21.4317 39.4678C21.9396 39.6196 22.4837 39.5927 22.9745 39.3913C23.1915 39.303 23.3828 39.1606 23.5305 38.9775H23.5449C23.5573 38.971 23.5712 38.9678 23.5852 38.9682C23.5993 38.9686 23.6129 38.9727 23.625 38.9799C23.637 38.9872 23.647 38.9975 23.654 39.0097C23.661 39.022 23.6648 39.0358 23.665 39.05V39.2292C23.6669 39.2872 23.6904 39.3424 23.7308 39.3836C23.7712 39.4249 23.8255 39.4493 23.883 39.4519H24.8371C24.8953 39.4499 24.9505 39.4254 24.9913 39.3835C25.0321 39.3415 25.0554 39.2854 25.0564 39.2266V36.9388C25.0602 36.4738 25.0265 36.0092 24.9559 35.5497C24.8987 35.2616 24.7758 34.9909 24.5969 34.759L24.6087 34.7366ZM23.6663 37.6017C23.6691 37.7433 23.6363 37.8834 23.571 38.0089C23.5078 38.1239 23.4183 38.2219 23.3099 38.2949C23.1995 38.3698 23.0785 38.4275 22.951 38.4662C22.8122 38.5084 22.6678 38.5293 22.5229 38.5281C22.3523 38.5284 22.1847 38.4829 22.0373 38.3963C21.9642 38.358 21.9035 38.2992 21.8625 38.227C21.8215 38.1548 21.802 38.0722 21.8063 37.9891C21.8022 37.9148 21.815 37.8405 21.8437 37.772C21.8725 37.7035 21.9164 37.6425 21.972 37.5937C22.0904 37.4952 22.2277 37.4225 22.3754 37.3803C22.5369 37.3322 22.7033 37.3031 22.8714 37.2933C23.045 37.2827 23.1886 37.2775 23.2995 37.2775H23.5606C23.59 37.2791 23.6177 37.292 23.6381 37.3136C23.6584 37.3351 23.6699 37.3637 23.6702 37.3934L23.6663 37.6017Z" fill="white"/>
<path d="M37.6119 34.7367C37.4314 34.5127 37.1941 34.3424 36.9253 34.2439C36.5739 34.1208 36.2032 34.0637 35.8315 34.0752C35.4316 34.0745 35.0345 34.1418 34.6567 34.2742C34.3587 34.3771 34.0802 34.5304 33.8331 34.7275C33.7933 34.7719 33.7719 34.83 33.7733 34.8899C33.7748 34.9497 33.799 35.0067 33.8409 35.0491L34.3134 35.538C34.357 35.5817 34.4159 35.6062 34.4772 35.6062C34.5386 35.6062 34.5975 35.5817 34.6411 35.538C34.7574 35.434 34.8863 35.3455 35.0248 35.2744C35.2358 35.1679 35.4689 35.1137 35.7049 35.1163C35.9524 35.1131 36.1932 35.198 36.3849 35.3561C36.5637 35.5051 36.6577 35.7713 36.6721 36.1983C36.668 36.2261 36.6542 36.2515 36.6331 36.2699C36.612 36.2883 36.5851 36.2984 36.5572 36.2984C36.381 36.2984 36.193 36.2984 35.992 36.309C35.7457 36.3154 35.4999 36.3356 35.2558 36.3696C35.015 36.4027 34.7771 36.4551 34.5445 36.5264C34.3268 36.5934 34.1211 36.6948 33.9349 36.8269C33.7578 36.9544 33.6126 37.1218 33.5107 37.3158C33.4 37.5402 33.3462 37.7888 33.3541 38.0393C33.3491 38.2671 33.3974 38.4928 33.495 38.6983C33.5855 38.8853 33.7167 39.0493 33.8788 39.178C34.045 39.3096 34.2346 39.408 34.4374 39.4679C34.9459 39.6197 35.4903 39.5928 35.9816 39.3914C36.199 39.3032 36.3907 39.1608 36.5389 38.9776H36.5533C36.5687 38.9703 36.5859 38.9679 36.6027 38.9707C36.6195 38.9735 36.6351 38.9815 36.6473 38.9935C36.6547 39.0008 36.6606 39.0097 36.6647 39.0194C36.6687 39.0291 36.6708 39.0396 36.6708 39.0501V39.2293C36.6733 39.2876 36.6974 39.3428 36.7382 39.384C36.779 39.4252 36.8337 39.4495 36.8913 39.4521H37.8429C37.9014 39.4504 37.9571 39.4261 37.9984 39.3841C38.0397 39.3422 38.0635 39.2858 38.0648 39.2267V36.9389C38.0688 36.4738 38.0347 36.0093 37.963 35.5499C37.9057 35.262 37.7833 34.9914 37.6053 34.7592L37.6119 34.7367ZM36.6825 37.5978C36.6864 37.7395 36.654 37.8797 36.5885 38.0051C36.525 38.1198 36.4356 38.2178 36.3275 38.291C36.2142 38.3672 36.0901 38.4255 35.9594 38.4637C35.8206 38.506 35.6762 38.5269 35.5312 38.5256C35.3611 38.5261 35.1939 38.4806 35.047 38.3938C34.9736 38.3557 34.9126 38.297 34.8714 38.2248C34.8302 38.1525 34.8105 38.0698 34.8147 37.9866C34.8112 37.9124 34.8242 37.8383 34.8529 37.7699C34.8816 37.7014 34.9252 37.6404 34.9804 37.5912C35.0991 37.4924 35.2369 37.4196 35.3851 37.3777C35.5461 37.3296 35.7121 37.3004 35.8798 37.2908C36.0494 37.2802 36.1943 37.275 36.3066 37.275H36.5676C36.5966 37.2773 36.6237 37.2905 36.6435 37.3119C36.6633 37.3334 36.6744 37.3616 36.6747 37.3909L36.6825 37.5978Z" fill="white"/>
<path d="M19.6565 34.7829C19.4567 34.554 19.2081 34.3738 18.9295 34.2558C18.6273 34.132 18.304 34.0697 17.9779 34.0726C17.6151 34.0713 17.2547 34.1332 16.9128 34.2558C16.592 34.3724 16.2971 34.5515 16.0448 34.7829C15.798 35.0137 15.6008 35.2932 15.4653 35.604C15.1822 36.3897 15.1822 37.251 15.4653 38.0367C15.6 38.3476 15.7974 38.6268 16.0448 38.8565C16.2959 39.0895 16.5912 39.2689 16.9128 39.3836C17.2541 39.5086 17.6148 39.571 17.9779 39.5681C18.375 39.5676 18.7673 39.4804 19.1279 39.3124C19.4097 39.1864 19.6653 39.0076 19.881 38.7853C19.9199 38.7425 19.9415 38.6865 19.9415 38.6285C19.9415 38.5704 19.9199 38.5144 19.881 38.4716L19.1918 37.9616L19.1422 37.926C19.0984 37.9009 19.0477 37.8909 18.9977 37.8975C18.9478 37.9042 18.9013 37.9272 18.8655 37.9629C18.7689 38.0708 18.6593 38.166 18.5392 38.2463C18.3498 38.3621 18.1313 38.4202 17.91 38.4137C17.6373 38.4205 17.3714 38.3268 17.1621 38.1501C16.9313 37.9135 16.7923 37.6011 16.7705 37.2697C16.7708 37.2427 16.7805 37.2167 16.7979 37.1962C16.8154 37.1757 16.8394 37.1621 16.8658 37.1577H20.0585C20.1172 37.1544 20.1723 37.1284 20.2126 37.0853C20.2529 37.0422 20.2753 36.9851 20.2752 36.9258V36.6741C20.2808 36.3108 20.2266 35.9492 20.1146 35.604C20.0194 35.3005 19.8655 35.0192 19.6617 34.7763L19.6565 34.7829ZM18.6514 36.0942H16.8932C16.8639 36.0939 16.8359 36.0825 16.8146 36.0622C16.7933 36.042 16.7803 36.0143 16.7784 35.9848C16.7926 35.9011 16.8176 35.8196 16.8528 35.7423C16.9028 35.6309 16.9747 35.5309 17.0642 35.4485C17.16 35.3592 17.271 35.2882 17.3918 35.2389C17.5329 35.1821 17.6838 35.1548 17.8356 35.1585C17.9609 35.1533 18.0859 35.1751 18.2022 35.2223C18.3186 35.2696 18.4236 35.3413 18.5105 35.4326C18.6564 35.5807 18.7453 35.7765 18.7611 35.9848C18.7591 36.0143 18.7462 36.042 18.7249 36.0622C18.7036 36.0825 18.6755 36.0939 18.6462 36.0942" fill="white"/>
<path d="M13.8506 36.8927L13.8167 36.8453C13.7955 36.8097 13.7843 36.7689 13.7843 36.7274C13.7843 36.6858 13.7955 36.645 13.8167 36.6094L15.5814 34.3809C15.6003 34.358 15.6097 34.3287 15.6077 34.2991C15.6058 34.2694 15.5926 34.2416 15.571 34.2214C15.5499 34.2043 15.5236 34.1949 15.4966 34.1951H14.1012C14.0302 34.1949 13.96 34.2112 13.8962 34.2427C13.8324 34.2742 13.7766 34.3202 13.7331 34.3769L13.6574 34.4758L12.2999 36.2378L12.2817 36.2589L12.2712 36.2694H12.2738C12.2584 36.2764 12.2412 36.2786 12.2245 36.2758C12.2078 36.273 12.1922 36.2653 12.1799 36.2536C12.1681 36.2416 12.1599 36.2266 12.1564 36.2101V31.9613C12.1539 31.9046 12.1309 31.8508 12.0916 31.8102C12.0524 31.7696 11.9997 31.745 11.9436 31.7412H10.8511C10.7944 31.7457 10.7414 31.7709 10.7019 31.8122C10.6625 31.8535 10.6394 31.9079 10.637 31.9652V39.2201C10.6396 39.278 10.6635 39.3328 10.7041 39.3738C10.7447 39.4148 10.799 39.4389 10.8563 39.4415H11.9319C11.9884 39.439 12.042 39.4153 12.0823 39.3752C12.1226 39.335 12.1467 39.2811 12.1498 39.224V37.1695C12.1537 37.1535 12.1618 37.1389 12.1733 37.1273C12.1853 37.115 12.2009 37.1068 12.2178 37.104C12.2347 37.1011 12.252 37.1038 12.2673 37.1115H12.2738C12.278 37.1143 12.2815 37.1179 12.2843 37.1221V37.1286L12.3117 37.1603L13.6313 39.1621L13.707 39.2596C13.7498 39.3151 13.8044 39.3602 13.8667 39.3914C13.9291 39.4227 13.9977 39.4393 14.0673 39.4402H15.537C15.5532 39.4379 15.5683 39.4305 15.5801 39.4191C15.5978 39.4028 15.6097 39.3811 15.6142 39.3574C15.6187 39.3336 15.6154 39.309 15.6049 39.2873L13.8506 36.8927Z" fill="white"/>
<path d="M33.4363 34.5668C33.4547 34.5176 33.4636 34.4652 33.4624 34.4126C33.4637 34.4034 33.4637 34.3941 33.4624 34.3849C33.4521 34.3348 33.4256 34.2895 33.3871 34.2561C33.3486 34.2227 33.3003 34.2032 33.2496 34.2004H32.3855C32.2802 34.2004 32.1779 34.2367 32.0958 34.3033C32.0136 34.3699 31.9565 34.4629 31.9339 34.5668L31.9065 34.6709L31.1782 37.3686C31.1595 37.3885 31.1346 37.4011 31.1077 37.4042C31.0906 37.4028 31.0741 37.3971 31.0598 37.3877C31.0454 37.3782 31.0336 37.3653 31.0254 37.3501L31.0137 37.3066L30.2867 34.5813L30.2749 34.5325C30.245 34.4381 30.1862 34.3556 30.1069 34.2971C30.0276 34.2386 29.9319 34.2071 29.8337 34.207H28.8952C28.7905 34.2072 28.6889 34.2431 28.607 34.3089C28.525 34.3747 28.4674 34.4665 28.4436 34.5694V34.5945L28.424 34.6762L27.7609 37.3646C27.7551 37.3747 27.7474 37.3835 27.7382 37.3906C27.7291 37.3976 27.7186 37.4027 27.7074 37.4057C27.6963 37.4086 27.6846 37.4093 27.6732 37.4077C27.6618 37.4061 27.6508 37.4022 27.6409 37.3963C27.628 37.3885 27.6172 37.3776 27.6095 37.3646L26.8264 34.6736L26.7872 34.5497C26.7885 34.5418 26.7885 34.5338 26.7872 34.526C26.7561 34.4335 26.697 34.3533 26.6183 34.2966C26.5396 34.2398 26.4453 34.2094 26.3486 34.2097H25.3984C25.3476 34.2125 25.2992 34.2321 25.2605 34.2655C25.2219 34.2988 25.1951 34.344 25.1843 34.3942V34.4232C25.1845 34.4757 25.1933 34.5278 25.2104 34.5773L26.7768 39.1411C26.7828 39.1584 26.7902 39.1751 26.799 39.1912C26.833 39.265 26.8859 39.3283 26.9522 39.3746C27.0185 39.4209 27.0958 39.4486 27.1762 39.4548H28.0899C28.1824 39.4479 28.2707 39.413 28.3434 39.3547C28.416 39.2964 28.4696 39.2174 28.4971 39.1279L28.535 38.9961L29.2568 36.3828C29.2646 36.3709 29.2753 36.3611 29.2878 36.3543C29.3004 36.3475 29.3144 36.3439 29.3286 36.3439C29.3428 36.3439 29.3568 36.3475 29.3693 36.3543C29.3818 36.3611 29.3925 36.3709 29.4004 36.3828L30.2266 39.0489C30.242 39.0997 30.2608 39.1495 30.2827 39.1978C30.3171 39.2713 30.3701 39.3344 30.4363 39.3807C30.5025 39.4269 30.5797 39.4548 30.66 39.4614H31.5541C31.6343 39.4552 31.7115 39.4275 31.7776 39.3812C31.8436 39.3349 31.8963 39.2715 31.93 39.1978C31.9404 39.178 31.9718 39.0884 31.9913 39.0291L33.4585 34.6169C33.4588 34.6072 33.4615 34.5977 33.4663 34.5892" fill="white"/>
<path d="M43.4138 34.3808C43.4085 34.3681 43.4046 34.3549 43.4021 34.3413C43.3846 34.3023 43.3571 34.2688 43.3225 34.2442C43.2878 34.2196 43.2472 34.2049 43.205 34.2016H42.2913C42.2053 34.2043 42.1218 34.2313 42.0503 34.2795C41.9787 34.3277 41.922 34.3953 41.8866 34.4744C41.8801 34.4879 41.8748 34.502 41.871 34.5166L41.8645 34.5403C41.8596 34.5526 41.8561 34.5654 41.854 34.5785L41.8266 34.6668L40.9899 37.4238L40.9782 37.4567C40.9721 37.4811 40.9579 37.5026 40.9379 37.5175C40.9179 37.5324 40.8934 37.5398 40.8685 37.5384C40.8458 37.5391 40.8234 37.5327 40.8044 37.5199C40.7855 37.5071 40.7709 37.4888 40.7628 37.4673L39.7695 34.6655L39.7577 34.6299L39.6912 34.4415C39.6525 34.3701 39.596 34.3101 39.5273 34.2676C39.4586 34.2251 39.3801 34.2014 39.2996 34.199H38.2632C38.2268 34.2059 38.1925 34.2215 38.1633 34.2444C38.134 34.2673 38.1105 34.2969 38.0948 34.3308C38.0897 34.3426 38.0858 34.355 38.0831 34.3677C38.0763 34.4081 38.079 34.4497 38.0909 34.4889L40.0658 39.3452C40.0949 39.447 40.0889 39.5557 40.0488 39.6536V39.6681L40.0123 39.759C39.9587 39.8908 39.9078 40.0134 39.8608 40.1162C39.8177 40.2134 39.7586 40.3025 39.6859 40.3798C39.6098 40.4538 39.5178 40.5093 39.4171 40.5419C39.2831 40.5835 39.1434 40.6031 39.0033 40.5998H38.3506C38.2919 40.6012 38.2359 40.6254 38.1943 40.6673C38.1527 40.7093 38.1288 40.7658 38.1274 40.8252V41.6568C38.1291 41.7162 38.1533 41.7728 38.1951 41.8147C38.2369 41.8567 38.293 41.8808 38.3519 41.8821H39.2278C39.5242 41.8909 39.8203 41.8549 40.1062 41.7754C40.3109 41.7136 40.4989 41.6054 40.6558 41.4591C40.8055 41.3121 40.9267 41.1382 41.0134 40.9464C41.1087 40.7408 41.2053 40.5063 41.3058 40.2427L43.4203 34.4718C43.4269 34.4414 43.4269 34.4099 43.4203 34.3795" fill="white"/>
<path d="M43.2089 38.3793C43.1354 38.3776 43.0624 38.3919 42.9948 38.4213C42.9272 38.4506 42.8667 38.4943 42.8173 38.5493C42.7233 38.6561 42.6733 38.795 42.6775 38.9378C42.6816 39.0806 42.7397 39.2164 42.8397 39.3174C42.9398 39.4184 43.0743 39.477 43.2157 39.4812C43.3571 39.4854 43.4948 39.4349 43.6005 39.34C43.6045 39.3353 43.6089 39.3309 43.6136 39.3268C43.7129 39.2225 43.7683 39.0834 43.7683 38.9387C43.7683 38.794 43.7129 38.6549 43.6136 38.5506C43.5642 38.4955 43.5037 38.4518 43.4361 38.4225C43.3686 38.3931 43.2955 38.3789 43.222 38.3806" fill="white"/>
<path d="M52.6251 34.7882C52.3939 34.5613 52.1195 34.3842 51.8185 34.2676C51.1603 34.0211 50.4365 34.0211 49.7783 34.2676C49.4783 34.3824 49.2052 34.5587 48.9763 34.7856C48.7473 35.0124 48.5675 35.2848 48.4483 35.5855C48.3177 35.8939 48.2551 36.508 48.2551 36.8823C48.2505 37.2821 48.3159 37.6796 48.4483 38.0565C48.5694 38.3571 48.7506 38.6293 48.9806 38.856C49.2106 39.0828 49.4843 39.2592 49.7849 39.3744C50.4428 39.6222 51.1671 39.6222 51.825 39.3744C52.126 39.2583 52.4004 39.0816 52.6317 38.8551C52.8555 38.6288 53.0329 38.3601 53.1538 38.0644C53.2866 37.6876 53.3524 37.2901 53.3483 36.8902C53.3483 36.512 53.283 35.9018 53.1538 35.5934C53.0323 35.2981 52.855 35.0295 52.6317 34.8027L52.6251 34.7882ZM52.3706 37.7363C52.2963 37.9468 52.1799 38.1397 52.0286 38.3029C51.8774 38.4649 51.6954 38.5944 51.4935 38.6838C51.0456 38.867 50.5447 38.867 50.0968 38.6838C49.8938 38.5955 49.7111 38.4657 49.5601 38.3026C49.4092 38.1396 49.2933 37.9467 49.2197 37.7363C49.1385 37.4604 49.0985 37.174 49.1009 36.8862C49.0986 36.5582 49.1385 36.2313 49.2197 35.9136C49.293 35.7031 49.4089 35.5101 49.5599 35.347C49.7108 35.1839 49.8937 35.0542 50.0968 34.9661C50.544 34.7794 51.0463 34.7794 51.4935 34.9661C51.6965 35.0544 51.8792 35.1842 52.0302 35.3473C52.1811 35.5103 52.297 35.7032 52.3706 35.9136C52.4501 36.2316 52.4896 36.5583 52.4881 36.8862C52.4895 37.1738 52.45 37.4601 52.3706 37.7363Z" fill="white"/>
<path d="M45.1172 35.3496C45.2531 35.1822 45.4262 35.0494 45.6224 34.9622C45.8446 34.8688 46.0839 34.8239 46.3246 34.8304C46.5491 34.8254 46.7719 34.8704 46.9772 34.9622C47.1304 35.0372 47.2698 35.1379 47.3897 35.26C47.4309 35.2968 47.4836 35.3176 47.5386 35.3188C47.5936 35.32 47.6472 35.3015 47.6899 35.2666L47.9797 35.003C48.0225 34.9628 48.0486 34.9077 48.053 34.8489C48.0573 34.79 48.0396 34.7316 48.0032 34.6854C47.8063 34.5045 47.5779 34.3619 47.3297 34.265C47.0087 34.1395 46.6674 34.0755 46.3233 34.0766C45.9794 34.073 45.6382 34.1384 45.3195 34.269C45.0257 34.3891 44.7592 34.5684 44.5364 34.7961C44.3169 35.0274 44.1455 35.3007 44.0325 35.6C43.795 36.3954 43.795 37.2439 44.0325 38.0394C44.1446 38.3386 44.3145 38.6123 44.5325 38.8446C44.7527 39.0754 45.0199 39.2553 45.3156 39.3717C45.9594 39.6207 46.6715 39.6207 47.3153 39.3717C47.5634 39.2741 47.7901 39.1282 47.9823 38.9421C48.0185 38.8981 48.0373 38.8421 48.0352 38.785C48.033 38.7278 48.01 38.6735 47.9705 38.6324L47.7225 38.3899C47.6797 38.3505 47.6239 38.3286 47.5659 38.3286C47.5079 38.3286 47.4521 38.3505 47.4093 38.3899C47.2699 38.5343 47.102 38.6475 46.9165 38.7222C46.731 38.7969 46.532 38.8314 46.3324 38.8235C46.1039 38.8263 45.8776 38.7786 45.6693 38.6838C45.4757 38.5929 45.3038 38.4607 45.1655 38.2964C45.0241 38.1271 44.9136 37.9339 44.8392 37.7257C44.7595 37.4321 44.7205 37.1287 44.723 36.8243C44.7216 36.5213 44.7558 36.2191 44.8248 35.9242C44.8862 35.7148 44.9868 35.5193 45.1211 35.3483" fill="white"/>
<path d="M60.9345 35.2664C60.8811 35.0332 60.7763 34.8152 60.6278 34.6286C60.4774 34.451 60.2847 34.3149 60.0678 34.2332C59.7934 34.1317 59.5023 34.0843 59.2102 34.0935C58.8939 34.0792 58.5809 34.1634 58.3135 34.3347C58.1168 34.4755 57.9455 34.6494 57.8071 34.8487L57.7836 34.8829L57.7718 34.9001C57.7645 34.9085 57.7555 34.9152 57.7453 34.9197C57.7352 34.9243 57.7242 34.9266 57.7131 34.9264C57.698 34.9263 57.6833 34.9221 57.6704 34.9142C57.6576 34.9063 57.6471 34.895 57.64 34.8816C57.64 34.8724 57.6256 34.8579 57.6191 34.8434C57.5956 34.8052 57.5721 34.7643 57.5473 34.7208C57.4749 34.6062 57.3835 34.505 57.2771 34.4217C57.1454 34.3212 56.9993 34.2417 56.8438 34.1858C56.4543 34.062 56.0375 34.0552 55.6442 34.166C55.4828 34.2126 55.3286 34.2818 55.1861 34.3716C55.0557 34.452 54.937 34.5505 54.8337 34.6642C54.7997 34.7024 54.7697 34.7406 54.741 34.7801L54.7319 34.7907C54.7292 34.7972 54.7252 34.803 54.7201 34.8078C54.7043 34.8232 54.6833 34.8321 54.6614 34.8329C54.6422 34.8329 54.6237 34.8262 54.6089 34.814C54.5942 34.8017 54.5841 34.7846 54.5804 34.7657V34.4309C54.5788 34.3721 54.5548 34.3163 54.5135 34.2748C54.4722 34.2334 54.4168 34.2095 54.3585 34.2082H54.0714C54.0123 34.2102 53.9562 34.2352 53.9149 34.2779C53.8735 34.3206 53.8501 34.3778 53.8495 34.4375V39.2134C53.8508 39.2733 53.8748 39.3303 53.9166 39.3727C53.9584 39.4152 54.0148 39.4398 54.074 39.4414H54.4186C54.4787 39.4394 54.5358 39.414 54.5779 39.3706C54.6199 39.3271 54.6438 39.2689 54.6444 39.2082V36.6805C54.6416 36.427 54.6705 36.1742 54.7305 35.928C54.7795 35.7174 54.8681 35.5183 54.9916 35.3416C55.1098 35.1774 55.2675 35.0463 55.4498 34.9607C55.6605 34.8671 55.8892 34.8221 56.1194 34.8289C56.4457 34.8289 56.6806 34.9396 56.8229 35.1636C56.9652 35.3877 57.0357 35.7659 57.0357 36.301V39.2108C57.0363 39.2713 57.0602 39.3292 57.1024 39.3722C57.1445 39.4153 57.2016 39.4401 57.2615 39.4414H57.6074C57.6675 39.4397 57.7246 39.4144 57.7665 39.3708C57.8085 39.3273 57.8319 39.2689 57.8319 39.2082V36.2509C57.8289 36.0527 57.8621 35.8557 57.9298 35.6697C57.9872 35.5047 58.0759 35.3525 58.1908 35.2216C58.3006 35.0996 58.4339 35.0014 58.5824 34.933C58.7326 34.8635 58.8962 34.8284 59.0615 34.8302C59.2582 34.8221 59.4541 34.8609 59.6332 34.9436C59.7742 35.0121 59.8965 35.1143 59.9895 35.2414C60.0785 35.3684 60.1412 35.5123 60.1735 35.6644C60.2064 35.8231 60.223 35.9847 60.2231 36.1468V39.2161C60.2251 39.2758 60.2496 39.3325 60.2915 39.3746C60.3335 39.4167 60.3898 39.4411 60.449 39.4428H60.7935C60.8538 39.4414 60.9111 39.4161 60.9531 39.3725C60.9951 39.3289 61.0184 39.2703 61.0181 39.2095V36.1059C61.022 35.8234 60.9918 35.5415 60.928 35.2664" fill="white"/>
<path d="M44.6878 13.9619C44.6003 13.734 43.4021 11.4962 41.1792 8.69839C41.1229 8.63061 41.0875 8.5477 41.0774 8.45986C40.9428 6.82893 40.7189 5.20679 40.4065 3.60089C40.3721 3.43861 40.2881 3.29134 40.1663 3.17993C40.0445 3.06853 39.8911 2.99865 39.7277 2.98018L37.4174 2.69816C37.3974 2.69685 37.3773 2.69685 37.3573 2.69816C37.2932 2.69816 37.2297 2.71091 37.1705 2.73568C37.1113 2.76044 37.0575 2.79675 37.0121 2.84252C36.9668 2.88829 36.9309 2.94262 36.9063 3.00242C36.8818 3.06222 36.8692 3.12631 36.8692 3.19104V4.00153C36.8688 4.00933 36.8655 4.01671 36.8599 4.02211C36.8543 4.02751 36.8469 4.03052 36.8391 4.03052C36.8328 4.03254 36.8259 4.03254 36.8196 4.03052C35.3725 2.70547 33.8104 1.51459 32.1519 0.472284C31.8145 0.240963 31.4163 0.117024 31.0085 0.116461C30.6014 0.115479 30.2033 0.237071 29.8651 0.465695C21.8898 5.438 17.5002 13.5191 17.3344 13.9633C17.2834 14.0696 17.2566 14.1862 17.2561 14.3044C17.2556 14.4226 17.2813 14.5394 17.3314 14.6463C17.3815 14.7531 17.4546 14.8473 17.5455 14.9218C17.6364 14.9963 17.7427 15.0493 17.8565 15.0769L20.1538 15.5236C20.3059 15.5651 20.4421 15.6519 20.5446 15.7728C20.647 15.8936 20.711 16.0429 20.7281 16.201C20.7464 16.6109 21.1811 25.7581 21.7267 28.1303C21.7715 28.3006 21.8708 28.4512 22.0091 28.5587C22.1474 28.6661 22.317 28.7245 22.4915 28.7247H22.5085C23.849 28.6904 25.0773 28.668 26.4022 28.6495H26.5014C26.5706 28.6495 26.637 28.6218 26.686 28.5723C26.7349 28.5229 26.7624 28.4559 26.7624 28.386V28.3794C26.7089 27.5808 26.5927 25.7555 26.5014 23.8327C26.5014 23.784 26.5014 23.7234 26.4935 23.6746C26.4892 23.5945 26.4656 23.5167 26.4249 23.4479C26.3842 23.379 26.3276 23.3211 26.2599 23.2792C25.9099 23.0685 25.6168 22.7739 25.4065 22.4215C25.1961 22.0691 25.075 21.6698 25.0538 21.259C24.935 18.0513 24.8698 14.3494 25.0434 11.4501C25.0458 11.3264 25.0968 11.2087 25.1852 11.1229C25.2289 11.0805 25.2805 11.0471 25.337 11.0248C25.3936 11.0025 25.4539 10.9916 25.5146 10.9928C25.5752 10.994 25.6351 11.0073 25.6907 11.0318C25.7463 11.0564 25.7966 11.0918 25.8386 11.136C25.8807 11.1801 25.9137 11.2322 25.9358 11.2893C25.9579 11.3464 25.9687 11.4073 25.9675 11.4685C25.9682 11.4808 25.9682 11.4932 25.9675 11.5054C25.8552 13.4388 25.8448 15.7226 25.8866 17.9814C25.8955 18.1232 25.9582 18.2561 26.0617 18.3525C26.1652 18.4488 26.3015 18.5011 26.4422 18.4986C26.5829 18.496 26.7172 18.4388 26.8172 18.3388C26.9172 18.2388 26.9752 18.1037 26.9791 17.9617C26.9386 15.691 26.9491 13.39 27.0652 11.4501C27.0677 11.3264 27.1187 11.2087 27.207 11.1229C27.2508 11.0805 27.3024 11.0471 27.3589 11.0248C27.4154 11.0025 27.4758 10.9916 27.5364 10.9928C27.5971 10.994 27.657 11.0073 27.7126 11.0318C27.7682 11.0564 27.8184 11.0918 27.8605 11.136C27.9026 11.1801 27.9356 11.2322 27.9577 11.2893C27.9798 11.3464 27.9906 11.4073 27.9894 11.4685C27.99 11.4808 27.99 11.4932 27.9894 11.5054C27.8771 13.4295 27.8667 15.7015 27.9071 17.9458C27.9158 18.0876 27.9783 18.2205 28.0815 18.317C28.1848 18.4134 28.3208 18.466 28.4615 18.4638C28.6021 18.4616 28.7365 18.4048 28.8368 18.3051C28.937 18.2055 28.9953 18.0707 28.9997 17.9287C28.9592 15.6673 28.9709 13.3794 29.0858 11.4488C29.0882 11.325 29.1392 11.2074 29.2276 11.1216C29.316 11.0358 29.4345 10.989 29.557 10.9915C29.6796 10.9939 29.7961 11.0454 29.8811 11.1346C29.966 11.2239 30.0124 11.3435 30.0099 11.4672V11.5041C29.8442 14.3244 29.8977 17.8945 30.0099 21.0257V21.0547C30.0099 21.0705 30.0099 21.0863 30.0099 21.1021V21.1338C30.0101 21.5399 29.9124 21.94 29.7252 22.2996C29.5381 22.6591 29.2671 22.9673 28.9357 23.1975C28.8766 23.2383 28.8274 23.2921 28.7919 23.3549C28.7564 23.4177 28.7355 23.4878 28.7308 23.5599C28.7308 23.5599 28.6733 24.041 28.8848 26.371C28.9827 27.3883 29.0571 28.0934 29.0923 28.4123C29.0988 28.4716 29.1268 28.5264 29.1709 28.5661C29.215 28.6057 29.2721 28.6275 29.3312 28.6271H29.5453H30.9184H31.0959C31.6951 28.6271 32.2707 28.6271 32.8176 28.6271L34.1229 28.639C34.1824 28.6383 34.2398 28.6162 34.2845 28.5765C34.3293 28.5369 34.3585 28.4824 34.3669 28.4229C34.6685 25.6303 34.739 24.0621 34.739 24.0621C34.7364 23.9954 34.71 23.932 34.6646 23.8835C34.6193 23.835 34.558 23.8048 34.4923 23.7985L32.909 23.5771C32.8033 23.564 32.7038 23.5194 32.6234 23.449C32.5429 23.3786 32.4851 23.2855 32.4573 23.1817C32.4367 23.1013 32.4296 23.018 32.4364 22.9353C33.0786 13.6272 36.1186 10.4907 36.1186 10.4907C36.1625 10.441 36.212 10.3968 36.2661 10.3589C36.3489 10.2972 36.4491 10.2639 36.552 10.264C36.6498 10.2641 36.7454 10.2939 36.8262 10.3497C36.9069 10.4054 36.9692 10.4844 37.0049 10.5764C37.027 10.6491 37.0401 10.7244 37.0441 10.8004C37.3051 13.726 37.1746 18.7076 37.0167 22.5887C36.8783 25.8833 36.7112 28.4716 36.7112 28.4716C36.7112 28.5227 36.7313 28.5716 36.767 28.6077C36.8028 28.6438 36.8512 28.664 36.9018 28.664C37.7646 28.6785 38.6143 28.6957 39.5123 28.7194H39.5293C39.7038 28.7192 39.8734 28.6609 40.0117 28.5534C40.1501 28.4459 40.2494 28.2953 40.2942 28.125C40.8398 25.7529 41.2732 16.6056 41.2927 16.1957C41.3099 16.0376 41.3739 15.8883 41.4763 15.7675C41.5788 15.6467 41.715 15.5598 41.8671 15.5183L44.1643 15.0716C44.2782 15.044 44.3845 14.991 44.4753 14.9165C44.5662 14.842 44.6394 14.7478 44.6895 14.641C44.7396 14.5342 44.7653 14.4174 44.7648 14.2991C44.7643 14.1809 44.7375 14.0644 44.6865 13.958L44.6878 13.9619Z" fill="white"/>
</svg>
