<svg width="92" height="38" viewBox="0 0 92 38" fill="none" xmlns="http://www.w3.org/2000/svg">
<path d="M76.4935 11.4158C76.5907 11.1088 76.4125 10.7857 76.1047 10.6887C76.0561 10.6726 75.9913 10.6564 75.9427 10.6726H70.9205L64.748 31.5145L62.3989 21.3843L69.5596 11.6258C69.6082 11.5612 69.6406 11.4966 69.673 11.4158L69.8026 10.9957C69.835 10.8665 69.7702 10.7211 69.6244 10.6887C69.6082 10.6887 69.5758 10.6726 69.5596 10.6726H64.4564L58.9806 18.6862L61.3135 11.4319C61.3621 11.2542 61.3297 11.0603 61.2163 10.9149C61.1029 10.7695 60.9247 10.6726 60.7465 10.6726H55.6919L51.3177 25.4881C51.4149 22.9515 49.4384 20.932 48.2882 19.6717C47.3486 18.6377 46.7977 17.8945 46.8949 17.0867C47.0407 15.9558 47.9804 15.0995 49.1144 15.051C50.3781 14.9541 50.9127 15.3418 51.7227 15.7134C51.8199 15.7619 51.9171 15.778 52.0143 15.778C52.0953 15.778 52.1763 15.7619 52.2573 15.7296C52.4356 15.6649 52.5652 15.5195 52.6138 15.358L53.7964 11.3996L52.9864 11.028L52.873 10.9796L52.8406 10.9634C51.8685 10.5595 50.8317 10.3495 49.7787 10.3656C45.3397 10.3656 41.3057 13.5323 40.6577 17.426C40.1879 20.1403 41.9376 22.0629 43.2174 23.4685L43.3308 23.5978C44.2542 24.5833 44.8861 25.3588 44.7403 26.2474C44.5297 27.4915 43.3146 28.2024 42.1482 28.2993C40.8683 28.4124 40.0583 28.0408 39.0538 27.6046C38.8756 27.5076 38.665 27.4592 38.4706 27.4915C38.2762 27.5561 38.1142 27.7015 38.0656 27.8954L36.9478 31.7245L36.802 32.2092C36.802 32.2092 39.0052 33.324 41.5649 33.324C45.3397 33.324 48.6122 31.8699 50.5401 28.3801L49.3898 32.2738C49.2926 32.5808 49.4708 32.9201 49.7948 33.0009C49.8435 33.017 49.9083 33.017 49.9569 33.017H55.0115L56.2751 28.7355L57.8142 26.5221L58.9968 32.5485C59.0454 32.8231 59.2884 33.017 59.58 33.017H70.2076L76.4935 11.4158Z" fill="white"/>
<path d="M85.9871 17.0545C85.9385 18.1047 85.5334 19.4456 85.0636 20.4797C84.4318 21.8691 83.8648 22.9031 82.2123 23.097H80.7866L83.0223 15.5035L84.9016 15.5196C85.1608 15.5035 85.42 15.6166 85.5982 15.7943C85.906 16.0851 86.0033 16.5052 85.9871 17.0545ZM90.021 12.3529C89.0328 11.2705 87.6233 10.6565 86.1491 10.6727H77.7733L77.4169 11.8521C77.3845 11.9652 77.4007 12.0783 77.4655 12.1752L77.7085 12.5468C77.9353 12.9184 78.0001 13.3547 77.8705 13.7747L72.4271 32.2416C72.3785 32.4193 72.4109 32.6132 72.5081 32.7586C72.6215 32.904 72.7835 33.0009 72.978 33.0009H77.8543L79.3772 27.8632H81.5805C86.8781 27.9278 89.5674 24.2118 90.7662 20.1727C91.2523 18.5247 91.4953 17.3453 91.4791 16.5536C91.4629 14.7926 91.0254 13.4677 90.021 12.3529Z" fill="white"/>
<path d="M36.7687 18.3721C36.6529 18.0704 35.0497 15.1103 32.0749 11.3967C31.9991 11.3064 31.9515 11.1958 31.9379 11.0787C31.7579 8.91698 31.4584 6.76689 31.0409 4.63825C30.9936 4.42452 30.8805 4.23096 30.7176 4.08472C30.5547 3.93848 30.3501 3.8469 30.1325 3.8228L27.042 3.44932C27.0143 3.4477 26.9865 3.4477 26.9588 3.44932C26.7858 3.44932 26.6198 3.51805 26.4975 3.64039C26.3752 3.76274 26.3064 3.92867 26.3064 4.10168V5.17645C26.3064 5.18159 26.3054 5.18668 26.3035 5.19143C26.3015 5.19617 26.2986 5.20049 26.295 5.20412C26.2913 5.20776 26.287 5.21064 26.2823 5.21261C26.2775 5.21458 26.2724 5.21559 26.2673 5.21559C26.2578 5.21513 26.2487 5.2117 26.2412 5.2058C24.3054 3.44867 22.2148 1.87007 19.9948 0.489237C19.543 0.184473 19.01 0.0225337 18.4651 0.0244305C17.9196 0.0227089 17.3861 0.184619 16.9336 0.489237C6.26103 7.07319 0.388149 17.7768 0.163085 18.3721C0.0961222 18.5127 0.0615678 18.6665 0.0619694 18.8222C0.0619579 19.0575 0.14036 19.2861 0.284787 19.4719C0.429215 19.6577 0.63143 19.79 0.85948 19.848L3.93373 20.4401C4.13694 20.4953 4.31884 20.6104 4.45582 20.7704C4.5928 20.9303 4.67853 21.1278 4.70188 21.337C4.72635 21.8801 5.30695 34.0026 6.03759 37.1486C6.09793 37.3742 6.23102 37.5734 6.41622 37.7156C6.60141 37.8577 6.82835 37.9348 7.0618 37.9347H7.08463C8.87862 37.8907 10.5209 37.8597 12.2954 37.8369H12.4421C12.5331 37.8364 12.6202 37.8 12.6844 37.7355C12.7486 37.671 12.7846 37.5837 12.7846 37.4928V37.483C12.7129 36.4245 12.5579 34.0043 12.4324 31.4568C12.4324 31.3916 12.4242 31.3116 12.4209 31.248C12.4155 31.142 12.3843 31.0389 12.33 30.9477C12.2758 30.8565 12.2 30.7798 12.1094 30.7245C11.6412 30.445 11.2489 30.0544 10.9674 29.5874C10.6858 29.1204 10.5235 28.5912 10.4948 28.0466C10.3318 23.7948 10.2518 18.8809 10.4851 15.0369C10.4885 14.8729 10.557 14.7171 10.6753 14.6036C10.7339 14.5474 10.803 14.5033 10.8787 14.4739C10.9543 14.4444 11.035 14.4301 11.1162 14.4318C11.1974 14.4335 11.2774 14.4512 11.3518 14.4839C11.4261 14.5165 11.4933 14.5635 11.5495 14.6221C11.6057 14.6807 11.6497 14.7498 11.6792 14.8254C11.7087 14.9011 11.723 14.9818 11.7213 15.063C11.7221 15.0787 11.7221 15.0945 11.7213 15.1103C11.5696 17.674 11.5582 20.7043 11.612 23.6937C11.6155 23.8883 11.6961 24.0736 11.8362 24.2088C11.9763 24.344 12.1643 24.418 12.359 24.4146C12.5536 24.4111 12.7389 24.3305 12.8741 24.1904C13.0093 24.0503 13.0833 23.8622 13.0798 23.6676C13.0244 20.657 13.0391 17.6088 13.1956 15.0369C13.1991 14.8729 13.2675 14.7171 13.3859 14.6036C13.5042 14.4902 13.6628 14.4284 13.8268 14.4318C13.9907 14.4353 14.1466 14.5037 14.26 14.6221C14.3735 14.7404 14.4353 14.899 14.4318 15.063C14.4327 15.0787 14.4327 15.0945 14.4318 15.1103C14.2818 17.6594 14.2687 20.6716 14.3209 23.6464C14.324 23.841 14.4042 24.0265 14.544 24.162C14.6837 24.2975 14.8716 24.3719 15.0663 24.3689C15.2609 24.3659 15.4464 24.2856 15.5819 24.1459C15.7174 24.0061 15.7918 23.8182 15.7887 23.6236C15.7333 20.6276 15.7496 17.5892 15.9045 15.0352C15.908 14.8713 15.9764 14.7155 16.0948 14.602C16.1534 14.5458 16.2225 14.5017 16.2982 14.4722C16.3738 14.4428 16.4545 14.4285 16.5357 14.4302C16.6169 14.4319 16.6969 14.4496 16.7712 14.4822C16.8456 14.5149 16.9128 14.5618 16.969 14.6204C17.0251 14.6791 17.0692 14.7482 17.0987 14.8238C17.1282 14.8995 17.1425 14.9802 17.1408 15.0613C17.1416 15.0771 17.1416 15.0929 17.1408 15.1086C16.919 18.8467 16.9924 23.5779 17.1408 27.7269V27.7661C17.1408 27.7661 17.1408 27.8085 17.1408 27.8297V27.8704C17.1412 28.4091 17.0105 28.9398 16.7598 29.4166C16.5092 29.8934 16.1463 30.302 15.7023 30.6071C15.6224 30.6624 15.5561 30.7352 15.5086 30.82C15.4612 30.9048 15.4337 30.9993 15.4283 31.0964C15.4283 31.0964 15.3517 31.7324 15.6338 34.8213C15.7659 36.1701 15.8654 37.1046 15.9127 37.5254C15.9227 37.6046 15.9614 37.6775 16.0215 37.7301C16.0817 37.7827 16.159 37.8114 16.2389 37.8108H18.5923C19.3947 37.8108 20.1579 37.8108 20.8951 37.8108L22.6385 37.8271C22.7187 37.8277 22.7962 37.7987 22.8564 37.7458C22.9165 37.6928 22.9551 37.6196 22.9647 37.5401C23.3692 33.8379 23.4638 31.7601 23.4638 31.7601C23.4619 31.6714 23.4278 31.5863 23.3677 31.5209C23.3077 31.4554 23.2259 31.4141 23.1376 31.4046L21.0174 31.111C20.8767 31.0939 20.7441 31.0355 20.6365 30.9432C20.5288 30.8509 20.4509 30.7289 20.4124 30.5924C20.3856 30.4859 20.3768 30.3757 20.3863 30.2662C21.2441 17.9301 25.3116 13.7729 25.3116 13.7729C25.3714 13.7118 25.4376 13.6571 25.5089 13.6098C25.5895 13.5514 25.6823 13.5122 25.7804 13.4951C25.8784 13.4781 25.9791 13.4837 26.0746 13.5116C26.1702 13.5394 26.2581 13.5888 26.3316 13.6559C26.4052 13.7229 26.4624 13.8059 26.4989 13.8985C26.5279 13.9951 26.5454 14.0947 26.5511 14.1953C26.9017 18.0736 26.7305 24.6706 26.5136 29.8194C26.3293 34.1869 26.1058 37.6167 26.1058 37.6167C26.1058 37.6842 26.1326 37.7489 26.1804 37.7966C26.2281 37.8443 26.2928 37.8711 26.3603 37.8711C27.5149 37.8907 28.6517 37.9152 29.8569 37.9445H29.8797C30.1131 37.9443 30.3399 37.8671 30.5251 37.725C30.7102 37.5829 30.8434 37.3838 30.9039 37.1584C31.633 34.0124 32.2087 21.8899 32.2397 21.3468C32.2628 21.1375 32.3484 20.9399 32.4855 20.7799C32.6225 20.6199 32.8045 20.5049 33.0078 20.4498L36.0821 19.8578C36.3101 19.7998 36.5123 19.6675 36.6567 19.4817C36.8012 19.2959 36.8796 19.0673 36.8796 18.832C36.8784 18.6722 36.8405 18.5148 36.7687 18.3721Z" fill="white"/>
</svg>
