<svg width="44" height="42" viewBox="0 0 44 42" fill="none" xmlns="http://www.w3.org/2000/svg">
<path d="M4.74593 33.5679H2.81655C2.19166 33.5679 2.19166 33.5679 2.06157 34.2968C1.93149 35.0258 1.93149 35.0525 2.5041 35.0525H3.65176L2.99648 38.7775C2.83965 39.611 2.47492 40.1844 1.35401 40.5222C1.0671 40.6011 0.989288 40.7044 0.989288 40.8356C0.989288 40.9911 1.04157 41.1211 1.17165 41.4346C1.35401 41.8768 1.45856 41.9546 1.61418 41.9546C1.79978 41.9374 1.98335 41.9028 2.16248 41.8513C3.75145 41.3301 4.40309 40.1054 4.66447 38.6475L5.39392 34.4536C5.524 33.5679 5.524 33.5679 4.74228 33.5679" fill="white"/>
<path d="M11.2878 33.5679C10.5061 33.5679 10.5061 33.5679 10.4016 34.2191L9.82773 37.6051C9.67211 38.5953 9.41073 39.1687 8.44665 39.1687C7.5081 39.1687 7.17012 38.5953 7.32573 37.7108L7.87403 34.4815C8.02965 33.5691 8.00412 33.5691 7.19565 33.5691C6.41393 33.5691 6.3884 33.5691 6.28384 34.1948L5.71001 37.5808C5.37082 39.5077 6.57076 40.7056 8.26307 40.7056C10.1657 40.7056 11.1298 39.8467 11.4434 37.8153L12.0161 34.4548C12.1474 33.5691 12.0951 33.5691 11.2866 33.5691" fill="white"/>
<path d="M14.8585 39.1165C15.4846 39.0898 15.8226 38.803 15.8226 38.5175C15.8226 38.153 15.38 38.0218 14.7807 37.8396C13.6075 37.4751 12.5388 37.0584 12.5388 35.8082C12.5388 34.3236 13.7643 33.5156 15.3022 33.5156C15.9539 33.5156 16.6833 33.5424 17.1526 33.5946C17.5696 33.6468 17.6741 33.7768 17.5428 34.428C17.4115 35.0792 17.2571 35.1315 16.8912 35.1048C16.4487 35.0792 15.8748 35.027 15.1977 35.027C14.4159 35.027 14.1813 35.3137 14.1813 35.5737C14.1813 35.9127 14.4938 36.0949 15.2232 36.3027C16.5787 36.6939 17.465 37.2406 17.465 38.413C17.465 39.7932 16.4487 40.5999 14.8062 40.6534C14.0221 40.6807 13.2372 40.6367 12.461 40.5222C11.9395 40.4444 11.9139 40.4444 12.044 39.6887C12.1741 39.012 12.1741 38.9598 12.6689 39.012C13.3945 39.1043 14.1262 39.1392 14.8573 39.1165" fill="white"/>
<path d="M23.382 33.5679H18.9762C18.3513 33.5679 18.3513 33.5679 18.2212 34.3236C18.0911 35.0792 18.1167 35.0792 18.6638 35.0792H20.0971L19.2874 39.741C19.1306 40.6534 19.1573 40.6534 19.9646 40.6534C20.7208 40.6534 20.7463 40.6534 20.8509 40.0022L21.6849 35.0792H23.0684C23.6945 35.0792 23.6945 35.0792 23.8246 34.3236C23.9546 33.5679 23.9546 33.5679 23.382 33.5679Z" fill="white"/>
<path d="M31.1481 35.0526C31.7743 35.0526 31.7743 35.0526 31.9043 34.297C32.0344 33.5413 32.0344 33.5425 31.4618 33.5425H28.3082C27.1873 33.5425 27.214 33.5425 27.0304 34.6627L26.2171 39.3766C26.0092 40.6013 26.0347 40.6012 27.1557 40.6012H30.2315C30.8831 40.6012 30.8576 40.6012 30.9877 39.8723C31.1178 39.1178 31.1178 39.1178 30.5439 39.1178H27.89L28.0991 37.7632H30.3141C30.9135 37.7632 30.9135 37.7632 31.0181 37.0597C31.1226 36.3308 31.1226 36.3308 30.3141 36.3308H28.3592L28.5683 35.0539L31.1481 35.0526Z" fill="white"/>
<path d="M34.4842 37.553L35.5017 35.3139C35.5795 35.1316 35.5795 35.1316 35.7096 35.1316C35.8397 35.1316 35.8397 35.1316 35.8665 35.3394L36.1789 37.553H34.4842ZM37.2475 34.4294C37.0907 33.5437 37.0907 33.5437 35.8397 33.5437C34.6677 33.5437 34.6933 33.5437 34.3285 34.2727L31.6965 39.769C31.305 40.5502 31.3828 40.628 32.3481 40.628C33.1031 40.628 33.1031 40.628 33.4155 39.9245L33.8337 38.9866H36.3868L36.5169 39.9245C36.6214 40.6256 36.6482 40.6256 37.4019 40.6256C38.2615 40.6256 38.3393 40.5733 38.1837 39.7144L37.2475 34.4294Z" fill="white"/>
<path d="M43.4807 33.5679H39.0456C38.4207 33.5679 38.4207 33.5679 38.2907 34.3236C38.1606 35.0792 38.1861 35.0792 38.7332 35.0792H40.1665L39.3593 39.741C39.2025 40.6534 39.228 40.6534 40.0365 40.6534C40.7926 40.6534 40.8182 40.6534 40.9227 40.0022L41.7567 35.0792H43.1378C43.7639 35.0792 43.7639 35.0792 43.894 34.3236C44.0496 33.5679 44.0496 33.5679 43.477 33.5679" fill="white"/>
<path d="M36.1327 13.7025C36.0452 13.4777 34.8501 11.2726 32.6326 8.50619C32.5768 8.43897 32.5413 8.35718 32.5305 8.27049C32.397 6.66013 32.1741 5.05841 31.863 3.47272C31.8275 3.3134 31.743 3.16918 31.6214 3.06025C31.4997 2.95132 31.347 2.88314 31.1847 2.86525L28.8808 2.58581C28.8606 2.58457 28.8403 2.58457 28.82 2.58581C28.6911 2.58581 28.5674 2.63701 28.4762 2.72815C28.385 2.81929 28.3338 2.9429 28.3338 3.07179V3.87122C28.3334 3.87906 28.3301 3.88647 28.3244 3.89191C28.3188 3.89735 28.3112 3.90038 28.3034 3.90037C28.3 3.90049 28.2966 3.89991 28.2935 3.89865C28.2903 3.8974 28.2875 3.8955 28.2851 3.89308C26.8412 2.58632 25.2828 1.41163 23.6288 0.383137C23.2916 0.157214 22.8945 0.0370681 22.4885 0.0380956C22.0824 0.0368458 21.6853 0.15701 21.3481 0.383137C13.3911 5.2854 9.01198 13.2639 8.84299 13.7025C8.79442 13.8073 8.76952 13.9215 8.77006 14.037C8.77059 14.1525 8.79655 14.2664 8.84609 14.3708C8.89564 14.4751 8.96755 14.5673 9.05672 14.6408C9.1459 14.7142 9.25016 14.7672 9.36211 14.7959L11.6538 15.2369C11.8053 15.2781 11.9409 15.3638 12.043 15.483C12.1451 15.6022 12.209 15.7492 12.2264 15.9051C12.2459 16.3097 12.6787 25.3415 13.2233 27.6839C13.2677 27.852 13.3666 28.0007 13.5045 28.1067C13.6424 28.2126 13.8116 28.2699 13.9856 28.2695H14.0026C15.3399 28.2367 16.5642 28.2149 17.8869 28.1966H17.9975C18.0655 28.196 18.1304 28.1686 18.1782 28.1203C18.226 28.0721 18.2528 28.007 18.2528 27.9391V27.933C18.1993 27.1445 18.0838 25.3415 17.9902 23.4377C17.9902 23.3904 17.9841 23.3308 17.9817 23.2822C17.9776 23.2031 17.9541 23.1263 17.9134 23.0583C17.8727 22.9903 17.8161 22.9333 17.7483 22.8922C17.3995 22.6838 17.1074 22.3927 16.8978 22.0449C16.6881 21.697 16.5673 21.3029 16.5459 20.8973C16.4244 17.73 16.3648 14.0706 16.5386 11.2058C16.5412 11.0837 16.5922 10.9676 16.6805 10.883C16.7687 10.7985 16.8869 10.7525 17.0091 10.755C17.1313 10.7576 17.2475 10.8086 17.3321 10.8968C17.4167 10.985 17.4627 11.1031 17.4602 11.2252C17.4602 11.2374 17.4602 11.2495 17.4602 11.2617C17.3471 13.1703 17.3386 15.4277 17.3787 17.6546C17.3813 17.7997 17.4414 17.9377 17.5458 18.0384C17.5975 18.0883 17.6586 18.1275 17.7254 18.1538C17.7923 18.18 17.8637 18.1929 17.9355 18.1917C18.0074 18.1904 18.0783 18.175 18.1441 18.1463C18.21 18.1177 18.2696 18.0763 18.3195 18.0246C18.3694 17.973 18.4086 17.912 18.435 17.8452C18.4613 17.7784 18.4742 17.707 18.4729 17.6352C18.4315 15.3937 18.4425 13.1217 18.558 11.2058C18.5606 11.0837 18.6116 10.9676 18.6998 10.883C18.788 10.7985 18.9063 10.7525 19.0285 10.755C19.1507 10.7576 19.2668 10.8086 19.3514 10.8968C19.436 10.985 19.4821 11.1031 19.4795 11.2252V11.2617C19.3664 13.1606 19.3579 15.4034 19.3968 17.6194C19.3991 17.7644 19.4589 17.9026 19.5631 18.0035C19.6673 18.1045 19.8073 18.1599 19.9524 18.1576C20.0975 18.1554 20.2358 18.0956 20.3368 17.9915C20.4378 17.8874 20.4933 17.7474 20.491 17.6024C20.4509 15.3706 20.4618 13.1071 20.5773 11.2046C20.5786 11.1441 20.5918 11.0845 20.6161 11.0291C20.6405 10.9737 20.6755 10.9237 20.7192 10.8818C20.7628 10.84 20.8144 10.8071 20.8707 10.7852C20.9271 10.7632 20.9873 10.7525 21.0478 10.7538C21.1083 10.7551 21.168 10.7683 21.2234 10.7926C21.2788 10.8169 21.3289 10.8519 21.3708 10.8956C21.4127 10.9392 21.4455 10.9907 21.4675 11.047C21.4895 11.1034 21.5001 11.1635 21.4989 11.224V11.2604C21.3335 14.0439 21.387 17.5684 21.4989 20.6604C21.4995 20.6701 21.4995 20.6798 21.4989 20.6896C21.4989 20.7054 21.4989 20.7199 21.4989 20.7357V20.7661C21.4992 21.1672 21.4017 21.5624 21.2149 21.9174C21.0281 22.2724 20.7575 22.5765 20.4266 22.8035C20.367 22.8447 20.3177 22.8989 20.2825 22.9621C20.2473 23.0253 20.2271 23.0958 20.2235 23.168C20.2235 23.168 20.1664 23.6431 20.3767 25.9429C20.474 26.9477 20.5494 27.6438 20.5834 27.9585C20.5911 28.0173 20.6201 28.0713 20.6649 28.1103C20.7097 28.1492 20.7672 28.1704 20.8266 28.1699H21.0405H22.4107H22.5869C23.1851 28.1699 23.7553 28.1699 24.3036 28.1699L25.6044 28.1808C25.6641 28.1813 25.722 28.1597 25.7668 28.1203C25.8116 28.0808 25.8404 28.0263 25.8476 27.967C26.1478 25.2103 26.2196 23.6613 26.2196 23.6613C26.2177 23.5953 26.192 23.5322 26.1474 23.4836C26.1027 23.4349 26.042 23.404 25.9764 23.3964L24.396 23.179C24.291 23.1659 24.1921 23.1222 24.1119 23.0532C24.0316 22.9843 23.9736 22.8932 23.9449 22.7914C23.9249 22.7121 23.9179 22.63 23.9243 22.5484C24.565 13.3586 27.597 10.263 27.597 10.263C27.6413 10.2153 27.6906 10.1725 27.7441 10.1354C27.8042 10.0921 27.8734 10.0632 27.9464 10.0507C28.0194 10.0382 28.0944 10.0426 28.1654 10.0634C28.2365 10.0843 28.3019 10.1211 28.3565 10.1711C28.4112 10.221 28.4537 10.2828 28.4809 10.3517C28.5032 10.4234 28.5163 10.4977 28.5198 10.5728C28.7824 13.4607 28.6547 18.3763 28.4918 22.2107C28.3544 25.4655 28.1891 28.0205 28.1891 28.0205C28.1891 28.0707 28.2091 28.1189 28.2446 28.1545C28.2802 28.19 28.3284 28.21 28.3787 28.21C29.2383 28.2246 30.0868 28.2416 30.9841 28.2635H31.0023C31.1762 28.2636 31.3453 28.2063 31.4832 28.1003C31.6211 27.9944 31.72 27.8459 31.7646 27.6779C32.3092 25.3355 32.7372 16.3036 32.7603 15.8991C32.7782 15.7433 32.8422 15.5965 32.9443 15.4774C33.0463 15.3583 33.1816 15.2725 33.3329 15.2309L35.6258 14.7898C35.7955 14.7468 35.9461 14.6484 36.0536 14.5102C36.161 14.372 36.2193 14.2019 36.219 14.0269C36.2136 13.9138 36.1842 13.8033 36.1327 13.7025Z" fill="white"/>
</svg>
