<svg width="93" height="44" viewBox="0 0 93 44" fill="none" xmlns="http://www.w3.org/2000/svg">
<path d="M58.9791 13.2543C58.9 13.045 57.806 10.9913 55.776 8.41498C55.7242 8.35276 55.6917 8.2764 55.6825 8.19548C55.5602 6.6968 55.3559 5.20622 55.0703 3.73068C55.038 3.5824 54.9609 3.44812 54.8497 3.34666C54.7385 3.24521 54.5989 3.18167 54.4504 3.16495L52.3414 2.89905C52.3229 2.89737 52.3042 2.89737 52.2857 2.89905C52.1677 2.89905 52.0544 2.94673 51.9709 3.03161C51.8874 3.11649 51.8405 3.23161 51.8405 3.35164V4.09276C51.8405 4.09996 51.8377 4.10686 51.8327 4.11196C51.8277 4.11705 51.8209 4.11991 51.8138 4.11991C51.8073 4.11985 51.801 4.11744 51.796 4.11312C50.4747 2.89549 49.048 1.80145 47.5334 0.844297C47.2246 0.634019 46.8611 0.522139 46.4894 0.522958C46.1177 0.521794 45.7541 0.633704 45.4455 0.844297C38.1622 5.41545 34.1534 12.847 33.9987 13.2543C33.953 13.3522 33.9294 13.4593 33.9297 13.5677C33.9298 13.7309 33.9834 13.8894 34.082 14.0183C34.1805 14.1471 34.3184 14.239 34.4739 14.2794L36.5718 14.689C36.7107 14.7274 36.8349 14.8074 36.9284 14.9186C37.0219 15.0298 37.0803 15.167 37.096 15.3124C37.1138 15.6892 37.5101 24.0995 38.0075 26.2809C38.0485 26.4376 38.1393 26.5761 38.2657 26.675C38.3921 26.7738 38.547 26.8274 38.7065 26.8274H38.7221C39.9463 26.7958 41.0671 26.7754 42.278 26.7584H42.3781C42.4091 26.7584 42.4397 26.7522 42.4683 26.7401C42.4968 26.7281 42.5228 26.7104 42.5446 26.6881C42.5664 26.6658 42.5837 26.6394 42.5954 26.6103C42.6072 26.5812 42.6131 26.55 42.613 26.5186V26.5129C42.564 25.7786 42.4583 24.0995 42.3726 22.3264C42.3726 22.2823 42.367 22.2269 42.3648 22.1816C42.361 22.108 42.3395 22.0364 42.3023 21.9731C42.265 21.9098 42.2131 21.8567 42.1511 21.8184C41.8316 21.6245 41.5641 21.3535 41.3721 21.0295C41.1801 20.7054 41.0696 20.3383 41.0504 19.9605C40.9391 17.0119 40.8846 13.6028 41.0437 10.9359C41.051 10.8259 41.0996 10.723 41.1796 10.6486C41.2595 10.5741 41.3645 10.5338 41.4729 10.536C41.5813 10.5381 41.6847 10.5827 41.7617 10.6603C41.8386 10.7379 41.8832 10.8427 41.8862 10.9529C41.8862 10.9642 41.8862 10.9755 41.8862 10.9868C41.7827 12.7644 41.7749 14.8666 41.8105 16.9406C41.8117 17.0075 41.8258 17.0735 41.8521 17.1348C41.8783 17.1961 41.9162 17.2516 41.9635 17.298C42.0109 17.3445 42.0667 17.381 42.1279 17.4055C42.1891 17.4299 42.2545 17.4419 42.3203 17.4407C42.386 17.4396 42.4509 17.4252 42.5113 17.3985C42.5716 17.3718 42.6261 17.3333 42.6718 17.2852C42.7175 17.2371 42.7534 17.1803 42.7775 17.1181C42.8016 17.0558 42.8134 16.9894 42.8122 16.9225C42.7744 14.835 42.7844 12.7191 42.8901 10.9359C42.8923 10.8222 42.9389 10.714 43.0196 10.6352C43.1002 10.5563 43.2084 10.5133 43.3203 10.5156C43.4321 10.5178 43.5385 10.5652 43.6161 10.6472C43.6936 10.7292 43.7359 10.8391 43.7337 10.9529C43.7337 10.9642 43.7337 10.9755 43.7337 10.9868C43.6313 12.7553 43.6224 14.8451 43.6592 16.9078C43.6612 17.0429 43.716 17.1715 43.8114 17.2655C43.9067 17.3595 44.035 17.4112 44.1678 17.4091C44.3006 17.407 44.4272 17.3513 44.5196 17.2543C44.6121 17.1574 44.6629 17.027 44.6608 16.892C44.6241 14.8135 44.6341 12.7055 44.7398 10.9348C44.7421 10.821 44.7886 10.7129 44.8693 10.634C44.95 10.5552 45.0581 10.5122 45.17 10.5144C45.2819 10.5167 45.3883 10.564 45.4658 10.646C45.5434 10.728 45.5857 10.838 45.5835 10.9517C45.5835 10.9631 45.5835 10.9744 45.5835 10.9857C45.4332 13.579 45.4822 16.8603 45.5835 19.7399C45.5835 19.7399 45.5835 19.7648 45.5835 19.7671C45.5835 19.7693 45.5835 19.7965 45.5835 19.8112V19.8395C45.5838 20.213 45.4946 20.581 45.3235 20.9116C45.1525 21.2423 44.9048 21.5255 44.6018 21.7369C44.548 21.7747 44.5033 21.8243 44.4712 21.8821C44.439 21.9399 44.4201 22.0044 44.416 22.0707C44.416 22.0707 44.3581 22.5131 44.5506 24.6629C44.6397 25.5987 44.7087 26.247 44.7398 26.5401C44.7469 26.5948 44.7734 26.6451 44.8145 26.6814C44.8555 26.7176 44.9081 26.7374 44.9624 26.7369H45.1583C45.5623 26.7369 45.9786 26.7369 46.4115 26.7369H46.574H48.1455L49.3364 26.7471C49.3911 26.7475 49.444 26.7274 49.485 26.6907C49.5261 26.654 49.5524 26.6032 49.559 26.548C49.8339 23.9807 49.8984 22.538 49.8984 22.538C49.8969 22.4765 49.8735 22.4176 49.8326 22.3723C49.7917 22.3269 49.736 22.2982 49.6758 22.2914L48.229 22.0888C48.1329 22.0771 48.0424 22.0366 47.9689 21.9726C47.8954 21.9085 47.8422 21.8238 47.8161 21.729C47.7979 21.6551 47.7915 21.5787 47.7971 21.5027C48.3837 12.9454 51.1594 10.0613 51.1594 10.0613C51.2002 10.0188 51.2454 9.9809 51.2941 9.94813C51.3696 9.89179 51.4609 9.86164 51.5545 9.86214C51.6439 9.86223 51.7312 9.88969 51.8051 9.94096C51.8789 9.99222 51.9359 10.0649 51.9685 10.1495C51.989 10.2163 52.001 10.2855 52.0041 10.3555C52.2434 13.045 52.1266 17.6229 51.9785 21.1938C51.8528 24.2251 51.7014 26.6045 51.7014 26.6045C51.7014 26.6514 51.7197 26.6963 51.7523 26.7294C51.7848 26.7625 51.829 26.7811 51.875 26.7811C52.663 26.7946 53.4332 26.8105 54.2612 26.832H54.2768C54.4363 26.8319 54.5912 26.7783 54.7176 26.6795C54.844 26.5807 54.9348 26.4421 54.9757 26.2855C55.4744 24.104 55.8661 15.6937 55.8873 15.317C55.9033 15.1717 55.9618 15.0346 56.0552 14.9235C56.1487 14.8123 56.2728 14.7322 56.4115 14.6935L58.5094 14.2839C58.6649 14.2435 58.8028 14.1516 58.9013 14.0228C58.9999 13.8939 59.0535 13.7354 59.0536 13.5722C59.0528 13.4619 59.0273 13.3532 58.9791 13.2543Z" fill="white"/>
<path d="M59.816 33.6773C59.4722 33.3568 59.0689 33.1094 58.6296 32.9498C57.6877 32.6137 56.6612 32.6137 55.7192 32.9498C55.2804 33.1103 54.8772 33.3576 54.5328 33.6773C54.1934 33.9934 53.9237 34.379 53.7415 34.8088C53.3542 35.8905 53.3542 37.0763 53.7415 38.1579C53.9245 38.5872 54.1941 38.9727 54.5328 39.2894C54.8763 39.6106 55.2797 39.8584 55.7192 40.0181C56.661 40.3553 57.6878 40.3553 58.6296 40.0181C59.0691 39.8584 59.4726 39.6106 59.816 39.2894C60.1546 38.9718 60.4251 38.5866 60.6107 38.1579C60.9936 37.0755 60.9936 35.8912 60.6107 34.8088C60.4254 34.3799 60.1549 33.9947 59.816 33.6773ZM58.397 37.9305C58.0618 38.2397 57.6254 38.411 57.1728 38.411C56.7201 38.411 56.2837 38.2397 55.9485 37.9305C55.6591 37.6137 55.5156 36.9959 55.5156 36.4732C55.5156 35.9504 55.6591 35.3417 55.9485 35.0158C56.2842 34.7076 56.7204 34.5369 57.1728 34.5369C57.6251 34.5369 58.0613 34.7076 58.397 35.0158C58.6853 35.3338 58.83 35.9527 58.83 36.4732C58.83 36.9937 58.6853 37.6047 58.397 37.9305Z" fill="white"/>
<path d="M7.76287 30.1628H0.645484C0.565605 30.1668 0.490147 30.2013 0.434219 30.2594C0.378291 30.3175 0.346022 30.395 0.343872 30.4763V31.791C0.345499 31.8719 0.377363 31.9491 0.432981 32.0069C0.488599 32.0647 0.563792 32.0988 0.643258 32.1022H2.97046C3.01051 32.1032 3.04872 32.1195 3.07756 32.1478C3.1064 32.1761 3.12378 32.2143 3.12627 32.2549V39.7691C3.12701 39.8511 3.15851 39.9298 3.21434 39.9891C3.27018 40.0484 3.34615 40.0838 3.42677 40.0881H4.98492C5.0631 40.0843 5.13707 40.051 5.19242 39.9947C5.24777 39.9384 5.28052 39.8632 5.2843 39.7838V32.2187C5.29263 32.185 5.31142 32.1549 5.33788 32.1329C5.36434 32.1109 5.39707 32.0982 5.43121 32.0965H7.76843C7.84556 32.093 7.91866 32.0605 7.97356 32.0053C8.02846 31.9501 8.06126 31.8762 8.06559 31.7978V30.4627C8.06146 30.3836 8.02832 30.3089 7.97269 30.2534C7.91706 30.1979 7.84299 30.1656 7.76509 30.1628" fill="white"/>
<path d="M45.9896 33.6773C45.7183 33.3598 45.378 33.1108 44.9958 32.9498C44.5826 32.7767 44.1393 32.6905 43.6925 32.6963C43.1968 32.6933 42.7045 32.7787 42.2379 32.9486C41.7985 33.1072 41.3952 33.3547 41.0526 33.6762C40.714 33.9933 40.4441 34.3786 40.2601 34.8076C39.8739 35.8895 39.8739 37.0749 40.2601 38.1568C40.4445 38.5856 40.7143 38.9709 41.0526 39.2883C41.3964 39.6085 41.7992 39.8561 42.2379 40.0169C42.7042 40.188 43.1967 40.2735 43.6925 40.2693C44.2358 40.2691 44.7727 40.1495 45.2662 39.9185C45.6516 39.7439 46.0009 39.4967 46.2957 39.1898C46.3488 39.1308 46.3783 39.0537 46.3783 38.9737C46.3783 38.8937 46.3488 38.8166 46.2957 38.7576L45.3575 38.0572L45.2896 38.0097C45.23 37.9746 45.1607 37.9604 45.0923 37.9692C45.024 37.978 44.9604 38.0093 44.9112 38.0584C44.7796 38.2065 44.63 38.3369 44.466 38.4465C44.1749 38.6179 43.8401 38.6969 43.5045 38.6733C43.1689 38.6497 42.848 38.5246 42.5829 38.3141C42.2671 37.9893 42.0764 37.5601 42.0453 37.1045C42.0457 37.0669 42.0592 37.0307 42.0835 37.0023C42.1078 36.9739 42.1412 36.9552 42.1778 36.9495H46.5317C46.6122 36.9444 46.6879 36.9086 46.7436 36.8492C46.7993 36.7899 46.8309 36.7113 46.8322 36.6293V36.2899C46.8375 35.7905 46.7623 35.2936 46.6096 34.819C46.4775 34.4026 46.264 34.0178 45.9819 33.6875L45.9896 33.6773ZM44.6007 35.5092H42.21C42.1694 35.5093 42.1302 35.4937 42.1005 35.4655C42.0707 35.4374 42.0526 35.3988 42.0498 35.3575C42.0696 35.2428 42.1036 35.131 42.1511 35.0249C42.2191 34.871 42.3171 34.7328 42.4393 34.6187C42.7281 34.353 43.1061 34.2101 43.4955 34.2193C43.6667 34.213 43.8372 34.2433 43.9961 34.3082C44.1551 34.3731 44.2988 34.4711 44.4182 34.5961C44.6174 34.8005 44.7382 35.0705 44.7587 35.3575C44.7567 35.3983 44.7395 35.4367 44.7105 35.4649C44.6815 35.4931 44.643 35.5089 44.6029 35.5092" fill="white"/>
<path d="M38.6453 33.8086C38.3853 33.4737 38.0583 33.1987 37.6859 33.0019C37.2894 32.796 36.8489 32.693 36.4038 32.7021C35.9928 32.6975 35.5842 32.7656 35.1962 32.9035C34.9423 32.9953 34.71 33.1398 34.514 33.3278C34.5097 33.3332 34.5049 33.3382 34.4995 33.3425L34.4583 33.3843L34.4461 33.3979C34.4252 33.4166 34.3982 33.4267 34.3704 33.4262C34.3409 33.4262 34.3126 33.4143 34.2917 33.3931C34.2708 33.3718 34.2591 33.3431 34.2591 33.3131V29.7964C34.2567 29.7163 34.2246 29.64 34.1694 29.5827C34.1141 29.5255 34.0396 29.4915 33.9608 29.4875H32.4928C32.413 29.4927 32.338 29.5283 32.2829 29.5873C32.2278 29.6462 32.1966 29.7242 32.1957 29.8055V39.7715C32.1967 39.8539 32.2286 39.9327 32.2849 39.992C32.3411 40.0513 32.4175 40.0866 32.4984 40.0906H33.7972C33.8767 40.0862 33.9518 40.0522 34.0081 39.995C34.0644 39.9377 34.0979 39.8614 34.1022 39.7806V39.4604C34.1062 39.4334 34.1197 39.4088 34.1401 39.3911C34.1606 39.3734 34.1866 39.3639 34.2135 39.3642C34.2273 39.3638 34.2411 39.3663 34.2539 39.3715C34.2667 39.3768 34.2784 39.3847 34.288 39.3947L34.3281 39.4343C34.366 39.4762 34.4071 39.5169 34.4494 39.5588C34.5919 39.6908 34.7496 39.8048 34.9191 39.8982C35.1049 40.0035 35.3011 40.0884 35.5045 40.1517C35.7245 40.2182 35.9528 40.2513 36.1823 40.2501C36.645 40.2561 37.1042 40.1672 37.5323 39.9888C37.9264 39.8241 38.2815 39.5761 38.5741 39.2612C38.8692 38.94 39.0965 38.5607 39.2418 38.1467C39.547 37.1072 39.5543 36.0007 39.263 34.9571C39.1283 34.5386 38.9226 34.1472 38.6553 33.8007L38.6453 33.8086ZM36.9736 37.9227C36.6381 38.2286 36.2033 38.3978 35.7527 38.3978C35.302 38.3978 34.8673 38.2286 34.5318 37.9227C34.2413 37.6036 34.0977 36.9587 34.0977 36.445C34.0977 35.9313 34.2413 35.3384 34.5318 35.0193C34.8673 34.7134 35.302 34.5442 35.7527 34.5442C36.2033 34.5442 36.6381 34.7134 36.9736 35.0193C37.2619 35.3384 37.4066 35.9302 37.4066 36.445C37.4066 36.9598 37.2619 37.6036 36.9736 37.9227Z" fill="white"/>
<path d="M81.3017 29.4875H79.847C79.7663 29.4902 79.6897 29.5243 79.6331 29.5829C79.5765 29.6415 79.5443 29.72 79.5432 29.8021V33.3391C79.5397 33.3665 79.5264 33.3916 79.5059 33.4097C79.4854 33.4279 79.4591 33.4378 79.4319 33.4375C79.4151 33.4377 79.3984 33.4341 79.3832 33.4268C79.368 33.4196 79.3546 33.4089 79.344 33.3957V33.3866L79.3139 33.3572C79.3139 33.3459 79.2939 33.3368 79.285 33.3266C79.0898 33.1387 78.8582 32.9942 78.605 32.9023C78.2178 32.7625 77.8094 32.6928 77.3985 32.6964C76.9485 32.6866 76.5032 32.7913 76.1031 33.0008C75.7308 33.1982 75.4035 33.4731 75.1426 33.8075C74.8766 34.1545 74.6717 34.5458 74.5371 34.9639C74.2461 36.0072 74.2538 37.1133 74.5594 38.1524C74.705 38.5662 74.9322 38.9455 75.2272 39.2669C75.5187 39.5827 75.8736 39.8312 76.2678 39.9955C76.6967 40.1741 77.1566 40.2626 77.62 40.2558C77.8461 40.2568 78.0711 40.224 78.2878 40.1585C78.4945 40.0964 78.6938 40.0114 78.8821 39.905C79.0509 39.8105 79.2085 39.6966 79.3518 39.5656L79.4775 39.4377L79.5109 39.4015C79.5213 39.3906 79.5338 39.3819 79.5475 39.3759C79.5613 39.37 79.5761 39.3669 79.5911 39.3669C79.606 39.3669 79.6208 39.37 79.6346 39.3759C79.6484 39.3819 79.6608 39.3906 79.6712 39.4015C79.6871 39.418 79.6979 39.4388 79.7024 39.4615V39.7783C79.704 39.8606 79.7364 39.9393 79.7931 39.9981C79.8498 40.057 79.9264 40.0917 80.0073 40.0951H81.3006C81.3827 40.0919 81.4603 40.0565 81.5174 39.9964C81.5744 39.9363 81.6064 39.8562 81.6066 39.7726V29.8157C81.6067 29.7327 81.575 29.6529 81.5183 29.5932C81.4617 29.5334 81.3844 29.4984 81.3028 29.4955L81.3017 29.4875ZM79.2694 37.9385C78.9339 38.2444 78.4992 38.4136 78.0485 38.4136C77.5979 38.4136 77.1631 38.2444 76.8276 37.9385C76.5371 37.6194 76.3935 36.9745 76.3935 36.4597C76.3935 35.9449 76.5371 35.3542 76.8276 35.0352C77.1631 34.7293 77.5979 34.5601 78.0485 34.5601C78.4992 34.5601 78.9339 34.7293 79.2694 35.0352C79.5599 35.3542 79.7046 35.9403 79.7046 36.4597C79.7046 36.979 79.5599 37.6194 79.2694 37.9385Z" fill="white"/>
<path d="M24.1345 29.5032C23.8574 29.5019 23.5884 29.5982 23.3732 29.7758C23.1581 29.9534 23.0102 30.2013 22.9546 30.4773C22.899 30.7533 22.9391 31.0404 23.0683 31.2896C23.1974 31.5389 23.4075 31.735 23.6628 31.8445C23.9181 31.9541 24.2028 31.9703 24.4686 31.8904C24.7343 31.8106 24.9647 31.6396 25.1204 31.4065C25.2761 31.1735 25.3476 30.8928 25.3226 30.6122C25.2977 30.3316 25.1779 30.0685 24.9837 29.8676C24.8742 29.751 24.7423 29.6585 24.5962 29.5959C24.4502 29.5332 24.293 29.5017 24.1345 29.5032Z" fill="white"/>
<path d="M24.8512 32.8694H23.4178C23.3361 32.8693 23.2576 32.9015 23.1989 32.9591C23.1401 33.0168 23.1057 33.0953 23.1028 33.1783V39.7804C23.1048 39.8626 23.1383 39.9407 23.196 39.9981C23.2538 40.0556 23.3314 40.0879 23.4122 40.0882H24.8512C24.9321 40.0874 25.0096 40.055 25.0676 39.9977C25.1256 39.9404 25.1597 39.8626 25.1629 39.7804V33.1862C25.1592 33.103 25.1242 33.0245 25.0652 32.9668C25.0061 32.9091 24.9276 32.8767 24.8457 32.8762" fill="white"/>
<path d="M73.364 32.8695H72.0674C71.9885 32.872 71.9134 32.9048 71.8573 32.9612C71.8011 33.0177 71.768 33.0937 71.7647 33.1739V33.5133C71.7617 33.5281 71.7558 33.5422 71.7473 33.5546C71.7389 33.5671 71.728 33.5777 71.7155 33.5858C71.7029 33.5939 71.6889 33.5994 71.6742 33.6019C71.6595 33.6044 71.6445 33.6039 71.63 33.6004C71.6079 33.5957 71.5877 33.5843 71.5722 33.5676L71.551 33.5439C71.5057 33.4923 71.4566 33.4442 71.4041 33.4002C71.2544 33.2648 71.0875 33.1507 70.9077 33.0607C70.7002 32.9511 70.481 32.8661 70.2544 32.8073C69.9902 32.7401 69.7188 32.707 69.4464 32.7088C69.0009 32.7017 68.5603 32.8054 68.1632 33.0109C67.7937 33.2054 67.4676 33.475 67.2049 33.803C66.9373 34.1424 66.7312 34.5274 66.5961 34.9401C66.4556 35.451 66.3838 35.9789 66.3824 36.5095C66.3779 37.0418 66.458 37.5713 66.6195 38.0777C66.7662 38.4917 66.9933 38.8715 67.2873 39.1944C67.5807 39.5091 67.936 39.7574 68.3301 39.9231C68.7589 40.1007 69.2183 40.1892 69.6813 40.1834C70.0244 40.1768 70.3637 40.1078 70.6829 39.9797C70.9273 39.885 71.1502 39.741 71.3385 39.5565C71.3431 39.5507 71.3483 39.5454 71.354 39.5407C71.3718 39.5226 71.3885 39.5045 71.4052 39.4852C71.4275 39.4628 71.4574 39.4499 71.4887 39.449C71.5173 39.449 71.5448 39.4601 71.5655 39.4801C71.5862 39.5002 71.5986 39.5275 71.6 39.5565V39.9378C71.6079 40.1579 71.5725 40.3775 71.4961 40.5836C71.4197 40.7897 71.3037 40.9783 71.1548 41.1383C70.858 41.4498 70.3917 41.6056 69.7558 41.6056C69.3548 41.6102 68.9574 41.5289 68.5894 41.3669C68.3193 41.2437 68.0627 41.092 67.8237 40.9143C67.7585 40.871 67.68 40.8534 67.6029 40.8649C67.5258 40.8764 67.4556 40.9161 67.4053 40.9765L66.5939 42.2008C66.5487 42.2701 66.5316 42.3544 66.5461 42.4362C66.5607 42.518 66.6057 42.5909 66.6718 42.6398C67.0815 42.9272 67.5405 43.1341 68.0252 43.2496C68.6049 43.3851 69.1977 43.4538 69.7926 43.4544C71.0969 43.4544 72.0689 43.1203 72.7085 42.452C73.3481 41.7836 73.6675 40.803 73.6668 39.5101V33.1739C73.6637 33.0935 73.6308 33.0172 73.5746 32.9605C73.5184 32.9038 73.4432 32.8709 73.364 32.8684V32.8695ZM71.6412 37.2811C71.5569 37.4811 71.4352 37.6625 71.2828 37.8152C71.1272 37.9689 70.9449 38.0921 70.7452 38.1784C70.5398 38.2707 70.3177 38.3184 70.0931 38.3184C69.8684 38.3184 69.6463 38.2707 69.4409 38.1784C69.2465 38.0901 69.0694 37.9671 68.9178 37.8152C68.765 37.6628 68.6433 37.4813 68.5594 37.2811C68.4765 37.0256 68.4348 36.7581 68.4359 36.4891C68.4352 36.1878 68.4768 35.888 68.5594 35.5986C68.6429 35.3989 68.7647 35.2181 68.9178 35.0668C69.0696 34.9149 69.2467 34.7915 69.4409 34.7025C69.6463 34.6101 69.8684 34.5624 70.0931 34.5624C70.3177 34.5624 70.5398 34.6101 70.7452 34.7025C70.9448 34.7896 71.127 34.9131 71.2828 35.0668C71.4351 35.2187 71.5568 35.3994 71.6412 35.5986C71.7233 35.8881 71.7649 36.1878 71.7647 36.4891C71.7658 36.7581 71.724 37.0256 71.6412 37.2811Z" fill="white"/>
<path d="M14.533 33.6263C14.3493 33.3337 14.0892 33.0986 13.7818 32.9475C13.3827 32.7668 12.9484 32.6809 12.5119 32.6963C12.2784 32.695 12.046 32.7282 11.8218 32.7947C11.6277 32.8522 11.4425 32.9376 11.272 33.0482C11.1218 33.1437 10.9867 33.262 10.8714 33.3989C10.8657 33.4035 10.8612 33.4093 10.858 33.4159L10.8191 33.4634L10.7979 33.4917C10.7756 33.5113 10.7466 33.5212 10.7171 33.5191C10.6877 33.5169 10.6603 33.503 10.641 33.4804C10.6304 33.468 10.6227 33.4533 10.6187 33.4374V29.7986C10.617 29.7145 10.5834 29.6343 10.5249 29.5749C10.4664 29.5154 10.3876 29.4812 10.3049 29.4795H8.85802C8.77652 29.4824 8.69928 29.5172 8.64245 29.5767C8.58562 29.6362 8.55359 29.7157 8.55307 29.7986V39.768C8.55335 39.8528 8.58641 39.9342 8.64511 39.9945C8.70382 40.0548 8.78347 40.0893 8.86693 40.0904H10.3004C10.3839 40.0893 10.4635 40.0548 10.5222 39.9945C10.5809 39.9342 10.614 39.8528 10.6143 39.768V36.291C10.6133 36.0749 10.6275 35.859 10.6566 35.6449C10.6794 35.4535 10.7372 35.2682 10.8268 35.0984C10.9159 34.9346 11.0471 34.7985 11.2064 34.7046C11.4066 34.5997 11.6302 34.5494 11.8552 34.5587C12.0545 34.537 12.255 34.5849 12.4239 34.6945C12.5928 34.8041 12.72 34.9689 12.7845 35.1617C12.8568 35.3475 12.8992 35.5439 12.9103 35.7433C12.9226 35.9538 12.9315 36.1563 12.9315 36.3532V39.7748C12.9317 39.8596 12.9648 39.941 13.0235 40.0013C13.0822 40.0616 13.1619 40.096 13.2453 40.0972H14.6788C14.7628 40.0966 14.8431 40.0625 14.9025 40.0021C14.9618 39.9418 14.9954 39.8601 14.996 39.7748V35.9176C14.9986 35.4906 14.9666 35.0641 14.9003 34.6424C14.8465 34.2813 14.7215 33.935 14.533 33.6241" fill="white"/>
<path d="M66.0018 32.7032H65.6145C65.2102 32.6885 64.8109 32.7985 64.4693 33.0189C64.2461 33.1788 64.0534 33.3785 63.9006 33.6084L63.8727 33.6469L63.8538 33.6774C63.8323 33.7005 63.8027 33.7139 63.7715 33.7148C63.7453 33.7152 63.7197 33.7063 63.6994 33.6895C63.679 33.6728 63.6651 33.6493 63.6602 33.6231V33.1864C63.6593 33.1023 63.6258 33.022 63.5671 32.9629C63.5083 32.9038 63.429 32.8707 63.3463 32.8707H61.9139C61.8353 32.8705 61.7594 32.9001 61.701 32.9536C61.6426 33.0071 61.6058 33.0808 61.5978 33.1603V39.8021C61.6059 39.8799 61.6415 39.952 61.698 40.0051C61.7545 40.0582 61.8281 40.0886 61.905 40.0906H63.3597C63.4412 40.0888 63.5189 40.0547 63.5761 39.9955C63.6333 39.9363 63.6654 39.8568 63.6657 39.7738V36.8399C63.6646 36.5304 63.6835 36.2212 63.7225 35.9143C63.7492 35.6565 63.8313 35.4078 63.9629 35.1857C64.0929 34.979 64.2798 34.8157 64.5004 34.7161C64.7368 34.611 64.9915 34.5552 65.2495 34.552H66.0085C66.0873 34.5503 66.1625 34.5187 66.2196 34.4634C66.2766 34.4081 66.3113 34.3332 66.3168 34.2533V33.0087C66.3113 32.9299 66.2774 32.8559 66.2215 32.8009C66.1656 32.746 66.0917 32.714 66.0141 32.7111" fill="white"/>
<path d="M30.6086 36.154C30.3485 35.9955 30.0663 35.8776 29.7717 35.8044L28.9359 35.5996C28.7136 35.5471 28.4972 35.4712 28.2903 35.3733C28.2142 35.3414 28.1493 35.2868 28.1043 35.2167C28.0592 35.1467 28.036 35.0644 28.0377 34.9807C28.0302 34.8879 28.0495 34.795 28.0932 34.7132C28.1369 34.6314 28.2031 34.5643 28.2837 34.5202C28.4397 34.4337 28.6145 34.3882 28.7923 34.3878C29.1601 34.3791 29.5167 34.5167 29.7862 34.7714C29.844 34.8227 29.9181 34.851 29.9948 34.851C30.0716 34.851 30.1457 34.8227 30.2035 34.7714L31.0494 33.8662C31.0983 33.8085 31.1253 33.7348 31.1253 33.6586C31.1253 33.5823 31.0983 33.5087 31.0494 33.4509C30.7802 33.2005 30.4598 33.0138 30.1111 32.9044C29.6785 32.7687 29.2284 32.6993 28.7756 32.6985C28.4281 32.6976 28.0821 32.7448 27.7472 32.8388C27.4241 32.9256 27.1201 33.0738 26.8513 33.2756C26.5882 33.4763 26.373 33.7346 26.2213 34.0314C26.0544 34.3702 25.9719 34.7455 25.9809 35.1244C25.9624 35.5059 26.0508 35.8849 26.2358 36.2174C26.3942 36.4796 26.6161 36.6962 26.8802 36.8465C27.1414 37.0011 27.4223 37.1183 27.7149 37.195L28.5519 37.402C28.7762 37.454 28.9934 37.5338 29.1985 37.6396C29.2767 37.6777 29.3422 37.7381 29.3871 37.8135C29.432 37.8888 29.4542 37.9759 29.4512 38.0639C29.454 38.1531 29.4279 38.2408 29.3771 38.3135C29.3262 38.3863 29.2534 38.4401 29.1696 38.4667C28.9633 38.5438 28.7449 38.5821 28.5252 38.5799C28.2404 38.5871 27.9588 38.5184 27.7083 38.3808C27.5437 38.2867 27.3937 38.1686 27.2631 38.03C27.202 37.9813 27.1254 37.9573 27.048 37.9625C26.9705 37.9678 26.8977 38.0019 26.8435 38.0583L25.9932 39.0766C25.9453 39.1421 25.9239 39.2238 25.9335 39.3048C25.943 39.3858 25.9827 39.46 26.0444 39.5122C26.3288 39.764 26.6632 39.9504 27.0249 40.0587C27.4836 40.2001 27.9602 40.2725 28.4395 40.2737C28.8036 40.2723 29.1667 40.2344 29.5235 40.1606C29.8731 40.0923 30.2081 39.9617 30.5129 39.7747C30.8033 39.5904 31.0484 39.3412 31.2297 39.0461C31.4262 38.6985 31.5222 38.3016 31.5068 37.901C31.5246 37.5197 31.4367 37.141 31.253 36.808C31.0909 36.5445 30.8692 36.3242 30.6064 36.1653" fill="white"/>
<path d="M21.8607 32.8705H20.4283C20.3475 32.8716 20.2701 32.9038 20.2118 32.9608C20.1535 33.0177 20.1187 33.0951 20.1145 33.1772V36.67C20.1145 36.8857 20.1 37.1012 20.0711 37.315C20.0451 37.5068 19.9843 37.6921 19.8919 37.8615C19.8049 38.0258 19.6741 38.1619 19.5146 38.2541C19.3147 38.3602 19.091 38.4113 18.8657 38.4023C18.6481 38.4162 18.4321 38.3566 18.2514 38.2326C18.1089 38.1189 17.9989 37.9685 17.9331 37.797C17.8624 37.6112 17.8211 37.4153 17.8106 37.2165C17.7962 37.0049 17.7906 36.8024 17.7906 36.6067V33.1749C17.7853 33.0932 17.7499 33.0166 17.6916 32.9602C17.6332 32.9038 17.5561 32.8718 17.4756 32.8705H16.0421C15.9582 32.8678 15.8766 32.899 15.8152 32.9573C15.7539 33.0157 15.7178 33.0963 15.7149 33.1817V37.0434C15.7127 37.4704 15.7451 37.8969 15.8117 38.3186C15.8657 38.6783 15.9874 39.024 16.1701 39.3369C16.354 39.6299 16.6145 39.865 16.9225 40.0158C17.3219 40.1946 17.7563 40.2782 18.1924 40.2602C18.4251 40.2615 18.6568 40.2283 18.8802 40.1617C19.0783 40.1016 19.2685 40.0172 19.4467 39.9106C19.6105 39.8126 19.7603 39.6923 19.8919 39.553C19.9353 39.5066 19.9731 39.4591 20.0032 39.4127C20.0128 39.4025 20.0244 39.3943 20.0372 39.3886C20.05 39.383 20.0638 39.38 20.0777 39.3799C20.1072 39.3799 20.1356 39.3918 20.1564 39.413C20.1773 39.4342 20.189 39.463 20.189 39.493V39.7702C20.1902 39.8552 20.224 39.9363 20.2833 39.9962C20.3426 40.056 20.4227 40.0899 20.5062 40.0905H21.8585C21.9422 40.0905 22.0226 40.0568 22.082 39.9968C22.1414 39.9368 22.1751 39.8554 22.1757 39.7702V33.1749C22.1714 33.0925 22.136 33.0148 22.077 32.9582C22.0179 32.9015 21.9397 32.8701 21.8585 32.8705" fill="white"/>
<path d="M52.8901 38.409H49.737C49.7111 38.4042 49.6877 38.3902 49.671 38.3695C49.6543 38.3488 49.6454 38.3227 49.6458 38.2959C49.6466 38.2671 49.6572 38.2395 49.6758 38.2178L49.7215 38.1737L49.7571 38.1398L52.7342 35.2624L52.9134 35.0961C52.9781 35.0378 53.0304 34.9666 53.0671 34.8871C53.1039 34.8075 53.1243 34.7212 53.1271 34.6333V33.1862C53.1263 33.1013 53.0926 33.0202 53.0335 32.9603C52.9744 32.9004 52.8945 32.8666 52.811 32.866H47.6447C47.5623 32.8665 47.4833 32.8997 47.4245 32.9584C47.3657 33.0171 47.3317 33.0968 47.3297 33.1805V34.2328C47.332 34.3166 47.3661 34.3962 47.4248 34.455C47.4835 34.5138 47.5623 34.5473 47.6447 34.5485H50.4716C50.4992 34.5513 50.5247 34.5644 50.5432 34.5854C50.5617 34.6063 50.5719 34.6335 50.5718 34.6616C50.5707 34.685 50.5634 34.7077 50.5506 34.7272L47.8884 37.3568L47.5 37.7392L47.4277 37.8105C47.3154 37.9276 47.2513 38.0838 47.2485 38.2473V39.7793C47.251 39.8619 47.2849 39.9404 47.3429 39.9984C47.401 40.0563 47.4788 40.0893 47.5601 40.0904H52.8956C52.9788 40.0892 53.0582 40.0549 53.1167 39.9948C53.1752 39.9347 53.2081 39.8536 53.2084 39.7691V38.7293C53.2078 38.6449 53.1747 38.5641 53.1163 38.5043C53.0578 38.4444 52.9786 38.4102 52.8956 38.409" fill="white"/>
<path d="M92.3367 29.3777H91.8492C91.7681 29.3812 91.6914 29.4163 91.6351 29.4757C91.5787 29.5351 91.547 29.6142 91.5465 29.6968V39.7669C91.5459 39.8509 91.578 39.9318 91.6357 39.992C91.6934 40.0521 91.7721 40.0867 91.8548 40.0882H92.3267C92.4091 40.0861 92.4873 40.0513 92.5448 39.9913C92.6022 39.9312 92.6342 39.8506 92.6339 39.7669V29.6968C92.6342 29.614 92.6027 29.5343 92.5462 29.4747C92.4897 29.4152 92.4125 29.3803 92.3311 29.3777" fill="white"/>
<path d="M89.9539 33.4533C89.739 33.2128 89.4724 33.0261 89.1748 32.9079C88.8206 32.7665 88.4423 32.6981 88.0618 32.7065C87.5733 32.703 87.0935 32.839 86.6773 33.0991C86.4991 33.2105 86.3369 33.3464 86.1954 33.5031C86.1631 33.5393 86.132 33.5755 86.1041 33.6162L86.0674 33.666C86.0628 33.6736 86.0576 33.6808 86.0518 33.6875C86.0419 33.699 86.0295 33.7082 86.0157 33.7143C86.0018 33.7203 85.9868 33.7232 85.9717 33.7226C85.945 33.7229 85.9191 33.7135 85.8987 33.6961C85.8782 33.6786 85.8647 33.6543 85.8604 33.6275V33.1908C85.8587 33.1082 85.8259 33.0294 85.7688 32.9706C85.7116 32.9119 85.6344 32.8777 85.5532 32.8751H85.1581C85.0768 32.8777 84.9996 32.9121 84.9426 32.9711C84.8856 33.0301 84.8532 33.1092 84.8521 33.1919V39.7794C84.8543 39.8612 84.8873 39.939 84.9442 39.9969C85.0011 40.0547 85.0777 40.0882 85.1581 40.0905H85.6334C85.716 40.089 85.7947 40.0544 85.8525 39.9943C85.9102 39.9341 85.9422 39.8532 85.9416 39.7692V36.282C85.9379 35.9325 85.9776 35.5838 86.0596 35.2444C86.1275 34.9534 86.2491 34.6781 86.418 34.4331C86.5808 34.2068 86.7971 34.0259 87.0468 33.907C87.335 33.7792 87.6473 33.717 87.9617 33.7248C88.4747 33.7248 88.8576 33.8866 89.0958 34.2091C89.3559 34.5952 89.4838 35.0577 89.4597 35.525V39.7669C89.4591 39.8505 89.4909 39.9309 89.5481 39.9908C89.6054 40.0507 89.6836 40.0853 89.7658 40.0871H90.2432C90.3246 40.0848 90.402 40.0505 90.459 39.9914C90.5161 39.9323 90.5485 39.8531 90.5493 39.7703V35.4119C90.5518 35.0423 90.5023 34.6742 90.4024 34.3189C90.3144 34.0023 90.1599 33.7089 89.9494 33.4589" fill="white"/>
<path d="M83.1815 38.6354C83.0792 38.6311 82.9772 38.6497 82.8828 38.69C82.7883 38.7303 82.7038 38.7912 82.6351 38.8685C82.4964 39.0141 82.4198 39.2095 82.4218 39.4122C82.4238 39.615 82.5044 39.8087 82.646 39.9515C82.7876 40.0942 82.9788 40.1745 83.1782 40.1749C83.3776 40.1753 83.5692 40.0957 83.7113 39.9535L83.728 39.9377C83.8616 39.7928 83.9359 39.6017 83.9359 39.4031C83.9359 39.2045 83.8616 39.0134 83.728 38.8685C83.66 38.7928 83.5769 38.7328 83.4841 38.6926C83.3914 38.6524 83.2912 38.6329 83.1904 38.6354" fill="white"/>
</svg>
