<svg width="117" height="40" viewBox="0 0 117 40" fill="none" xmlns="http://www.w3.org/2000/svg">
<path d="M35.1117 17.9678C35.0032 17.6855 33.5021 14.9155 30.7167 11.4404C30.6459 11.3563 30.6013 11.2534 30.5884 11.1443C30.4195 9.12396 30.1391 7.11449 29.7485 5.12505C29.7041 4.92505 29.5983 4.74392 29.4457 4.60707C29.2932 4.47022 29.1016 4.38452 28.8979 4.36197L25.9964 4.01095C25.9709 4.00943 25.9454 4.00943 25.92 4.01095C25.758 4.01095 25.6026 4.07526 25.4881 4.18975C25.3735 4.30423 25.3092 4.45951 25.3092 4.62142V5.62564C25.3092 5.63535 25.3053 5.64467 25.2984 5.65154C25.2916 5.65841 25.2823 5.66227 25.2725 5.66227C25.2635 5.66247 25.2548 5.65919 25.2481 5.65311C23.4352 4.01123 21.4782 2.53559 19.4008 1.24399C18.9766 0.960152 18.4774 0.809239 17.9669 0.810555C17.4564 0.809239 16.9571 0.960152 16.5329 1.24399C6.54719 7.39448 1.04657 17.4169 0.834299 17.9678C0.77329 18.0995 0.742013 18.2429 0.742686 18.388C0.74336 18.5331 0.775967 18.6763 0.838196 18.8074C0.900425 18.9384 0.990751 19.0542 1.10277 19.1465C1.21479 19.2388 1.34575 19.3053 1.48637 19.3414L4.36954 19.903C4.55962 19.9551 4.72972 20.0629 4.85792 20.2125C4.98612 20.3621 5.06654 20.5467 5.08881 20.7424C5.11171 21.2506 5.65689 32.5962 6.33951 35.5387C6.39577 35.7499 6.52033 35.9365 6.69379 36.0696C6.86725 36.2026 7.07987 36.2746 7.29853 36.2743H7.31991C8.99972 36.2331 10.5375 36.2056 12.2066 36.1827H12.3441C12.4295 36.1819 12.5113 36.1475 12.5716 36.087C12.6319 36.0264 12.6659 35.9446 12.6663 35.8592V35.8516C12.5991 34.8611 12.4525 32.5962 12.3349 30.2047C12.3349 30.1452 12.3273 30.0704 12.3242 30.0094C12.319 29.91 12.2896 29.8134 12.2384 29.728C12.1873 29.6427 12.1161 29.5711 12.031 29.5195C11.5928 29.2578 11.2257 28.8923 10.9623 28.4552C10.6989 28.0181 10.5472 27.523 10.5207 27.0135C10.368 23.0347 10.2932 18.4379 10.51 14.8392C10.5133 14.6858 10.5773 14.5399 10.6882 14.4337C10.799 14.3276 10.9475 14.2697 11.101 14.273C11.2545 14.2762 11.4004 14.3402 11.5067 14.451C11.6129 14.5618 11.6708 14.7102 11.6676 14.8636V14.9094C11.5255 17.307 11.5149 20.1426 11.5637 22.9401C11.567 23.1223 11.6425 23.2957 11.7736 23.4222C11.9048 23.5487 12.0809 23.6179 12.2631 23.6147C12.4454 23.6114 12.6189 23.536 12.7455 23.4049C12.8721 23.2738 12.9414 23.0978 12.9381 22.9157C12.8862 20.0999 12.9015 17.2459 13.0465 14.8392C13.0498 14.6858 13.1139 14.5399 13.2247 14.4337C13.3355 14.3276 13.484 14.2697 13.6375 14.273C13.791 14.2762 13.937 14.3402 14.0432 14.451C14.1495 14.5618 14.2073 14.7102 14.2041 14.8636C14.2041 14.8788 14.2041 14.8941 14.2041 14.9094C14.0636 17.2948 14.0514 20.1121 14.1002 22.8958C14.1031 23.078 14.1782 23.2516 14.3091 23.3783C14.44 23.5051 14.6159 23.5748 14.7981 23.5719C14.9804 23.5691 15.154 23.494 15.2809 23.3632C15.4078 23.2324 15.4775 23.0566 15.4746 22.8745C15.4227 20.0709 15.438 17.2276 15.5831 14.8376C15.5863 14.6842 15.6504 14.5384 15.7612 14.4322C15.8161 14.3796 15.8808 14.3384 15.9516 14.3108C16.0225 14.2832 16.098 14.2698 16.1741 14.2714C16.2501 14.273 16.325 14.2896 16.3946 14.3201C16.4642 14.3507 16.5271 14.3946 16.5797 14.4495C16.6323 14.5043 16.6736 14.569 16.7012 14.6398C16.7288 14.7106 16.7422 14.7861 16.7406 14.8621C16.7406 14.8773 16.7406 14.8926 16.7406 14.9078C16.5344 18.4043 16.6016 22.8317 16.7406 26.7159C16.7406 26.7159 16.7406 26.7494 16.7406 26.7525C16.7406 26.7555 16.7406 26.7906 16.7406 26.8105V26.8502C16.7409 27.354 16.6184 27.8503 16.3837 28.2963C16.1491 28.7422 15.8093 29.1243 15.3937 29.4096C15.3189 29.4614 15.257 29.5295 15.2125 29.6089C15.1681 29.6882 15.1423 29.7766 15.1371 29.8674C15.1371 29.8674 15.0669 30.4642 15.3296 33.3532C15.4533 34.6154 15.5464 35.4898 15.5907 35.8851C15.6004 35.959 15.6368 36.0268 15.6931 36.0757C15.7493 36.1247 15.8215 36.1513 15.8961 36.1507H16.1634H17.8844H18.1074C18.8587 36.1507 19.5734 36.1507 20.2636 36.1507L21.8961 36.1644C21.9711 36.165 22.0437 36.1379 22.1001 36.0883C22.1564 36.0388 22.1925 35.9703 22.2015 35.8958C22.5802 32.4329 22.6688 30.487 22.6688 30.487C22.6667 30.4041 22.6347 30.3246 22.5785 30.2635C22.5224 30.2023 22.4459 30.1635 22.3634 30.1543L20.3782 29.8812C20.2427 29.8678 20.1144 29.8139 20.01 29.7265C19.9057 29.6391 19.8301 29.5222 19.7933 29.3913C19.7683 29.2916 19.76 29.1884 19.7689 29.086C20.5736 17.542 24.3807 13.6518 24.3807 13.6518C24.4367 13.5946 24.4987 13.5434 24.5655 13.4992C24.641 13.4445 24.7281 13.4079 24.8199 13.392C24.9118 13.3762 25.0061 13.3816 25.0956 13.4078C25.1851 13.4341 25.2674 13.4804 25.3362 13.5433C25.4049 13.6063 25.4584 13.6841 25.4924 13.7708C25.5198 13.8611 25.5362 13.9544 25.5413 14.0486C25.8696 17.6763 25.7093 23.8512 25.5062 28.6678C25.3336 32.7565 25.1244 35.966 25.1244 35.966C25.1244 35.9973 25.1306 36.0282 25.1425 36.0571C25.1545 36.086 25.1721 36.1123 25.1942 36.1344C25.2163 36.1565 25.2426 36.174 25.2715 36.186C25.3004 36.1979 25.3313 36.2041 25.3626 36.2041C26.4438 36.2224 27.5006 36.2438 28.6367 36.2713H28.6505C28.8691 36.2715 29.0818 36.1996 29.2552 36.0665C29.4287 35.9335 29.5532 35.7468 29.6095 35.5356C30.2921 32.5932 30.8312 21.2476 30.8602 20.7394C30.8825 20.5436 30.9629 20.3591 31.0911 20.2095C31.2193 20.0599 31.3894 19.9521 31.5795 19.9L34.4535 19.349C34.5941 19.313 34.7251 19.2464 34.8371 19.1541C34.9491 19.0619 35.0394 18.9461 35.1016 18.815C35.1639 18.6839 35.1965 18.5407 35.1972 18.3957C35.1978 18.2506 35.1666 18.1071 35.1055 17.9755L35.1117 17.9678Z" fill="#FF8000"/>
<path d="M46.3648 13.9891H43.9581C43.1763 13.9891 43.1763 13.9891 43.0144 14.9048C42.8525 15.8205 42.851 15.848 43.5672 15.848H44.9996L44.1857 20.4998C43.9902 21.5407 43.5351 22.2564 42.1348 22.6792C41.7774 22.7769 41.6766 22.9081 41.6766 23.0699C41.6766 23.2652 41.7408 23.4285 41.9042 23.8192C42.1317 24.3717 42.2615 24.4694 42.457 24.4694C42.6886 24.4478 42.9177 24.4044 43.1411 24.3397C45.1264 23.688 45.9403 22.1588 46.2656 20.338L47.1819 15.1002C47.3453 13.9937 47.3452 13.9937 46.3679 13.9937" fill="#FF8000"/>
<path d="M54.5379 13.9891C53.5606 13.9891 53.5606 13.9891 53.4308 14.8026L52.7146 19.0316C52.5191 20.2678 52.1938 20.9836 50.9889 20.9836C49.8176 20.9836 49.3946 20.2678 49.5901 19.1613L50.2727 15.1277C50.4682 13.9891 50.4361 13.9891 49.4267 13.9891C48.4509 13.9891 48.4173 13.9891 48.2875 14.7705L47.5713 18.9996C47.1483 21.4064 48.6403 22.9035 50.7614 22.9035C53.1376 22.9035 54.3425 21.8352 54.7319 19.2926L55.4481 15.0956C55.61 13.9891 55.5458 13.9891 54.5318 13.9891" fill="#FF8000"/>
<path d="M58.9971 20.9179C59.7789 20.8859 60.202 20.5288 60.202 20.1701C60.202 19.7122 59.6476 19.552 58.8993 19.3246C57.4348 18.8667 56.1002 18.3478 56.1002 16.7866C56.1002 14.9323 57.6273 13.9235 59.5499 13.9235C60.3638 13.9235 61.2755 13.957 61.8619 14.0211C62.3827 14.0868 62.5125 14.2501 62.3506 15.062C62.1887 15.8739 61.9917 15.9411 61.5366 15.909C60.9823 15.8754 60.2661 15.8113 59.4201 15.8113C58.4443 15.8113 58.1511 16.1685 58.1511 16.4935C58.1511 16.9163 58.542 17.1452 59.4537 17.4092C61.1457 17.8976 62.2529 18.5814 62.2529 20.045C62.2529 21.7695 60.9823 22.7768 58.9314 22.8424C57.952 22.8761 56.9717 22.8204 56.0024 22.6761C55.3519 22.5784 55.3183 22.5784 55.4817 21.6352C55.6451 20.7897 55.6451 20.7195 56.2636 20.7897C57.1698 20.9054 58.0839 20.9488 58.9971 20.9195" fill="#FF8000"/>
<path d="M69.6425 13.9891H64.1449C63.3631 13.9891 63.3631 13.9891 63.2012 14.9323C63.0393 15.8755 63.0714 15.8755 63.754 15.8755H65.5453L64.5374 21.6994C64.3419 22.8379 64.374 22.8379 65.3834 22.8379C66.3272 22.8379 66.3608 22.8379 66.4906 22.0245L67.532 15.8755H69.2577C70.038 15.8755 70.038 15.8755 70.2014 14.9323C70.3648 13.9891 70.3648 13.9891 69.6486 13.9891" fill="#FF8000"/>
<path d="M79.3503 15.8435C80.1307 15.8435 80.1307 15.8435 80.2941 14.9003C80.4575 13.9572 80.4575 13.9572 79.7413 13.9572H75.8013C74.4025 13.9572 74.4269 13.9572 74.207 15.3551L73.1976 21.2446C72.9365 22.7708 72.9701 22.7708 74.3689 22.7708H78.2111C79.025 22.7708 78.9914 22.7708 79.1548 21.8551C79.3182 20.9104 79.3182 20.9104 78.602 20.9104H75.2729L75.5326 19.227H78.2997C79.048 19.227 79.048 19.227 79.1778 18.348C79.3091 17.4323 79.3091 17.4323 78.2997 17.4323H75.8563L76.1174 15.8374L79.3503 15.8435Z" fill="#FF8000"/>
<path d="M83.5086 18.9661L84.7792 16.1686C84.8769 15.9412 84.8769 15.9412 85.0388 15.9412C85.2006 15.9412 85.2022 15.9412 85.2342 16.2006L85.6252 18.9661H83.5086ZM86.9599 15.0621C86.7644 13.9572 86.7644 13.9572 85.2022 13.9572C83.7377 13.9572 83.7697 13.9572 83.3131 14.8729L80.0253 21.7406C79.5381 22.7174 79.6359 22.809 80.8392 22.809C81.7845 22.809 81.7845 22.809 82.1739 21.9299L82.6947 20.7593H85.8848L86.0482 21.9299C86.178 22.809 86.2116 22.809 87.1553 22.809C88.2243 22.809 88.3266 22.7433 88.1311 21.6704L86.9599 15.0621Z" fill="#FF8000"/>
<path d="M94.7389 13.9891H89.2062C88.4243 13.9891 88.4243 13.9891 88.2625 14.9323C88.1006 15.8755 88.1311 15.8755 88.8153 15.8755H90.6051L89.5956 21.6994C89.4017 22.8379 89.4338 22.8379 90.4432 22.8379C91.3869 22.8379 91.419 22.8379 91.5488 22.0245L92.5918 15.8755H94.3159C95.0978 15.8755 95.0978 15.8755 95.2612 14.9323C95.4552 13.9891 95.4552 13.9891 94.7389 13.9891Z" fill="#FF8000"/>
<path d="M48.6891 28.7809V27.5905C48.6839 27.5202 48.6531 27.4543 48.6024 27.4054C48.5517 27.3564 48.4847 27.3278 48.4143 27.325H41.9577C41.8851 27.3272 41.8161 27.3571 41.7647 27.4084C41.7134 27.4597 41.6835 27.5287 41.6812 27.6012V28.7718C41.6838 28.8438 41.7133 28.9123 41.7639 28.9637C41.8145 29.0152 41.8825 29.0458 41.9546 29.0495H44.0742C44.1105 29.0523 44.1447 29.068 44.1704 29.0938C44.1962 29.1195 44.2119 29.1536 44.2147 29.1899V35.8914C44.215 35.9642 44.2432 36.0342 44.2934 36.087C44.3437 36.1398 44.4122 36.1713 44.485 36.1752H45.8961C45.9671 36.1722 46.0344 36.1423 46.0843 36.0916C46.1342 36.0409 46.163 35.9731 46.1648 35.9021V29.1579C46.1738 29.1282 46.1916 29.1019 46.2158 29.0825C46.2401 29.0631 46.2697 29.0516 46.3007 29.0495H48.4219C48.4908 29.0438 48.5554 29.0136 48.6039 28.9643C48.6524 28.915 48.6816 28.8499 48.6861 28.7809" fill="#FF8000"/>
<path d="M52.2839 30.4002C52.0612 30.1232 51.7671 29.9122 51.4333 29.7897C50.9972 29.6385 50.5371 29.5686 50.0757 29.5837C49.5813 29.5822 49.0902 29.6648 48.6235 29.8279C48.2551 29.9545 47.9107 30.1423 47.6049 30.3834C47.5556 30.4381 47.5292 30.5096 47.5312 30.5832C47.5332 30.6567 47.5634 30.7267 47.6156 30.7787L48.1974 31.3754C48.2238 31.402 48.2552 31.4231 48.2898 31.4375C48.3244 31.4519 48.3615 31.4593 48.399 31.4593C48.4364 31.4593 48.4735 31.4519 48.5081 31.4375C48.5427 31.4231 48.5741 31.402 48.6005 31.3754C48.7441 31.2481 48.9031 31.1394 49.0739 31.0518C49.3361 30.9212 49.6255 30.8548 49.9184 30.858C50.2264 30.853 50.5262 30.9574 50.7645 31.1526C50.9844 31.3357 51.1035 31.6623 51.1203 32.1858C51.1135 32.219 51.0959 32.2491 51.0702 32.2712C51.0445 32.2933 51.0121 32.3062 50.9782 32.3079C50.7583 32.3079 50.5201 32.3079 50.2758 32.3216C49.9692 32.329 49.6632 32.3539 49.3595 32.3964C49.0615 32.436 48.7673 32.5003 48.4799 32.5887C48.2069 32.6693 47.949 32.794 47.7164 32.958C47.4967 33.1146 47.3164 33.3199 47.1895 33.5578C47.0539 33.8338 46.9878 34.1387 46.9971 34.4461C46.99 34.7268 47.0502 35.0052 47.1727 35.258C47.2839 35.4872 47.4457 35.6881 47.6461 35.8456C47.8533 36.0079 48.0897 36.1291 48.3425 36.2027C48.606 36.282 48.8797 36.3221 49.1549 36.3217C49.5302 36.3233 49.9022 36.2512 50.2498 36.1096C50.5185 35.9999 50.7557 35.8253 50.9401 35.6014H50.9599C50.9788 35.5921 51.0001 35.5889 51.0208 35.5922C51.0416 35.5955 51.0609 35.6051 51.076 35.6197C51.0856 35.6287 51.0933 35.6395 51.0985 35.6516C51.1038 35.6637 51.1065 35.6767 51.1065 35.6899V35.9097C51.1095 35.9811 51.139 36.0488 51.1892 36.0996C51.2395 36.1504 51.3069 36.1806 51.3783 36.1844H52.5603C52.6326 36.1817 52.7011 36.1513 52.7516 36.0996C52.8022 36.048 52.831 35.9789 52.8322 35.9066V33.103C52.837 32.5318 52.7951 31.9612 52.7069 31.3968C52.6369 31.0423 52.4853 30.7089 52.2641 30.4231L52.2839 30.4002ZM51.1157 33.9119C51.1201 34.0863 51.079 34.2588 50.9966 34.4125C50.9169 34.5528 50.8055 34.6725 50.6713 34.762C50.531 34.8568 50.3763 34.9285 50.2132 34.9741C50.0405 35.0246 49.8616 35.0503 49.6817 35.0504C49.4702 35.0502 49.2626 34.9938 49.0801 34.8871C48.9894 34.8402 48.9141 34.7682 48.8632 34.6797C48.8123 34.5912 48.7879 34.49 48.793 34.3881C48.7886 34.2963 48.805 34.2047 48.8409 34.1201C48.8769 34.0356 48.9315 33.9602 49.0006 33.8997C49.1471 33.7786 49.3172 33.6892 49.5 33.6372C49.6991 33.5794 49.9039 33.5441 50.1109 33.5319C50.3277 33.5181 50.5048 33.512 50.6423 33.512H50.9676C51.003 33.5163 51.0359 33.5328 51.0605 33.5587C51.085 33.5846 51.0997 33.6183 51.1019 33.654L51.1157 33.9119Z" fill="#FF8000"/>
<path d="M70.9665 30.4002C70.7448 30.1228 70.4511 29.9116 70.1174 29.7897C69.6814 29.6385 69.2212 29.5686 68.7598 29.5837C68.2649 29.5821 67.7733 29.6647 67.306 29.8279C66.9379 29.9539 66.5939 30.1417 66.289 30.3834C66.2392 30.4377 66.2123 30.5092 66.214 30.5829C66.2157 30.6565 66.2459 30.7267 66.2982 30.7787L66.883 31.3769C66.9096 31.4038 66.9412 31.4251 66.9761 31.4396C67.0109 31.4542 67.0484 31.4617 67.0861 31.4617C67.1239 31.4617 67.1613 31.4542 67.1962 31.4396C67.2311 31.4251 67.2627 31.4038 67.2892 31.3769C67.4328 31.2496 67.5918 31.1409 67.7626 31.0534C68.0258 30.9225 68.3163 30.8561 68.6102 30.8595C68.9174 30.8539 69.2164 30.9584 69.4531 31.1541C69.673 31.3372 69.7922 31.6638 69.809 32.1873C69.8038 32.2213 69.7867 32.2523 69.7606 32.2747C69.7346 32.2971 69.7013 32.3094 69.6669 32.3094C69.4486 32.3094 69.2088 32.3094 68.966 32.3231C68.6594 32.3304 68.3535 32.3553 68.0497 32.3979C67.7507 32.4375 67.4555 32.5018 67.1671 32.5902C66.8942 32.6711 66.6363 32.7959 66.4035 32.9596C66.1848 33.1163 66.0055 33.3216 65.8797 33.5594C65.7425 33.8349 65.6753 34.14 65.6843 34.4476C65.6779 34.7283 65.7381 35.0065 65.8599 35.2595C65.9723 35.4884 66.1346 35.6891 66.3348 35.8471C66.5415 36.0093 66.7773 36.1306 67.0296 36.2042C67.6596 36.3906 68.3342 36.3578 68.9431 36.1111C69.212 36.0019 69.4492 35.8272 69.6333 35.6029H69.6517C69.6711 35.594 69.6928 35.591 69.714 35.5943C69.7351 35.5976 69.7549 35.6069 69.7708 35.6212C69.7878 35.6409 69.7979 35.6655 69.7998 35.6914V35.9112C69.802 35.9826 69.8311 36.0505 69.8812 36.1014C69.9313 36.1523 69.9987 36.1825 70.0701 36.1859H71.2566C71.3288 36.1828 71.3971 36.1524 71.4476 36.1008C71.498 36.0492 71.527 35.9803 71.5285 35.9081V33.103C71.5331 32.5319 71.4917 31.9613 71.4048 31.3968C71.333 31.0423 71.1804 30.7091 70.9589 30.4231L70.9665 30.4002ZM69.8044 33.9119C69.8102 34.0799 69.7723 34.2465 69.6944 34.3955C69.6165 34.5445 69.5013 34.6708 69.36 34.762C69.2198 34.8571 69.0651 34.9288 68.9019 34.9741C68.7299 35.0253 68.5514 35.0511 68.372 35.0504C68.1604 35.0506 67.9527 34.9942 67.7703 34.8871C67.6796 34.8402 67.6044 34.7682 67.5535 34.6797C67.5026 34.5912 67.4782 34.49 67.4832 34.3881C67.4779 34.2963 67.4938 34.2046 67.5295 34.12C67.5652 34.0353 67.6199 33.9599 67.6893 33.8997C67.8358 33.7786 68.0059 33.6892 68.1887 33.6372C68.3878 33.5795 68.5926 33.5442 68.7995 33.5319C69.0149 33.5181 69.192 33.512 69.3294 33.512H69.6547C69.6905 33.5159 69.7237 33.5323 69.7486 33.5583C69.7734 33.5842 69.7883 33.6181 69.7906 33.654L69.8044 33.9119Z" fill="#FF8000"/>
<path d="M87.0912 30.4001C86.8679 30.1231 86.5733 29.912 86.2391 29.7896C85.8035 29.6383 85.3438 29.5684 84.883 29.5836C84.3891 29.5821 83.8985 29.6647 83.4323 29.8278C83.063 29.9534 82.718 30.1413 82.4122 30.3833C82.363 30.4379 82.3366 30.5093 82.3383 30.5827C82.34 30.6562 82.3697 30.7262 82.4213 30.7786L83.0062 31.3768C83.0328 31.4037 83.0644 31.425 83.0992 31.4396C83.1341 31.4541 83.1715 31.4616 83.2093 31.4616C83.2471 31.4616 83.2845 31.4541 83.3194 31.4396C83.3542 31.425 83.3858 31.4037 83.4124 31.3768C83.5573 31.2498 83.7173 31.1411 83.8889 31.0533C84.1509 30.9225 84.4404 30.856 84.7333 30.8595C85.0404 30.8545 85.3392 30.9589 85.5763 31.154C85.7977 31.3371 85.9153 31.6638 85.9321 32.1872C85.927 32.2212 85.9099 32.2522 85.8838 32.2746C85.8577 32.297 85.8245 32.3093 85.7901 32.3093C85.5717 32.3093 85.332 32.3093 85.0892 32.3231C84.7826 32.3304 84.4766 32.3553 84.1729 32.3978C83.8744 32.4376 83.5797 32.5019 83.2918 32.5901C83.0188 32.6707 82.7608 32.7955 82.5282 32.9595C82.3087 33.1157 82.1288 33.3211 82.0029 33.5593C81.8654 33.8346 81.7987 34.1399 81.8089 34.4475C81.8026 34.7282 81.8628 35.0064 81.9846 35.2594C82.0956 35.4891 82.2581 35.6902 82.4595 35.847C82.6653 36.0089 82.9001 36.1301 83.1513 36.2041C83.7823 36.39 84.4577 36.3572 85.0678 36.111C85.3369 36.0023 85.5743 35.8275 85.758 35.6028H85.7764C85.7952 35.5936 85.8165 35.5904 85.8373 35.5937C85.858 35.5969 85.8773 35.6065 85.8924 35.6211C85.9106 35.64 85.921 35.6651 85.9214 35.6913V35.9111C85.9248 35.9826 85.9546 36.0504 86.0051 36.1011C86.0556 36.1519 86.1232 36.1821 86.1948 36.1858H87.3752C87.4478 36.1831 87.5166 36.1529 87.5677 36.1013C87.6187 36.0497 87.6482 35.9806 87.6501 35.9081V33.1029C87.6545 32.5317 87.6121 31.961 87.5234 31.3967C87.4533 31.0422 87.3017 30.7088 87.0805 30.423L87.0912 30.4001ZM85.923 33.9118C85.9284 34.0859 85.8884 34.2584 85.8069 34.4124C85.7273 34.5527 85.6159 34.6724 85.4816 34.7619C85.3408 34.8559 85.1863 34.9274 85.0235 34.974C84.851 35.0253 84.672 35.051 84.4921 35.0503C84.281 35.0503 84.0738 34.9939 83.8919 34.887C83.8011 34.8401 83.7256 34.7682 83.6745 34.6798C83.6233 34.5913 83.5986 34.49 83.6033 34.388C83.5987 34.2963 83.6149 34.2048 83.6506 34.1203C83.6863 34.0357 83.7406 33.9603 83.8095 33.8996C83.9565 33.7786 84.1271 33.6892 84.3103 33.6371C84.5094 33.5795 84.7143 33.5441 84.9212 33.5318C85.1533 33.512 85.3259 33.512 85.4587 33.512H85.784C85.8199 33.5146 85.8535 33.5307 85.8781 33.557C85.9027 33.5833 85.9166 33.6179 85.9169 33.6539L85.923 33.9118Z" fill="#FF8000"/>
<path d="M64.8245 30.4597C64.5775 30.1784 64.27 29.9567 63.925 29.8111C63.5498 29.6587 63.1481 29.5824 62.7431 29.5867C62.293 29.5839 61.846 29.6598 61.4221 29.8111C61.0267 29.9551 60.6634 30.1755 60.3532 30.4597C60.0465 30.7423 59.8016 31.0852 59.6339 31.467C59.2827 32.4316 59.2827 33.489 59.6339 34.4537C59.8011 34.8353 60.046 35.1778 60.3532 35.4594C60.6623 35.7451 61.0259 35.9657 61.4221 36.1081C61.8457 36.2606 62.2929 36.3371 62.7431 36.3339C63.2356 36.334 63.7222 36.2272 64.1694 36.0211C64.5195 35.8658 64.8367 35.6451 65.104 35.3709C65.1519 35.3184 65.1785 35.2498 65.1785 35.1786C65.1785 35.1075 65.1519 35.0389 65.104 34.9863L64.2519 34.3621L64.1908 34.3179C64.1367 34.2866 64.0738 34.2742 64.0119 34.2825C63.95 34.2908 63.8926 34.3193 63.8487 34.3636C63.7284 34.4952 63.5925 34.6115 63.444 34.7101C63.2087 34.8524 62.9371 34.9235 62.6621 34.9146C62.3235 34.9234 61.9934 34.8084 61.7337 34.5911C61.4498 34.2999 61.2801 33.9163 61.2557 33.5105C61.2553 33.4775 61.2668 33.4455 61.2881 33.4202C61.3094 33.395 61.3391 33.3783 61.3717 33.3732H65.3315C65.4059 33.3704 65.4763 33.3387 65.5276 33.2848C65.579 33.2309 65.6072 33.1591 65.6064 33.0847V32.7795C65.6141 32.334 65.5469 31.8903 65.4079 31.467C65.286 31.0968 65.0919 30.7544 64.8367 30.4597H64.8245ZM63.5845 32.0835H61.3977C61.3617 32.0829 61.3273 32.0687 61.3012 32.0438C61.2752 32.0189 61.2595 31.9852 61.2572 31.9492C61.2733 31.8439 61.3036 31.7412 61.3473 31.644C61.4098 31.5072 61.4997 31.3846 61.6115 31.2838C61.7294 31.1731 61.8673 31.0856 62.0177 31.0259C62.1922 30.9556 62.3793 30.9218 62.5675 30.9267C62.7228 30.9209 62.8777 30.9479 63.0219 31.006C63.1661 31.0641 63.2964 31.152 63.4043 31.264C63.5832 31.4466 63.6914 31.6867 63.7097 31.9416C63.7055 31.9771 63.689 32.0099 63.663 32.0345C63.6371 32.059 63.6034 32.0737 63.5677 32.0759" fill="#FF8000"/>
<path d="M57.6257 33.0541L57.583 32.9962C57.5568 32.952 57.5429 32.9017 57.5429 32.8504C57.5429 32.7991 57.5568 32.7488 57.583 32.7047L59.7713 29.9774C59.7949 29.9492 59.8067 29.9131 59.8044 29.8765C59.8022 29.8399 59.7859 29.8055 59.7591 29.7805C59.7324 29.7598 59.6997 29.7486 59.6659 29.7485H57.9418C57.8533 29.7478 57.7658 29.7677 57.6863 29.8067C57.6068 29.8456 57.5374 29.9025 57.4837 29.9728L57.389 30.0918L55.7092 32.256L55.6863 32.2819L55.6802 32.2911H55.6695C55.6502 32.3 55.6286 32.3029 55.6076 32.2994C55.5867 32.2958 55.5672 32.286 55.5519 32.2712C55.5381 32.2568 55.5286 32.2389 55.5244 32.2193V26.9922C55.5209 26.9227 55.4921 26.8569 55.4435 26.8072C55.3948 26.7574 55.3297 26.7272 55.2602 26.722H53.9133C53.8433 26.7279 53.7777 26.759 53.7288 26.8095C53.6799 26.86 53.6511 26.9266 53.6476 26.9968V35.902C53.6509 35.9731 53.6806 36.0405 53.7308 36.091C53.7811 36.1414 53.8483 36.1715 53.9195 36.1752H55.2526C55.3232 36.1722 55.3902 36.1431 55.4405 36.0934C55.4908 36.0437 55.5207 35.9771 55.5244 35.9066V33.3853C55.5289 33.3659 55.5384 33.3481 55.5519 33.3334C55.5672 33.3186 55.5867 33.3088 55.6076 33.3053C55.6286 33.3018 55.6502 33.3046 55.6695 33.3136H55.6802C55.6862 33.3166 55.691 33.3214 55.6939 33.3273L55.7275 33.367L57.36 35.8303L57.4547 35.9508C57.5075 36.0194 57.5752 36.0752 57.6527 36.1138C57.7302 36.1524 57.8155 36.1728 57.9021 36.1737H59.7224C59.7425 36.1708 59.7612 36.1617 59.7759 36.1477C59.7982 36.1276 59.8133 36.1008 59.8191 36.0714C59.8249 36.0419 59.821 36.0114 59.808 35.9844L57.6257 33.0541Z" fill="#FF8000"/>
<path d="M81.9128 30.1911C81.9353 30.1305 81.9466 30.0664 81.9464 30.0018V29.9682C81.9334 29.9064 81.9003 29.8506 81.8522 29.8094C81.8042 29.7683 81.7439 29.7442 81.6807 29.7408H80.6117C80.4798 29.741 80.352 29.7866 80.2499 29.8701C80.1478 29.9535 80.0776 30.0696 80.0513 30.1987L80.0177 30.3269L79.1136 33.6372C79.0912 33.6623 79.0601 33.6781 79.0266 33.6814C79.0055 33.6794 78.9853 33.6722 78.9678 33.6605C78.9502 33.6488 78.9357 33.6329 78.9258 33.6143L78.9105 33.5624L78.0095 30.2155L77.9942 30.156C77.9569 30.0402 77.8839 29.9393 77.7858 29.8675C77.6876 29.7956 77.5692 29.7567 77.4475 29.7561H76.2839C76.1538 29.7562 76.0277 29.8003 75.9259 29.8812C75.8241 29.9622 75.7528 30.0751 75.7234 30.2018V30.2323L75.699 30.333L74.8774 33.6326C74.8702 33.6454 74.8604 33.6566 74.8487 33.6655C74.8371 33.6745 74.8237 33.681 74.8095 33.6847C74.7952 33.6884 74.7804 33.6892 74.7658 33.6871C74.7513 33.6849 74.7373 33.6799 74.7247 33.6723C74.7086 33.6618 74.6946 33.6483 74.6835 33.6326L73.7092 30.3299L73.6618 30.1773C73.6634 30.1677 73.6634 30.1579 73.6618 30.1483C73.6229 30.0351 73.5496 29.9368 73.4522 29.8671C73.3547 29.7973 73.238 29.7596 73.1182 29.7592H71.9393C71.8762 29.7628 71.816 29.787 71.768 29.828C71.72 29.8691 71.6868 29.9248 71.6736 29.9866V30.0232C71.6744 30.0871 71.6852 30.1504 71.7056 30.2109L73.6496 35.8013C73.656 35.823 73.6647 35.844 73.6756 35.8639C73.7177 35.9545 73.7832 36.0324 73.8653 36.0895C73.9474 36.1466 74.0432 36.181 74.1429 36.189H75.2806C75.3954 36.1799 75.505 36.1367 75.5951 36.0649C75.6851 35.9931 75.7517 35.8959 75.786 35.786L75.8319 35.6227L76.7283 32.4178C76.7385 32.4041 76.7516 32.3928 76.7666 32.3846C76.7817 32.3765 76.7983 32.3716 76.8153 32.3704C76.8329 32.3721 76.8499 32.3772 76.8654 32.3856C76.8809 32.394 76.8945 32.4055 76.9054 32.4193L77.9301 35.6929C77.9487 35.7552 77.9722 35.8159 78.0004 35.8746C78.0425 35.9652 78.1079 36.0431 78.19 36.1002C78.2721 36.1573 78.3679 36.1916 78.4676 36.1996H79.5763C79.6745 36.1904 79.7686 36.1555 79.849 36.0984C79.9294 36.0414 79.9934 35.9642 80.0345 35.8746C80.0467 35.8501 80.0864 35.7418 80.1108 35.6685L81.9296 30.2521C81.93 30.2402 81.9337 30.2285 81.9403 30.2185" fill="#FF8000"/>
<path d="M94.2869 29.9637C94.2869 29.9469 94.2762 29.9316 94.2716 29.9148C94.25 29.8666 94.2157 29.8251 94.1725 29.7947C94.1292 29.7644 94.0785 29.7463 94.0257 29.7424H92.8896C92.7831 29.7462 92.6797 29.7794 92.591 29.8384C92.5023 29.8974 92.4318 29.9799 92.3872 30.0766C92.3872 30.0934 92.3734 30.1117 92.3673 30.1285V30.1575C92.3673 30.1728 92.3582 30.1895 92.3536 30.2048L92.32 30.3132L91.2846 33.6982L91.2709 33.7379C91.2634 33.7679 91.2458 33.7943 91.221 33.8127C91.1962 33.8311 91.1658 33.8402 91.1349 33.8386C91.1066 33.8394 91.0786 33.8315 91.0549 33.816C91.0311 33.8004 91.0127 33.778 91.0021 33.7516L89.7636 30.3071L89.7483 30.2643L89.6659 30.0323C89.6181 29.9443 89.5478 29.8704 89.4623 29.8181C89.3768 29.7659 89.2789 29.7371 89.1787 29.7347H87.8929C87.848 29.7435 87.8058 29.7628 87.7698 29.7909C87.7337 29.819 87.7047 29.8552 87.6852 29.8965C87.6792 29.9113 87.6746 29.9267 87.6715 29.9423C87.6615 29.9931 87.6647 30.0456 87.6806 30.0949L90.124 36.0562C90.1606 36.181 90.153 36.3147 90.1026 36.4347V36.453L90.0583 36.5644C89.9927 36.7277 89.9301 36.8773 89.8705 37.0024C89.8188 37.1221 89.747 37.232 89.6582 37.3275C89.564 37.4187 89.4501 37.4871 89.3253 37.5274C89.1591 37.578 88.9859 37.6017 88.8122 37.5976H87.9998C87.927 37.5999 87.8578 37.63 87.8064 37.6816C87.755 37.7332 87.7253 37.8026 87.7234 37.8754V38.8949C87.7253 38.9679 87.7552 39.0375 87.8069 39.0891C87.8586 39.1408 87.9282 39.1707 88.0013 39.1726H89.0871C89.4546 39.1833 89.8216 39.1391 90.1759 39.0414C90.43 38.9649 90.6634 38.8319 90.8585 38.6522C91.0439 38.4718 91.194 38.2586 91.3014 38.0234C91.4185 37.7721 91.5396 37.4842 91.6648 37.1596L94.2869 30.0751C94.2945 30.0383 94.2945 30.0004 94.2869 29.9637Z" fill="#FF8000"/>
<path d="M94.0288 34.8719C93.9372 34.869 93.846 34.8861 93.7616 34.9219C93.6772 34.9578 93.6017 35.0115 93.5401 35.0795C93.4191 35.21 93.3536 35.3824 93.3573 35.5604C93.361 35.7383 93.4336 35.9078 93.5599 36.0333C93.6862 36.1587 93.8563 36.2303 94.0344 36.2329C94.2124 36.2354 94.3845 36.1688 94.5144 36.0471C94.5202 36.0428 94.5254 36.0376 94.5297 36.0318C94.6532 35.904 94.7223 35.7333 94.7223 35.5556C94.7223 35.378 94.6532 35.2072 94.5297 35.0795C94.4685 35.0116 94.3932 34.9578 94.309 34.922C94.2249 34.8861 94.134 34.869 94.0426 34.8719" fill="#FF8000"/>
<path d="M105.71 30.4597C105.422 30.1813 105.081 29.9638 104.708 29.8202C103.892 29.5181 102.995 29.5181 102.179 29.8202C101.809 29.9638 101.471 30.1814 101.188 30.4597C100.909 30.7385 100.687 31.07 100.537 31.4349C100.375 31.8134 100.298 32.5628 100.298 33.0267C100.291 33.5174 100.372 34.0052 100.537 34.4674C100.687 34.8375 100.911 35.1727 101.196 35.4521C101.481 35.7315 101.821 35.9491 102.194 36.0913C103.011 36.3935 103.908 36.3935 104.725 36.0913C105.097 35.9519 105.436 35.7364 105.72 35.4586C106.004 35.1809 106.226 34.8469 106.374 34.4781C106.538 34.0163 106.62 33.5291 106.615 33.0389C106.615 32.5735 106.534 31.818 106.374 31.4456C106.224 31.0815 106.003 30.7506 105.725 30.4719L105.71 30.4597ZM105.404 34.0706C105.313 34.3297 105.169 34.5672 104.981 34.7681C104.793 34.9662 104.567 35.1249 104.317 35.2351C103.761 35.461 103.139 35.461 102.584 35.2351C102.334 35.124 102.108 34.9654 101.919 34.7681C101.733 34.5667 101.589 34.3294 101.498 34.0706C101.395 33.7328 101.344 33.3814 101.345 33.0283C101.344 32.625 101.395 32.2233 101.498 31.8333C101.589 31.5753 101.732 31.339 101.919 31.1391C102.106 30.9393 102.332 30.7802 102.584 30.6718C102.858 30.5578 103.153 30.4991 103.45 30.4991C103.748 30.4991 104.042 30.5578 104.317 30.6718C104.567 30.7783 104.793 30.934 104.981 31.1297C105.169 31.3299 105.313 31.5669 105.404 31.8256C105.506 32.2158 105.557 32.6174 105.557 33.0206C105.558 33.3737 105.506 33.7249 105.404 34.063" fill="#FF8000"/>
<path d="M96.3989 31.151C96.5675 30.946 96.782 30.7834 97.025 30.6764C97.301 30.5616 97.5981 30.506 97.897 30.5131C98.1759 30.5082 98.4526 30.5639 98.7079 30.6764C98.8983 30.7681 99.0718 30.8915 99.221 31.0412C99.2719 31.0861 99.3372 31.1116 99.4051 31.113C99.4731 31.1144 99.5393 31.0916 99.5921 31.0488L99.9509 30.7252C100.004 30.6759 100.037 30.6081 100.043 30.5356C100.048 30.4631 100.026 30.3912 99.9799 30.3345C99.7362 30.1128 99.4535 29.9379 99.1461 29.8187C98.7483 29.6648 98.3251 29.5867 97.8985 29.5882C97.4721 29.5831 97.049 29.663 96.6539 29.8233C96.2874 29.9708 95.9553 30.1921 95.6781 30.4734C95.4062 30.7565 95.1938 31.0913 95.0535 31.4578C94.7588 32.4347 94.7588 33.4768 95.0535 34.4537C95.1921 34.8209 95.4029 35.1567 95.6735 35.4411C95.9449 35.7252 96.2747 35.947 96.6402 36.0913C97.4386 36.3965 98.3217 36.3965 99.1202 36.0913C99.4275 35.971 99.7082 35.7916 99.9463 35.5632C99.9912 35.5093 100.015 35.4407 100.012 35.3706C100.009 35.3005 99.9812 35.2338 99.9326 35.1832L99.6272 34.8856C99.5742 34.8371 99.505 34.8102 99.4332 34.8102C99.3614 34.8102 99.2922 34.8371 99.2393 34.8856C99.0665 35.0627 98.8584 35.2015 98.6285 35.293C98.3985 35.3845 98.1519 35.4266 97.9046 35.4167C97.6211 35.4199 97.3403 35.3616 97.0815 35.2458C96.8417 35.1341 96.6287 34.9722 96.4569 34.7711C96.281 34.5633 96.1439 34.3255 96.0522 34.0691C95.9512 33.7095 95.8998 33.3377 95.8995 32.9641C95.8981 32.5916 95.9407 32.2202 96.0263 31.8577C96.103 31.6009 96.2279 31.3611 96.3943 31.151" fill="#FF8000"/>
<path d="M116.013 31.0488C115.947 30.7632 115.818 30.4961 115.634 30.2674C115.448 30.048 115.208 29.8799 114.938 29.779C114.596 29.6545 114.233 29.5965 113.869 29.6081C113.477 29.5914 113.089 29.6947 112.757 29.9041C112.513 30.0766 112.301 30.2898 112.13 30.5344L112.101 30.5772L112.085 30.5985C112.076 30.6087 112.065 30.6168 112.052 30.6223C112.039 30.6278 112.026 30.6306 112.012 30.6306C111.993 30.6307 111.975 30.6256 111.959 30.6159C111.943 30.6062 111.93 30.5922 111.922 30.5757C111.922 30.5634 111.904 30.5467 111.896 30.5283L111.806 30.3757C111.717 30.2346 111.604 30.1105 111.471 30.0094C111.308 29.8855 111.127 29.7872 110.934 29.7179C110.451 29.5665 109.935 29.558 109.448 29.6935C109.247 29.7514 109.056 29.8366 108.878 29.9469C108.717 30.0453 108.57 30.166 108.442 30.3055C108.4 30.3528 108.362 30.4001 108.327 30.449L108.315 30.4612C108.312 30.4689 108.307 30.4758 108.301 30.481C108.292 30.4907 108.28 30.4984 108.268 30.5037C108.255 30.5089 108.241 30.5116 108.228 30.5116C108.204 30.5117 108.182 30.5036 108.164 30.4889C108.146 30.4741 108.133 30.4536 108.129 30.4307V30.0201C108.126 29.9479 108.096 29.8793 108.045 29.8283C107.993 29.7773 107.924 29.7477 107.852 29.7454H107.496C107.423 29.7482 107.354 29.779 107.302 29.8316C107.251 29.8842 107.222 29.9544 107.221 30.0278V35.8928C107.223 35.9663 107.253 36.0364 107.304 36.0887C107.356 36.1409 107.426 36.1713 107.499 36.1737H107.927C108.002 36.1709 108.072 36.1396 108.124 36.0861C108.176 36.0327 108.206 35.9613 108.206 35.8867V32.7856C108.204 32.474 108.24 32.1634 108.313 31.8607C108.376 31.6028 108.486 31.3589 108.639 31.1419C108.785 30.9406 108.981 30.7799 109.207 30.6749C109.468 30.56 109.752 30.5042 110.037 30.5116C110.442 30.5116 110.734 30.6489 110.909 30.9221C111.085 31.1953 111.175 31.6623 111.175 32.3185V35.8913C111.176 35.9656 111.205 36.0367 111.258 36.0896C111.31 36.1425 111.38 36.1732 111.455 36.1752H111.882C111.957 36.1728 112.028 36.1416 112.08 36.0881C112.132 36.0346 112.161 35.9629 112.162 35.8883V32.2575C112.159 32.0146 112.2 31.7732 112.282 31.5448C112.354 31.3417 112.464 31.1545 112.608 30.9938C112.744 30.844 112.91 30.7235 113.095 30.6398C113.281 30.5553 113.484 30.5121 113.689 30.5131C113.933 30.5042 114.175 30.5523 114.397 30.6535C114.572 30.7373 114.724 30.8625 114.84 31.0182C114.95 31.1747 115.028 31.3517 115.069 31.5387C115.11 31.7335 115.13 31.9319 115.13 32.1308V35.8974C115.132 35.9709 115.162 36.0408 115.214 36.0928C115.266 36.1447 115.336 36.1748 115.41 36.1767H115.848C115.923 36.1747 115.994 36.1436 116.046 36.09C116.098 36.0364 116.128 35.9646 116.128 35.8898V32.0744C116.132 31.7271 116.094 31.3807 116.015 31.0427" fill="#FF8000"/>
</svg>
