<svg width="39" height="42" viewBox="0 0 39 42" fill="none" xmlns="http://www.w3.org/2000/svg">
<path d="M29.4979 34.8304C29.2936 34.5992 29.0394 34.4174 28.7545 34.2989C28.4451 34.1714 28.1129 34.1081 27.7782 34.1131C27.4067 34.1101 27.0375 34.173 26.688 34.2989C26.3597 34.4157 26.0578 34.5964 25.7996 34.8304C25.5471 35.0641 25.3451 35.347 25.2062 35.6617C24.9187 36.4597 24.9187 37.333 25.2062 38.1309C25.3448 38.4459 25.5468 38.7289 25.7996 38.9623C26.0572 39.1974 26.3592 39.3785 26.688 39.495C27.0375 39.6209 27.4067 39.6838 27.7782 39.6808C28.1842 39.6839 28.5861 39.5994 28.9564 39.4331C29.2456 39.3023 29.5078 39.1187 29.7295 38.8916C29.7684 38.8477 29.7898 38.7911 29.7898 38.7324C29.7898 38.6738 29.7684 38.6172 29.7295 38.5732L29.0246 38.0566L28.9738 38.0194C28.9292 37.9935 28.8773 37.9831 28.8262 37.9898C28.7751 37.9965 28.7276 38.02 28.6913 38.0566C28.5925 38.165 28.481 38.2611 28.3593 38.3428C28.1642 38.4607 27.9392 38.5196 27.7113 38.5125C27.434 38.5204 27.1635 38.4265 26.9506 38.2486C26.7161 38.0102 26.5754 37.6953 26.5541 37.3616C26.5555 37.3342 26.5658 37.3081 26.5835 37.2873C26.6012 37.2664 26.6253 37.252 26.652 37.2463H29.9216C29.9817 37.2432 30.0384 37.2172 30.0801 37.1737C30.1218 37.1302 30.1453 37.0724 30.1458 37.0122V36.7582C30.1506 36.3901 30.094 36.0237 29.9786 35.6741C29.8765 35.3635 29.713 35.0766 29.4979 34.8304ZM28.4695 36.1771H26.6669C26.6368 36.1772 26.6079 36.1656 26.5862 36.1448C26.5645 36.124 26.5517 36.0956 26.5504 36.0656C26.5648 35.9801 26.5902 35.8968 26.626 35.8178C26.6774 35.7047 26.7511 35.6031 26.8428 35.5193C26.9404 35.4288 27.0538 35.357 27.1773 35.3074C27.3224 35.2502 27.4773 35.222 27.6333 35.2244C27.7616 35.2197 27.8895 35.2421 28.0086 35.2901C28.1277 35.3382 28.2354 35.4107 28.3246 35.5031C28.4733 35.6541 28.5634 35.8531 28.5786 36.0644C28.5762 36.0929 28.564 36.1197 28.5442 36.1402C28.5243 36.1608 28.4979 36.1738 28.4695 36.1771Z" fill="white"/>
<path d="M13.9566 36.6876C13.7641 36.5722 13.5553 36.4866 13.3372 36.4336L12.7177 36.2787C12.5535 36.2417 12.3937 36.1877 12.2407 36.1176C12.1847 36.0943 12.137 36.0546 12.1039 36.0038C12.0707 35.953 12.0537 35.8934 12.0549 35.8327C12.0494 35.7651 12.0636 35.6973 12.096 35.6377C12.1283 35.5781 12.1773 35.5292 12.237 35.4969C12.3513 35.4353 12.4788 35.4022 12.6087 35.4003C12.8808 35.3938 13.1446 35.4944 13.3434 35.6803C13.3862 35.7174 13.4409 35.7379 13.4976 35.7379C13.5543 35.7379 13.609 35.7174 13.6519 35.6803L14.2713 35.0224C14.3072 34.9805 14.3269 34.9271 14.3269 34.8719C14.3269 34.8167 14.3072 34.7633 14.2713 34.7214C14.0723 34.5406 13.8352 34.4068 13.5775 34.3299C13.259 34.2308 12.9274 34.1799 12.5938 34.1787C12.3368 34.1788 12.0809 34.2134 11.8331 34.2815C11.5939 34.3449 11.3686 34.4525 11.169 34.5987C10.9744 34.7446 10.8148 34.9321 10.7019 35.1476C10.5781 35.3949 10.5172 35.6689 10.5248 35.9454C10.5113 36.2214 10.5766 36.4956 10.7131 36.7359C10.8307 36.9266 10.9948 37.0844 11.1901 37.1943C11.3843 37.3048 11.5927 37.3881 11.8096 37.4421L12.429 37.5932C12.5946 37.6305 12.7548 37.6884 12.906 37.7654C12.9636 37.7928 13.0121 37.8362 13.0455 37.8905C13.079 37.9448 13.0959 38.0077 13.0943 38.0715C13.0967 38.1375 13.0771 38.2024 13.0385 38.256C12.9999 38.3096 12.9446 38.3489 12.8812 38.3676C12.729 38.4237 12.5677 38.4514 12.4055 38.4493C12.1945 38.4543 11.9859 38.4034 11.8009 38.3019C11.6814 38.2353 11.5721 38.1518 11.4763 38.0541C11.4314 38.0187 11.375 38.0013 11.318 38.0052C11.261 38.0091 11.2074 38.034 11.1678 38.0752L10.5334 38.8185C10.4989 38.8663 10.4836 38.9255 10.4907 38.984C10.4978 39.0426 10.5268 39.0963 10.5719 39.1345C10.7824 39.3156 11.0297 39.4492 11.2966 39.526C11.6344 39.629 11.9854 39.682 12.3386 39.6833C12.6078 39.6821 12.8763 39.6547 13.1402 39.6015C13.3983 39.5529 13.6455 39.458 13.8699 39.3215C14.0855 39.1891 14.2677 39.009 14.4026 38.795C14.5495 38.542 14.6213 38.2523 14.6095 37.96C14.6229 37.6837 14.558 37.4093 14.4225 37.1683C14.3074 36.9734 14.1478 36.8087 13.9566 36.6876Z" fill="white"/>
<path d="M4.15662 33.1145C3.90363 32.9485 3.62023 32.8344 3.32282 32.7787C3.00732 32.7109 2.68532 32.6781 2.36264 32.6808H0.293614C0.236915 32.6817 0.182717 32.7043 0.14216 32.744C0.101604 32.7836 0.0777719 32.8373 0.0755615 32.8939V39.3835C0.0780476 39.4395 0.101668 39.4925 0.141668 39.5318C0.181667 39.5711 0.235075 39.5938 0.291136 39.5953H1.38264C1.43995 39.5937 1.49442 39.57 1.53461 39.5291C1.5748 39.4882 1.5976 39.4334 1.59822 39.376V37.0109C1.5988 36.9822 1.61023 36.9547 1.63022 36.934C1.65021 36.9133 1.67728 36.901 1.706 36.8994H2.43078C2.7533 36.9018 3.07504 36.8673 3.38972 36.7966C3.68178 36.7386 3.95857 36.6205 4.20246 36.4497C4.43416 36.281 4.61883 36.0558 4.73892 35.7955C4.8777 35.4757 4.94453 35.1293 4.93468 34.7808C4.94476 34.4304 4.87263 34.0824 4.72406 33.7649C4.59393 33.5029 4.39851 33.2789 4.15662 33.1145ZM3.25963 35.186C3.20096 35.291 3.11546 35.3787 3.01184 35.4399C2.92641 35.5004 2.8294 35.5426 2.72689 35.5638C2.59641 35.5902 2.46355 35.6031 2.33043 35.6022H1.71096C1.6817 35.6016 1.65384 35.5896 1.63326 35.5688C1.61269 35.548 1.60101 35.52 1.60069 35.4907V34.0796C1.60094 34.0515 1.61181 34.0245 1.6311 34.004C1.6504 33.9836 1.67671 33.9712 1.70477 33.9693H2.10618C2.25602 33.9695 2.40573 33.9778 2.55468 33.9941C2.68463 34.0068 2.81086 34.0447 2.92636 34.1056C3.05039 34.1622 3.15787 34.2497 3.23857 34.3596C3.32515 34.4834 3.36867 34.6323 3.36246 34.7833C3.36327 34.9241 3.32786 35.0628 3.25963 35.186Z" fill="white"/>
<path d="M19.1379 38.3662H16.7777C16.758 38.363 16.7401 38.3529 16.7272 38.3377C16.7142 38.3225 16.7071 38.3032 16.7071 38.2832C16.7069 38.2617 16.7149 38.2409 16.7294 38.225L16.7628 38.1953L16.7901 38.1692L19.0202 36.0482L19.1441 35.9243C19.1926 35.8816 19.2318 35.8295 19.2595 35.7711C19.2872 35.7128 19.3027 35.6494 19.3051 35.5848V34.5218C19.3051 34.4592 19.2804 34.399 19.2363 34.3545C19.1923 34.3099 19.1324 34.2846 19.0697 34.2839H15.2042C15.1423 34.2843 15.083 34.3088 15.039 34.3524C14.995 34.3959 14.9698 34.455 14.9689 34.5169V35.2924C14.9701 35.3541 14.9955 35.4129 15.0394 35.4561C15.0834 35.4994 15.1426 35.5238 15.2042 35.5241H17.3179C17.3384 35.5263 17.3573 35.536 17.371 35.5513C17.3848 35.5666 17.3923 35.5865 17.3922 35.6071C17.3924 35.6248 17.3872 35.6421 17.3773 35.6567L15.3814 37.5944L15.0965 37.8719L15.0432 37.9239C14.9591 38.0104 14.9108 38.1255 14.9081 38.2461V39.3747C14.9094 39.4359 14.9345 39.4941 14.9779 39.5371C15.0214 39.5801 15.0799 39.6045 15.1411 39.6052H19.1379C19.2004 39.6048 19.2603 39.5798 19.3044 39.5354C19.3485 39.4911 19.3733 39.4311 19.3733 39.3685V38.6066C19.3736 38.5436 19.3491 38.483 19.305 38.438C19.2609 38.393 19.2009 38.3672 19.1379 38.3662Z" fill="white"/>
<path d="M10.6003 34.4623C10.5978 34.4496 10.594 34.4372 10.5892 34.4252C10.5724 34.3856 10.545 34.3515 10.51 34.3266C10.475 34.3017 10.4338 34.2869 10.391 34.2839H9.47043C9.38404 34.287 9.30019 34.314 9.22822 34.3619C9.15626 34.4098 9.099 34.4767 9.06282 34.5553C9.05663 34.5689 9.05167 34.5838 9.04672 34.5974L9.04052 34.6222C9.03795 34.6349 9.03422 34.6473 9.02937 34.6593L9.00212 34.7485L8.16335 37.4953L8.15344 37.5312C8.14654 37.5551 8.1318 37.5761 8.11159 37.5907C8.09137 37.6053 8.06685 37.6127 8.04194 37.6117C8.01794 37.6133 7.99405 37.6072 7.97377 37.5943C7.95348 37.5814 7.93786 37.5623 7.9292 37.5399L6.93805 34.7498L6.92566 34.7138L6.85751 34.5255C6.81915 34.455 6.76313 34.3957 6.69493 34.3533C6.62673 34.311 6.5487 34.2871 6.46849 34.2839H5.42654C5.3892 34.2913 5.35423 34.3077 5.32465 34.3317C5.29508 34.3557 5.27179 34.3865 5.25681 34.4215C5.2512 34.4333 5.24704 34.4458 5.24442 34.4586C5.23505 34.4998 5.23763 34.5428 5.25185 34.5825L7.23415 39.4231C7.26364 39.5239 7.25797 39.6318 7.21805 39.7291V39.7452L7.18212 39.8356C7.1276 39.9707 7.07681 40.0834 7.02973 40.19C6.98639 40.2846 6.92637 40.3706 6.85256 40.4439C6.77661 40.518 6.68461 40.5735 6.58371 40.6062C6.4489 40.6472 6.30824 40.6656 6.16743 40.6607H5.50831C5.44875 40.662 5.39189 40.6858 5.3493 40.7275C5.30672 40.7691 5.28162 40.8255 5.27911 40.885V41.7114C5.28066 41.7708 5.30488 41.8274 5.3468 41.8695C5.38872 41.9117 5.44517 41.9362 5.50459 41.9381H6.38424C6.68399 41.9468 6.98337 41.9109 7.27256 41.8315C7.47778 41.7697 7.66629 41.6621 7.82389 41.5169C7.97521 41.3717 8.09793 41.1994 8.18566 41.0089C8.28105 40.8057 8.38017 40.5728 8.48052 40.3089L10.6115 34.554C10.6146 34.523 10.6108 34.4917 10.6003 34.4623Z" fill="white"/>
<path d="M24.1853 34.8403C24.0493 34.622 23.8549 34.446 23.6241 34.3323C23.3249 34.1999 22.9994 34.138 22.6725 34.1515C22.4977 34.1492 22.3235 34.1735 22.1559 34.2233C22.0073 34.2674 21.8649 34.3303 21.7322 34.4104C21.6142 34.4771 21.5066 34.5606 21.4125 34.6582C21.3811 34.691 21.3513 34.7253 21.3233 34.761C21.3086 34.7759 21.2886 34.7844 21.2676 34.7846C21.2458 34.7849 21.2247 34.7766 21.209 34.7616C21.1932 34.7465 21.184 34.7258 21.1833 34.704V34.5046C21.1833 34.4736 21.1772 34.4429 21.1653 34.4144C21.1534 34.3858 21.1359 34.3599 21.1139 34.3381C21.0919 34.3163 21.0658 34.2991 21.0371 34.2875C21.0084 34.2759 20.9777 34.2701 20.9467 34.2704H19.9308C19.8695 34.2723 19.8113 34.2976 19.7682 34.3412C19.7251 34.3848 19.7003 34.4433 19.6991 34.5046V39.3662C19.7023 39.4265 19.7284 39.4834 19.7722 39.5251C19.816 39.5668 19.874 39.5902 19.9345 39.5904H21.0148C21.0753 39.5905 21.1334 39.5672 21.177 39.5254C21.2207 39.4836 21.2464 39.4265 21.249 39.3662V36.8028C21.2492 36.6437 21.26 36.4847 21.2812 36.327C21.2981 36.1849 21.34 36.0469 21.4051 35.9194C21.4718 35.7989 21.5704 35.699 21.6901 35.6308C21.8394 35.5518 22.007 35.5142 22.1757 35.5217C22.3249 35.5066 22.4748 35.5421 22.6014 35.6226C22.7279 35.7031 22.8237 35.8238 22.8733 35.9653C22.9262 36.1025 22.9576 36.2471 22.9662 36.3939C22.9773 36.5488 22.981 36.7 22.981 36.8449V39.3823C22.9845 39.4427 23.0109 39.4996 23.0549 39.5413C23.0989 39.583 23.1571 39.6063 23.2177 39.6065H24.2956C24.3561 39.6063 24.4144 39.583 24.4583 39.5413C24.5023 39.4996 24.5287 39.4427 24.5322 39.3823V36.5327C24.5339 36.2182 24.5094 35.9041 24.4591 35.5936C24.4195 35.3266 24.3264 35.0704 24.1853 34.8403Z" fill="white"/>
<path d="M38.0763 32.1418H37.7133C37.6508 32.145 37.5918 32.1716 37.5481 32.2164C37.5045 32.2612 37.4794 32.3209 37.4779 32.3834V39.3686C37.4803 39.4307 37.506 39.4896 37.5498 39.5337C37.5936 39.5777 37.6524 39.6037 37.7145 39.6064H38.0775C38.1413 39.6036 38.2015 39.5762 38.2456 39.53C38.2897 39.4839 38.3142 39.4225 38.3142 39.3587V32.3847C38.3129 32.3215 38.2876 32.2612 38.2434 32.216C38.1992 32.1709 38.1394 32.1444 38.0763 32.1418Z" fill="white"/>
<path d="M30.8396 38.5063C30.7607 38.504 30.6822 38.5188 30.6095 38.5496C30.5368 38.5804 30.4716 38.6265 30.4184 38.6847C30.3171 38.7961 30.2627 38.9423 30.2667 39.0928C30.2706 39.2432 30.3326 39.3864 30.4396 39.4922C30.5466 39.5981 30.6903 39.6586 30.8409 39.6609C30.9914 39.6633 31.137 39.6074 31.2472 39.5049L31.2596 39.4925C31.363 39.3835 31.4206 39.2389 31.4206 39.0886C31.4206 38.9384 31.363 38.7938 31.2596 38.6847C31.2066 38.6266 31.1416 38.5805 31.0691 38.5497C30.9966 38.5189 30.9184 38.5041 30.8396 38.5063Z" fill="white"/>
<path d="M36.1287 34.9717C35.9319 34.7502 35.6897 34.5736 35.4187 34.4538C35.1346 34.3324 34.8289 34.2698 34.5199 34.2698C34.2109 34.2698 33.9052 34.3324 33.621 34.4538C33.3896 34.5542 33.1829 34.7039 33.0152 34.8924V34.4935C33.006 34.4361 32.9776 34.3837 32.9345 34.3447C32.8915 34.3058 32.8365 34.2826 32.7786 34.2791H32.4156C32.3576 34.2818 32.3024 34.3047 32.2596 34.3439C32.2169 34.383 32.1892 34.436 32.1814 34.4935V41.662C32.188 41.7198 32.2154 41.7733 32.2584 41.8125C32.3015 41.8517 32.3573 41.8739 32.4156 41.875H32.7872C32.8453 41.8739 32.901 41.8516 32.9439 41.8124C32.9867 41.7732 33.0138 41.7197 33.0202 41.662V39.1605C33.1929 39.3288 33.3994 39.4585 33.626 39.5409C33.91 39.6629 34.2158 39.7258 34.5248 39.7258C34.8339 39.7258 35.1397 39.6629 35.4237 39.5409C35.6945 39.4208 35.9365 39.2442 36.1336 39.023C36.3382 38.7903 36.4967 38.5208 36.6007 38.2289C36.7187 37.8508 36.7764 37.4565 36.7717 37.0605C36.7717 36.6802 36.7147 36.0756 36.6007 35.7683C36.4948 35.4755 36.3347 35.2052 36.1287 34.9717ZM35.9081 37.903C35.8451 38.1086 35.7429 38.3 35.6071 38.4667C35.4091 38.715 35.1322 38.8881 34.8224 38.9573C34.5125 39.0265 34.1883 38.9876 33.9035 38.8471C33.7217 38.7546 33.5614 38.625 33.4327 38.4667C33.2974 38.2995 33.1949 38.1082 33.1304 37.903C33.061 37.6268 33.0264 37.3429 33.0276 37.0581C33.0264 36.7327 33.0609 36.4083 33.1304 36.0904C33.1949 35.8848 33.2974 35.6932 33.4327 35.5255C33.5629 35.3621 33.7283 35.2301 33.9165 35.1395C34.1047 35.0488 34.311 35.0017 34.5199 35.0017C34.7288 35.0017 34.9351 35.0488 35.1233 35.1395C35.3115 35.2301 35.4769 35.3621 35.6071 35.5255C35.7429 35.6926 35.8451 35.8845 35.9081 36.0904C35.9793 36.408 36.0142 36.7326 36.0122 37.0581C36.0148 37.3431 35.9798 37.6272 35.9081 37.903Z" fill="white"/>
<path d="M33.0995 13.9666C33.0115 13.7373 31.7936 11.4887 29.5338 8.66761C29.4762 8.59902 29.44 8.51501 29.4297 8.42602C29.2912 6.78418 29.0621 5.15124 28.7434 3.5347C28.7074 3.37233 28.6215 3.22529 28.4977 3.1142C28.374 3.00311 28.2186 2.93353 28.0533 2.91523L25.6993 2.63151C25.6786 2.63028 25.658 2.63028 25.6373 2.63151C25.5059 2.63151 25.3798 2.68372 25.2869 2.77666C25.194 2.8696 25.1418 2.99565 25.1418 3.12708V3.94355C25.1418 3.95143 25.1386 3.95899 25.1331 3.96457C25.1275 3.97015 25.1199 3.97328 25.112 3.97328C25.1047 3.97344 25.0976 3.97078 25.0922 3.96585C23.6214 2.63298 22.0337 1.43506 20.3483 0.386554C20.0045 0.155215 19.5993 0.0322246 19.1849 0.0334564C18.7706 0.0322246 18.3654 0.155215 18.0216 0.386554C9.92512 5.38319 5.46247 13.5193 5.29026 13.9666C5.23939 14.0734 5.21314 14.1902 5.21344 14.3085C5.21343 14.4873 5.27299 14.6609 5.38271 14.8021C5.49243 14.9432 5.64604 15.0437 5.81928 15.0878L8.15468 15.5375C8.30905 15.5795 8.44723 15.6669 8.55129 15.7885C8.65535 15.91 8.72048 16.06 8.73822 16.2189C8.7568 16.6315 9.19911 25.8405 9.75291 28.2366C9.79875 28.408 9.89986 28.5594 10.0405 28.6673C10.1812 28.7753 10.3536 28.8338 10.531 28.8338H10.5483C11.9111 28.8004 13.1588 28.7768 14.5129 28.7595H14.5216H14.6244C14.693 28.7575 14.7581 28.7288 14.8058 28.6795C14.8535 28.6302 14.88 28.5642 14.8796 28.4956V28.4881C14.8251 27.6841 14.7062 25.8455 14.6108 23.9103C14.6108 23.8607 14.6046 23.8 14.6021 23.7517C14.5979 23.671 14.574 23.5926 14.5325 23.5233C14.4911 23.454 14.4333 23.3959 14.3642 23.354C14.0076 23.1405 13.7092 22.8421 13.4956 22.4855C13.2821 22.1289 13.16 21.725 13.1402 21.3097C13.0163 18.0798 12.9556 14.3469 13.1315 11.4267C13.1341 11.3022 13.1861 11.1838 13.276 11.0976C13.366 11.0114 13.4864 10.9645 13.611 10.9671C13.7355 10.9697 13.8539 11.0217 13.9401 11.1116C14.0263 11.2015 14.0732 11.322 14.0706 11.4466V11.4825C13.9554 13.4301 13.9467 15.732 13.9864 18.003C13.989 18.1509 14.0503 18.2916 14.1567 18.3943C14.2631 18.497 14.4059 18.5533 14.5538 18.5506C14.7017 18.548 14.8424 18.4867 14.9451 18.3803C15.0478 18.2739 15.104 18.1311 15.1014 17.9832C15.0593 15.6973 15.0717 13.3805 15.1894 11.4267C15.192 11.3022 15.244 11.1838 15.3339 11.0976C15.4238 11.0114 15.5443 10.9645 15.6688 10.9671C15.7934 10.9697 15.9118 11.0217 15.998 11.1116C16.0842 11.2015 16.1311 11.322 16.1285 11.4466C16.1291 11.4585 16.1291 11.4705 16.1285 11.4825C16.0145 13.4202 16.0046 15.7073 16.0442 17.9671C16.0465 18.1149 16.1075 18.2558 16.2137 18.3588C16.3198 18.4617 16.4626 18.5182 16.6104 18.5159C16.7583 18.5136 16.8992 18.4527 17.0021 18.3465C17.105 18.2403 17.1616 18.0976 17.1593 17.9497C17.1172 15.6738 17.1295 13.3657 17.2472 11.4255C17.2499 11.301 17.3019 11.1826 17.3918 11.0964C17.4363 11.0537 17.4888 11.0202 17.5463 10.9978C17.6037 10.9754 17.6651 10.9645 17.7267 10.9658C17.7884 10.9671 17.8492 10.9806 17.9057 11.0054C17.9621 11.0302 18.0132 11.0659 18.0558 11.1104C18.0985 11.1549 18.132 11.2074 18.1544 11.2649C18.1768 11.3223 18.1877 11.3837 18.1864 11.4453C18.187 11.4573 18.187 11.4693 18.1864 11.4812C18.0191 14.3209 18.0736 17.915 18.1864 21.0669C18.1864 21.0669 18.1864 21.0954 18.1864 21.0966C18.1864 21.0979 18.1864 21.1289 18.1864 21.145V21.1858C18.1867 21.5951 18.0874 21.9982 17.897 22.3604C17.7066 22.7226 17.4309 23.033 17.0936 23.2648C17.0337 23.3061 16.9838 23.3605 16.9478 23.4238C16.9118 23.487 16.8905 23.5576 16.8855 23.6303C16.8855 23.6303 16.8285 24.1135 17.0416 26.46C17.1419 27.4846 17.2175 28.1945 17.2534 28.5154C17.2613 28.5754 17.2908 28.6304 17.3365 28.6701C17.3821 28.7099 17.4407 28.7315 17.5012 28.731H17.718H19.1143H19.2952C19.9048 28.731 20.4846 28.731 21.0446 28.731L22.369 28.7434C22.4299 28.7438 22.4888 28.7218 22.5345 28.6816C22.5802 28.6414 22.6095 28.5858 22.6168 28.5253C22.9241 25.7129 22.9959 24.1345 22.9959 24.1345C22.9948 24.067 22.9689 24.0022 22.9233 23.9525C22.8776 23.9027 22.8153 23.8714 22.7481 23.8644L21.1375 23.6414C21.0304 23.6284 20.9296 23.5841 20.8476 23.514C20.7656 23.4439 20.7061 23.3512 20.6766 23.2474C20.6563 23.1665 20.6496 23.0828 20.6568 22.9997C21.3097 13.6283 24.3984 10.4703 24.3984 10.4703C24.4439 10.4238 24.4941 10.3823 24.5483 10.3464C24.6096 10.302 24.6802 10.2723 24.7548 10.2594C24.8293 10.2466 24.9058 10.2509 24.9784 10.2722C25.051 10.2935 25.1178 10.3311 25.1736 10.3822C25.2294 10.4333 25.2727 10.4965 25.3003 10.5669C25.3225 10.6398 25.3358 10.7151 25.34 10.7912C25.6064 13.7374 25.4763 18.7501 25.3115 22.6602C25.1715 25.9781 25.0018 28.5835 25.0018 28.5835V28.5897C25.0018 28.6151 25.0068 28.6401 25.0165 28.6635C25.0262 28.6869 25.0405 28.7081 25.0584 28.726C25.0764 28.7438 25.0977 28.7579 25.1212 28.7675C25.1446 28.7771 25.1697 28.7819 25.195 28.7818C26.0722 28.7966 26.9357 28.8152 27.8513 28.8375H27.8687C28.046 28.8376 28.2184 28.779 28.3591 28.6711C28.4998 28.5631 28.6009 28.4117 28.6467 28.2404C29.2005 25.8504 29.6379 16.6414 29.6614 16.2227C29.6791 16.0637 29.7443 15.9137 29.8483 15.7922C29.9524 15.6707 30.0906 15.5832 30.2449 15.5412L32.5803 15.0915C32.7536 15.0474 32.9072 14.9469 33.0169 14.8058C33.1266 14.6646 33.1862 14.491 33.1862 14.3122C33.184 14.1919 33.1543 14.0737 33.0995 13.9666Z" fill="white"/>
</svg>
