<svg width="167" height="38" viewBox="0 0 167 38" fill="none" xmlns="http://www.w3.org/2000/svg">
<path d="M74.2386 20.9734C73.7167 20.37 73.0481 19.8807 72.3142 19.5709C71.515 19.2447 70.6506 19.0653 69.77 19.0816C68.8077 19.0816 67.8455 19.2447 66.9322 19.5709C66.0841 19.8807 65.285 20.3537 64.6326 20.9734C63.9803 21.5769 63.4421 22.3108 63.0833 23.1262C62.333 25.1975 62.333 27.4644 63.0833 29.5357C63.4421 30.3511 63.9639 31.085 64.6326 31.7048C65.3013 32.3245 66.0841 32.7975 66.9322 33.091C67.8455 33.4172 68.7914 33.5803 69.77 33.5803C70.83 33.5803 71.8738 33.352 72.8361 32.9116C73.5863 32.5854 74.2712 32.1125 74.8421 31.5091C75.0541 31.2807 75.0541 30.9219 74.8421 30.6773L72.9991 29.3073L72.8687 29.2095C72.624 29.079 72.3305 29.1116 72.1348 29.3073C71.8738 29.5846 71.5803 29.8455 71.2704 30.0576C70.7648 30.3674 70.1777 30.5142 69.5906 30.4979C68.873 30.5142 68.1554 30.2696 67.6009 29.7966C66.9811 29.1769 66.606 28.3451 66.5571 27.4807C66.5571 27.3339 66.6712 27.2035 66.818 27.1872H75.2987C75.6249 27.1709 75.8858 26.9099 75.8858 26.5837V25.9314C75.9021 24.9691 75.7554 24.0232 75.4618 23.1099C75.2009 22.3108 74.7931 21.5769 74.2386 20.9408M71.515 24.4473H66.8833C66.7202 24.4473 66.5897 24.3168 66.5734 24.1537C66.606 23.9417 66.6712 23.7133 66.7691 23.5176C66.8996 23.2241 67.0953 22.9631 67.3236 22.7348C67.8781 22.2292 68.612 21.952 69.3785 21.9683C70.0472 21.952 70.6996 22.2129 71.1725 22.6859C71.5639 23.0773 71.7923 23.5992 71.8412 24.1374C71.8412 24.3168 71.6944 24.4473 71.515 24.4473Z" fill="white"/>
<path d="M85.1004 19.424H83.0129C82.8498 19.424 82.7193 19.2935 82.7193 19.1304V18.1356C82.7193 17.2712 82.8824 16.7167 83.2086 16.4394C83.6326 16.1296 84.1382 15.9828 84.6601 16.0154H85.5734C85.8996 16.0154 86.1605 15.7381 86.1768 15.412V13.2265C86.1768 12.9004 85.8996 12.6231 85.5734 12.6231H83.8283C82.9313 12.5905 82.0343 12.7373 81.1863 13.0471C80.5828 13.2755 80.0446 13.6669 79.6532 14.1888C79.2944 14.6944 79.0335 15.2652 78.9193 15.8686C78.7888 16.5373 78.7236 17.2223 78.7236 17.8909V19.163C78.7073 19.3098 78.5768 19.424 78.43 19.424H76.685C76.3588 19.424 76.0979 19.6849 76.0815 20.0111V22.0497C76.0979 22.3759 76.3588 22.6368 76.685 22.6368H78.43C78.5768 22.6368 78.7073 22.7347 78.7399 22.8815V32.6506C78.7399 32.9768 79.0009 33.254 79.327 33.2703H82.1648C82.491 33.254 82.7519 32.9931 82.7519 32.6669V22.8978C82.7846 22.751 82.8987 22.6532 83.0455 22.6532H85.133C85.4592 22.6532 85.7202 22.3922 85.7365 22.066V20.0274C85.6876 19.6849 85.4266 19.424 85.1004 19.424Z" fill="white"/>
<path d="M59.218 12.9819C57.9296 12.9656 56.8695 14.0094 56.8532 15.2978C56.8369 16.5862 57.8807 17.6463 59.1691 17.6626C60.4575 17.6789 61.5176 16.6351 61.5339 15.3467C61.5339 14.727 61.2893 14.1236 60.8652 13.6832C60.4412 13.2266 59.8378 12.9656 59.218 12.9819Z" fill="white"/>
<path d="M60.6043 19.4241H57.8154C57.4893 19.4241 57.212 19.685 57.1957 20.0112V32.6507C57.212 32.9769 57.473 33.2378 57.7991 33.2378H60.6206C60.9468 33.2378 61.2077 32.9769 61.224 32.6507V20.0112C61.224 19.685 60.9468 19.4241 60.6043 19.4241Z" fill="white"/>
<path d="M108.912 19.0978H108.161C107.379 19.0651 106.596 19.2772 105.927 19.7012C105.487 20.0111 105.112 20.3862 104.818 20.8265L104.769 20.8917C104.753 20.9081 104.753 20.9244 104.736 20.9407C104.704 20.9896 104.639 21.0222 104.573 21.0059C104.476 21.0059 104.378 20.9244 104.361 20.8265V19.9784C104.361 19.636 104.084 19.375 103.742 19.375H100.953C100.643 19.375 100.366 19.6196 100.349 19.9295V32.6505C100.382 32.9604 100.643 33.1887 100.953 33.205H103.791C104.117 33.1887 104.361 32.9278 104.361 32.6179V26.9913C104.361 26.4042 104.394 25.8008 104.459 25.2136C104.508 24.7244 104.671 24.2514 104.932 23.8111C105.193 23.4196 105.552 23.1098 105.976 22.9141C106.433 22.7184 106.938 22.6042 107.444 22.6042H108.895C109.221 22.6042 109.482 22.3432 109.499 22.0334V19.6359C109.466 19.3587 109.221 19.1141 108.912 19.0978Z" fill="white"/>
<path d="M97.5768 20.9734C97.0549 20.37 96.3863 19.8807 95.6524 19.5709C94.8532 19.2447 93.9888 19.0653 93.1245 19.0816C92.1622 19.0816 91.2 19.2447 90.303 19.5709C89.4549 19.8807 88.6558 20.3537 87.9871 20.9734C87.3185 21.5769 86.7966 22.3108 86.4378 23.1425C85.6876 25.2138 85.6876 27.4807 86.4378 29.552C86.7966 30.3674 87.3185 31.1013 87.9871 31.7211C88.6558 32.3408 89.4386 32.8138 90.303 33.1236C91.2163 33.4498 92.1622 33.6129 93.1245 33.6129C94.1845 33.6129 95.2283 33.3846 96.1906 32.9443C96.9408 32.6018 97.6257 32.1288 98.1966 31.5417C98.4086 31.3133 98.4086 30.9546 98.1966 30.7099L96.3536 29.34L96.2232 29.2421C95.9785 29.1116 95.685 29.1442 95.4893 29.34C95.2283 29.6172 94.9348 29.8782 94.6249 30.0902C94.1193 30.4 93.5485 30.5468 92.9451 30.5305C92.2275 30.5468 91.5099 30.3022 90.9554 29.8292C90.3356 29.2095 89.9605 28.394 89.9116 27.5133C89.9116 27.3666 90.0258 27.2361 90.1725 27.2198H98.6532C98.9794 27.2035 99.2403 26.9425 99.2403 26.6164V25.964C99.2567 25.0018 99.1099 24.0558 98.8163 23.1425C98.5391 22.3271 98.115 21.5932 97.5768 20.9734ZM94.8858 24.4473H90.2378C90.0747 24.4473 89.9442 24.3168 89.9279 24.1537C89.9605 23.9417 90.0257 23.7133 90.1236 23.5176C90.2541 23.2241 90.4498 22.9631 90.6944 22.7348C90.9554 22.5065 91.2489 22.3108 91.5588 22.1803C91.9339 22.0335 92.3253 21.952 92.733 21.9683C93.4017 21.952 94.0541 22.2129 94.527 22.6859C94.9185 23.0773 95.1468 23.5992 95.1794 24.1374C95.1794 24.3168 95.0489 24.4473 94.8858 24.4473Z" fill="white"/>
<path d="M55.1245 29.3726H48.2258C48.079 29.3562 47.9648 29.2421 47.9485 29.1116V14.8412C47.9485 14.515 47.6876 14.2541 47.3614 14.2378H44.3442C44.018 14.2541 43.7571 14.5314 43.7571 14.8575V32.6344C43.7571 32.9768 44.0343 33.2541 44.3768 33.2541H55.0918C55.418 33.2541 55.6953 32.9932 55.7116 32.667V29.9923C55.6953 29.6498 55.4343 29.3889 55.1245 29.3726Z" fill="white"/>
<path d="M120.54 20.8755C120.067 20.2884 119.431 19.8317 118.713 19.5708C117.784 19.2446 116.805 19.0978 115.81 19.1304C114.767 19.1304 113.723 19.3098 112.728 19.6523C111.945 19.9296 111.211 20.321 110.542 20.8429C110.314 21.0875 110.33 21.4626 110.559 21.6909L111.815 22.963C112.043 23.2077 112.434 23.2077 112.663 22.963C112.973 22.6858 113.315 22.4575 113.674 22.2618C114.228 21.9845 114.848 21.8377 115.484 21.8377C116.153 21.8377 116.789 22.066 117.294 22.4901C117.767 22.8815 118.012 23.5828 118.045 24.7081C118.028 24.8549 117.898 24.9691 117.751 24.9691C117.278 24.9691 116.789 24.969 116.251 24.9854C115.598 25.0017 114.946 25.0669 114.294 25.1484C113.658 25.23 113.021 25.3768 112.418 25.5562C111.847 25.7356 111.293 25.9965 110.803 26.3553C110.33 26.6978 109.955 27.1381 109.678 27.6437C109.385 28.2309 109.238 28.8832 109.254 29.5356C109.238 30.139 109.368 30.7424 109.629 31.2806C109.874 31.7699 110.216 32.1939 110.657 32.5364C111.097 32.8789 111.603 33.1399 112.141 33.303C112.712 33.466 113.299 33.5639 113.886 33.5639C114.685 33.5639 115.484 33.4171 116.234 33.1072C116.805 32.8789 117.311 32.5038 117.702 32.0309H117.735C117.816 31.9819 117.93 31.9982 117.996 32.0635C118.045 32.0961 118.061 32.1613 118.061 32.2103V32.6832C118.077 33.0094 118.322 33.254 118.648 33.2703H121.176C121.502 33.254 121.763 32.9931 121.763 32.6669V26.6326C121.763 25.4094 121.682 24.2025 121.486 22.9957C121.339 22.2291 121.013 21.5115 120.54 20.9081M118.061 28.3776C118.077 29.1115 117.735 29.7965 117.131 30.2042C116.838 30.4 116.495 30.563 116.153 30.6609C115.778 30.7751 115.403 30.824 115.011 30.824C114.555 30.824 114.114 30.7098 113.723 30.4815C113.331 30.2858 113.103 29.8781 113.103 29.4377C113.087 29.0463 113.25 28.6549 113.543 28.3939C113.853 28.133 114.228 27.9373 114.62 27.8394C115.044 27.709 115.484 27.6274 115.924 27.6111C116.381 27.5785 116.756 27.5622 117.066 27.5622H117.767C117.93 27.5785 118.045 27.709 118.061 27.8557V28.3776Z" fill="white"/>
<path d="M134.859 20.8103C134.5 20.2395 133.995 19.7992 133.391 19.5056C132.609 19.1631 131.761 19 130.912 19.0327C130.456 19.0327 129.999 19.0979 129.575 19.2284C129.184 19.3425 128.809 19.5056 128.466 19.7176C128.156 19.897 127.879 20.1254 127.634 20.3863C127.553 20.4678 127.471 20.5657 127.406 20.6472C127.373 20.6799 127.308 20.7125 127.259 20.7125C127.145 20.7125 127.047 20.6146 127.047 20.5005V19.9786C127.047 19.6361 126.77 19.3588 126.427 19.3588H123.769C123.427 19.3588 123.149 19.6361 123.149 19.9786V32.667C123.166 32.9932 123.443 33.2541 123.769 33.2541H126.591C126.917 33.2541 127.194 32.9932 127.21 32.667V25.9477C127.21 25.5399 127.243 25.1159 127.292 24.7082C127.341 24.3494 127.471 23.9906 127.634 23.6644C127.797 23.3545 128.058 23.0936 128.368 22.9142C128.76 22.7022 129.2 22.6206 129.64 22.6369C130.439 22.5554 131.19 23.0284 131.467 23.7949C131.614 24.1537 131.695 24.5288 131.712 24.9202C131.744 25.3279 131.761 25.7193 131.761 26.0945V32.7159C131.777 33.0421 132.054 33.303 132.38 33.303H135.185C135.512 33.303 135.789 33.0421 135.805 32.7159V25.279C135.805 24.4636 135.74 23.6481 135.609 22.8327C135.512 22.1314 135.267 21.4627 134.892 20.8756" fill="white"/>
<path d="M150.549 12.9819H147.711C147.385 12.9819 147.124 13.2592 147.124 13.5854V20.3373C147.107 20.4515 147.009 20.533 146.912 20.5167C146.846 20.5167 146.781 20.4841 146.749 20.4352L146.683 20.3699L146.634 20.321C146.259 19.9622 145.803 19.6849 145.313 19.5055C144.563 19.2446 143.764 19.1141 142.965 19.1141C142.1 19.0978 141.236 19.2935 140.47 19.6849C139.752 20.06 139.116 20.5819 138.61 21.218C138.088 21.8867 137.697 22.6369 137.436 23.436C136.865 25.4257 136.882 27.5459 137.485 29.5193C137.762 30.3184 138.219 31.036 138.79 31.6558C139.361 32.2592 140.046 32.7321 140.812 33.042C141.644 33.3845 142.541 33.5476 143.438 33.5476C143.878 33.5476 144.318 33.4824 144.743 33.3519C145.15 33.2377 145.525 33.0746 145.9 32.8626C146.227 32.6832 146.536 32.4549 146.814 32.2103C146.895 32.1287 146.977 32.0472 147.058 31.9656L147.124 31.9004C147.156 31.8515 147.221 31.8351 147.27 31.8351C147.385 31.8351 147.466 31.9167 147.482 32.0146V32.618C147.482 32.9442 147.743 33.2214 148.086 33.2214H150.597C150.924 33.2051 151.185 32.9442 151.185 32.6017V13.6017C151.185 13.2755 150.924 12.9982 150.597 12.9819M146.618 29.1115C145.264 30.3184 143.226 30.3184 141.872 29.1115C141.318 28.5081 141.024 27.2686 141.024 26.2901C141.024 25.3115 141.301 24.1862 141.872 23.5665C143.226 22.3596 145.264 22.3596 146.618 23.5665C147.189 24.1699 147.466 25.3115 147.466 26.2901C147.466 27.2686 147.173 28.5081 146.618 29.1115Z" fill="white"/>
<path d="M164.444 21.2668C163.775 20.6471 162.992 20.1741 162.144 19.8642C160.318 19.2282 158.328 19.2282 156.485 19.8642C155.637 20.1741 154.854 20.6471 154.185 21.2668C153.533 21.8703 153.011 22.6042 152.652 23.4196C151.902 25.4909 151.902 27.7578 152.652 29.8291C153.011 30.6445 153.533 31.3784 154.185 31.9818C154.854 32.6016 155.637 33.0745 156.485 33.3681C158.312 34.0042 160.301 34.0042 162.144 33.3681C162.992 33.0582 163.775 32.5853 164.444 31.9655C165.096 31.3621 165.618 30.6282 165.977 29.8127C166.727 27.7415 166.727 25.4745 165.977 23.4033C165.634 22.6042 165.112 21.8703 164.444 21.2668ZM161.688 29.3887C160.334 30.6119 158.295 30.6119 156.942 29.3887C156.387 28.7853 156.094 27.5947 156.094 26.5999C156.094 25.605 156.371 24.4308 156.942 23.8273C158.295 22.6205 160.334 22.6205 161.688 23.8273C162.242 24.4308 162.536 25.6213 162.536 26.5999C162.536 27.5784 162.258 28.769 161.688 29.3887Z" fill="white"/>
<path d="M36.7605 18.3966C36.6463 18.0867 35.0481 15.1348 32.0635 11.4163C31.982 11.3185 31.933 11.2206 31.933 11.1065C31.7536 8.93738 31.4601 6.8009 31.036 4.66442C30.9382 4.22407 30.5794 3.89789 30.1227 3.84897L27.024 3.47386C26.9914 3.47386 26.9751 3.47386 26.9425 3.47386C26.5837 3.47386 26.2901 3.76742 26.2901 4.12622V5.20262C26.2901 5.21892 26.2738 5.21892 26.2575 5.23523C26.2412 5.23523 26.2412 5.23523 26.2249 5.21892C24.2841 3.45755 22.1966 1.89188 19.9785 0.505619C19.5219 0.195748 19 0.0326576 18.4455 0.0489666C17.9073 0.0489666 17.3691 0.212057 16.9124 0.505619C6.24634 7.09446 0.3751 17.7932 0.146774 18.3966C0.0815381 18.5434 0.0489197 18.6902 0.0489197 18.8533C0.0489197 19.3425 0.3751 19.7666 0.848062 19.8807L3.91416 20.4679C4.32188 20.582 4.63175 20.9408 4.68068 21.3648C4.7133 21.903 5.28411 34.0369 6.01802 37.1846C6.14849 37.6412 6.55622 37.9674 7.04549 37.9674H7.0781C8.8721 37.9185 10.5193 37.8859 12.2807 37.8696H12.4275C12.6232 37.8696 12.77 37.7065 12.77 37.5271C12.7047 36.467 12.5416 34.0533 12.4112 31.4927C12.4112 31.4275 12.3948 31.346 12.3948 31.2807C12.3785 31.0687 12.2644 30.873 12.085 30.7588C11.139 30.188 10.5356 29.1932 10.4704 28.0842C10.3073 23.8275 10.2257 18.9185 10.4541 15.0696C10.4541 14.7271 10.7476 14.4498 11.0901 14.4661C11.4326 14.4661 11.7099 14.7597 11.6936 15.1022C11.6936 15.1185 11.6936 15.1348 11.6936 15.1511C11.5468 17.7116 11.5305 20.7451 11.5794 23.7297C11.5794 24.1374 11.9219 24.4636 12.3296 24.4472C12.7373 24.4309 13.0635 24.1048 13.0472 23.697C12.9983 20.6962 13.0146 17.6301 13.1614 15.0696C13.1614 14.7271 13.4549 14.4498 13.7974 14.4661C14.1399 14.4661 14.4172 14.7597 14.4009 15.1022C14.4009 15.1185 14.4009 15.1348 14.4009 15.1511C14.2541 17.6953 14.2378 20.7125 14.2867 23.6807C14.2867 24.0884 14.6292 24.4146 15.0369 24.3983C15.4446 24.3983 15.7708 24.0558 15.7545 23.6481C15.7056 20.6472 15.7219 17.6138 15.8687 15.0533C15.885 14.7108 16.1948 14.4498 16.521 14.4824C16.8472 14.4988 17.0918 14.7597 17.0918 15.0859C17.0918 15.1022 17.0918 15.1185 17.0918 15.1348C16.8635 18.8696 16.9451 23.5992 17.0918 27.758V27.7906V27.8558C17.0918 27.8721 17.0918 27.8885 17.0918 27.9048C17.0918 28.9975 16.5536 30.0249 15.6566 30.6447C15.4936 30.7588 15.3957 30.9382 15.3794 31.1176C15.3794 31.1176 15.2978 31.7537 15.5914 34.8361C15.7219 36.1897 15.8197 37.1194 15.8687 37.5434C15.885 37.7065 16.0318 37.8206 16.1948 37.8206H16.4884H18.3313H18.5597C19.3588 37.8206 20.1253 37.8206 20.8592 37.8206L22.6043 37.8369C22.7674 37.8369 22.9142 37.7065 22.9305 37.5434C23.3382 33.8412 23.436 31.77 23.436 31.77C23.436 31.5906 23.2893 31.4275 23.1099 31.4112L20.9897 31.1176C20.6961 31.085 20.4678 30.873 20.3863 30.5957C20.3536 30.4816 20.3536 30.3837 20.3536 30.2696C21.218 17.94 25.279 13.7812 25.279 13.7812C25.3442 13.7159 25.4094 13.667 25.4747 13.6181C25.7682 13.406 26.176 13.4713 26.388 13.7648C26.4206 13.8138 26.4532 13.8627 26.4695 13.9116C26.5021 14.0095 26.5184 14.1073 26.5184 14.2052C26.8609 18.0867 26.6978 24.6756 26.4858 29.8292C26.3064 34.2 26.0781 37.6249 26.0781 37.6249C26.0781 37.7717 26.1923 37.8859 26.3391 37.8859C27.497 37.9022 28.6386 37.9348 29.8292 37.9511H29.8455C30.3184 37.9511 30.7425 37.6249 30.873 37.1683C31.6069 34.0206 32.1777 21.903 32.2103 21.3648C32.2592 20.9408 32.5691 20.582 32.9768 20.4679L36.0592 19.8807C36.63 19.7339 36.9725 19.1631 36.8257 18.5923C36.7931 18.5108 36.7768 18.4455 36.7605 18.3966Z" fill="white"/>
</svg>
