<svg width="63" height="44" viewBox="0 0 63 44" fill="none" xmlns="http://www.w3.org/2000/svg">
<path d="M44.5404 13.7768C44.4566 13.5622 43.3135 11.4576 41.1923 8.8172C41.1387 8.75314 41.1048 8.67503 41.0946 8.59224C40.9669 7.05524 40.7538 5.52648 40.4562 4.01302C40.4222 3.86096 40.3414 3.72331 40.225 3.61935C40.1086 3.51538 39.9626 3.4503 39.8073 3.43323L37.6094 3.16073C37.59 3.15954 37.5706 3.15954 37.5512 3.16073C37.4279 3.16073 37.3095 3.2096 37.2223 3.29658C37.1351 3.38357 37.0861 3.50155 37.0861 3.62456V4.38757C37.0858 4.39506 37.0826 4.40214 37.0772 4.40732C37.0717 4.41251 37.0645 4.41541 37.057 4.4154C37.0538 4.41552 37.0505 4.41496 37.0475 4.41376C37.0445 4.41256 37.0418 4.41075 37.0395 4.40844C35.6583 3.16121 34.1677 2.04003 32.5856 1.05839C32.2617 0.840554 31.8797 0.724623 31.4889 0.725592C31.1006 0.725658 30.7211 0.841559 30.3993 1.05839C22.7868 5.74313 18.598 13.3651 18.4364 13.7768C18.3899 13.8768 18.3661 13.9858 18.3666 14.096C18.3671 14.2063 18.392 14.315 18.4393 14.4146C18.4867 14.5142 18.5555 14.6022 18.6408 14.6723C18.7261 14.7424 18.8259 14.793 18.9329 14.8204L21.125 15.2413C21.2701 15.2807 21.3999 15.3627 21.4976 15.4766C21.5953 15.5906 21.6563 15.7312 21.6728 15.8802C21.6914 16.2652 22.1054 24.8856 22.6264 27.1213C22.6688 27.2819 22.7633 27.4239 22.8952 27.5252C23.0271 27.6266 23.189 27.6815 23.3555 27.6814H23.3718C24.651 27.6489 25.8221 27.628 27.0873 27.6106H27.1931C27.2581 27.61 27.3202 27.5839 27.366 27.5378C27.4117 27.4918 27.4374 27.4296 27.4374 27.3648C27.3862 26.6122 27.2757 24.8914 27.1862 23.0743C27.1862 23.0291 27.1803 22.9723 27.178 22.9259C27.174 22.8504 27.1516 22.777 27.1127 22.7122C27.0738 22.6473 27.0196 22.5929 26.9547 22.5537C26.621 22.3549 26.3415 22.0771 26.1409 21.7451C25.9403 21.413 25.8248 21.0368 25.8046 20.6496C25.6883 17.6266 25.6313 14.1339 25.7976 11.3996C25.8001 11.283 25.8489 11.1722 25.9333 11.0916C26.0177 11.0109 26.1308 10.9669 26.2477 10.9694C26.3646 10.9719 26.4757 11.0205 26.5566 11.1047C26.6375 11.1888 26.6816 11.3016 26.6791 11.4182C26.6791 11.4298 26.6791 11.4413 26.6791 11.4529C26.571 13.2747 26.5628 15.4292 26.6012 17.5547C26.6037 17.6931 26.6612 17.8248 26.7611 17.921C26.861 18.0171 26.995 18.0697 27.1338 18.0672C27.2726 18.0648 27.4047 18.0074 27.5011 17.9078C27.5975 17.8082 27.6503 17.6745 27.6478 17.5361C27.6083 15.3967 27.6188 13.2283 27.7292 11.3996C27.7317 11.283 27.7805 11.1722 27.8649 11.0916C27.9493 11.0109 28.0624 10.9669 28.1793 10.9694C28.2962 10.9719 28.4073 11.0205 28.4882 11.1047C28.5691 11.1888 28.6132 11.3016 28.6107 11.4182V11.4529C28.5026 13.2654 28.4944 15.4071 28.5317 17.5211C28.5338 17.6595 28.591 17.7913 28.6907 17.8877C28.7904 17.984 28.9243 18.0369 29.0631 18.0348C29.2019 18.0326 29.3341 17.9756 29.4308 17.8762C29.5274 17.7768 29.5804 17.6432 29.5783 17.5048C29.5399 15.3747 29.5504 13.2144 29.6608 11.3984C29.6633 11.2819 29.7121 11.1711 29.7965 11.0904C29.8809 11.0097 29.994 10.9658 30.1109 10.9682C30.2278 10.9707 30.3389 11.0194 30.4198 11.1035C30.5007 11.1877 30.5448 11.3004 30.5423 11.417V11.4518C30.3842 14.1084 30.4353 17.4724 30.5423 20.4235C30.5429 20.4328 30.5429 20.4421 30.5423 20.4513C30.5423 20.4664 30.5423 20.4815 30.5423 20.4954V20.5244C30.5427 20.9072 30.4494 21.2844 30.2707 21.6232C30.092 21.9621 29.8332 22.2524 29.5166 22.469C29.4604 22.5077 29.4137 22.5585 29.3801 22.6178C29.3465 22.6771 29.3267 22.7432 29.3224 22.8111C29.3224 22.8111 29.2678 23.2645 29.469 25.4596C29.562 26.4186 29.6341 27.083 29.6667 27.3834C29.674 27.4395 29.7018 27.491 29.7446 27.5282C29.7875 27.5654 29.8425 27.5856 29.8992 27.5851H30.1039C30.5261 27.5851 30.961 27.5851 31.4145 27.5851H31.5831C32.1553 27.5851 32.7007 27.5851 33.2252 27.5851L34.4695 27.5956C34.5266 27.596 34.5819 27.5754 34.6248 27.5378C34.6677 27.5001 34.6952 27.448 34.7021 27.3915C34.9893 24.7604 35.0579 23.2819 35.0579 23.2819C35.0561 23.2189 35.0316 23.1587 34.9889 23.1123C34.9462 23.0659 34.8881 23.0363 34.8254 23.0291L33.3136 22.8215C33.2131 22.8091 33.1186 22.7674 33.0418 22.7015C32.9651 22.6357 32.9095 22.5488 32.8821 22.4516C32.863 22.3759 32.8563 22.2976 32.8624 22.2197C33.4752 13.4498 36.3755 10.494 36.3755 10.494C36.4179 10.4484 36.4651 10.4076 36.5162 10.3722C36.5737 10.3309 36.6399 10.3033 36.7098 10.2913C36.7796 10.2794 36.8513 10.2836 36.9192 10.3035C36.9872 10.3234 37.0497 10.3586 37.102 10.4062C37.1543 10.4539 37.195 10.5129 37.221 10.5786C37.2424 10.6471 37.2549 10.718 37.2582 10.7897C37.5094 13.546 37.3873 18.2377 37.2314 21.8974C37.1 25.0039 36.9419 27.4425 36.9419 27.4425C36.9419 27.4905 36.961 27.5365 36.995 27.5704C37.029 27.6043 37.0752 27.6234 37.1233 27.6234C37.9455 27.6373 38.7514 27.6535 39.6154 27.6756H39.6329C39.7993 27.6755 39.9611 27.6205 40.093 27.5192C40.2248 27.4179 40.3194 27.276 40.362 27.1155C40.883 24.8798 41.2923 16.2594 41.3144 15.8745C41.3313 15.7256 41.3925 15.5852 41.4901 15.4713C41.5878 15.3574 41.7173 15.2753 41.8622 15.2355L44.0543 14.8146C44.2168 14.7736 44.3609 14.6797 44.4639 14.5478C44.5669 14.4159 44.6229 14.2535 44.6229 14.0864C44.6177 13.9785 44.5896 13.873 44.5404 13.7768Z" fill="#FF8000"/>
<path d="M6.03152 31.1242H3.26495C2.36717 31.1242 2.36717 31.1242 2.17994 32.1678C1.99271 33.2115 1.99271 33.2497 2.81606 33.2497H4.46624L3.53591 38.5838C3.30332 39.7747 2.77768 40.5957 1.17053 41.0793C0.75886 41.1952 0.646057 41.3402 0.646057 41.5269C0.646057 41.7507 0.721647 41.9374 0.908876 42.385C1.17053 43.0181 1.31939 43.1306 1.54383 43.1306C1.81003 43.1057 2.07326 43.0556 2.32996 42.981C4.61044 42.2354 5.54543 40.4821 5.91988 38.3948L6.96651 32.3905C7.15374 31.123 7.15374 31.123 6.03618 31.123" fill="#FF8000"/>
<path d="M15.4186 31.1243C14.2964 31.1243 14.2964 31.1243 14.1475 32.0519L13.3242 36.9048C13.0997 38.3218 12.7253 39.1428 11.3472 39.1428C10.0005 39.1428 9.51445 38.3218 9.73889 37.0556L10.5239 32.4311C10.7483 31.1266 10.7111 31.1266 9.55166 31.1266C8.42945 31.1266 8.38875 31.1266 8.24338 32.0218L7.42004 36.8689C6.93394 39.6287 8.65389 41.3437 11.0855 41.3437C13.8149 41.3437 15.1988 40.1134 15.6477 37.2051L16.4699 32.394C16.6571 31.1266 16.5861 31.1266 15.4232 31.1266" fill="#FF8000"/>
<path d="M20.5424 39.0663C21.439 39.0292 21.9251 38.6198 21.9251 38.2093C21.9251 37.6875 21.2902 37.5008 20.4296 37.2399C18.7469 36.7181 17.213 36.1209 17.213 34.3305C17.213 32.205 18.9713 31.05 21.1774 31.05C22.1077 31.05 23.1601 31.0872 23.8323 31.166C24.4312 31.2402 24.5812 31.4269 24.394 32.3592C24.2068 33.2915 23.9823 33.3657 23.4637 33.3286C22.8275 33.2915 22.0054 33.2127 21.0332 33.2127C19.911 33.2127 19.5737 33.622 19.5737 33.9954C19.5737 34.4801 20.0226 34.741 21.0704 35.039C23.0148 35.5991 24.2858 36.3818 24.2858 38.054C24.2858 40.0311 22.8275 41.1848 20.4715 41.2614C19.3449 41.3028 18.2169 41.2419 17.1014 41.0793C16.3536 40.9634 16.3164 40.9634 16.5025 39.8861C16.6897 38.9167 16.6897 38.8425 17.4002 38.9167C18.7841 39.0651 19.6446 39.1034 20.5401 39.0651" fill="#FF8000"/>
<path d="M32.7705 31.1243H26.4454C25.5488 31.1243 25.5488 31.1243 25.3615 32.205C25.1743 33.2857 25.2115 33.2869 25.9976 33.2869H28.0537L26.8908 39.9615C26.6663 41.2672 26.7047 41.2672 27.863 41.2672C28.948 41.2672 28.9852 41.2672 29.1352 40.3395L30.3318 33.2915H32.3088C33.2066 33.2915 33.2066 33.2915 33.3938 32.2096C33.581 31.1277 33.581 31.1289 32.7577 31.1289" fill="#FF8000"/>
<path d="M43.9148 33.2498C44.8125 33.2498 44.8125 33.2498 44.9998 32.1679C45.187 31.086 45.187 31.0872 44.3636 31.0872H39.8387C38.2304 31.0872 38.2676 31.0872 38.006 32.6897L36.8431 39.4397C36.5477 41.1953 36.5849 41.1953 38.1909 41.1953H42.61C43.5403 41.1953 43.5077 41.1953 43.6938 40.1517C43.881 39.0698 43.881 39.0698 43.0588 39.0698H39.2375L39.5364 37.1309H42.7146C43.5752 37.1309 43.5752 37.1309 43.7252 36.1244C43.874 35.0808 43.874 35.0808 42.7146 35.0808H39.9132L40.2132 33.2533L43.9148 33.2498Z" fill="#FF8000"/>
<path d="M48.7025 36.8294L50.1607 33.622C50.277 33.3611 50.277 33.3611 50.4596 33.3611C50.6422 33.3611 50.6468 33.3611 50.6841 33.6603L51.1329 36.8294H48.7025ZM52.6657 32.3546C52.4412 31.0872 52.4412 31.0872 50.6468 31.0872C48.9641 31.0872 49.0013 31.0872 48.478 32.1308L44.7032 39.9986C44.1415 41.1176 44.2543 41.2301 45.6335 41.2301C46.7174 41.2301 46.7174 41.2301 47.1662 40.2224L47.7675 38.8761H51.4318L51.619 40.2178C51.7679 41.2254 51.8063 41.2254 52.8901 41.2254C54.124 41.2254 54.2368 41.1501 54.0123 39.9197L52.6657 32.3546Z" fill="#FF8000"/>
<path d="M61.6039 31.1243H55.2462C54.3484 31.1243 54.3484 31.1243 54.1624 32.205C53.9763 33.2857 54.0123 33.2869 54.7973 33.2869H56.8545L55.6916 39.9615C55.4671 41.2672 55.5044 41.2672 56.6638 41.2672C57.7488 41.2672 57.786 41.2672 57.936 40.3395L59.1327 33.2915H61.1096C62.0074 33.2915 62.0074 33.2915 62.1946 32.2096C62.4191 31.1289 62.4191 31.1289 61.5957 31.1289" fill="#FF8000"/>
</svg>
