<svg width="143" height="38" viewBox="0 0 143 38" fill="none" xmlns="http://www.w3.org/2000/svg">
<path d="M43.4898 14.9277H48.0495C48.1584 14.9279 48.2648 14.9607 48.3547 15.0218C48.4446 15.083 48.5139 15.1696 48.5537 15.2705L53.1804 27.0122C53.2005 27.0624 53.2352 27.1055 53.2802 27.1358C53.3251 27.1661 53.3782 27.1824 53.4325 27.1824C53.4868 27.1824 53.5399 27.1661 53.5848 27.1358C53.6298 27.1055 53.6645 27.0624 53.6846 27.0122L58.3608 15.2705C58.401 15.17 58.4704 15.0838 58.5603 15.023C58.6502 14.9622 58.7563 14.9296 58.865 14.9293H63.3465C63.4901 14.9297 63.6277 14.9868 63.7291 15.0879C63.8304 15.189 63.8874 15.326 63.8874 15.4688V31.9008C63.8874 32.0436 63.8304 32.1806 63.7291 32.2818C63.6277 32.3829 63.4901 32.4399 63.3465 32.4403H60.2626C60.119 32.4399 59.9814 32.3829 59.88 32.2818C59.7786 32.1806 59.7217 32.0436 59.7217 31.9008V23.2294C59.7222 23.1665 59.7005 23.1054 59.6605 23.0567C59.6204 23.008 59.5645 22.9747 59.5024 22.9627C59.4403 22.9506 59.3759 22.9605 59.3204 22.9907C59.2649 23.0209 59.2217 23.0694 59.1984 23.1279L55.5289 32.1039C55.4881 32.2032 55.4185 32.2882 55.3291 32.3481C55.2396 32.408 55.1342 32.4401 55.0263 32.4403H51.8355C51.7277 32.4399 51.6224 32.4077 51.5329 32.3479C51.4435 32.288 51.3739 32.2031 51.3329 32.1039L47.6634 23.1279C47.6394 23.0704 47.5962 23.023 47.541 22.9936C47.4859 22.9642 47.4222 22.9547 47.3608 22.9666C47.2994 22.9786 47.2441 23.0113 47.2041 23.0592C47.1642 23.1071 47.1421 23.1672 47.1417 23.2294V31.9008C47.1417 32.0439 47.0846 32.1811 46.9828 32.2823C46.8811 32.3835 46.7431 32.4403 46.5993 32.4403H43.4898C43.3459 32.4403 43.2079 32.3835 43.1062 32.2823C43.0045 32.1811 42.9473 32.0439 42.9473 31.9008V15.4672C42.9473 15.3241 43.0045 15.1869 43.1062 15.0857C43.2079 14.9846 43.3459 14.9277 43.4898 14.9277Z" fill="white"/>
<path d="M65.0856 25.7855C65.0856 22.5248 67.0894 18.804 71.9379 18.804C76.8152 18.804 78.7106 22.5216 78.7106 25.7855C78.705 26.0898 78.6799 26.3935 78.6356 26.6947C78.6175 26.8237 78.5531 26.9418 78.4543 27.0272C78.3554 27.1127 78.2289 27.1597 78.0979 27.1596H69.532C69.487 27.1596 69.4426 27.1707 69.403 27.1919C69.3633 27.2132 69.3296 27.244 69.3049 27.2815C69.2802 27.319 69.2653 27.362 69.2615 27.4066C69.2577 27.4513 69.2651 27.4962 69.2831 27.5372C69.8065 28.7273 71.0605 29.2604 72.2905 29.2604C73.2845 29.2604 74.2593 28.9812 74.8847 28.5131C74.9892 28.4379 75.1171 28.402 75.2457 28.4119C75.3742 28.4218 75.4951 28.4767 75.5867 28.567L77.2747 30.1918C77.3268 30.2421 77.3682 30.3023 77.3965 30.3688C77.4248 30.4353 77.4394 30.5068 77.4394 30.579C77.4394 30.6512 77.4248 30.7227 77.3965 30.7892C77.3682 30.8557 77.3268 30.9159 77.2747 30.9661C76.185 32.0039 74.3391 32.7671 72.1517 32.7671C67.3064 32.7639 65.0856 29.0462 65.0856 25.7855ZM69.4427 24.3844H74.4077C74.4505 24.3842 74.4927 24.374 74.5307 24.3545C74.5688 24.3351 74.6018 24.307 74.627 24.2726C74.6521 24.2381 74.6688 24.1983 74.6756 24.1562C74.6824 24.1142 74.6792 24.0712 74.6661 24.0306C74.2529 22.6978 73.1888 22.1488 71.9379 22.1488C70.6871 22.1488 69.5974 22.6978 69.1842 24.0306C69.1712 24.0712 69.168 24.1142 69.1748 24.1562C69.1816 24.1983 69.1982 24.2381 69.2234 24.2726C69.2486 24.307 69.2815 24.3351 69.3196 24.3545C69.3577 24.374 69.3999 24.3842 69.4427 24.3844Z" fill="white"/>
<path d="M80.1209 19.1308H82.8013C82.8725 19.1308 82.943 19.1448 83.0088 19.1719C83.0747 19.199 83.1344 19.2387 83.1848 19.2888C83.2352 19.3389 83.2752 19.3984 83.3024 19.4639C83.3297 19.5293 83.3437 19.5995 83.3437 19.6703V20.424H83.398C84.1015 19.4545 85.4832 18.8071 87.2445 18.8071C91.1725 18.8071 92.8796 21.3935 92.8796 24.9509V31.9007C92.8796 32.0438 92.8225 32.181 92.7207 32.2822C92.619 32.3834 92.481 32.4402 92.3372 32.4402H89.4127C89.2689 32.4402 89.1309 32.3834 89.0292 32.2822C88.9274 32.181 88.8703 32.0438 88.8703 31.9007V25.5697C88.8703 23.8719 88.1922 22.4709 86.2697 22.4709C84.427 22.4709 83.5878 23.791 83.5878 25.5697V31.9007C83.5878 32.0438 83.5307 32.181 83.4289 32.2822C83.3272 32.3834 83.1892 32.4402 83.0454 32.4402H80.1209C79.9771 32.4402 79.8391 32.3834 79.7374 32.2822C79.6356 32.181 79.5785 32.0438 79.5785 31.9007V19.6703C79.5785 19.5995 79.5925 19.5293 79.6198 19.4639C79.647 19.3984 79.687 19.3389 79.7374 19.2888C79.7877 19.2387 79.8475 19.199 79.9133 19.1719C79.9792 19.1448 80.0497 19.1308 80.1209 19.1308Z" fill="white"/>
<path d="M93.9629 26.6202V19.6703C93.9629 19.5995 93.9769 19.5293 94.0042 19.4639C94.0315 19.3984 94.0714 19.339 94.1218 19.2889C94.1722 19.2388 94.232 19.199 94.2978 19.1719C94.3636 19.1448 94.4341 19.1309 94.5054 19.1309H97.4298C97.501 19.1309 97.5716 19.1448 97.6374 19.1719C97.7032 19.199 97.763 19.2388 97.8134 19.2889C97.8637 19.339 97.9037 19.3984 97.9309 19.4639C97.9582 19.5293 97.9722 19.5995 97.9722 19.6703V26.0553C97.9722 27.7261 98.5961 29.1002 100.41 29.1002C102.199 29.1002 103.038 27.8054 103.038 26.0553V19.6703C103.038 19.5273 103.095 19.39 103.197 19.2889C103.298 19.1877 103.436 19.1309 103.58 19.1309H106.509C106.653 19.1313 106.791 19.1883 106.892 19.2894C106.993 19.3906 107.05 19.5275 107.05 19.6703V31.9008C107.05 32.0436 106.993 32.1805 106.892 32.2817C106.791 32.3828 106.653 32.4398 106.509 32.4402H103.824C103.68 32.4402 103.542 32.3834 103.441 32.2822C103.339 32.1811 103.282 32.0438 103.282 31.9008V31.1439H103.228C102.521 32.1166 101.197 32.7639 99.4895 32.7639C95.6429 32.7639 93.9629 30.1776 93.9629 26.6202Z" fill="white"/>
<path d="M109.324 13.4458H112.253C112.397 13.4458 112.535 13.5026 112.637 13.6038C112.738 13.705 112.795 13.8422 112.795 13.9853V31.9009C112.795 32.044 112.738 32.1812 112.637 32.2824C112.535 32.3836 112.397 32.4404 112.253 32.4404H109.324C109.18 32.4404 109.042 32.3836 108.94 32.2824C108.838 32.1812 108.781 32.044 108.781 31.9009V13.9853C108.781 13.8422 108.838 13.705 108.94 13.6038C109.042 13.5026 109.18 13.4458 109.324 13.4458Z" fill="white"/>
<path d="M113.765 25.7855C113.765 22.5248 116.069 18.804 120.945 18.804C125.821 18.804 128.124 22.5216 128.124 25.7855C128.124 29.0494 125.822 32.7671 120.945 32.7671C116.068 32.7671 113.765 29.0462 113.765 25.7855ZM120.945 28.9923C122.625 28.9923 124.034 27.6721 124.034 25.7855C124.034 23.8989 122.623 22.5756 120.945 22.5756C119.266 22.5756 117.856 23.8957 117.856 25.7823C117.856 27.6689 119.273 28.9923 120.945 28.9923Z" fill="white"/>
<path d="M130.412 35.3026L132.204 33.4827C132.295 33.3892 132.418 33.332 132.548 33.3218C132.679 33.3116 132.809 33.349 132.914 33.4271C133.669 33.9787 134.582 34.2751 135.519 34.2729C137.226 34.2729 138.744 33.7064 138.744 31.6056V30.2854H138.689C138.201 30.9312 136.955 31.7135 135.06 31.7135C131.023 31.7135 128.774 28.7225 128.774 25.3809C128.774 21.6362 131.374 18.8071 135.06 18.8071C136.928 18.8071 138.201 19.4545 138.933 20.37H138.988V19.6703C138.988 19.5275 139.045 19.3905 139.146 19.2894C139.247 19.1883 139.385 19.1312 139.529 19.1308H142.241C142.385 19.1308 142.523 19.1877 142.624 19.2888C142.726 19.39 142.783 19.5272 142.783 19.6703V31.6865C142.783 35.2693 140.183 37.7478 135.522 37.7478C133.348 37.7478 131.489 37.0353 130.43 36.0706C130.377 36.0219 130.334 35.9632 130.305 35.8979C130.275 35.8325 130.259 35.762 130.257 35.6903C130.256 35.6187 130.269 35.5475 130.295 35.4809C130.322 35.4143 130.362 35.3537 130.412 35.3026ZM138.771 25.246C138.771 23.7117 137.714 22.2567 135.818 22.2567C133.921 22.2567 132.864 23.7117 132.864 25.246C132.864 26.7804 133.921 28.237 135.818 28.237C137.714 28.237 138.771 26.782 138.771 25.246Z" fill="white"/>
<path d="M36.0997 18.0947C35.9848 17.8012 34.4165 14.9213 31.5065 11.3083C31.4329 11.2201 31.3864 11.1127 31.3724 10.9989C31.1973 8.89629 30.9049 6.80495 30.4966 4.73456C30.4499 4.52649 30.339 4.33814 30.1794 4.19587C30.0197 4.05361 29.8194 3.96456 29.6063 3.9412L26.5782 3.5715C26.5516 3.56987 26.525 3.56987 26.4984 3.5715C26.3291 3.5715 26.1668 3.63837 26.0471 3.75739C25.9275 3.87642 25.8602 4.03786 25.8602 4.20619V5.25183C25.8602 5.26193 25.8562 5.27162 25.849 5.27876C25.8418 5.2859 25.8321 5.28991 25.8219 5.28991C25.8127 5.28918 25.8038 5.28588 25.7964 5.28039C23.9015 3.57323 21.8565 2.03855 19.6859 0.694781C19.2432 0.399899 18.7222 0.243004 18.1894 0.244153C17.6565 0.242521 17.1353 0.399457 16.6929 0.694781C6.25553 7.10194 0.50878 17.5219 0.287015 18.0947C0.221509 18.2315 0.187706 18.3812 0.188098 18.5327C0.188087 18.7616 0.264785 18.984 0.406071 19.1647C0.547357 19.3455 0.745175 19.4743 0.968265 19.5307L3.97566 20.1067C4.17455 20.1603 4.35261 20.2722 4.48665 20.4278C4.62068 20.5835 4.70447 20.7757 4.72711 20.9794C4.75263 21.5077 5.32061 33.3018 6.03377 36.361C6.0925 36.5807 6.22257 36.775 6.40376 36.9136C6.58495 37.0522 6.80712 37.1273 7.0357 37.1274H7.05804C8.81301 37.0845 10.4196 37.0544 12.1554 37.0306H12.3006C12.3896 37.0302 12.4748 36.9947 12.5376 36.932C12.6004 36.8692 12.6357 36.7843 12.6357 36.6958V36.6863C12.5655 35.6565 12.4139 33.3018 12.2911 30.8154C12.2911 30.752 12.2911 30.6742 12.2799 30.6123C12.2744 30.509 12.2437 30.4086 12.1903 30.3199C12.1369 30.2311 12.0625 30.1566 11.9736 30.103C11.5159 29.8307 11.1326 29.4507 10.8574 28.9963C10.5822 28.542 10.4237 28.0273 10.3957 27.4976C10.2361 23.361 10.158 18.5803 10.3861 14.8404C10.3967 14.6861 10.4666 14.5418 10.5813 14.4375C10.696 14.3331 10.8467 14.2767 11.0022 14.28C11.1576 14.2832 11.3058 14.3459 11.416 14.455C11.5262 14.5641 11.5899 14.7112 11.5939 14.8658C11.5947 14.8811 11.5947 14.8964 11.5939 14.9118C11.4455 17.4061 11.4343 20.3526 11.4854 23.2611C11.4885 23.4504 11.5672 23.6308 11.7041 23.7625C11.841 23.8941 12.0249 23.9663 12.2153 23.9632C12.4057 23.96 12.587 23.8818 12.7194 23.7456C12.8518 23.6095 12.9244 23.4266 12.9213 23.2373C12.867 20.3082 12.8814 17.3426 13.0329 14.8404C13.0363 14.6809 13.1033 14.5292 13.2191 14.4188C13.3349 14.3085 13.49 14.2483 13.6504 14.2517C13.8107 14.2551 13.9632 14.3216 14.0742 14.4368C14.1852 14.552 14.2457 14.7063 14.2423 14.8658V14.9118C14.0939 17.3918 14.0827 20.3225 14.1338 23.2166C14.1367 23.406 14.2152 23.5865 14.352 23.7183C14.4887 23.8501 14.6725 23.9225 14.8629 23.9196C15.0533 23.9166 15.2347 23.8386 15.3673 23.7026C15.4998 23.5666 15.5726 23.3838 15.5697 23.1944C15.517 20.2796 15.5314 17.3236 15.683 14.8388C15.6863 14.6793 15.7533 14.5277 15.8691 14.4173C15.9849 14.3069 16.14 14.2467 16.3004 14.2501C16.4608 14.2535 16.6132 14.3201 16.7242 14.4352C16.8352 14.5504 16.8957 14.7047 16.8923 14.8642C16.8931 14.8795 16.8931 14.8949 16.8923 14.9102C16.6769 18.5469 16.7471 23.15 16.8923 27.1866C16.8923 27.1866 16.8923 27.2231 16.8923 27.2247C16.8923 27.2263 16.8923 27.2659 16.8923 27.2866V27.3358C16.8927 27.8598 16.7648 28.3761 16.5197 28.84C16.2745 29.3039 15.9194 29.7014 15.4851 29.9983C15.4077 30.0509 15.3435 30.1204 15.2973 30.2016C15.2511 30.2827 15.2242 30.3733 15.2187 30.4664C15.2187 30.4664 15.1437 31.0852 15.4197 34.0904C15.5473 35.401 15.6463 36.3118 15.6909 36.7212C15.7007 36.7983 15.7386 36.8692 15.7974 36.9204C15.8562 36.9715 15.9319 36.9995 16.01 36.9989H16.2908H18.0889H18.3202C19.1052 36.9989 19.8534 36.9989 20.573 36.9989L22.2801 37.0147C22.3587 37.0153 22.4348 36.9869 22.4937 36.935C22.5525 36.8832 22.5901 36.8116 22.5992 36.7339C22.9932 33.1336 23.0858 31.1121 23.0858 31.1121C23.0843 31.0257 23.051 30.9427 22.9922 30.879C22.9334 30.8153 22.8532 30.7751 22.7667 30.7662L20.6926 30.4806C20.5549 30.4639 20.4253 30.4071 20.32 30.3173C20.2147 30.2276 20.1384 30.1088 20.1007 29.9761C20.0746 29.8724 20.0655 29.7653 20.0736 29.6587C20.9032 17.6568 24.8822 13.6107 24.8822 13.6107C24.9404 13.5507 25.0051 13.4975 25.0753 13.452C25.1836 13.3732 25.3144 13.3309 25.4486 13.3314C25.5766 13.3314 25.7016 13.3697 25.8075 13.4413C25.9133 13.5129 25.9951 13.6144 26.0421 13.7328C26.0715 13.8265 26.0886 13.9236 26.0932 14.0216C26.4378 17.7948 26.2702 24.2131 26.0565 29.2224C25.8762 33.4716 25.6592 36.8085 25.6592 36.8085C25.659 36.8409 25.6652 36.873 25.6776 36.9031C25.6899 36.9331 25.7081 36.9604 25.7311 36.9834C25.754 37.0064 25.7814 37.0247 25.8115 37.0371C25.8416 37.0496 25.8739 37.056 25.9065 37.056C27.0361 37.075 28.1481 37.0988 29.3271 37.1274H29.3494C29.578 37.1273 29.8002 37.0522 29.9814 36.9136C30.1626 36.775 30.2926 36.5807 30.3514 36.361C31.0661 33.3018 31.6277 21.5077 31.658 20.9794C31.6813 20.7759 31.7653 20.584 31.8992 20.4285C32.0332 20.2729 32.2109 20.1608 32.4095 20.1067L35.4169 19.5307C35.5647 19.4932 35.7023 19.4237 35.82 19.3271C35.9377 19.2306 36.0325 19.1095 36.0977 18.9724C36.1629 18.8352 36.1969 18.6855 36.1973 18.5338C36.1976 18.3821 36.1643 18.2321 36.0997 18.0947Z" fill="white"/>
</svg>
