<svg width="35" height="46" viewBox="0 0 35 46" fill="none" xmlns="http://www.w3.org/2000/svg">
<path d="M25.3948 32.2571C25.4118 32.2025 25.4153 32.1448 25.4053 32.0886C25.3952 32.0324 25.3718 31.9793 25.3368 31.9336C25.3019 31.8879 25.2566 31.8509 25.2043 31.8255C25.1521 31.8001 25.0945 31.787 25.0362 31.7874H21.8353L17.9108 44.7984L16.4214 38.4774L20.9851 32.3821C21.0167 32.3431 21.0395 32.298 21.0521 32.2498L21.1328 31.9828C21.1389 31.9594 21.1394 31.9351 21.1343 31.9115C21.1292 31.8879 21.1187 31.8659 21.1034 31.8469C21.0882 31.828 21.0686 31.8128 21.0464 31.8025C21.0242 31.7922 20.9998 31.787 20.9752 31.7874H17.7234L14.2321 36.7879L15.7214 32.2571C15.7384 32.2024 15.7419 32.1446 15.7318 32.0883C15.7217 32.032 15.6981 31.9788 15.6631 31.9331C15.628 31.8874 15.5825 31.8504 15.5301 31.825C15.4777 31.7997 15.42 31.7868 15.3615 31.7874H12.1433L9.35815 41.0396C9.42021 39.4508 8.16045 38.1995 7.42694 37.4069C6.83244 36.7612 6.47375 36.3024 6.53829 35.7926C6.58277 35.4534 6.74791 35.1403 7.0048 34.9081C7.26168 34.676 7.59391 34.5397 7.94326 34.5231C8.74503 34.4612 9.09007 34.7015 9.60017 34.9358C9.6587 34.9633 9.72263 34.9782 9.78758 34.9795C9.84023 34.9798 9.89248 34.9704 9.94148 34.9515C9.99577 34.9307 10.0445 34.898 10.0838 34.8559C10.1232 34.8138 10.1522 34.7635 10.1686 34.7088L10.9133 32.2328L10.3945 31.9973C10.3709 31.9864 10.3461 31.9743 10.3188 31.9634L10.294 31.9512C9.67771 31.6953 9.01361 31.568 8.34414 31.5774C5.52304 31.5774 2.95638 33.5521 2.53315 35.9808C2.23776 37.68 3.35106 38.8791 4.164 39.7542L4.23475 39.8307C4.8218 40.4473 5.22765 40.923 5.13333 41.4801C4.99929 42.2581 4.22606 42.7024 3.48014 42.7618C2.66099 42.8274 2.1484 42.6028 1.50797 42.3273C1.39574 42.263 1.26391 42.2393 1.13563 42.2606C1.07412 42.2782 1.01796 42.3104 0.972094 42.3541C0.926223 42.398 0.892031 42.4521 0.872512 42.5118L0.168789 44.9077L0.078186 45.2135C1.02555 45.6502 2.05581 45.8883 3.10283 45.9126C5.50691 45.9126 7.58581 45.0084 8.8195 42.8298L8.09095 45.2572C8.074 45.3119 8.07045 45.3697 8.08059 45.426C8.09073 45.4823 8.11428 45.5355 8.14932 45.5812C8.18436 45.6269 8.22992 45.6639 8.28231 45.6893C8.3347 45.7146 8.39244 45.7275 8.45088 45.7269H11.6704L12.4746 43.0568L13.4539 41.6768L14.2085 45.4393C14.2251 45.5234 14.2716 45.5992 14.3397 45.6531C14.4078 45.7071 14.4932 45.7358 14.5808 45.7342H21.3475L25.3948 32.2571Z" fill="white"/>
<path d="M34.0071 32.8407C33.6948 32.5067 33.3142 32.2407 32.89 32.0598C32.4658 31.879 32.0074 31.7873 31.5447 31.7909H26.2103L25.9832 32.5276C25.9725 32.5614 25.9696 32.597 25.9745 32.632C25.9794 32.667 25.9921 32.7006 26.0117 32.7303L26.1644 32.9633C26.2376 33.0761 26.285 33.2031 26.3032 33.3355C26.3214 33.468 26.3101 33.6027 26.2699 33.7304L22.8096 45.2522C22.7919 45.3066 22.7875 45.3643 22.7968 45.4207C22.8061 45.4771 22.8288 45.5305 22.8631 45.5767C22.8974 45.6229 22.9423 45.6605 22.9943 45.6866C23.0462 45.7127 23.1037 45.7265 23.1621 45.7268H26.2649L27.233 42.5238L28.633 42.5299C32.0089 42.5723 33.7216 40.2529 34.4837 37.7345C34.7952 36.704 34.9429 35.9636 34.9392 35.4697C34.9255 34.3676 34.6488 33.5374 34.0071 32.8407ZM31.4404 35.7755C31.4057 36.4285 31.1525 37.266 30.8546 37.9129C30.4574 38.7807 30.0876 39.4276 29.0401 39.5441L28.1278 39.538L29.5564 34.796L30.7566 34.8033C30.8386 34.8008 30.9203 34.8147 30.9967 34.8442C31.0731 34.8736 31.1426 34.9179 31.2009 34.9745C31.3846 35.1614 31.4553 35.426 31.4367 35.7755H31.4404Z" fill="white"/>
<path d="M31.4367 13.6519C31.3486 13.4274 30.1286 11.2245 27.8647 8.46085C27.807 8.3941 27.7708 8.31219 27.7605 8.22539C27.6234 6.61664 27.3955 5.01654 27.0778 3.43241C27.0418 3.27334 26.9558 3.1293 26.8318 3.02047C26.7078 2.91164 26.5521 2.84348 26.3865 2.82555L24.0284 2.54639C24.0077 2.54515 23.987 2.54515 23.9663 2.54639C23.8347 2.54639 23.7084 2.59754 23.6153 2.68859C23.5222 2.77963 23.4699 2.90312 23.4699 3.03188V3.83051C23.4699 3.83823 23.4667 3.84564 23.4611 3.8511C23.4556 3.85657 23.448 3.85964 23.4401 3.85964C23.4328 3.85979 23.4256 3.85718 23.4202 3.85235C21.9464 2.54661 20.3554 1.37308 18.6667 0.345915C18.324 0.12051 17.9204 8.21512e-05 17.5075 4.79343e-06C17.093 -0.000874142 16.6876 0.119138 16.3433 0.344701C8.22005 5.24328 3.74948 13.215 3.57696 13.6519C3.52699 13.7573 3.50115 13.872 3.50125 13.9881C3.5013 14.1631 3.56102 14.333 3.67094 14.4711C3.78086 14.6092 3.93472 14.7074 4.10817 14.7503L6.45391 15.1909C6.60849 15.2326 6.74678 15.3185 6.85096 15.4377C6.95514 15.5569 7.02046 15.7039 7.03849 15.8597C7.0571 16.2626 7.49895 25.2854 8.05498 27.6255C8.10042 27.7935 8.20137 27.942 8.34211 28.048C8.48286 28.1541 8.6555 28.2116 8.83317 28.2117H8.85178C10.217 28.1777 11.4669 28.1559 12.816 28.1377H12.9289C12.9983 28.137 13.0646 28.1096 13.1134 28.0615C13.1622 28.0133 13.1896 27.9482 13.1895 27.8804V27.8743C13.1349 27.0866 13.017 25.2854 12.9215 23.3835C12.9215 23.3362 12.9153 23.2767 12.9128 23.2282C12.9087 23.1493 12.8849 23.0726 12.8436 23.0047C12.8023 22.9368 12.7447 22.8798 12.6757 22.8386C12.3192 22.6307 12.0206 22.3401 11.8063 21.9925C11.592 21.6449 11.4686 21.251 11.447 20.8457C11.3229 17.6815 11.2621 14.0258 11.4395 11.1638C11.4422 11.0418 11.4943 10.9258 11.5843 10.8414C11.6744 10.7569 11.7951 10.7109 11.9199 10.7135C12.0446 10.7161 12.1632 10.767 12.2496 10.8551C12.3359 10.9432 12.383 11.0612 12.3803 11.1832C12.3803 11.1954 12.3803 11.2075 12.3803 11.2196C12.2649 13.1264 12.2562 15.3815 12.2972 17.6062C12.2998 17.7511 12.3612 17.889 12.4678 17.9896C12.5744 18.0902 12.7175 18.1453 12.8656 18.1427C13.0137 18.1401 13.1548 18.0801 13.2576 17.9759C13.3605 17.8716 13.4168 17.7317 13.4142 17.5868C13.372 15.3475 13.3832 13.0778 13.5023 11.1638C13.5036 11.1034 13.5171 11.0438 13.5419 10.9885C13.5668 10.9332 13.6025 10.8832 13.6471 10.8414C13.6917 10.7996 13.7443 10.7668 13.8019 10.7448C13.8594 10.7229 13.9209 10.7122 13.9826 10.7135C14.0444 10.7148 14.1053 10.728 14.1619 10.7522C14.2185 10.7765 14.2696 10.8115 14.3123 10.8551C14.3551 10.8987 14.3887 10.9502 14.4111 11.0064C14.4335 11.0627 14.4444 11.1228 14.4431 11.1832C14.4431 11.1954 14.4431 11.2075 14.4431 11.2196C14.3289 13.1167 14.319 15.3584 14.3587 17.571C14.361 17.7159 14.4221 17.8539 14.5284 17.9547C14.6348 18.0556 14.7778 18.111 14.9259 18.1087C15.074 18.1065 15.2152 18.0468 15.3183 17.9427C15.4214 17.8387 15.478 17.6989 15.4757 17.554C15.4335 15.3244 15.4459 13.0633 15.5638 11.1626C15.5721 11.0446 15.6264 10.9342 15.7157 10.8544C15.8049 10.7746 15.9222 10.7314 16.0431 10.7339C16.164 10.7364 16.2793 10.7844 16.365 10.8678C16.4507 10.9513 16.5003 11.0638 16.5034 11.182C16.5034 11.1941 16.5034 11.2063 16.5034 11.2184C16.3346 13.9991 16.3904 17.5201 16.5034 20.609C16.5034 20.609 16.5034 20.6357 16.5034 20.6381C16.5034 20.6405 16.5034 20.6697 16.5034 20.6842V20.7146C16.5037 21.1153 16.4042 21.51 16.2135 21.8647C16.0228 22.2193 15.7465 22.5232 15.4087 22.75C15.3485 22.7904 15.2985 22.8436 15.2624 22.9056C15.2263 22.9676 15.205 23.0368 15.2002 23.108C15.2002 23.108 15.1419 23.5826 15.3566 25.8802C15.4571 26.8839 15.5328 27.5794 15.5688 27.8937C15.5767 27.9525 15.6063 28.0064 15.652 28.0453C15.6977 28.0842 15.7564 28.1054 15.817 28.1049H16.0355C16.486 28.1049 16.9514 28.1049 17.4342 28.1049H17.6142C18.2248 28.1049 18.8069 28.1049 19.3679 28.1049L20.6947 28.1158C20.7557 28.1163 20.8147 28.0947 20.8605 28.0553C20.9063 28.0159 20.9356 27.9614 20.9429 27.9022C21.2507 25.1483 21.3227 23.6008 21.3227 23.6008C21.3208 23.5349 21.2946 23.4719 21.249 23.4233C21.2034 23.3747 21.1415 23.3438 21.0745 23.3362L19.461 23.1189C19.3538 23.1059 19.2529 23.0622 19.171 22.9934C19.0891 22.9245 19.0298 22.8335 19.0005 22.7318C18.9802 22.6525 18.9735 22.5705 18.9807 22.489C19.6099 13.3157 22.7128 10.2232 22.7128 10.2232C22.7586 10.178 22.8089 10.1373 22.863 10.1018C22.9243 10.0583 22.9951 10.0292 23.0698 10.0166C23.1444 10.004 23.2211 10.0083 23.2938 10.0292C23.3665 10.05 23.4334 10.0869 23.4893 10.1369C23.5452 10.1869 23.5887 10.2488 23.6163 10.3178C23.6384 10.3897 23.6517 10.4638 23.656 10.5387C23.9229 13.4238 23.7926 18.3345 23.6275 22.165C23.4872 25.4165 23.3172 27.969 23.3172 27.969C23.3172 28.0192 23.3376 28.0674 23.3739 28.1029C23.4102 28.1384 23.4595 28.1583 23.5108 28.1583C24.3895 28.1729 25.2484 28.1899 26.1718 28.2129H26.188C26.3658 28.2129 26.5386 28.1554 26.6796 28.0494C26.8205 27.9434 26.9217 27.7948 26.9674 27.6267C27.5222 25.2867 27.9603 16.2639 27.9839 15.8609C28.0014 15.7049 28.0666 15.5577 28.1708 15.4385C28.2751 15.3192 28.4136 15.2334 28.5684 15.1921L30.9043 14.7503C31.0194 14.7219 31.1266 14.6688 31.2183 14.595C31.3099 14.5212 31.3837 14.4285 31.4344 14.3235C31.4851 14.2185 31.5113 14.1038 31.5113 13.9877C31.5113 13.8716 31.4849 13.7569 31.4342 13.6519H31.4367Z" fill="white"/>
</svg>
