<svg width="196" height="39" viewBox="0 0 196 39" fill="none" xmlns="http://www.w3.org/2000/svg">
<path d="M56.8119 17.3134V14.8581C56.8027 14.7123 56.7397 14.5752 56.6353 14.4737C56.5308 14.3722 56.3925 14.3135 56.2473 14.3091H43.0059C42.857 14.3128 42.7152 14.3738 42.6095 14.4793C42.5038 14.5849 42.4423 14.7271 42.4375 14.8769V17.2946C42.443 17.4432 42.5036 17.5843 42.6074 17.6901C42.7113 17.7959 42.8508 17.8588 42.9985 17.8662H47.3437C47.4195 17.8699 47.4912 17.9021 47.5445 17.9564C47.5978 18.0107 47.6289 18.0832 47.6316 18.1595V31.9893C47.6315 32.1405 47.6893 32.2858 47.7931 32.3951C47.8969 32.5044 48.0387 32.5691 48.1888 32.5759H51.0831C51.2284 32.5684 51.3656 32.5063 51.4675 32.4018C51.5693 32.2973 51.6283 32.1581 51.6328 32.0119V18.0993C51.6493 18.0371 51.685 17.9818 51.7347 17.9413C51.7844 17.9008 51.8456 17.8771 51.9095 17.8737H56.2623C56.4065 17.8666 56.543 17.8063 56.6458 17.7043C56.7486 17.6024 56.8104 17.4659 56.8194 17.321" fill="white"/>
<path d="M64.1712 20.6561C63.7133 20.0875 63.1093 19.6558 62.4248 19.4077C61.5314 19.0949 60.5884 18.9496 59.6427 18.9791C58.6245 18.9776 57.6133 19.1479 56.6512 19.4829C55.8958 19.7449 55.1903 20.134 54.5645 20.6335C54.4628 20.7452 54.4079 20.892 54.4114 21.0434C54.4149 21.1948 54.4765 21.3389 54.5832 21.4457L55.7836 22.6828C55.8942 22.7926 56.0433 22.8541 56.1987 22.8541C56.3541 22.8541 56.5032 22.7926 56.6138 22.6828C56.9084 22.4193 57.2351 22.1944 57.586 22.0135C58.1233 21.7439 58.7169 21.6072 59.3174 21.6149C59.9488 21.6037 60.5637 21.8183 61.0525 22.2203C61.5049 22.5963 61.748 23.2732 61.8004 24.3561C61.7891 24.4252 61.7541 24.4882 61.7015 24.5342C61.649 24.5802 61.5821 24.6063 61.5124 24.608C61.06 24.608 60.5813 24.608 60.069 24.6343C59.4434 24.6502 58.8191 24.7017 58.1993 24.7885C57.5875 24.8722 56.9835 25.0054 56.3931 25.1871C55.8382 25.3531 55.3131 25.607 54.8375 25.9391C54.3876 26.263 54.0189 26.6879 53.7606 27.18C53.4795 27.7493 53.342 28.3795 53.3604 29.0149C53.3523 29.5945 53.4805 30.1678 53.7344 30.6882C53.9631 31.1617 54.2955 31.5769 54.7066 31.9027C55.1303 32.2413 55.6136 32.4964 56.1314 32.6548C56.6727 32.8166 57.2344 32.8989 57.7992 32.8992C58.5687 32.9036 59.3314 32.7541 60.0428 32.4592C60.5944 32.2331 61.0814 31.8725 61.4601 31.4101H61.4975C61.5367 31.3912 61.5808 31.385 61.6237 31.3924C61.6666 31.3998 61.7061 31.4205 61.7368 31.4515C61.7566 31.4696 61.7725 31.4917 61.7834 31.5163C61.7944 31.5409 61.8001 31.5675 61.8004 31.5944V32.0494C61.8059 32.1966 61.8662 32.3363 61.9694 32.4408C62.0727 32.5453 62.2112 32.6069 62.3575 32.6134H64.7844C64.9323 32.6077 65.0724 32.5453 65.176 32.439C65.2796 32.3327 65.3389 32.1906 65.3416 32.0418V26.2362C65.353 25.0566 65.2667 23.8781 65.0836 22.7129C64.9391 21.9801 64.6267 21.2914 64.1712 20.7012V20.6561ZM61.8153 27.9057C61.8234 28.2644 61.7397 28.6191 61.5723 28.936C61.4077 29.2253 61.1802 29.4734 60.9066 29.6617C60.6173 29.8536 60.3009 30.0006 59.968 30.0978C59.6147 30.2029 59.2483 30.256 58.8799 30.2558C58.4446 30.2564 58.0171 30.1396 57.6421 29.9174C57.4578 29.8194 57.3055 29.6702 57.2033 29.4875C57.1012 29.3047 57.0536 29.0963 57.0662 28.8871C57.056 28.6984 57.0888 28.5099 57.162 28.3359C57.2352 28.1619 57.347 28.0071 57.4888 27.8831C57.7878 27.6359 58.1339 27.4529 58.5059 27.3454C58.9153 27.2257 59.3368 27.1526 59.7624 27.1273C60.2074 27.101 60.5701 27.086 60.8505 27.086H61.5199C61.593 27.0932 61.6611 27.127 61.7113 27.1809C61.7615 27.2349 61.7905 27.3054 61.7929 27.3793L61.8153 27.9057Z" fill="white"/>
<path d="M102.515 20.6563C102.058 20.0885 101.456 19.6569 100.773 19.4079C99.8779 19.0954 98.9338 18.9501 97.9869 18.9792C96.9687 18.9771 95.9573 19.1475 94.9954 19.4831C94.2394 19.7435 93.5336 20.1327 92.9088 20.6337C92.8045 20.7429 92.7464 20.8884 92.7464 21.0398C92.7464 21.1912 92.8045 21.3367 92.9088 21.4459L94.1091 22.683C94.1637 22.7384 94.2286 22.7823 94.3002 22.8123C94.3718 22.8423 94.4485 22.8577 94.5261 22.8577C94.6036 22.8577 94.6804 22.8423 94.7519 22.8123C94.8235 22.7823 94.8884 22.7384 94.943 22.683C95.2377 22.4195 95.5644 22.1946 95.9153 22.0137C96.4552 21.744 97.0512 21.6074 97.6541 21.6151C98.2833 21.6037 98.8959 21.8184 99.3817 22.2205C99.8342 22.5965 100.081 23.2733 100.111 24.3563C100.1 24.4257 100.066 24.4891 100.013 24.5353C99.9601 24.5814 99.8928 24.6072 99.823 24.6082C99.3742 24.6082 98.8919 24.6082 98.3833 24.6345C97.7576 24.6502 97.1334 24.7017 96.5136 24.7887C95.9003 24.8705 95.2949 25.0038 94.7037 25.1873C94.1499 25.3534 93.626 25.6072 93.1518 25.9393C92.7027 26.2641 92.3342 26.6888 92.0749 27.1801C91.792 27.7489 91.6545 28.3795 91.6747 29.0151C91.6648 29.5949 91.793 30.1686 92.0487 30.6884C92.2799 31.1603 92.6119 31.575 93.0209 31.9029C93.4455 32.2422 93.9302 32.4974 94.4494 32.6549C95.7424 33.039 97.1269 32.9701 98.3758 32.4594C98.9269 32.2323 99.4137 31.8719 99.7931 31.4103H99.8267C99.8666 31.3916 99.9112 31.3855 99.9547 31.3929C99.9981 31.4003 100.038 31.4208 100.07 31.4517C100.107 31.4897 100.129 31.5409 100.13 31.5946V32.0496C100.135 32.1967 100.195 32.3365 100.299 32.441C100.402 32.5454 100.54 32.6071 100.687 32.6136H103.114C103.262 32.6078 103.402 32.5454 103.505 32.4392C103.609 32.3329 103.668 32.1908 103.671 32.042V26.2363C103.68 25.057 103.595 23.8788 103.417 22.7131C103.272 21.9804 102.959 21.2917 102.504 20.7014L102.515 20.6563ZM100.133 27.9059C100.145 28.2524 100.067 28.596 99.9077 28.9035C99.7485 29.2111 99.5133 29.4722 99.2247 29.6619C98.9366 29.8537 98.6215 30.0008 98.2898 30.098C97.9352 30.203 97.5675 30.2562 97.1979 30.256C96.7639 30.2561 96.3377 30.1393 95.9639 29.9175C95.7781 29.8205 95.624 29.6718 95.5199 29.4891C95.4158 29.3064 95.3661 29.0975 95.3768 28.8873C95.3657 28.6985 95.3981 28.5097 95.4714 28.3356C95.5446 28.1615 95.6569 28.0067 95.7993 27.8833C96.1025 27.6339 96.454 27.4508 96.8314 27.3456C97.2422 27.2262 97.6648 27.1531 98.0916 27.1275C98.5366 27.1012 98.8993 27.0861 99.1835 27.0861H99.8492C99.9233 27.0917 99.9927 27.1249 100.044 27.1791C100.095 27.2333 100.124 27.3047 100.126 27.3794L100.133 27.9059Z" fill="white"/>
<path d="M135.594 20.6561C135.136 20.0882 134.532 19.6566 133.848 19.4077C132.953 19.0949 132.009 18.9497 131.062 18.9791C130.05 18.9785 129.045 19.1488 128.089 19.4829C127.331 19.7433 126.623 20.1325 125.995 20.6335C125.894 20.7452 125.839 20.892 125.842 21.0434C125.846 21.1948 125.907 21.3389 126.014 21.4457L127.214 22.6828C127.269 22.7382 127.334 22.7821 127.405 22.8121C127.477 22.8421 127.554 22.8575 127.631 22.8575C127.709 22.8575 127.786 22.8421 127.857 22.8121C127.929 22.7821 127.994 22.7382 128.048 22.6828C128.344 22.4192 128.672 22.1943 129.024 22.0135C129.562 21.7439 130.155 21.6072 130.756 21.6149C131.386 21.603 132 21.8177 132.487 22.2203C132.939 22.5963 133.179 23.2732 133.216 24.3561C133.205 24.4262 133.17 24.4901 133.117 24.5363C133.063 24.5825 132.995 24.6079 132.924 24.608C132.476 24.608 131.997 24.608 131.489 24.6343C130.863 24.65 130.239 24.7015 129.619 24.7885C129.006 24.8721 128.401 25.0054 127.809 25.1871C127.254 25.3531 126.729 25.607 126.253 25.9391C125.804 26.2632 125.437 26.688 125.18 27.18C124.896 27.7481 124.758 28.3792 124.78 29.0149C124.77 29.5947 124.898 30.1684 125.154 30.6882C125.384 31.1618 125.718 31.577 126.13 31.9027C126.552 32.242 127.034 32.4972 127.551 32.6547C128.845 33.0388 130.231 32.9699 131.481 32.4592C132.034 32.2366 132.52 31.8755 132.895 31.4101H132.932C132.971 31.3912 133.015 31.385 133.058 31.3924C133.101 31.3998 133.141 31.4205 133.171 31.4515C133.209 31.4895 133.23 31.5408 133.231 31.5944V32.0494C133.238 32.1966 133.3 32.3359 133.403 32.4401C133.507 32.5443 133.646 32.6061 133.792 32.6134H136.215C136.364 32.6069 136.504 32.5445 136.609 32.4386C136.713 32.3326 136.774 32.191 136.78 32.0418V26.2362C136.788 25.0565 136.701 23.8782 136.518 22.7129C136.369 21.9797 136.053 21.2911 135.594 20.7012V20.6561ZM133.22 27.9057C133.231 28.2642 133.149 28.6195 132.981 28.936C132.816 29.2253 132.588 29.4734 132.315 29.6617C132.026 29.8536 131.709 30.0006 131.376 30.0978C131.023 30.2031 130.657 30.2563 130.288 30.2558C129.854 30.256 129.428 30.1391 129.054 29.9174C128.868 29.8205 128.713 29.6719 128.609 29.4893C128.504 29.3066 128.453 29.0976 128.463 28.8871C128.454 28.6982 128.487 28.5096 128.561 28.3356C128.635 28.1616 128.747 28.0069 128.89 27.8831C129.189 27.6344 129.537 27.4512 129.91 27.3454C130.321 27.226 130.744 27.1529 131.171 27.1273C131.604 27.101 131.971 27.086 132.259 27.086H132.924C132.998 27.0916 133.067 27.1249 133.118 27.1792C133.168 27.2335 133.197 27.3049 133.197 27.3792L133.22 27.9057Z" fill="white"/>
<path d="M89.9135 20.7727C89.4041 20.1979 88.7728 19.7455 88.0662 19.4491C87.2976 19.1328 86.4734 18.9755 85.643 18.9866C84.7206 18.9797 83.8041 19.1363 82.9357 19.4491C82.1195 19.7444 81.3696 20.1993 80.7294 20.7878C80.0996 21.371 79.5967 22.0789 79.2523 22.8671C78.5322 24.8589 78.5322 27.042 79.2523 29.0338C79.5955 29.8205 80.0987 30.5262 80.7294 31.1056C81.3663 31.6994 82.1171 32.1561 82.9357 32.448C83.8034 32.7639 84.7202 32.9218 85.643 32.9143C86.654 32.9142 87.653 32.6935 88.571 32.2675C89.2893 31.9483 89.9394 31.4925 90.4856 30.9251C90.5844 30.8169 90.6392 30.6754 90.6392 30.5284C90.6392 30.3815 90.5844 30.24 90.4856 30.1318L88.7393 28.842L88.6121 28.7518C88.501 28.6876 88.3719 28.662 88.2448 28.679C88.1177 28.696 87.9998 28.7546 87.9091 28.8458C87.6636 29.1183 87.3846 29.3583 87.079 29.5602C86.5375 29.876 85.9143 30.0216 85.2898 29.978C84.6653 29.9344 84.0681 29.7038 83.5751 29.3158C82.9923 28.7149 82.6433 27.9237 82.5916 27.086C82.5908 27.0174 82.6145 26.9508 82.6584 26.8984C82.7024 26.8459 82.7636 26.8111 82.831 26.8003H90.953C91.1015 26.7917 91.2413 26.7267 91.344 26.6186C91.4468 26.5104 91.5048 26.367 91.5065 26.2174V25.5782C91.5258 24.6464 91.3866 23.718 91.0951 22.8333C90.8463 22.0696 90.4498 21.3629 89.9284 20.7539L89.9135 20.7727ZM87.3557 24.123H82.8684C82.7944 24.1213 82.7239 24.0917 82.6705 24.0402C82.6172 23.9887 82.5851 23.919 82.5804 23.8448C82.6159 23.6319 82.6788 23.4247 82.7674 23.2281C82.8932 22.9427 83.0766 22.6866 83.3059 22.4761C83.5486 22.2477 83.8313 22.0667 84.1398 21.9421C84.4966 21.7997 84.8778 21.7294 85.2616 21.7353C85.5858 21.7244 85.9086 21.7832 86.2085 21.9077C86.5083 22.0321 86.7783 22.2195 87.0004 22.4573C87.3723 22.8318 87.5979 23.3282 87.6361 23.856C87.6314 23.9309 87.5987 24.0012 87.5446 24.0528C87.4905 24.1044 87.419 24.1335 87.3445 24.1343" fill="white"/>
<path d="M75.1464 26.1197L75.0604 25.9993C75.0052 25.9088 74.976 25.8047 74.976 25.6985C74.976 25.5923 75.0052 25.4882 75.0604 25.3977L79.5477 19.7575C79.5948 19.6988 79.6182 19.6245 79.6133 19.5493C79.6085 19.4741 79.5757 19.4035 79.5216 19.3514C79.4681 19.3067 79.4004 19.2827 79.3309 19.2837H75.7971C75.6158 19.2832 75.4369 19.3247 75.2742 19.4049C75.1114 19.4851 74.9692 19.6019 74.8585 19.7462L74.6678 19.9944L71.2125 24.4577L71.1677 24.5103L71.1415 24.5404H71.1153C71.076 24.5588 71.032 24.5647 70.9892 24.5573C70.9465 24.55 70.9069 24.5296 70.876 24.499C70.8479 24.4684 70.8286 24.4307 70.8199 24.39V13.6209C70.8147 13.4762 70.7565 13.3385 70.6563 13.2343C70.5562 13.1302 70.4214 13.067 70.2777 13.0569H67.5142C67.3702 13.0679 67.2353 13.1319 67.1353 13.2366C67.0352 13.3414 66.9771 13.4795 66.972 13.6247V32.0043C66.9774 32.1509 67.0373 32.2901 67.1397 32.3945C67.2422 32.4989 67.3798 32.5609 67.5255 32.5683H70.2627C70.4075 32.5629 70.545 32.5031 70.6481 32.4008C70.7512 32.2985 70.8125 32.1611 70.8199 32.0156V26.8191C70.827 26.7778 70.8465 26.7397 70.876 26.71C70.9076 26.6805 70.9473 26.6612 70.9899 26.6545C71.0326 26.6478 71.0762 26.654 71.1153 26.6724H71.1415C71.1528 26.6782 71.1619 26.6874 71.1677 26.6987L71.235 26.7815L74.6005 31.8501L74.7949 32.0983C74.9031 32.2396 75.0418 32.3542 75.2005 32.4337C75.3592 32.5132 75.5338 32.5554 75.7111 32.5571H79.4505C79.4912 32.5512 79.5291 32.5328 79.559 32.5044C79.6044 32.4632 79.6352 32.4082 79.6467 32.3478C79.6582 32.2874 79.6497 32.2249 79.6225 32.1698L75.1464 26.1197Z" fill="white"/>
<path d="M124.971 20.2236C125.014 20.103 125.037 19.9759 125.038 19.8476C125.042 19.8239 125.042 19.7998 125.038 19.7762C125.012 19.6484 124.945 19.5328 124.847 19.4477C124.749 19.3626 124.625 19.3128 124.496 19.3062H122.297C122.029 19.3066 121.769 19.3989 121.561 19.5678C121.352 19.7366 121.207 19.9719 121.149 20.2349L121.078 20.4981L119.227 27.3341C119.18 27.3851 119.116 27.4172 119.047 27.4243C119.004 27.4206 118.962 27.406 118.925 27.3816C118.888 27.3573 118.859 27.3242 118.838 27.2852L118.808 27.1799L116.961 20.2725L116.931 20.1484C116.854 19.9097 116.705 19.7014 116.503 19.5535C116.301 19.4055 116.059 19.3255 115.809 19.325H113.42C113.153 19.3242 112.894 19.4146 112.686 19.5813C112.477 19.7481 112.331 19.9812 112.272 20.2424V20.3064L112.219 20.5132L110.54 27.3115C110.526 27.3371 110.507 27.3595 110.484 27.3775C110.46 27.3956 110.434 27.4088 110.406 27.4165C110.378 27.4242 110.348 27.4262 110.319 27.4224C110.29 27.4185 110.263 27.409 110.237 27.3942C110.203 27.3747 110.174 27.3461 110.155 27.3115L108.147 20.4944L108.05 20.1785C108.053 20.1586 108.053 20.1382 108.05 20.1183C107.968 19.8844 107.817 19.6817 107.616 19.5382C107.415 19.3947 107.174 19.3176 106.928 19.3174H104.508C104.379 19.3257 104.256 19.3761 104.157 19.4608C104.059 19.5456 103.991 19.6602 103.963 19.7875V19.8627C103.967 19.9906 103.99 20.1172 104.03 20.2387L108.009 31.8011C108.023 31.8454 108.042 31.8882 108.065 31.929C108.152 32.1209 108.288 32.2856 108.461 32.4055C108.634 32.5253 108.835 32.5959 109.044 32.6096H111.378C111.614 32.592 111.839 32.5033 112.023 32.355C112.208 32.2068 112.344 32.0059 112.414 31.7786L112.511 31.4439L114.347 24.8223C114.368 24.7941 114.395 24.7707 114.426 24.7539C114.457 24.737 114.491 24.727 114.526 24.7245C114.563 24.7261 114.598 24.7361 114.63 24.7537C114.662 24.7713 114.689 24.7961 114.71 24.8261L116.815 31.5943C116.852 31.7233 116.9 31.8491 116.957 31.9704C117.044 32.1575 117.179 32.3183 117.348 32.4364C117.517 32.5546 117.713 32.626 117.918 32.6434H120.192C120.396 32.6274 120.592 32.5565 120.76 32.4381C120.928 32.3197 121.061 32.1581 121.145 31.9704C121.206 31.832 121.258 31.6901 121.302 31.5455L125.042 20.3665C125.037 20.343 125.037 20.3186 125.042 20.2951" fill="white"/>
<path d="M150.354 19.7538C150.342 19.7206 150.332 19.6867 150.324 19.6522C150.278 19.551 150.205 19.4644 150.114 19.402C150.022 19.3397 149.915 19.3039 149.804 19.2988H147.475C147.256 19.3057 147.043 19.3742 146.86 19.4965C146.678 19.6188 146.533 19.7899 146.443 19.9906C146.443 20.0245 146.416 20.0583 146.401 20.0959V20.1561C146.391 20.1882 146.382 20.2208 146.375 20.2539L146.304 20.4795L144.195 27.4621L144.165 27.5448C144.151 27.6071 144.116 27.6624 144.065 27.7009C144.014 27.7394 143.952 27.7587 143.889 27.7554C143.83 27.7566 143.773 27.7401 143.724 27.7078C143.675 27.6756 143.638 27.6292 143.616 27.5749L141.091 20.4757L141.062 20.3855L140.89 19.9042C140.791 19.7229 140.647 19.5709 140.472 19.4633C140.297 19.3557 140.096 19.2964 139.891 19.2913H137.24C137.148 19.3095 137.061 19.3492 136.987 19.4074C136.913 19.4655 136.853 19.5404 136.814 19.6259C136.8 19.6561 136.79 19.6876 136.784 19.7199C136.765 19.8215 136.772 19.9259 136.802 20.0245L141.824 32.3315C141.899 32.5894 141.884 32.865 141.783 33.1136V33.1512L141.69 33.3806C141.555 33.7152 141.424 34.0235 141.316 34.2868C141.208 34.5345 141.057 34.7611 140.871 34.9561C140.677 35.1449 140.443 35.2864 140.186 35.3697C139.846 35.4716 139.491 35.5198 139.136 35.5126H137.464C137.315 35.5164 137.172 35.5778 137.066 35.6842C136.961 35.7906 136.9 35.9337 136.896 36.0841V38.1898C136.901 38.3402 136.964 38.4829 137.07 38.589C137.176 38.6951 137.318 38.7567 137.468 38.7613H139.712C140.469 38.7859 141.225 38.6946 141.955 38.4906C142.477 38.3331 142.956 38.0593 143.358 37.6897C143.738 37.3161 144.046 36.875 144.266 36.3887C144.516 35.8748 144.765 35.2807 145.014 34.6064L150.391 19.9869C150.41 19.9103 150.41 19.8303 150.391 19.7538" fill="white"/>
<path d="M149.823 29.8835C149.635 29.8792 149.449 29.9156 149.277 29.9902C149.105 30.0648 148.95 30.1759 148.825 30.3159C148.583 30.5863 148.453 30.9399 148.463 31.3035C148.473 31.6672 148.622 32.0131 148.878 32.2696C149.135 32.5261 149.48 32.6736 149.841 32.6816C150.203 32.6896 150.554 32.5575 150.821 32.3126L150.855 32.2825C151.107 32.0179 151.248 31.6656 151.248 31.2992C151.248 30.9328 151.107 30.5805 150.855 30.3159C150.729 30.1754 150.574 30.064 150.401 29.9894C150.228 29.9148 150.041 29.8786 149.853 29.8835" fill="white"/>
<path d="M173.789 20.7877C173.2 20.2129 172.502 19.7639 171.736 19.4679C170.062 18.8398 168.22 18.8398 166.546 19.4679C165.779 19.7599 165.081 20.2094 164.497 20.7877C163.922 21.3598 163.468 22.0427 163.162 22.7956C162.829 23.5777 162.668 25.1269 162.668 26.0857C162.657 27.0974 162.824 28.1031 163.162 29.0563C163.468 29.8205 163.928 30.5128 164.513 31.09C165.098 31.6671 165.795 32.1166 166.561 32.4103C168.235 33.0334 170.076 33.0334 171.751 32.4103C172.514 32.1216 173.208 31.6767 173.791 31.1038C174.373 30.531 174.831 29.8427 175.135 29.0826C175.472 28.128 175.639 27.1212 175.629 26.1083C175.629 25.1495 175.464 23.6003 175.135 22.8219C174.828 22.0693 174.376 21.3855 173.804 20.8102L173.789 20.7877ZM173.146 28.2403C172.959 28.7744 172.663 29.2635 172.278 29.6767C171.893 30.0881 171.429 30.4168 170.913 30.643C169.774 31.1056 168.5 31.1056 167.361 30.643C166.848 30.4144 166.386 30.086 166 29.6767C165.617 29.2623 165.323 28.7734 165.136 28.2403C164.929 27.5425 164.827 26.8176 164.833 26.0895C164.827 25.2575 164.929 24.4283 165.136 23.6228C165.323 23.088 165.62 22.5984 166.006 22.1854C166.393 21.7723 166.86 21.4448 167.38 21.2239C167.943 20.9893 168.546 20.8685 169.156 20.8685C169.765 20.8685 170.369 20.9893 170.932 21.2239C171.452 21.444 171.92 21.7712 172.307 22.1844C172.693 22.5976 172.989 23.0876 173.176 23.6228C173.38 24.4288 173.48 25.2578 173.475 26.0895C173.48 26.8173 173.379 27.5419 173.176 28.2403" fill="white"/>
<path d="M154.688 22.2092C155.033 21.7831 155.474 21.4455 155.974 21.2241C156.54 20.9898 157.147 20.8758 157.758 20.8894C158.332 20.8789 158.9 20.9931 159.426 21.2241C159.815 21.415 160.17 21.6691 160.477 21.9761C160.582 22.0635 160.714 22.1113 160.851 22.1113C160.987 22.1113 161.119 22.0635 161.225 21.9761L161.972 21.3068C162.082 21.2053 162.149 21.0657 162.16 20.9163C162.172 20.7669 162.126 20.6188 162.032 20.5021C161.532 20.0479 160.953 19.6909 160.323 19.4493C159.507 19.1298 158.638 18.9678 157.762 18.9717C156.888 18.9636 156.021 19.1297 155.212 19.4605C154.46 19.7631 153.779 20.2189 153.211 20.7992C152.651 21.3828 152.214 22.0749 151.928 22.8334C151.322 24.8489 151.322 26.9996 151.928 29.0151C152.213 29.773 152.645 30.4659 153.2 31.0531C153.757 31.6402 154.434 32.0983 155.185 32.3955C156.823 33.0233 158.633 33.0233 160.271 32.3955C160.902 32.148 161.477 31.7774 161.965 31.305C162.057 31.1942 162.106 31.0527 162.1 30.9082C162.094 30.7636 162.036 30.6263 161.935 30.5229L161.307 29.91C161.199 29.8085 161.056 29.7521 160.909 29.7521C160.761 29.7521 160.618 29.8085 160.51 29.91C160.155 30.2751 159.727 30.5611 159.255 30.7495C158.783 30.938 158.277 31.0248 157.769 31.0042C157.188 31.0117 156.613 30.891 156.083 30.6508C155.589 30.4213 155.152 30.0864 154.8 29.6694C154.441 29.2399 154.16 28.7497 153.97 28.2217C153.767 27.4782 153.668 26.7102 153.675 25.9393C153.671 25.1709 153.757 24.4048 153.933 23.6569C154.088 23.1285 154.342 22.6347 154.681 22.2017" fill="white"/>
<path d="M194.928 21.9947C194.79 21.4054 194.523 20.8544 194.147 20.3816C193.764 19.93 193.274 19.5832 192.722 19.3739C192.024 19.1183 191.284 18.9983 190.542 19.0204C189.736 18.9874 188.939 19.2011 188.257 19.6333C187.757 19.9964 187.322 20.4427 186.971 20.9531L186.911 21.0396L186.881 21.0847C186.862 21.1059 186.839 21.1229 186.813 21.1345C186.787 21.1462 186.76 21.1523 186.731 21.1524C186.693 21.1519 186.655 21.1408 186.622 21.1203C186.589 21.0997 186.562 21.0705 186.544 21.0359C186.544 21.0133 186.507 20.9757 186.492 20.9381C186.477 20.9005 186.372 20.7426 186.309 20.6298C186.125 20.3406 185.892 20.0861 185.621 19.8777C185.286 19.6216 184.914 19.4187 184.518 19.2761C183.528 18.965 182.469 18.948 181.47 19.2272C181.059 19.346 180.666 19.5219 180.303 19.7499C179.969 19.9556 179.667 20.2089 179.406 20.5019C179.32 20.5997 179.245 20.6974 179.17 20.7952L179.148 20.8253C179.14 20.8394 179.13 20.8521 179.118 20.8629C179.098 20.883 179.075 20.8991 179.049 20.91C179.024 20.921 178.996 20.9267 178.968 20.9268C178.92 20.9278 178.873 20.9118 178.836 20.8815C178.798 20.8513 178.772 20.8088 178.763 20.7614V19.8777C178.758 19.729 178.697 19.5877 178.592 19.4829C178.487 19.378 178.346 19.3175 178.198 19.3137H177.45C177.3 19.3186 177.157 19.3821 177.052 19.4909C176.947 19.5997 176.889 19.7452 176.889 19.8965V31.9929C176.891 32.1479 176.954 32.2957 177.064 32.4042C177.174 32.5127 177.322 32.573 177.476 32.572H178.355C178.508 32.5672 178.653 32.5029 178.759 32.3928C178.866 32.2828 178.926 32.1354 178.927 31.9817V25.5894C178.92 24.9471 178.994 24.3065 179.148 23.683C179.271 23.1433 179.497 22.6327 179.813 22.1789C180.115 21.764 180.516 21.4328 180.98 21.2163C181.515 20.979 182.096 20.8634 182.681 20.8779C183.028 20.848 183.376 20.9109 183.691 21.0601C184.006 21.2094 184.275 21.4397 184.473 21.7277C184.847 22.2917 185.015 23.2543 185.015 24.608V31.9817C185.017 32.1354 185.078 32.2823 185.185 32.3917C185.293 32.5011 185.438 32.5644 185.591 32.5683H186.451C186.604 32.5634 186.75 32.4986 186.857 32.3877C186.963 32.2768 187.023 32.1285 187.023 31.9741V24.4914C187.015 23.9891 187.099 23.4895 187.27 23.0175C187.417 22.6019 187.643 22.2189 187.935 21.8894C188.217 21.5802 188.558 21.332 188.938 21.1599C189.32 20.9845 189.736 20.8947 190.157 20.8967C190.657 20.8791 191.155 20.9782 191.611 21.1863C191.97 21.3583 192.281 21.6166 192.516 21.9383C192.745 22.2591 192.905 22.6239 192.987 23.0099C193.071 23.4119 193.113 23.8214 193.115 24.232V32.008C193.118 32.1594 193.18 32.3035 193.286 32.4106C193.393 32.5176 193.536 32.5795 193.687 32.5833H194.562C194.716 32.5803 194.862 32.5162 194.97 32.4049C195.077 32.2936 195.136 32.1441 195.134 31.9892V24.1229C195.144 23.4069 195.067 22.6922 194.906 21.9947" fill="white"/>
<path d="M35.7701 18.3887C35.6617 18.0992 34.136 15.264 31.309 11.7219C31.2378 11.6348 31.1925 11.5292 31.1781 11.4174C31.0066 9.35139 30.722 7.29648 30.3255 5.262C30.2809 5.05683 30.1737 4.8708 30.0188 4.7299C29.8639 4.589 29.6692 4.50028 29.4617 4.47613L26.5225 4.10011H26.444C26.2793 4.10011 26.1214 4.16587 26.005 4.28293C25.8886 4.39999 25.8232 4.55875 25.8232 4.7243V5.75082C25.8232 5.76079 25.8193 5.77036 25.8123 5.77741C25.8052 5.78446 25.7957 5.78842 25.7858 5.78842C25.7786 5.791 25.7706 5.791 25.7634 5.78842C23.9228 4.10808 21.9353 2.59791 19.8252 1.27623C19.3954 0.985235 18.8886 0.830665 18.3705 0.832536C17.8524 0.830665 17.3456 0.985235 16.9159 1.27623C6.77078 7.58954 1.18779 17.8247 0.974647 18.3887C0.909987 18.5235 0.876737 18.6714 0.877421 18.8211C0.877421 19.0442 0.95076 19.261 1.08602 19.4378C1.22129 19.6146 1.41088 19.7415 1.62531 19.7988L4.54955 20.3665C4.74598 20.4163 4.92272 20.5249 5.0563 20.6781C5.18988 20.8312 5.27398 21.0215 5.29744 21.2239C5.31987 21.7428 5.87331 33.3316 6.56511 36.3359C6.62331 36.5515 6.75037 36.7419 6.92672 36.8778C7.10306 37.0137 7.31893 37.0875 7.5411 37.088H7.56354C9.26498 37.0466 10.8281 37.0165 12.5146 36.994H12.6567C12.7429 36.994 12.8257 36.9595 12.8867 36.8981C12.9477 36.8368 12.982 36.7536 12.982 36.6668C12.9147 35.6516 12.7651 33.3391 12.6454 30.9025C12.6454 30.8423 12.6454 30.7671 12.6454 30.7032C12.6396 30.6022 12.6098 30.504 12.5584 30.4169C12.507 30.3299 12.4355 30.2566 12.35 30.2031C11.9045 29.9362 11.5315 29.5629 11.264 29.1162C10.9965 28.6694 10.8429 28.1632 10.8168 27.6424C10.6635 23.5815 10.585 18.885 10.8168 15.2076C10.8203 15.051 10.8855 14.9023 10.9981 14.794C11.0538 14.7404 11.1195 14.6984 11.1914 14.6703C11.2632 14.6423 11.3399 14.6287 11.417 14.6304C11.4941 14.6322 11.5701 14.6491 11.6407 14.6804C11.7113 14.7117 11.775 14.7566 11.8283 14.8126C11.8816 14.8687 11.9234 14.9347 11.9514 15.007C11.9793 15.0793 11.9928 15.1564 11.991 15.2339V15.2791C11.819 17.7194 11.819 20.6147 11.8527 23.4724C11.8544 23.5643 11.8741 23.6549 11.9106 23.7391C11.9472 23.8233 11.9998 23.8994 12.0656 23.9631C12.1314 24.0268 12.2091 24.0769 12.2941 24.1105C12.3792 24.144 12.47 24.1604 12.5613 24.1587C12.6526 24.1569 12.7427 24.1371 12.8265 24.1004C12.9102 24.0636 12.9859 24.0107 13.0493 23.9445C13.1127 23.8783 13.1624 23.8003 13.1958 23.7148C13.2292 23.6292 13.2455 23.538 13.2437 23.4461C13.1914 20.5696 13.2064 17.6555 13.3522 15.1963C13.3669 15.0473 13.4369 14.9094 13.5484 14.8101C13.6598 14.7109 13.8044 14.6576 13.9533 14.6609C14.1021 14.6642 14.2442 14.7239 14.3512 14.8281C14.4581 14.9322 14.522 15.0732 14.5301 15.2227C14.532 15.2376 14.532 15.2528 14.5301 15.2678C14.388 17.7044 14.3731 20.5846 14.4254 23.4273C14.4254 23.6128 14.4987 23.7907 14.6291 23.9219C14.7596 24.053 14.9365 24.1267 15.1209 24.1267C15.3054 24.1267 15.4823 24.053 15.6128 23.9219C15.7432 23.7907 15.8165 23.6128 15.8165 23.4273C15.7641 20.5621 15.7791 17.663 15.9249 15.2151C15.9396 15.0661 16.0096 14.9282 16.1211 14.8289C16.2325 14.7297 16.3772 14.6764 16.526 14.6797C16.6749 14.683 16.817 14.7427 16.9239 14.8469C17.0309 14.951 17.0948 15.092 17.1028 15.2415C17.1047 15.2564 17.1047 15.2716 17.1028 15.2866C16.8934 18.8587 16.9607 23.3822 17.1028 27.3492V27.3868C17.1048 27.4068 17.1048 27.4269 17.1028 27.4469V27.4845C17.1059 28.0023 16.9827 28.5129 16.7441 28.9717C16.5055 29.4306 16.1588 29.8237 15.7342 30.1166C15.6594 30.1684 15.5973 30.2366 15.5526 30.3161C15.5079 30.3956 15.4818 30.4842 15.4762 30.5754C15.4762 30.5754 15.4014 31.1845 15.6706 34.1362C15.794 35.426 15.8913 36.3171 15.9361 36.7232C15.9445 36.798 15.98 36.867 16.0359 36.917C16.0919 36.967 16.1642 36.9944 16.239 36.994H20.674H22.3306C22.4059 36.9928 22.4784 36.9644 22.5347 36.9141C22.591 36.8637 22.6274 36.7946 22.6372 36.7195C23.0112 33.1812 23.1121 31.1958 23.1121 31.1958C23.1099 31.1102 23.0768 31.0283 23.019 30.9653C22.9613 30.9024 22.8827 30.8627 22.798 30.8536L20.7937 30.5566C20.6595 30.5406 20.5332 30.4849 20.4306 30.3965C20.3281 30.3082 20.254 30.1911 20.2178 30.0602C20.1927 29.9582 20.1839 29.8529 20.1916 29.7481C21.0031 17.945 24.8697 13.9818 24.8697 13.9818C24.9265 13.9218 24.9891 13.8677 25.0566 13.8201C25.1337 13.7649 25.2221 13.728 25.3154 13.7122C25.4087 13.6964 25.5043 13.7022 25.5951 13.729C25.6858 13.7557 25.7693 13.8029 25.8393 13.8669C25.9093 13.9309 25.9639 14.0101 25.999 14.0984C26.0256 14.1903 26.0419 14.2848 26.0476 14.3804C26.3804 18.0879 26.2196 24.3937 26.0139 29.3157C25.8382 33.4895 25.64 36.7683 25.64 36.7683C25.64 36.8332 25.6656 36.8953 25.7112 36.9412C25.7568 36.987 25.8186 37.0128 25.883 37.0128C26.9787 37.0128 28.0594 37.0504 29.2037 37.0804H29.2261C29.4483 37.08 29.6641 37.0062 29.8405 36.8703C30.0168 36.7344 30.1439 36.544 30.2021 36.3284C30.8939 33.3203 31.4473 21.7352 31.4698 21.2163C31.4919 21.0164 31.5733 20.8278 31.7033 20.675C31.8333 20.5221 32.006 20.412 32.199 20.359L35.1232 19.7912C35.3376 19.734 35.5272 19.6071 35.6625 19.4303C35.7977 19.2535 35.8711 19.0367 35.8711 18.8136C35.8695 18.6662 35.835 18.521 35.7701 18.3887Z" fill="white"/>
</svg>
