<svg width="69" height="42" viewBox="0 0 69 42" fill="none" xmlns="http://www.w3.org/2000/svg">
<path d="M44.1827 34.781C43.9327 34.5488 43.6396 34.3693 43.3204 34.2529C42.6347 34.0104 41.8881 34.0104 41.2023 34.2529C40.8834 34.3698 40.5904 34.5492 40.34 34.781C40.0931 35.01 39.8969 35.2894 39.7643 35.6008C39.4826 36.3852 39.4826 37.2451 39.7643 38.0295C39.8977 38.3401 40.0938 38.619 40.34 38.8481C40.5898 39.0807 40.883 39.2603 41.2023 39.3762C41.8877 39.6211 42.6351 39.6211 43.3204 39.3762C43.6399 39.2606 43.9332 39.081 44.1827 38.8481C44.429 38.6182 44.6262 38.3396 44.7621 38.0295C45.0402 37.2445 45.0402 36.3858 44.7621 35.6008C44.6274 35.2897 44.4301 35.0104 44.1827 34.781ZM43.1516 37.8658C42.908 38.0892 42.5912 38.2129 42.2626 38.2129C41.934 38.2129 41.6172 38.0892 41.3736 37.8658C41.1622 37.6356 41.0578 37.1875 41.0578 36.8084C41.0578 36.4293 41.1622 35.9873 41.3736 35.7522C41.6174 35.5293 41.9342 35.4059 42.2626 35.4059C42.591 35.4059 42.9077 35.5293 43.1516 35.7522C43.3605 35.9824 43.4662 36.4317 43.4662 36.8084C43.4662 37.1851 43.3605 37.6307 43.1516 37.8658Z" fill="white"/>
<path d="M6.31402 32.2317H1.13652C1.07944 32.2362 1.02603 32.262 0.986573 32.304C0.947112 32.3461 0.924383 32.4014 0.92276 32.4594V33.4085C0.923926 33.4671 0.947023 33.5231 0.987381 33.5652C1.02774 33.6072 1.08235 33.6322 1.14016 33.635H2.82834C2.85721 33.6376 2.88422 33.6505 2.90449 33.6715C2.92475 33.6925 2.93695 33.7202 2.93886 33.7495V39.2001C2.93973 39.2597 2.96294 39.3166 3.00379 39.3594C3.04463 39.4021 3.10003 39.4275 3.15869 39.4303H4.2882C4.345 39.4276 4.39876 39.4036 4.43897 39.3628C4.47918 39.3221 4.50294 39.2676 4.50559 39.21V33.7236C4.51242 33.6996 4.5263 33.6782 4.5454 33.6624C4.56449 33.6466 4.58788 33.637 4.61247 33.635H6.3128C6.3691 33.6326 6.42252 33.6092 6.4627 33.5691C6.50287 33.5291 6.52693 33.4753 6.5302 33.4183V32.4496C6.52664 32.3921 6.5022 32.3381 6.4616 32.2978C6.42099 32.2576 6.36712 32.234 6.31037 32.2317" fill="white"/>
<path d="M34.1241 34.7811C33.9268 34.5507 33.6794 34.3699 33.4015 34.253C33.101 34.1282 32.7788 34.0663 32.4541 34.0708C32.0937 34.0682 31.7356 34.1299 31.3963 34.253C31.0764 34.3686 30.7828 34.5481 30.5328 34.7811C30.2873 35.0103 30.0913 35.2886 29.9571 35.5984C29.6753 36.3832 29.6753 37.2435 29.9571 38.0283C30.0909 38.3387 30.287 38.6174 30.5328 38.8469C30.7831 39.0794 31.0766 39.259 31.3963 39.375C31.7354 39.4995 32.0935 39.562 32.4541 39.5596C32.8493 39.5596 33.2398 39.4722 33.5982 39.3036C33.8789 39.1775 34.1332 38.9983 34.3476 38.7755C34.3861 38.7328 34.4075 38.6771 34.4075 38.6192C34.4075 38.5613 34.3861 38.5055 34.3476 38.4628L33.665 37.9545L33.6152 37.92C33.572 37.8943 33.5216 37.8838 33.472 37.8903C33.4223 37.8967 33.3761 37.9197 33.3407 37.9557C33.2451 38.0631 33.1361 38.1575 33.0165 38.2364C32.8279 38.3535 32.6096 38.4122 32.3885 38.405C32.118 38.4116 31.8544 38.3174 31.6477 38.1403C31.4173 37.9056 31.2784 37.5943 31.2566 37.2639C31.2566 37.2365 31.2663 37.21 31.2839 37.1892C31.3015 37.1685 31.3258 37.1548 31.3526 37.1506H34.5103C34.5692 37.1472 34.6246 37.1213 34.6654 37.0782C34.7062 37.035 34.7293 36.9778 34.7301 36.918V36.6718C34.7339 36.3095 34.6793 35.949 34.5686 35.6046C34.4722 35.3034 34.3168 35.025 34.112 34.786L34.1241 34.7811ZM33.1075 36.1068H31.3744C31.3442 36.1069 31.315 36.0957 31.2926 36.0752C31.2701 36.0547 31.256 36.0265 31.253 35.996C31.2666 35.9111 31.2911 35.8283 31.3258 35.7498C31.3758 35.6385 31.4472 35.5385 31.536 35.4556C31.7461 35.2628 32.0214 35.1593 32.3048 35.1663C32.4292 35.1615 32.5532 35.1834 32.6687 35.2305C32.7842 35.2776 32.8887 35.3488 32.9752 35.4396C33.1191 35.5877 33.2054 35.7836 33.2181 35.9911C33.2153 36.0201 33.2023 36.0472 33.1817 36.0675C33.161 36.0878 33.1338 36.1 33.1051 36.1019" fill="white"/>
<path d="M28.7814 34.8772C28.5927 34.6339 28.3551 34.4342 28.0843 34.2913C27.7957 34.1423 27.4754 34.0675 27.1515 34.0734C26.8523 34.0701 26.5547 34.1197 26.2722 34.2199C26.0874 34.2865 25.9183 34.3913 25.7755 34.5276L25.7658 34.5387L25.7354 34.5695L25.7269 34.5781C25.712 34.5919 25.6924 34.5994 25.6722 34.599C25.6514 34.5987 25.6314 34.5904 25.6163 34.5758C25.6012 34.5612 25.5921 34.5413 25.5909 34.5202V31.9672C25.5891 31.9089 25.5658 31.8533 25.5255 31.8116C25.4853 31.7699 25.431 31.745 25.3735 31.7419H24.3059C24.2478 31.746 24.1933 31.772 24.1532 31.8149C24.1132 31.8577 24.0905 31.9143 24.0897 31.9734V39.2016C24.0903 39.2613 24.1134 39.3185 24.1542 39.3616C24.1951 39.4046 24.2507 39.4301 24.3095 39.433H25.2544C25.3124 39.4297 25.367 39.405 25.408 39.3634C25.4491 39.3218 25.4735 39.2664 25.4767 39.2077V38.9751C25.4791 38.9556 25.4884 38.9377 25.503 38.9247C25.5176 38.9118 25.5363 38.9047 25.5556 38.9049C25.5762 38.9051 25.5958 38.9135 25.6103 38.9283L25.6394 38.9566C25.6662 38.9874 25.6965 39.0157 25.7281 39.0465C25.8315 39.1424 25.9461 39.2251 26.0694 39.2926C26.2046 39.3691 26.3475 39.4306 26.4957 39.4761C26.6553 39.5244 26.821 39.5484 26.9876 39.5475C27.3246 39.5525 27.6593 39.4884 27.9713 39.3591C28.2577 39.239 28.5156 39.0586 28.728 38.8298C28.9432 38.5976 29.1086 38.3226 29.2138 38.0223C29.4363 37.2686 29.4418 36.4661 29.2296 35.7093C29.1322 35.4052 28.9826 35.121 28.7875 34.8698L28.7814 34.8772ZM27.5645 37.8598C27.3198 38.0806 27.0036 38.2026 26.676 38.2026C26.3485 38.2026 26.0323 38.0806 25.7876 37.8598C25.5763 37.6284 25.4731 37.1606 25.4731 36.7876C25.4731 36.4147 25.5763 35.9851 25.7876 35.7536C26.0323 35.5328 26.3485 35.4108 26.676 35.4108C27.0036 35.4108 27.3198 35.5328 27.5645 35.7536C27.7746 35.9851 27.879 36.4147 27.879 36.7876C27.879 37.1606 27.7746 37.6284 27.5645 37.8598Z" fill="white"/>
<path d="M59.8148 31.7419H58.7558C58.6971 31.7444 58.6416 31.7695 58.6005 31.812C58.5594 31.8546 58.5359 31.9114 58.5347 31.9709V34.5362C58.5325 34.552 58.5257 34.5668 58.5153 34.5788C58.5049 34.5908 58.4913 34.5995 58.4761 34.6038C58.4609 34.6081 58.4449 34.6078 58.4298 34.6031C58.4148 34.5983 58.4014 34.5892 58.3914 34.5768V34.5707L58.3696 34.5485C58.3696 34.5411 58.355 34.535 58.3477 34.5264C58.2058 34.3901 58.0375 34.2853 57.8534 34.2186C57.5709 34.1185 57.2733 34.0689 56.9741 34.0721C56.6471 34.065 56.3236 34.1408 56.0328 34.2925C55.7615 34.4357 55.5231 34.6354 55.3333 34.8784C55.1398 35.1299 54.9911 35.4136 54.8936 35.7167C54.6814 36.4735 54.6869 37.276 54.9094 38.0297C55.0152 38.33 55.1806 38.6052 55.3952 38.8384C55.6077 39.0668 55.8656 39.2468 56.1518 39.3665C56.4643 39.4958 56.7993 39.5598 57.1368 39.5548C57.3014 39.5557 57.4651 39.5317 57.6226 39.4834C57.7731 39.4391 57.9182 39.3775 58.055 39.3C58.1781 39.2322 58.2927 39.1495 58.3963 39.0538L58.4874 38.9615L58.5129 38.9357C58.5204 38.9268 58.5297 38.9197 58.5402 38.9149C58.5507 38.91 58.5621 38.9075 58.5736 38.9075C58.5851 38.9075 58.5965 38.91 58.607 38.9149C58.6175 38.9197 58.6268 38.9268 58.6343 38.9357C58.6465 38.947 58.6547 38.9622 58.6574 38.9788V39.2089C58.6586 39.2688 58.6822 39.3259 58.7235 39.3687C58.7648 39.4114 58.8207 39.4366 58.8797 39.4391H59.8209C59.8805 39.4366 59.9369 39.4109 59.9783 39.3673C60.0197 39.3238 60.0429 39.2657 60.0432 39.2053V31.9795C60.0432 31.9193 60.0202 31.8614 59.979 31.818C59.9377 31.7746 59.8815 31.7491 59.8221 31.7469L59.8148 31.7419ZM58.3428 37.8709C58.0982 38.0917 57.782 38.2137 57.4544 38.2137C57.1268 38.2137 56.8107 38.0917 56.566 37.8709C56.3547 37.6395 56.2514 37.1717 56.2514 36.7987C56.2514 36.4257 56.3547 35.9961 56.566 35.7647C56.8107 35.5439 57.1268 35.4219 57.4544 35.4219C57.782 35.4219 58.0982 35.5439 58.3428 35.7647C58.5542 35.9961 58.6598 36.4257 58.6598 36.7987C58.6598 37.1717 58.5542 37.6395 58.3428 37.8709Z" fill="white"/>
<path d="M18.2247 31.7542C18.0234 31.7536 17.8282 31.8238 17.6722 31.9527C17.5162 32.0815 17.4091 32.2612 17.369 32.4611C17.329 32.6611 17.3585 32.8689 17.4525 33.0492C17.5466 33.2296 17.6993 33.3713 17.8849 33.4504C18.0704 33.5295 18.2772 33.541 18.4701 33.4829C18.663 33.4248 18.8302 33.3008 18.9431 33.132C19.056 32.9631 19.1077 32.7598 19.0894 32.5566C19.0711 32.3535 18.984 32.163 18.8428 32.0176C18.763 31.9332 18.667 31.8662 18.5607 31.8209C18.4544 31.7756 18.34 31.7529 18.2247 31.7542Z" fill="white"/>
<path d="M18.7465 34.1953H17.7039C17.6444 34.1953 17.5873 34.2186 17.5444 34.2604C17.5016 34.3022 17.4764 34.3592 17.4742 34.4193V39.2078C17.4758 39.2674 17.5003 39.3241 17.5426 39.3657C17.5848 39.4073 17.6414 39.4306 17.7003 39.4306H18.7465C18.8054 39.4303 18.862 39.407 18.9043 39.3655C18.9466 39.3239 18.9715 39.2674 18.9737 39.2078V34.4255C18.9712 34.3651 18.9458 34.308 18.9028 34.266C18.8598 34.2241 18.8025 34.2005 18.7428 34.2002" fill="white"/>
<path d="M54.0398 34.195H53.0961C53.0388 34.1969 52.9843 34.2206 52.9435 34.2614C52.9027 34.3023 52.8787 34.3573 52.8763 34.4154V34.6616C52.874 34.6723 52.8696 34.6825 52.8634 34.6916C52.8572 34.7006 52.8493 34.7083 52.8402 34.7143C52.8311 34.7202 52.8209 34.7243 52.8102 34.7262C52.7995 34.7282 52.7885 34.7279 52.7779 34.7256C52.7623 34.7218 52.748 34.7137 52.7366 34.7022L52.7208 34.685C52.6879 34.6473 52.6522 34.6123 52.614 34.5803C52.5035 34.4827 52.381 34.3999 52.2496 34.3341C52.0981 34.2554 51.9384 34.1939 51.7735 34.1507C51.5813 34.1018 51.3838 34.0778 51.1857 34.0793C50.8618 34.0744 50.5416 34.1496 50.2529 34.2984C49.9841 34.4396 49.7468 34.6352 49.5558 34.8733C49.3605 35.1191 49.2104 35.3985 49.1125 35.698C49.0105 36.0688 48.9582 36.4518 48.957 36.8367C48.9535 37.2224 49.0117 37.6061 49.1295 37.9729C49.2362 38.2731 49.4014 38.5486 49.6153 38.7828C49.8285 39.0115 50.0872 39.1915 50.3744 39.3109C50.6859 39.4407 51.0201 39.5052 51.3569 39.5005C51.6066 39.4957 51.8534 39.4457 52.0856 39.3528C52.2649 39.2823 52.4278 39.175 52.5642 39.0376C52.5676 39.0329 52.5717 39.0288 52.5763 39.0253L52.6127 38.9859C52.629 38.9697 52.6506 38.9601 52.6735 38.9589C52.6945 38.9585 52.7149 38.9666 52.7301 38.9813C52.7453 38.9961 52.7542 39.0163 52.7548 39.0376V39.3183C52.7601 39.478 52.7341 39.6371 52.6782 39.7865C52.6224 39.9359 52.5378 40.0726 52.4293 40.1886C52.2124 40.4151 51.8731 40.5283 51.4116 40.5283C51.1194 40.5322 50.8297 40.4735 50.5614 40.356C50.3652 40.2674 50.1787 40.158 50.0052 40.0298C49.9577 39.9984 49.9006 39.9855 49.8445 39.9937C49.7884 40.0018 49.7371 40.0304 49.7003 40.0741L49.1137 40.9629C49.0806 41.013 49.068 41.0742 49.0784 41.1336C49.0888 41.1931 49.1215 41.2461 49.1696 41.2817C49.468 41.4897 49.802 41.6396 50.1545 41.7236C50.5783 41.8223 51.012 41.871 51.4468 41.8688C52.3966 41.8688 53.1038 41.6268 53.5686 41.1426C54.0333 40.6584 54.2657 39.9481 54.2657 39.0118V34.4166C54.2633 34.3584 54.2393 34.3033 54.1986 34.2622C54.1578 34.2211 54.1033 34.1972 54.0459 34.195H54.0398ZM52.7925 37.3955C52.7304 37.54 52.6418 37.6712 52.5314 37.7821C52.4181 37.8938 52.2855 37.9835 52.1403 38.0467C51.9909 38.1137 51.8294 38.1483 51.666 38.1483C51.5027 38.1483 51.3411 38.1137 51.1917 38.0467C51.0505 37.9822 50.9218 37.8925 50.8116 37.7821C50.6999 37.6723 50.6111 37.5408 50.5505 37.3955C50.4899 37.2106 50.4595 37.0168 50.4606 36.8219C50.4595 36.6032 50.4897 36.3855 50.5505 36.1757C50.6111 36.0307 50.6999 35.8997 50.8116 35.7904C50.9218 35.6799 51.0505 35.5903 51.1917 35.5257C51.3411 35.4587 51.5027 35.4241 51.666 35.4241C51.8294 35.4241 51.9909 35.4587 52.1403 35.5257C52.2858 35.5884 52.4184 35.6782 52.5314 35.7904C52.642 35.9006 52.7307 36.0314 52.7925 36.1757C52.8521 36.3858 52.8824 36.6033 52.8824 36.8219C52.8823 37.0167 52.8519 37.2103 52.7925 37.3955Z" fill="white"/>
<path d="M11.2462 34.7443C11.1127 34.5318 10.9235 34.3613 10.6996 34.2519C10.4088 34.1224 10.0928 34.0614 9.77539 34.0734C9.60566 34.0724 9.43669 34.0965 9.27379 34.1448C9.13275 34.1866 8.99823 34.2483 8.87422 34.3282C8.76237 34.3972 8.66127 34.4827 8.57423 34.5818C8.57073 34.5854 8.56785 34.5895 8.56573 34.5941L8.53658 34.6286L8.52079 34.6495C8.50448 34.6636 8.48334 34.6706 8.46196 34.669C8.44059 34.6674 8.4207 34.6573 8.40663 34.6409C8.39949 34.6317 8.39414 34.6213 8.39084 34.6101V31.9685C8.3896 31.9075 8.36514 31.8494 8.32259 31.8062C8.28003 31.7631 8.22268 31.7383 8.16251 31.7371H7.10709C7.04781 31.739 6.99158 31.7642 6.95033 31.8074C6.90907 31.8506 6.88602 31.9084 6.88605 31.9685V39.1991C6.88604 39.2605 6.90985 39.3195 6.95234 39.3632C6.99483 39.407 7.0526 39.432 7.11316 39.433H8.15644C8.21712 39.432 8.27501 39.407 8.31769 39.3633C8.36038 39.3196 8.38446 39.2606 8.38477 39.1991V36.6769C8.38395 36.52 8.3941 36.3633 8.41513 36.2079C8.43095 36.0693 8.47214 35.9349 8.53658 35.8115C8.60211 35.693 8.69772 35.5944 8.81349 35.5259C8.95901 35.4504 9.12137 35.4143 9.28472 35.4213C9.42971 35.4053 9.57573 35.4399 9.69871 35.5194C9.82169 35.5988 9.91428 35.7184 9.96121 35.8583C10.0138 35.9927 10.0446 36.1349 10.0523 36.2793C10.062 36.4332 10.0681 36.5797 10.0681 36.7224V39.2041C10.0684 39.2656 10.0925 39.3245 10.1352 39.3682C10.1779 39.4119 10.2357 39.437 10.2964 39.4379H11.3385C11.3996 39.4376 11.4581 39.4129 11.5013 39.3691C11.5445 39.3253 11.5689 39.266 11.5692 39.2041V36.4061C11.5717 36.0965 11.5485 35.7873 11.5 35.4816C11.4617 35.2195 11.3708 34.9681 11.2328 34.7431" fill="white"/>
<path d="M48.6838 34.0745H48.402C48.1078 34.0638 47.8174 34.1436 47.5688 34.3034C47.4065 34.4193 47.2662 34.564 47.1547 34.7306L47.1353 34.7589L47.1207 34.781C47.105 34.7975 47.0837 34.8072 47.0612 34.8081C47.0422 34.808 47.0238 34.8014 47.009 34.7893C46.9942 34.7772 46.9839 34.7604 46.9798 34.7417V34.4253C46.9792 34.3643 46.9548 34.3061 46.9121 34.2632C46.8693 34.2204 46.8116 34.1963 46.7515 34.1963H45.7094C45.6521 34.1958 45.5966 34.2171 45.5541 34.2561C45.5115 34.2951 45.485 34.3489 45.4799 34.4068V39.2236C45.4857 39.28 45.5116 39.3323 45.5527 39.3708C45.5939 39.4093 45.6474 39.4314 45.7033 39.4328H46.7612C46.8206 39.4316 46.8771 39.4067 46.9186 39.3637C46.9602 39.3207 46.9835 39.2629 46.9834 39.2026V37.0743C46.983 36.85 46.9972 36.6259 47.026 36.4034C47.0453 36.2165 47.105 36.0362 47.2008 35.8754C47.2948 35.7252 47.4304 35.6066 47.5907 35.5344C47.7625 35.4568 47.948 35.4149 48.136 35.4113H48.6899C48.7472 35.4102 48.8022 35.3873 48.8438 35.3472C48.8853 35.3071 48.9106 35.2527 48.9145 35.1946V34.2887C48.9106 34.2314 48.8859 34.1776 48.845 34.1377C48.8042 34.0979 48.7501 34.0749 48.6935 34.0732" fill="white"/>
<path d="M22.9347 36.5758C22.7466 36.4598 22.5417 36.3743 22.3275 36.3223L21.7202 36.1721C21.5586 36.1354 21.4014 36.0809 21.2514 36.0096C21.196 35.9869 21.1486 35.9477 21.1157 35.8971C21.0827 35.8466 21.0657 35.7871 21.0668 35.7265C21.0615 35.6592 21.0755 35.5917 21.1072 35.5323C21.1389 35.4729 21.1869 35.424 21.2453 35.3917C21.359 35.3289 21.4863 35.2959 21.6158 35.2956C21.8852 35.2881 22.1469 35.388 22.3445 35.5738C22.3866 35.6108 22.4405 35.6312 22.4963 35.6312C22.5521 35.6312 22.606 35.6108 22.6481 35.5738L23.2627 34.914C23.2985 34.8722 23.3182 34.8187 23.3182 34.7633C23.3182 34.7079 23.2985 34.6543 23.2627 34.6125C23.0666 34.4312 22.8335 34.2959 22.5801 34.2161C22.2652 34.1185 21.9378 34.0684 21.6085 34.0671C21.3557 34.0665 21.104 34.1008 20.8603 34.1693C20.6251 34.2318 20.4038 34.3392 20.2081 34.4857C20.0166 34.6312 19.8598 34.8184 19.7491 35.0335C19.6278 35.2792 19.5681 35.5515 19.5754 35.8262C19.561 36.1029 19.6251 36.378 19.76 36.6189C19.875 36.8094 20.0364 36.9667 20.2288 37.0756C20.4189 37.1875 20.6232 37.2724 20.8361 37.328L21.4433 37.4794C21.6068 37.5164 21.7651 37.5739 21.9145 37.6505C21.9711 37.6784 22.0185 37.7223 22.051 37.7769C22.0836 37.8315 22.0999 37.8945 22.0979 37.9582C22.1007 38.0239 22.0817 38.0886 22.0438 38.142C22.0059 38.1953 21.9514 38.2342 21.889 38.2524C21.7391 38.3089 21.5801 38.3364 21.4202 38.3337C21.2133 38.3388 21.0086 38.2891 20.8263 38.1896C20.7078 38.1209 20.5998 38.0351 20.5057 37.9348C20.4613 37.8995 20.4056 37.8821 20.3493 37.886C20.293 37.8899 20.2401 37.9147 20.2009 37.9557L19.5815 38.6943C19.5466 38.7417 19.5311 38.8009 19.5381 38.8595C19.5451 38.9182 19.5741 38.9719 19.6191 39.0094C19.8254 39.1926 20.0687 39.3279 20.332 39.4058C20.6661 39.5081 21.013 39.5608 21.3619 39.5621C21.6266 39.562 21.8907 39.5352 22.1502 39.4821C22.4045 39.433 22.648 39.3379 22.8692 39.2015C23.081 39.0685 23.2597 38.8878 23.3914 38.6734C23.5358 38.4208 23.6066 38.1318 23.5954 37.84C23.6084 37.5635 23.5445 37.2888 23.4108 37.0473C23.2929 36.8557 23.1313 36.6957 22.9396 36.5808" fill="white"/>
<path d="M16.5706 34.1964H15.5286C15.4699 34.197 15.4135 34.2202 15.3711 34.2614C15.3287 34.3026 15.3033 34.3586 15.3003 34.418V36.9513C15.3001 37.1078 15.2895 37.2641 15.2687 37.4191C15.25 37.5582 15.2059 37.6927 15.1387 37.8155C15.0752 37.9346 14.9801 38.0335 14.8642 38.1011C14.7189 38.1785 14.5559 38.2155 14.3918 38.2081C14.2335 38.2181 14.0764 38.1748 13.9449 38.085C13.8417 38.0023 13.7617 37.8937 13.7129 37.7699C13.6623 37.6346 13.6324 37.4922 13.6242 37.3477C13.6145 37.1951 13.6096 37.0486 13.6096 36.9058V34.4168C13.6063 34.3576 13.5808 34.3018 13.5384 34.2609C13.496 34.22 13.4398 34.197 13.3813 34.1964H12.3393C12.3086 34.1946 12.2779 34.199 12.249 34.2095C12.2201 34.2199 12.1935 34.236 12.1708 34.2571C12.1482 34.2781 12.1299 34.3034 12.1171 34.3317C12.1043 34.36 12.0973 34.3906 12.0964 34.4217V37.2221C12.0942 37.5317 12.1178 37.841 12.1668 38.1466C12.2062 38.4073 12.2944 38.658 12.4267 38.8852C12.5615 39.0969 12.7509 39.2672 12.9744 39.3776C13.2654 39.5067 13.5814 39.5673 13.8987 39.5548C14.068 39.5551 14.2365 39.5311 14.3991 39.4834C14.5427 39.4388 14.6809 39.3777 14.8108 39.3012C14.9294 39.2301 15.0377 39.1427 15.1327 39.0415C15.1642 39.007 15.1909 38.9726 15.2177 38.9406C15.2246 38.9328 15.233 38.9267 15.2424 38.9224C15.2518 38.9182 15.262 38.916 15.2723 38.9159C15.2933 38.9163 15.3133 38.9247 15.3282 38.9396C15.3432 38.9546 15.3519 38.9747 15.3525 38.996V39.1966C15.3534 39.2582 15.3781 39.317 15.4212 39.3605C15.4643 39.4039 15.5224 39.4286 15.5832 39.4293H16.567C16.628 39.4293 16.6865 39.4048 16.7297 39.3612C16.773 39.3176 16.7974 39.2584 16.7978 39.1966V34.4168C16.7946 34.357 16.7689 34.3008 16.7259 34.2598C16.683 34.2187 16.626 34.196 16.567 34.1964" fill="white"/>
<path d="M39.1449 38.213H36.8507C36.8322 38.2092 36.8155 38.1991 36.8035 38.1843C36.7915 38.1694 36.785 38.1509 36.7851 38.1317C36.7847 38.1103 36.7925 38.0895 36.807 38.0739L36.8398 38.0431L36.8653 38.0172L39.032 35.9308L39.1619 35.8077C39.2088 35.7654 39.2467 35.7139 39.2734 35.6564C39.3001 35.5988 39.3151 35.5364 39.3174 35.4728V34.4228C39.3168 34.3613 39.2924 34.3025 39.2495 34.259C39.2066 34.2155 39.1485 34.1908 39.0878 34.1902H35.3228C35.263 34.1908 35.2057 34.2148 35.1629 34.2573C35.1201 34.2997 35.0952 34.3573 35.0933 34.4179V35.1823C35.0952 35.243 35.1201 35.3005 35.1629 35.343C35.2057 35.3854 35.263 35.4095 35.3228 35.4101H37.3827C37.4026 35.4125 37.4211 35.4222 37.4345 35.4373C37.4479 35.4525 37.4554 35.4722 37.4555 35.4925C37.4553 35.5094 37.4497 35.5258 37.4397 35.5393L35.5038 37.4473L35.2208 37.7243L35.1686 37.776C35.0866 37.861 35.0401 37.9747 35.0386 38.0936V39.2014C35.0405 39.2613 35.065 39.3182 35.107 39.3604C35.149 39.4025 35.2054 39.4267 35.2645 39.4279H39.151C39.2115 39.427 39.2692 39.4021 39.3118 39.3586C39.3545 39.3152 39.3787 39.2566 39.3793 39.1953V38.4407C39.379 38.3793 39.3549 38.3205 39.3122 38.277C39.2695 38.2334 39.2116 38.2087 39.151 38.208" fill="white"/>
<path d="M67.8431 31.6631H67.4883C67.4292 31.6656 67.3733 31.691 67.3321 31.7341C67.291 31.7771 67.2677 31.8346 67.2672 31.8945V39.2003C67.2671 39.2611 67.2907 39.3196 67.3327 39.363C67.3747 39.4065 67.4319 39.4316 67.4919 39.4329H67.8346C67.8946 39.4313 67.9516 39.4061 67.9935 39.3627C68.0355 39.3193 68.0591 39.261 68.0594 39.2003V31.8982C68.0598 31.838 68.0368 31.78 67.9955 31.7368C67.9541 31.6935 67.8977 31.6684 67.8383 31.6668" fill="white"/>
<path d="M66.1097 34.6185C65.9533 34.4445 65.7597 34.3089 65.5437 34.2222C65.2866 34.1201 65.0121 34.0708 64.7361 34.0769C64.3804 34.0743 64.0312 34.1728 63.728 34.3613C63.5984 34.4423 63.4803 34.5409 63.377 34.6542C63.354 34.6813 63.3321 34.7072 63.3115 34.7343L63.2847 34.77L63.2738 34.7847C63.2664 34.7933 63.2572 34.8 63.2469 34.8045C63.2366 34.8089 63.2255 34.811 63.2143 34.8106C63.1952 34.8105 63.1767 34.8035 63.1623 34.7909C63.1478 34.7782 63.1382 34.7608 63.1353 34.7416V34.4253C63.1341 34.3652 63.1101 34.3078 63.0682 34.2652C63.0264 34.2226 62.97 34.1979 62.9107 34.1963H62.6204C62.5612 34.1982 62.505 34.2232 62.4636 34.2661C62.4222 34.309 62.3987 34.3665 62.3981 34.4265V39.2063C62.3997 39.2657 62.4235 39.3222 62.4648 39.3644C62.5062 39.4065 62.5618 39.431 62.6204 39.4328H62.9665C63.0264 39.4315 63.0835 39.4064 63.1253 39.3629C63.1671 39.3194 63.1903 39.2609 63.19 39.2002V36.6706C63.1877 36.4168 63.2166 36.1637 63.2762 35.9172C63.3255 35.7064 63.4142 35.5071 63.5374 35.33C63.6556 35.1657 63.8126 35.0341 63.994 34.9472C64.2037 34.8547 64.4309 34.8097 64.6596 34.8155C65.0324 34.8155 65.3118 34.9386 65.4854 35.1676C65.6737 35.4491 65.7651 35.7857 65.7453 36.1252V39.2026C65.7453 39.2633 65.7687 39.3216 65.8104 39.365C65.8522 39.4085 65.909 39.4337 65.9688 39.4353H66.315C66.3744 39.4337 66.4308 39.4088 66.4725 39.3659C66.5142 39.323 66.5378 39.2653 66.5384 39.2051V36.0415C66.54 35.7735 66.504 35.5066 66.4316 35.2488C66.3677 35.0192 66.255 34.8066 66.1012 34.6259" fill="white"/>
<path d="M61.1815 38.3768C61.1071 38.374 61.033 38.3876 60.9644 38.4167C60.8958 38.4458 60.8342 38.4898 60.7841 38.5455C60.681 38.6508 60.6234 38.7932 60.6239 38.9416C60.6245 39.0899 60.6832 39.2319 60.7872 39.3364C60.8911 39.4408 61.0317 39.4992 61.1781 39.4986C61.3245 39.498 61.4647 39.4386 61.5679 39.3333L61.58 39.321C61.6771 39.2158 61.7312 39.0772 61.7312 38.9332C61.7312 38.7892 61.6771 38.6506 61.58 38.5455C61.5304 38.4908 61.4698 38.4474 61.4023 38.4184C61.3349 38.3893 61.2621 38.3751 61.1887 38.3768" fill="white"/>
<path d="M48.119 13.9546C48.0316 13.7269 46.8377 11.4927 44.6224 8.68857C44.5662 8.62072 44.5308 8.53773 44.5204 8.44977C44.3872 6.81733 44.1646 5.19365 43.8536 3.58625C43.8181 3.42483 43.7337 3.2787 43.6122 3.16834C43.4906 3.05797 43.3381 2.98889 43.1759 2.97077L40.8805 2.68765C40.8603 2.68639 40.84 2.68639 40.8197 2.68765C40.6909 2.68765 40.5673 2.73952 40.4762 2.83186C40.3851 2.9242 40.3339 3.04944 40.3339 3.18003V3.99123C40.3339 3.99506 40.3332 3.99884 40.3317 4.00236C40.3302 4.00588 40.3281 4.00906 40.3253 4.0117C40.3226 4.01435 40.3194 4.01641 40.3159 4.01775C40.3123 4.0191 40.3086 4.01971 40.3048 4.01955C40.2989 4.02144 40.2925 4.02144 40.2866 4.01955C38.8441 2.69515 37.2873 1.50455 35.635 0.462075C35.298 0.233308 34.9013 0.111591 34.4957 0.112482C34.089 0.107069 33.6901 0.225417 33.3505 0.452227C25.4026 5.4253 21.0279 13.5102 20.8591 13.9546C20.8091 14.0607 20.7834 14.1768 20.7838 14.2944C20.7838 14.472 20.8422 14.6445 20.9497 14.7847C21.0573 14.9249 21.2079 15.0248 21.3777 15.0686L23.6671 15.5155C23.8185 15.557 23.954 15.6439 24.0561 15.7646C24.1581 15.8854 24.2219 16.0345 24.2391 16.1925C24.2586 16.6024 24.6909 25.7521 25.235 28.1254C25.2793 28.2959 25.3781 28.4466 25.5158 28.5542C25.6536 28.6618 25.8226 28.7201 25.9965 28.72H26.0135C27.3495 28.6855 28.5725 28.6633 29.8939 28.6449H30.0045C30.0722 28.6446 30.1371 28.617 30.1849 28.5684C30.2327 28.5197 30.2595 28.4538 30.2595 28.3851V28.3778C30.2061 27.5789 30.0907 25.7521 29.9972 23.8294C29.9972 23.7801 29.9911 23.7198 29.9887 23.6706C29.9845 23.5904 29.9611 23.5125 29.9204 23.4437C29.8798 23.3748 29.8232 23.3171 29.7555 23.2754C29.407 23.0646 29.1152 22.77 28.9057 22.4177C28.6962 22.0654 28.5755 21.6662 28.5543 21.2554C28.4329 18.0463 28.3734 14.3374 28.547 11.4361C28.5494 11.3123 28.6003 11.1946 28.6883 11.1089C28.7763 11.0231 28.8944 10.9763 29.0164 10.9788C29.1385 10.9812 29.2546 11.0327 29.3393 11.1219C29.4239 11.2112 29.47 11.3308 29.4676 11.4545C29.4676 11.4668 29.4676 11.4792 29.4676 11.4915C29.3547 13.4265 29.3462 15.7124 29.3863 17.9688C29.3875 18.0415 29.4028 18.1133 29.4313 18.18C29.4599 18.2468 29.5012 18.3072 29.5528 18.3578C29.6044 18.4083 29.6653 18.4481 29.7321 18.4748C29.7988 18.5016 29.8701 18.5147 29.9419 18.5135C30.0137 18.5123 30.0845 18.4967 30.1504 18.4678C30.2162 18.4388 30.2758 18.397 30.3257 18.3447C30.3756 18.2924 30.4149 18.2307 30.4412 18.163C30.4676 18.0953 30.4805 18.0231 30.4793 17.9503C30.438 15.678 30.449 13.3761 30.5643 11.4361C30.5668 11.3123 30.6176 11.1946 30.7056 11.1089C30.7936 11.0231 30.9117 10.9763 31.0338 10.9788C31.1558 10.9812 31.272 11.0327 31.3566 11.1219C31.4412 11.2112 31.4874 11.3308 31.485 11.4545V11.4915C31.372 13.4155 31.3635 15.689 31.4024 17.9331C31.4046 18.08 31.4644 18.22 31.5685 18.3222C31.6725 18.4245 31.8124 18.4807 31.9574 18.4784C32.1023 18.4761 32.2405 18.4156 32.3414 18.3101C32.4423 18.2046 32.4977 18.0628 32.4954 17.9158C32.4554 15.6546 32.4663 13.3613 32.5817 11.4336C32.5841 11.3099 32.6349 11.1922 32.7229 11.1064C32.811 11.0207 32.929 10.9739 33.0511 10.9763C33.1732 10.9788 33.2893 11.0303 33.3739 11.1195C33.4585 11.2087 33.5047 11.3283 33.5023 11.4521C33.5023 11.4644 33.5023 11.4767 33.5023 11.489C33.3383 14.3104 33.3917 17.8814 33.5023 21.0129C33.5029 21.0228 33.5029 21.0326 33.5023 21.0425C33.5023 21.0585 33.5023 21.0745 33.5023 21.0905V21.1213C33.5025 21.5278 33.4051 21.9283 33.2185 22.2882C33.0318 22.648 32.7616 22.9565 32.4311 23.1868C32.3723 23.2275 32.3235 23.2813 32.2884 23.344C32.2532 23.4067 32.2326 23.4767 32.2282 23.5487C32.2282 23.5487 32.1712 24.03 32.3813 26.3614C32.4784 27.3782 32.5537 28.0848 32.5877 28.4024C32.5952 28.4622 32.624 28.5172 32.6688 28.5569C32.7136 28.5966 32.7711 28.6183 32.8306 28.6178H33.0444H34.4132H34.5893C35.1868 28.6178 35.7564 28.6178 36.3042 28.6178L37.6037 28.6301C37.6636 28.6305 37.7215 28.6085 37.7663 28.5683C37.8111 28.5281 37.8397 28.4725 37.8466 28.4122C38.1344 25.6204 38.2085 24.0522 38.2085 24.0522C38.2069 23.9851 38.1814 23.9209 38.1368 23.8713C38.0922 23.8218 38.0314 23.7903 37.9656 23.7826L36.3868 23.5622C36.2819 23.5493 36.1832 23.5052 36.1031 23.4356C36.0229 23.3659 35.9648 23.2738 35.9362 23.1708C35.9163 23.0904 35.9094 23.0073 35.9155 22.9246C36.5507 13.6136 39.5797 10.4796 39.5797 10.4796C39.624 10.4313 39.6732 10.388 39.7267 10.3504C39.7867 10.3065 39.8559 10.2772 39.9288 10.2645C40.0017 10.2519 40.0766 10.2563 40.1476 10.2774C40.2186 10.2986 40.2839 10.3359 40.3385 10.3865C40.3931 10.4371 40.4356 10.4997 40.4627 10.5695C40.485 10.6422 40.4981 10.7175 40.5015 10.7935C40.7639 13.7207 40.6364 18.7 40.4736 22.5849C40.3364 25.8826 40.1712 28.4713 40.1712 28.4713C40.1712 28.5222 40.1912 28.5711 40.2267 28.6071C40.2622 28.6431 40.3104 28.6633 40.3607 28.6633C41.2193 28.6781 42.061 28.6953 42.9634 28.7187H42.9816C43.1554 28.7186 43.3244 28.6603 43.4621 28.5527C43.5998 28.4452 43.6986 28.2945 43.7431 28.1242C44.2872 25.7509 44.7147 16.6012 44.7378 16.1913C44.7555 16.0334 44.8195 15.8846 44.9214 15.7639C45.0234 15.6432 45.1587 15.5563 45.3098 15.5142L47.5992 15.0674C47.7117 15.0383 47.8165 14.9844 47.9061 14.9095C47.9957 14.8346 48.0678 14.7406 48.1175 14.6342C48.1671 14.5278 48.193 14.4117 48.1933 14.294C48.1935 14.1763 48.1682 14.06 48.119 13.9534V13.9546Z" fill="white"/>
</svg>
