<svg width="54" height="44" viewBox="0 0 54 44" fill="none" xmlns="http://www.w3.org/2000/svg">
<path d="M39.6526 13.4522C39.5714 13.2411 38.4622 11.1708 36.4041 8.57344C36.3519 8.51056 36.319 8.43366 36.3094 8.35214C36.1855 6.84056 35.9787 5.33709 35.6899 3.84869C35.6569 3.69911 35.5785 3.5637 35.4656 3.46143C35.3527 3.35915 35.211 3.29514 35.0603 3.27834L32.9277 3.01142C32.9089 3.01025 32.8901 3.01025 32.8713 3.01142C32.7516 3.01142 32.6368 3.05949 32.5522 3.14506C32.4675 3.23063 32.42 3.34669 32.42 3.4677V4.21941C32.42 4.22296 32.4193 4.22647 32.4179 4.22973C32.4165 4.23299 32.4145 4.23593 32.412 4.23838C32.4095 4.24083 32.4065 4.24274 32.4032 4.24399C32.3999 4.24524 32.3964 4.24581 32.3929 4.24565C32.3874 4.2474 32.3815 4.2474 32.376 4.24565C31.0358 3.01837 29.5895 1.91509 28.0544 0.949051C27.7405 0.732525 27.3693 0.61647 26.9893 0.615969C26.6127 0.615361 26.2445 0.728572 25.932 0.941066C18.5482 5.54946 14.4839 13.0415 14.327 13.4522C14.2807 13.5509 14.2568 13.6589 14.2571 13.7681C14.2571 13.9327 14.3113 14.0926 14.4112 14.2226C14.5112 14.3525 14.6511 14.4451 14.8088 14.4856L16.9358 14.8986C17.0765 14.9373 17.2025 15.018 17.2973 15.1301C17.392 15.2422 17.4513 15.3805 17.4672 15.5271C17.4853 15.9069 17.887 24.3857 18.3924 26.585C18.4336 26.7429 18.5253 26.8826 18.6533 26.9823C18.7813 27.082 18.9384 27.136 19.0999 27.1359H19.1157C20.3569 27.104 21.4931 27.0834 22.7264 27.0663H22.8291C22.8603 27.0662 22.8913 27.0598 22.9201 27.0476C22.9489 27.0353 22.9751 27.0175 22.9971 26.995C23.0191 26.9726 23.0365 26.946 23.0483 26.9167C23.0602 26.8874 23.0662 26.8561 23.066 26.8245V26.8188C23.0164 26.0785 22.9092 24.3857 22.8223 22.5982C22.8223 22.5538 22.8167 22.4979 22.8144 22.4522C22.8106 22.378 22.7888 22.3058 22.751 22.242C22.7133 22.1782 22.6607 22.1246 22.5978 22.0861C22.274 21.8907 22.0029 21.6177 21.8083 21.2912C21.6136 20.9647 21.5015 20.5948 21.4818 20.2142C21.369 17.2404 21.3137 13.8035 21.4751 11.1149C21.4825 11.004 21.5318 10.9003 21.6128 10.8252C21.6938 10.7502 21.8003 10.7095 21.9102 10.7117C22.0201 10.7139 22.1249 10.7588 22.203 10.8371C22.281 10.9153 22.3262 11.0209 22.3292 11.132C22.3292 11.1434 22.3292 11.1548 22.3292 11.1662C22.2243 12.9583 22.2164 15.0777 22.2525 17.1685C22.2536 17.236 22.2678 17.3025 22.2944 17.3643C22.3209 17.4262 22.3593 17.4821 22.4072 17.529C22.4551 17.5759 22.5117 17.6127 22.5738 17.6375C22.6358 17.6623 22.702 17.6744 22.7687 17.6733C22.8354 17.6722 22.9012 17.6578 22.9624 17.631C23.0236 17.6041 23.0789 17.5654 23.1253 17.5169C23.1716 17.4685 23.2081 17.4112 23.2326 17.3485C23.2571 17.2858 23.2691 17.2188 23.268 17.1514C23.2296 15.0457 23.2398 12.9126 23.347 11.1149C23.3492 11.0002 23.3964 10.8912 23.4782 10.8117C23.56 10.7322 23.6697 10.6889 23.7831 10.6911C23.8965 10.6934 24.0044 10.7411 24.083 10.8238C24.1616 10.9065 24.2045 11.0173 24.2023 11.132V11.1662C24.0973 12.9491 24.0894 15.056 24.1255 17.1355C24.1275 17.2716 24.1829 17.4014 24.2794 17.4963C24.376 17.5911 24.506 17.6433 24.6406 17.6414C24.7753 17.6394 24.9037 17.5834 24.9975 17.4858C25.0914 17.3881 25.143 17.2568 25.1411 17.1206C25.1038 15.0252 25.114 12.9001 25.2212 11.1138C25.2234 10.9991 25.2706 10.89 25.3524 10.8106C25.4342 10.7311 25.5439 10.6877 25.6573 10.69C25.7707 10.6923 25.8786 10.74 25.9572 10.8227C26.0358 10.9053 26.0787 11.0162 26.0764 11.1309C26.0764 11.1423 26.0764 11.1537 26.0764 11.1651C25.9241 13.7796 25.9738 17.0887 26.0764 19.9906C26.0764 19.9906 26.0764 20.0157 26.0764 20.018C26.0764 20.0203 26.0764 20.0477 26.0764 20.0625V20.091C26.0768 20.4676 25.9863 20.8386 25.8129 21.1719C25.6395 21.5052 25.3884 21.7908 25.0813 22.0039C25.026 22.0425 24.9802 22.0935 24.9476 22.1528C24.9149 22.2122 24.8962 22.2783 24.8928 22.3461C24.8928 22.3461 24.8398 22.7922 25.035 24.9526C25.1253 25.8948 25.1952 26.5496 25.2268 26.8439C25.2337 26.8993 25.2605 26.9503 25.3021 26.9871C25.3437 27.0239 25.3972 27.044 25.4525 27.0435H25.6511C26.0607 27.0435 26.4826 27.0435 26.9227 27.0435H27.0863C27.6415 27.0435 28.1706 27.0435 28.6795 27.0435L29.8869 27.0549C29.9421 27.0541 29.9953 27.0333 30.0367 26.9962C30.0781 26.9592 30.105 26.9084 30.1125 26.853C30.3912 24.2648 30.4567 22.8116 30.4567 22.8116C30.4554 22.7493 30.4318 22.6897 30.3903 22.6437C30.3488 22.5978 30.2922 22.5686 30.231 22.5617L28.7642 22.3576C28.6669 22.3453 28.5753 22.3043 28.5009 22.2398C28.4265 22.1753 28.3724 22.0901 28.3455 21.9948C28.3271 21.9203 28.3206 21.8433 28.3264 21.7667C28.921 13.1396 31.7351 10.232 31.7351 10.232C31.7762 10.1872 31.822 10.1471 31.8716 10.1122C31.9274 10.0716 31.9916 10.0444 32.0594 10.0327C32.1271 10.021 32.1967 10.0251 32.2626 10.0447C32.3286 10.0642 32.3892 10.0988 32.44 10.1457C32.4907 10.1926 32.5302 10.2506 32.5554 10.3153C32.5762 10.3826 32.5883 10.4524 32.5915 10.5229C32.8352 13.2343 32.7167 17.8495 32.5655 21.4496C32.438 24.5055 32.2846 26.9044 32.2846 26.9044C32.2846 26.9515 32.3031 26.9968 32.3361 27.0302C32.3691 27.0636 32.4139 27.0823 32.4606 27.0823C33.2583 27.096 34.0403 27.112 34.8786 27.1336H34.8956C35.0571 27.1335 35.214 27.0794 35.342 26.9798C35.4699 26.8802 35.5617 26.7405 35.603 26.5827C36.1085 24.3834 36.5057 15.9047 36.5271 15.5248C36.5435 15.3784 36.6029 15.2403 36.6976 15.1282C36.7923 15.0162 36.9181 14.9354 37.0586 14.8963L39.1855 14.4834C39.3433 14.4428 39.4832 14.3502 39.5831 14.2203C39.683 14.0903 39.7373 13.9304 39.7373 13.7659C39.7321 13.6563 39.7032 13.5492 39.6526 13.4522Z" fill="white"/>
<path d="M0.800513 31.0622H3.21967C3.27735 31.062 3.33373 31.0795 3.38144 31.1122C3.42915 31.145 3.46597 31.1916 3.48709 31.2458L5.94123 37.5744C5.95164 37.6017 5.96999 37.6252 5.99386 37.6417C6.01772 37.6583 6.04599 37.6671 6.07494 37.6671C6.10388 37.6671 6.13215 37.6583 6.15602 37.6417C6.17989 37.6252 6.19823 37.6017 6.20865 37.5744L8.69099 31.2447C8.71224 31.1905 8.7491 31.144 8.79678 31.1113C8.84446 31.0786 8.90077 31.061 8.95841 31.061H11.3358C11.4118 31.061 11.4847 31.0916 11.5385 31.1459C11.5922 31.2002 11.6224 31.2739 11.6224 31.3508V40.2117C11.6224 40.2886 11.5923 40.3624 11.5385 40.4169C11.4848 40.4715 11.4119 40.5022 11.3358 40.5025H9.69522C9.65743 40.5025 9.62002 40.495 9.58511 40.4804C9.5502 40.4658 9.51848 40.4444 9.49176 40.4173C9.46504 40.3903 9.44385 40.3583 9.42939 40.323C9.41493 40.2877 9.40749 40.2499 9.40749 40.2117V35.5348C9.40777 35.501 9.39635 35.4682 9.37521 35.442C9.35408 35.4158 9.32455 35.398 9.29175 35.3915C9.25894 35.385 9.22492 35.3903 9.19558 35.4064C9.16623 35.4226 9.1434 35.4487 9.13105 35.4801L7.18128 40.3235C7.1597 40.3769 7.12282 40.4226 7.07538 40.4547C7.02793 40.4868 6.97208 40.5039 6.91499 40.5037H5.22248C5.16542 40.5037 5.10963 40.4866 5.06222 40.4545C5.0148 40.4224 4.97789 40.3768 4.95619 40.3235L3.00303 35.4824C2.99017 35.4514 2.96716 35.4259 2.93787 35.4101C2.90858 35.3943 2.8748 35.3892 2.84222 35.3956C2.80963 35.402 2.78023 35.4196 2.75897 35.4454C2.7377 35.4712 2.72587 35.5036 2.72546 35.5371V40.2139C2.72546 40.2909 2.6953 40.3647 2.64159 40.4192C2.58787 40.4737 2.51498 40.5045 2.43886 40.5048H0.800513C0.762729 40.5048 0.725314 40.4973 0.690405 40.4827C0.655497 40.4681 0.623778 40.4466 0.59706 40.4196C0.570342 40.3926 0.549148 40.3605 0.534689 40.3253C0.520229 40.29 0.512787 40.2521 0.512787 40.2139V31.3519C0.513085 31.275 0.543531 31.2013 0.597458 31.147C0.651385 31.0927 0.724399 31.0622 0.800513 31.0622Z" fill="white"/>
<path d="M12.2531 36.9164C12.2531 35.1586 13.316 33.1521 15.8887 33.1521C18.4613 33.1521 19.4802 35.1574 19.4802 36.9164C19.4773 37.0806 19.4637 37.2445 19.4395 37.4069C19.43 37.4762 19.3959 37.5397 19.3437 37.5856C19.2914 37.6316 19.2245 37.6568 19.1552 37.6567H14.6114C14.5875 37.6568 14.5639 37.6628 14.5429 37.6744C14.5219 37.6859 14.504 37.7026 14.4909 37.7228C14.4778 37.7431 14.4699 37.7663 14.4679 37.7904C14.4659 37.8145 14.4698 37.8387 14.4794 37.8609C14.7569 38.5019 15.4215 38.7905 16.0748 38.7905C16.6018 38.7905 17.1185 38.6388 17.4514 38.3867C17.5069 38.3464 17.5746 38.3271 17.6427 38.3323C17.7108 38.3375 17.775 38.3669 17.8238 38.4152L18.7185 39.2902C18.7462 39.3173 18.7681 39.3497 18.7831 39.3856C18.7982 39.4214 18.8059 39.46 18.8059 39.4989C18.8059 39.5378 18.7982 39.5764 18.7831 39.6122C18.7681 39.6481 18.7462 39.6805 18.7185 39.7076C18.1408 40.2666 17.1626 40.6784 16.0015 40.6784C13.4311 40.6784 12.2531 38.6742 12.2531 36.9164ZM14.564 36.1612H17.1975C17.2202 36.161 17.2425 36.1554 17.2626 36.145C17.2828 36.1345 17.3003 36.1194 17.3136 36.1009C17.327 36.0824 17.3359 36.061 17.3396 36.0384C17.3434 36.0158 17.3419 35.9926 17.3352 35.9707C17.1163 35.2521 16.551 34.9555 15.8887 34.9555C15.2263 34.9555 14.6475 35.2521 14.4218 35.9707C14.4148 35.993 14.4131 36.0167 14.417 36.0397C14.4208 36.0628 14.4301 36.0846 14.4441 36.1032C14.458 36.1219 14.4762 36.1369 14.497 36.147C14.5179 36.1571 14.5409 36.162 14.564 36.1612Z" fill="white"/>
<path d="M20.2283 33.3276H21.65C21.7263 33.3276 21.7995 33.3582 21.8534 33.4128C21.9074 33.4673 21.9377 33.5413 21.9377 33.6185V34.0257H21.9659C22.3405 33.5021 23.0728 33.1531 24.0071 33.1531C26.09 33.1531 26.9961 34.5481 26.9961 36.4611V40.2083C26.9961 40.2854 26.9657 40.3594 26.9118 40.4139C26.8578 40.4685 26.7846 40.4991 26.7083 40.4991H25.1569C25.0806 40.4991 25.0074 40.4685 24.9534 40.4139C24.8995 40.3594 24.8691 40.2854 24.8691 40.2083V36.7999C24.8691 35.8873 24.5103 35.1288 23.4892 35.1288C22.512 35.1288 22.0675 35.8405 22.0675 36.7999V40.2128C22.0675 40.29 22.0372 40.3639 21.9832 40.4185C21.9292 40.473 21.8561 40.5037 21.7797 40.5037H20.2283C20.1905 40.5037 20.1531 40.4962 20.1182 40.4815C20.0833 40.4669 20.0515 40.4455 20.0248 40.4185C19.9981 40.3915 19.9769 40.3594 19.9625 40.3241C19.948 40.2888 19.9406 40.251 19.9406 40.2128V33.6185C19.9406 33.5803 19.948 33.5425 19.9625 33.5072C19.9769 33.4719 19.9981 33.4398 20.0248 33.4128C20.0515 33.3858 20.0833 33.3644 20.1182 33.3497C20.1531 33.3351 20.1905 33.3276 20.2283 33.3276Z" fill="white"/>
<path d="M27.5704 37.3668V33.6185C27.5704 33.5414 27.6007 33.4674 27.6546 33.4128C27.7086 33.3583 27.7818 33.3276 27.8581 33.3276H29.4096C29.4474 33.3276 29.4848 33.3352 29.5197 33.3498C29.5546 33.3644 29.5863 33.3858 29.613 33.4128C29.6397 33.4398 29.6609 33.4719 29.6754 33.5072C29.6899 33.5425 29.6973 33.5803 29.6973 33.6185V37.0611C29.6973 37.9623 30.0279 38.7026 30.9904 38.7026C31.9528 38.7026 32.3839 38.0056 32.3839 37.0611V33.6185C32.3839 33.5414 32.4142 33.4674 32.4681 33.4128C32.5221 33.3583 32.5953 33.3276 32.6716 33.3276H34.2231C34.2994 33.3276 34.3726 33.3583 34.4265 33.4128C34.4805 33.4674 34.5108 33.5414 34.5108 33.6185V40.2129C34.5108 40.29 34.4805 40.364 34.4265 40.4185C34.3726 40.4731 34.2994 40.5037 34.2231 40.5037H32.8014C32.7251 40.5037 32.6519 40.4731 32.5979 40.4185C32.5439 40.364 32.5136 40.29 32.5136 40.2129V39.8068H32.4843C32.1108 40.3292 31.4067 40.6783 30.5018 40.6783C28.4618 40.6783 27.5704 39.2855 27.5704 37.3668Z" fill="white"/>
<path d="M35.7181 30.2627H37.2696C37.3459 30.2627 37.4191 30.2933 37.473 30.3479C37.527 30.4024 37.5573 30.4764 37.5573 30.5536V40.213C37.5573 40.2901 37.527 40.3641 37.473 40.4186C37.4191 40.4732 37.3459 40.5038 37.2696 40.5038H35.7181C35.6803 40.5038 35.6429 40.4963 35.608 40.4817C35.5731 40.4671 35.5414 40.4457 35.5147 40.4186C35.4879 40.3916 35.4668 40.3596 35.4523 40.3243C35.4378 40.289 35.4304 40.2512 35.4304 40.213V30.5536C35.4304 30.5154 35.4378 30.4775 35.4523 30.4423C35.4668 30.407 35.4879 30.3749 35.5147 30.3479C35.5414 30.3209 35.5731 30.2995 35.608 30.2848C35.6429 30.2702 35.6803 30.2627 35.7181 30.2627Z" fill="white"/>
<path d="M38.0741 36.9164C38.0741 35.1586 39.2961 33.1521 41.8823 33.1521C44.4684 33.1521 45.6904 35.1574 45.6904 36.9164C45.6904 38.6753 44.4684 40.6807 41.8823 40.6807C39.2961 40.6807 38.0741 38.6742 38.0741 36.9164ZM41.8823 38.6445C42.7737 38.6445 43.5206 37.9327 43.5206 36.9164C43.5206 35.9 42.7737 35.1871 41.8823 35.1871C40.9909 35.1871 40.2439 35.8989 40.2439 36.9164C40.2439 37.9339 40.992 38.6445 41.8823 38.6445Z" fill="white"/>
<path d="M46.9045 42.047L47.8534 41.0661C47.9019 41.0155 47.9669 40.9846 48.0363 40.9791C48.1057 40.9737 48.1747 40.994 48.2303 41.0364C48.6311 41.3337 49.1154 41.4935 49.6125 41.4927C50.5152 41.4927 51.3231 41.1881 51.3231 40.0554V39.3425H51.2937C51.0354 39.6904 50.3741 40.1113 49.3688 40.1113C47.2249 40.1113 46.0345 38.4995 46.0345 36.6983C46.0345 34.6793 47.4145 33.1531 49.3688 33.1531C50.3606 33.1531 51.0354 33.5021 51.4235 33.996H51.4528V33.6185C51.4528 33.5415 51.483 33.4677 51.5367 33.4132C51.5904 33.3587 51.6633 33.3279 51.7394 33.3276H53.177C53.2531 33.3279 53.326 33.3587 53.3797 33.4132C53.4334 33.4677 53.4635 33.5415 53.4635 33.6185V40.0976C53.4635 42.0288 52.0847 43.3657 49.6125 43.3657C48.4594 43.3657 47.4687 42.9813 46.9124 42.4623C46.8843 42.4359 46.8618 42.4041 46.8461 42.3687C46.8304 42.3333 46.822 42.2951 46.8212 42.2564C46.8205 42.2176 46.8275 42.1791 46.8418 42.1431C46.8561 42.1072 46.8774 42.0745 46.9045 42.047ZM51.3378 36.6253C51.3378 35.7972 50.7736 35.0135 49.7716 35.0135C48.7696 35.0135 48.2043 35.7972 48.2043 36.6253C48.2043 37.4535 48.7685 38.2383 49.7716 38.2383C50.7747 38.2383 51.3378 37.4535 51.3378 36.6253Z" fill="white"/>
</svg>
